<svg xmlns="http://www.w3.org/2000/svg" xmlns:xlink="http://www.w3.org/1999/xlink" width="27.767" height="27.767" viewBox="0 0 27.767 27.767">
  <defs>
    <linearGradient id="linear-gradient" x1="0.5" x2="0.5" y2="1" gradientUnits="objectBoundingBox">
      <stop offset="0" stop-color="#a70000"/>
      <stop offset="1" stop-color="#01235a"/>
    </linearGradient>
  </defs>
  <path id="Business_Intelligence" d="M27.283,4.168H7.818a3.661,3.661,0,0,0-3.65,3.65V27.285a3.661,3.661,0,0,0,3.65,3.65h7.3a1.217,1.217,0,1,0,0-2.434h-7.3A1.22,1.22,0,0,1,6.6,27.283V13.84H28.5v1.277a1.217,1.217,0,1,0,2.434,0v-7.3a3.661,3.661,0,0,0-3.65-3.65ZM6.6,11.406V7.818A1.22,1.22,0,0,1,7.818,6.6H27.285A1.22,1.22,0,0,1,28.5,7.818v3.589Zm7.3-2.372a1.22,1.22,0,0,1-1.217,1.217H10.251a1.217,1.217,0,1,1,0-2.434h2.433A1.222,1.222,0,0,1,13.9,9.034Zm7.3,0a1.22,1.22,0,0,1-1.217,1.217H17.551a1.217,1.217,0,0,1,0-2.434h2.433A1.222,1.222,0,0,1,21.2,9.034Zm9.733,20.684a1.22,1.22,0,0,1-1.217,1.217H19.984a1.217,1.217,0,0,1,0-2.434h1.095l.122-4.867a1.217,1.217,0,0,1,2.434,0L23.513,28.5h2.433l.122-8.516a1.217,1.217,0,0,1,2.434,0L28.38,28.5h1.338a1.22,1.22,0,0,1,1.216,1.217Z" transform="translate(-3.668 -3.668)" stroke="#fff" stroke-width="1" fill="url(#linear-gradient)"/>
</svg>
