<svg xmlns="http://www.w3.org/2000/svg" width="57" height="57" viewBox="0 0 57 57">
  <g id="Group_40258" data-name="Group 40258" transform="translate(-2048 -838)">
    <g id="Rectangle_10113" data-name="Rectangle 10113" transform="translate(2048 838)" fill="#fff" stroke="#e5e5e5" stroke-width="1">
      <rect width="57" height="57" stroke="none"/>
      <rect x="0.5" y="0.5" width="56" height="56" fill="none"/>
    </g>
    <path id="Business_Intelligence" d="M27.283,4.168H7.818a3.661,3.661,0,0,0-3.65,3.65V27.285a3.661,3.661,0,0,0,3.65,3.65h7.3a1.217,1.217,0,0,0,0-2.434h-7.3A1.22,1.22,0,0,1,6.6,27.283V13.84H28.5v1.277a1.217,1.217,0,0,0,2.434,0v-7.3a3.661,3.661,0,0,0-3.65-3.65ZM6.6,11.406V7.818A1.22,1.22,0,0,1,7.818,6.6H27.285A1.22,1.22,0,0,1,28.5,7.818v3.589Zm7.3-2.372a1.22,1.22,0,0,1-1.217,1.217H10.251a1.217,1.217,0,0,1,0-2.434h2.433A1.222,1.222,0,0,1,13.9,9.034Zm7.3,0a1.22,1.22,0,0,1-1.217,1.217H17.551a1.217,1.217,0,1,1,0-2.434h2.433A1.222,1.222,0,0,1,21.2,9.034Zm9.733,20.684a1.22,1.22,0,0,1-1.217,1.217H19.984a1.217,1.217,0,1,1,0-2.434h1.095l.122-4.867a1.217,1.217,0,1,1,2.434,0L23.513,28.5h2.433l.122-8.516a1.217,1.217,0,0,1,2.434,0L28.38,28.5h1.338a1.22,1.22,0,0,1,1.216,1.217Z" transform="translate(2059.332 849.333)" stroke="#fff" stroke-width="0.5"/>
  </g>
</svg>
