<svg xmlns="http://www.w3.org/2000/svg" width="144.517" height="96.301" viewBox="0 0 144.517 96.301">
  <g id="Data_Visualization_Illustration" transform="translate(-5.614 -90.568)">
    <path id="Path_233008" data-name="Path 233008" d="M283.78,181.76l8.661-5.76,8.661,6.147S291.316,190.959,283.78,181.76Z" transform="translate(-199.12 -61.155)" fill="#231f20" opacity="0.3"/>
    <path id="Path_233009" data-name="Path 233009" d="M47.407,290.824l.108-5.516V283.3c.04-2.364.1-4.726.108-7.087,0-1.049-.014-2.1-.051-3.143-.017-.665-.065-1.336-.063-2,0-.335,0-.671.014-1.006s.06-.671.094-1c.057-.421.2-.369.412-.023a6.206,6.206,0,0,1,.372.719,3.936,3.936,0,0,1,.244,1.04c.026.341.074.682.082,1.023l.028,1.026c.017.682.031,1.367.037,2.052q0,2.055-.1,4.12c-.077,1.651-.017,3.365-.034,5.05q-.045,2.779-.088,5.558-.026,1.705-.054,3.41c-.02,1.725-.051,3.461-.023,5.172.026,1.33.117,2.634.21,3.939l.071.853a4.944,4.944,0,0,1-.017,1.137,1.037,1.037,0,0,1-.259.531,1.383,1.383,0,0,1-.156.173c-.088.063-.182,0-.284-.2a2.668,2.668,0,0,1-.307-.9c-.108-.594-.162-1.2-.213-1.8s-.082-1.219-.114-1.833c-.054-1.233-.071-2.478-.077-3.725,0-1.853.02-3.714.034-5.57Z" transform="translate(-29.876 -127.554)" fill="#231f20"/>
    <path id="Path_233010" data-name="Path 233010" d="M46.423,133.417c0-.449.023-.9.023-1.35,0-.162-.023-.327-.02-.492,0-.568.023-1.159.017-1.739a7.674,7.674,0,0,0-.048-.77,4.146,4.146,0,0,1-.043-.494,2.457,2.457,0,0,1,0-.25,1.054,1.054,0,0,1,.071-.253c.043-.108.139-.094.284,0a2.956,2.956,0,0,1,.247.168.472.472,0,0,1,.159.244,2.083,2.083,0,0,1,.077.494c0,.168.023.332.028.5a7.2,7.2,0,0,1-.04,1.017,11.409,11.409,0,0,0,.023,1.245c0,.455,0,.912,0,1.37l-.014.853c0,.426-.02.853,0,1.276,0,.327.065.651.1.975,0,.071.023.142.026.213a.435.435,0,0,1-.063.284.418.418,0,0,1-.21.122.532.532,0,0,0-.119.037.219.219,0,0,1-.182-.06.466.466,0,0,1-.159-.225A7.917,7.917,0,0,1,46.4,134.8v-1.355Z" transform="translate(-29.159 -26.791)" fill="#231f20"/>
    <path id="Path_233011" data-name="Path 233011" d="M124.412,120.209q-8.636-.031-17.269,0l-6.3.06q-11.105.031-22.2.105c-3.282.028-6.584.091-9.844.162l-6.286.151c-2.1.031-4.194.043-6.289,0-1.313-.068-1.137-.284-.034-.551a28.461,28.461,0,0,1,5.538-.7c8.548-.213,17.093-.341,25.717-.307,5.155.02,10.514-.117,15.794-.159q8.7-.071,17.4-.082h10.71c5.4,0,10.838.048,16.2.077,4.172.026,8.264,0,12.4.071.909,0,1.8.031,2.722.068.853.028,1.557.085,2.151.136.284.026.568.051.8.082s.463.068.659.111a7.461,7.461,0,0,1,.949.259,3.192,3.192,0,0,1,.614.344,3.129,3.129,0,0,1,.429.313c.131.153-.159.225-.764.247-.3,0-.691.02-1.162.023q-.355,0-.759-.017l-.87-.023c-3.654-.125-7.437-.142-11.27-.179l-11.62-.082c-5.791-.034-11.611-.063-17.42-.06Z" transform="translate(-35.566 -20.274)" fill="#231f20"/>
    <path id="Path_233012" data-name="Path 233012" d="M460.052,301.325l-.051-5.1c0-.619-.051-1.239-.057-1.858-.017-2.188,0-4.376,0-6.564,0-.972-.034-1.947-.065-2.91q-.043-.926-.037-1.858a17.749,17.749,0,0,1,.128-1.858c.043-.386.21-.335.406,0a5,5,0,0,1,.31.671,4.416,4.416,0,0,1,.151.452l.065.247c0,.085.02.17.026.261l.06.943.028.472v.472l.017,1.893q0,1.893-.043,3.8c-.046,1.52.063,3.1.094,4.66q.037,2.557.08,5.138l.034,3.166c.017,1.6,0,3.205-.014,4.8,0,1.239.014,2.455-.082,3.694-.026.284-.037.543-.085.824a4.763,4.763,0,0,1-.139.648,1.786,1.786,0,0,1-.176.432.668.668,0,0,1-.46.367,1.011,1.011,0,0,1-.241.048c-.119,0-.185-.122-.207-.31a1.847,1.847,0,0,1,0-.338,4.446,4.446,0,0,1,.048-.455,32.028,32.028,0,0,0,.2-3.217c.026-1.114.034-2.251.034-3.393q0-2.558-.046-5.115Z" transform="translate(-325.108 -136.251)" fill="#231f20"/>
    <path id="Path_233013" data-name="Path 233013" d="M459.913,148.316c.028-.568.06-1.165.068-1.745,0-.213-.023-.423-.017-.634a20.86,20.86,0,0,0-.045-2.231c-.028-.332-.082-.671-.128-1.009a4.568,4.568,0,0,1-.051-.654,2.56,2.56,0,0,1,.1-.654c.034-.136.165-.117.321,0a1.735,1.735,0,0,1,.242.227,1.265,1.265,0,0,1,.119.151c.02.026.031.054.051.082a.748.748,0,0,1,.023.085l.051.31.028.156.014.153.057.628a10.791,10.791,0,0,1,.051,1.333c-.02.54.06,1.091.057,1.634,0,.6-.014,1.193-.037,1.787l-.046,1.094c-.014.554-.054,1.108-.051,1.654,0,.426.054.852.082,1.267,0,.094.023.185.023.284,0,.347-.054.455-.3.52a1.267,1.267,0,0,1-.162.045c-.176.026-.347-.119-.389-.372a11.777,11.777,0,0,1-.131-2.336l.051-1.765Z" transform="translate(-325.078 -36.313)" fill="#231f20"/>
    <path id="Path_233014" data-name="Path 233014" d="M132.113,405.667l-15.791.142-5.76.077q-10.153.06-20.3.04H81.253c-1.915,0-3.833,0-5.754-.04-.96-.02-1.924-.051-2.884-.108a21.655,21.655,0,0,1-2.9-.313,1.435,1.435,0,0,1-.73-.315.142.142,0,0,1-.045-.111.134.134,0,0,1,.034-.062c.034-.026.06-.051.08-.068s.023-.031.026-.026a.129.129,0,0,0,.108.071,3.137,3.137,0,0,0,.6-.014,43.946,43.946,0,0,1,5.047-.182c3.893.091,7.8.1,11.711.111l11.77.037c4.712.023,9.616-.108,14.436-.179l15.913-.23,9.787-.148c4.939-.082,9.9-.151,14.808-.267,3.811-.091,7.545-.256,11.316-.375.83-.026,1.642-.063,2.481-.077,3.1-.06,4.1.04,4.765.412a2.124,2.124,0,0,1,.429.264c.134.148-.1.247-.659.335a23.874,23.874,0,0,1-2.558.2c-6.723.284-13.828.449-20.96.568l-15.93.259Z" transform="translate(-45.33 -224.088)" fill="#231f20"/>
    <path id="Path_233015" data-name="Path 233015" d="M232.53,181.2l-.045-5.55c0-.673-.04-1.347-.043-2.023l-.02-7.133c0-1.057-.026-2.117-.051-3.163a30.665,30.665,0,0,1,.1-4.052c.045-.429.122-.355.23,0a10.171,10.171,0,0,1,.367,1.773l.074,1.026.034.514.017.514c.014.688.031,1.373.048,2.06.028,1.375.037,2.754,0,4.137-.028,1.657.057,3.379.082,5.072q.043,2.793.08,5.59.026,1.705.048,3.438c.031,1.736.048,3.481.105,5.2.043,1.338.139,2.651.21,3.978,0,.284.04.568.048.872.04,1.088,0,1.444-.256,1.679a1.106,1.106,0,0,1-.151.153c-.159.1-.35-.335-.412-1.137-.213-2.361-.307-4.856-.375-7.36-.04-1.861-.08-3.731-.117-5.6Z" transform="translate(-162.3 -48.974)" fill="#231f20"/>
    <path id="Path_233016" data-name="Path 233016" d="M255.818,164.456l-.065-5.632c0-.685-.04-1.37-.045-2.055q-.017-3.623,0-7.243v-3.214a22.766,22.766,0,0,1,.233-4.115c.111-.446.173-.341.233.017.04.185.082.438.142.747l.082.5.037.284.014.284.046,1.04.028.52v.52q0,1.043.023,2.089c.014,1.392.02,2.791-.014,4.2-.034,1.679.051,3.427.082,5.146q.043,2.842.091,5.683l.06,3.49c.037,1.762.063,3.532.125,5.28.048,1.361.145,2.691.216,4.035.014.284.037.585.045.884.031,1.111-.02,1.469-.284,1.705a1.557,1.557,0,0,1-.156.153c-.162.1-.338-.344-.395-1.151-.2-2.39-.3-4.922-.378-7.465-.045-1.887-.094-3.785-.139-5.683Z" transform="translate(-179.015 -36.747)" fill="#231f20"/>
    <path id="Path_233017" data-name="Path 233017" d="M122.8,293.2l-5.735-.014c-.7,0-1.4.028-2.091.02l-7.388-.08h-3.271c-1.392,0-2.788.028-4.183-.094-.435-.034-.369-.168,0-.3a6.477,6.477,0,0,1,1.841-.284c2.842-.082,5.666-.094,8.525-.054,1.705.028,3.492-.048,5.243-.074l5.777-.046,3.555-.034c1.793-.02,3.6-.031,5.376-.077,1.387-.037,2.742-.134,4.112-.2.3-.014.594-.04.9-.045,1.137-.031,1.5.04,1.733.31a1.255,1.255,0,0,1,.156.185c.094.21-.352.369-1.171.438-2.438.2-5.018.284-7.61.324l-5.786.045Z" transform="translate(-67.44 -144.132)" fill="#231f20"/>
    <path id="Path_233018" data-name="Path 233018" d="M293.9,274.819l-6.718-.048h-2.45l-8.639-.082c-1.276,0-2.557,0-3.828.017-1.631.014-3.259.071-4.9-.04-.517-.037-.429-.2,0-.361a7.141,7.141,0,0,1,2.154-.327c3.319-.037,6.644-.065,9.994,0,2.006.04,4.092-.028,6.141-.043l6.766-.028h4.166c2.1-.014,4.211,0,6.3-.054,1.623-.031,3.211-.122,4.814-.185.352,0,.7-.04,1.054-.048,1.319-.034,1.745.034,2.026.3a1.059,1.059,0,0,1,.188.185c.128.207-.409.381-1.373.449-2.862.2-5.885.247-8.917.284l-6.777.02Z" transform="translate(-187.114 -131.029)" fill="#231f20"/>
    <path id="Path_233019" data-name="Path 233019" d="M428.271,143.859c.065-.96.131-1.921.182-2.881.017-.35,0-.7.026-1.051.068-1.233.122-2.467.145-3.694,0-.546-.017-1.094-.071-1.631-.065-.685-.17-1.373-.284-2.009-.037-.2.085-.244.284-.119a1.367,1.367,0,0,1,.338.318,1.665,1.665,0,0,1,.25.54,15.664,15.664,0,0,1,.259,2.188c.02.364.031.725.028,1.088s0,.725-.034,1.088c-.057.867-.02,1.768-.045,2.651-.028.972-.074,1.944-.117,2.913l-.085,1.793c-.04.9-.094,1.81-.1,2.708,0,.7.043,1.381.068,2.072,0,.151.023.3.026.452,0,.568-.057.747-.324.853a1.272,1.272,0,0,1-.168.08c-.176.051-.367-.185-.409-.6a26.519,26.519,0,0,1-.105-3.848c.028-.972.071-1.944.122-2.916Z" transform="translate(-302.432 -29.947)" fill="#231f20"/>
    <path id="Path_233020" data-name="Path 233020" d="M282.321,139.6a10.324,10.324,0,0,0-5.2,7.582,10.043,10.043,0,0,0,1.341,6.3,9.314,9.314,0,0,0,1.989,2.333,10.682,10.682,0,0,0,2.646,1.588c.236.105.489.171.73.259l.369.125.381.088c.253.054.5.122.759.165l.779.105a5.588,5.588,0,0,0,.691.04c.23,0,.463.023.693,0a10.735,10.735,0,0,0,1.381-.145c.227-.043.455-.077.679-.125l.668-.188.33-.094.321-.128.639-.253a10.177,10.177,0,0,0,2.862-2.006c.2-.216.409-.415.594-.642l.529-.7a9.128,9.128,0,0,0,.881-1.512c.156-.33.261-.463.338-.423s.116.247.085.585a4.483,4.483,0,0,1-.364,1.341,5.049,5.049,0,0,1-.455.818,4.72,4.72,0,0,1-.642.853l-.338.355a2.838,2.838,0,0,1-.352.341l-.753.625-.818.54a3.125,3.125,0,0,1-.426.239l-.435.224a11.492,11.492,0,0,1-7.59.853,10.515,10.515,0,0,1-3.569-1.5,11.685,11.685,0,0,1-1.819-1.478,10.474,10.474,0,0,1-2.964-6.343,10.605,10.605,0,0,1,.793-5.089,11.238,11.238,0,0,1,3.012-4.157,11.082,11.082,0,0,1,2.68-1.705,10.392,10.392,0,0,1,3.066-.844,11.082,11.082,0,0,1,4.74.506,9.946,9.946,0,0,1,4.012,2.535,11.082,11.082,0,0,1,2.089,3,11.966,11.966,0,0,1,1.057,3.5c.031.27.06.537.091.8s0,.537.014.81a4.862,4.862,0,0,1-.04.7q-.034.315-.06.568c-.068.347-.139.622-.2.852a1.936,1.936,0,0,1-.224.529,2.182,2.182,0,0,1-.466.54c-.108.063-.139-.114-.1-.463.014-.176.065-.392.1-.654s.071-.568.119-.909a11.281,11.281,0,0,0-1.12-6.07,9.749,9.749,0,0,0-4.339-4.476,10.312,10.312,0,0,0-4.606-1.017,9.616,9.616,0,0,0-4.547,1.225Z" transform="translate(-193.72 -33.64)" fill="#231f20"/>
    <path id="Path_233021" data-name="Path 233021" d="M309.6,145.679c0-.472.026-.946.028-1.421,0-.173-.02-.347-.017-.52,0-.608.023-1.222.017-1.833,0-.284-.014-.543-.034-.81a4.694,4.694,0,0,1-.031-1.037c.017-.111.159-.105.31-.023a.645.645,0,0,1,.338.438,9.76,9.76,0,0,1,.1,2.12c-.028.429.031.87.043,1.3.014.48.017.96.02,1.441v2.234c.014.347.074.682.114,1.023a1.22,1.22,0,0,1,.02.224,1.37,1.37,0,0,1-.017.179.393.393,0,0,1-.062.119.4.4,0,0,1-.19.134,1.012,1.012,0,0,1-.108.04c-.108.026-.227-.088-.332-.284a3.591,3.591,0,0,1-.168-.929c-.028-.313-.04-.631-.048-.952V145.7Z" transform="translate(-217.564 -35.367)" fill="#231f20"/>
    <path id="Path_233022" data-name="Path 233022" d="M317.194,144.487c0-.458.017-.915,0-1.375,0-.168-.02-.335-.02-.5v-1.779c0-.264,0-.529-.023-.79a5.434,5.434,0,0,1,0-1.009c.026-.21.429.048.466.429a15.345,15.345,0,0,1,.068,2.049c-.017.412.034.852.051,1.262.014.466.026.932.026,1.4v.852c0,.435-.017.87-.028,1.3,0,.335.023.665.028,1a1.423,1.423,0,0,1,0,.219.548.548,0,0,1-.082.284.284.284,0,0,1-.151.114.372.372,0,0,1-.082.031c-.08.02-.159-.1-.219-.3a4.975,4.975,0,0,1-.06-.9c0-.3,0-.611,0-.918v-1.378Z" transform="translate(-222.991 -34.638)" fill="#231f20"/>
    <path id="Path_233023" data-name="Path 233023" d="M282.94,174.3l-1.338-.014c-.162,0-.324.017-.489.014l-1.728-.037c-.256,0-.512,0-.764.02a4.194,4.194,0,0,1-.98-.026c-.1-.02-.088-.136,0-.259a.645.645,0,0,1,.426-.284,8.779,8.779,0,0,1,.986-.054c.332,0,.662,0,1,.026.4.026.816-.017,1.225-.028l1.35-.014h.833c.421,0,.853,0,1.262-.017.324,0,.642-.062.966-.091.071,0,.139-.02.213-.02.264,0,.35.04.4.227a1,1,0,0,1,.031.125c.023.142-.088.261-.284.284a10.515,10.515,0,0,1-1.759.134h-1.344Z" transform="translate(-194.673 -59.38)" fill="#231f20"/>
    <path id="Path_233024" data-name="Path 233024" d="M324.823,174.961l-1.222-.756c-.151-.091-.3-.173-.452-.267-.52-.335-1.034-.679-1.546-1.026-.227-.153-.46-.307-.69-.452a5.8,5.8,0,0,1-.853-.617c-.162-.145.264-.259.6-.054.6.367,1.2.725,1.787,1.137a13.011,13.011,0,0,0,1.137.654c.421.236.835.483,1.25.727l.767.452c.389.224.776.463,1.165.682.3.173.617.315.924.477.068.034.136.065.2.105.244.148.3.23.259.4a.389.389,0,0,1-.026.114c-.045.117-.2.142-.392.06a15.517,15.517,0,0,1-1.674-.881l-1.236-.736Z" transform="translate(-225.065 -58.062)" fill="#231f20"/>
    <path id="Path_233025" data-name="Path 233025" d="M294.363,177.5l-1.3-.889c-.108-.074-.216-.145-.324-.21l-.082-.054s-.023-.02-.034-.02a.16.16,0,0,0-.037.02l-.117.068-.341.2c-.33.2-.651.415-.983.611l-3.507,2.08c-.514.313-1.029.639-1.534.958a18.21,18.21,0,0,1-1.989,1.179c-.219.105-.239,0-.125-.2a2.683,2.683,0,0,1,.264-.375,1.989,1.989,0,0,1,.449-.418c.651-.446,1.3-.9,1.964-1.316s1.347-.818,2.037-1.208c.824-.466,1.64-1.026,2.464-1.54l.679-.421.338-.21.259-.159.139-.077.034-.02.034.017.074.037c.094.048.19.094.284.148l.19.114c.119.071.23.148.344.219.227.145.449.284.674.443l1.628,1.117,2.447,1.705c.634.438,1.279.83,1.912,1.256.139.1.284.185.418.284a2.48,2.48,0,0,1,.492.466.529.529,0,0,1,.091.358,1.019,1.019,0,0,1,0,.139c-.017.06-.091.063-.219.043a1.42,1.42,0,0,1-.486-.2c-1.137-.7-2.316-1.512-3.492-2.324-.872-.6-1.748-1.219-2.629-1.813Z" transform="translate(-199.22 -60.805)" fill="#231f20"/>
    <path id="Path_233026" data-name="Path 233026" d="M316.767,235.3H313.2c-.432,0-.853.034-1.3.037l-4.586.031c-.679,0-1.361.028-2.032.051a19.033,19.033,0,0,1-2.609,0c-.284-.026-.227-.173,0-.318a2.486,2.486,0,0,1,1.137-.3c1.753-.062,3.515-.136,5.3-.108,1.063,0,2.171-.065,3.257-.1l3.592-.085,2.214-.043,3.345-.068c.853-.028,1.705-.1,2.558-.136.19,0,.375-.026.568-.028a2.273,2.273,0,0,1,.75.074.517.517,0,0,1,.321.253.927.927,0,0,1,.091.162c.057.176-.236.318-.742.369-1.506.114-3.1.151-4.709.171l-3.592.045Z" transform="translate(-212.508 -102.832)" fill="#231f20"/>
    <path id="Path_233027" data-name="Path 233027" d="M125.371,350.944H121.72c-.443,0-.887.034-1.33.034l-4.7.014c-.693,0-1.392.026-2.083.051a18.668,18.668,0,0,1-2.674,0c-.284-.028-.23-.2,0-.358a2.324,2.324,0,0,1,1.162-.35c1.8-.065,3.6-.142,5.428-.1,1.088.02,2.222-.065,3.336-.094l3.694-.08,2.273-.04c1.137-.023,2.293-.028,3.43-.065.881-.028,1.748-.111,2.626-.153.193,0,.384-.028.568-.031a2.146,2.146,0,0,1,.77.08.543.543,0,0,1,.33.284,1.2,1.2,0,0,1,.091.182c.057.2-.244.367-.762.426-1.54.134-3.174.171-4.831.19l-3.68.037Z" transform="translate(-75.252 -185.543)" fill="#231f20"/>
    <path id="Path_233028" data-name="Path 233028" d="M336.443,246.163c-.614-.02-1.23-.034-1.844-.043-.225,0-.449.02-.673.014-.79-.014-1.583-.037-2.376-.037-.352,0-.7,0-1.054.028a6.517,6.517,0,0,1-1.353,0c-.142-.023-.119-.173,0-.327a.853.853,0,0,1,.583-.341c.452-.037.906-.071,1.364-.091s.918,0,1.381.026c.554.037,1.137-.026,1.691-.034h3c.568,0,1.162.014,1.739,0,.449,0,.889-.063,1.338-.08a2.617,2.617,0,0,1,.3,0c.375.031.492.114.543.327a.884.884,0,0,1,.031.145c.014.162-.151.284-.406.321a15.919,15.919,0,0,1-2.413.128c-.617,0-1.236-.017-1.856-.02Z" transform="translate(-231.522 -110.745)" fill="#231f20"/>
    <path id="Path_233029" data-name="Path 233029" d="M154.223,368.881c-.614-.02-1.23-.037-1.844-.043-.224,0-.449.017-.673.014-.79-.014-1.583-.037-2.376-.04-.352,0-.7,0-1.054.031a6.723,6.723,0,0,1-1.353,0c-.142-.023-.119-.173,0-.33a.853.853,0,0,1,.568-.338c.452-.04.906-.074,1.364-.091s.918,0,1.381.026c.554.034,1.137-.026,1.691-.034h3c.568,0,1.162.014,1.739,0,.449,0,.889-.06,1.338-.077a2.627,2.627,0,0,1,.284,0c.375.031.494.114.543.327a.911.911,0,0,1,.031.148c.014.159-.151.284-.406.318a16.281,16.281,0,0,1-2.413.131c-.617,0-1.236-.02-1.856-.02Z" transform="translate(-101.083 -198.592)" fill="#231f20"/>
    <path id="Path_233030" data-name="Path 233030" d="M377.222,140.474c-.745-.02-1.489-.037-2.236-.045-.27,0-.543.02-.816.014-.958-.014-1.918-.04-2.876-.043-.426,0-.853,0-1.276.031a9.83,9.83,0,0,1-1.637,0c-.171-.02-.145-.173,0-.327a1.105,1.105,0,0,1,.708-.341c.551-.04,1.105-.074,1.66-.091s1.111,0,1.671.026c.668.037,1.364-.023,2.046-.031h3.646c.7,0,1.421.017,2.106,0,.54,0,1.074-.063,1.617-.082a3.01,3.01,0,0,1,.358,0c.449.026.6.117.665.33a1.035,1.035,0,0,1,.043.145c.02.162-.176.284-.483.315a24.083,24.083,0,0,1-2.938.136l-2.248-.017Z" transform="translate(-259.596 -35.083)" fill="#231f20"/>
    <g id="Group_13581" data-name="Group 13581" transform="translate(115.409 106.974)" opacity="0.4">
      <path id="Path_233031" data-name="Path 233031" d="M394.005,148.4c.259.017.52.02.784.017.1,0,.193-.026.284-.026h1.04a4.131,4.131,0,0,0,.46-.031,1.378,1.378,0,0,1,.6,0c.063.017.051.156,0,.3s-.136.284-.242.284a4.518,4.518,0,0,1-1.165.063,4.547,4.547,0,0,0-.73.057c-.27.017-.546.026-.818.031h-.509c-.259,0-.517-.028-.779-.034-.2,0-.406.017-.619,0a.8.8,0,0,1-.142,0c-.173-.031-.2-.125-.171-.321a.239.239,0,0,1,.023-.125.389.389,0,0,1,.256-.284,4.693,4.693,0,0,1,.958,0c.247,0,.5.031.762.028Z" transform="translate(-391.987 -148.304)" fill="#231f20"/>
    </g>
    <g id="Group_13582" data-name="Group 13582" transform="translate(48.542 124.01)" opacity="0.4">
      <path id="Path_233032" data-name="Path 233032" d="M158.693,208.349c.259.017.523.02.787.017.1,0,.19-.026.284-.026h1.04a4.231,4.231,0,0,0,.463-.031,1.363,1.363,0,0,1,.6,0c.063.017.054.156,0,.3s-.136.284-.242.284a4.615,4.615,0,0,1-1.162.065,4.288,4.288,0,0,0-.733.054c-.284.017-.543.026-.818.031H158.4c-.259,0-.517-.028-.776-.034-.2,0-.409.02-.619,0a.781.781,0,0,1-.142,0c-.176-.031-.207-.125-.173-.321a.24.24,0,0,1,.023-.125.4.4,0,0,1,.256-.284,4.7,4.7,0,0,1,.958,0c.25,0,.5.031.762.028Z" transform="translate(-156.677 -208.254)" fill="#231f20"/>
    </g>
    <path id="Path_233033" data-name="Path 233033" d="M149.366,161.517c-1.39-1.262-3.2,1.534-1.5,2.228,1.782.73,2.941-2.4.787-2.319" transform="translate(-101.335 -50.557)" fill="#231f20"/>
    <path id="Path_233034" data-name="Path 233034" d="M148.11,163.47a1.739,1.739,0,0,1-.924.06,1.893,1.893,0,0,1-.807-.375,1.355,1.355,0,0,1-.432-.548,1.557,1.557,0,0,1,.031-1.137,2.1,2.1,0,0,1,.591-.835,1.915,1.915,0,0,1,.81-.446,1.239,1.239,0,0,1,.628,0,.96.96,0,0,1,.5.338c.08.1-.054.2-.222.284a1.3,1.3,0,0,1-.46.142.77.77,0,0,0-.546.108,1.9,1.9,0,0,0-.548.514.8.8,0,0,0-.139.44.685.685,0,0,0,.108.386,1,1,0,0,0,.889.392,1.043,1.043,0,0,0,.6-.284,1.228,1.228,0,0,0,.423-.946.517.517,0,0,0-.139-.318.585.585,0,0,0-.284-.139l-.145-.023c-.19-.037-.261-.065-.318-.3a.693.693,0,0,0-.04-.142.315.315,0,0,1,.327-.355,1.27,1.27,0,0,1,.611.074,1.228,1.228,0,0,1,.568.46,1.4,1.4,0,0,1,.224.693,1.8,1.8,0,0,1-.085.651,2.074,2.074,0,0,1-.46.793,1.961,1.961,0,0,1-.773.526Z" transform="translate(-100.389 -49.808)" fill="#231f20"/>
    <path id="Path_233035" data-name="Path 233035" d="M173.126,161.517c-1.39-1.262-3.2,1.534-1.5,2.228,1.782.73,2.941-2.4.787-2.319" transform="translate(-118.343 -50.557)" fill="#231f20"/>
    <path id="Path_233036" data-name="Path 233036" d="M171.912,163.47a1.751,1.751,0,0,1-.926.06,1.893,1.893,0,0,1-.807-.375,1.324,1.324,0,0,1-.415-.548,1.557,1.557,0,0,1,.028-1.137,2.1,2.1,0,0,1,.591-.835,1.915,1.915,0,0,1,.81-.446,1.239,1.239,0,0,1,.628,0,.96.96,0,0,1,.5.338c.08.1-.054.2-.222.284a1.3,1.3,0,0,1-.46.142.77.77,0,0,0-.546.108,1.859,1.859,0,0,0-.546.514.779.779,0,0,0-.142.44.685.685,0,0,0,.108.386,1,1,0,0,0,.892.392,1.046,1.046,0,0,0,.6-.284,1.228,1.228,0,0,0,.423-.946.486.486,0,0,0-.139-.318.585.585,0,0,0-.27-.139l-.145-.023c-.188-.037-.261-.065-.318-.3a.693.693,0,0,0-.04-.142.315.315,0,0,1,.327-.355,1.27,1.27,0,0,1,.611.074,1.228,1.228,0,0,1,.568.46,1.4,1.4,0,0,1,.224.693,1.8,1.8,0,0,1-.085.651,2.074,2.074,0,0,1-.46.793,1.961,1.961,0,0,1-.773.526Z" transform="translate(-117.436 -49.808)" fill="#231f20"/>
    <path id="Path_233037" data-name="Path 233037" d="M63.9,185.757c.227-.2.435-.372.682-.568a8.129,8.129,0,0,1,.776-.514c.509-.3,1.017-.568,1.526-.824,1.017-.52,2.035-1.006,3.018-1.526.358-.193.7-.395,1.034-.608a4.9,4.9,0,0,0,.853-.656c.06-.077.068-.08.077-.122a.957.957,0,0,0,0-.156,1.556,1.556,0,0,0,0-.168.688.688,0,0,0-.105-.284,1.165,1.165,0,0,0-.588-.4,5.172,5.172,0,0,0-1.867-.19,11.423,11.423,0,0,0-1.972.284,9.734,9.734,0,0,0-.958.284c-.153.054-.307.114-.449.176l-.2.1-.222.128c-1.137.654-2.29,1.267-3.467,1.8-.759.347-1.526.673-2.307.958a17.759,17.759,0,0,1-2.407.662c-.509.1-.492-.117-.136-.443a6.753,6.753,0,0,1,1.9-1.137,39.4,39.4,0,0,0,4.518-1.989c.367-.19.727-.384,1.091-.585l.568-.313a4.834,4.834,0,0,1,.668-.284,11.476,11.476,0,0,1,2.6-.543,8.809,8.809,0,0,1,2.558.065,3.521,3.521,0,0,1,.673.222,2.077,2.077,0,0,1,.645.438,1.677,1.677,0,0,1,.421.727l.045.2.017.2a.882.882,0,0,1,0,.193v.216a1.642,1.642,0,0,1-.082.284,1.176,1.176,0,0,1-.142.242,1.6,1.6,0,0,1-.145.176,1.451,1.451,0,0,1-.148.148,4.857,4.857,0,0,1-.6.469,29.251,29.251,0,0,1-3.035,1.691c-1.014.517-2.046,1.012-2.984,1.583a4.394,4.394,0,0,0-.412.284c-.128.1-.256.2-.386.315-.264.222-.517.449-.756.685a4.83,4.83,0,0,0-.634.75,9.286,9.286,0,0,1-.634.878,13.184,13.184,0,0,1-1.137,1.176,8.373,8.373,0,0,1-1.347.978,13.791,13.791,0,0,1-3,1.279,17.525,17.525,0,0,1-4.913.773c-.364,0-.725,0-1.094-.023a5.663,5.663,0,0,1-1.421-.253,1.063,1.063,0,0,1-.568-.409,1.371,1.371,0,0,1-.151-.216c-.085-.207.489-.332,1.421-.267a20.645,20.645,0,0,0,4.263-.182,14.283,14.283,0,0,0,4.1-1.259,9.765,9.765,0,0,0,1.358-.8c.1-.077.207-.151.307-.23a3.757,3.757,0,0,0,.284-.247c.2-.188.4-.375.588-.568a7.5,7.5,0,0,0,.52-.583c.159-.2.284-.4.466-.654a5.857,5.857,0,0,1,.6-.756c.216-.23.438-.443.659-.639Z" transform="translate(-31.272 -63.143)" fill="#231f20"/>
    <path id="Path_233038" data-name="Path 233038" d="M21.956,146.056a11.005,11.005,0,0,1,2.307-1.662,6.68,6.68,0,0,1,1.378-.54,6.123,6.123,0,0,1,1.472-.193,12.442,12.442,0,0,1,2.791.321c.9.2,1.75.4,2.629.617,1.27.313,2.558.614,3.805.983,1.111.327,2.217.679,3.311,1.094.546.2,1.088.429,1.623.685a7.766,7.766,0,0,1,1.571.949,2.691,2.691,0,0,1,.364.358,1.6,1.6,0,0,1,.3.514,1.105,1.105,0,0,1,.017.685,1.483,1.483,0,0,1-.321.54,2.293,2.293,0,0,1-.892.554,4.547,4.547,0,0,1-.918.227,6.65,6.65,0,0,1-1.824.028c-.568-.068-1.137-.145-1.728-.25a10.029,10.029,0,0,1-1.77-.46c-.284-.108-.568-.242-.835-.372l-.75-.381a.261.261,0,0,0-.165,0l-.315.031c-.216.023-.438.043-.656.06-.438.031-.875.051-1.316.051a15.558,15.558,0,0,1-2.239-.17c-.188-.023-.372-.057-.568-.091s-.369-.068-.551-.114-.367-.085-.548-.139l-.284-.082-.134-.043-.068-.02a.02.02,0,0,1-.02-.017.284.284,0,0,0-.162.045c-.114.057-.239.131-.364.2a8.773,8.773,0,0,1-.781.4,5.333,5.333,0,0,1-1.728.463,1.532,1.532,0,0,1-.466,0c-.1-.02-.139-.045-.134-.077a2.148,2.148,0,0,1,.531-.284,7.1,7.1,0,0,0,1.2-.639c.233-.153.48-.324.742-.517l.429-.3.136-.085a1.332,1.332,0,0,1,.239-.117.332.332,0,0,1,.128-.037.962.962,0,0,1,.131-.017c.045,0,.088.02.134,0h.131v0h.034l.156.043.1.026.2.051c.134.034.284.063.406.085l.406.094.409.074a13.976,13.976,0,0,0,1.651.188,15.488,15.488,0,0,0,1.665,0c.284-.017.568-.037.853-.065l.432-.043h.117a.852.852,0,0,1,.193,0,1.038,1.038,0,0,1,.21.023H34.7l.1.037.568.284c.165.085.327.168.486.242a7.079,7.079,0,0,0,.949.375,14.3,14.3,0,0,0,2.094.426l.548.074c.173.02.386.051.523.063a6.425,6.425,0,0,0,1.017-.02,4.3,4.3,0,0,0,.958-.2,1.989,1.989,0,0,0,.372-.182c.088-.074.179-.145.2-.213a.148.148,0,0,0,.023-.148,1.009,1.009,0,0,0-.224-.307,4.331,4.331,0,0,0-.887-.619,15.5,15.5,0,0,0-2.177-.952c-1.52-.551-3.1-.992-4.672-1.421-.853-.23-1.733-.446-2.606-.656s-1.75-.423-2.612-.594a10.27,10.27,0,0,0-2.558-.219,5.322,5.322,0,0,0-2.324.793A12.429,12.429,0,0,0,22,147.516a20.024,20.024,0,0,0-2.074,2.518c-1.935,2.711-3.711,5.584-5.541,8.369a71.334,71.334,0,0,1-4.436,6.326l-.568.645c-.193.207-.384.421-.591.625a8.363,8.363,0,0,1-1.8,1.421c-.114.06-.21.117-.307.159a2.339,2.339,0,0,1-.267.094,1.21,1.21,0,0,1-.423.074,1.99,1.99,0,0,1-.324,0c-.117-.026,0-.153.315-.35A12.487,12.487,0,0,0,7.256,166.3a23.744,23.744,0,0,0,2.18-2.594c.7-.912,1.375-1.87,2.04-2.842,1.338-1.944,2.64-3.978,3.947-6.007.972-1.512,1.949-3.029,2.97-4.547.514-.753,1.043-1.5,1.62-2.231.284-.364.594-.727.921-1.077s.648-.662.995-.98Z" transform="translate(0 -38.005)" fill="#231f20"/>
    <path id="Path_233039" data-name="Path 233039" d="M120.261,171a1.051,1.051,0,0,0-.892,1.137c.085.776,1.171,1.344,1.861,1.421C123.032,173.8,124.808,171.284,120.261,171Z" transform="translate(-81.426 -57.576)" fill="#231f20"/>
    <path id="Path_233040" data-name="Path 233040" d="M122.774,171.844a1.918,1.918,0,0,1-.753.651,2.464,2.464,0,0,1-.884.256,2.231,2.231,0,0,1-.673,0,3.1,3.1,0,0,1-1.02-.44,2.45,2.45,0,0,1-.787-.8,1.29,1.29,0,0,1-.136-1.051,1.392,1.392,0,0,1,.352-.568.935.935,0,0,1,.634-.27c.156,0,.114.145.048.284a3.165,3.165,0,0,1-.179.426.761.761,0,0,0-.151.313.773.773,0,0,0-.017.156.42.42,0,0,0,0,.134,1.287,1.287,0,0,0,.443.662,1.961,1.961,0,0,0,1.1.44,1.668,1.668,0,0,0,1.193-.381.668.668,0,0,0,.284-.585c-.054-.307-.46-.583-.878-.7a3.615,3.615,0,0,0-1.037-.1h-.23a.5.5,0,0,1-.284-.091.506.506,0,0,1-.119-.284,1.38,1.38,0,0,0-.031-.156.284.284,0,0,1,.08-.233.449.449,0,0,1,.284-.159,2.9,2.9,0,0,1,1.083.026,3.342,3.342,0,0,1,1.137.429,1.739,1.739,0,0,1,.733.827,1.293,1.293,0,0,1,.08.648,1.461,1.461,0,0,1-.207.568Z" transform="translate(-80.782 -56.369)" fill="#231f20"/>
    <path id="Path_233041" data-name="Path 233041" d="M142.471,197.692l-2.134-.051h-.779c-.915-.028-1.83-.06-2.745-.074-.406,0-.813,0-1.216.014a10.553,10.553,0,0,1-1.557-.014c-.165-.02-.142-.145,0-.284a1.137,1.137,0,0,1,.679-.284c.526-.037,1.054-.071,1.583-.088s1.057,0,1.591.028c.639.034,1.3-.02,1.952-.028h3.475c.671,0,1.341.014,2.006,0,.514-.014,1.023-.077,1.537-.111.111,0,.225-.023.341-.023.423-.014.583.08.642.31a.87.87,0,0,1,.04.159c.014.173-.162.315-.449.352a22.081,22.081,0,0,1-2.81.134Z" transform="translate(-91.848 -76.027)" fill="#231f20"/>
    <path id="Path_233042" data-name="Path 233042" d="M132.77,251.068c-.98.835-1.966,1.674-2.97,2.5-.367.3-.719.622-1.1.912-.3.227-.608.452-.935.665-.168.108-.327.207-.534.315a.946.946,0,0,1-.853.114l-.247-.134c-.082-.051-.128-.088-.179-.122a2.579,2.579,0,0,1-.284-.219c-.188-.148-.367-.3-.543-.452-.35-.3-.691-.617-1.029-.926l-1.662-1.48c-.347-.318-.7-.631-1.037-.958a9.555,9.555,0,0,1-.946-1.054c-.182-.239-.034-.321.284-.284a2.574,2.574,0,0,1,1.216.517c.716.628,1.455,1.23,2.14,1.89s1.387,1.31,2.083,1.915a3.08,3.08,0,0,0,.284.224l.122.091.048.037a.1.1,0,0,0,.1,0,.683.683,0,0,0,.151-.077,6.342,6.342,0,0,0,.537-.361c.358-.264.713-.568,1.068-.852,1-.8,1.989-1.643,2.967-2.492l.9-.787.455-.395.284-.244a.989.989,0,0,1,.352-.222.213.213,0,0,1,.145-.026,1.448,1.448,0,0,1,.145.048,1.382,1.382,0,0,1,.284.145c.219.131.307.2.443.284l.75.523,1.483,1.046c.77.531,1.554,1.006,2.327,1.52.168.114.341.216.509.335a2.622,2.622,0,0,1,.611.537.659.659,0,0,1,.1.46,1.33,1.33,0,0,1-.017.2c-.028.094-.125.119-.284.114a1.347,1.347,0,0,1-.625-.213c-1.421-.827-2.842-1.827-4.263-2.825l-.81-.517-.392-.284-.193-.131-.037-.026h-.014l-.088.077-.75.648Z" transform="translate(-82.147 -113.524)" fill="#231f20"/>
    <path id="Path_233043" data-name="Path 233043" d="M290.589,315.76l-.017-3.242c0-.392-.034-.784-.037-1.179v-4.157c0-.617-.028-1.236-.054-1.847-.017-.392-.045-.784-.054-1.179a8.731,8.731,0,0,1,.06-1.185c.028-.244.185-.21.358,0a2.075,2.075,0,0,1,.415,1.029c.088,1.594.145,3.194.105,4.811-.028.966.048,1.969.074,2.958l.06,3.259.034,2.009c.02,1.012.031,2.032.068,3.038.028.781.111,1.546.156,2.322,0,.173.028.341.031.514a1.7,1.7,0,0,1-.062.691.5.5,0,0,1-.25.284,1.063,1.063,0,0,1-.156.085c-.173.051-.321-.213-.4-.668-.159-1.364-.242-2.816-.284-4.263-.023-1.086-.043-2.174-.065-3.262Z" transform="translate(-203.877 -151.922)" fill="#231f20"/>
    <path id="Path_233044" data-name="Path 233044" d="M309.133,375.536h-2.958c-.361,0-.719.031-1.08.034l-3.808.02c-.568,0-1.137.037-1.688.071a12.451,12.451,0,0,1-2.16.034c-.227-.023-.2-.193-.017-.375a1.636,1.636,0,0,1,.932-.435c.364-.043.73-.062,1.1-.08l1.1-.043c.736-.023,1.472-.023,2.214,0,.887.031,1.8-.046,2.711-.063.995-.017,1.989-.026,2.989-.031h4.623c.716,0,1.421-.065,2.137-.08h.472c.591.02.781.1.881.35a1.056,1.056,0,0,1,.065.159c.04.159-.213.33-.631.341-1.245.082-2.557.1-3.9.111l-2.978.02Z" transform="translate(-208.781 -203.312)" fill="#231f20"/>
    <path id="Path_233045" data-name="Path 233045" d="M441.888,164.358a38.546,38.546,0,0,1-2.927-6.3c-.284-.8-.551-1.594-.779-2.4-.81-2.842-1.4-5.717-2.356-8.463a26.136,26.136,0,0,0-1.512-3.535,6.182,6.182,0,0,0-.676-.958,5.578,5.578,0,0,0-.853-.779,9.2,9.2,0,0,0-2.114-1.1c-.475-.188-.364-.335.114-.386a3.736,3.736,0,0,1,.966.051,3.882,3.882,0,0,1,1.316.475,5.683,5.683,0,0,1,1.975,1.989c.128.2.23.4.341.6l.284.585c.193.389.355.79.531,1.188a34.158,34.158,0,0,1,1.546,4.922c.492,1.989,1.06,4.041,1.665,6.024a32.067,32.067,0,0,0,1.137,3.211c.426,1.051.929,2.074,1.452,3.089.662,1.236,1.361,2.461,2.14,3.629a38.984,38.984,0,0,0,3.89,5.05,23.916,23.916,0,0,0,1.733,1.7,19.556,19.556,0,0,0,1.881,1.512l.423.313c.145.1.284.188.443.284.284.179.5.335.679.475s.344.23.463.327a1.313,1.313,0,0,1,.432.511,1.421,1.421,0,0,1,.1.227c.043.21-.514.082-1.421-.358a20.058,20.058,0,0,1-3.694-2.705,34.55,34.55,0,0,1-3.205-3.41,45.6,45.6,0,0,1-3.978-5.766Z" transform="translate(-304.051 -35.694)" fill="#231f20"/>
    <path id="Path_233046" data-name="Path 233046" d="M399.276,204.6a6.221,6.221,0,0,0-2.117-1.648,10.441,10.441,0,0,0-2.691-.824c-.7-.131-1.421-.219-2.162-.4a9.963,9.963,0,0,1-1.915-.637,4.3,4.3,0,0,1-1.705-1.316,2.558,2.558,0,0,1-.284-.494,1.645,1.645,0,0,1-.176-.605,1.259,1.259,0,0,1,.145-.722,1.489,1.489,0,0,1,.466-.5,2.967,2.967,0,0,1,1.032-.418,7.39,7.39,0,0,1,1-.153,24.373,24.373,0,0,1,3.47,0c.73.054,1.458.119,2.185.227.361.057.725.114,1.083.2.179.045.358.094.534.148s.347.153.526.222c.222.088.318.2.284.267s-.182.108-.386.162a4.53,4.53,0,0,1-1.947.2c-.716-.091-1.421-.162-2.151-.213s-1.421-.119-2.143-.134a11.344,11.344,0,0,0-2.06.108,2.558,2.558,0,0,0-.8.256.469.469,0,0,0-.156.128c-.026.028-.04.085-.026.19a1.646,1.646,0,0,0,.179.443l.151.222c.057.071.128.134.19.2a3.441,3.441,0,0,0,1.006.639,11.909,11.909,0,0,0,2.521.688l1.472.267a13.418,13.418,0,0,1,1.509.369,8.337,8.337,0,0,1,2.793,1.444,7.413,7.413,0,0,1,1.33,1.421c.1.128.179.267.27.4.043.065.088.139.131.219l.111.21c.142.284.284.548.423.813a12.927,12.927,0,0,0,3.41,4.206,9.707,9.707,0,0,0,3.711,1.705c.284.077.585.108.881.168s.506.082.7.114a4.694,4.694,0,0,1,.477.105,1.458,1.458,0,0,1,.318.114,1.21,1.21,0,0,1,.213.168c.057.054.131.1.165.142s-.034.128-.253.224a2.631,2.631,0,0,1-1.014.145,9.414,9.414,0,0,1-3.993-.918,11.224,11.224,0,0,1-3.393-2.557,14.8,14.8,0,0,1-1.856-2.54c-.264-.449-.506-.915-.733-1.355a5.47,5.47,0,0,0-.753-1.111Z" transform="translate(-273.88 -76.068)" fill="#231f20"/>
    <path id="Path_233047" data-name="Path 233047" d="M467.417,267.028c-.423-.568-.824-1.137-1.222-1.705-.148-.207-.307-.4-.449-.611-.5-.739-.966-1.495-1.452-2.234-.216-.33-.458-.642-.7-.949a9.938,9.938,0,0,1-.9-1.2c-.154-.284.617-.395,1,.051a19.609,19.609,0,0,1,1.8,2.518c.315.534.722,1.032,1.086,1.543.4.568.8,1.137,1.219,1.671.259.338.517.673.79.995a16.082,16.082,0,0,0,1.3,1.421c.185.162.378.31.568.458s.4.284.6.409c.085.06.176.114.264.171.327.219.392.341.33.591-.017.054-.026.117-.045.168-.071.176-.284.2-.568.068a8.019,8.019,0,0,1-2.251-1.728c-.494-.517-.952-1.066-1.39-1.62Z" transform="translate(-327.182 -121.346)" fill="#231f20"/>
    <path id="Path_233048" data-name="Path 233048" d="M32.5,230.167c.531-.6,1.08-1.191,1.637-1.77.2-.213.389-.44.6-.645a22.245,22.245,0,0,1,2.381-2.026c.375-.284.759-.548,1.154-.8l.4-.233c.139-.065.284-.142.423-.2a2.307,2.307,0,0,1,.466-.131c.08-.014.162-.026.242-.034a2.505,2.505,0,0,1,.253,0c.21.02.153.239.02.46a2.433,2.433,0,0,1-.242.321.8.8,0,0,1-.148.131.706.706,0,0,1-.176.1,7.01,7.01,0,0,0-1.392.77c-.463.313-.921.659-1.387,1.009a14.09,14.09,0,0,0-1.54,1.492c-.551.568-1.091,1.154-1.617,1.75-.324.367-.645.739-.958,1.117-.472.568-.952,1.151-1.384,1.75-.341.463-.614.96-.929,1.438-.071.105-.131.213-.2.315-.284.384-.429.466-.685.389a1.034,1.034,0,0,1-.173-.054c-.173-.088-.179-.327-.026-.631a16.074,16.074,0,0,1,1.736-2.666c.489-.639,1.009-1.262,1.532-1.881Z" transform="translate(-16.814 -95.749)" fill="#231f20"/>
    <path id="Path_233049" data-name="Path 233049" d="M427.007,237.09v-1.1c0-.134-.028-.264-.026-.4,0-.475.04-.952.048-1.421,0-.213,0-.426-.014-.634a2.369,2.369,0,0,1,.026-.813c.023-.085.173-.074.327,0s.318.193.341.341c.043.264.077.531.1.8a4.65,4.65,0,0,1-.023.818,8.6,8.6,0,0,0,.043,1.006l.02,1.111v.688c0,.347,0,.7.026,1.043,0,.267.08.534.077.81v.185a.415.415,0,0,1-.085.247.284.284,0,0,1-.2.077.94.94,0,0,1-.125,0,.335.335,0,0,1-.284-.256A5.074,5.074,0,0,1,427,238.2c-.017-.364-.02-.73-.034-1.1Z" transform="translate(-301.62 -101.714)" fill="#231f20"/>
    <path id="Path_233050" data-name="Path 233050" d="M430.127,145.716l-.207,2.45c-.026.284-.028.6-.054.892-.088,1.051-.188,2.1-.267,3.151-.034.466-.054.935-.068,1.4a9.317,9.317,0,0,1-.122,1.779c-.034.185-.156.159-.284,0a1.421,1.421,0,0,1-.324-.8c0-.608.017-1.219.045-1.827s.1-1.219.173-1.83c.094-.73.1-1.495.148-2.245.057-.824.122-1.648.19-2.472l.125-1.52c.057-.767.131-1.537.173-2.3.034-.591.028-1.176.048-1.768a3.569,3.569,0,0,1,.014-.389c.026-.489.128-.645.327-.716a.743.743,0,0,1,.131-.048c.068-.014.122.034.173.128a.81.81,0,0,1,.082.406c.023,1.04-.031,2.145-.1,3.248-.06.821-.116,1.648-.176,2.469Z" transform="translate(-302.93 -35)" fill="#231f20"/>
    <path id="Path_233051" data-name="Path 233051" d="M428.632,238.722c.014-.25,0-.5,0-.756,0-.094-.028-.185-.031-.284,0-.335-.02-.673-.04-1.012a3.79,3.79,0,0,0-.06-.443,1.481,1.481,0,0,1-.04-.568c0-.06.119-.065.236-.031a.4.4,0,0,1,.284.213,4.359,4.359,0,0,1,.156,1.137,5.161,5.161,0,0,0,.111.708,6.751,6.751,0,0,1,.071.8v.5c0,.25-.014.5,0,.745a4.927,4.927,0,0,0,.091.568.95.95,0,0,1,.02.125c0,.156-.043.2-.253.224a1.241,1.241,0,0,1-.145,0,.316.316,0,0,1-.333-.173,2.749,2.749,0,0,1-.111-1.014c0-.253.02-.506,0-.756Z" transform="translate(-302.679 -103.823)" fill="#231f20"/>
    <path id="Path_233052" data-name="Path 233052" d="M318.68,140.695v8.494l8.272,5.044c.821-2.336,2.39-8.738-3.828-12.134C323.124,142.1,320.345,140.365,318.68,140.695Z" transform="translate(-224.102 -35.853)" fill="#231f20"/>
    <path id="Path_233053" data-name="Path 233053" d="M302.1,277.08l-6.13.031-2.236.031-7.883.017c-1.165,0-2.336.023-3.492.043-1.486.023-2.981.068-4.467.017-.924-.031.25-.5,1.958-.531,3.032-.051,6.064-.1,9.125-.082,1.83,0,3.734-.06,5.6-.088l6.175-.088,3.8-.051c1.918-.031,3.845-.054,5.749-.105,1.481-.04,2.93-.119,4.393-.182l.961-.043c1.2-.037,1.591,0,1.853.2a.99.99,0,0,1,.171.136c.114.153-.372.284-1.253.335-2.609.171-5.368.239-8.136.284l-6.186.085Z" transform="translate(-194.674 -132.764)" fill="#231f20"/>
    <path id="Path_233054" data-name="Path 233054" d="M128.672,295.4l-5.271.048c-.642,0-1.284.04-1.924.04H114.7c-1,0-2.012.017-3.007.04-1.279.014-2.558.043-3.842-.028-.4-.023-.344-.139,0-.261a5.924,5.924,0,0,1,1.705-.284c2.6-.1,5.209-.136,7.84-.131,1.574,0,3.211-.074,4.831-.114l5.308-.1,3.268-.065c1.648-.037,3.3-.068,4.942-.125,1.273-.048,2.518-.145,3.777-.213.284-.014.548-.037.83-.048a6.487,6.487,0,0,1,1.1.026.807.807,0,0,1,.494.233.8.8,0,0,1,.142.159c.088.185-.318.318-1.071.386-2.239.193-4.612.284-6.991.355l-5.32.1Z" transform="translate(-72.983 -145.728)" fill="#231f20"/>
    <path id="Path_233055" data-name="Path 233055" d="M234.67,185.874l.074-5.092v-1.858l.119-6.536c.017-.966.017-1.941,0-2.9,0-1.233,0-2.475.105-3.708.028-.386.085-.335.168,0a9.5,9.5,0,0,1,.267,1.631c.074,1.262.071,2.521.068,3.785s-.02,2.529-.065,3.8c-.051,1.52-.023,3.1-.034,4.658q-.028,2.558-.054,5.132l-.014,3.137c0,1.594-.034,3.194-.026,4.777,0,1.23.051,2.435.077,3.652,0,.267,0,.529.023.8,0,1-.031,1.319-.213,1.535a1.078,1.078,0,0,1-.114.142c-.117.094-.256-.313-.284-1.046-.117-2.171-.134-4.464-.136-6.763,0-1.705.017-3.424.026-5.138Z" transform="translate(-163.937 -53.644)" fill="#231f20"/>
    <path id="Path_233056" data-name="Path 233056" d="M477.529,258.651a7.9,7.9,0,0,0,.943-.838c.105-.114.185-.25.284-.367a8.774,8.774,0,0,0,.986-1.347,3.8,3.8,0,0,0,.284-.682c.048-.153.085-.307.134-.458a1.353,1.353,0,0,1,.188-.438c.057-.088.284-.017.466.125s.352.369.3.568a5.31,5.31,0,0,1-.969,1.89,6.244,6.244,0,0,0-.372.526,5.275,5.275,0,0,1-.372.534,8.233,8.233,0,0,1-.986,1.029c-.227.185-.449.375-.693.54l-.284.19-.284.171c-.185.122-.389.21-.568.324a7.08,7.08,0,0,1-.932.457,1.137,1.137,0,0,1-.216.077c-.284.051-.389,0-.477-.213a.941.941,0,0,1-.057-.148.387.387,0,0,1,.2-.432c.472-.3.918-.568,1.4-.818a7.9,7.9,0,0,0,1.006-.7Z" transform="translate(-335.924 -117.337)" fill="#231f20"/>
    <path id="Path_233057" data-name="Path 233057" d="M482.535,264.388a2.285,2.285,0,0,1-.25-.216l-.156-.151c-.085-.094-.179-.188-.261-.284-.171-.19-.327-.384-.48-.568l-.435-.568a5.579,5.579,0,0,0-.412-.477,2.948,2.948,0,0,0-.412-.364l-.057-.034h0v-.06c.017-.051.034-.088.046-.136l.028-.122v-.1c0-.122-.048-.125.017-.077a.433.433,0,0,0,.156.063,1.421,1.421,0,0,0,.284.051h.02v.051a.968.968,0,0,0,.014.111q.023.134.06.284l.02.074.02.051a.565.565,0,0,0,.043.111,2.693,2.693,0,0,0,.134.284c.284.568.7,1.122,1.054,1.7a6.08,6.08,0,0,1,1.023,2.273,1.207,1.207,0,0,1-.06.486.9.9,0,0,1-.284.452.779.779,0,0,1-.483.159,1.471,1.471,0,0,1-.492-.08,3.676,3.676,0,0,1-1.114-.673c-.094-.074-.187-.151-.284-.23l-.136-.119-.068-.06-.045-.043-.31-.344c-.438-.435-.852-.881-1.27-1.327l-.548-.591-.134-.139-.065-.065-.028-.028h0l.04-.054c.014-.017.031-.043.043-.054a.122.122,0,0,0,.034,0,.228.228,0,0,0,.06-.043.176.176,0,0,0,.057-.119v-.048c.085.81.023.225.043.4h0a.105.105,0,0,1-.017-.04.171.171,0,0,0-.02-.057c-.057-.088-.045-.037.026-.026a.42.42,0,0,0,.085.02h0v.034a.77.77,0,0,0,.031.122,1.99,1.99,0,0,0,.139.3,5.863,5.863,0,0,0,.4.628c.781,1.06,1.756,2.02,2.577,3.08.253.324.114.429-.321.361a3.491,3.491,0,0,1-.8-.264,3.37,3.37,0,0,1-.9-.654,13.477,13.477,0,0,1-1.421-1.651,7.44,7.44,0,0,1-.622-.986,2.617,2.617,0,0,1-.253-.7,2,2,0,0,1-.028-.284.632.632,0,0,1,.02-.19c.02-.065,0-.06.017-.094a1.109,1.109,0,0,0,.04-.117,1.206,1.206,0,0,1,.117-.224,1.548,1.548,0,0,1,.188-.2,1.023,1.023,0,0,1,.2-.128.942.942,0,0,1,.19-.074l.165-.034h.085a.82.82,0,0,1,.185,0,.833.833,0,0,1,.347.151l.031.026h0c.08.071.105.1.145.139l.19.2.358.389.7.762c.233.25.469.5.71.736l.338.332a1.025,1.025,0,0,0,.08.105.853.853,0,0,0,.324.253.15.15,0,0,0,.105,0,.116.116,0,0,0,.06-.074.256.256,0,0,0-.014-.193c-.028-.062-.06-.125-.094-.185l-.054-.091-.077-.122-.639-1.02c-.25-.409-.5-.816-.736-1.273a3.287,3.287,0,0,1-.284-.784,2.888,2.888,0,0,1-.074-.426,1.64,1.64,0,0,1,0-.267.906.906,0,0,1,.119-.4.674.674,0,0,1,.244-.247.659.659,0,0,1,.17-.071.691.691,0,0,1,.156-.023.854.854,0,0,1,.392.077,1.879,1.879,0,0,1,.415.25,4.854,4.854,0,0,1,.568.54c.173.185.341.384.489.568s.284.367.435.543a8.315,8.315,0,0,0,.568.617l.125.122a.912.912,0,0,0,.077.071,1.122,1.122,0,0,0,.168.134.568.568,0,0,0,.412.119.44.44,0,0,0,.2-.105.284.284,0,0,0,.074-.2,1.336,1.336,0,0,0-.284-.617,12.019,12.019,0,0,0-.816-.98l-.446-.489c-.077-.085-.151-.168-.233-.27a2.855,2.855,0,0,1-.21-.313,6.219,6.219,0,0,1-.333-.622,4.179,4.179,0,0,1-.168-.415,2.585,2.585,0,0,1-.117-.44,1.519,1.519,0,0,1,0-.651.767.767,0,0,1,.386-.494,1.543,1.543,0,0,1,1.3.043,4.483,4.483,0,0,1,.608.35c.151.1.284.2.429.3.284.2.543.4.807.568a5.139,5.139,0,0,0,.685.389,2.9,2.9,0,0,0,.759.233,1.968,1.968,0,0,1,.48.165c.082.034.185.054.259.091.122.063.142.21-.017.438a1,1,0,0,1-.426.327,1.608,1.608,0,0,1-.75.145,3.012,3.012,0,0,1-1.1-.338,7.133,7.133,0,0,1-.87-.529c-.267-.185-.514-.372-.756-.546l-.176-.125-.088-.06-.057-.037c-.045-.028-.028,0-.04-.017h-.014a.028.028,0,0,0-.017.051h0l.028.054.088.179c.063.119.131.239.2.35l.08.119.119.136c.284.321.642.682.966,1.063l.244.284.119.153.06.08.034.043.051.071a3.837,3.837,0,0,1,.614,1.176,1.565,1.565,0,0,1-.037,1.054,1.4,1.4,0,0,1-.3.443,1.731,1.731,0,0,1-.452.3,1.583,1.583,0,0,1-1.049.1,2.815,2.815,0,0,1-1.105-.6Z" transform="translate(-337.304 -119.737)" fill="#231f20"/>
    <path id="Path_233058" data-name="Path 233058" d="M17.8,226.578a15.369,15.369,0,0,1-1.276-1.594c-.142-.2-.3-.386-.432-.594a22.143,22.143,0,0,1-1.225-2.273c-.165-.344-.344-.682-.5-1.032a6.113,6.113,0,0,1-.284-.688,1.728,1.728,0,0,1-.1-.816c.068-.259.227-.082.4.023a.98.98,0,0,1,.489.446c.162.406.384.818.568,1.242s.4.852.6,1.293a9.7,9.7,0,0,0,.952,1.472,17.007,17.007,0,0,0,1.194,1.515,9.623,9.623,0,0,0,.833.852,5.28,5.28,0,0,0,1.455.96,2.984,2.984,0,0,0,1.5.136c.324-.017.44,0,.591.165.034.034.074.065.1.1.082.1,0,.31-.3.486a2.359,2.359,0,0,1-1.506.207,3.735,3.735,0,0,1-1.421-.523,8.284,8.284,0,0,1-1.654-1.35Z" transform="translate(-5.985 -92.257)" fill="#231f20"/>
    <path id="Path_233059" data-name="Path 233059" d="M137.8,129.782l-13.248-.1h-4.831c-5.683-.043-11.367-.091-17.033-.105-2.521,0-5.052,0-7.553.045l-4.831.074c-1.608.014-3.217.034-4.831.017-1-.028-.872-.145-.028-.318a27,27,0,0,1,4.263-.426c6.564-.125,13.12-.136,19.733-.051,3.956.051,8.073,0,12.12.028L134.92,129l8.215.031c4.146,0,8.312.02,12.427,0,3.2-.026,6.334-.1,9.5-.168l2.08-.048c1.3-.026,2.157-.028,2.759,0a4.342,4.342,0,0,1,1.233.213,3.915,3.915,0,0,1,.369.134c.128.074-.074.145-.546.222a17.93,17.93,0,0,1-2.165.182c-5.655.213-11.62.27-17.618.284l-13.373-.031Z" transform="translate(-56.663 -27.367)" fill="#231f20"/>
    <g id="Group_13583" data-name="Group 13583" transform="translate(30.811 176.448)" opacity="0.4">
      <path id="Path_233060" data-name="Path 233060" d="M144.716,394.232l-12.606.1-4.6.046-16.2.028-7.184.031-4.592.02c-1.529,0-3.06,0-4.586-.065-.955-.034-.824-.168-.017-.3a25.486,25.486,0,0,1,4.049-.284H117.74c3.762,0,7.673-.065,11.526-.105l12.694-.142,7.815-.1c3.941-.063,7.906-.119,11.819-.219,3.041-.077,6.022-.2,9.028-.318l1.989-.08c2.472-.091,3.262-.063,3.8.125a2.328,2.328,0,0,1,.355.131c.244.151-.762.313-2.575.409-5.374.284-11.046.426-16.74.543-4.228.08-8.477.136-12.717.2Z" transform="translate(-94.283 -392.784)" fill="#231f20"/>
    </g>
    <path id="Path_233061" data-name="Path 233061" d="M57.748,306.2v-3.865l-.023-1.421v-4.97c0-.733-.017-1.472-.04-2.2a18.6,18.6,0,0,1,.034-2.813c.031-.284.114-.256.239,0a4.766,4.766,0,0,1,.21.506,3.032,3.032,0,0,1,.139.73c.114,1.912.108,3.822.054,5.754-.034,1.154.017,2.353.026,3.532l.017,3.893v2.4c0,1.211.014,2.427.045,3.626.026.932.088,1.847.136,2.768l.031.605c.028.759-.057,1-.2,1.168a.8.8,0,0,1-.1.111c-.054.037-.105-.023-.159-.159a2.4,2.4,0,0,1-.148-.628c-.162-1.648-.2-3.387-.244-5.132-.017-1.3-.034-2.6-.051-3.9Z" transform="translate(-37.247 -143.281)" fill="#231f20"/>
    <path id="Path_233062" data-name="Path 233062" d="M449.613,309.6l.08-3.66v-1.333l.122-4.709v-2.086a19.891,19.891,0,0,1,.088-2.665c.026-.284.122-.239.233,0a3.647,3.647,0,0,1,.176.483c.028.1.057.21.082.327a1.027,1.027,0,0,0,.037.176v.19c.048.906.037,1.813.023,2.719s-.045,1.819-.091,2.734c-.054,1.094-.026,2.231-.046,3.35l-.062,3.694c0,.756-.026,1.515-.04,2.273-.014,1.137-.037,2.3-.031,3.436,0,.884.048,1.75.077,2.626l.02.568c0,.719-.034.946-.216,1.1a.638.638,0,0,1-.119.1c-.128.065-.256-.23-.284-.756-.114-1.566-.125-3.214-.122-4.868q.021-1.841.037-3.694Z" transform="translate(-317.775 -146.303)" fill="#231f20"/>
    <path id="Path_233063" data-name="Path 233063" d="M184.145,91.168c-.065.455-.5.938-.986.537-.392-.324.071-1.165.537-1.137A.457.457,0,0,1,184.145,91.168Z" transform="translate(-126.986 0)" fill="#231f20"/>
    <path id="Path_233064" data-name="Path 233064" d="M129.755,108.878c-.065.455-.5.938-.986.537-.392-.324.071-1.165.534-1.137C129.678,108.29,129.794,108.577,129.755,108.878Z" transform="translate(-88.052 -12.677)" fill="#231f20" opacity="0.6"/>
    <path id="Path_233065" data-name="Path 233065" d="M393.145,424.085c-.062.457-.5.941-.986.54-.392-.327.071-1.168.537-1.137a.472.472,0,0,1,.449.6Z" transform="translate(-276.595 -238.314)" fill="#231f20"/>
    <path id="Path_233066" data-name="Path 233066" d="M209.464,104.662c-.04.284-.318.594-.622.341-.25-.2.043-.739.338-.725a.284.284,0,0,1,.284.384Z" transform="translate(-145.409 -9.814)" fill="#231f20" opacity="0.4"/>
    <path id="Path_233067" data-name="Path 233067" d="M328.488,420.693c-.043.284-.318.6-.625.341-.25-.2.045-.739.338-.725a.3.3,0,0,1,.287.384Z" transform="translate(-230.609 -236.04)" fill="#231f20" opacity="0.4"/>
    <path id="Path_233068" data-name="Path 233068" d="M349.751,426.953c-.04.284-.318.6-.625.341-.247-.2.045-.739.341-.725C349.7,426.581,349.777,426.763,349.751,426.953Z" transform="translate(-245.83 -240.521)" fill="#231f20" opacity="0.7"/>
    <path id="Path_233069" data-name="Path 233069" d="M107.011,101.033c-.04.284-.318.6-.625.341-.247-.2.045-.736.341-.725a.3.3,0,0,1,.284.384Z" transform="translate(-72.069 -7.217)" fill="#231f20" opacity="0.4"/>
    <path id="Path_233070" data-name="Path 233070" d="M145.828,395.743q-6.2.094-12.393.131l-4.518.048q-7.957.02-15.933-.051l-7.064-.065-2.256-.023-2.256-.048c-1.506-.028-3.012-.091-4.51-.2-.935-.062-.8-.193,0-.3a16.387,16.387,0,0,1,1.645-.139c.679-.023,1.478-.031,2.342-.017,6.124.148,12.25.19,18.434.25,3.694.031,7.545-.031,11.327-.071q6.235-.068,12.478-.168,3.836-.065,7.673-.148c3.873-.088,7.769-.185,11.614-.324,2.989-.114,5.916-.284,8.869-.446l1.941-.111c2.427-.139,3.2-.128,3.737.051a2.486,2.486,0,0,1,.352.122c.242.148-.742.327-2.523.46-5.277.389-10.852.6-16.448.776-4.157.119-8.335.21-12.5.284Z" transform="translate(-64.877 -217.182)" fill="#231f20"/>
    <path id="Path_233071" data-name="Path 233071" d="M280.038,145.049a13.643,13.643,0,0,1,1.489-1.671c.2-.182.386-.384.6-.554a10.29,10.29,0,0,1,2.45-1.489c.395-.156.787-.321,1.2-.438a3.634,3.634,0,0,1,.392-.108,2.759,2.759,0,0,1,.4-.085l.409-.034h.409c.125,0,.145.139.017.284a1.543,1.543,0,0,1-.637.375,11.365,11.365,0,0,0-1.455.426c-.475.185-.941.4-1.407.634a7.415,7.415,0,0,0-1.534,1.137,12.567,12.567,0,0,0-1.455,1.554,10.211,10.211,0,0,0-.756,1.08,8.845,8.845,0,0,0-.867,1.785,5.2,5.2,0,0,0-.264,1.461v.315a1.809,1.809,0,0,1-.048.415.381.381,0,0,1-.136.213,1.2,1.2,0,0,1-.091.082c-.054.034-.111.014-.176-.057a.912.912,0,0,1-.179-.367,3.5,3.5,0,0,1,0-1.546,6.215,6.215,0,0,1,.477-1.469,11.134,11.134,0,0,1,1.157-1.964Z" transform="translate(-195.202 -35.865)" fill="#231f20"/>
    <g id="Group_13584" data-name="Group 13584" transform="translate(20.032 148.306)" opacity="0.4">
      <path id="Path_233072" data-name="Path 233072" d="M56.35,308.7l.037-3.737V303.6l.065-4.8v-2.128a17.051,17.051,0,0,1,.063-2.719c.037-.284.119-.244.239,0a4.672,4.672,0,0,1,.207.492,3.126,3.126,0,0,1,.131.7c.088,1.847.063,3.694,0,5.558-.045,1.117,0,2.273-.014,3.41l-.026,3.762v5.817c0,.9.068,1.785.105,2.674l.026.588c.02.733-.065.966-.216,1.137a1.207,1.207,0,0,1-.1.105c-.054.037-.105-.02-.156-.153a2.092,2.092,0,0,1-.139-.608c-.148-1.591-.171-3.271-.188-4.959V308.71Z" transform="translate(-56.35 -293.752)" fill="#231f20"/>
    </g>
    <g id="Group_13585" data-name="Group 13585" transform="translate(132.129 149.5)" opacity="0.4">
      <path id="Path_233073" data-name="Path 233073" d="M451.009,311.729l.139-3.441.023-1.256c.054-1.475.119-2.95.153-4.424.017-.654.014-1.313,0-1.964v-1.253c0-.418.054-.835.082-1.253.026-.261.122-.227.233,0a3.452,3.452,0,0,1,.179.455,2.736,2.736,0,0,1,.085.307l.037.168.014.176c.054.853.04,1.705.026,2.557s-.048,1.705-.1,2.572c-.06,1.029-.04,2.1-.071,3.151L451.691,311c-.028.71-.054,1.421-.082,2.134-.037,1.077-.088,2.16-.105,3.231-.017.833,0,1.648.02,2.469v.543c0,.676-.048.889-.233,1.032a1.086,1.086,0,0,1-.122.094c-.128.063-.25-.216-.284-.713-.088-1.475-.06-3.026-.02-4.581q.054-1.736.114-3.473Z" transform="translate(-450.826 -297.954)" fill="#231f20"/>
    </g>
    <g id="Group_13586" data-name="Group 13586" transform="translate(30.106 101.806)" opacity="0.4">
      <path id="Path_233074" data-name="Path 233074" d="M143.091,131.221l-12.819-.159-4.672-.031c-5.493-.068-10.986-.142-16.482-.176-2.435,0-4.888,0-7.3.017l-4.666.065c-1.554,0-3.109.028-4.66,0-.969-.031-.853-.148-.028-.321a25.768,25.768,0,0,1,4.115-.421c6.351-.114,12.694-.1,19.09.014,3.825.065,7.806.048,11.719.08l12.913.119,7.957.063c4.01.023,8.039.051,12.017.034,3.095-.017,6.13-.085,9.187-.151l2.009-.045c1.259-.023,2.089-.023,2.671,0a4.185,4.185,0,0,1,1.194.216,3.41,3.41,0,0,1,.358.134c.122.074-.074.145-.529.222a16.933,16.933,0,0,1-2.1.179c-5.467.21-11.239.253-17.03.239-4.3,0-8.622-.048-12.935-.08Z" transform="translate(-91.802 -130.117)" fill="#231f20"/>
    </g>
    <path id="Path_233075" data-name="Path 233075" d="M300.74,325.64l.148,13.092h2.754V325.64Z" transform="translate(-211.26 -168.272)" fill="#231f20" stroke="#231f20" stroke-width="1" opacity="0.3"/>
    <path id="Path_233076" data-name="Path 233076" d="M319.21,335.37l.151,10.25h2.751V335.37Z" transform="translate(-224.482 -175.237)" fill="#231f20"/>
    <path id="Path_233077" data-name="Path 233077" d="M336.54,349.37l.148,6.272h2.754V349.37Z" transform="translate(-236.887 -185.259)" fill="#231f20" opacity="0.3"/>
    <path id="Path_233078" data-name="Path 233078" d="M10.65,233.032a1.35,1.35,0,0,1-.165-.909,2.689,2.689,0,0,1,.429-1.071c.284-.446.742-.96,1.074-1.421l.2-.284a.415.415,0,0,0,.048-.108.188.188,0,0,0-.028-.165c-.043-.045-.111-.028-.159-.02l-.091.023-.054.02c-.031.014-.045.017-.114.051-.216.105-.44.224-.673.344s-.469.242-.742.352a2.841,2.841,0,0,1-.568.17,1.077,1.077,0,0,1-.568-.071,1.162,1.162,0,0,1-.577-.529,1.356,1.356,0,0,1-.125-.75,2.557,2.557,0,0,1,.151-.639,5.368,5.368,0,0,1,.219-.5c.176-.355.369-.693.568-1.023s.392-.659.543-.961a1.137,1.137,0,0,0,.023-.995.355.355,0,0,0-.242-.2.852.852,0,0,0-.449.065c-.219.091-.381-.111-.284-.475a.9.9,0,0,1,.526-.546.909.909,0,0,1,.284-.068,1.563,1.563,0,0,1,.165,0,.8.8,0,0,1,.176.031,1.343,1.343,0,0,1,.35.139,1.169,1.169,0,0,1,.284.247,1.876,1.876,0,0,1,.421,1.1,2.331,2.331,0,0,1-.028.529,1.819,1.819,0,0,1-.057.253l-.034.125c-.017.045-.037.1-.057.139a3.9,3.9,0,0,1-.2.4l-.19.33-.358.6a7.955,7.955,0,0,0-.6,1.176c-.017.045-.034.091-.045.134s-.026.1-.028.08a.208.208,0,0,0-.026.063.162.162,0,0,0,.045.156h0a.142.142,0,0,0,.108.026.266.266,0,0,0,.063,0H9.88l.04-.017a.8.8,0,0,0,.091-.04,8.5,8.5,0,0,0,.756-.415l.4-.233.105-.06.148-.08c.1-.054.224-.114.335-.165a1.459,1.459,0,0,1,1.287-.062,1.261,1.261,0,0,1,.475,1.273,2.146,2.146,0,0,1-.236.745l-.1.179-.077.122c-.014.026-.023.034-.026.043l-.02.023-.034.045a8.528,8.528,0,0,0-.568.708.787.787,0,0,0-.125.3.392.392,0,0,0,.077.307c.026.04.045.1.091.116a.15.15,0,0,0,.131,0,.736.736,0,0,0,.227-.151c.216-.2.415-.432.659-.673l.091-.088c.057-.048.111-.1.182-.162a2.418,2.418,0,0,1,.529-.347,1.066,1.066,0,0,1,.568-.1.776.776,0,0,1,.5.284,1.6,1.6,0,0,1,.236.4c0,.04.04.068.04.114a.928.928,0,0,1,.051.108.7.7,0,0,1,.045.23,1.608,1.608,0,0,1-.065.483c-.031.08-.054.165-.088.244l-.094.224c-.2.457-.418.878-.6,1.284-.04.088-.071.173-.1.253a1,1,0,0,0-.045.182h-.1a.487.487,0,0,0-.176.014.162.162,0,0,0-.077.026h0a.122.122,0,0,0,.026-.074.506.506,0,0,0,.031-.148.616.616,0,0,0,0-.074.2.2,0,0,1,0-.043h.244a.673.673,0,0,1,.426.139,1.884,1.884,0,0,1,.182.134c.082.085.074.2-.028.344a1.049,1.049,0,0,1-.227.216,1.248,1.248,0,0,1-.466.2,1.054,1.054,0,0,1-.145.02,1.273,1.273,0,0,1-.207-.017.764.764,0,0,1-.284-.134.739.739,0,0,1-.219-.284.724.724,0,0,1-.051-.151.246.246,0,0,0-.017-.111c-.017-.037,0-.074,0-.108v-.077a1.486,1.486,0,0,1,.04-.267,4.9,4.9,0,0,1,.247-.719c.088-.21.179-.412.267-.608s.176-.4.236-.551c0-.031-.023-.031-.031-.028h0l-.074.071-.253.284-.617.691a7.571,7.571,0,0,1-.6.605,3.105,3.105,0,0,1-.264.213,2.6,2.6,0,0,1-.236.148,1.253,1.253,0,0,1-.688.165,1.058,1.058,0,0,1-.338-.068,1.105,1.105,0,0,1-.338-.207.244.244,0,0,1-.091-.108,1.93,1.93,0,0,1-.307-.367Z" transform="translate(-2.084 -95.03)" fill="#231f20"/>
  </g>
</svg>
