<svg xmlns="http://www.w3.org/2000/svg" width="57" height="57" viewBox="0 0 57 57">
  <g id="Group_40255" data-name="Group 40255" transform="translate(-2173 -880)">
    <g id="Rectangle_10113" data-name="Rectangle 10113" transform="translate(2173 880)" fill="#fff" stroke="#e5e5e5" stroke-width="1">
      <rect width="57" height="57" stroke="none"/>
      <rect x="0.5" y="0.5" width="56" height="56" fill="none"/>
    </g>
    <path id="Machine_Learning" d="M36.226,20.842a.372.372,0,0,0-.035-.071,8.5,8.5,0,0,0-6.76-4.5,10.362,10.362,0,0,0-16.258,0,8.47,8.47,0,0,0-5.4,2.614.39.39,0,0,0-.082.09,8.476,8.476,0,0,0-1.785,2.973.31.31,0,0,0-.029.081,8.318,8.318,0,0,0-.135,4.944.4.4,0,0,0,.028.106,8.468,8.468,0,0,0,11.812,5.306,10.347,10.347,0,0,0,7.868-.177l4.25,6.236a1.646,1.646,0,0,0,2.951-1.35L31.49,32.737a8.5,8.5,0,0,0,5.661-7.5.37.37,0,0,0,.014-.068c0-.014-.007-.026-.008-.04.006-.132.019-.262.019-.4a8.431,8.431,0,0,0-.949-3.886Zm.157,3.927H25.461a.4.4,0,0,0-.4.4V27a1.561,1.561,0,1,0,.793,0v-1.43H36.341a7.712,7.712,0,0,1-7.656,6.871.4.4,0,1,0,0,.79,8.43,8.43,0,0,0,2.049-.26L31.886,37.3a.855.855,0,0,1-1.533.7l-4.185-6.138a10.337,10.337,0,0,0,2.771-2.134.4.4,0,1,0-.583-.536A9.575,9.575,0,0,1,18.51,31.87a8.512,8.512,0,0,0,2.3-2.179.4.4,0,1,0-.643-.462A7.69,7.69,0,0,1,6.678,27.311H18.821a1.561,1.561,0,1,0,0-.793H6.441a7.55,7.55,0,0,1,.106-3.991h7.877a1.561,1.561,0,1,0,0-.793h-7.6A7.73,7.73,0,0,1,8.2,19.586H21.3a.4.4,0,0,0,.4-.4V17.36a1.561,1.561,0,1,0-.793,0V18.8H9.016a7.7,7.7,0,0,1,8.375-.947.4.4,0,1,0,.358-.7,8.357,8.357,0,0,0-3.511-.9,9.57,9.57,0,0,1,14.135.006,8.463,8.463,0,0,0-5.287,2.1.4.4,0,0,0,.522.594,7.685,7.685,0,0,1,11.547,1.635h-6.9a1.561,1.561,0,1,0,0,.793H35.6a7.636,7.636,0,0,1,.785,3.365v.04ZM26.23,28.5a.769.769,0,1,1-.769-.769.769.769,0,0,1,.769.769Zm-6.675-1.58a.77.77,0,1,1,.224.542.769.769,0,0,1-.224-.542Zm-4.4-4.782a.422.422,0,1,0,0-.005Zm5.377-6.277a.561.561,0,1,0,0-.005Zm6.99,5.113a.607.607,0,1,1,0-.006Z" transform="translate(2180.068 883.165)" stroke="#000" stroke-width="0.5"/>
  </g>
</svg>
