<svg xmlns="http://www.w3.org/2000/svg" width="57" height="57" viewBox="0 0 57 57">
  <g id="Group_40261" data-name="Group 40261" transform="translate(-2213 -786)">
    <g id="Rectangle_10113" data-name="Rectangle 10113" transform="translate(2213 786)" fill="#fff" stroke="#e5e5e5" stroke-width="1">
      <rect width="57" height="57" stroke="none"/>
      <rect x="0.5" y="0.5" width="56" height="56" fill="none"/>
    </g>
    <g id="Model_Deployment_Monitoring_" data-name="Model_Deployment_Monitoring " transform="translate(2209 782)">
      <path id="Path_233129" data-name="Path 233129" d="M19,34.031a4.453,4.453,0,0,0,4.453,4.453h18.7a4.453,4.453,0,0,0,4.453-4.453V22.453A4.453,4.453,0,0,0,42.156,18h-18.7A4.453,4.453,0,0,0,19,22.453Zm3.562-11.578a.891.891,0,0,1,.891-.891h18.7a.891.891,0,0,1,.891.891V34.031a.891.891,0,0,1-.891.891h-18.7a.891.891,0,0,1-.891-.891Z" stroke="#fff" stroke-width="1"/>
      <path id="Path_233130" data-name="Path 233130" d="M46.446,71.78a16.868,16.868,0,0,0-15.091,0l-.374.187a1.781,1.781,0,1,0,1.59,3.188l.379-.187a13.31,13.31,0,0,1,11.9,0l.374.187a1.781,1.781,0,0,0,1.59-3.188Z" transform="translate(-6.098 -28.843)" stroke="#fff" stroke-width="1"/>
    </g>
  </g>
</svg>
