<svg xmlns="http://www.w3.org/2000/svg" xmlns:xlink="http://www.w3.org/1999/xlink" width="24.751" height="24.742" viewBox="0 0 24.751 24.742">
  <defs>
    <linearGradient id="linear-gradient" x1="0.5" x2="0.5" y2="1" gradientUnits="objectBoundingBox">
      <stop offset="0" stop-color="#a70000"/>
      <stop offset="1" stop-color="#01235a"/>
    </linearGradient>
  </defs>
  <g id="Predictive_Modeling_" data-name="Predictive_Modeling " transform="translate(-3.914 -3.913)">
    <path id="Path_233106" data-name="Path 233106" d="M28.405,28.038a.369.369,0,0,1-.368.368H6a1.837,1.837,0,0,1-1.837-1.837V4.532a.368.368,0,1,1,.735,0V6.368h.734a.368.368,0,1,1,0,.735H4.9V8.573h.734a.368.368,0,1,1,0,.735H4.9v1.469h.734a.368.368,0,1,1,0,.735H4.9v1.469h.734a.368.368,0,1,1,0,.735H4.9v1.469h.734a.368.368,0,0,1,0,.735H4.9V17.39h.734a.368.368,0,0,1,0,.735H4.9v1.469h.734a.368.368,0,1,1,0,.735H4.9V21.8h.368a.368.368,0,0,1,0,.735H4.9V24.22L8.312,20.8a.37.37,0,0,1,.522,0l1.209,1.212L14.755,17.3a1.834,1.834,0,0,1,1.164-2.81v-.037a.368.368,0,0,1,.735,0v.037a1.841,1.841,0,0,1,.643.269l.092-.088a.366.366,0,1,1,.518.518l-.088.092a1.869,1.869,0,0,1,.269.643h.037a.368.368,0,1,1,0,.735h-.037a1.834,1.834,0,0,1-2.81,1.164L10.3,22.8a.37.37,0,0,1-.522,0L8.575,21.584,4.9,25.257v1.318a1.105,1.105,0,0,0,1.1,1.1H7.84v-.734a.368.368,0,0,1,.735,0v.734h1.469v-.734a.368.368,0,0,1,.735,0v.734h1.469v-.734a.368.368,0,0,1,.735,0v.734h1.469v-.734a.368.368,0,0,1,.735,0v.734h1.469v-.734a.368.368,0,0,1,.735,0v.734h1.469v-.734a.368.368,0,0,1,.735,0v.734h1.469v-.734a.368.368,0,0,1,.735,0v.734h1.469v-.734a.368.368,0,0,1,.735,0v.734h1.469v-.734a.368.368,0,0,1,.735,0v.734h1.837a.369.369,0,0,1,.368.368Z" transform="translate(0 -0.001)" stroke="#000" stroke-width="0.5" fill="url(#linear-gradient)"/>
    <path id="Path_233107" data-name="Path 233107" d="M68.321,49.345h.656a.368.368,0,1,0,0-.735h-.656a.368.368,0,1,0,0,.735Z" transform="translate(-46.921 -32.693)" stroke="#000" stroke-width="0.5" fill="url(#linear-gradient)"/>
    <path id="Path_233108" data-name="Path 233108" d="M75.395,48.977a.367.367,0,0,0,.368.368h.656a.368.368,0,1,0,0-.735h-.656A.367.367,0,0,0,75.395,48.977Z" transform="translate(-52.394 -32.693)" stroke="#000" stroke-width="0.5" fill="url(#linear-gradient)"/>
    <path id="Path_233109" data-name="Path 233109" d="M83.2,48.609a.368.368,0,0,0,0,.735h.656a.368.368,0,0,0,0-.735Z" transform="translate(-57.868 -32.693)" stroke="#000" stroke-width="0.5" fill="url(#linear-gradient)"/>
    <path id="Path_233110" data-name="Path 233110" d="M60.883,48.609a.368.368,0,0,0,0,.735h.656a.368.368,0,0,0,0-.735Z" transform="translate(-41.449 -32.693)" stroke="#000" stroke-width="0.5" fill="url(#linear-gradient)"/>
    <path id="Path_233111" data-name="Path 233111" d="M89.513,44.552a.367.367,0,1,0-.52.52l.5.5a.363.363,0,0,0,0,.684l-.5.5a.367.367,0,1,0,.519.52l1.1-1.1a.367.367,0,0,0,0-.52l-1.1-1.1Z" transform="translate(-62.318 -29.629)" stroke="#000" stroke-width="0.5" fill="url(#linear-gradient)"/>
    <path id="Path_233112" data-name="Path 233112" d="M49.345,19.711a.368.368,0,0,0-.735,0v.656a.368.368,0,1,0,.735,0Z" transform="translate(-32.692 -11.166)" stroke="#000" stroke-width="0.5" fill="url(#linear-gradient)"/>
    <path id="Path_233113" data-name="Path 233113" d="M48.977,34.227a.367.367,0,0,0-.368.368v.656a.368.368,0,1,0,.735,0v-.656A.367.367,0,0,0,48.977,34.227Z" transform="translate(-32.692 -22.114)" stroke="#000" stroke-width="0.5" fill="url(#linear-gradient)"/>
    <path id="Path_233114" data-name="Path 233114" d="M49.345,27.153a.368.368,0,1,0-.735,0v.656a.368.368,0,1,0,.735,0Z" transform="translate(-32.692 -16.64)" stroke="#000" stroke-width="0.5" fill="url(#linear-gradient)"/>
    <path id="Path_233115" data-name="Path 233115" d="M49.345,12.27a.368.368,0,1,0-.735,0v.656a.368.368,0,1,0,.735,0Z" transform="translate(-32.692 -5.693)" stroke="#000" stroke-width="0.5" fill="url(#linear-gradient)"/>
    <path id="Path_233116" data-name="Path 233116" d="M45.065,5.892l.5-.5a.363.363,0,0,0,.684,0l.5.5a.367.367,0,0,0,.519-.52l-1.1-1.1a.367.367,0,0,0-.52,0l-1.1,1.1a.367.367,0,0,0,.52.52Z" transform="translate(-29.622 0)" stroke="#000" stroke-width="0.5" fill="url(#linear-gradient)"/>
    <path id="Path_233117" data-name="Path 233117" d="M63.355,33.605a.366.366,0,0,0,.259-.107l.489-.489a.367.367,0,0,0-.52-.52l-.489.489a.367.367,0,0,0,.259.627Z" transform="translate(-43.268 -20.757)" stroke="#000" stroke-width="0.5" fill="url(#linear-gradient)"/>
    <path id="Path_233118" data-name="Path 233118" d="M79.972,16.992a.366.366,0,0,0,.259-.107l.489-.489a.367.367,0,0,0-.52-.52l-.489.489a.367.367,0,0,0,.259.627Z" transform="translate(-55.491 -8.537)" stroke="#000" stroke-width="0.5" fill="url(#linear-gradient)"/>
    <path id="Path_233119" data-name="Path 233119" d="M85.511,11.452a.366.366,0,0,0,.259-.107l.489-.489a.367.367,0,0,0-.52-.52l-.489.489a.367.367,0,0,0,.259.627Z" transform="translate(-59.565 -4.462)" stroke="#000" stroke-width="0.5" fill="url(#linear-gradient)"/>
    <path id="Path_233120" data-name="Path 233120" d="M57.816,39.144a.366.366,0,0,0,.259-.107l.489-.489a.367.367,0,0,0-.52-.52l-.489.489a.367.367,0,0,0,.259.627Z" transform="translate(-39.194 -24.831)" stroke="#000" stroke-width="0.5" fill="url(#linear-gradient)"/>
    <path id="Path_233121" data-name="Path 233121" d="M74.433,22.531a.366.366,0,0,0,.259-.107l.489-.489a.367.367,0,0,0-.52-.52l-.489.489a.367.367,0,0,0,.259.627Z" transform="translate(-51.416 -12.611)" stroke="#000" stroke-width="0.5" fill="url(#linear-gradient)"/>
    <path id="Path_233122" data-name="Path 233122" d="M68.894,28.07a.366.366,0,0,0,.259-.107l.489-.489a.367.367,0,0,0-.52-.52l-.489.489a.367.367,0,0,0,.259.627Z" transform="translate(-47.342 -16.685)" stroke="#000" stroke-width="0.5" fill="url(#linear-gradient)"/>
    <path id="Path_233123" data-name="Path 233123" d="M90.356,4.168h-1.1a.368.368,0,0,0,0,.735h.215a.367.367,0,1,0,.519.52v.215a.368.368,0,1,0,.735,0v-1.1a.367.367,0,0,0-.368-.368Z" transform="translate(-62.318 -0.004)" stroke="#000" stroke-width="0.5" fill="url(#linear-gradient)"/>
  </g>
</svg>
