<svg xmlns="http://www.w3.org/2000/svg" width="44.973" height="31.81" viewBox="0 0 44.973 31.81">
  <g id="Industries" transform="translate(-167.606 -42.547)">
    <path id="Path_232901" data-name="Path 232901" d="M25.676,22.71a9.324,9.324,0,1,1-9.324,9.324,9.324,9.324,0,0,1,9.324-9.324ZM25.5,13.386a1.645,1.645,0,0,1,1.645-1.645H46.894a1.645,1.645,0,0,1,1.645,1.645V33.13a1.646,1.646,0,0,1-1.645,1.645H38.368A12.623,12.623,0,0,0,26.053,19.419c-.184,0-.366,0-.548.011Zm-20.293,17A1.645,1.645,0,0,1,3.836,27.84L15.354,10.29a1.645,1.645,0,0,1,2.751,0l6.081,9.267A12.631,12.631,0,0,0,13.545,30.388Z" transform="translate(164.039 33)" fill="#fff" fill-rule="evenodd"/>
  </g>
</svg>
