<svg xmlns="http://www.w3.org/2000/svg" xmlns:xlink="http://www.w3.org/1999/xlink" width="120.999" height="150.912" viewBox="0 0 120.999 150.912">
  <defs>
    <clipPath id="clip-path">
      <rect id="Rectangle_10788" data-name="Rectangle 10788" width="132.159" height="89.855" fill="#fff" stroke="#191919" stroke-width="2"/>
    </clipPath>
  </defs>
  <g id="Arrow" transform="matrix(-0.259, -0.966, 0.966, -0.259, 34.205, 150.912)">
    <g id="Group_42641" data-name="Group 42641" clip-path="url(#clip-path)">
      <path id="Path_247299" data-name="Path 247299" d="M108.752,31.228l-3.158-3.03-3.275-2.929-3.395-2.815-3.491-2.685L91.86,17.206l-3.653-2.421L84.5,12.523l-3.757-2.115-3.8-1.946L73.121,6.7,69.292,5.11,65.457,3.719,61.675,2.55l-1.933-.524-1.9-.46-1.883-.4L54.089.817,52.223.53,50.375.305,48.541.138l-1.823-.1L44.919,0,43.137.027l-1.766.1L39.634.293,37.919.53,36.225.843l-1.658.389-1.63.462-1.6.545-1.559.626-1.523.7-1.488.794-1.435.877L23.938,6.2,22.592,7.249,21.309,8.384,20.078,9.6,18.9,10.91,17.8,12.3l-1.045,1.474-.982,1.568L14.862,17l-.843,1.729-.774,1.823-.7,1.9-.629,1.984-.555,2.079-.476,2.163-.4,2.245-.327,2.341-.246,2.429L9.741,38.2l-.089,2.612-.006,2.7L9.7,45.464l.137,1.909.206,1.864.267,1.83.33,1.8.384,1.761.431,1.732.478,1.707.518,1.677.551,1.655.582,1.636.614,1.632,1.262,3.171,1.319,3.153,1.331,3.139,1.311,3.146,1.07,2.706-.129-.126-.865-.881-.384-.4-.357-.375-.318-.338-.279-.3-.232-.25-.216-.233-2.2-2.284-2.195-2.126-2.146-2.016L10.12,69.66l-1.043-.994L8.041,67.657,7.013,66.625,5.991,65.558,4.945,64.415a2.845,2.845,0,1,0-4.2,3.839l1.089,1.192L2.939,70.6l1.1,1.1,1.087,1.061L6.2,73.794,7.267,74.8l2.108,1.991,2.084,2.032,2.118,2.215.146.159.24.261.291.315.335.358.377.4.421.442.91.935,1.017,1.011,1.117,1.057,2.234,1.915,2.443,1.547,2.491.418,2.165-.887.705-.746.5-.733.413-.752.371-.8.34-.848.322-.892.309-.944.295-.979.284-1.009.273-1.033.264-1.059.479-2.07.427-2.018.359-1.84.157-.854.137-.772.116-.687.1-.6.076-.5.054-.392.137-1.061.134-1,.132-.952.132-.916.13-.881.129-.845.263-1.65.267-1.589.277-1.58.595-3.3.669-3.742.387-2.275.384-2.259a3.005,3.005,0,0,0-5.927-1l-.38,2.26-.377,2.244L30.034,54.6l-.589,3.31-.281,1.619-.272,1.635-.266,1.69-.133.886-.131.912-.132.946-.13.982-.132,1.028-.131,1.064-.04.307-.064.436-.086.553-.106.644-.125.731-.143.8-.334,1.777-.391,1.921-.445,1.987L24.99,75.013,23.65,71.8l-1.335-3.144-1.3-3.091L19.79,62.481l-.569-1.512-.545-1.527-.512-1.533-.477-1.539-.434-1.545-.39-1.563-.346-1.576-.292-1.592-.238-1.62L15.8,46.829l-.12-1.67-.053-1.709,0-2.528.082-2.415.157-2.314.223-2.221.293-2.112.361-2.016.421-1.925.482-1.82.545-1.729.6-1.642.651-1.542.707-1.456.754-1.376.8-1.282.852-1.2.893-1.131.933-1.046.984-.975,1.023-.908,1.06-.831,1.11-.767,1.148-.7,1.184-.634L32.126,8.3,33.4,7.786,34.7,7.338l1.353-.386,1.389-.33,1.421-.266,1.464-.205,1.5-.15,1.525-.088,1.562-.027,1.59.027L48.116,6l1.645.146,1.667.2,1.686.256,1.711.312,1.728.363,1.742.418,1.726.462,3.585,1.1,3.581,1.289,3.607,1.486,3.611,1.656L78,15.515l3.575,2,3.538,2.145,3.48,2.293,3.413,2.435,3.336,2.554,3.234,2.674L101.7,32.4l3.007,2.879,2.862,2.966,2.728,3.072,1.28,1.529,1.252,1.564L114.037,46,115.2,47.59l1.113,1.6,1.064,1.617,1.017,1.626.959,1.632.906,1.642.853,1.647.792,1.648.734,1.654.677,1.655.612,1.652.549,1.654.488,1.652.42,1.643.352,1.644.289,1.638.216,1.626.145,1.623.078,1.615,0,1.6-.077,1.658a2.846,2.846,0,0,0,5.685.261l.082-1.794,0-1.867-.09-1.862-.165-1.862-.249-1.867-.326-1.858-.4-1.855-.473-1.854-.545-1.844L129.3,62.08l-.679-1.833-.744-1.821-.8-1.81-.867-1.8-.925-1.788-.979-1.776-1.037-1.765-1.09-1.748L121.043,46l-1.191-1.72-1.238-1.7L117.331,40.9,116,39.234l-1.39-1.664-2.84-3.205Z" transform="translate(0)" fill="#fff" stroke="#191919" stroke-width="2"/>
    </g>
  </g>
</svg>
