<svg id="Group_42624" data-name="Group 42624" xmlns="http://www.w3.org/2000/svg" xmlns:xlink="http://www.w3.org/1999/xlink" width="111.66" height="141.463" viewBox="0 0 111.66 141.463">
  <defs>
    <clipPath id="clip-path">
      <rect id="Rectangle_10757" data-name="Rectangle 10757" width="111.66" height="141.463" fill="none"/>
    </clipPath>
  </defs>
  <g id="Group_42623" data-name="Group 42623" clip-path="url(#clip-path)">
    <path id="Path_246819" data-name="Path 246819" d="M44.086,1.058,39.142,0c-4.737,17.6-1.259,34.871,3.5,52C26.219,53.18,10.448,61.019,3.285,76.4-12.9,111.145,35.318,131.286,48.022,98.133c3.319-8.664,3.361-19.733,2.614-28.876-.15-1.833-1.981-11.551-1.49-12.254,10.313,1.131,20.072,4.035,28.455,10.29,15.477,11.548,20.3,30.9,18.536,49.455-.326,3.431-1.268,6.811-1.5,10.252-2.141-.839-3.409-2.85-5.539-4.207-.9-.572-5.248-2.975-5.956-2.292l-.53,4.666c7.282,2.728,9.642,7.756,9.243,15.369l4.74.927c1.645-7.193,6.768-10.545,14.073-10.182.54-.378.983-3.223.989-4.027.006-1.057.031-.639-.753-.755a19.48,19.48,0,0,0-11.26,2c2.582-13.976,3.2-28.036-1.632-41.623C90.549,65.9,69.748,52.29,47.661,51.981c-2.811-13.032-6.448-25.158-5.515-38.724.283-4.115,1.679-8.091,1.94-12.2" fill="#fff"/>
    <path id="Path_246820" data-name="Path 246820" d="M44.086,1.058c-.262,4.108-1.657,8.084-1.94,12.2-.934,13.565,2.7,25.691,5.515,38.723,22.086.309,42.888,13.921,50.352,34.9,4.835,13.587,4.215,27.646,1.633,41.622a19.485,19.485,0,0,1,11.26-2c.784.116.759-.3.752.756,0,.8-.449,3.648-.988,4.027-7.3-.364-12.427,2.988-14.074,10.181l-4.739-.927c.4-7.612-1.961-12.641-9.242-15.369l.529-4.665c.708-.683,5.058,1.719,5.957,2.291,2.129,1.357,3.4,3.368,5.537,4.207.231-3.441,1.173-6.821,1.5-10.252C97.9,98.2,93.078,78.842,77.6,67.293,69.218,61.038,59.459,58.134,49.146,57c-.492.7,1.34,10.421,1.489,12.255.747,9.143.706,20.211-2.614,28.875C35.319,131.286-12.9,111.146,3.285,76.4,10.449,61.019,26.219,53.181,42.641,52c-4.758-17.127-8.236-34.4-3.5-52ZM43.639,57C30.3,57.788,16.407,63.748,9.556,75.667-8.333,106.784,34.816,124.706,43.889,94c3.466-11.731,1.5-25.116-.25-37"/>
    <path id="Path_246821" data-name="Path 246821" d="M43.639,57c1.748,11.885,3.716,25.27.25,37C34.816,124.706-8.333,106.784,9.556,75.667,16.407,63.748,30.3,57.788,43.639,57" fill="#fff"/>
  </g>
</svg>
