<svg xmlns="http://www.w3.org/2000/svg" width="235.194" height="179.06" viewBox="0 0 235.194 179.06">
  <path id="Arrow-illustration" d="M41.068,104.445c-.909-3.423-1.971-6.466-2.507-9.6C34.908,73.458,41.624,55.336,56.4,39.967A52.285,52.285,0,0,1,85.209,24.215c10.723-1.941,20.942-.356,30.339,5.361a35.39,35.39,0,0,1,12.861,47.289C124.349,84.419,118.49,90.4,111.7,95.489a83.746,83.746,0,0,1-54.759,17.2c-1.22-.044-2.444-.006-4.2-.006a24.4,24.4,0,0,0,1.676,2.574,49.938,49.938,0,0,0,29.834,16.714c32.52,5.741,60.282-3.5,82.221-28.219,12.044-13.57,18.47-29.815,17.5-48.291a113.98,113.98,0,0,0-8.95-38.815c-.482-1.135-1.088-2.219-1.678-3.3a15.878,15.878,0,0,0-1.135-1.525,13.326,13.326,0,0,0-1.068,2.355c-1,4.586-1.905,9.19-2.9,13.775a13.558,13.558,0,0,1-1.219,3.862c-.4.694-1.691,1.5-2.277,1.315-.848-.272-1.5-1.348-2.069-2.194-.212-.316,0-.96.1-1.436,1.787-8.457,3.552-16.918,5.4-25.362.928-4.245,2.683-5.05,6.611-3.193a21.55,21.55,0,0,1,2.609,1.407c7.956,5.221,15.945,10.394,23.813,15.743a52.509,52.509,0,0,1,6.749,5.773,8.127,8.127,0,0,1,2.064,3.427,2.878,2.878,0,0,1-.884,2.518c-.606.443-1.785.168-2.7.087-.307-.028-.62-.4-.865-.668-6.048-6.718-13.853-11.1-21.264-16-1.921-1.271-3.876-2.492-6.58-4.225a19.89,19.89,0,0,0,.666,2.132c6.1,12.092,9.1,25.083,10.541,38.4,3.085,28.551-8.36,51.182-29.831,69.013-17.5,14.53-38.086,21.132-60.813,20.614a72.046,72.046,0,0,1-30.816-7.129,52.21,52.21,0,0,1-20.579-17.682,9.652,9.652,0,0,0-5.776-4.039,85.664,85.664,0,0,1-14.5-5.5C6.642,94.427-3.1,75.4.877,53.311,4.64,32.444,16.36,17.23,36,8.663c3.679-1.606,7.8-2.246,11.768-3.12a11.957,11.957,0,0,1,4.4.1,1.936,1.936,0,0,1,1.763,2.4c-.222.8-1.1,1.454-1.773,2.081-.22.206-.709.152-1.078.168-11.526.518-20.8,5.973-28.78,13.722C11.647,34.35,5.792,46.955,5.553,61.979c-.207,12.966,4.863,23.512,14.519,31.968a47.947,47.947,0,0,0,21,10.5m19.665,2.942a78.343,78.343,0,0,0,41.177-11.8c7.746-4.766,14.647-10.5,19.831-18.121,12.317-18.109,2.923-39.546-14.752-46.072a38.09,38.09,0,0,0-27.895.155C61.388,38.494,50.5,51.765,45.043,69.643a48.762,48.762,0,0,0,1.764,33.733,4.835,4.835,0,0,0,4.677,3.423c3.086.146,6.166.387,9.249.588" transform="translate(234.002 137.809) rotate(169)" fill="#fff" stroke="#1d1d1b" stroke-width="2"/>
</svg>
