<svg xmlns="http://www.w3.org/2000/svg" xmlns:xlink="http://www.w3.org/1999/xlink" width="191.592" height="77.859" viewBox="0 0 191.592 77.859">
  <defs>
    <clipPath id="clip-path">
      <rect id="Rectangle_10754" data-name="Rectangle 10754" width="191.592" height="77.859" transform="translate(0 0)" fill="none" stroke="#eef1ed" stroke-width="2"/>
    </clipPath>
  </defs>
  <g id="Group_42655" data-name="Group 42655" transform="translate(-1606 -2739.449)">
    <text id="ASP.NET" transform="translate(1700.7 2787.312) rotate(7)" font-size="27" font-family="Chalkboard"><tspan x="-50" y="0">ASP.NET</tspan></text>
    <g id="Group_42618" data-name="Group 42618" transform="translate(1606 2739.45)">
      <g id="Group_42617" data-name="Group 42617" clip-path="url(#clip-path)">
        <path id="Path_246668" data-name="Path 246668" d="M84.979,73.223c20.765-.473,43.908-2.292,66.645-7.7,7.059-1.679,14.041-3.679,20.542-6.966a48.782,48.782,0,0,0,8.364-5.248,19.82,19.82,0,0,0,4.689-5.568c2.862-4.982,2.059-10.131-2.312-13.85a41.8,41.8,0,0,0-8.559-5.516,133.671,133.671,0,0,0-27.718-9.649,137.833,137.833,0,0,0-24.059-3.2,8.307,8.307,0,0,1-2.822-.377c-.663-.3-1.546-1.235-1.472-1.77a3.27,3.27,0,0,1,1.589-2.042,5.718,5.718,0,0,1,2.512-.21c13.165-.129,25.874,2.495,38.239,6.75a171.584,171.584,0,0,1,17.708,7.3A33.67,33.67,0,0,1,186.667,31c5.2,4.853,6.25,11.421,3.3,17.882a23.084,23.084,0,0,1-6.74,8.413c-5.057,4.071-10.88,6.673-16.936,8.817-11.71,4.146-23.834,6.508-36.09,8.248a352.715,352.715,0,0,1-43.98,3.456c-17.644.28-35.181-.619-52.429-4.693a69.336,69.336,0,0,1-19.6-7.6A34.121,34.121,0,0,1,3.8,56.647C-.7,50.568-1.154,44.109,2.174,37.379A33.211,33.211,0,0,1,9.9,27.67c8.171-7.444,17.8-12.437,27.991-16.4,13.3-5.17,27.158-8.035,41.279-9.739a235.466,235.466,0,0,1,54.281.081c15.608,1.727,31,4.592,45.764,10.164,1.89.713,3.715,1.6,5.549,2.458,1.284.6,2.114,1.527,1.564,3.048-.41,1.134-1.651,1.473-3.3.728-9.3-4.214-19.2-6.337-29.106-8.419a245.4,245.4,0,0,0-35.18-4.466A208.406,208.406,0,0,0,56.514,10.39,119.153,119.153,0,0,0,25,22.553,58.279,58.279,0,0,0,11.045,33.165a32.066,32.066,0,0,0-4.084,5.3C3.406,44.4,3.917,50.232,8.73,55.156a43.3,43.3,0,0,0,8.263,6.471c6.615,4.067,14.006,6.2,21.557,7.746,14.483,2.972,29.153,3.884,46.429,3.85" stroke="#eef1ed" stroke-width="2"/>
      </g>
    </g>
  </g>
</svg>
