<svg xmlns="http://www.w3.org/2000/svg" width="457.309" height="377.034" viewBox="0 0 457.309 377.034">
  <g id="Group_42646" data-name="Group 42646" transform="translate(0.002 0.185)">
    <g id="Group_42647" data-name="Group 42647">
      <path id="Path_247300" data-name="Path 247300" d="M46.184,375.765c-10.063-15.952-16.991-36.027-19.419-56.013-1.55-12.752.37-29.081,10.291-33.159,5.308-2.181,11.46.05,16.51-2.922,2.85-1.677,4.969-4.84,6.457-8.274,4.988-11.509,3.479-25.651.289-38.094s-7.94-24.428-9.187-37.387,2.023-27.788,11.23-34.224c7.832-5.475,17.611-3.523,26.359-6.144,14.741-4.418,24.886-21.307,30.633-38.619s8.425-36.1,15.2-52.839c9.9-24.465,28.65-43.225,50.1-50.13S229.9,16.121,248.231,31.5c9.209,7.724,16.952,17.763,24.728,27.594q15.261,19.295,31.073,37.913c10.395,12.24,22.233,24.948,36.588,25.83,16.794,1.03,34.636-14.346,49.276-4.149,11.267,7.848,13.507,26.605,12.711,42.531-.451,9.012-5.455,21.861-8.557,33.834a18.168,18.168,0,0,0,16.51,22.665c17.328,1.064,36.345,8.5,42.04,24.8,7.747,22.181,5.219,48.185-2.42,70.423s-21.338,43.89-33.5,62.823" fill="#f7f0ea"/>
      <path id="Path_247301" data-name="Path 247301" d="M415.1,177.2c4.473,1.228,6.29,8.815,4.058,16.948s-7.667,13.73-12.14,12.5-6.29-8.815-4.058-16.947,7.667-13.73,12.14-12.5" fill="#e2cba6"/>
      <path id="Path_247302" data-name="Path 247302" d="M38.016,242.2c-4.473,1.228-6.29,8.815-4.058,16.948s7.667,13.73,12.14,12.5,6.29-8.815,4.058-16.947-7.667-13.73-12.14-12.5" fill="#e2cba6"/>
      <path id="Path_247303" data-name="Path 247303" d="M260.2,59.906c3.245-.158,6.43-.672,9.656-1.058,4.183-.5,8.419-1.041,12.252-2.792,5-2.285,9.262-5.945,14.179-8.411S307.388,44.06,312.039,47c1.478.933,2.7,2.216,4.1,3.268a7.113,7.113,0,0,0,4.826,1.715,69.393,69.393,0,0,1,2.243,9.576,26.423,26.423,0,0,1,.02,7.98,24.109,24.109,0,0,1-2.083,6.645c-2.879,5.108-6.472,9.673-11.706,12.317a25.018,25.018,0,0,1-11.669,2.871c-5.133.116-11,.337-16.125,0-2.876-.189-5.683.083-8.562-.063-3.254-.164-8.063,0-11.712-.022,0,0-1.637-30.276-1.173-31.378" fill="#ede6d9"/>
      <path id="Path_247304" data-name="Path 247304" d="M100.694,81.534c5.534-9.725,12.161-18.53,19.076-27.328l9.11,7.159c.092-.036-8.711,11.354-8.711,11.354-2.475-.619-3.131-.949-5.4.224s-5.329,4.867-7.166,6.637a7.861,7.861,0,0,1-6.913,1.954" fill="#ff7652"/>
      <path id="Path_247305" data-name="Path 247305" d="M128.88,61.365l-12.191-9.424c-1.364.959-18.548,23.853-19.5,28.154,3.539,1.947,7.173,2.371,10.055-.291,1.424-1.316,4.97-4.946,6.466-6.18a7.047,7.047,0,0,1,6.247-1.058" fill="none" stroke="#3f0d13" stroke-linecap="round" stroke-linejoin="round" stroke-width="0.75"/>
      <path id="Path_247306" data-name="Path 247306" d="M115.008,72.316q-.248-1.2-.5-2.41" fill="none" stroke="#3f0d13" stroke-linecap="round" stroke-linejoin="round" stroke-width="0.75"/>
      <path id="Path_247307" data-name="Path 247307" d="M112.386,74.257a13.648,13.648,0,0,1-1.537-2.428" fill="none" stroke="#3f0d13" stroke-linecap="round" stroke-linejoin="round" stroke-width="0.75"/>
      <path id="Path_247308" data-name="Path 247308" d="M109.169,77.542l-1.959-2.054" fill="none" stroke="#3f0d13" stroke-linecap="round" stroke-linejoin="round" stroke-width="0.75"/>
      <path id="Path_247309" data-name="Path 247309" d="M129.845,85.1c2.314,1.6,10.476,6.29,10.476,6.29s27.084-.261,33.5-.125c6.208.131,15.125.125,15.125.125.982-5.078-2.255-10.759-6.241-14.054s-9.065-3.8-14.009-5.321c-13.834-4.25-24.5-7-39.282-15.272,0,0-12.1,20.25-12.356,20.239s8.322,5.023,12.787,8.118" fill="#004e66"/>
      <path id="Path_247310" data-name="Path 247310" d="M129.414,56.746A162.26,162.26,0,0,0,159.8,69.463q.794.242,1.589.474" fill="none" stroke="#3f0d13" stroke-linecap="round" stroke-linejoin="round" stroke-width="0.75"/>
      <path id="Path_247311" data-name="Path 247311" d="M122.456,79.826c1.827-3.146,11.593-18.922,12.306-20.282" fill="none" stroke="#3f0d13" stroke-linecap="round" stroke-linejoin="round" stroke-width="0.75"/>
      <path id="Path_247312" data-name="Path 247312" d="M116.984,77c4.38-6.845,8.051-13.405,12.43-20.25" fill="none" stroke="#3f0d13" stroke-linecap="round" stroke-linejoin="round" stroke-width="0.75"/>
      <path id="Path_247313" data-name="Path 247313" d="M308.911,42.728a55.7,55.7,0,0,1,2.97-4.77c.283-.457,3.064-4.193,2.941-6.086a8.236,8.236,0,0,1-.16-1.913c.183-.938,1.994-2.058,2.923-2.284a7.878,7.878,0,0,1,3.4.425c-.178.506.115,1.112.159,1.647s-.746,1.39-.223,1.507a1.655,1.655,0,0,0,1.36-.5c1.222-1.045,1.943-2.59,3.2-3.6,1.487-1.2,3.491-1.472,5.387-1.7.881-.107,1.831.116,2.028.982a5.664,5.664,0,0,1-.364,2.608,9.624,9.624,0,0,0,1.526,7.926,2.37,2.37,0,0,0-2.932.807,10.715,10.715,0,0,0-1.356,3.024,4.063,4.063,0,0,1-2.033,2.512,7.119,7.119,0,0,1-3.7.043,8.2,8.2,0,0,1-2.916-1.375,44.51,44.51,0,0,0-2.2,6.314s-2.64-.413-3.029-.584a17.419,17.419,0,0,1-6.973-4.978" fill="#e2cba6"/>
      <line id="Line_783" data-name="Line 783" x1="5.029" y2="7.227" transform="translate(308.85 35.38)" fill="none" stroke="#3f0d13" stroke-linecap="round" stroke-linejoin="round" stroke-width="0.75"/>
      <path id="Path_247314" data-name="Path 247314" d="M321.029,42.226a29.15,29.15,0,0,0-2.224,6.023" fill="none" stroke="#3f0d13" stroke-linecap="round" stroke-linejoin="round" stroke-width="0.75"/>
      <path id="Path_247315" data-name="Path 247315" d="M315.842,33.362a3.368,3.368,0,0,1,.122-4.528,4.02,4.02,0,0,1,4.638-.6" fill="none" stroke="#3f0d13" stroke-linecap="round" stroke-linejoin="round" stroke-width="0.638"/>
      <path id="Path_247316" data-name="Path 247316" d="M332.042,32.631q.186-.957.373-1.915c.386-1.976.715-4.221-.489-5.835" fill="none" stroke="#3f0d13" stroke-linecap="round" stroke-linejoin="round" stroke-width="0.75"/>
      <path id="Path_247317" data-name="Path 247317" d="M319.029,39.891c1.519,2.083,4.114,3.87,6.807,3.54,3.224-.4,4.482-3.76,5.266-6.485" fill="none" stroke="#3f0d13" stroke-linecap="round" stroke-linejoin="round" stroke-width="0.75"/>
      <path id="Path_247318" data-name="Path 247318" d="M327.655,37.8a4.028,4.028,0,0,0,2.591,1.339" fill="none" stroke="#3f0d13" stroke-linecap="round" stroke-linejoin="round" stroke-width="0.75"/>
      <path id="Path_247319" data-name="Path 247319" d="M331.239,36.985l2.719-.292s-1.3-2.752-1.884-4.056" fill="none" stroke="#3f0d13" stroke-linecap="round" stroke-linejoin="round" stroke-width="0.75"/>
      <path id="Path_247320" data-name="Path 247320" d="M329.592,32.937a.554.554,0,1,1-.444-.644.552.552,0,0,1,.444.644" fill="#3f0d13"/>
      <path id="Path_247321" data-name="Path 247321" d="M316.078,33.513c-.842.964-2.84,3.044-2.84,3.044-2.118-3.057-2.053-9.062-.191-12.281a10.132,10.132,0,0,1,7.57-5.523c4.729-.835,10.447,2.425,11.932,6.993a11.306,11.306,0,0,1-6.825,2.342c-1.509-.081-3.144-.476-4.447.29a12.639,12.639,0,0,0-3.245-.607,3.008,3.008,0,0,0-2.437,1.117,4.364,4.364,0,0,0-.571,2.423,2.4,2.4,0,0,0,1.054,2.2" fill="#3f0d13"/>
      <path id="Path_247322" data-name="Path 247322" d="M328.067,30.947a2.556,2.556,0,0,1,2.268.24" fill="none" stroke="#3f0d13" stroke-linecap="round" stroke-linejoin="round" stroke-width="0.638"/>
      <path id="Path_247323" data-name="Path 247323" d="M320.794,27.792l-.822,3.448,1.411.386c2.066-1.508,4.343-4.674,6.117-6.444" fill="#3f0d13"/>
      <path id="Path_247324" data-name="Path 247324" d="M320.057,23.479l-8.571-2.384a6.756,6.756,0,0,1-4.7-8.318l.574-2.063a6.756,6.756,0,0,1,8.318-4.7l2.063.574a6.754,6.754,0,0,1,4.7,8.318Z" fill="#3f0d13"/>
      <path id="Path_247325" data-name="Path 247325" d="M326.829,34.157a1.807,1.807,0,1,1-1.806-1.807,1.806,1.806,0,0,1,1.806,1.807" fill="#ff7652"/>
      <path id="Path_247326" data-name="Path 247326" d="M320.529,77.1c1.583-2.083,2.107-4.68,2.655-6.611.428-.136,3.977-2.1,5.22-2.556.837,1.667,3.167,6.677,3.651,7.894-1.578.471-10.306,1.192-11.526,1.273" fill="#e2cba6"/>
      <path id="Path_247327" data-name="Path 247327" d="M322.029,54.518s5.9,12.419,9.951,21.272" fill="none" stroke="#3f0d13" stroke-linecap="round" stroke-linejoin="round" stroke-width="0.75"/>
      <path id="Path_247328" data-name="Path 247328" d="M323.184,70.49a40.146,40.146,0,0,0,6.784-3.689c-3.036-4.756-5.065-9.208-8.48-13.7a57.416,57.416,0,0,1,1.7,17.389" fill="#ff7652"/>
      <path id="Path_247329" data-name="Path 247329" d="M323.184,70.49a40.146,40.146,0,0,0,6.784-3.689c-3.036-4.756-5.065-9.208-8.48-13.7A57.416,57.416,0,0,1,323.184,70.49Z" fill="none" stroke="#3f0d13" stroke-linecap="round" stroke-linejoin="round" stroke-width="0.75"/>
      <path id="Path_247330" data-name="Path 247330" d="M132.612,23.976c10.448-4.006,21.157-6.608,32.083-9.021l2.5,11.313c.094.031-13.937,3.25-13.937,3.25-1.52-2.049-1.818-2.72-4.313-3.25s-7.207.381-9.75.583a7.86,7.86,0,0,1-6.583-2.875" fill="#ff7652"/>
      <path id="Path_247331" data-name="Path 247331" d="M167.2,26.268l-3.444-15.019c-1.664-.124-29.471,6.67-32.931,9.394,1.5,3.75,4.04,6.384,7.956,6.154,1.936-.113,6.98-.67,8.919-.675a7.049,7.049,0,0,1,5.5,3.146" fill="none" stroke="#3f0d13" stroke-linecap="round" stroke-linejoin="round" stroke-width="0.75"/>
      <path id="Path_247332" data-name="Path 247332" d="M149.525,25.933l1.146-2.178" fill="none" stroke="#3f0d13" stroke-linecap="round" stroke-linejoin="round" stroke-width="0.75"/>
      <path id="Path_247333" data-name="Path 247333" d="M146.267,25.769a13.685,13.685,0,0,1,.352-2.852" fill="none" stroke="#3f0d13" stroke-linecap="round" stroke-linejoin="round" stroke-width="0.75"/>
      <path id="Path_247334" data-name="Path 247334" d="M141.7,26.268q-.1-1.414-.211-2.83" fill="none" stroke="#3f0d13" stroke-linecap="round" stroke-linejoin="round" stroke-width="0.75"/>
      <path id="Path_247335" data-name="Path 247335" d="M255.351,91.435h-3.889q-35.979,0-71.958,0a14.569,14.569,0,0,1-4.559-.354c-3.8-1.219-6.1-4.437-8.562-9-3.547-6.58-6.1-13.984-8.438-21.063-3.344-10.117-6.168-20.2-8.583-30.583l22-5.167c4.065,15.477,14,39.75,16.333,44.75,0,0,9-.875,20-2.75,11.651-1.985,26.092-13.117,46.563-7.468" fill="#004e66"/>
      <path id="Path_247336" data-name="Path 247336" d="M162.82,34.268c3.3,10.345,7.071,22.915,11.8,32.69,1.545,3.193,3.271,6.477,6.166,8.526,3.162,2.238,7.284,2.159,11.97,1.945a156.6,156.6,0,0,0,33.564-4.911c8.988-2.4,18.5-4.8,27.7-3.4" fill="none" stroke="#ede6d9" stroke-linecap="round" stroke-width="0.75"/>
      <path id="Path_247337" data-name="Path 247337" d="M160.7,34.768c3.3,10.345,6.571,25.04,11.3,34.815,1.545,3.193,3.271,6.477,6.166,8.526,3.162,2.238,7.284,2.159,11.97,1.945A156.6,156.6,0,0,0,223.7,75.143c8.988-2.4,21.75-3.375,30.75-3.125" fill="none" stroke="#ede6d9" stroke-linecap="round" stroke-width="0.75"/>
      <path id="Path_247338" data-name="Path 247338" d="M174.445,91.205c-11.333-3-25.083-60.771-25.083-60.771l22-5.167c4.064,15.477,14,39.751,16.333,44.751,0,0,9.5-.875,20.5-2.75,11.65-1.986,25.362-13.149,45.833-7.5" fill="none" stroke="#3f0d13" stroke-linecap="round" stroke-linejoin="round" stroke-width="0.75"/>
      <path id="Path_247339" data-name="Path 247339" d="M150.945,36.768s14.332-3.313,21.625-5.375" fill="none" stroke="#3f0d13" stroke-linecap="round" stroke-linejoin="round" stroke-width="0.75"/>
      <path id="Path_247340" data-name="Path 247340" d="M255.351,91.435s-1.042-15.31-1.238-22.895c-.043-1.692-.052-3.384-.06-5.075q-.006-1.239-.013-2.477a1.842,1.842,0,0,1,.527-1.49q1.236-.043,2.471-.039c.469,0,.938.01,1.407.017l1.375.021a30.719,30.719,0,0,0,.078,4.824c.655,9.018.417,17.984,1.471,26.964" fill="#ff7652"/>
      <path id="Path_247341" data-name="Path 247341" d="M304.022,43.327l2.861-.855a2.685,2.685,0,0,1,.991-.165c.777.068,2.048,1.679,2.655,2.169a16.558,16.558,0,0,0,9.773,3.8c.218,1.05.7,3.3,1.019,4.325-.208.25-4.282.742-7.458-1.416a11.916,11.916,0,0,1-1.951-2.378,15.6,15.6,0,0,0-3.008-2.872c-1.559-1.147-3.4-1.368-4.882-2.608" fill="#ff7652"/>
      <path id="Path_247342" data-name="Path 247342" d="M320.7,76.918a18.719,18.719,0,0,0,.992-1.775c3.4-6.96,1.2-17.951-1.583-26.666" fill="none" stroke="#3f0d13" stroke-linecap="round" stroke-linejoin="round" stroke-width="0.75"/>
      <path id="Path_247343" data-name="Path 247343" d="M308.414,42.393c-11.365,1.12-21.612,13.642-32.969,15.625a98.2,98.2,0,0,1-14.917,1.7,34.626,34.626,0,0,1-5.13-.262,1.242,1.242,0,0,0-1.417,1.234c.007,4.8.7,20.912,1.536,30.5" fill="none" stroke="#3f0d13" stroke-linecap="round" stroke-linejoin="round" stroke-width="0.75"/>
      <path id="Path_247344" data-name="Path 247344" d="M308.414,42.393a18.148,18.148,0,0,0,11.5,6.1" fill="none" stroke="#3f0d13" stroke-linecap="round" stroke-linejoin="round" stroke-width="0.75"/>
      <path id="Path_247345" data-name="Path 247345" d="M313.279,50.83a9.009,9.009,0,0,0,8,1.9" fill="none" stroke="#3f0d13" stroke-linecap="round" stroke-linejoin="round" stroke-width="0.75"/>
      <path id="Path_247346" data-name="Path 247346" d="M260.064,59.939c-.225,10.462.954,21.912,1.3,31.346" fill="none" stroke="#3f0d13" stroke-linecap="round" stroke-linejoin="round" stroke-width="0.75"/>
      <path id="Path_247347" data-name="Path 247347" d="M345.358,74.286l8.754-17.2s17.267,9.37,20.6,11.53c-3.609,7.468-7.694,15.055-11.775,22.275-1.367-.622-10.765-6-10.765-6,2.037-.666,4.725-1.386,5.541-3.368a6.28,6.28,0,0,0,.36-1.44,5.623,5.623,0,0,0-.589-3.348,4.686,4.686,0,0,0-2.968-2.594,11.143,11.143,0,0,0-3.969-.594,27.271,27.271,0,0,0-5.191.737" fill="#229062"/>
      <path id="Path_247348" data-name="Path 247348" d="M345.358,74.286l1.47-2.889,7.284-14.313,20.76,11.4L363.2,91.018l-10.784-6.05" fill="none" stroke="#3f0d13" stroke-linecap="round" stroke-linejoin="round" stroke-width="0.75"/>
      <path id="Path_247349" data-name="Path 247349" d="M365.757,50.8c2.858,5.971,6.022,11.839,9.147,17.547" fill="none" stroke="#3f0d13" stroke-linecap="round" stroke-linejoin="round" stroke-width="0.75"/>
      <path id="Path_247350" data-name="Path 247350" d="M374.7,68.259a43.456,43.456,0,0,1-10.488-16.387L360.091,58" fill="none" stroke="#3f0d13" stroke-linecap="round" stroke-linejoin="round" stroke-width="0.75"/>
      <path id="Path_247351" data-name="Path 247351" d="M354.654,57.31l2.292-1.208c4.378,2.2,17.708,12.041,17.708,12.041" fill="none" stroke="#3f0d13" stroke-linecap="round" stroke-linejoin="round" stroke-width="0.75"/>
      <path id="Path_247352" data-name="Path 247352" d="M364.328,51.788q.735-.255,1.447-.572" fill="none" stroke="#3f0d13" stroke-linecap="round" stroke-linejoin="round" stroke-width="0.75"/>
      <path id="Path_247353" data-name="Path 247353" d="M117.12,77l13.046,8.065c3.4,2.1,9.6,6.2,9.6,6.2" fill="none" stroke="#3f0d13" stroke-linecap="round" stroke-linejoin="round" stroke-width="0.75"/>
      <path id="Path_247354" data-name="Path 247354" d="M345.508,74.58c4.312-.937,8.127-1.4,10.535.895a6.305,6.305,0,0,1,1.569,4.126c.282,3.084-2.238,4.035-4.628,4.909a34.571,34.571,0,0,1-4.816,1.471,137.322,137.322,0,0,1-13.71,2.558q-11.379,1.653-22.871,2.431c-2.487.164-4.977.29-7.469.344a8.757,8.757,0,0,1-8.919-8.171c-.225-3.4-.307-6.95-.281-10.417,0-.1,0,.1,0,0l.024-.168c4.536-.393,12.04-1.028,16.913-1.5l.049.06c.3,3.136.416,5.771.416,5.771,7.553,1.06,16.751-.376,26.251-1.751,2.628-.38,5.756-2.975,7.874-3.625Z" fill="#e2cba6"/>
      <path id="Path_247355" data-name="Path 247355" d="M345.358,74.286c4.312-.937,8.652-1.226,11.06,1.065a6.3,6.3,0,0,1,1.569,4.125c.282,3.084-2.238,4.036-4.628,4.909a34.482,34.482,0,0,1-4.816,1.472,137.319,137.319,0,0,1-13.71,2.557q-11.379,1.654-22.872,2.431c-2.486.164-4.976.291-7.468.344a8.756,8.756,0,0,1-8.919-8.17,157.942,157.942,0,0,1,.121-20.751c4.257-.265,10.5-.25,15.5-.5.084-.333,1.5,15,1.5,15,7.553,1.06,16.75-.375,26.25-1.75,2.629-.38,5.757-2.975,7.875-3.625" fill="none" stroke="#3f0d13" stroke-linecap="round" stroke-linejoin="round" stroke-width="0.75"/>
      <path id="Path_247356" data-name="Path 247356" d="M316.2,70.518s-.659-12.754-.915-14.112c-1.592-8.435-10.153-16.984-18.665-10.576-4.335,3.264-5.117,9.61-5.291,14.649-.037,1.063.442,12.271.618,12.255,3.182-.307,20.4-1.716,24.253-2.216" fill="#ff7652"/>
      <path id="Path_247357" data-name="Path 247357" d="M316.2,70.518s-.659-12.754-.915-14.112c-1.592-8.435-10.153-16.984-18.665-10.576-4.335,3.264-5.117,9.61-5.291,14.649-.037,1.063.442,12.271.618,12.255C295.124,72.427,312.345,71.018,316.2,70.518Z" fill="none" stroke="#3f0d13" stroke-linecap="round" stroke-linejoin="round" stroke-width="0.75"/>
      <path id="Path_247358" data-name="Path 247358" d="M292.188,67.182c7.962-.659,15.545-1.255,23.507-1.914" fill="none" stroke="#3f0d13" stroke-linecap="round" stroke-linejoin="round" stroke-width="0.75"/>
      <line id="Line_784" data-name="Line 784" y1="0.832" x2="7" transform="translate(349.945 76.435)" fill="none" stroke="#3f0d13" stroke-linecap="round" stroke-linejoin="round" stroke-width="0.75"/>
      <path id="Path_247359" data-name="Path 247359" d="M351.2,80.27s6.792-.794,6.5-.754" fill="none" stroke="#3f0d13" stroke-linecap="round" stroke-linejoin="round" stroke-width="0.75"/>
      <line id="Line_785" data-name="Line 785" x2="104.625" transform="translate(338.893 375.768)" fill="none" stroke="#3f0d13" stroke-linecap="round" stroke-linejoin="round" stroke-width="0.75"/>
      <line id="Line_786" data-name="Line 786" x2="100.122" transform="translate(16.518 375.768)" fill="none" stroke="#3f0d13" stroke-linecap="round" stroke-linejoin="round" stroke-width="0.75"/>
      <rect id="Rectangle_10789" data-name="Rectangle 10789" width="112.833" height="27.046" transform="translate(256.196 95.055)" fill="#ede6d9"/>
      <path id="Path_247360" data-name="Path 247360" d="M368.7,104.018l-81.188-.812,1.381-7.728,79.807.04Z" fill="#cebba1"/>
      <path id="Path_247361" data-name="Path 247361" d="M290.133,91.264v.125c-3.1,6.69-3.61,16.116-2.414,24.7.227,1.627.515,3.224.859,4.765a50.46,50.46,0,0,0,1.555,5.539l.312.375H94.043a6.71,6.71,0,0,1-6.307-4.384,35.113,35.113,0,0,1-1.555-5.814,49.526,49.526,0,0,1-.735-9.134c.022-3.28.4-8.372,2-12.195a6.6,6.6,0,0,1,6.123-3.956Z" fill="#00a5b6"/>
      <path id="Path_247362" data-name="Path 247362" d="M287.844,115.9s.515,3.224.858,4.766a50.4,50.4,0,0,0,1.556,5.539l.312.375H94.168a6.712,6.712,0,0,1-6.308-4.384c-.676-1.846-1.554-5.814-1.554-5.814l-.277-2.528,201.666-.958Z" fill="#008fb5"/>
      <rect id="Rectangle_10790" data-name="Rectangle 10790" width="80.466" height="4.293" transform="translate(288.321 91.225)" fill="#00a5b6"/>
      <rect id="Rectangle_10791" data-name="Rectangle 10791" width="80.881" height="3.965" transform="translate(288.321 122.678)" fill="#008fb5"/>
      <path id="Path_247363" data-name="Path 247363" d="M290.383,126.393c-.4-1.158-.769-2.378-1.1-3.645-2.207-8.483-2.713-19.073-.395-27.27a27.412,27.412,0,0,1,1.494-4.085" fill="none" stroke="#3f0d13" stroke-linecap="round" stroke-linejoin="round" stroke-width="0.75"/>
      <line id="Line_787" data-name="Line 787" x2="79.312" transform="translate(289.029 95.518)" fill="none" stroke="#3f0d13" stroke-linecap="round" stroke-linejoin="round" stroke-width="0.75"/>
      <line id="Line_788" data-name="Line 788" x2="79.5" transform="translate(289.529 122.685)" fill="none" stroke="#3f0d13" stroke-linecap="round" stroke-linejoin="round" stroke-width="0.75"/>
      <line id="Line_789" data-name="Line 789" x2="80.812" transform="translate(287.529 108.685)" fill="none" stroke="#3f0d13" stroke-linecap="round" stroke-linejoin="round" stroke-width="0.75"/>
      <line id="Line_790" data-name="Line 790" x2="80.479" transform="translate(287.862 102.185)" fill="none" stroke="#3f0d13" stroke-linecap="round" stroke-linejoin="round" stroke-width="0.75"/>
      <line id="Line_791" data-name="Line 791" x2="80.396" transform="translate(287.945 115.185)" fill="none" stroke="#3f0d13" stroke-linecap="round" stroke-linejoin="round" stroke-width="0.75"/>
      <path id="Path_247364" data-name="Path 247364" d="M281.279,126.6c-1.667-4-3.807-12.4-3.5-18.5.242-4.812,1.247-13.024,4.932-16.646" fill="none" stroke="#ede6d9" stroke-width="1"/>
      <path id="Path_247365" data-name="Path 247365" d="M276.529,126.6c-1.667-4-3.807-12.4-3.5-18.5.242-4.812,1.247-13.024,4.932-16.646" fill="none" stroke="#ede6d9" stroke-width="1"/>
      <path id="Path_247366" data-name="Path 247366" d="M104.612,126.6c-1.667-4-3.807-12.4-3.5-18.5.242-4.812,1.247-13.024,4.932-16.646" fill="none" stroke="#ede6d9" stroke-width="1"/>
      <path id="Path_247367" data-name="Path 247367" d="M99.862,126.6c-1.667-4-3.807-12.4-3.5-18.5.242-4.812,1.247-13.024,4.932-16.646" fill="none" stroke="#ede6d9" stroke-width="1"/>
      <path id="Path_247368" data-name="Path 247368" d="M109.7,126.768H93.758a5.876,5.876,0,0,1-5.485-3.631,42.107,42.107,0,0,1-2.577-15.7c.022-3.41.427-8.782,2.193-12.647a5.976,5.976,0,0,1,5.435-3.5L368.7,91.268c-.708,0-.166-.014,0-.014l.5,35.264h-7.188" fill="none" stroke="#3f0d13" stroke-linecap="round" stroke-linejoin="round" stroke-width="0.75"/>
      <rect id="Rectangle_10792" data-name="Rectangle 10792" width="141" height="16.5" transform="translate(119.196 101.268)" fill="none" stroke="#ede6d9" stroke-width="1"/>
      <rect id="Rectangle_10793" data-name="Rectangle 10793" width="145" height="12.333" transform="translate(112.029 130.101)" fill="#ede6d9"/>
      <rect id="Rectangle_10794" data-name="Rectangle 10794" width="106.633" height="19.583" transform="translate(255.396 126.435)" fill="#eab744"/>
      <rect id="Rectangle_10795" data-name="Rectangle 10795" width="106.833" height="10" transform="translate(255.196 136.018)" fill="#dda431"/>
      <rect id="Rectangle_10796" data-name="Rectangle 10796" width="142.562" height="2.167" transform="translate(112.467 130.101)" fill="#cebba1"/>
      <rect id="Rectangle_10797" data-name="Rectangle 10797" width="145.5" height="3.125" transform="translate(110.029 126.643)" fill="#eab744"/>
      <rect id="Rectangle_10798" data-name="Rectangle 10798" width="145.5" height="3.125" transform="translate(110.029 142.643)" fill="#eab744"/>
      <path id="Path_247369" data-name="Path 247369" d="M110.029,130.1v-3.458l252.073-.125-.073,19.5-16.424,0" fill="none" stroke="#3f0d13" stroke-linecap="round" stroke-linejoin="round" stroke-width="0.75"/>
      <line id="Line_792" data-name="Line 792" y1="3.333" transform="translate(110.029 142.435)" fill="none" stroke="#3f0d13" stroke-linecap="round" stroke-linejoin="round" stroke-width="0.75"/>
      <path id="Path_247370" data-name="Path 247370" d="M112.466,142.435V130.1" fill="none" stroke="#3f0d13" stroke-linecap="round" stroke-linejoin="round" stroke-width="0.75"/>
      <line id="Line_793" data-name="Line 793" y2="18.792" transform="translate(255.362 126.768)" fill="none" stroke="#3f0d13" stroke-linecap="round" stroke-linejoin="round" stroke-width="0.75"/>
      <rect id="Rectangle_10799" data-name="Rectangle 10799" width="91.333" height="9.333" transform="translate(263.363 131.685)" fill="none" stroke="#3f0d13" stroke-linecap="round" stroke-linejoin="round" stroke-width="0.75"/>
      <line id="Line_794" data-name="Line 794" x2="145.294" transform="translate(110.029 130.101)" fill="none" stroke="#3f0d13" stroke-linecap="round" stroke-linejoin="round" stroke-width="0.75"/>
      <line id="Line_795" data-name="Line 795" x2="145.111" transform="translate(110.029 142.435)" fill="none" stroke="#3f0d13" stroke-linecap="round" stroke-linejoin="round" stroke-width="0.75"/>
      <line id="Line_796" data-name="Line 796" x2="141.833" transform="translate(113.362 133.768)" fill="none" stroke="#3f0d13" stroke-linecap="round" stroke-linejoin="round" stroke-width="0.75"/>
      <line id="Line_797" data-name="Line 797" x2="141.986" transform="translate(112.696 138.435)" fill="none" stroke="#3f0d13" stroke-linecap="round" stroke-linejoin="round" stroke-width="0.75"/>
      <rect id="Rectangle_10800" data-name="Rectangle 10800" width="198.56" height="21.125" transform="translate(105.802 150.643)" fill="#ede6d9"/>
      <path id="Path_247371" data-name="Path 247371" d="M278.529,153.935H105.8v-3.292H277.529Z" fill="#cebba1"/>
      <path id="Path_247372" data-name="Path 247372" d="M276.388,177.33a51.733,51.733,0,0,0,2.113-12.82,53.038,53.038,0,0,0-2.389-18.575l69.583-.028a51.054,51.054,0,0,1,3,19.111,44.819,44.819,0,0,1-2.122,12.432Z" fill="#ff7652"/>
      <path id="Path_247373" data-name="Path 247373" d="M276.138,177.58a51.18,51.18,0,0,0,2.062-11.826c.019-.331.051-.994.051-.994l70.191.508s-.041,1-.073,1.495A44.085,44.085,0,0,1,346.32,177.7Z" fill="#ea5036"/>
      <rect id="Rectangle_10801" data-name="Rectangle 10801" width="176.185" height="4.528" transform="translate(103.177 145.906)" fill="#ff7652"/>
      <rect id="Rectangle_10802" data-name="Rectangle 10802" width="176.185" height="5.193" transform="translate(103.177 172.075)" fill="#ea5036"/>
      <path id="Path_247374" data-name="Path 247374" d="M345.946,146.175a46.753,46.753,0,0,1,.541,30.524" fill="none" stroke="#3f0d13" stroke-linecap="round" stroke-linejoin="round" stroke-width="0.75"/>
      <path id="Path_247375" data-name="Path 247375" d="M276.129,146.223a53.709,53.709,0,0,1,.259,31.107" fill="none" stroke="#3f0d13" stroke-linecap="round" stroke-linejoin="round" stroke-width="0.75"/>
      <path id="Path_247376" data-name="Path 247376" d="M103.177,150.435v-4.528H345.7" fill="none" stroke="#3f0d13" stroke-linecap="round" stroke-linejoin="round" stroke-width="0.75"/>
      <path id="Path_247377" data-name="Path 247377" d="M131.205,177.3c.157.122-28.029,0-28.029,0V172.08" fill="none" stroke="#3f0d13" stroke-linecap="round" stroke-linejoin="round" stroke-width="0.75"/>
      <path id="Path_247378" data-name="Path 247378" d="M105.8,171.705V150.643" fill="none" stroke="#3f0d13" stroke-linecap="round" stroke-linejoin="round" stroke-width="0.75"/>
      <line id="Line_798" data-name="Line 798" x2="173.483" transform="translate(103.446 172.101)" fill="none" stroke="#3f0d13" stroke-linecap="round" stroke-linejoin="round" stroke-width="0.75"/>
      <rect id="Rectangle_10803" data-name="Rectangle 10803" width="58" height="15.599" transform="translate(284.696 153.502)" fill="none" stroke="#ede6d9" stroke-width="0.921"/>
      <line id="Line_799" data-name="Line 799" x2="173.772" transform="translate(103.362 150.435)" fill="none" stroke="#3f0d13" stroke-linecap="round" stroke-linejoin="round" stroke-width="0.75"/>
      <line id="Line_800" data-name="Line 800" x2="171.884" transform="translate(106.196 166.768)" fill="none" stroke="#3f0d13" stroke-linecap="round" stroke-linejoin="round" stroke-width="0.75"/>
      <path id="Path_247379" data-name="Path 247379" d="M106.2,160.518H278.431" fill="none" stroke="#3f0d13" stroke-linecap="round" stroke-linejoin="round" stroke-width="0.75"/>
      <line id="Line_801" data-name="Line 801" x2="170.939" transform="translate(106.446 155.518)" fill="none" stroke="#3f0d13" stroke-linecap="round" stroke-linejoin="round" stroke-width="0.75"/>
      <rect id="Rectangle_10804" data-name="Rectangle 10804" width="210" height="47.478" transform="translate(138.362 182.101)" fill="#ede6d9"/>
      <rect id="Rectangle_10805" data-name="Rectangle 10805" width="210" height="4.166" transform="translate(138.612 182.054)" fill="#cebba1"/>
      <path id="Path_247380" data-name="Path 247380" d="M355.075,182.1H138.363l-.027,47.583H355.075v4.454H131.029V177.419H355.075Z" fill="#229062"/>
      <path id="Path_247381" data-name="Path 247381" d="M131.362,233.435V177.419H355.408V182.1" fill="none" stroke="#3f0d13" stroke-linecap="round" stroke-linejoin="round" stroke-width="0.75"/>
      <path id="Path_247382" data-name="Path 247382" d="M318.2,234.138c18.7-.045,37.213,0,37.213,0v-4.454H138.669L138.7,182.1H355.408" fill="none" stroke="#3f0d13" stroke-linecap="round" stroke-linejoin="round" stroke-width="0.75"/>
      <line id="Line_802" data-name="Line 802" y2="47.083" transform="translate(348.362 182.268)" fill="none" stroke="#3f0d13" stroke-linecap="round" stroke-linejoin="round" stroke-width="0.75"/>
      <line id="Line_803" data-name="Line 803" x2="209.306" transform="translate(139.029 188.101)" fill="none" stroke="#3f0d13" stroke-linecap="round" stroke-linejoin="round" stroke-width="0.75"/>
      <line id="Line_804" data-name="Line 804" x2="209.306" transform="translate(139.029 205.935)" fill="none" stroke="#3f0d13" stroke-linecap="round" stroke-linejoin="round" stroke-width="0.75"/>
      <line id="Line_805" data-name="Line 805" x2="209.306" transform="translate(139.029 214.851)" fill="none" stroke="#3f0d13" stroke-linecap="round" stroke-linejoin="round" stroke-width="0.75"/>
      <line id="Line_806" data-name="Line 806" x2="209.306" transform="translate(139.029 223.768)" fill="none" stroke="#3f0d13" stroke-linecap="round" stroke-linejoin="round" stroke-width="0.75"/>
      <line id="Line_807" data-name="Line 807" x2="209.306" transform="translate(139.029 197.018)" fill="none" stroke="#3f0d13" stroke-linecap="round" stroke-linejoin="round" stroke-width="0.75"/>
      <rect id="Rectangle_10806" data-name="Rectangle 10806" width="168.676" height="15.23" transform="translate(87.483 237.204)" fill="#ede6d9"/>
      <rect id="Rectangle_10807" data-name="Rectangle 10807" width="168.909" height="3.375" transform="translate(87.412 237.268)" fill="#cebba1"/>
      <rect id="Rectangle_10808" data-name="Rectangle 10808" width="174.034" height="3.125" transform="translate(83.412 234.143)" fill="#ff9b26"/>
      <rect id="Rectangle_10809" data-name="Rectangle 10809" width="174.034" height="3.125" transform="translate(83.412 252.393)" fill="#ff9b26"/>
      <rect id="Rectangle_10810" data-name="Rectangle 10810" width="62" height="21.375" transform="translate(256.196 234.268)" fill="#ffd46b"/>
      <rect id="Rectangle_10811" data-name="Rectangle 10811" width="62" height="10.248" transform="translate(256.196 245.281)" fill="#eab744"/>
      <path id="Path_247383" data-name="Path 247383" d="M256.279,255.435c0-.167-.083-21.167-.083-21.167" fill="none" stroke="#3f0d13" stroke-linecap="round" stroke-linejoin="round" stroke-width="0.75"/>
      <line id="Line_808" data-name="Line 808" y1="20.574" transform="translate(318.195 234.194)" fill="none" stroke="#3f0d13" stroke-linecap="round" stroke-linejoin="round" stroke-width="0.75"/>
      <path id="Path_247384" data-name="Path 247384" d="M83.411,237.268v-3.125c.255,0,159.5.182,234.6,0" fill="none" stroke="#3f0d13" stroke-linecap="round" stroke-linejoin="round" stroke-width="0.75"/>
      <path id="Path_247385" data-name="Path 247385" d="M100.2,255.768H83.411v-3.375" fill="none" stroke="#3f0d13" stroke-linecap="round" stroke-linejoin="round" stroke-width="0.75"/>
      <path id="Path_247386" data-name="Path 247386" d="M87.411,252.393V237.268" fill="none" stroke="#3f0d13" stroke-linecap="round" stroke-linejoin="round" stroke-width="0.75"/>
      <rect id="Rectangle_10812" data-name="Rectangle 10812" width="51.767" height="8.25" transform="translate(261.312 240.83)" fill="none" stroke="#ff7652" stroke-linecap="round" stroke-linejoin="round" stroke-width="1"/>
      <line id="Line_809" data-name="Line 809" x2="172.363" transform="translate(83.446 237.268)" fill="none" stroke="#3f0d13" stroke-linecap="round" stroke-linejoin="round" stroke-width="0.75"/>
      <line id="Line_810" data-name="Line 810" x2="172.363" transform="translate(83.446 252.435)" fill="none" stroke="#3f0d13" stroke-linecap="round" stroke-linejoin="round" stroke-width="0.75"/>
      <line id="Line_811" data-name="Line 811" x2="168.113" transform="translate(87.696 248.268)" fill="none" stroke="#3f0d13" stroke-linecap="round" stroke-linejoin="round" stroke-width="0.75"/>
      <line id="Line_812" data-name="Line 812" x2="167.988" transform="translate(87.821 243.268)" fill="none" stroke="#3f0d13" stroke-linecap="round" stroke-linejoin="round" stroke-width="0.75"/>
      <rect id="Rectangle_10813" data-name="Rectangle 10813" width="144.533" height="14.25" transform="translate(102.663 260.018)" fill="#ede6d9"/>
      <path id="Path_247387" data-name="Path 247387" d="M244.2,266.268H102.662v-6.25H243.653l.542,3.458Z" fill="#cebba1"/>
      <rect id="Rectangle_10814" data-name="Rectangle 10814" width="145.659" height="4.167" transform="translate(100.203 274.101)" fill="#004e66"/>
      <path id="Path_247388" data-name="Path 247388" d="M240.57,278.393c4.489-6.4,4.99-15.374,1.875-22.542v-.083H355.852a22.677,22.677,0,0,1,.49,22.655l-.022.1h-7.1Z" fill="#004e66"/>
      <path id="Path_247389" data-name="Path 247389" d="M240.57,278.143a21.526,21.526,0,0,0,3.553-8.97c.027-.17.239-2.488.239-2.488l114.833.333-.152,2.32s-.067.668-.111,1a21.933,21.933,0,0,1-2.59,7.835l-.022.1h-7.1Z" fill="#003a47"/>
      <rect id="Rectangle_10815" data-name="Rectangle 10815" width="145.659" height="4.167" transform="translate(100.203 255.767)" fill="#004e66"/>
      <path id="Path_247390" data-name="Path 247390" d="M240.57,278.393c4.489-6.4,4.99-15.374,1.875-22.542" fill="none" stroke="#3f0d13" stroke-linecap="round" stroke-linejoin="round" stroke-width="0.75"/>
      <path id="Path_247391" data-name="Path 247391" d="M100.2,259.935v-4.167H355.853a22.679,22.679,0,0,1,.49,22.656l-.022.094h-7.1" fill="none" stroke="#3f0d13" stroke-linecap="round" stroke-linejoin="round" stroke-width="0.75"/>
      <path id="Path_247392" data-name="Path 247392" d="M129.7,278.435H100.2v-4.167" fill="none" stroke="#3f0d13" stroke-linecap="round" stroke-linejoin="round" stroke-width="0.75"/>
      <path id="Path_247393" data-name="Path 247393" d="M102.829,274.268V260.226" fill="none" stroke="#3f0d13" stroke-linecap="round" stroke-linejoin="round" stroke-width="0.75"/>
      <line id="Line_813" data-name="Line 813" x2="143.252" transform="translate(100.196 260.018)" fill="none" stroke="#3f0d13" stroke-linecap="round" stroke-linejoin="round" stroke-width="0.75"/>
      <line id="Line_814" data-name="Line 814" x2="141.894" transform="translate(100.529 274.268)" fill="none" stroke="#3f0d13" stroke-linecap="round" stroke-linejoin="round" stroke-width="0.75"/>
      <line id="Line_815" data-name="Line 815" x2="140.457" transform="translate(103.362 264.435)" fill="none" stroke="#3f0d13" stroke-linecap="round" stroke-linejoin="round" stroke-width="0.75"/>
      <line id="Line_816" data-name="Line 816" x2="124.669" transform="translate(103.362 270.101)" fill="none" stroke="#3f0d13" stroke-linecap="round" stroke-linejoin="round" stroke-width="0.75"/>
      <rect id="Rectangle_10816" data-name="Rectangle 10816" width="96" height="7.667" transform="translate(254.362 263.767)" fill="none" stroke="#ede6d9" stroke-width="0.932"/>
      <rect id="Rectangle_10817" data-name="Rectangle 10817" width="123.333" height="31.972" transform="translate(129.029 278.517)" fill="#ede6d9"/>
      <rect id="Rectangle_10818" data-name="Rectangle 10818" width="123.167" height="3.417" transform="translate(129.029 278.517)" fill="#cebba1"/>
      <rect id="Rectangle_10819" data-name="Rectangle 10819" width="96.801" height="32.062" transform="translate(252.362 278.427)" fill="#229062"/>
      <rect id="Rectangle_10820" data-name="Rectangle 10820" width="96.968" height="8.742" transform="translate(252.195 301.747)" fill="#096d40"/>
      <rect id="Rectangle_10821" data-name="Rectangle 10821" width="7.375" height="32.179" transform="translate(263.029 278.386)" fill="none" stroke="#024927" stroke-width="1.006"/>
      <rect id="Rectangle_10822" data-name="Rectangle 10822" width="7.375" height="32.159" transform="translate(333.029 278.406)" fill="none" stroke="#024927" stroke-width="1.006"/>
      <path id="Path_247394" data-name="Path 247394" d="M129.7,278.435q109.735,0,219.47,0-.027,16.011,0,32.056l-9.218,0" fill="none" stroke="#3f0d13" stroke-linecap="round" stroke-linejoin="round" stroke-width="0.75"/>
      <line id="Line_817" data-name="Line 817" y1="31.34" transform="translate(252.362 278.428)" fill="none" stroke="#3f0d13" stroke-linecap="round" stroke-linejoin="round" stroke-width="0.75"/>
      <line id="Line_818" data-name="Line 818" y1="31.875" transform="translate(129.029 278.518)" fill="none" stroke="#3f0d13" stroke-linecap="round" stroke-linejoin="round" stroke-width="0.75"/>
      <line id="Line_819" data-name="Line 819" x2="122.246" transform="translate(129.445 284.518)" fill="none" stroke="#3f0d13" stroke-linecap="round" stroke-linejoin="round" stroke-width="0.75"/>
      <line id="Line_820" data-name="Line 820" x2="122.246" transform="translate(129.279 291.018)" fill="none" stroke="#3f0d13" stroke-linecap="round" stroke-linejoin="round" stroke-width="0.75"/>
      <line id="Line_821" data-name="Line 821" x2="122.246" transform="translate(129.445 297.518)" fill="none" stroke="#3f0d13" stroke-linecap="round" stroke-linejoin="round" stroke-width="0.75"/>
      <line id="Line_822" data-name="Line 822" x2="122.246" transform="translate(129.445 304.018)" fill="none" stroke="#3f0d13" stroke-linecap="round" stroke-linejoin="round" stroke-width="0.75"/>
      <rect id="Rectangle_10823" data-name="Rectangle 10823" width="59.5" height="54.5" transform="translate(277.196 315.018)" fill="#ede6d9"/>
      <path id="Path_247395" data-name="Path 247395" d="M336.445,326.768H285.257l1.4-5.159,2.041-5.841,47.75-.063Z" fill="#cebba1"/>
      <path id="Path_247396" data-name="Path 247396" d="M94.671,345.105c.127-12.164,3.58-23.446,5.891-29.663a7.689,7.689,0,0,1,7.221-5.006l232.163.052v5.28H288.321l-.07-.029c-6.514,17.446-7.458,37.144-.626,54.441l.1.088h52.014v5.5H107.692a8.309,8.309,0,0,1-7.759-5.341c-2.038-5.318-5.377-14.26-5.262-25.322" fill="#ff7652"/>
      <path id="Path_247397" data-name="Path 247397" d="M94.671,345.105l187.995-.327h0a72.022,72.022,0,0,0,4.959,25.4l.1.088h52.014v5.5H107.692a8.309,8.309,0,0,1-7.759-5.341c-1.956-5.1-5.109-13.541-5.259-23.987-.007-.442,0-1.335,0-1.335" fill="#ea5036"/>
      <path id="Path_247398" data-name="Path 247398" d="M276.7,375.6A105.745,105.745,0,0,1,273.75,327c1-5.68,3.157-11.9,6.82-16.354" fill="none" stroke="#ede6d9" stroke-linecap="round" stroke-linejoin="round" stroke-width="0.932"/>
      <path id="Path_247399" data-name="Path 247399" d="M116.64,375.6a105.745,105.745,0,0,1-2.945-48.6c1-5.68,3.344-12.149,7.008-16.6" fill="none" stroke="#ede6d9" stroke-width="0.932"/>
      <path id="Path_247400" data-name="Path 247400" d="M109.974,375.6a105.745,105.745,0,0,1-2.945-48.6c1-5.68,3.344-12.149,7.007-16.6" fill="none" stroke="#ede6d9" stroke-width="0.932"/>
      <path id="Path_247401" data-name="Path 247401" d="M269.029,376.268a105.745,105.745,0,0,1-2.945-48.6c1-5.68,3.344-12.149,7.007-16.6" fill="none" stroke="#ede6d9" stroke-linecap="round" stroke-linejoin="round" stroke-width="0.932"/>
      <path id="Path_247402" data-name="Path 247402" d="M290.243,375.16c-9.732-19.816-9.253-44.814.786-64.475" fill="none" stroke="#3f0d13" stroke-linecap="round" stroke-linejoin="round" stroke-width="0.75"/>
      <path id="Path_247403" data-name="Path 247403" d="M288.7,315.768h51.462v-5" fill="none" stroke="#3f0d13" stroke-linecap="round" stroke-linejoin="round" stroke-width="0.75"/>
      <path id="Path_247404" data-name="Path 247404" d="M339.74,370.268H288.2" fill="none" stroke="#3f0d13" stroke-linecap="round" stroke-linejoin="round" stroke-width="0.75"/>
      <path id="Path_247405" data-name="Path 247405" d="M336.362,316.435v53.833" fill="none" stroke="#3f0d13" stroke-linecap="round" stroke-linejoin="round" stroke-width="0.75"/>
      <path id="Path_247406" data-name="Path 247406" d="M339.946,310.487l-231.977-.052a7.742,7.742,0,0,0-7.143,4.753,77.157,77.157,0,0,0-5.38,36.5,64.933,64.933,0,0,0,4.8,19.38,7.718,7.718,0,0,0,7.119,4.7H339.7V370.6" fill="none" stroke="#3f0d13" stroke-linecap="round" stroke-linejoin="round" stroke-width="0.75"/>
      <ellipse id="Ellipse_1026" data-name="Ellipse 1026" cx="54.633" cy="15.667" rx="54.633" ry="15.667" transform="translate(143.091 328.768)" fill="none" stroke="#ede6d9" stroke-width="0.932"/>
      <line id="Line_823" data-name="Line 823" x2="49.563" transform="translate(286.695 323.101)" fill="none" stroke="#3f0d13" stroke-linecap="round" stroke-linejoin="round" stroke-width="0.75"/>
      <line id="Line_824" data-name="Line 824" x2="51.938" transform="translate(284.32 331.251)" fill="none" stroke="#3f0d13" stroke-linecap="round" stroke-linejoin="round" stroke-width="0.75"/>
      <line id="Line_825" data-name="Line 825" x2="52.813" transform="translate(283.445 339.401)" fill="none" stroke="#3f0d13" stroke-linecap="round" stroke-linejoin="round" stroke-width="0.75"/>
      <line id="Line_826" data-name="Line 826" x2="52.938" transform="translate(283.32 347.551)" fill="none" stroke="#3f0d13" stroke-linecap="round" stroke-linejoin="round" stroke-width="0.75"/>
      <line id="Line_827" data-name="Line 827" x2="52.063" transform="translate(284.195 355.701)" fill="none" stroke="#3f0d13" stroke-linecap="round" stroke-linejoin="round" stroke-width="0.75"/>
      <line id="Line_828" data-name="Line 828" x2="49.563" transform="translate(286.695 363.851)" fill="none" stroke="#3f0d13" stroke-linecap="round" stroke-linejoin="round" stroke-width="0.75"/>
      <path id="Path_247407" data-name="Path 247407" d="M422.851,31.765a15.964,15.964,0,0,0-.333-13.833,13.953,13.953,0,0,0-9.293-6.762,4.743,4.743,0,0,1-3.518-3.614,9.174,9.174,0,0,0-3.334-5.232A10.44,10.44,0,0,0,396.83.994,13.842,13.842,0,0,0,392.861,3.7a4.361,4.361,0,0,1-5.023.742,11.38,11.38,0,0,0-14.683,3.493c-2.117,3.006-2.787,7.021-5.54,9.456-1.778,1.572-4.163,2.234-6.468,2.8-2.007.493-3.524.372-5.313,1.185a5.752,5.752,0,0,0-3.126,6.147c.766,3.98,4.276,5.066,7.493,5.071h52.972" fill="none" stroke="#3f0d13" stroke-linecap="round" stroke-linejoin="round" stroke-width="0.75"/>
      <path id="Path_247408" data-name="Path 247408" d="M1.717,105.679a15.105,15.105,0,0,1,.315-13.087,13.207,13.207,0,0,1,8.829-6.405,4.52,4.52,0,0,0,3.3-3.459,8.68,8.68,0,0,1,3.143-4.9,9.879,9.879,0,0,1,9.028-1.257,13.108,13.108,0,0,1,3.757,2.564,4.122,4.122,0,0,0,4.748.7,10.763,10.763,0,0,1,13.892,3.3,31.113,31.113,0,0,1,2.09,3.723A6.582,6.582,0,0,0,55.964,90.5l.12.014c10.14,1.179,9.179,16.25-1.029,16.25H10.873" fill="none" stroke="#3f0d13" stroke-linecap="round" stroke-linejoin="round" stroke-width="0.75"/>
      <path id="Path_247409" data-name="Path 247409" d="M399.986,99.909a8.04,8.04,0,0,1-1.771-8.191,11.545,11.545,0,0,1,6.432-6.412,14.4,14.4,0,0,1,4.193-1.117,5.676,5.676,0,0,0,4.288-2.793c1.49-2.567,3.607-5.572,6.291-7.258,4.11-2.582,8.36-3.082,12.86-.957a16.788,16.788,0,0,1,7.449,7.59,5.287,5.287,0,0,0,4.324,3.014c3.31.23,5.144.4,7.81,2.313,5.443,3.912,2.609,13.329-4.011,13.419l-30.468.414" fill="none" stroke="#3f0d13" stroke-linecap="round" stroke-linejoin="round" stroke-width="0.75"/>
      <path id="Path_247410" data-name="Path 247410" d="M108.351,38.718c.305-3.7.472-9.97-.452-13.561s-3.092-7.023-6.415-8.667a13.508,13.508,0,0,0-5.613-1.247,32.778,32.778,0,0,0-7.329.75,5.029,5.029,0,0,1-6.09-3.4,23.167,23.167,0,0,0-3.476-6.87C76.33,2.027,72.61.444,68.15.376c-4.559-.07-10.425,3.15-12.9,6.981a24.32,24.32,0,0,0-2.571,5.256,5.754,5.754,0,0,1-6.919,3.673c-1.018-.27-2.112-.448-3.2-.651-8.042-1.5-13.114,1.456-15.978,7.366-.022.044-.043.089-.064.134-3.155,6.671,1.712,15.707,9.091,15.676l63.409-.093" fill="none" stroke="#3f0d13" stroke-linecap="round" stroke-linejoin="round" stroke-width="0.75"/>
    </g>
  </g>
</svg>
