<svg xmlns="http://www.w3.org/2000/svg" xmlns:xlink="http://www.w3.org/1999/xlink" width="390.625" height="43.409" viewBox="0 0 390.625 43.409">
  <defs>
    <clipPath id="clip-path">
      <rect id="Rectangle_10766" data-name="Rectangle 10766" width="227.782" height="23.646" fill="none"/>
    </clipPath>
  </defs>
  <g id="Group_42661" data-name="Group 42661" transform="translate(-932 -4344.15)">
    <g id="Group_42626" data-name="Group 42626" transform="translate(932 4360.792)">
      <g id="Group_42625" data-name="Group 42625" clip-path="url(#clip-path)">
        <path id="Path_246822" data-name="Path 246822" d="M77.614,56.953v.361a1.851,1.851,0,0,0-1.054.181v-.361Z" transform="translate(-54.945 -45.942)" fill="#ad1123"/>
        <path id="Path_246823" data-name="Path 246823" d="M482.695,78.427h.264l-.132.181Z" transform="translate(-346.417 -63.264)" fill="#ad1123"/>
        <path id="Path_246824" data-name="Path 246824" d="M220.232.362c.221.09.427.335.659.451l.264.9c-.87.727-2.183.325-3.3.451-.447.051-.955.066-1.582.18-2.213.4-6.575.029-9.489.361a12.627,12.627,0,0,1-2.636.181c-2.068-.235-5.145.617-6.853.181l-.527.361c-1.362-.506-3.206.4-4.745-.181a1.44,1.44,0,0,1-1.318.361,11.233,11.233,0,0,1-2.372-.181l-.527.361-.527-.18-.791.18-.263-.18a16.925,16.925,0,0,1-2.9.361c-2.183-.454-5.5.617-7.908.181l-.791.361h-.659l1.054.09a13.441,13.441,0,0,1,2.768-.09c1.073.122,2.695-.191,3.954,0,.758.115,5.721.426,6.062.361a46.023,46.023,0,0,1,6.854,0c1.436.164,2.672-.026,4.481.181.615.07,1.116-.083,1.845,0,1.586.181,4.125.14,6.063.361,2.277.259,5.827.214,8.7.542.78.089,2.141.223,2.9.361,1.1.2,2.6.154,3.954.361.759.116,1.665.18,2.636.361a7.172,7.172,0,0,1,1.054.542c.162.032.365-.032.527,0,.6.117.291.732.4.993.04.1.487.262.527.361a2.728,2.728,0,0,1,0,.9c-.021.064-.211.1-.264.18-.039.057.034.145,0,.181-.244.261-.509.213-.659.271-.2.076-.623.319-.791.361-.44.111-1.136.113-1.582.18-.976.149-1.447.035-2.109.181-1.285.283-2.055-.07-3.427.18a26.873,26.873,0,0,1-5.536,0,1.44,1.44,0,0,1-1.318.361,5.5,5.5,0,0,0-1.318-.181,46.531,46.531,0,0,1-7.908.361c-1.328-.162-2.4.3-3.427.181-1.284-.146-2.011.51-3.163-.181-1.422.716-3.435.481-5.008.361l-.791.361-.527-.181c-2.126.416-4.139.116-5.8.361l-.4-.181V13l-.4-.18-.263.18c-.808-.408-2.31-.032-3.163.181l-.791-.361a5.635,5.635,0,0,1-3.427.18l-.527.361c-.259-.3-.671-.128-1.054-.181-.1-.014-.18-.246-.527-.181-.933.176-1.907.606-2.9.181l-1.318.361a1.344,1.344,0,0,0-1.054-.18,25.7,25.7,0,0,1-7.117.18,6.141,6.141,0,0,1-.791.361c-1.143.317-2.335-.2-3.427.361l-.527-.361-.791.361-.791-.181a4.623,4.623,0,0,1-2.372,0c-.678.539-1.732.181-2.372.542l-.791-.361-.527.361-.264-.181-.263.181-.791-.181a24.286,24.286,0,0,1-5.8.361c-.459-.09-1.914.451-2.372.361a2.429,2.429,0,0,0-1.845.181c-.221-.3-.7-.113-.923-.181-.013,0,.038-.181-.132-.181-.175.031-.118.177-.132.181-.52.157-1.742.027-2.5.181-.105.021-.16.162-.263.18-.268.049-.573-.089-.791.181l.132-.361c-.214.016-.466-.028-.659,0-.72.1-1.6.245-2.372.361-1.527-.472-3.164.313-4.744,0l-.527.361-.791-.361-.791.361-.132-.361-2.636.361-.132-.18-.132.18-.4-.18-2.372.542.132-.361c-.423-.1-.556.168-.659.181-1.42.171-2.713.069-3.69.181-1,.114-2.259-.287-2.9.361a3.354,3.354,0,0,0-2.372,0l-.791-.181-.132.361-.263-.361c-.427.255-.784.121-1.186.181a2.757,2.757,0,0,1-1.318.181,4.341,4.341,0,0,0-1.845,0c-1.04.229-2.738-.089-3.691.541l-.791-.361c-.087,0-.155.161-.264.181a7.865,7.865,0,0,1-2.9-.181,7.079,7.079,0,0,1-4.218.361l-1.054.542-.791-.361-.527.181-.527-.181c-.106.02-.164.167-.263.181a10.162,10.162,0,0,1-2.372.18,1.44,1.44,0,0,0-1.318.361l-.132-.361a1.3,1.3,0,0,0-1.186.361l-.791-.361-2.372.542-1.054-.361-1.318.542-.791-.361-.791.361-.264-.181-.791.361-1.318-.361c-.215.273-.548.127-.791.181a17.894,17.894,0,0,1-5.272.361l-.527.361-.527-.361-.132.361-.4-.181c-.64.472-1.4-.129-2.241,0v.361h-.659l-1.186-.361v.361a.784.784,0,0,0-.659.181c-.086,0-.154-.159-.264-.181-.267-.053-.53.061-1.054,0a9.645,9.645,0,0,0-2.9.542l-.132-.361c-.3.021-.644-.034-.923,0-.167.02-.17.238-.791,0l-.791.361-.527-.18-.791.361a.791.791,0,0,0-1.054,0l-.527-.361c-.21.276-.575.124-.791.18-.368.1-.782.522-1.054.181l-.791.18-.527-.361h-.527l-1.054.542-.527-.181-.264.181-.527-.181-.527.181c-.1-.02-.158-.159-.264-.181-.206-.043-1.69.4-2.109.361-1.024-.475-2.37.529-3.427.18-.468.471-1.038-.11-1.582,0-.234.047-.422.493-.923.361V21.12a1.277,1.277,0,0,0-.923.181c-1.286.222-2.417-.179-3.163.361l-.527-.18c-.086,0-.154.159-.263.18-.5.1-.723-.233-1.186-.18v.361l-.4-.181-.264.181-.527-.181c-.259.293-.658.134-1.054.181a4.627,4.627,0,0,1-2.636-.181l-.791.361-.527-.181c-.482.578-1.3.175-1.845.542l-.132-.361c-.434-.1-.506.144-.659.18-.209.05-.646.154-.791.181-.975.18-1.8-.126-2.636,0-.646.1-1.179.033-1.845.181-.91.2-1.411-.28-2.109.361l-.923-.181v.361a2.08,2.08,0,0,0-1.186-.18c-.4.063-1.236.288-1.582,0l-.527.361-.527-.361c-.259.293-.658.134-1.054.18-.544.064-1.325.086-1.845.181a7.094,7.094,0,0,0-1.845.361l-.132-.361-1.054.181V23.2l-.527-.271.264-.09c0-.115-.255-.082-.264-.09-.335-.309-.323-.442-1.054-.361.064-.455-.42-.607-1.054-.542V21.3H.527c-.235-.542.511-1.063,0-1.354.324-.18.6-.471.923-.632a4.307,4.307,0,0,1,1.582-.361c.993-.16,2.136-.6,3.163-.722,1.432-.165,2.728-.192,3.954-.361.968-.134,1.7-.044,2.9-.181a14.385,14.385,0,0,1,4.481-.181c.97-.6,2.862-.334,4.218-.541,3.1-.476,6.818-.894,10.016-1.444,1.521-.261,2.657-.3,4.217-.542,2.564-.4,4.754-.65,7.117-1.083.908-.166,2.926-.645,3.954-.361.522-.6,1.358-.25,2.109-.361.09-.013.7-.348.791-.361.76-.113,1.715-.033,2.636-.181,1.341-.215,2.851-.845,4.217-.542a66.749,66.749,0,0,1,9.49-1.444c3.1-.354,6.627-.995,10.016-1.444,1.835-.243,3.765-.563,5.536-.722.455-.041.981.028,1.45,0-.156-.434-.953-.425-1.45-.361a85.03,85.03,0,0,1-10.28,0l-.791.361C59.491,8.164,49.491,9,38.353,9.568c-.763.417-1.985.257-2.9.361-3.276.373-7.465.931-11.071,1.264-.453.042-.982-.028-1.45,0l.923-.542c2.546-.237,4.861-.787,7.381-1.083,1.328-.156,3.412-.664,5.008-.9,4.1-.612,8.208-.935,12.389-1.444,4.868-.592,9.734-.945,14.5-1.083,17.606-1.079,32.208-1.408,49.292-1.264,1.145-.477,2.8-.063,3.954-.18,1.44-.147,5.2-.851,6.326-.722.817.093,1.446-.264,1.845-.181a8.844,8.844,0,0,0,2.9-.18,60.961,60.961,0,0,0,6.59-.722c.759.484,2.111-.114,2.9-.181,1.492-.126,3.125.215,4.217-.361.176.023.376-.032.527,0,.123.026.181.246.527.181,3.441-.649,7.29-.539,10.544-.722C166.238.745,182.694.069,197.563,0" transform="translate(0 -0.001)" fill="#ad1123"/>
        <rect id="Rectangle_10762" data-name="Rectangle 10762" width="0.527" height="0.181" transform="translate(172.653 4.332)" fill="#ad1123"/>
        <path id="Path_246825" data-name="Path 246825" d="M614.48,22.408c-.171,0-.171.181,0,.181s.171-.181,0-.181" transform="translate(-440.904 -18.076)" fill="#ad1123"/>
        <path id="Path_246826" data-name="Path 246826" d="M326.412,42.195c-.256-.077-1.283-.037-1.45.181l-.791-.361c-1.666.274-3.127-.034-5.008.181-.1.011-.176.181-.264.181l-.527-.361c-2,.781-4.055.052-6.063.9a16.917,16.917,0,0,0-5.536.542,45.884,45.884,0,0,0-6.59.542c-1.973.232-3.607.321-5.535.722a2.112,2.112,0,0,1-.527,0c-.106-.022-.16-.161-.263-.181a18.376,18.376,0,0,1-4.218.722c-.4.046-.8-.113-1.054.18l-.791-.18-1.055.542a7.647,7.647,0,0,0-3.163.181c-1.463.249-3.3.4-4.481.542a10.485,10.485,0,0,0-2.9.541l-.527-.18-1.186.18c-.052.34.586.14.923.181.1.012.176.181.263.181s.156-.161.264-.181c1.986-.363,4.6-.345,6.326-.542,1.341-.153,2.944-.062,3.954-.18a20.835,20.835,0,0,1,3.954-.181c1.7.194,2.354-.459,3.69-.181a.947.947,0,0,0,.791-.18c1.664-.208,2.916,0,4.481-.181,1.082-.123,2.277.078,3.69-.181.586-.107,1.7-.1,2.372-.181,1.749-.2,2.964.022,4.745-.18,1.4-.16,3.557-.222,4.745-.361,1.322-.155,2.753,0,3.954-.181,1.612-.247,3.672.015,4.745-.181,1.73-.316,4.14-.106,5.536-.361,1.334-.244,2.776.051,4.217-.181,1.9-.305,4.035.05,6.063-.18,2.11-.24,6.141-.049,8.171-.361,1.444-.221,3.108.14,4.481,0a44.288,44.288,0,0,1,6.063-.361c1.665.19,3.908-.471,5.8-.181a33.415,33.415,0,0,0,5.272-.18c.927-.116,2.692.33,3.69-.181l.791.361.4-.541c-.67.054-1.532-.159-1.977.18l-.527-.361a21.1,21.1,0,0,1-3.427.181c-.1-.012-.176-.181-.263-.181s-.907.467-1.318,0l-.659.361v-.361a14.129,14.129,0,0,1-1.977.181,22.085,22.085,0,0,0-3.69,0,33.977,33.977,0,0,0-3.69,0,3.084,3.084,0,0,1-1.318-.181.786.786,0,0,1-.659.181v-.361l-1.45.361a15.822,15.822,0,0,0-1.845-.181,10.643,10.643,0,0,0-2.9.181,5.533,5.533,0,0,1-1.582-.181c-.268-.049-.573.089-.791-.181l-.527.361h-.527l-.527-.361-.923.361v-.361a1.894,1.894,0,0,1-1.713,0l-.791.361c-1.285-.651-3.059.011-4.745-.181a25.534,25.534,0,0,1-3.69-.181h-.527l-.527.361c-.664-.583-2.071-.108-3.163-.361-.4.286-.678-.214-1.45.181l-.132-.181Z" transform="translate(-196.988 -33.891)" fill="#ad1123"/>
        <path id="Path_246827" data-name="Path 246827" d="M628.728,43.309l-.659-.361-.659.18.659.361Z" transform="translate(-450.276 -34.645)" fill="#ad1123"/>
        <rect id="Rectangle_10763" data-name="Rectangle 10763" width="0.264" height="0.361" transform="translate(182.67 8.303)" fill="#ad1123"/>
        <rect id="Rectangle_10764" data-name="Rectangle 10764" width="1.318" height="0.181" transform="translate(178.716 8.484)" fill="#ad1123"/>
        <rect id="Rectangle_10765" data-name="Rectangle 10765" width="1.054" height="0.181" transform="translate(181.352 8.484)" fill="#ad1123"/>
        <path id="Path_246828" data-name="Path 246828" d="M458.42,42.948h.264c-.012.006.036.181-.132.181-.175-.031-.118-.177-.132-.181" transform="translate(-328.996 -34.645)" fill="#ad1123"/>
        <path id="Path_246829" data-name="Path 246829" d="M424.809,83.095h.264l-.132.181Z" transform="translate(-304.874 -67.03)" fill="#ad1123"/>
        <path id="Path_246830" data-name="Path 246830" d="M6.81,117.819c-.346,0-.346-.183,0-.181Z" transform="translate(-4.701 -94.895)" fill="#ad1123"/>
      </g>
    </g>
    <g id="Group_42627" data-name="Group 42627" transform="matrix(0.996, -0.087, 0.087, 0.996, 1093.649, 4364.002)">
      <g id="Group_42625-2" data-name="Group 42625" clip-path="url(#clip-path)">
        <path id="Path_246822-2" data-name="Path 246822" d="M0,0V.361A1.851,1.851,0,0,1,1.054.542V.181Z" transform="translate(205.113 11.011)" fill="#ad1123"/>
        <path id="Path_246823-2" data-name="Path 246823" d="M.264,0H0L.132.181Z" transform="translate(91.241 15.162)" fill="#ad1123"/>
        <path id="Path_246824-2" data-name="Path 246824" d="M7.55.361c-.221.09-.427.335-.659.451l-.264.9c.87.727,2.183.325,3.3.451.447.051.955.066,1.582.18,2.213.4,6.575.029,9.489.361a12.627,12.627,0,0,0,2.636.181c2.068-.235,5.145.617,6.853.181l.527.361c1.362-.506,3.206.4,4.745-.181a1.44,1.44,0,0,0,1.318.361,11.233,11.233,0,0,0,2.372-.181l.527.361.527-.18.791.18.263-.18a16.925,16.925,0,0,0,2.9.361c2.183-.454,5.5.617,7.908.181l.791.361h.659l-1.054.09a13.441,13.441,0,0,0-2.768-.09c-1.073.122-2.695-.191-3.954,0-.758.115-5.721.426-6.062.361a46.022,46.022,0,0,0-6.853,0c-1.436.164-2.672-.026-4.481.181-.615.07-1.116-.083-1.845,0-1.586.181-4.125.14-6.063.361-2.277.259-5.827.214-8.7.542-.78.089-2.141.223-2.9.361-1.1.2-2.6.154-3.954.361-.759.116-1.665.18-2.636.361a7.172,7.172,0,0,0-1.054.542c-.162.032-.365-.032-.527,0-.6.117-.291.732-.4.993-.04.1-.487.262-.527.361a2.728,2.728,0,0,0,0,.9c.021.064.211.1.264.18.039.057-.034.145,0,.181.244.261.509.213.659.271.2.076.623.319.791.361.44.111,1.136.113,1.582.18.976.149,1.447.035,2.109.181,1.285.283,2.055-.07,3.427.18a26.872,26.872,0,0,0,5.536,0,1.44,1.44,0,0,0,1.318.361,5.5,5.5,0,0,1,1.318-.181,46.531,46.531,0,0,0,7.908.361c1.328-.162,2.4.3,3.427.181,1.284-.146,2.011.51,3.163-.181,1.422.716,3.435.481,5.008.361l.791.361.527-.181c2.126.416,4.139.116,5.8.361l.4-.181V13l.4-.18.263.18c.808-.408,2.31-.032,3.163.181l.791-.361A5.635,5.635,0,0,0,52.1,13l.527.361c.259-.3.671-.128,1.054-.181.1-.014.18-.246.527-.181.933.176,1.907.606,2.9.181l1.318.361a1.344,1.344,0,0,1,1.054-.18,25.7,25.7,0,0,0,7.117.18,6.14,6.14,0,0,0,.791.361c1.143.317,2.335-.2,3.427.361l.527-.361.791.361.791-.181a4.623,4.623,0,0,0,2.372,0c.678.539,1.732.181,2.372.542l.791-.361.527.361.264-.181.263.181.791-.181a24.286,24.286,0,0,0,5.8.361c.459-.09,1.914.451,2.372.361a2.429,2.429,0,0,1,1.845.181c.221-.3.7-.113.923-.181.013,0-.038-.181.132-.181.175.031.118.177.132.181.52.157,1.742.027,2.5.181.105.021.16.162.263.18.268.049.573-.089.791.181l-.132-.361c.214.016.466-.028.659,0,.72.1,1.6.245,2.372.361,1.527-.472,3.164.313,4.744,0l.527.361.791-.361.791.361.132-.361,2.636.361.132-.18.132.18.4-.18,2.372.542-.132-.361c.423-.1.556.168.659.181,1.42.171,2.713.069,3.69.181,1,.114,2.259-.287,2.9.361a3.354,3.354,0,0,1,2.372,0l.791-.181.132.361.263-.361c.427.255.784.121,1.186.181a2.757,2.757,0,0,0,1.318.181,4.341,4.341,0,0,1,1.845,0c1.04.229,2.738-.089,3.691.541l.791-.361c.087,0,.155.161.264.181a7.865,7.865,0,0,0,2.9-.181,7.079,7.079,0,0,0,4.218.361l1.054.542.791-.361.527.181.527-.181c.106.02.164.167.263.181a10.162,10.162,0,0,0,2.372.18,1.44,1.44,0,0,1,1.318.361l.132-.361a1.3,1.3,0,0,1,1.186.361l.791-.361,2.372.542,1.054-.361,1.318.542.791-.361.791.361.264-.181.791.361,1.318-.361c.215.273.548.127.791.181a17.894,17.894,0,0,0,5.272.361l.527.361.527-.361.132.361.4-.181c.64.472,1.4-.129,2.241,0v.361h.659l1.186-.361v.361a.784.784,0,0,1,.659.181c.086,0,.154-.159.264-.181.267-.053.53.061,1.054,0a9.645,9.645,0,0,1,2.9.542l.132-.361c.3.021.644-.034.923,0,.167.02.17.238.791,0l.791.361.527-.18.791.361a.791.791,0,0,1,1.054,0l.527-.361c.21.276.575.124.791.18.368.1.782.522,1.054.181l.791.18.527-.361h.527l1.054.542.527-.181.264.181.527-.181.527.181c.1-.02.158-.159.264-.181.206-.043,1.69.4,2.109.361,1.024-.475,2.37.529,3.427.18.468.471,1.038-.11,1.582,0,.234.047.422.493.923.361v-.361a1.277,1.277,0,0,1,.923.181c1.286.222,2.417-.179,3.163.361l.527-.18c.086,0,.154.159.263.18.5.1.723-.233,1.186-.18v.361l.4-.181.264.181.527-.181c.259.293.658.134,1.054.181a4.627,4.627,0,0,0,2.636-.181l.791.361.527-.181c.482.578,1.3.175,1.845.542l.132-.361c.434-.1.506.144.659.18.209.05.646.154.791.181.975.18,1.8-.126,2.636,0,.646.1,1.179.033,1.845.181.91.2,1.411-.28,2.109.361l.923-.181V23.1a2.08,2.08,0,0,1,1.186-.18c.4.063,1.236.288,1.582,0l.527.361.527-.361c.259.293.658.134,1.054.18.544.064,1.325.086,1.845.181a7.094,7.094,0,0,1,1.845.361l.132-.361,1.054.181v-.271l.527-.271-.264-.09c0-.115.255-.082.264-.09.335-.309.323-.442,1.054-.361-.064-.455.42-.607,1.054-.542V21.3h-.527c.235-.542-.511-1.063,0-1.354-.324-.18-.6-.471-.923-.632a4.307,4.307,0,0,0-1.582-.361c-.993-.16-2.136-.6-3.163-.722-1.432-.165-2.728-.192-3.954-.361-.968-.134-1.7-.044-2.9-.181a14.385,14.385,0,0,0-4.481-.181c-.97-.6-2.862-.334-4.218-.541-3.1-.476-6.818-.894-10.016-1.444-1.521-.261-2.657-.3-4.217-.542-2.564-.4-4.754-.65-7.117-1.083-.908-.166-2.926-.645-3.954-.361-.522-.6-1.358-.25-2.109-.361-.09-.013-.7-.348-.791-.361-.76-.113-1.715-.033-2.636-.181-1.341-.215-2.851-.845-4.217-.542a66.749,66.749,0,0,0-9.49-1.444c-3.1-.354-6.627-.995-10.016-1.444-1.835-.243-3.765-.563-5.536-.722-.455-.041-.981.028-1.45,0,.156-.434.953-.425,1.45-.361a85.029,85.029,0,0,0,10.28,0l.791.361c11.284-.321,21.284.518,32.422,1.083.763.417,1.985.257,2.9.361,3.276.373,7.465.931,11.071,1.264.453.042.982-.028,1.45,0l-.923-.542c-2.546-.237-4.861-.787-7.381-1.083-1.328-.156-3.412-.664-5.008-.9-4.1-.612-8.207-.935-12.389-1.444-4.868-.592-9.734-.945-14.5-1.083-17.606-1.079-32.208-1.408-49.292-1.264-1.145-.477-2.8-.063-3.954-.18-1.44-.147-5.2-.851-6.326-.722-.817.093-1.446-.264-1.845-.181a8.844,8.844,0,0,1-2.9-.18,60.96,60.96,0,0,1-6.59-.722c-.759.484-2.111-.114-2.9-.181-1.492-.126-3.125.215-4.217-.361-.176.023-.376-.032-.527,0-.123.026-.181.246-.527.181-3.441-.649-7.29-.539-10.544-.722C61.544.744,45.088.068,30.219,0" transform="translate(0 0)" fill="#ad1123"/>
        <rect id="Rectangle_10762-2" data-name="Rectangle 10762" width="0.527" height="0.181" transform="translate(54.601 4.332)" fill="#ad1123"/>
        <path id="Path_246825-2" data-name="Path 246825" d="M.128,0C.3,0,.3.181.128.181S-.043,0,.128,0" transform="translate(54.077 4.332)" fill="#ad1123"/>
        <path id="Path_246826-2" data-name="Path 246826" d="M47.447.181C47.7.1,48.73.144,48.9.361L49.687,0c1.666.274,3.127-.034,5.008.181.1.011.176.181.264.181L55.486,0c2,.781,4.055.052,6.063.9a16.917,16.917,0,0,1,5.536.542,45.884,45.884,0,0,1,6.59.542c1.973.232,3.607.321,5.535.722a2.112,2.112,0,0,0,.527,0c.106-.022.16-.161.263-.181a18.375,18.375,0,0,0,4.218.722c.4.046.8-.113,1.054.18l.791-.18,1.055.542a7.647,7.647,0,0,1,3.163.181c1.463.249,3.3.4,4.481.542a10.484,10.484,0,0,1,2.9.541l.527-.18,1.186.18c.052.34-.586.14-.923.181-.1.012-.176.181-.263.181s-.156-.161-.264-.181c-1.986-.363-4.6-.345-6.326-.542-1.341-.153-2.944-.062-3.954-.18a20.835,20.835,0,0,0-3.954-.181c-1.7.194-2.354-.459-3.69-.181a.947.947,0,0,1-.791-.18c-1.664-.208-2.916,0-4.481-.181-1.082-.123-2.277.078-3.69-.181-.586-.107-1.7-.1-2.372-.181-1.749-.2-2.964.022-4.745-.18-1.4-.16-3.557-.222-4.745-.361-1.322-.155-2.753,0-3.954-.181-1.612-.247-3.673.015-4.745-.181-1.73-.316-4.14-.106-5.536-.361-1.334-.244-2.776.051-4.217-.181-1.9-.305-4.035.05-6.063-.18-2.11-.24-6.141-.049-8.171-.361-1.444-.221-3.108.14-4.481,0a44.286,44.286,0,0,0-6.063-.361c-1.665.19-3.908-.471-5.8-.181A33.415,33.415,0,0,1,4.876.722c-.927-.116-2.692.33-3.69-.181L.4.9,0,.361C.67.415,1.532.2,1.977.542L2.5.181A21.1,21.1,0,0,0,5.931.361c.1-.012.176-.181.263-.181s.907.467,1.318,0l.659.361V.181a14.128,14.128,0,0,0,1.977.181,22.084,22.084,0,0,1,3.69,0,33.977,33.977,0,0,1,3.69,0A3.084,3.084,0,0,0,18.847.181a.786.786,0,0,0,.659.181V0l1.45.361A15.823,15.823,0,0,1,22.8.181a10.643,10.643,0,0,1,2.9.181A5.533,5.533,0,0,0,27.282.181c.268-.049.573.089.791-.181L28.6.361h.527L29.654,0l.923.361V0A1.894,1.894,0,0,0,32.29,0l.791.361C34.366-.29,36.14.373,37.825.181A25.535,25.535,0,0,0,41.516,0h.527l.527.361C43.235-.222,44.642.253,45.733,0c.4.286.678-.214,1.45.181L47.315,0Z" transform="translate(50.911 8.123)" fill="#ad1123"/>
        <path id="Path_246827-2" data-name="Path 246827" d="M0,.361.659,0l.659.18L.659.542Z" transform="translate(49.329 8.303)" fill="#ad1123"/>
        <rect id="Rectangle_10763-2" data-name="Rectangle 10763" width="0.264" height="0.361" transform="translate(44.848 8.303)" fill="#ad1123"/>
        <rect id="Rectangle_10764-2" data-name="Rectangle 10764" width="1.318" height="0.181" transform="translate(47.748 8.484)" fill="#ad1123"/>
        <rect id="Rectangle_10765-2" data-name="Rectangle 10765" width="1.054" height="0.181" transform="translate(45.375 8.484)" fill="#ad1123"/>
        <path id="Path_246828-2" data-name="Path 246828" d="M.264,0H0C.012.006-.036.181.132.181.307.15.25,0,.264,0" transform="translate(98.094 8.303)" fill="#ad1123"/>
        <path id="Path_246829-2" data-name="Path 246829" d="M.264,0H0L.132.181Z" transform="translate(107.583 16.065)" fill="#ad1123"/>
        <path id="Path_246830-2" data-name="Path 246830" d="M0,.181C.346.183.346,0,0,0Z" transform="translate(225.673 22.743)" fill="#ad1123"/>
      </g>
    </g>
  </g>
</svg>
