<svg xmlns="http://www.w3.org/2000/svg" xmlns:xlink="http://www.w3.org/1999/xlink" width="25" height="22" viewBox="0 0 25 22">
  <defs>
    <clipPath id="clip-path">
      <rect id="Rectangle_314" data-name="Rectangle 314" width="25" height="22" transform="translate(528 530)" fill="#fff" stroke="#707070" stroke-width="1"/>
    </clipPath>
  </defs>
  <g id="Mask_Group_52" data-name="Mask Group 52" transform="translate(-528 -530)" clip-path="url(#clip-path)">
    <g id="data_science" transform="translate(516.54 515.036)">
      <path id="Path_221435" data-name="Path 221435" d="M26.377,20.586q.78.658,1.525,1.4c4.313,4.314,6.3,9.419,4.152,11.566-1.26,1.259-3.532,1.117-6.149-.162a.629.629,0,0,1,.552-1.13c2.189,1.069,3.931,1.179,4.707.4,1.456-1.457-.276-5.911-4.152-9.786q-.7-.7-1.446-1.329a.629.629,0,1,1,.811-.962ZM29.227,27a.628.628,0,0,1,.073.887q-.641.756-1.4,1.513c-4.314,4.313-9.419,6.3-11.565,4.152-1.259-1.259-1.118-3.529.16-6.145a.629.629,0,0,1,1.13.552c-1.068,2.187-1.177,3.928-.4,4.7,1.456,1.456,5.91-.276,9.786-4.152q.719-.719,1.328-1.437a.63.63,0,0,1,.888-.07Zm-6.746-9a.63.63,0,0,1-.552,1.131c-2.187-1.068-3.927-1.177-4.7-.4-1.457,1.456.276,5.91,4.152,9.786q.7.7,1.442,1.325a.629.629,0,1,1-.811.962c-.519-.436-1.027-.9-1.522-1.4-4.313-4.314-6.3-9.419-4.151-11.565,1.258-1.259,3.528-1.118,6.144.159Zm1.748,5.515a.358.358,0,0,1,.259.262l.26,1.087a.534.534,0,0,0,.375.389l.959.269a.33.33,0,0,1-.012.639l-.909.218a.535.535,0,0,0-.4.406l-.27,1.239a.349.349,0,0,1-.682,0l-.27-1.238a.533.533,0,0,0-.4-.406l-.942-.222a.332.332,0,0,1-.014-.643l.947-.265a.532.532,0,0,0,.373-.379l.287-1.1a.357.357,0,0,1,.435-.256Zm7.825-5.675c1.26,1.26,1.119,3.538-.161,6.158a.629.629,0,0,1-1.13-.552c1.07-2.192,1.18-3.939.4-4.716-1.457-1.457-5.911.276-9.786,4.152q-.708.707-1.334,1.451a.629.629,0,1,1-.962-.81c.438-.522.909-1.034,1.406-1.531,4.314-4.313,9.419-6.3,11.566-4.151Z" fill="#fff"/>
    </g>
  </g>
</svg>
