<svg xmlns="http://www.w3.org/2000/svg" width="97.766" height="81.906" viewBox="0 0 97.766 81.906">
  <g id="noun-pie-chart-7941261" transform="translate(-4.744 -12.071)">
    <path id="Path_233152" data-name="Path 233152" d="M37.586,32.454l6.225-3.088,6.486-.931v11.2l-.115,9.925-6.241-8.4Z" fill="#e6e6e6"/>
    <path id="Path_233153" data-name="Path 233153" d="M10772.812,2379.823l13.566,18.01,21.8,7.546-1.09,4.063-4.779,5.424-5.311,3.15-6.1,2.966-9.649-.856-7.442-3.263-6.331-6.465-1.625-2.832,1.017-2.188,1.062-1.219v-1.927l1.051-2.084-.421-1.754.421-2.632v-1.122l-3.129.361,1.017-4.04-1.468-2.29,4.954-7.65Z" transform="translate(-10735.998 -2346.273)" fill="#e6e6e6"/>
    <path id="Path_233141" data-name="Path 233141" d="M74.138,52.949a.4.4,0,0,0-.291.093.4.4,0,0,0-.139.274,22.59,22.59,0,0,1-.92,4.764L51.182,51.155V28.469a23.075,23.075,0,0,1,14.259,5.262.412.412,0,0,0,.519-.629,24.049,24.049,0,0,0-37.194,8.959.409.409,0,0,0,0,.308.414.414,0,0,0,.219.219h.165a.408.408,0,0,0,.367-.236,22.961,22.961,0,0,1,7.313-9.326L50.371,51.7a.529.529,0,0,0,.186.131l21.909,7.022h0a23.02,23.02,0,0,1-42.291,3.1.407.407,0,0,0-.553-.173.4.4,0,0,0-.2.232.412.412,0,0,0,.025.308,23.852,23.852,0,0,0,45-8.947.406.406,0,0,0-.312-.422ZM50.372,28.427V50.206L37.484,32.584A23.059,23.059,0,0,1,50.3,28.428ZM19.5,50.7a4.4,4.4,0,0,1,3.68-4.431l6.98-1.19a.391.391,0,0,1,.3.068.386.386,0,0,1,.16.27,3.883,3.883,0,0,1-.776,2.785l-.291.333,3.089-.291a.413.413,0,0,1,.443.371,5.055,5.055,0,0,1-.776,3.14c.43,1.156.692,3.241-.726,4.2a2.164,2.164,0,0,1,.291,1.688c-.346,1.3-2.009,2.321-4.925,3.055h-.1a.424.424,0,0,1-.4-.312.4.4,0,0,1,.046-.3.393.393,0,0,1,.245-.181c3.435-.865,4.2-1.933,4.321-2.486a1.382,1.382,0,0,0-.224-1.08,37.347,37.347,0,0,1-7.186,1.511.4.4,0,0,1-.4-.354.407.407,0,0,1,.359-.456s5.4-.625,7.326-1.62c1.19-.6.983-2.161.755-2.971a3.723,3.723,0,0,1-1.861.823c-3.241.506-6.385,1.08-6.418,1.08h-.072a.415.415,0,0,1-.4-.333.4.4,0,0,1,.068-.3.4.4,0,0,1,.257-.169s3.186-.582,6.482-1.08a3.162,3.162,0,0,0,2.583-3.389L28.4,49.45a9.126,9.126,0,0,1-3.456,1.025.414.414,0,0,1-.456-.359.425.425,0,0,1,.359-.452,8.262,8.262,0,0,0,3.241-.962,4.252,4.252,0,0,0,1.156-1,3.27,3.27,0,0,0,.6-1.739l-6.482,1.08a3.6,3.6,0,0,0-3.013,3.616c.076,4.612,1.19,13.027,7.874,17.47a.379.379,0,0,1,.173.249c1.232,5.4,4.688,19.728,6.081,21.842,1.08.527,12.339,5.6,20.171.207l-8.3-13.081a.392.392,0,0,1,.127-.553.4.4,0,0,1,.553.118L55.5,90.35a.416.416,0,0,1-.11.549,15.7,15.7,0,0,1-9.427,2.823,30.428,30.428,0,0,1-11.972-2.789.581.581,0,0,1-.152-.1c-1.684-2.245-5.79-20.061-6.245-22.07-6.87-4.688-8.026-13.322-8.1-18.061Zm82.489,38.89c-.443.186-7.659,3.317-13.913,3.317-2.743,0-5.292-.6-7.009-2.321l0,0a.353.353,0,0,1-.11-.181l-7.2-27.754a.405.405,0,0,1,.3-.452.415.415,0,0,1,.485.245L81.7,90.067c4.8,4.612,17.125-.084,19.529-1.08L81.4,53.134a.459.459,0,0,1,0-.152l-.886-9.368a2.675,2.675,0,0,0-1.186-1.988l-7.452-4.946h0a3.626,3.626,0,0,0-4.891.819l-2.021,2.561a2.018,2.018,0,0,0-.388,1.5,1.994,1.994,0,0,0,.8,1.329l.207.152,4.84-5.4a.413.413,0,0,1,.57,0,.4.4,0,0,1,0,.57l-2.245,2.549-2.861,3.621a1.307,1.307,0,0,0-.241,1.08,1.264,1.264,0,0,0,2.161.553l3.469-4.106.055-.063c1.544-1.806,1.62-1.793,1.827-1.717l-.291.755.152-.38.27.291-1.3,1.566-3.241,3.878A1.426,1.426,0,0,0,70.9,48.087l5.022-5.756a.4.4,0,0,1,.287-.122.389.389,0,0,1,.287.122.4.4,0,0,1,0,.57l-3.511,4.072a.168.168,0,0,1-.063.16L71.34,48.885l.464.283a1.946,1.946,0,0,0,2.41-.312l3.068-3.178a.41.41,0,0,1,.574,0,.421.421,0,0,1,0,.582l-3.068,3.165v0a2.781,2.781,0,0,1-1.988.84,2.726,2.726,0,0,1-1.426-.4L70.5,49.34h0a2.229,2.229,0,0,1-2.84-1.717,1.71,1.71,0,0,1,0-.464,2.165,2.165,0,0,1-.768.152,2.077,2.077,0,0,1-1.629-3.351l-.4-.291a2.812,2.812,0,0,1-1.08-1.869,2.743,2.743,0,0,1,.553-2.093l1.954-2.591v0a4.444,4.444,0,0,1,5.984-1.017l7.452,4.958,0,0a3.446,3.446,0,0,1,1.544,2.578l.886,9.279L102.225,89a.444.444,0,0,1-.236.57ZM5.109,32.963a4.74,4.74,0,0,1,3.629-5.629l34.485-7.452,34.472-7.444h0a4.748,4.748,0,0,1,5.642,3.629l8.828,40.865,0,0a4.665,4.665,0,0,1-.11,2.384.372.372,0,0,1-.376.283.189.189,0,0,1-.118,0,.393.393,0,0,1-.241-.194.4.4,0,0,1-.03-.3,3.873,3.873,0,0,0,.076-1.988L82.531,16.3a3.865,3.865,0,0,0-1.7-2.473,3.919,3.919,0,0,0-2.962-.54L43.392,20.734,8.911,28.178a3.934,3.934,0,0,0-3.017,4.667l8.828,40.814A3.942,3.942,0,0,0,19.4,76.672l6.178-1.338,0,0a.411.411,0,0,1,.473.316.375.375,0,0,1-.046.3.383.383,0,0,1-.253.173l-6.191,1.338v0a4.462,4.462,0,0,1-1,.105,4.74,4.74,0,0,1-4.625-3.735Zm8.815.215a1.107,1.107,0,0,0-.477-.679,1.066,1.066,0,0,0-.823-.139.412.412,0,0,1-.16-.8,1.895,1.895,0,1,1,.8,3.705,1.66,1.66,0,0,1-.409,0A1.916,1.916,0,0,1,11,33.774a.409.409,0,0,1,.316-.485.387.387,0,0,1,.3.051.4.4,0,0,1,.169.262,1.123,1.123,0,0,0,.477.679,1.139,1.139,0,0,0,.819.152,1.08,1.08,0,0,0,.836-1.253ZM19.1,32.1a1.082,1.082,0,0,0-1.287-.831.421.421,0,0,1-.485-.312.412.412,0,0,1,.312-.477,1.9,1.9,0,0,1,1.447.241,1.873,1.873,0,0,1,.84,1.2,1.892,1.892,0,0,1-.266,1.443,1.912,1.912,0,0,1-1.22.814,1.593,1.593,0,0,1-.4,0,1.884,1.884,0,0,1-1.848-1.49.416.416,0,0,1,.3-.489.424.424,0,0,1,.485.316,1.1,1.1,0,0,0,2.161-.456Zm5.034-.3v0a1.1,1.1,0,0,0,.139-.823,1.072,1.072,0,0,0-.464-.679,1.15,1.15,0,0,0-.823-.152.39.39,0,0,1-.473-.3.4.4,0,0,1,.046-.3.41.41,0,0,1,.253-.181,1.9,1.9,0,0,1,.8,3.705,2.12,2.12,0,0,1-.4,0,1.916,1.916,0,0,1-1.848-1.5.4.4,0,0,1,.316-.473.4.4,0,0,1,.473.312,1.084,1.084,0,0,0,.477.679,1.059,1.059,0,0,0,.819.139,1.074,1.074,0,0,0,.684-.452Z" transform="translate(0 0)" stroke="#000" stroke-width="0.5"/>
  </g>
</svg>
