<svg xmlns="http://www.w3.org/2000/svg" width="67.267" height="88.479" viewBox="0 0 67.267 88.479">
  <g id="noun-freelancer-1212961" transform="translate(-11.774 -5.828)">
    <g id="Group_16968" data-name="Group 16968">
      <path id="Path_233150" data-name="Path 233150" d="M11439.915,2358.61l13.613-8.316,6,18.285-9.875,4.689Z" transform="translate(-11390 -2343.48)" fill="#e6e6e6"/>
      <path id="Path_233151" data-name="Path 233151" d="M11449.668,2377.713l12.82,5.182v17.053l-2.217,6.662-2.048,5.727-3.43,5.7-11.218-3.411,3.937-3.208,2.773-5.693,1.082-5.908.23-8.1-1.559-6.157Z" transform="translate(-11390 -2343.48)" fill="#e6e6e6"/>
    </g>
    <path id="Path_233143" data-name="Path 233143" d="M52.863,93.96c.344-1.065.371-2.35.929-2.649a35.586,35.586,0,0,1,5.063-1.885c.066.2.133.4.2.593-.662.159-1.34.274-1.984.488a9.737,9.737,0,0,0-2.171.9,2.572,2.572,0,0,0-1.13,1.925l7.168-1.879C57.674,87.63,50.607,79.8,50.523,79.66l9.223-5.9-4.3-1.135c.055.161-7.864,3.36-11.78,4.763,2.1,3.274,6.914,10.935,6.832,10.877-1.772.746-4.244,1.824-6.014,2.47-.314.114-.714-.318-.891-.634a8.025,8.025,0,0,1-.536-1.968c1.731-.812,3.406-1.6,5.392-2.533-1.985-2.9-3.9-5.694-5.909-8.624,3.637-1.162,11.916-4.239,12.243-4.43-1.319-.475-3.394-1.731-3.284-1.572,3.3.118,4.813-2.2,6.261-4.634,3.918-6.586,4.005-13.687,2.844-20.961-.1-.627-.1-1.271-.158-2,.244.042.459.031.48.089a6.13,6.13,0,0,1,.34,1.205c1.2,9.21.99,18.118-5.717,25.548a8.278,8.278,0,0,1-1.932,1.161l11.2,3.333c4.4-6.859,7.738-14.137,8.039-22.4a76.447,76.447,0,0,0-.861-12.988c-.029.1-.7-.369-.664-.352L43.148,47.606c-.075-.245-.149-.49-.225-.734,4.555-1.291,9.129-2.52,13.662-3.89,4.566-1.381,9.092-2.9,14.135-4.524L59.466,34.074c.467,2.308.874,4.329,1.285,6.361l-.58.352c-.5-2.374-.982-4.688-1.523-7.27L41.685,43.23c.354,1.282,1.063,2.951,1.521,4.6-.46-.173-.844.278-.87.158-.244-1.126-.766-3.125-.981-4.341l-4.117.931c.629,1.014,1.219,1.964,1.793,2.891-.113.185-.17.279-.319.52h5.329v4a3.479,3.479,0,0,1,1.876.492q-12.026.117-24.05.2c-.167,0-.334,0-.756,0V86.693l-.4,0V52.525c-2.96-.277-5.65-.1-8.384-.376-.139-.015-.051-.129-.177-.269.142-.1,8.489.229,12.658.363,5.652.184,11.319-.034,16.979-.087a1.979,1.979,0,0,0,1.609-.625H27.568l.027-.446h15.7V48.847L26.539,47.274l-8.1-17.652c-.037.022,5.7,14.174,8.744,21.553.166-.243.067.025-.039.029a.639.639,0,0,1-.516-.262c-1.622-3.758-3.191-7.539-4.835-11.287-1.386-3.16-2.855-6.284-4.285-9.425-.157-.344.088-1.735.639-1.533s1.314,1.57,1.733,2.466c2.222,4.746,4.294,9.564,6.614,14.262.362.732,1.682,1.178,2.64,1.39,1.877.415,3.811.57,5.838.849-.176-.695-.54-1.334-.4-1.829.117-.411.83-.651,1.291-.976-.036-.089-.128-.323-.175-.439C42.107,43.034,58.4,33.1,58.456,33.011L72.645,38.6a64.446,64.446,0,0,1,.379,17.459c-.783,6.094-3.459,11.447-6.621,17.181,2.335-.127,4.543.212,6.283-.537.875-.378,3.584-20.164,4.568-28.167a41.515,41.515,0,0,0,.52-6.29c-.008-.174.779.033.994-.121a182.868,182.868,0,0,1-2.076,19.117c-.859,5.709-3.609,16.739-3.672,16.686-.961,0-2.5-.021-3.436-.021.295,6.435.588,12.831.881,19.228l-.5.025c-.322-6.431-.645-12.86-.961-19.2l-2.68-.523-.818,1.309c.158.283-1.224.467-1.955.239a15.792,15.792,0,0,0-3.262-.895c-.528-.044-1.123.639-1.68,1-2.278,1.487-4.553,2.979-7.008,4.588,3.412,3.994,6.879,8.055,10.2,11.945C62.307,91.634,56.09,93.187,52.863,93.96ZM44.1,90.421l5.528-2.409-1.255-1.861L43.6,88.536C43.78,89.225,43.926,89.777,44.1,90.421ZM38.454,47.839c-.422-.8-.773-1.467-1.115-2.118-.232.061-1.616-.011-2.316.021.276.754.482,1.317.7,1.919Z" stroke="#000" stroke-width="0.5" fill-rule="evenodd"/>
    <path id="Path_233144" data-name="Path 233144" d="M64.16,6.916c1.91,6.17,3.818,12.341,5.764,18.629-2.826,1.455-5.555,2.778-8.2,4.246-2.9,1.6-3.439-1.382-4.334-2.545-2.779-3.614-5.084-7.594-7.6-11.477l.13-.1c3.321,4.818,6.571,9.518,9.9,14.35,3.419-1.8,6.361-3.233,9.376-4.824L63.609,7.08" stroke="#000" stroke-width="0.5" fill-rule="evenodd"/>
    <path id="Path_233145" data-name="Path 233145" d="M37.094,53.34a1.38,1.38,0,0,1,.119.418C36.7,65.029,36.176,76.3,35.381,87.572l.879-34.227Z" stroke="#000" stroke-width="0.5" fill-rule="evenodd"/>
    <path id="Path_233146" data-name="Path 233146" d="M63.679,6.339c-6.53,4-12.857,7.886-19.3,11.839-.007-.008-.073-.08-.352-.38C50.369,13.826,56.6,9.921,62.848,6.04" stroke="#000" stroke-width="0.5" fill-rule="evenodd"/>
    <path id="Path_233147" data-name="Path 233147" d="M55.408,78.419c0,1.1,0,2.21-.017,3.314a2.656,2.656,0,0,1-.374.042q-.134-1.659-.268-3.318Z" stroke="#000" stroke-width="0.5" fill-rule="evenodd"/>
    <path id="Path_233148" data-name="Path 233148" d="M55.16,85.791v3.474c.044-.018-.12.107-.207.066-.143-.066-.338-.243-.334-.368.029-1.06.1-2.118.158-3.177Z" stroke="#000" stroke-width="0.5" fill-rule="evenodd"/>
    <path id="Path_233149" data-name="Path 233149" d="M54.109,76.4c.2-1.1.312-1.69.422-2.282l.372.018c0,.521.026,1.043-.019,1.559C54.874,75.827,54.637,75.937,54.109,76.4Z" stroke="#000" stroke-width="0.5" fill-rule="evenodd"/>
  </g>
</svg>
