<svg xmlns="http://www.w3.org/2000/svg" xmlns:xlink="http://www.w3.org/1999/xlink" width="104.251" height="72.521" viewBox="0 0 104.251 72.521">
  <defs>
    <clipPath id="clip-path">
      <rect id="Rectangle_10784" data-name="Rectangle 10784" width="104.251" height="72.521"/>
    </clipPath>
  </defs>
  <g id="Group_42636" data-name="Group 42636" transform="translate(0 0)">
    <g id="Group_42635" data-name="Group 42635" transform="translate(0 0)" clip-path="url(#clip-path)">
      <path id="Path_247225" data-name="Path 247225" d="M102.955,38.911a36.7,36.7,0,0,0-2.65-3.15q-.179-.19-.361-.376c-.056-.059-.113-.116-.17-.174a.266.266,0,0,0-.036-.037c-.041-.029.011.026.012.027a2.346,2.346,0,0,1-.157-.176q-.358-.354-.718-.705-.72-.7-1.479-1.357c-.6-.518-1.209-1.014-1.835-1.5l.2.2a2.435,2.435,0,0,0-.61-.512c-.159-.115-.319-.23-.479-.344q-.467-.33-.943-.646-.976-.648-1.986-1.238A41.789,41.789,0,0,0,87.578,26.8q-.584-.258-1.175-.5l-.275-.112L86,26.137l-.016-.006q.17.068.012,0c-.047-.02-.093-.039-.141-.057-.184-.072-.369-.141-.555-.211q-1.1-.412-2.213-.765a45.508,45.508,0,0,0-4.563-1.183,48.093,48.093,0,0,0-4.8-.727,45.232,45.232,0,0,0-9.436.027,46.26,46.26,0,0,0-4.817.771,44.039,44.039,0,0,0-4.6,1.262,49.934,49.934,0,0,0-4.68,1.829q-2.226,1-4.349,2.212t-4.121,2.616q-1,.7-1.963,1.442l-.352.272c-.038.03-.077.059-.115.089l.047-.036c.1-.075.062-.048-.1.08l-.072.056c-.162.128-.323.256-.483.386q-.475.384-.942.777-1.869,1.576-3.6,3.309T30.8,41.9q-1.647,1.939-3.136,4.008-1.439,2-2.721,4.1t-2.4,4.315Q21.387,56.6,20.419,58.95c-.148.358-.3.714-.431,1.08a5.342,5.342,0,0,0-.256,1.185,3.165,3.165,0,0,0,.071,1.14,1.96,1.96,0,0,0,.743,1.1,1.91,1.91,0,0,0,1.489.275,6.98,6.98,0,0,0,1.428-.57l-.18.076a4.156,4.156,0,0,1,1.016-.272l-.2.027a4.868,4.868,0,0,1,1.234.01l-.2-.027a8.025,8.025,0,0,1,2,.58l-.181-.077c1.338.567,2.571,1.351,3.85,2.035q1.854.993,3.776,1.851,2,.895,4.06,1.649,1.976.721,4,1.305t4.1,1.033q2.058.444,4.14.749c1.449.212,2.9.379,4.364.493q2.1.165,4.2.187t4.226-.1q2.1-.119,4.188-.384c1.451-.183,2.9-.412,4.332-.7q2.064-.408,4.094-.962,2-.546,3.962-1.236,1.943-.686,3.827-1.53c1.212-.543,2.4-1.141,3.552-1.8a34.041,34.041,0,0,0,3.3-2.142,29.991,29.991,0,0,0,3.12-2.626,25.913,25.913,0,0,0,2.679-3.059,23.782,23.782,0,0,0,2.2-3.579,35.2,35.2,0,0,0,1.775-4.265c.488-1.408.906-2.84,1.3-4.279.2-.722.386-1.446.575-2.171a17.754,17.754,0,0,0,.524-2.5,5.51,5.51,0,0,0-.253-2.413,9.327,9.327,0,0,0-1.08-2.082,29.381,29.381,0,0,0-4.648-5.376,31.054,31.054,0,0,0-2.8-2.252A32.862,32.862,0,0,0,91.42,27.5a32.216,32.216,0,0,0-3.089-1.536c-1.1-.479-2.225-.91-3.37-1.28q-1.656-.535-3.359-.91c-1.182-.26-2.377-.458-3.577-.607q-1.737-.215-3.487-.268t-3.482.059c-1.212.078-2.42.217-3.617.41q-1.725.278-3.416.724a33.764,33.764,0,0,0-3.307,1.052q-1.774.668-3.478,1.512-1.641.812-3.2,1.777t-3.03,2.076q-1.51,1.138-2.918,2.4-1.37,1.233-2.632,2.58t-2.407,2.785c-.794,1-1.554,2.022-2.27,3.077q-1.041,1.531-1.962,3.139t-1.729,3.3q-.823,1.727-1.516,3.514-.675,1.738-1.218,3.522T33.412,58.4a35.9,35.9,0,0,0-.691,4.028,16.66,16.66,0,0,0,.053,4.242,9.288,9.288,0,0,0,.986,3c.019.034.035.073.057.1.041.059-.03-.078-.029-.075a1.8,1.8,0,0,0,.08.183c.041.076.091.148.137.22q.126.193.263.379a9.725,9.725,0,0,0,2.87,2.566,16.337,16.337,0,0,0,3.5,1.511,37.041,37.041,0,0,0,3.646.9q2.131.437,4.274.81,2.244.386,4.5.676c1.448.184,2.9.332,4.357.433s2.909.154,4.366.149c1.435-.005,2.87-.068,4.3-.2a42.283,42.283,0,0,0,4.393-.633,34.622,34.622,0,0,0,4.1-1.084A32.546,32.546,0,0,0,78.7,73.934a26.19,26.19,0,0,0,2.926-1.684,28.656,28.656,0,0,0,2.772-2.1,28.27,28.27,0,0,0,2.376-2.293,31.486,31.486,0,0,0,2.213-2.692A30.711,30.711,0,0,0,90.8,62.386a31.918,31.918,0,0,0,1.523-2.973A34.022,34.022,0,0,0,93.6,56.145a32.187,32.187,0,0,0,.879-3.21,33.479,33.479,0,0,0,.564-3.462,29.825,29.825,0,0,0,.183-3.308,29.238,29.238,0,0,0-.186-3.317,29.726,29.726,0,0,0-.584-3.416,27.615,27.615,0,0,0-.953-3.186,20.336,20.336,0,0,0-1.573-3.456,8.208,8.208,0,0,0-1.337-1.723,6.354,6.354,0,0,0-1.965-1.262,13.723,13.723,0,0,0-4.25-.8q-2.492-.2-4.989-.332t-4.971-.208q-2.5-.074-5-.078c-1.538,0-3.075.02-4.612.048a.719.719,0,0,0-.673.512,59.021,59.021,0,0,0-1.8,6.291,61.681,61.681,0,0,0-1.115,6.59,60.467,60.467,0,0,0-.394,6.531A61.081,61.081,0,0,0,62.166,61.5c.056.262.115.525.174.788a.712.712,0,0,0,1.181.312,24.091,24.091,0,0,0,4.507-6.393A26.56,26.56,0,0,0,69.5,52.493a26.11,26.11,0,0,0,.867-3.772,27.453,27.453,0,0,0,.325-4,26.686,26.686,0,0,0-.293-4.015,23.645,23.645,0,0,0-.859-3.742A23.974,23.974,0,0,0,68,33.254,12.231,12.231,0,0,0,65.5,29.826a5.827,5.827,0,0,0-3.892-1.735,4.577,4.577,0,0,0-1.084.143.69.69,0,0,0-.5.656,29.531,29.531,0,0,1-.251,4.135l-.035.275c0,.03-.009.061-.012.091-.021.16.021-.152,0,.009-.025.183-.051.366-.077.549q-.074.5-.154,1.006c-.109.686-.225,1.37-.34,2.055a45.054,45.054,0,0,0-.887,8.232,17.525,17.525,0,0,0,1.142,5.988,12.563,12.563,0,0,0,3.308,4.982A8.161,8.161,0,0,0,68.194,58.4a8.021,8.021,0,0,0,.831-.08l-.18.024a4.286,4.286,0,0,0,.792-.141c.2-.049.4-.108.593-.176a6.338,6.338,0,0,0,1.253-.591,4.53,4.53,0,0,0,1.764-1.914,3.957,3.957,0,0,0,.364-1.586.717.717,0,1,0-1.433,0,3.459,3.459,0,0,1-.029.412l.026-.191c-.016.111-.04.222-.045.333l.026-.19a3.362,3.362,0,0,1-.091.372c-.017.054-.035.107-.055.16a.56.56,0,0,0-.036.091c0,.017.073-.166.045-.1l-.023.052a3.383,3.383,0,0,1-.176.333c-.029.048-.059.1-.091.141a1.1,1.1,0,0,0-.114.159c-.005.015.109-.137.067-.086-.012.014-.023.029-.036.044s-.036.044-.054.065c-.043.051-.087.1-.133.148-.085.09-.175.176-.269.258-.047.041-.094.082-.144.121l-.034.027c-.047.039.09-.064.083-.064s-.074.056-.094.07q-.156.114-.32.214c-.115.07-.233.137-.353.2-.059.03-.117.059-.176.087s-.3.122-.059.03a7.04,7.04,0,0,1-.774.262c-.13.034-.262.063-.394.089-.066.012-.133.022-.2.034-.03.005-.061.01-.091.017s-.14.015.087-.012l-.062.008a6.024,6.024,0,0,1-.822.045c-.133,0-.267-.009-.4-.02-.066-.005-.132-.012-.2-.02-.111-.012.167.025.057.008l-.121-.019a6.64,6.64,0,0,1-.812-.2c-.137-.041-.273-.086-.408-.134l-.178-.066-.1-.041-.044-.018c-.083-.033.059.026.069.03a5.5,5.5,0,0,1-.744-.362,8.01,8.01,0,0,1-.7-.434l-.164-.117-.075-.055c-.021-.016-.144-.109-.045-.034s0,0-.02-.016l-.084-.068c-.052-.042-.1-.086-.155-.13a9.741,9.741,0,0,1-1.175-1.192c-.041-.048-.081-.1-.12-.147l-.069-.087-.029-.037c-.054-.068.034.045.042.055-.093-.108-.173-.231-.255-.347q-.246-.349-.467-.714a13.446,13.446,0,0,1-.8-1.537l-.086-.2c-.026-.059.032.084.033.078s-.015-.037-.019-.046c-.017-.041-.034-.082-.05-.123-.055-.134-.106-.268-.156-.4q-.155-.415-.285-.838a16.753,16.753,0,0,1-.433-1.723q-.088-.444-.151-.892c0-.032-.006-.068-.014-.1,0-.012.021.158.012.087,0-.016,0-.034-.006-.05q-.015-.116-.028-.232c-.017-.148-.032-.3-.045-.447a17.343,17.343,0,0,1-.063-1.8c.012-.814.064-1.628.144-2.438q.06-.608.138-1.215c.005-.045.012-.091.018-.137,0-.02.026-.2.012-.1s.007-.049.01-.073l.026-.183c.027-.2.057-.4.087-.594.245-1.625.547-3.239.8-4.862.134-.849.257-1.7.355-2.552q.07-.607.121-1.215c.009-.1.016-.2.023-.3,0-.046.007-.091.01-.137,0-.023,0-.046,0-.069s0-.03,0-.045q.006-.077-.012.061a.66.66,0,0,0,.026-.2l0-.069c0-.046.005-.092.009-.138.006-.107.012-.215.017-.322q.029-.6.03-1.2l-.5.655c.13-.03.262-.055.394-.073l-.182.024a3.84,3.84,0,0,1,.979,0l-.184-.024a4.176,4.176,0,0,1,.807.2c.066.023.131.048.2.074.127.05-.162-.072-.037-.016l.064.029c.141.064.277.136.411.212a6.838,6.838,0,0,1,.7.461c.113.084-.137-.109-.027-.02l.087.07c.059.048.116.1.173.145.115.1.226.2.335.307.222.213.431.439.63.672.092.109.181.219.269.33s-.1-.139-.017-.023l.069.093c.047.062.092.124.137.187a13.1,13.1,0,0,1,.934,1.537q.436.829.8,1.693l-.073-.174a24.192,24.192,0,0,1,1.448,4.8q.135.7.23,1.41l-.026-.2a25.851,25.851,0,0,1,.151,5.326q-.057.759-.159,1.513l.026-.194A26.022,26.022,0,0,1,67.5,53.862c-.043.109-.086.219-.13.328-.024.06-.048.12-.073.18l-.034.082-.027.065.038-.09c-.1.232-.2.464-.308.693q-.326.705-.694,1.388a23.832,23.832,0,0,1-1.606,2.568c-.086.119-.173.238-.261.356l-.128.169-.053.07c-.074.1.116-.15,0,0q-.26.334-.534.658-.559.663-1.167,1.28l1.18.312q-.62-2.687-.988-5.422c.009.062.016.123.025.186a60.1,60.1,0,0,1-.507-6.231,59.415,59.415,0,0,1,.148-6.228q.134-1.756.369-3.5c-.009.061-.016.123-.025.184q.31-2.3.8-4.571t1.155-4.516q.375-1.257.806-2.5l-.673.513c2.8-.049,5.6-.018,8.4.049s5.6.194,8.389.378q1.163.077,2.324.167c.7.054,1.394.106,2.087.2l-.194-.026a9.56,9.56,0,0,1,2.392.6l-.175-.073a5.6,5.6,0,0,1,1.12.622l.064.047c.1.069-.048-.039-.054-.041a.7.7,0,0,1,.123.1c.081.067.159.137.236.209a6.2,6.2,0,0,1,.448.469c.065.075.126.152.188.229s-.037-.048-.041-.054c.016.02.032.042.048.063.035.048.07.1.1.144.123.173.24.351.351.532.223.365.423.742.611,1.126s.361.772.527,1.165c-.024-.058-.049-.116-.073-.174a26.135,26.135,0,0,1,1.585,5.251q.145.76.247,1.527l-.026-.194a29.646,29.646,0,0,1,.161,6.248q-.07.888-.189,1.771c.009-.066.018-.133.027-.2a32.058,32.058,0,0,1-1.563,6.441q-.313.88-.675,1.741l.076-.18a31.791,31.791,0,0,1-3.053,5.6q-.5.733-1.045,1.437l.118-.152a29.073,29.073,0,0,1-3.689,3.958q-.494.439-1.009.853-.131.107-.265.211l-.127.1c-.073.057.163-.125.062-.048l-.077.059q-.269.206-.543.4a26.248,26.248,0,0,1-2.279,1.478,28.471,28.471,0,0,1-3.161,1.561l.176-.075a33.759,33.759,0,0,1-6.869,2.039q-1,.189-2.01.323l.194-.026a46.951,46.951,0,0,1-5.978.4c-2.032.01-4.065-.094-6.088-.28q-1.713-.158-3.419-.39l.19.026c-1.742-.235-3.477-.519-5.205-.838-1.594-.294-3.191-.593-4.763-.988-.733-.184-1.459-.393-2.172-.643-.171-.06-.341-.122-.511-.187l-.252-.1-.117-.048-.066-.027.052.022c-.338-.147-.673-.3-1-.472s-.637-.351-.942-.549q-.226-.148-.445-.307c-.066-.048-.13-.1-.194-.146.185.14.045.034,0,0l-.108-.087a8.513,8.513,0,0,1-.785-.735c-.123-.131-.243-.267-.357-.407l-.077-.1c-.014-.018-.03-.037-.043-.055,0,0,.109.144.045.057s-.112-.151-.166-.229-.1-.148-.151-.223l-.075-.118c-.028-.046-.241-.336-.141-.2.069.09-.015-.035-.031-.063-.027-.045-.053-.091-.079-.137-.052-.091-.1-.184-.148-.277s-.082-.164-.12-.247c-.022-.048-.044-.1-.065-.143-.011-.023-.021-.048-.031-.072-.036-.082.012.027.021.051-.069-.191-.148-.376-.212-.569A9.577,9.577,0,0,1,34,66.436c-.04-.2-.073-.4-.1-.6-.005-.037-.012-.119.005.046,0-.02,0-.04-.007-.059-.007-.053-.013-.105-.019-.158-.012-.106-.023-.212-.032-.319a14.507,14.507,0,0,1,.024-2.484q.027-.315.062-.629c.012-.1.024-.2.037-.3.006-.047.012-.094.018-.141.011-.082-.016.12,0,.037l.014-.1q.088-.62.2-1.237.4-2.2,1.009-4.355t1.4-4.242q.2-.515.405-1.027.105-.26.214-.518l.028-.067c0,.01-.056.134-.017.041l.049-.116.115-.266q.444-1.021.932-2.022.98-2.007,2.14-3.92t2.484-3.7c.111-.15.223-.3.336-.447l.077-.1a.5.5,0,0,1,.044-.057c-.091.087-.052.068-.025.034l.177-.226q.344-.439.7-.869.7-.851,1.446-1.668a43.9,43.9,0,0,1,3.135-3.118q.825-.739,1.686-1.436c.139-.112.279-.223.419-.334l.211-.165c.116-.09-.1.076.018-.013l.113-.087q.439-.335.888-.659a39.607,39.607,0,0,1,3.708-2.375q.958-.54,1.946-1.025.5-.245,1-.474c.169-.077.338-.152.507-.226l.248-.107.116-.049-.051.021.083-.034a33.768,33.768,0,0,1,8.092-2.26c.174-.027.347-.052.522-.075l-.023,0,.118-.016.269-.034q.522-.063,1.047-.111,1.048-.1,2.1-.131a37.3,37.3,0,0,1,4.178.094q1.017.081,2.027.216l-.185-.025a37.094,37.094,0,0,1,3.7.688A36.255,36.255,0,0,1,85.2,26.294q.993.35,1.963.76l-.176-.074a33.3,33.3,0,0,1,5.785,3.138q.772.526,1.512,1.1l-.155-.12A30.1,30.1,0,0,1,98.4,35.1q.553.632,1.066,1.3l-.12-.156a14.445,14.445,0,0,1,1.941,3.034l-.077-.183a5.106,5.106,0,0,1,.36,1.261c-.009-.068-.018-.137-.027-.2a5.614,5.614,0,0,1-.02,1.487c.009-.069.019-.137.027-.2a20.181,20.181,0,0,1-.515,2.278c-.183.7-.369,1.407-.56,2.108-.385,1.41-.8,2.813-1.275,4.194q-.405,1.169-.883,2.311l.077-.183A25.939,25.939,0,0,1,95.948,56.7q-.377.55-.785,1.079l.12-.155a25.688,25.688,0,0,1-3.591,3.755q-.565.484-1.153.938l.155-.119a35.765,35.765,0,0,1-6.4,3.894q-.96.46-1.942.874l.182-.077A52.531,52.531,0,0,1,77.172,68.8a59.125,59.125,0,0,1-5.778,1.41q-1.651.316-3.32.54l.2-.027a61.741,61.741,0,0,1-6.44.52,62.211,62.211,0,0,1-6.441-.155q-1.812-.137-3.613-.38l.2.027a62.223,62.223,0,0,1-6.252-1.17,61.271,61.271,0,0,1-6.1-1.8q-1.683-.6-3.328-1.289l.182.077Q33.785,65.4,31.2,64c-.877-.478-1.733-1-2.628-1.439a10.01,10.01,0,0,0-2.982-1.038,5.737,5.737,0,0,0-1.912.02,8.4,8.4,0,0,0-1.713.651l.18-.076a2.415,2.415,0,0,1-.591.175l.2-.027a1.441,1.441,0,0,1-.318,0l.2.027a1.22,1.22,0,0,1-.291-.08l.179.076a1.4,1.4,0,0,1-.183-.1c-.094-.059.153.131.072.055-.024-.023-.049-.044-.073-.069-.049-.052-.1-.157.037.055l-.043-.062a1.268,1.268,0,0,1-.094-.18l.075.179a1.809,1.809,0,0,1-.118-.443c.009.066.018.132.027.2a3.145,3.145,0,0,1,.009-.8c-.009.066-.017.132-.027.2a9.675,9.675,0,0,1,.817-2.381l-.075.177q.856-2.026,1.85-3.99t2.115-3.844q1.124-1.887,2.377-3.692.628-.905,1.288-1.788c.11-.147.22-.294.332-.44l.155-.2.079-.1-.049.063.056-.073q.337-.434.682-.864,1.374-1.706,2.867-3.311t3.092-3.085q1.6-1.486,3.32-2.847l.429-.338.1-.078c.12-.093-.118.091-.02.016l.216-.166q.433-.33.874-.653.88-.644,1.785-1.252,1.8-1.209,3.7-2.266t3.891-1.951q.481-.215.967-.421l-.173.073q2.208-.931,4.5-1.64a43.152,43.152,0,0,1,4.481-1.123q1.277-.248,2.566-.422l-.187.026q2.146-.288,4.311-.371t4.33.033q1.08.057,2.157.166.534.053,1.067.119l.262.033.122.016-.073-.01.087.012.54.077q2.128.316,4.221.832t4.125,1.229q1.011.356,2.007.757.251.1.5.205l.048.02-.052-.022.129.055.256.11q.487.212.969.436a41.173,41.173,0,0,1,3.775,2q.915.547,1.8,1.142.438.294.867.6l.21.153a.676.676,0,0,0,.15.09c.2.084-.044-.041.009.013a.637.637,0,0,0,.07.05q.211.151.419.3t.429.32l.206.157c.073.055-.074-.058.019.015l.123.1q.416.326.824.664c.547.453,1.091.915,1.6,1.409.062.06.124.121.186.182.029.028.057.058.087.085s.08.061.116.1c-.042-.041-.037-.023,0,.011q.192.189.382.38.372.376.734.764.732.783,1.415,1.611.334.4.656.819a.406.406,0,0,0,.637-.492" transform="translate(-4.321 -5.016)"/>
      <path id="Path_247226" data-name="Path 247226" d="M83.855,60.781a.387.387,0,1,0-.387-.387.391.391,0,0,0,.387.387" transform="translate(-18.299 -13.155)"/>
      <path id="Path_247227" data-name="Path 247227" d="M74.819,39.895q-.766,4.257-1.375,8.541c-.2,1.426-.4,2.853-.569,4.282a8.539,8.539,0,0,0,.222,4,4.142,4.142,0,0,0,2.249,2.428,3.342,3.342,0,0,0,3.284-.605A7.887,7.887,0,0,0,81.46,52.8,8.744,8.744,0,0,0,79.6,46.837a7.007,7.007,0,0,0-.5-.56.575.575,0,0,0-.95.251,42.721,42.721,0,0,0-1.928,8.065,43.235,43.235,0,0,0-.365,8.4,46.213,46.213,0,0,0,.516,4.8.647.647,0,0,0,.174.3.689.689,0,0,0,1.065-.137,29.347,29.347,0,0,0,2.061-5.471,32.394,32.394,0,0,0,.987-5.777,31.949,31.949,0,0,0-.05-5.693,32.5,32.5,0,0,0-1.079-5.746q-.395-1.378-.917-2.715A24.889,24.889,0,0,0,77.4,39.81c-.112-.208-.231-.411-.342-.618a.729.729,0,0,0-.989-.26.738.738,0,0,0-.259.989c.219.409.412.836.613,1.255s.39.843.572,1.271l-.075-.177a30.938,30.938,0,0,1,1.858,6.136q.172.892.294,1.794L79.042,50a32.085,32.085,0,0,1,.2,6.637q-.07.937-.2,1.868l.026-.19a30.764,30.764,0,0,1-1.848,7.139q-.1.245-.2.487c-.033.081-.066.162-.1.243-.012.031-.025.062-.038.093s-.1.225-.009.021c-.14.322-.28.643-.429.962l1.239.162c-.126-.676-.259-1.362-.329-2.047.019.189,0,.032,0-.005s-.01-.075-.015-.112l-.03-.247q-.033-.269-.062-.539-.056-.516-.1-1.035-.158-2.048-.116-4.106t.282-4.1q.029-.247.061-.493c0-.028.022-.182,0-.023,0-.037.01-.074.016-.112.013-.1.027-.194.041-.29q.076-.514.164-1.026.172-1,.392-1.993a41.875,41.875,0,0,1,1.257-4.474l-.95.251a7.166,7.166,0,0,1,.5.557l.053.066c.049.062-.087-.116-.016-.021l.1.137q.114.157.219.321.2.306.364.629c.052.1.1.2.149.3.026.056.052.112.077.169.016.037.04.118-.011-.026.013.037.03.073.045.11a8.294,8.294,0,0,1,.425,1.411c.023.111.044.223.062.334.009.055.018.112.026.168.005.039.01.156,0-.013,0,.034.009.067.012.1q.043.372.055.746c.008.238,0,.476,0,.714,0,.119-.012.237-.022.355s-.038.261-.041.388c0-.17,0,.01-.009.058s-.017.112-.027.168c-.021.123-.045.244-.072.366-.053.242-.118.483-.194.719-.034.107-.07.213-.109.319-.02.052-.039.105-.06.158l-.037.094-.026.062.026-.06c0,.043-.057.13-.076.17-.026.056-.052.112-.079.169q-.081.167-.17.33-.171.313-.371.607a3.351,3.351,0,0,1-.219.3c.069-.08.022-.028.007-.01s-.048.06-.073.09c-.048.06-.1.119-.15.177a5.313,5.313,0,0,1-.6.58c-.024.021-.05.041-.075.061.082-.066-.019.014-.03.022-.052.038-.1.075-.157.111a3.892,3.892,0,0,1-.36.213c-.056.029-.112.055-.169.082-.113.053.083-.03-.034.014l-.069.027a2.838,2.838,0,0,1-.414.117l-.091.017c-.121.024.088-.006-.035.005-.062.005-.126.011-.189.013a2.473,2.473,0,0,1-.387-.017c.106.013-.064-.012-.092-.019-.061-.012-.122-.027-.182-.045s-.119-.037-.178-.058l-.064-.024c.091.034-.043-.02-.059-.027a3.04,3.04,0,0,1-.3-.166c-.048-.03-.1-.062-.144-.1L74.943,58c.069.05-.022-.018-.029-.023a4.016,4.016,0,0,1-.543-.55c-.009-.01-.046-.059,0,0l-.063-.086c-.035-.048-.069-.1-.1-.147-.072-.109-.139-.222-.2-.337-.027-.052-.055-.1-.08-.158-.016-.032-.03-.064-.045-.1-.049-.105.026.07-.016-.038-.051-.13-.1-.26-.137-.394a5.381,5.381,0,0,1-.181-.867,10.391,10.391,0,0,1-.006-1.946c.109-1.366.3-2.727.477-4.086q.532-4.117,1.212-8.213.083-.5.168-1a.307.307,0,0,0-.208-.368.3.3,0,0,0-.368.208" transform="translate(-15.948 -8.513)"/>
      <path id="Path_247228" data-name="Path 247228" d="M71.1,32.645q-.792,2.431-1.369,4.925t-.942,5.022q-.368,2.564-.52,5.151-.146,2.553-.073,5.112t.359,5.1a42.731,42.731,0,0,0,.739,4.588,21.112,21.112,0,0,0,1.356,4.11,12.572,12.572,0,0,0,2.342,3.51,9.979,9.979,0,0,0,.757.707,4.528,4.528,0,0,0,1.049.711,2.336,2.336,0,0,0,1.458.2,2.309,2.309,0,0,0,1.112-.658,6.978,6.978,0,0,0,.768-.963,10.855,10.855,0,0,0,.6-.974A13.5,13.5,0,0,0,79.7,66.95a19.31,19.31,0,0,0,.871-4.713,33.634,33.634,0,0,0-.087-5.372c-.162-1.832-.428-3.654-.716-5.47-.27-1.7-.544-3.4-.838-5.1-.29-1.675-.6-3.346-.967-5.006s-.785-3.3-1.287-4.916q-.376-1.212-.814-2.4c-.294-.8-.6-1.6-.96-2.366a5.815,5.815,0,0,0-1.181-1.712,2.551,2.551,0,0,0-1.873-.8,2.337,2.337,0,0,0-1.774,1.05,4.8,4.8,0,0,0-.693,1.793c-.168.818-.262,1.656-.365,2.484q-.162,1.294-.269,2.594-.214,2.6-.215,5.209t.213,5.209q.217,2.643.65,5.264.423,2.559,1.05,5.08a14.913,14.913,0,0,0,1.45,3.9,5.852,5.852,0,0,0,3.138,2.78,2.344,2.344,0,0,0,2.307-.408,3.352,3.352,0,0,0,.84-2.123c.209-1.631.335-3.273.383-4.916s.019-3.3-.089-4.941c-.111-1.69-.3-3.374-.577-5.045q-.4-2.441-1.027-4.835t-1.48-4.716c-.3-.807-.615-1.605-.949-2.4a12.471,12.471,0,0,0-.966-2,3.494,3.494,0,0,0-1.64-1.449,2,2,0,0,0-2.024.443,3.2,3.2,0,0,0-.847,1.724,13.3,13.3,0,0,0-.178,2.2q-.074,2.45.066,4.9c.092,1.668.262,3.332.5,4.988q.345,2.427.9,4.819t1.309,4.724c.5,1.555,1.081,3.083,1.711,4.592.621,1.491,1.3,2.958,2.044,4.391a.642.642,0,0,0,.643.308.667.667,0,0,0,.538-.463c.082-.2.159-.408.23-.614l.042-.124c0,.007.027-.083.027-.083l-.018.038q-.061.135.049-.119c.035-.1.062-.208.092-.312q.172-.615.287-1.245a17.648,17.648,0,0,0,.272-2.658,30.784,30.784,0,0,0-.4-5.309c-.238-1.621-.528-3.235-.827-4.846-.287-1.546-.594-3.088-.947-4.62s-.745-3.032-1.21-4.523a41.685,41.685,0,0,0-1.672-4.475A30.11,30.11,0,0,0,70.253,31.3c-.436-.678-.9-1.334-1.4-1.971q-.356-.459-.734-.9a8.822,8.822,0,0,0-.777-.834,2.884,2.884,0,0,0-1.18-.688,2.208,2.208,0,0,0-1.2.023A3.557,3.557,0,0,0,63.2,28.375a10.905,10.905,0,0,0-1.021,2c-.361.834-.707,1.675-1.031,2.523a50.577,50.577,0,0,0-1.627,4.995,41.764,41.764,0,0,0-1.049,5.234,34.154,34.154,0,0,0-.307,5.153,28.93,28.93,0,0,0,.54,5.128,24.114,24.114,0,0,0,1.173,4.015,25.582,25.582,0,0,0,1.882,3.859,23.347,23.347,0,0,0,2.527,3.459,20.752,20.752,0,0,0,3.118,2.873,17.735,17.735,0,0,0,3.51,2.058,17.97,17.97,0,0,0,2.071.769,8.926,8.926,0,0,0,2.673.44,4.954,4.954,0,0,0,1.421-.222,5.548,5.548,0,0,0,.563-.223c.066-.03.131-.061.2-.094l.041-.022c.087-.052-.085.03-.087.03a1.305,1.305,0,0,0,.248-.117,5.264,5.264,0,0,0,1.508-1.421,7.5,7.5,0,0,0,.927-1.772,11.565,11.565,0,0,0,.532-1.873,21.159,21.159,0,0,0,.306-2.114q.139-1.405.231-2.814.186-2.829.18-5.668t-.2-5.643c-.126-1.775-.3-3.546-.555-5.308a43.617,43.617,0,0,0-.878-4.558,29.771,29.771,0,0,0-1.5-4.465,20.99,20.99,0,0,0-2.2-3.955,19.185,19.185,0,0,0-1.507-1.856,7.971,7.971,0,0,0-1.867-1.573,3.789,3.789,0,0,0-1.844-.528c-.04,0-.08,0-.12,0l-.068,0L70.9,26.7c-.115.016-.109.015.015,0a2.363,2.363,0,0,0-.382.045,4.245,4.245,0,0,0-1.991.954A9.489,9.489,0,0,0,66,31.389,25.266,25.266,0,0,0,64.456,36.1a30.129,30.129,0,0,0-.657,4.938,36.86,36.86,0,0,0,.086,4.9,49.679,49.679,0,0,0,.688,5.069c.306,1.643.682,3.271,1.112,4.886.386,1.447.788,2.9,1.316,4.3a16.673,16.673,0,0,0,1.854,3.683q.137.2.282.386l.16.206c.013.017.052.066-.01-.012-.1-.123.068.088.069.091.054.068.109.134.166.2a8.811,8.811,0,0,0,.635.676,6.954,6.954,0,0,0,1.587,1.156,6.03,6.03,0,0,0,4.1.532l-.183.025a2.92,2.92,0,0,0,.768-.189c.255-.09.5-.194.749-.308a6.91,6.91,0,0,0,1.124-.668,8.918,8.918,0,0,0,2.065-2.106,12.345,12.345,0,0,0,1.911-5.948,29.939,29.939,0,0,0,.111-3.109q-.015-1.726-.123-3.451a65.156,65.156,0,0,0-.824-6.983,44.054,44.054,0,0,0-1.312-5.662,23.855,23.855,0,0,0-2.181-5.056A14.788,14.788,0,0,0,74.5,29.593a8.3,8.3,0,0,0-5.765-2.149,6.2,6.2,0,0,0-2.628.877A8.173,8.173,0,0,0,64.082,30.1,12.7,12.7,0,0,0,61.6,35.354a23.008,23.008,0,0,0-.475,6.468,64.448,64.448,0,0,0,.78,6.521c.326,2.069.671,4.136,1.094,6.188a55.846,55.846,0,0,0,1.569,6.039A35.91,35.91,0,0,0,67.015,66.4a17.959,17.959,0,0,0,1.572,2.522,7.123,7.123,0,0,0,2.26,2.025,6.366,6.366,0,0,0,5.885-.191,9.772,9.772,0,0,0,3.951-4.3c.24-.469.453-.953.65-1.441q.07-.172.136-.347c.011-.027.021-.054.031-.081l.008-.02c.027-.071.02-.055-.024.048a.917.917,0,0,1,.087-.211c.015-.041.03-.082.044-.123q.13-.369.246-.742a21.084,21.084,0,0,0,.691-3.023,28.812,28.812,0,0,0,.23-6.42c-.075-1.077-.2-2.149-.354-3.218l.026.193c-.2-1.533-.507-3.055-.838-4.564-.316-1.44-.669-2.871-1.033-4.3-.348-1.37-.711-2.737-1.138-4.084a32.708,32.708,0,0,0-1.567-4.064,19.712,19.712,0,0,0-2.135-3.57,6.7,6.7,0,0,0-3.4-2.633,3.372,3.372,0,0,0-2.091.094,3.948,3.948,0,0,0-1.555,1.124,10.473,10.473,0,0,0-1.73,3.5,42.125,42.125,0,0,0-1.2,4.27,43.694,43.694,0,0,0-.757,4.5,42.523,42.523,0,0,0-.1,8.837,44.671,44.671,0,0,0,.654,4.518,41.3,41.3,0,0,0,1.09,4.3,23.288,23.288,0,0,0,1.574,3.982,9.6,9.6,0,0,0,2.7,3.265,6.733,6.733,0,0,0,3.745,1.341,4.99,4.99,0,0,0,1.928-.309,5.662,5.662,0,0,0,1.845-1.168,11.742,11.742,0,0,0,2.318-3.376c.328-.655.622-1.327.889-2.01.03-.076.059-.151.087-.227,0-.012.012-.048.022-.056-.018.014-.1.23-.006.011.028-.066.054-.133.078-.2q.087-.238.167-.477.164-.488.308-.984a28.178,28.178,0,0,0,.845-4.138,33.867,33.867,0,0,0,.282-4.133c.012-1.4-.05-2.8-.17-4.2-.125-1.447-.311-2.889-.536-4.324-.218-1.379-.477-2.751-.764-4.117-.276-1.311-.581-2.617-.97-3.9a23.3,23.3,0,0,0-1.511-3.827,14.567,14.567,0,0,0-2.323-3.349,8.962,8.962,0,0,0-1.646-1.4,5.169,5.169,0,0,0-1.961-.8,4.276,4.276,0,0,0-2,.124A4.678,4.678,0,0,0,70,25.617a7.458,7.458,0,0,0-1.917,2.7,19.6,19.6,0,0,0-1.134,3.527q-.557,2.325-1.028,4.671T65.081,41.2q-.378,2.43-.636,4.877-.246,2.374-.358,4.758t-.066,4.745c.029,1.539.087,3.086.255,4.616a14.908,14.908,0,0,0,1.113,4.5,8.136,8.136,0,0,0,2.426,3.122A6.141,6.141,0,0,0,71.4,69.171a.723.723,0,0,0,0-1.445c-.169,0-.337-.018-.505-.039l.192.026-.369-.052.192.026a5.083,5.083,0,0,1-.864-.226c-.073-.027-.144-.055-.217-.084s.1.045.09.038a.357.357,0,0,0-.05-.022c-.038-.016-.077-.034-.114-.052q-.2-.1-.4-.206t-.385-.237c-.06-.041-.12-.082-.179-.124l-.088-.065-.044-.033c-.07-.052.126.1.059.045a7.648,7.648,0,0,1-.695-.625q-.16-.165-.31-.34c-.048-.056-.1-.112-.142-.17-.023-.028-.045-.058-.069-.086-.045-.056.062.073.055.071s-.037-.048-.045-.059a7.714,7.714,0,0,1-.515-.782q-.122-.213-.23-.433c-.039-.077-.076-.155-.112-.233l-.053-.118c-.012-.027-.078-.18-.033-.073s-.012-.03-.022-.055c-.02-.047-.037-.093-.056-.14-.034-.087-.066-.175-.1-.262q-.091-.254-.169-.511a15.434,15.434,0,0,1-.507-2.415l.026.187c-.143-1.07-.211-2.149-.26-3.227q-.078-1.711-.071-3.424c.007-2.275.123-4.55.328-6.815q.174-1.918.433-3.83c-.008.062-.016.124-.025.187.394-2.926.925-5.831,1.564-8.713.294-1.327.582-2.666.957-3.972a15.655,15.655,0,0,1,.5-1.484c.021-.052.042-.1.064-.155.051-.124-.074.171-.02.048l.04-.092c.053-.122.109-.244.167-.364.109-.227.226-.451.354-.67a7.634,7.634,0,0,1,.455-.7l.057-.076c.072-.1-.126.16-.017.023.039-.048.078-.1.119-.144q.129-.152.269-.294t.286-.268c.052-.045.107-.088.16-.133-.207.171-.036.029.02-.01a3.79,3.79,0,0,1,.688-.386l-.174.073a3.512,3.512,0,0,1,.889-.244l-.194.026a3.61,3.61,0,0,1,.927,0l-.194-.026a4.16,4.16,0,0,1,1.045.293l-.175-.074a5.359,5.359,0,0,1,.7.365c.113.069.224.144.333.22l.162.118c.037.028.1.087-.053-.041.03.026.063.049.094.075a9.757,9.757,0,0,1,1.154,1.118q.259.293.5.6c.032.041.1.129-.032-.041l.048.062.116.156q.121.165.237.333a14.95,14.95,0,0,1,.823,1.344c.28.516.532,1.048.761,1.589-.024-.059-.049-.117-.074-.176a29.338,29.338,0,0,1,1.428,4.482c.379,1.561.7,3.139.975,4.721q.244,1.378.432,2.765l-.026-.194c.191,1.429.334,2.865.408,4.3a39.127,39.127,0,0,1,0,4.3q-.069,1.193-.226,2.381l.026-.192a26.1,26.1,0,0,1-1.4,5.689q-.128.341-.267.678l-.031.075c-.044.109.022-.05.025-.059-.023.056-.048.112-.072.168-.052.119-.1.236-.157.354q-.3.67-.654,1.319c-.224.415-.461.823-.725,1.214q-.1.145-.2.287c-.03.042-.062.084-.093.125-.012.016-.092.121-.016.022s-.013.016-.03.036q-.217.272-.458.522a4.451,4.451,0,0,1-.581.524c.007,0,.141-.1.05-.039l-.092.067q-.077.055-.157.108-.16.1-.328.2c-.112.06-.228.109-.341.165.2-.1.017-.009-.041.012s-.115.041-.173.059a4.5,4.5,0,0,1-.743.166l.182-.025a5.011,5.011,0,0,1-1.306-.005l.18.024a5.713,5.713,0,0,1-.759-.156c-.24-.066-.468-.163-.7-.242.21.07.006,0-.045-.022L72.6,65.7q-.185-.09-.365-.194a6.637,6.637,0,0,1-.628-.408c-.03-.022-.059-.048-.091-.067.008,0,.132.1.047.036-.048-.039-.1-.077-.144-.117q-.159-.134-.31-.276-.293-.278-.557-.582c-.087-.1-.172-.205-.256-.31-.069-.086.023.03.03.04-.021-.034-.048-.064-.073-.1-.044-.059-.087-.119-.13-.179-.16-.224-.31-.455-.452-.691a13.767,13.767,0,0,1-.764-1.477c-.027-.062-.055-.124-.082-.187s-.091-.262-.03-.067c-.041-.128-.1-.254-.154-.379q-.157-.4-.3-.8c-.4-1.119-.743-2.257-1.039-3.407s-.545-2.324-.74-3.5q-.074-.445-.137-.89l-.03-.218c0-.029-.008-.058-.012-.087-.021-.155.02.152,0,0s-.039-.3-.058-.458q-.107-.883-.176-1.771a42.6,42.6,0,0,1,.046-7.2q.041-.449.092-.9c.016-.138.031-.276.048-.415.009-.073.018-.145.027-.218.005-.044.012-.087.017-.13,0-.015,0-.029.005-.044.01-.072.008-.058-.005.042a1.151,1.151,0,0,1,.03-.217c.011-.073.021-.145.031-.218.023-.152.045-.3.069-.456q.07-.445.149-.888.319-1.773.788-3.514c.31-1.146.668-2.281,1.085-3.393.039-.1.078-.205.119-.307l.059-.146c.051-.123-.066.151-.012.029l.042-.1c.1-.22.2-.437.316-.649a6.642,6.642,0,0,1,.371-.61c.033-.048.066-.094.1-.14.013-.018.028-.036.041-.055-.114.169-.052.066-.021.027.074-.091.151-.18.232-.266s.147-.15.225-.219c.041-.037.083-.073.125-.107s.138-.086-.032.024c.027-.018.052-.039.079-.058a3.139,3.139,0,0,1,.276-.172c.048-.027.1-.051.145-.074l.059-.027c.112-.052-.148.056-.039.017a3.2,3.2,0,0,1,.318-.1c.059-.015.119-.027.18-.038.021,0,.15-.023.023-.005s.036,0,.061,0a2.577,2.577,0,0,1,.372,0l.073.006c.023,0,.148.017.021,0s0,0,.02,0l.109.02a3.208,3.208,0,0,1,.359.1c.059.02.118.041.176.064.019.008.137.056.023.009s.037.018.058.028a4.578,4.578,0,0,1,.668.392c.055.037.108.077.16.116.112.084-.1-.08-.027-.021l.077.062q.171.139.333.29a7.949,7.949,0,0,1,.558.577q.13.149.255.3l.061.077c.059.073-.111-.145-.023-.03.051.066.1.133.151.2q.248.334.479.679c.315.47.608.956.881,1.452s.525,1,.759,1.52q.087.19.169.38c.028.063.055.127.083.191.016.039.046.123-.023-.053.016.039.032.077.048.116q.167.4.322.814a58.143,58.143,0,0,1,1.947,6.57c.587,2.344,1.139,4.7,1.54,7.082q.148.875.268,1.754l-.026-.193a33.917,33.917,0,0,1,.3,6.544q-.055.9-.174,1.8l.026-.191a21.121,21.121,0,0,1-1.094,4.459q-.1.271-.207.538l-.044.109c-.012.03-.073.173-.025.061s-.008.017-.019.043l-.064.144q-.212.478-.458.94t-.531.9q-.144.223-.3.437c-.05.069-.1.137-.151.2s.053-.069.048-.062-.024.03-.036.046c-.028.036-.056.072-.085.107a8.927,8.927,0,0,1-.708.779q-.182.178-.373.343c-.064.055-.129.109-.2.162-.035.029-.073.055-.107.085-.005,0,.121-.091.062-.048l-.063.047a6.676,6.676,0,0,1-.868.547c-.155.081-.313.155-.473.226l.073-.031c-.023.011-.049.02-.073.03l-.109.042c-.084.032-.17.062-.256.091a6.312,6.312,0,0,1-.995.244c-.027,0-.163.023-.044.008s-.034,0-.062.007c-.089.009-.178.017-.268.023-.166.01-.331.014-.5.009s-.341-.02-.511-.037c-.075-.008.093.01.084.011a.278.278,0,0,1-.056-.008l-.131-.022c-.087-.016-.174-.034-.26-.055a4.777,4.777,0,0,1-.474-.14c-.042-.015-.084-.03-.125-.046-.025-.009-.148-.061-.045-.016s-.04-.019-.061-.028l-.122-.059c-.156-.079-.307-.166-.455-.259-.065-.041-.13-.084-.193-.129l-.109-.079c-.117-.087.08.066,0,0a7.12,7.12,0,0,1-.764-.715c-.115-.125-.225-.254-.332-.385l-.087-.108c-.012-.015-.023-.031-.036-.046s.087.113.043.055c-.055-.073-.111-.147-.165-.221-.2-.283-.4-.574-.579-.871a30.169,30.169,0,0,1-2.06-4.037c-.034-.081.049.119.016.037l-.025-.059-.049-.119c-.038-.093-.076-.185-.113-.278q-.108-.269-.212-.539-.2-.532-.393-1.068-.382-1.086-.7-2.192c-.433-1.473-.795-2.966-1.113-4.468s-.59-3.023-.842-4.542q-.189-1.144-.366-2.292-.09-.582-.176-1.166c-.029-.2-.058-.4-.085-.6-.012-.088-.025-.177-.037-.265,0-.03-.009-.059-.012-.089,0,0,.018.134.009.059l-.021-.155a40.76,40.76,0,0,1-.379-4.756c-.01-.778.012-1.558.077-2.334q.025-.3.058-.589c.01-.094.022-.189.034-.283,0-.022.005-.044.009-.065.009-.074-.009.063-.009.062.009-.058.016-.116.024-.173q.083-.573.2-1.14A15.747,15.747,0,0,1,63.4,33.8c.03-.079.059-.158.091-.237l.047-.116.021-.049c.033-.08-.014.034-.023.053.067-.148.131-.3.2-.444.14-.29.3-.572.461-.847s.346-.545.538-.8l.077-.1c.069-.092-.084.106-.013.016.052-.066.105-.132.159-.2.1-.125.211-.248.322-.366a7.974,7.974,0,0,1,.682-.657c.058-.049.117-.1.177-.147.02-.016.12-.094.03-.024s.039-.029.059-.045q.183-.135.374-.258a6.136,6.136,0,0,1,.823-.443l.047-.02s-.139.057-.08.034l.1-.038c.075-.03.151-.057.226-.083.147-.05.3-.094.447-.132.073-.018.146-.035.22-.05l.1-.02.052-.009c.141-.027-.267.034.014,0l.124-.017c.013,0-.166.021-.092.012l.1-.012c.082-.009.164-.015.247-.02a5.064,5.064,0,0,1,.555,0c.091,0,.183.012.273.022.027,0,.171.021.057.005s.048.008.077.012A6.451,6.451,0,0,1,71,29.1c.087.031.173.063.259.1l.119.048c.07.028-.067-.029-.064-.027.026.012.052.023.079.034q.264.117.519.252a10.1,10.1,0,0,1,.95.571c.136.091.271.187.4.284a1.473,1.473,0,0,1,.189.142c.007.007-.125-.1-.067-.052l.043.033.113.091a12.723,12.723,0,0,1,1.39,1.308q.328.358.631.739l.067.084.033.043a.85.85,0,0,1-.053-.069,1,1,0,0,1,.151.2c.1.13.192.262.284.4a19.326,19.326,0,0,1,1.86,3.423c.047.109-.069-.166-.006-.015.015.034.029.069.043.1.033.08.066.161.1.241q.094.233.182.468.174.463.333.932.315.939.572,1.9c.377,1.4.668,2.829.917,4.26q.211,1.211.375,2.428l-.026-.19q.317,2.363.465,4.746c.094,1.543.146,3.093.107,4.639a22.645,22.645,0,0,1-.181,2.434l.026-.187a14.075,14.075,0,0,1-.49,2.277c-.057.183-.119.365-.185.544-.032.087-.065.173-.1.259a1.247,1.247,0,0,0-.056.138s.061-.141.03-.07l-.034.079a8.632,8.632,0,0,1-.5.977q-.128.214-.268.419-.067.1-.138.2l-.066.089c-.015.02-.029.041-.044.059.012-.014.1-.128.041-.054a8.359,8.359,0,0,1-.664.746q-.184.183-.379.353c-.06.052-.121.1-.183.154l-.086.069c-.117.093.115-.087,0,0a7.074,7.074,0,0,1-.825.536c-.163.091-.33.175-.5.251-.028.012-.165.071-.048.022s-.034.012-.066.026c-.084.032-.168.063-.253.091s-.169.055-.256.08l-.137.038c-.063.016-.365.146-.2.068.109-.052-.02-.008-.055,0l-.14.029c-.093.017-.187.033-.281.045l.183-.024a5.364,5.364,0,0,1-.75.047c-.121,0-.241-.008-.361-.018-.059,0-.116-.011-.174-.017s-.174-.033.05.007l-.1-.015a5.467,5.467,0,0,1-.652-.148c-.1-.03-.2-.062-.3-.1-.049-.017-.1-.036-.146-.055l-.057-.023c-.105-.041.169.074.015.006a5.869,5.869,0,0,1-1.107-.644c-.025-.018-.172-.13-.072-.052s-.045-.037-.069-.057q-.128-.1-.251-.215c-.166-.148-.326-.3-.477-.467s-.3-.34-.442-.516l-.051-.064c-.052-.066.1.134.03.038-.033-.044-.066-.087-.1-.132q-.109-.146-.212-.3a12.918,12.918,0,0,1-.727-1.195q-.338-.627-.621-1.28l-.069-.159c-.016-.038-.065-.158.01.023-.009-.021-.018-.042-.027-.063-.048-.116-.1-.233-.142-.351q-.132-.335-.254-.672c-.358-.992-.653-2.008-.942-3.022-.325-1.146-.625-2.3-.891-3.462s-.492-2.311-.682-3.477q-.071-.442-.135-.884c-.02-.141-.044-.281-.059-.422.02.19-.007-.053-.012-.091-.011-.084-.022-.169-.032-.253q-.11-.883-.185-1.771a35.124,35.124,0,0,1,.065-6.935c.016-.137.032-.274.05-.411a.579.579,0,0,1,.016-.123c-.041.1-.012.1,0,.04.011-.082.023-.164.034-.246q.063-.429.139-.856.152-.854.359-1.7a24.448,24.448,0,0,1,1.049-3.268c.026-.065.052-.129.079-.193.016-.04.094-.253.034-.084.05-.143.122-.282.183-.421.118-.262.239-.522.367-.779a9.871,9.871,0,0,1,.791-1.321l.109-.15c.015-.02.03-.039.044-.059-.1.145-.029.037-.005.008q.119-.151.247-.3a6.248,6.248,0,0,1,.521-.526c.044-.039.089-.078.134-.116l.082-.067c.077-.064-.034.027-.042.031.106-.069.205-.151.312-.219s.194-.118.3-.171c.05-.026.1-.051.151-.075.03-.014.062-.026.092-.041l-.085.036.062-.025a3.263,3.263,0,0,1,.317-.1c.054-.014.108-.027.162-.039s.29-.038.068-.016c.113-.011.224-.019.338-.02.058,0,.115,0,.173,0l.07,0,.07.007c.065.007.047,0-.056-.009.121.039.259.046.383.081.063.018.125.037.186.059l.073.027.073.029L72,28.1a4.586,4.586,0,0,1,.718.408c.055.038.108.078.162.117.073.052-.123-.1-.017-.013l.078.062c.109.089.215.182.319.276.206.189.4.389.592.593s.367.4.543.611c.084.1.166.2.248.3l.12.151.06.077c.1.126-.071-.094.005.007a19.659,19.659,0,0,1,1.722,2.693q.381.718.708,1.462c.026.059.052.119.077.178.018.041.107.261.024.055.053.132.109.262.162.4q.151.379.291.764a35.456,35.456,0,0,1,1.615,6.347q.131.789.237,1.583c-.008-.062-.016-.123-.024-.184.34,2.535.532,5.092.625,7.648q.149,4.028-.088,8.057c-.082,1.393-.174,2.793-.359,4.176.008-.062.016-.125.025-.187a12.957,12.957,0,0,1-.774,3.128l-.037.09c.087-.217.041-.1.02-.049s-.052.118-.08.176c-.054.116-.111.23-.171.343a6.236,6.236,0,0,1-.391.64c-.035.05-.072.1-.109.149-.075.1.114-.144.035-.046l-.058.071c-.077.094-.158.185-.241.272s-.171.17-.262.25c-.045.04-.091.079-.138.116s-.141.1.048-.036l-.073.054a4,4,0,0,1-.711.415c-.049.022-.162.057.052-.021-.04.014-.078.031-.118.045-.078.029-.157.055-.236.08a4.167,4.167,0,0,1-.609.131l.184-.024a5.668,5.668,0,0,1-1.473-.013l.182.025a12.123,12.123,0,0,1-2.206-.543q-.466-.156-.922-.339l-.21-.086c-.131-.055.119.051.014.006l-.128-.056c-.15-.065-.3-.133-.445-.2a17.485,17.485,0,0,1-1.7-.922q-.415-.256-.816-.534-.2-.138-.4-.283l-.182-.135-.1-.073-.041-.032.034.026a20.624,20.624,0,0,1-2.838-2.687q-.324-.372-.633-.76l-.154-.194c-.067-.087.077.1.009.012l-.086-.112c-.1-.132-.2-.265-.3-.4q-.584-.807-1.1-1.663c-.34-.566-.653-1.149-.942-1.743q-.22-.45-.42-.909c-.034-.077-.066-.153-.1-.23-.027-.06.027.064.025.059l-.021-.049-.055-.132c-.063-.155-.126-.31-.186-.465a24.212,24.212,0,0,1-1.127-3.807q-.108-.521-.193-1.046c-.034-.2-.064-.409-.093-.614a.446.446,0,0,0-.012-.087s.016.114.006.046c-.006-.052-.013-.1-.02-.154-.013-.1-.026-.205-.037-.308q-.143-1.229-.179-2.466a32.091,32.091,0,0,1,.243-4.913c.012-.1.026-.2.039-.308.009-.068-.005.045-.006.047,0-.022.006-.044.009-.066.009-.059.016-.117.025-.176.029-.2.06-.41.092-.614q.1-.614.215-1.224.235-1.225.544-2.434a48.983,48.983,0,0,1,1.482-4.759q.431-1.176.913-2.331l.052-.124.035-.082s-.046.108-.019.044l.131-.308c.082-.191.166-.382.249-.572.148-.335.293-.672.461-1a6.344,6.344,0,0,1,.522-.849l.032-.042c.06-.081-.027.035-.033.041.027-.03.052-.064.077-.1.052-.062.1-.123.16-.182s.1-.105.156-.156c.005-.005.045-.034.049-.045-.005.014-.176.133-.012.006l.088-.069c.013-.011.1-.081.014-.013s.018-.012.041-.028l.08-.054a2.14,2.14,0,0,1,.206-.116c.052-.026.155-.044-.021.006.029-.009.058-.023.087-.032.073-.025.148-.041.223-.059.129-.029-.127.009-.029,0,.031,0,.062-.005.094-.006s.073,0,.11,0,.181.018.062,0,.023.006.047.011.075.018.112.028.084.03.126.043c.062.02-.062-.027-.062-.027.016.019.064.03.086.041a2.25,2.25,0,0,1,.214.125c.037.025.073.052.11.078.054.037-.051-.039-.051-.039,0,.019.06.049.075.062a4.566,4.566,0,0,1,.379.369c.251.269.488.552.721.836q.174.214.344.432c.016.02.031.043.048.062l-.039-.051.084.109.166.219q.327.442.635.9a28.572,28.572,0,0,1,2.158,3.808q.231.488.446.984c.037.084.073.169.109.253l.023.055-.028-.067c.02.048.041.1.06.145q.107.255.209.511c.274.686.527,1.38.763,2.079.475,1.406.88,2.835,1.238,4.275.361,1.455.675,2.922.961,4.394s.552,2.947.809,4.423c.142.816.278,1.633.394,2.453l.019.132.012.088c.011.077-.009-.069-.009-.067a2.387,2.387,0,0,0,.043.331q.037.3.07.6c.045.411.084.824.113,1.236a22.661,22.661,0,0,1,.048,2.459c-.016.406-.044.811-.088,1.214-.01.094-.021.187-.033.28,0,.026-.016.123,0,.02s0-.022,0,0c-.008.057-.016.115-.025.172q-.046.3-.1.6a13.34,13.34,0,0,1-.644,2.254l1.181-.154q-1.136-2.109-2.089-4.31c-.02-.047-.041-.094-.06-.141l-.026-.06c-.028-.063.017.043.018.045-.041-.093-.078-.189-.117-.283s-.077-.19-.116-.283c0,.007-.1-.227-.048-.113.035.073,0,.006,0-.009l-.066-.162q-.223-.559-.434-1.123-.419-1.117-.791-2.251-.746-2.278-1.3-4.614t-.9-4.7q-.046-.3-.087-.607c-.005-.044-.012-.087-.017-.13s0-.107,0,.024c0-.021-.006-.044-.009-.065l-.04-.3q-.075-.6-.138-1.2-.124-1.186-.2-2.377-.149-2.391-.084-4.791.015-.6.045-1.2c.008-.165.016-.329.03-.493.006-.069.014-.139.022-.208,0-.016,0-.032.006-.048.007-.064-.012.08-.009.073.009-.042.012-.086.02-.129a4.289,4.289,0,0,1,.223-.853c.009-.022.051-.126.012-.032s.011-.022.021-.044c.03-.063.064-.126.1-.186s.068-.108.1-.161c.074-.105-.072.082-.01.014.026-.029.05-.058.077-.086.044-.045.091-.083.136-.125s-.066.049-.06.046.023-.017.034-.025c.032-.021.063-.042.1-.061s.059-.031.088-.048c.084-.046-.122.043-.03.012a1.923,1.923,0,0,1,.2-.062c.027-.006.156-.027.053-.012s.028,0,.051,0,.062,0,.094,0l.047,0c.1,0-.012,0-.046-.009.063.019.13.025.194.044.03.009.059.019.087.029.122.04-.107-.056.005,0,.061.03.121.062.18.1.032.02.063.04.094.062l.04.027c.063.044-.023-.016-.039-.03.117.107.237.205.344.323.051.055.1.113.148.172.083.1-.051-.071.008.009.025.033.049.066.073.1.1.136.187.277.27.422a9.317,9.317,0,0,1,.445.909q.125.283.247.568l.052.122c.008.018.045.105.014.032s0,0,0,.012c.04.094.08.19.119.285q.464,1.122.873,2.266Q75.2,40.38,75.8,42.725t.98,4.733q.1.6.177,1.2c0,.022.005.044.009.066,0,0-.016-.116-.006-.047.006.051.013.1.02.153s.012.087.017.131.007.059.011.088l.021.156c0-.023-.006-.046-.009-.069a2.219,2.219,0,0,0,.034.285c.012.1.025.2.036.307q.138,1.206.219,2.419.162,2.411.1,4.831T77.06,61.8c-.005.046-.011.091-.017.137-.013.107.017-.115,0-.007-.012.084-.025.168-.041.252,0,.023-.009.048-.013.072,0,0-.02.242-.016.112,0-.093-.013.044-.02.068-.019.082-.041.164-.066.244-.01.034-.022.068-.034.1s-.058.147-.023.066-.022.045-.03.061c-.018.036-.037.072-.058.107s-.042.069-.065.1l-.03.042c-.033.049.032-.045.034-.044a1.686,1.686,0,0,0-.17.176c-.067.062.089-.06-.015.012-.034.023-.07.045-.106.066a.512.512,0,0,0-.094.048c.009-.008.125-.046.034-.015l-.066.023c-.073.023-.148.037-.222.054-.059.013.057-.008.059-.007a.406.406,0,0,0-.071.007c-.041,0-.084,0-.125.005-.08,0-.158,0-.237-.01-.1-.008.112.02-.019,0-.048-.009-.1-.018-.146-.029-.079-.018-.158-.039-.235-.064s-.165-.073-.247-.09c0,0,.1.045.044.019L75,63.274c-.034-.016-.067-.032-.1-.049-.08-.041-.159-.086-.237-.132-.136-.082-.269-.17-.4-.264-.016-.012-.109-.082-.043-.031s-.039-.032-.055-.045c-.062-.051-.125-.1-.185-.158-.121-.108-.237-.222-.348-.34s-.211-.233-.308-.355c-.077-.1.042.058-.013-.016l-.063-.084c-.048-.066-.1-.134-.142-.2a8.267,8.267,0,0,1-.5-.838q-.112-.216-.215-.436c-.036-.077-.07-.154-.1-.232-.014-.033-.027-.067-.043-.1.006.012.046.112.011.025l-.028-.067c-.126-.311-.24-.627-.346-.946-.217-.657-.393-1.326-.557-2q-.609-2.476-1-5-.1-.632-.187-1.266l-.009-.069c0-.015-.015-.112-.006-.047s0-.017,0-.024l-.009-.069-.042-.323c-.027-.215-.053-.431-.078-.647q-.146-1.26-.242-2.526-.192-2.541-.18-5.094t.23-5.092q.109-1.275.27-2.547c.012-.1.026-.2.039-.3,0-.032.023-.173.009-.071.007-.054.014-.108.022-.161q.044-.323.092-.646c.052-.344.1-.69.176-1.031a5.846,5.846,0,0,1,.255-.863c.008-.02.018-.041.024-.061,0,0-.044.1-.02.048l.04-.089c.034-.073.07-.144.109-.215s.068-.118.1-.176l.052-.077c.012-.016.025-.033.037-.05.035-.054-.068.08-.025.032a3.219,3.219,0,0,1,.284-.29c.064-.056-.092.062,0,0,.029-.02.058-.04.087-.058a1.141,1.141,0,0,0,.187-.1s-.1.037-.052.023l.044-.016c.034-.012.069-.023.1-.034s.074-.02.112-.028l.049-.009c.064-.014-.1.005-.041.008s.138-.012.207-.01c.036,0,.073,0,.109.005.12.006-.105-.023.015,0,.065.014.13.028.194.048.03.009.059.019.087.03a.385.385,0,0,0,.058.023c-.02,0-.1-.048-.039-.015a2.756,2.756,0,0,1,.369.221c.1.076-.06-.052.011.008.025.021.051.042.076.065.064.055.126.114.185.174s.1.109.152.166l.069.08.044.055c.044.052,0,0-.017-.024a8.579,8.579,0,0,1,.528.835q.111.211.208.429c.01.023.06.14.027.061l.03.072c.044.1.087.21.13.315a45.646,45.646,0,0,1,1.6,4.7c.452,1.6.83,3.211,1.166,4.833s.628,3.266.9,4.906q.413,2.505.792,5.014.1.657.194,1.313c.03.215.061.43.091.646.008.055.015.112.023.167.01.072-.005-.041-.006-.045s.034.259.018.13c-.011-.083,0,0,0,.013,0,.032.009.064.012.1.008.055.015.111.022.167.112.876.21,1.754.281,2.634a32.6,32.6,0,0,1,.038,5.253c-.016.19-.034.379-.053.568-.01.1-.021.191-.033.287,0,.041-.009.082-.015.123,0,.02-.005.041-.008.061l-.005.041c.013-.1-.005.038-.009.062-.006.048-.013.1-.02.144-.015.1-.03.191-.045.287-.031.191-.065.381-.1.571a15.844,15.844,0,0,1-.58,2.174q-.091.261-.193.519c-.017.045-.035.089-.053.134s-.079.18-.009.023c-.039.087-.076.176-.115.263-.155.341-.324.676-.511,1a10.632,10.632,0,0,1-.6.929l-.085.116c-.014.019-.11.144-.052.069s-.023.029-.037.046l-.1.119a3.511,3.511,0,0,1-.368.371c-.034.03-.08.041.034-.025a.5.5,0,0,0-.046.034c-.031.022-.062.042-.1.062s-.077.043-.116.064c-.017.009-.079.034,0,0,.1-.039-.02.006-.032.01-.036.012-.073.023-.109.032-.02,0-.041.007-.06.012-.08.023.126-.009.043,0a2.585,2.585,0,0,1-.28,0c-.067,0,.063.005.064.009s-.084-.016-.079-.015c-.04-.009-.079-.019-.118-.03s-.091-.028-.136-.045a.259.259,0,0,0-.058-.022c.032,0,.107.049.032.012a3.9,3.9,0,0,1-.509-.3l-.1-.074c-.022-.016-.044-.036-.066-.05.028.018.133.1,0,0s-.027-.008,0,0a.239.239,0,0,1-.044-.035l-.116-.094q-.193-.159-.378-.329-.372-.342-.71-.721-.171-.191-.333-.39a2.154,2.154,0,0,0-.148-.187s.074.1.036.045l-.034-.044-.087-.118q-.3-.408-.564-.839a14.394,14.394,0,0,1-.928-1.794l-.03-.069c-.006-.014-.032-.075,0,0s-.014-.037-.022-.055c-.036-.087-.07-.174-.1-.262s-.058-.153-.087-.229c-.012-.029-.067-.121-.062-.15,0,0,.039.1.018.045s-.035-.094-.052-.141q-.178-.49-.33-.987c-.2-.661-.376-1.33-.526-2s-.277-1.357-.388-2.04q-.1-.612-.187-1.228l-.04-.294c-.009-.059,0,.012,0,.02l-.009-.068-.023-.181c-.026-.2-.052-.408-.076-.612-.2-1.662-.332-3.336-.373-5.009s-.033-3.332.057-5q.067-1.241.185-2.48.06-.625.133-1.248c.049-.414.1-.811.151-1.184q.345-2.477.9-4.918.535-2.348,1.263-4.646a.357.357,0,0,0-.688-.19" transform="translate(-12.752 -5.382)"/>
      <path id="Path_247229" data-name="Path 247229" d="M122.335,33.121c-.461-.8-.939-1.588-1.361-2.409q-.32-.624-.616-1.262-.143-.31-.278-.624c-.02-.046-.041-.092-.06-.139l-.036-.088c-.044-.105-.087-.21-.128-.315a26.916,26.916,0,0,1-1.509-5.315c-.04-.23-.076-.462-.112-.693-.016-.107-.032-.213-.047-.32,0-.025-.007-.05-.011-.075s-.019-.141,0-.034,0-.019,0-.034l-.012-.094q-.088-.687-.139-1.378a26.917,26.917,0,0,1,.151-5.531c.013-.107-.006.046-.008.055,0-.031.009-.062.013-.094l.023-.169q.025-.169.052-.337.055-.347.119-.691.127-.679.289-1.352a25.477,25.477,0,0,1,.795-2.648c.156-.433.319-.865.5-1.291.019-.045.1-.228.014-.035.02-.046.04-.093.059-.14.05-.116.1-.232.153-.347l.063-.138c.028-.063.055-.127.082-.191-.073.169-.032.075-.014.034q.07-.166.144-.332a3.772,3.772,0,0,0,.236-.761.512.512,0,0,0-.857-.5l-.123.133c-.016.017-.034.034-.049.053s-.169.218-.045.058a2.96,2.96,0,0,0-.281.406c-.107.2-.212.4-.306.609q-.321.7-.6,1.413a22.968,22.968,0,0,0-.854,2.669,27.245,27.245,0,0,0-.832,5.673,27.974,27.974,0,0,0,.358,5.682,25.843,25.843,0,0,0,1.518,5.394q.063.158.129.316c.032.077.063.153.1.229l.037.087.045.1q.141.321.289.637c.2.422.407.84.629,1.251a20.327,20.327,0,0,0,1.515,2.362c.146.2.308.383.47.568.247.283.694-.081.512-.4" transform="translate(-25.588 -1.256)"/>
      <path id="Path_247230" data-name="Path 247230" d="M112.7,2.22A26.2,26.2,0,0,0,110.281,5.8,23.253,23.253,0,0,0,108.54,9.8a26.031,26.031,0,0,0-1.028,4.2,24.669,24.669,0,0,0-.269,4.391,27.44,27.44,0,0,0,.49,4.381c.017.09.034.18.053.27l.023.116c0-.005.014.077.016.077s-.018-.154-.008-.042l1.127-.305a7.175,7.175,0,0,0-.621-.989c-.22-.326-.453-.638-.69-.95a.647.647,0,0,0-.355-.273.595.595,0,0,0-.671.874c.2.344.406.683.626,1.015a7.967,7.967,0,0,0,.762,1.057.6.6,0,0,0,.794.048.617.617,0,0,0,.156-.781c-.041-.094.041.12,0-.022-.012-.037-.022-.075-.033-.113-.025-.087-.049-.176-.073-.264q-.071-.265-.135-.532-.122-.514-.219-1.034-.049-.259-.092-.519c-.015-.09-.03-.18-.043-.27a1.164,1.164,0,0,1-.017-.116s.012.093,0,.035c0-.033-.009-.065-.012-.1q-.067-.526-.11-1.054a24.43,24.43,0,0,1,.023-4.268q.05-.536.119-1.07c0-.018.017-.13.009-.074l.016-.117c.013-.091.027-.181.041-.272q.041-.272.089-.543.183-1.045.454-2.071a24.627,24.627,0,0,1,1.458-4.006,21.489,21.489,0,0,1,2.134-3.695c.1-.143.21-.284.318-.424.077-.1-.1-.237-.177-.137" transform="translate(-23.354 -0.479)"/>
      <path id="Path_247231" data-name="Path 247231" d="M104.709,1.983a.445.445,0,0,0-.468-.465,1.107,1.107,0,0,0-.678.3,2.557,2.557,0,0,0-.483.732q-.247.446-.47.9a20.091,20.091,0,0,0-1.4,3.741,21.356,21.356,0,0,0-.528,7.967,20.091,20.091,0,0,0,1.04,4.416.583.583,0,0,0,1.124-.31,20.777,20.777,0,0,1-1.031-3.644c-.057-.307-.105-.615-.15-.924l0,.017c-.006-.041-.011-.081-.016-.122-.01-.081-.02-.162-.03-.244q-.028-.244-.05-.487-.085-.936-.086-1.875t.08-1.873q.041-.467.1-.931c-.012.1.005-.037.007-.047l.014-.1c.011-.074.022-.148.034-.223.026-.162.052-.322.082-.483a21.632,21.632,0,0,1,.966-3.62,19.277,19.277,0,0,1,.823-1.91c.079-.158.156-.319.243-.472.012-.023.026-.045.041-.066-.025.035.023-.026.027-.03a.744.744,0,0,1,.117-.1.968.968,0,0,1,.144-.081c-.043.019.034-.01.034-.011s.108-.025.046-.014c.009,0,.113,0,.042,0,.029,0,.027,0-.008,0,.027.007.024,0-.007-.009.041.033-.02-.028-.021-.029s.005.014,0,0a.229.229,0,0,0,.458,0" transform="translate(-22.037 -0.333)"/>
      <path id="Path_247232" data-name="Path 247232" d="M89.271,1.066a26.106,26.106,0,0,0-1.854,7.351,27.281,27.281,0,0,0,.288,7.616,26.685,26.685,0,0,0,1.062,4.09.65.65,0,0,0,1.253-.346,24.136,24.136,0,0,1-1.1-3.567q-.2-.911-.34-1.835c-.012-.078-.023-.155-.034-.233,0-.028-.01-.057-.012-.085.009.148,0,0,0-.023-.02-.156-.039-.313-.056-.469-.034-.314-.064-.628-.087-.942a25.371,25.371,0,0,1,.007-3.734q.033-.45.082-.9c.016-.157.035-.313.055-.469,0-.028.007-.057.011-.085s.022-.16,0-.037c.012-.085.023-.17.036-.255q.135-.915.333-1.818A25.381,25.381,0,0,1,90.153,1.31a.459.459,0,0,0-.319-.563.472.472,0,0,0-.563.319" transform="translate(-19.133 -0.161)"/>
      <path id="Path_247233" data-name="Path 247233" d="M79.219.294a46.519,46.519,0,0,0-1.1,8.461c-.05,1.349-.052,2.7.03,4.051a15.567,15.567,0,0,0,.54,3.449A7.351,7.351,0,0,0,80.64,19.64a.7.7,0,1,0,.988-.988,7.8,7.8,0,0,1-.554-.593c-.043-.051-.084-.1-.126-.155-.056-.072.109.146.03.038l-.065-.088c-.078-.109-.152-.22-.223-.333a7.091,7.091,0,0,1-.386-.705c-.027-.055-.052-.111-.077-.166l-.045-.1c-.044-.1.02.05.023.057-.06-.135-.111-.276-.161-.415a11.167,11.167,0,0,1-.429-1.556q-.083-.409-.144-.822l-.016-.112c0-.017-.02-.144,0-.031s0-.014,0-.031l-.014-.113c-.017-.138-.033-.277-.047-.415-.132-1.287-.175-2.585-.178-3.877q0-2.092.178-4.178.049-.567.111-1.134c.02-.189.041-.377.065-.566.012-.1.025-.2.037-.306.005-.039.01-.078.016-.117,0-.016.024-.186.015-.116q.156-1.156.371-2.3a.406.406,0,0,0-.782-.215" transform="translate(-17.119 0)"/>
      <path id="Path_247234" data-name="Path 247234" d="M67.674,4.181a34.06,34.06,0,0,0,.109,6.77,34.481,34.481,0,0,0,1.451,6.706q.289.892.629,1.767.172.442.356.879a7.251,7.251,0,0,0,.464.988.622.622,0,0,0,.773.253.613.613,0,0,0,.358-.73c-.2-.563-.487-1.1-.725-1.643l-.087-.2-.035-.081c-.057-.134.038.092,0,0q-.081-.194-.161-.389-.157-.39-.305-.784-.591-1.573-1.024-3.2t-.7-3.28q-.067-.415-.123-.829c-.02-.141.007.055,0-.03,0-.037-.009-.073-.015-.109-.008-.066-.016-.132-.024-.2q-.026-.208-.049-.418-.091-.835-.141-1.676a33.322,33.322,0,0,1,0-3.8.377.377,0,0,0-.376-.375.384.384,0,0,0-.375.375" transform="translate(-14.811 -0.834)"/>
      <path id="Path_247235" data-name="Path 247235" d="M58.963,6.313c0,.527.055,1.059.1,1.584s.1,1.052.171,1.577q.2,1.6.527,3.18a46.014,46.014,0,0,0,1.686,6.077c.408,1.155.852,2.3,1.338,3.423a.589.589,0,0,0,.351.271.589.589,0,0,0,.665-.865q-.363-.691-.7-1.4-.173-.362-.34-.727c-.049-.109-.1-.218-.142-.328-.015-.034-.03-.068-.044-.1-.005-.012-.041-.1-.02-.045s-.014-.034-.019-.045l-.052-.124q-.6-1.45-1.1-2.942a40.485,40.485,0,0,1-1.473-6.108q-.139-.842-.243-1.69c-.073-.6-.11-1.209-.2-1.809a.26.26,0,0,0-.288-.188.263.263,0,0,0-.227.258" transform="translate(-12.927 -1.327)"/>
      <path id="Path_247236" data-name="Path 247236" d="M47.79,12.717a28.865,28.865,0,0,0,1.718,5.693,31.66,31.66,0,0,0,2.824,5.3q.459.692.958,1.356c.1.138.2.284.316.414-.091-.1-.038-.049-.019-.023l.073.1.124.162c.2.26.4.518.609.771a.651.651,0,0,0,.459.19.649.649,0,0,0,.46-1.109c-.343-.354-.679-.713-1-1.089q-.238-.282-.468-.57c-.072-.091-.144-.182-.215-.273l-.05-.065c-.053-.068.082.108,0,0l-.125-.164a27.083,27.083,0,0,1-1.63-2.423,27.536,27.536,0,0,1-1.385-2.611c-.1-.224-.2-.449-.3-.675l-.065-.151,0-.011-.031-.077q-.075-.18-.148-.362-.274-.687-.514-1.389a28.689,28.689,0,0,1-.885-3.186.366.366,0,1,0-.706.194" transform="translate(-10.475 -2.687)"/>
      <path id="Path_247237" data-name="Path 247237" d="M27.312,15.31q1.474,3.029,2.954,6.054c.987,2.017,1.984,4.03,2.951,6.056q.41.86.821,1.72l.2.418c.01.021.064.11.019.033-.07-.122.066.146.086.188.032.066.06.134.089.2l.194.451c.032.075.065.15.1.226a.7.7,0,0,1,.039.09l-.041-.08a1.688,1.688,0,0,0,.1.218l1-1A50.757,50.757,0,0,1,31.2,27.216Q30.079,26.49,29,25.7q-.533-.39-1.06-.788l-.258-.2-.12-.092c-.093-.071.027.02.037.029-.027-.023-.057-.045-.086-.066q-.266-.206-.529-.417c-.113-.09-.224-.182-.339-.27-.163-.126-.015-.023,0,0a.454.454,0,0,0-.084-.069l-.154-.121q-.29-.23-.576-.464l-.067-.055c-.044-.035-.244-.172-.132-.1.067.041.012.007,0-.007-.032-.029-.066-.056-.1-.084-.094-.079-.188-.159-.282-.239-.192-.165-.388-.327-.573-.5a.586.586,0,0,0-.919.71c.849,1.562,1.668,3.141,2.495,4.716l2.48,4.725,1.4,2.675.776-.776a40.4,40.4,0,0,0-4.971-1.75q-.711-.2-1.43-.373a.6.6,0,0,0-.57.151.579.579,0,0,0-.151.571,19.554,19.554,0,0,0,2.37,4.518,12.963,12.963,0,0,0,.952,1.194l.429-1.035a19.411,19.411,0,0,0-3.224-.043c-.263.02-.525.046-.788.077l-.112.014c-.046.006-.23.032-.136.02l-.044.005c-.068.008-.136.017-.2.027-.134.018-.269.037-.4.059q-.792.125-1.569.322c-.593.151-1.172.337-1.747.542a.482.482,0,0,0-.285.7c1.138,1.731,2.287,3.455,3.413,5.194L23,43.771a4.134,4.134,0,0,0-5.1,2.555A8.462,8.462,0,0,0,18,50.371c.014.088.028.176.041.265,0,.03.009.059.012.088s.027.173,0,.031c.028.174.042.353.055.529a4.969,4.969,0,0,1,0,.849c-.005.059-.012.119-.019.177-.005.043-.034.161,0-.016-.006.029-.009.059-.013.087-.02.132-.042.265-.073.4-.059.249-.107.5-.179.748a7.4,7.4,0,0,1-.26.743c-.017.043-.062.126.018-.041-.015.031-.028.064-.042.1q-.035.081-.073.159-.09.191-.19.377-.184.344-.4.671c-.072.11-.146.218-.222.325-.014.02-.029.039-.042.059l-.021.03c.1-.125.082-.105-.044.057l-.13.173c.139-.186-.016.02-.05.062l-.115.141q-.135.162-.274.317-.276.308-.573.6c-.194.19-.4.373-.6.551-.1.089-.208.177-.314.263-.048.04-.1.079-.146.117l-.088.069c-.111.087.137-.1.024-.019a17.734,17.734,0,0,1-2.8,1.75c-.554.277-1.119.533-1.688.778l-.191.081c-.042.018-.183.077.018-.007l-.077.032L9.1,61.1q-.422.173-.846.343a34.862,34.862,0,0,0-6.731,3.214c-.25.169-.493.346-.732.529a.826.826,0,0,0-.3.348.691.691,0,0,0-.037.473.758.758,0,0,0,.7.534,26.579,26.579,0,0,0,6.877-.5,27.443,27.443,0,0,0,6.5-2.2q.85-.412,1.671-.884c.554-.319,1.079-.675,1.609-1.032a.653.653,0,1,0-.659-1.127c-.647.436-1.337.827-2.022,1.2s-1.382.713-2.095,1.023l-.135.059-.058.025.068-.029c-.1.04-.194.081-.291.12-.181.074-.364.146-.547.215q-.549.21-1.108.4-1.107.368-2.243.637-1.288.307-2.6.484l.191-.026a26.908,26.908,0,0,1-5.155.191l.515,1.241c-.193.149.037-.027.082-.06s.11-.082.166-.122q.191-.138.386-.27c.248-.169.5-.329.759-.484.521-.313,1.057-.6,1.6-.867s1.093-.515,1.648-.752l.19-.081c.141-.059-.16.068-.02.009l.077-.032.458-.191q.422-.172.845-.343A32,32,0,0,0,14.3,60.015,12.148,12.148,0,0,0,18.7,54.888a6.635,6.635,0,0,0,.546-3.15,13.693,13.693,0,0,0-.271-2.053c-.059-.322-.119-.643-.167-.966,0-.03-.008-.059-.012-.087-.021-.148.012.115,0-.034-.009-.073-.017-.145-.024-.218-.017-.173-.03-.347-.034-.522,0-.144,0-.287.007-.431.005-.086.014-.171.023-.257,0-.026,0-.1,0,.011a1.25,1.25,0,0,1,.029-.17,3.705,3.705,0,0,1,.1-.412c.02-.061.041-.122.064-.182a.363.363,0,0,0,.024-.059c-.031.073-.036.084-.014.034.009-.02.018-.039.027-.058a2.833,2.833,0,0,1,.16-.3c.03-.05.062-.1.1-.146l.037-.052.037-.052c-.047.061-.054.07-.02.028a3.887,3.887,0,0,1,.493-.5l.074-.061c.057-.047-.011.026-.027.02.018.006.137-.1.157-.112q.146-.1.3-.185c.047-.026.094-.051.143-.074s.156-.051.175-.082c-.017.028-.1.038-.032.014l.09-.035c.06-.023.121-.045.182-.064.112-.036.226-.066.341-.092l.158-.03a.541.541,0,0,0,.094-.015c-.1.04-.069.009-.008,0a3.507,3.507,0,0,1,.7-.008.4.4,0,0,0,.1.01l-.07-.009.063.009c.052.009.105.018.157.03a3.021,3.021,0,0,1,.341.094A.5.5,0,0,0,23.3,44c-1.161-1.717-2.3-3.449-3.447-5.173q-.143.349-.285.7a16.245,16.245,0,0,1,3.065-.764l.2-.03.045-.006c-.066.009.029,0,.044-.005.142-.018.284-.037.426-.051.255-.023.51-.04.764-.053q.791-.039,1.581-.007c.3.012.6.033.9.061l.226.023.09.01.045,0c.067.006.059.005-.022,0a.742.742,0,0,1,.2.03l.244.04a.621.621,0,0,0,.637-.217.6.6,0,0,0,.048-.674c-.126-.162-.247-.329-.369-.494-.079-.105-.16-.211-.244-.313.106.13,0,.006-.019-.025l-.1-.137q-.364-.488-.7-1a18.91,18.91,0,0,1-1.2-2.144q-.148-.308-.284-.622c-.008-.02-.016-.039-.025-.059l-.02-.048c.03.073,0,.005,0-.008-.013-.034-.027-.066-.041-.1-.046-.112-.091-.225-.135-.338l-.721.721a33.923,33.923,0,0,1,4.885,1.463c.223.085.445.173.667.262l.341.141c.009,0,.081.034.017.007l.039.016.191.082a.568.568,0,0,0,.776-.776l-2.48-4.725-2.48-4.725c-.468-.892-.933-1.785-1.387-2.684l-.92.71c.652.614,1.279,1.252,1.95,1.845.335.3.68.582,1.026.866q.251.206.5.408c.121.1.242.192.365.286.023.017.1.069.014.01-.126-.08.066.052.123.1l.155.119A48.2,48.2,0,0,0,32.409,29.7c.869.518,1.764.992,2.666,1.45a.749.749,0,0,0,.884-.114.759.759,0,0,0,.113-.883c-.016-.031-.1-.191-.136-.191.057,0,.077.116.034.025-.03-.065-.074-.126-.11-.189l-.222-.378c-.144-.245-.278-.5-.412-.746l-.781-1.461q-.793-1.483-1.569-2.973-1.555-2.982-3.111-5.963Q28.887,16.589,28,14.907a.4.4,0,0,0-.547-.143.409.409,0,0,0-.144.547" transform="translate(-0.093 -3.225)"/>
      <path id="Path_247238" data-name="Path 247238" d="M121.437,31.571q2.108-3.389,3.887-6.971.882-1.778,1.668-3.6c.536-1.246,1.076-2.5,1.5-3.788a8.774,8.774,0,0,0,.451-4.566.573.573,0,0,0-.55-.418.582.582,0,0,0-.549.418q-.762,3.089-1.537,6.177L124.768,25q-.769,3.075-1.538,6.152c-.258,1.034-.52,2.066-.8,3.093a2.683,2.683,0,0,0-.152.781,1.016,1.016,0,0,0,.712.965c.657.2,1.19-.354,1.632-.743,1.585-1.391,3.175-2.778,4.725-4.207.19-.176.383-.347.576-.519l-1.047-.808q-1.472,3.012-2.961,6.017l-.409.828c-.144.29-.3.572-.446.862a.69.69,0,1,0,1.191.7,1.086,1.086,0,0,0,.091-.208c-.032.133-.031.075-.01.03.032-.066.061-.133.091-.2.061-.134.123-.265.187-.4l.363-.743q.369-.753.736-1.506.737-1.506,1.478-3.01l.841-1.7a.668.668,0,0,0-1.047-.808c-.8.7-1.623,1.388-2.429,2.089s-1.607,1.4-2.406,2.111l-.654.578c-.1.09-.213.175-.309.271.121-.122.1-.075.055-.046s-.062.038-.1.056c-.069.04-.027-.028.071-.028a.779.779,0,0,0-.1.023l.188-.025a.536.536,0,0,1-.094,0l.188.025c-.069-.017-.042,0,.081.041q-.146-.1.157.166c-.035-.062-.025-.035.031.081a.357.357,0,0,1-.012-.064l.025.186a.843.843,0,0,1,0-.172c-.009.062-.016.123-.025.185.05-.35.148-.7.226-1.042l.251-1.094c.164-.714.339-1.424.511-2.136l1.045-4.34q1.04-4.317,2.079-8.634.584-2.431,1.178-4.861h-1.1c.017.081.034.162.047.244.007.037.012.074.018.111.025.151-.012-.125,0,.027s.031.326.037.49a6.849,6.849,0,0,1-.037.938c0,.045-.01.089-.016.134-.016.147.014-.086,0,.005s-.025.164-.039.245q-.042.246-.1.49c-.07.312-.155.621-.249.928-.194.628-.428,1.242-.67,1.852-.124.311-.249.621-.377.931-.058.141-.116.281-.175.422-.029.07-.058.141-.088.21.055-.129-.005.012-.013.033l-.054.126c-1.025,2.408-2.146,4.776-3.378,7.085q-1.042,1.952-2.187,3.847a.5.5,0,1,0,.864.505" transform="translate(-26.42 -2.681)"/>
      <path id="Path_247239" data-name="Path 247239" d="M90.719,39.132l-.29-.775c-.1-.258-.169-.524-.245-.789a.318.318,0,0,0-.383-.217,2.745,2.745,0,0,0-.287.072h.016c.046,0,.02,0-.078.013a.82.82,0,0,0-.113.048c-.049.022-.1.043-.148.066a3.041,3.041,0,0,0-.5.3,4.386,4.386,0,0,0-.908.919c-.03.039-.06.079-.087.12.069-.1-.034.045-.041.053s-.023.037-.034.056c-.059.1-.116.191-.17.288-.1.179-.187.362-.267.549a8.916,8.916,0,0,0-.434,1.246,11.279,11.279,0,0,0-.386,2.762,6.183,6.183,0,0,0,.621,2.906,4.358,4.358,0,0,0,1.9,1.878,5.046,5.046,0,0,0,1.25.44c.1.02.2.036.3.05l.175.023-.109-.013c.072.009.139.02.209.027l.168.014a4.718,4.718,0,0,0,.621,0,5.107,5.107,0,0,0,2.58-.869,5.828,5.828,0,0,0,1.869-2.124,6.755,6.755,0,0,0,.736-2.8,6.99,6.99,0,0,0-.515-2.865,9.071,9.071,0,0,0-1.624-2.621,7.91,7.91,0,0,0-1.043-1,4.084,4.084,0,0,0-1.528-.815,2.857,2.857,0,0,0-1.5.027,3.348,3.348,0,0,0-1.208.693,5.959,5.959,0,0,0-1.5,2.263,10.144,10.144,0,0,0-.429,1.28,7.484,7.484,0,0,0-.285,1.78A4.2,4.2,0,0,0,87.3,43.7a4.568,4.568,0,0,0,.72,1.248,5.412,5.412,0,0,0,1.994,1.489,8.993,8.993,0,0,0,2.671.728,3.657,3.657,0,0,0,3.064-.713,4.158,4.158,0,0,0,1.088-2.833A5.758,5.758,0,0,0,94.467,38.8a3.062,3.062,0,0,0-3.278-.43,3.677,3.677,0,0,0-1.62,2.522,5.5,5.5,0,0,0,.284,3.118,4.785,4.785,0,0,0,.892,1.476,2.018,2.018,0,0,0,.816.536,1.508,1.508,0,0,0,1.122-.089,3.383,3.383,0,0,0,1.134-1.074,9.332,9.332,0,0,0,.9-1.355,6.309,6.309,0,0,0,.8-3.105,4.725,4.725,0,0,0-1.056-2.806,3.822,3.822,0,0,0-2.307-1.42,3.509,3.509,0,0,0-1.579.088,4.06,4.06,0,0,0-1.377.76,4.6,4.6,0,0,0-1.507,2.415,7.033,7.033,0,0,0,.116,3.511,8.812,8.812,0,0,0,1.177,2.692,5.931,5.931,0,0,0,.923,1.087,4.39,4.39,0,0,0,1.292.811,3.243,3.243,0,0,0,2.653-.121,3.711,3.711,0,0,0,1.6-1.69,4.777,4.777,0,0,0-.373-4.953,8.613,8.613,0,0,0-2.106-2.087,17.836,17.836,0,0,0-2.267-1.359.772.772,0,0,0-.778,1.333,16.922,16.922,0,0,1,2.507,1.538l-.156-.12a7.7,7.7,0,0,1,1.4,1.364l-.121-.156a5.458,5.458,0,0,1,.7,1.2c-.027-.061-.052-.123-.078-.184a3.677,3.677,0,0,1,.244.9c-.009-.068-.019-.137-.027-.205a4.152,4.152,0,0,1,0,1.074l.028-.205a4.308,4.308,0,0,1-.3,1.088l.078-.184a3.784,3.784,0,0,1-.461.8l.12-.156a3.06,3.06,0,0,1-.525.533l.156-.12a2.616,2.616,0,0,1-.563.332l.184-.078a2.4,2.4,0,0,1-.588.161l.205-.027a2.646,2.646,0,0,1-.667,0l.205.027a2.776,2.776,0,0,1-.7-.194l.184.078a3.339,3.339,0,0,1-.712-.426l.156.121a4.721,4.721,0,0,1-.8-.817l.121.156a6.933,6.933,0,0,1-.876-1.519l.078.184a9.147,9.147,0,0,1-.642-2.31c.009.068.019.137.027.205a6.039,6.039,0,0,1-.009-1.547c-.009.069-.018.137-.027.205a4.436,4.436,0,0,1,.286-1.082c-.027.062-.052.123-.078.185a4.123,4.123,0,0,1,.512-.886l-.12.156a3.863,3.863,0,0,1,.663-.673l-.155.121a3.266,3.266,0,0,1,.709-.421l-.183.078a2.885,2.885,0,0,1,.692-.194l-.2.027a2.692,2.692,0,0,1,.718,0l-.2-.028a2.847,2.847,0,0,1,.675.187l-.183-.077a3.235,3.235,0,0,1,.695.408l-.155-.12a3.774,3.774,0,0,1,.654.657l-.12-.155a4.047,4.047,0,0,1,.512.871l-.077-.183a3.871,3.871,0,0,1,.269.97c-.009-.068-.019-.136-.027-.2a4.535,4.535,0,0,1-.01,1.173l.027-.2a5.743,5.743,0,0,1-.4,1.426l.077-.183a7.953,7.953,0,0,1-1.025,1.715l.119-.155a4.539,4.539,0,0,1-.752.823l.154-.119a1.2,1.2,0,0,1-.227.133l.183-.077a.944.944,0,0,1-.18.051l.2-.027a.886.886,0,0,1-.182,0l.2.027a.893.893,0,0,1-.205-.053l.182.077a1.222,1.222,0,0,1-.251-.148l.154.119a2.028,2.028,0,0,1-.342-.352l.119.154a4.486,4.486,0,0,1-.543-.946l.077.182A4.916,4.916,0,0,1,91,42.412c.009.067.018.135.027.2a4.865,4.865,0,0,1,0-1.291c-.009.068-.018.135-.027.2a4.334,4.334,0,0,1,.272-1.029c-.025.06-.051.121-.077.181a3.229,3.229,0,0,1,.412-.718l-.119.154a2.417,2.417,0,0,1,.394-.4l-.154.119a1.952,1.952,0,0,1,.415-.247l-.181.077a1.746,1.746,0,0,1,.426-.114l-.2.027a2.016,2.016,0,0,1,.465,0l-.2-.027a2.745,2.745,0,0,1,.661.187l-.181-.077a4.227,4.227,0,0,1,.9.534l-.153-.119a4.812,4.812,0,0,1,.838.843l-.119-.153a5.127,5.127,0,0,1,.651,1.12l-.076-.18a5.174,5.174,0,0,1,.352,1.281c-.009-.067-.018-.134-.027-.2a4.834,4.834,0,0,1,0,1.256c.009-.066.018-.134.027-.2a4.247,4.247,0,0,1-.284,1.067l.076-.18a2.859,2.859,0,0,1-.339.593l.117-.152a2.044,2.044,0,0,1-.147.171,1.827,1.827,0,0,0-.165.153c0-.016.17-.122.03-.026-.033.022-.066.044-.1.064a2.134,2.134,0,0,1-.211.106l.178-.075a2.591,2.591,0,0,1-.649.17l.2-.027a5.927,5.927,0,0,1-1.505-.043l.2.027a7.976,7.976,0,0,1-2-.533l.176.074a6.313,6.313,0,0,1-.775-.39c-.122-.073-.241-.15-.357-.233l-.1-.077c-.1-.071.144.116.045.035-.054-.045-.109-.088-.161-.134-.1-.091-.2-.187-.3-.287-.047-.05-.093-.1-.137-.153l-.06-.073c-.081-.1.116.158.027.034a3.7,3.7,0,0,1-.416-.724l.073.172a3.546,3.546,0,0,1-.238-.89l.026.191a4.71,4.71,0,0,1,.013-1.167l-.026.19a9.549,9.549,0,0,1,.336-1.467c.055-.186.116-.369.184-.551.031-.085.065-.17.1-.255.017-.044.055-.118-.032.073.009-.02.018-.042.027-.063.019-.042.037-.084.057-.126a6.106,6.106,0,0,1,.568-1l.079-.108c.05-.067-.1.128-.049.063.011-.012.021-.026.031-.039.062-.077.126-.151.193-.223s.119-.123.182-.181c.031-.029.062-.057.094-.084s.159-.127.051-.044.028-.018.055-.037c.042-.029.085-.056.13-.083.078-.047.159-.088.241-.127.046-.022.114-.034-.084.034l.071-.027c.042-.016.086-.03.129-.043a2.17,2.17,0,0,1,.3-.065l-.186.025a2.191,2.191,0,0,1,.563,0l-.185-.025a2.3,2.3,0,0,1,.349.077c.051.016.1.032.15.051.02.007.144.058.028.009s.02.012.044.023a4.143,4.143,0,0,1,.617.383c.078.056-.139-.112-.028-.022l.063.051c.041.034.084.069.124.1.1.086.2.176.294.267.17.162.333.331.49.506.078.088.154.177.229.269l.1.122c.071.089-.033-.043-.038-.05.025.03.048.062.071.094q.217.289.407.6t.342.614c.05.1.1.2.142.3l.039.089c.039.087-.07-.174-.019-.044.024.06.048.12.072.181a6.953,6.953,0,0,1,.39,1.537c-.009-.063-.017-.126-.025-.19a6.1,6.1,0,0,1,0,1.587c.009-.063.017-.126.025-.19a5.958,5.958,0,0,1-.238,1.037c-.026.08-.054.16-.083.239l-.045.118a.291.291,0,0,0-.027.066c0-.013.069-.161.03-.071-.073.165-.151.327-.237.484s-.173.3-.269.444c-.046.069-.094.138-.143.205l-.043.057c-.041.056.062-.074.056-.073-.028.012-.081.1-.1.126q-.165.2-.35.379a2.8,2.8,0,0,1-.4.351s.123-.093.069-.055l-.043.032c-.038.029-.077.056-.116.084-.074.051-.149.1-.226.145a4.163,4.163,0,0,1-.436.232c-.024.01-.161.069-.041.019s-.016,0-.043.016c-.084.032-.169.061-.254.087a4.482,4.482,0,0,1-.472.119c-.077.016-.155.027-.232.04s.162-.02.078-.011l-.05.005c-.045.005-.089.009-.134.013a4.517,4.517,0,0,1-.5.014c-.162,0-.324-.018-.485-.035-.082-.009.156.023.075.01l-.05-.007-.132-.022c-.083-.016-.165-.033-.246-.052a4.348,4.348,0,0,1-.461-.138l-.109-.041-.061-.025c-.063-.024.084.036.074.032-.079-.04-.161-.073-.24-.113a3.9,3.9,0,0,1-.411-.244l-.094-.066-.043-.032c.087.066-.023-.019-.041-.035-.034-.028-.067-.057-.1-.087a3.5,3.5,0,0,1-.347-.358c-.017-.021-.1-.126-.047-.056s-.029-.041-.045-.062c-.055-.077-.108-.156-.157-.237a4.145,4.145,0,0,1-.261-.5l-.023-.052c.06.126.027.062.015.032s-.032-.082-.048-.123c-.032-.089-.062-.178-.09-.269a5.589,5.589,0,0,1-.136-.553c-.016-.087-.03-.176-.045-.264s.013.113,0-.028c-.006-.052-.012-.1-.017-.154a8.316,8.316,0,0,1-.03-1.15q.011-.283.037-.566c.009-.091.018-.181.028-.271a.6.6,0,0,1,.016-.135c-.032.083-.008.052,0,.016s.031-.246.019-.142c-.007.067.011-.073.013-.088.005-.038.012-.077.018-.116.014-.084.028-.166.044-.25q.048-.252.109-.5a7.981,7.981,0,0,1,.292-.953c.014-.037.029-.074.044-.111s.048-.117.013-.036c.036-.084.073-.166.112-.248.07-.147.15-.287.23-.428a4.453,4.453,0,0,1,.254-.4c.012-.015.094-.123.034-.048l.071-.087q.076-.094.159-.18a3.459,3.459,0,0,1,.339-.312c.043-.035-.046.034,0,0l.038-.028q.052-.037.105-.073c.066-.044.135-.085.2-.123.034-.018.068-.033.1-.05s.039-.024.065-.041c.122-.079-.029.014.032-.016l.1-.049.059-.027c-.013.005-.045.018.016-.006l-.352-.143c.116.233.237.464.336.705l.3.746a.249.249,0,0,0,.3.169.243.243,0,0,0,.169-.3" transform="translate(-18.934 -7.891)"/>
    </g>
  </g>
</svg>
