<svg id="Group_42749" data-name="Group 42749" xmlns="http://www.w3.org/2000/svg" xmlns:xlink="http://www.w3.org/1999/xlink" width="470.71" height="395.182" viewBox="0 0 470.71 395.182">
  <defs>
    <clipPath id="clip-path">
      <rect id="Rectangle_10836" data-name="Rectangle 10836" width="470.71" height="395.182" fill="none"/>
    </clipPath>
  </defs>
  <g id="Group_42748" data-name="Group 42748" clip-path="url(#clip-path)">
    <path id="Path_247478" data-name="Path 247478" d="M295.7,1.916c-52.413-.309-104.623-.573-157.065-.888-2.177-.015-4.2-.982-6.372-1C127.9,0,79.343-.34,79.254,2.371,80.448,3.6,82.66,3.7,84.289,3.793c15.786.934,33.549-1.087,49.819-1.006,48.224.241,99.349,4.058,147.362,1.93,3.726-.166,9.262-.521,12.87-.96,1.363-.168,2.82-.729,1.358-1.842M74.668,142.825l1.969-3.089c-.459-41.853,2.548-87.452-.1-129.113-.068-1.078-.869-6.882-1.418-6.88Zm220.118-.927c1.768.286,2.465-.722,2.752-2.3,1.079-5.917-.252-16.4-.031-23.058,1.009-30.581,2.413-62.336,1-93.022-.1-2.177-1.295-16.116-2.341-16.088ZM238.595,25.861c-.6-.678-7.084,2.84-3.89,4.579l1.967.066.088,3.647c3.627.637,1.155-6.178,1.835-8.293m17.5,8.28c-2.455-3.684,1.16-10.033-5.548-7.847l-.89,2.321,3.688-.446-2.769,5.972Zm-114.2,14.745c29.071-2.325,28.393,43.636-2.083,38.46-7.8-1.324-12.272-9.864-13.113-9.893-3.235-.116.875,6.559,2.256,7.856,7.735,7.256,21.15,7.2,29.435.792,14.114-10.907,9.346-34.372-7.269-39.53-2.487-.772-9.717-.575-10.148-.845-.93-.584-1.673-3.393-2.759-4.673-7.364-8.678-16.405-11.516-27.345-7.077-23.622,9.584-13.541,47.373,11.68,41.6,1.393-1.444-.123-1.625-1.385-1.807-9.742-1.42-17.943-3.408-20.3-14.7-4.839-23.156,27.787-34.134,36.5-12.577-9.065,3.662-16.932,11.225-13.876,21.727l3.481-9.857c2.921-3.988,6.895-8.387,12.159-8.56,1.934,6.65-.89,13.937-5.62,18.783-1.835,1.881-7.377,4.121-6.814,7a23.053,23.053,0,0,0,15.2-26.7M266.234,35.992l-22.627.952c-6.718.243-13.738-1.914-20.246-.076-1.258.356-2.861.1-3.183,1.873,15.305-.077,30.87,2.5,46.047-.013Zm-23.948,16.56c8.95,3.918,7.534-9.361,0-8.269l2.765,3.675-2.765.461,3.688,1.846ZM357.409,57.18c.578,1.534,2.6,7.237,4.145,7.34,3.154.21-.162-9.179-4.145-7.34m55.261,16.56c-2.837.293-3.373-3.131-5.069-4.592-9.949-8.58-25.6-7.206-33.094,3.739-7.287,10.652-2.31,27.229,11.067,29.41l2.249-2.759c3.876,3.944,2.942-1.162,5.126-1.7,1.431-.356,5.3,1.984,7.269,1.706l.949-1.844c-1.568-2.653-4.563-1.337-6.911-2.3,1.243-2.334,16.079-13.985,17.488-12.434a26.53,26.53,0,0,0,.927,15.648c-3.139-.188-6.771-.348-4.417,3.529l8.1.155c.516-1.615-1.346-2.175-1.474-3.2-.389-3.141,4.649-6.924,7.444-7.854,3.288.7,2.721,20.936,3.693,22.11,1.748,2.111,3.885-1.181,6.445-.974,3.885.317,2.522,5.4-.5,6.933-1.779.9-4.294-.532-3.642,2.323,2.395-.245,4.659.381,5.533,2.759l-2.759.466c7.1,8.306,17.405-.042,20.428-8.116,7.657-20.452-4.62-57.337-30.97-53.07-4.5.729-11.152,4.811-7.884,10.065M348.2,66.387c-1.921,1.621,8.389,7.337,10.107,3.218-2.564-3.419-6.127-3.524-10.107-3.218m8.28,9.21c-.869-.879-8.987,1.628-8.28,4.594,3.292.011,9.031-.063,8.28-4.594M222.939,116.11c1.037-1.008-6.2-25.365-7.58-27.868a4.732,4.732,0,0,0-2.2-2.446c-2.468-.413-17.542,15.176-19.536,18.035-3.06,4.388-4.791,7,1.472,8.361,8.658,1.884,18.978,2.566,27.85,3.918M390.561,102.3c-4.485,2.035-10.728,1.315-11.131,7.827-.451,7.307,4.612,6.477,8.611,7.886.836.295,1.079,2.971,4.366,1.774-1.713-2.864-1.129-8,2.759-8.274-4.257,7.639,7.165,13.841,11.7,8.024,1.4-1.8.726-3.868,1.391-5.567.518-1.321,4.062-2.264,3.036-4.3-.985-1.964-2.3,1.4-4.447.847-2.321-.6-2.485-5.533-5.252-4.106-5.18,2.675-1,8.33,3.7,7.873.116,6.014-7.339,6.972-9.072,1.2l2.627-4.423c-1.938-1.547-4.076-2.1-3.7-5.08l-3.664,1.842Zm32.353,24.059c-6.445,17.105-30.583,19.279-38.049,1.439-1.113-2.658-1.23-4.741-1.949-7.269-.271-.949-.221-2.785-1.553-2.57-1.818,14.764,11.137,26.991,25.775,24.867l-.912,7.359c3.5.534,2.244-5.521,3.881-7.164a67.794,67.794,0,0,1,6.771-2.931c6.342-1.1,3.481,2.7,6.832,5.493l1.848-19.345Zm-19.459-.111c-1.73-1.761-4.727,4.636-7.372,2.761-1.267,7.175,9.892-.2,7.372-2.761M292.24,145.428c-.86-.742.046-3.813-2.732-5.161-3.384-1.641-19.452-1.932-22.318.295-1.479,1.148-1.393,3.4-2.085,3.907-1.442,1.055-6.932-.332-6.239,2.956l11.964.015-7.6,1.146-2.522,1.6,34.989.925c.392-1.6-1.068-1.958-1.389-3.235-.151-.6.753-2.023.462-2.264s-1.947.322-2.531-.182m-60.089,1.993c-.348-1.674-1.809-1.711-3.19-1.866-13.123-1.475-33.912-.724-47.887-.927-33.291-.479-66.716.048-99.972.508-.613,2.137,1.975,1.323,3.22,1.372,11.537.459,23.523.752,34.969.96,37.59.682,75.274-.58,112.861-.048m197.01-1.737c-2.588-2.065-4.857,2.861-6.978,4.356-3.842,2.708-8.882,3.054-12.752,5.662l-2.282,20.275c1.833.344,2.229-.834,2.833-2.223,1.608-3.7,1.372-9.488,3.627-13.426,2.015-1.448,10.278,9.335,13.578,5.29,1.916-2.35,4.325-18.059,1.975-19.934m-203.458,3.6-146.448-.472c23.543,2.664,47.649,1.07,71.426,1.343,21.878.252,50.493,3.391,71.833.993,1.38-.155,2.842-.192,3.189-1.864m176.827,2.752c-.048-3.677-5.04-4.047-7.751-3.649-6.128.9-11.645,11.6-9.3,17.488,2.538,3.818,7.989-5.941,10.942-5.451l3.876,4.447,3.155,8.342c-.227-12.48-1.855-24.76-15.639-12.889,2.013-7.34,6.95-11.726,14.718-8.289m-147.34,16.578c-.862-3.92-6.112-16.357-9.838-17.359-1.615-.433-2.157.031-3.034,1.3l2.719,8.689c-3.607-1.91-5.268-7.339-10.116-6.442l1.827,6.442c-12.861-3.92-.628,8.193,4.938,9.251l2.448-4.649,3.671.925-1.382-11.048,7.81,16.186,6.469-2.365c-2.634,3.367-5.154,5.08-6.9,9.212-1.846,4.373-2.73,16.405-4.614,18.461-1.685,1.84-6.88-1.689-9.665-.041.284,1.732,3.087,1.312,4.528,2.363,2.522,1.84,3.253,5.731,2.829,8.676-2.875.413-6-2.43-8.28.466l8.8,3.229-1.439,10.115c2.459.473,1.6-.527,2.249-1.844,2.017-4.1,6.766-12.922,6.014-16.967-.3-1.615-1.807-2.559-1.871-4.616-.1-3.067,2.157-13.9,3.3-17.066,1.873-5.191,5.994-9.374,9.643-13.392-1.056-5.872-8.864,1.382-10.115.473m189.724,92.1c11.351-8.083,26.446-26.232,25.775-40.961-.715-15.7-17.65-48.478-28.973-59.464-1.744-1.693-4.367-3.815-6.943-3.64,12.725,14.016,25.5,32.429,30.635,50.866,7.311,26.265-5.771,31.322-19.168,49.467-.925,1.253-1.7,1.938-1.326,3.732M245.032,195.321c.7-4.71,4.758-9.124,3.491-14.038-1.124-4.36-10.728-11.92-15.451-12.66,3.758,4.795,13.3,8.884,12.71,15.841-.254,3-2.448,6.388-2.6,9.477-.088,1.829.184,1.459,1.846,1.38M383.193,202.7c-.779-10.472,4.6-20.2,5.521-30.4-1.512.448-2.231,3.632-2.772,5.043-3.043,7.934-5.994,16.786-5.5,25.352ZM76.5,179.677c-3.8-1.579-9.269.718-8.278,5.515.912-.641,9.184-4.426,8.278-5.515m150.764,34.7c1.842-1.639,4.215-7.683,3.96-10.223-.308-3.058-3.168-4.259-3.535-5.789-.337-1.413.84-2.988.79-4.432-.4-11.481-18.658-15.151-23.477-4.235-12.294-8.512-25,1.68-21.185,15.762-1.074,1.661-3.5-.147-5.55-.094-6.92.179-13.489,7.434-13.432,14.373.022,2.741,2.28,5.8,1.853,7.215s-4.95,2.772-5.963,6.082c-1.488,4.865-.729,11.013,4.426,13.169,1.724.72,4.2.4,5.305,1.142.809.542,1.833,4.318,3.3,5.909,4.848,5.261,16.14,5.368,21,0,1.5-1.66,2.3-5.106,2.522-5.3.687-.6,4.272.136,5.845-.155,3.7-.68,5.495-5.7,7.445-8.21.72-.928,2.971-1.647,3.161-2.374.577-2.225-9.707-3.772-4.124-8.744l4.55,1.9c1.564-3.27,5.985-2.691,6.036-7.42l1.813.015c-.367,2.968,5.681,3.651,6.974,1.872l.4-2.805c-3.629,2.146-5.244-1.525-8.278,0l.1-5.428c1.907-.433,4.579-.919,6.055-2.233M67.009,196.966c2.024-3.43-4.561-7.53-7.09-8.545-12.929-5.189-27.759,2.052-29.5,16.075C4.074,203.09-1.207,245.16,11.131,261.153c10.041,13.012,33.011,9.313,35.674-6.644.665-3.988-1.125-7.578-.737-9.779.109-.61,3.015-.761,1.875-3.352-4.471.976-9.608,2.35-9.136-4.04,1.083-3.3,6.882-.438,7.2-.661a58.218,58.218,0,0,0,3.345-5.419,21.718,21.718,0,0,0,.442-16.584,4.331,4.331,0,0,1,4.623,3.667l5.983-4.592c-1.124-4.981-3.47,1.873-6,.46,1.906-4.618,6.167-2.857,7.328-8.293l1.871.459-.928-2.754c4.507.637,1.872-2.991,4.6-2.787l-1.857-3.207c0-.569,1.429-.392,1.59-.661M385.96,239.531c2.859-13.683,7.6-27.264,7.359-41.44-1.3-.219-1.341,1.632-1.566,2.555-1.938,7.946-2.872,16.366-6.541,23.862-3.317,6.771-6.327,7.108-12.456,2.9-1.153-.79-9.987-8.436-10.29-9.052-1.483-3.015.055-13.237-2.3-17.5-1.626.284-1.013,4.76-.956,6.027.092,2.1,2.325,9.477-1.317,8.7-4.2-1.437-7.346-17.429-5.141-18.932l4.66-.411c-4.675-5.511-10.929-2.886-8.295,4.611-10.354-2.894-15.852-8.985-27.043-4.482-15.049,6.058-5.821,11.505,5,5.883,1.328-.691,2.242.026,1.783-2.315-2.422.556-4.885,1.008-7.35,1.393-.665.1-3.62,1.328-2.325-.479,9.485-7.431,17.945-1.627,27.468,1.785l5.371,16.506c14.836-1.831,18.4,19.66,33.934,11.185l-1.849,8.731c-.031.89,1.227.4,1.859.479-8.05,38.533-16.007,78.708-16.615,118.311-.088,5.721-.521,25.184,7.869,13.4.982,2.809,2.923,2.688,3.68-.013l1.853,2.769,1.356-.013.407-1.787c3.067,2.177,11.586.424,14.917-.777,1.914-.691.457-2.864,4.027-1.092,1.733-15.116,2.19-30.384,2.769-45.608.042-1.129-.7-3.421.921-3.214v38.222c0,.5,1.879,2.26,2.233,3.292.588,1.722.626,4.71,1.367,5.793a59.047,59.047,0,0,0,7.412,3.9c3.819,1.028,2.085-.593,4.627-2.391-.831,1.708,4.495,3.8,5.06,3.693,1.275-.238.768-3.807,3.246-2.772l.007,2.77c3.152-1.015,5.764,1.02,9.159,1.378a36.173,36.173,0,0,1,6.257,1.164c1.715.363,10,.427,10.4-1.319-2.128-38.563-6.659-77.4-15.709-114.96l2.774-.93c-2.936-2.9-10.555-13.156-10.9-16.751-.269-2.769,13.226-7.784,15-13.145.426-1.286-.678-2.735-.448-4.045.12-.687,1.866-.536,1.936-1.172.763-6.869-4.682-19.489-8.18-25.836-1.9-3.457-4.073-7.456-7.517-9.512,2.6,7.287,9.973,17.046,10.868,24.659.251,2.129-1.676,16.7-2.535,18.221l-10.709,7.759c-15.077-.193-30.38,1.943-45.526.017m-7.368-33.166c-.844-1.93-2.826-3.111-4.487-4.253-1.31-.9-15.852-9.435-15.757-4.487Zm-58.024,8.289c2.083-3.45,6.83-5.419,6.438-10.122-2.857,2.686-13.565,11.3-12.959,15.062,2.472,2.21,5.274,3.375,8.355,1.509l.011,2.774,6.434-2.767c.654.886-1.365,3.993,1.391,3.7,4.782-.516,8.947-8.624,12.412-11.544l5.544-4.121c-7.145-1.273-9.288,6.58-14.276,10.122l1.836-8.295-4.128,2.77-.455-2.754-10.6,8.273c3-4.583,10.227-6.429,10.122-12.885-1.105-1.405-7.532,9.151-10.122,8.28M75.574,220.192c-4.933,2.507-5.983-3.218-9.2-5.528.193,5.688,3.181,9.407,9.2,8.285Zm164.861-2.761c-4.856,2.221-7.055-.621-11.037-2.767-1.413,1.474,6.5,8.632,10.492,5.6ZM65.443,222.949c.3-2.358-.239-4.285-2.408-5.474l-4.948,4.11c-1.022,2.431,6.81.125,7.355,1.365M75.567,224.8c-4.878.042-.02,6.734.006,10.584.074,11.216-9.547,21.211-21.172,18.892l.917,8.285c-3.12.182-6.031-1.68-8.271,1.38,2.47,2.511,7.046.746,9.711,3.165,2.159,1.962,1.16,6.348,3.631,8.344,1.21-2.7,2.378-7.3.516-9.765-.637-.845-2.592-.906-2.844-1.929-.5-2.056.372-5.353.015-7.65C75,257.432,81.664,238.3,75.567,224.8m164.868.915c-5.04-1.166-1.61,5.1-2.048,9.415-1.21,11.89-10.8,19.962-22.813,18.229,1.678,3.074,8.58,2.043,11.8,1.2,10.223-2.662,16.208-19.286,13.058-28.846m-136.1,31.5c1.649-.391,9.181-7.254,8.075-8.471l-16.132,10.01c-1.763-1.691-1.827-4.262-5.029-3.559-1.969,3.093.007,7.814-.571,10.159-.473,1.923-8.293,10.505-7.731,11.012l5.069-2.739c4.909,4.285,6.839,10.481,1.825,15.692-1.33,1.382-2.728-.177-4.1.391-2.975,1.223-5.123,8.409-4.623,11.533,2.291-1.008,2.3-3.92,4.11-5.548,5.637-5.067,9.853,2.969,15.187,4.233l1.86-.986c-3.192-2.376-1.166-6.217-.221-9.45,3-10.242,16.764-20.588,2.284-28.957Zm149,55.073c.413-1.805-.952-2.175-1.925-3.131-2.26-2.221-4.913-3.916-7.258-6.558-9.256-10.433-16.282-23.563-28.142-31.709-.381-3.257,4.24-8.293,2.42-10.674-1.737-2.271-15.887-7.543-19.431-8.7,1.953,5.27,19.218,7.263,14.6,14.592-1.735,2.756-8.8-1.709-9.995,1.965,9.258,2.021,16.823,9.345,23,16.153,2.577,2.84,22.893,31.745,26.73,28.061m-97.614,15.663c1.38-.216,1.719-1.735,2.312-2.745,8.182-13.88,21.082-38.384,27.017-53.111,1.006-2.5,2.28-4.859,1.967-7.694-1.433.389-2.2,1.888-2.931,3.047-5.172,8.169-11.485,21.915-15.967,31-4.546,9.221-10.135,19.675-12.4,29.5M38.73,376.758c.836-13.176,2.848-26.4,1.428-39.637-.407-.6-8.831-3.741-10.437-4.3-3.047-1.063-14.429-3.314-15.869-4.39-3.074-2.293,2.645-19.161,3.938-22.815,4.049-11.424,10.914-20.41,15.269-30.782.354-.844,2.006-2.343.621-3.063-12.31,15.689-21.441,35.345-23.488,55.261-.967,1-10.186-2.487-10.116.455C.136,330.02,14.8,332,17.755,332.815c6.7,1.848,13.342,4.152,19.936,6.313,1.046,11.467-.352,22.841.127,34.42.046,1.12-.7,3.424.912,3.211M77.416,304c.4-1.86-.407-2.461-1.334-3.723-3.708-5.043-18.72-20.139-24.418-21.633a26.3,26.3,0,0,0-7.394-.424c-.722,3.017,3.183,1.475,5.55,2.269,10.045,3.367,16.492,15.18,24.375,21.673,1.039.855,1.487,2.234,3.22,1.837m211.84-16.584c-.827-.8,7.237-7.011,5.069-9.2-2.811,1.584-4.819,6.314-6.83,7.908-3.334,2.636-2.481.519-6.158,4.894-.779.927-2.238,1.275-2.665,1.94-1.227,1.9-.125,5.964-.473,8.274-10.424-3.99-22.038-4.3-33.147-3.222,2.8,3.107,21.246,1.586,22.1,2.312-.864,4.3-5.638,6.224-8.777,8.252-1.175.761-2.721.715-2.266,2.791,7.37-2.35,10.393-2.883,16.14,2.739,1.464,1.433,4.837,6.972,5.222,7.195,3.378,1.951,8.361-3.292,7.18-4.4-6.67,3.115-10.73-5.274-12.789-10.406,1.9-7.606,10.616,6.569,12.784,7.639-2.547-6.7-4-12.994-3.669-20.259l3.669,1.836c.346-5.513,4.191-8.663,4.625-.925l1.822-1.833.017,3.686,1.827-.932c3.085,8.037-8.079,7.672-8.272,14.742,3.629-4.183,11.529-5.338,11.922-11.561.254-4.054-2.183-11.853-7.324-11.474M136.362,302.165c-7.849.437-16.722-1.927-24.394-1.925-1.816,0-4.425-.3-5.075,1.91,8.028.116,19.979,4.213,27.481,2.113,1.621-.455,2.389.3,1.988-2.1m163.028.9c9.074.4,19.159,2.514,28.054,2.818,2.105.072,4.533.518,6-1.426-1.12-1.772-2.507-1.21-4.1-1.411-6.987-.882-16.026-1.615-23.04-1.875-1.805-.066-6.241-.23-6.917,1.894M76.78,332.251c2.848,1.982,18.579,1.9,19.072-1.1.169-1.043-1.544-2.094-1.562-2.743-.011-.4,3.2-5.257,3.835-6.924,1.66-4.377,3.666-10.837,3.922-15.445.1-1.733.788-2.6-1.14-3.859-2.866.1-2.385,25.217-14.044,27.424-9.575,1.811-23.893-9.809-32.458-13.627,1.485,11.039-2.384,20.673-2.763,31.309L54,341.71c11.5-.278,26.518,3.57,37.634,1.837,5.325-.831,37.419-24.854,42.9-29.861a37.092,37.092,0,0,0,5.513-5.99,6.573,6.573,0,0,0-4.215.842c-3.421,1.615-11.7,9.8-15.755,12.8-5.038,3.728-24.871,18.75-29.364,19.45-11.43,1.781-24.889-3.247-36.312.059L59.932,321.5c4.555,3.57,10.207,5.509,15.084,8.433.991.595,1.275,1.976,1.765,2.317M333.462,307.7a6.04,6.04,0,0,0-4.006,1.05c-6.605,3.469-16.6,13.176-23.331,18.113-10.652,7.812-21.53,15.385-32.484,22.771-6.2-.033-12.73-.12-18.916-.507-11.441-.718-25.5-3.835-36.739-2.643-.945.1-4.327.367-4.25,1.722,20.555.987,41.154,4.406,61.743,3.273,15.263-10.732,31.307-20.75,45.914-32.372,1.149-.914,13.279-10.465,12.069-11.408m-191.57,28.542v-17.96c0-1-1.837-4.017-.93-5.987-.591-.066-1.833,1.225-1.833,1.382v22.565Zm134.464-12.889c-5.939,2.094-9.663,7.46-16.066,9.253-21.721,6.077-33.622-18.2-53-20.3.07,1.568,2.431,1.223,3.653,2.319,5.7,5.106-2.689,27.039-4.294,34.337A177.332,177.332,0,0,0,202.684,374l15.665-55.255L239.9,332.656c3.352,8.608,15.151,3.213,22.158,2.627,5.171-.433,15.841,1.776,19.186.763,1.934-.588,8.416-8.411,10.767-10.411,4.211-3.579,9.562-6.114,12.905-10.571l-6.447,1.824,1.838-2.3c-1.4-1.186-4.312,1.464-5.813,2.476a50.842,50.842,0,0,0-16.013,16.458l-7.637-.976Zm54.334,45.12c1.59-13.3,1.512-26.682,1.86-40.051.053-2,2.656-16.108-.47-16.108-2.606,3.4-1.122,9.083-1.391,13.327-.114,1.811-.871,3.537-.949,5.5-.427,10.774-.405,23.351.037,34.125.046,1.122-.694,3.426.912,3.211M136.362,316.9,94,348.2c1.555.322,2.43-.8,3.594-1.464,9.079-5.206,29.924-19.452,36.944-26.6.967-.987,2.168-1.58,1.825-3.231m191.574,2.767c-7.514,3-14.74,8.433-21.472,13.056-10.862,7.458-22.5,15.6-31.946,24.687,2.68.295,4.716-1.573,6.749-2.912,12.155-8.005,25.387-18.389,37.358-27.113a73.464,73.464,0,0,0,9.311-7.718M94.912,390.577l.442-35.906c11.619-9.192,25.75-17.063,36.84-26.75a39.421,39.421,0,0,0,5.1-5.038c.822-1.249.731-2.262-.459-2.28L93.318,352.594c-13,1.678-26.077-2.238-38.916.232,0,1.547,3.071,1.755,4.133,1.836,11.157.853,22.439,1.008,33.628.91l.882,31.814ZM129,346.829c-1,9.179,0,21.7,0,31.314,0,.157,1.242,1.448,1.833,1.382l1.982-37.629c2.45-1.516,37.236,6.771,42.63,8.223,3.15.849,13.2,2.7,13.937,5.379,2.835,10.348-3.047,27.551-.059,38.76a6.347,6.347,0,0,0,2.105-3.421c1.93-8.9.993-20.1,1.078-29.308.028-3.023,1.754-5.738.048-8.956-10.113-3.688-21.465-6.233-32.224-8.521-4.85-1.032-24.735-5.8-27.9-4.907-2.234.63-3.192,5.506-3.43,7.685M23.073,373.072c.219-5.034,3.049-21.81.838-25.234-2.129-3.3-19.3-7.956-23.849-6.991-.356,1.982.88,2.19,2.308,2.746,12.117,4.721,20.345.595,18.024,19.739Zm64.94-26.7H57.62c-.157,0-1.448,1.241-1.382,1.833,11.133-.645,22.066,1.085,33.153.925a2.673,2.673,0,0,0-1.378-2.757M267.15,359.253l-3.19-1.866-46.539-2.724c-1.448,1.1-.02,1.68,1.356,1.842,6.261.739,13.08,1.328,19.367,1.831a286.458,286.458,0,0,0,29.006.917" transform="translate(0 0)" fill="#fff"/>
    <path id="Path_247479" data-name="Path 247479" d="M175.893,245.9l0-29.476-59.862-4.59c20.041-2.752,40.626,2.64,60.829,1.42l49.152-35.58,4.213-.392c-15.921,14.487-34.247,26.136-52.043,38.181l-.451,30.438Z" transform="translate(97.704 149.278)"/>
    <path id="Path_247480" data-name="Path 247480" d="M106.277,231.763,106.791,205,83.25,199.524c-.361,6.116-.739,13.668-2.107,19.577-.394,1.706-.322,3.047-2.492,2.529.09-4.948-1.227-24.188,1.354-26.728,3.312-3.262,24.812,4.124,29.83,5.675l-.794,31.185Z" transform="translate(66.009 163.419)"/>
    <path id="Path_247481" data-name="Path 247481" d="M242.34,153.192c15.143,1.927,30.449-.208,45.526-.015l10.71-7.76c.858-1.525,2.785-16.09,2.535-18.221-.9-7.611-8.273-17.372-10.868-24.657,3.445,2.056,5.611,6.055,7.517,9.512,3.5,6.346,8.943,18.967,8.18,25.834-.072.635-1.816.486-1.936,1.173-.23,1.308.873,2.758.448,4.043-1.772,5.36-15.265,10.378-15,13.145.35,3.6,7.969,13.852,10.9,16.753l-2.774.928c9.05,37.559,13.579,76.4,15.709,114.96-.405,1.746-8.689,1.682-10.4,1.319a36.165,36.165,0,0,0-6.257-1.162c-3.395-.359-6.007-2.395-9.159-1.378l-.007-2.77c-2.478-1.035-1.971,2.533-3.246,2.77-.566.107-5.891-1.986-5.06-3.691-2.542,1.8-.809,3.417-4.627,2.389a58.565,58.565,0,0,1-7.412-3.9c-.741-1.083-.779-4.071-1.367-5.793-.354-1.03-2.233-2.789-2.233-3.292V235.162c-1.619-.206-.879,2.087-.921,3.214-.578,15.224-1.035,30.495-2.769,45.61-3.57-1.772-2.113.4-4.027,1.09-3.33,1.2-11.85,2.956-14.917.779l-.409,1.785-1.354.015-1.853-2.769c-.757,2.7-2.7,2.822-3.68.013-8.392,11.787-7.958-7.674-7.869-13.4.606-39.605,8.565-79.778,16.615-118.313-.632-.079-1.89.413-1.859-.479l1.849-8.729c-15.537,8.473-19.1-13.016-33.934-11.187l-5.371-16.506c-9.523-3.411-17.984-9.214-27.468-1.785-1.295,1.807,1.66.582,2.325.479,2.465-.383,4.927-.834,7.348-1.393.46,2.341-.453,1.625-1.781,2.315-10.818,5.622-20.047.175-5-5.882,11.19-4.506,16.689,1.588,27.043,4.48-2.634-7.5,3.62-10.12,8.295-4.609l-4.66.409c-2.2,1.5.943,17.5,5.141,18.932,3.642.783,1.409-6.6,1.317-8.7-.057-1.265-.671-5.743.954-6.027,2.361,4.264.823,14.486,2.306,17.5.3.615,9.136,8.26,10.29,9.052,6.128,4.207,9.138,3.87,12.456-2.9,3.669-7.493,4.6-15.915,6.541-23.86.225-.925.267-2.776,1.566-2.557.241,14.178-4.5,27.757-7.359,41.44M289.3,162.4c-12.459,2.931,1.024,14.427,1.649,5.836.123-1.682-2.052-3.78-1.649-5.836" transform="translate(143.62 86.339)"/>
    <path id="Path_247482" data-name="Path 247482" d="M154.1,130.651c-1.475,1.313-4.15,1.8-6.055,2.234l-.1,5.428c3.034-1.527,4.649,2.142,8.276,0l-.4,2.807c-1.291,1.778-7.339,1.1-6.974-1.871l-1.813-.015c-.05,4.728-4.471,4.15-6.034,7.42l-4.55-1.9c-5.583,4.972,4.7,6.519,4.122,8.742-.188.728-2.439,1.448-3.159,2.374-1.953,2.511-3.749,7.53-7.445,8.212-1.573.289-5.158-.444-5.845.153-.221.193-1.019,3.642-2.522,5.3-4.863,5.366-16.153,5.259-21,0-1.466-1.591-2.49-5.368-3.3-5.909-1.105-.741-3.579-.422-5.3-1.144-5.156-2.155-5.915-8.3-4.426-13.169,1.013-3.308,5.539-4.677,5.963-6.081s-1.831-4.476-1.853-7.215c-.057-6.941,6.512-14.195,13.432-14.375,2.046-.053,4.476,1.755,5.548.1-3.815-14.084,8.891-24.274,21.187-15.764,4.819-10.916,23.075-7.245,23.475,4.237.052,1.444-1.127,3.017-.788,4.43.365,1.531,3.227,2.732,3.533,5.791.256,2.538-2.116,8.582-3.958,10.221" transform="translate(73.162 83.725)"/>
    <path id="Path_247483" data-name="Path 247483" d="M64.817,111.6c-.16.271-1.584.094-1.588.663l1.857,3.205c-2.732-.2-.1,3.426-4.605,2.789l.928,2.754-1.871-.46c-1.159,5.436-5.421,3.677-7.326,8.295,2.525,1.411,4.87-5.441,6-.461l-5.985,4.592A4.33,4.33,0,0,0,47.6,129.31a21.714,21.714,0,0,1-.444,16.586,58.427,58.427,0,0,1-3.343,5.417c-.315.225-6.114-2.641-7.2.661-.472,6.392,4.666,5.016,9.136,4.041,1.14,2.592-1.768,2.743-1.875,3.351-.391,2.2,1.4,5.793.737,9.779C41.95,185.1,18.98,188.8,8.941,175.79-3.4,159.8,1.884,117.729,28.225,119.135,29.97,105.11,44.8,97.87,57.727,103.058c2.531,1.015,9.116,5.117,7.09,8.545" transform="translate(2.19 85.363)"/>
    <path id="Path_247484" data-name="Path 247484" d="M243.011,44.788c-3.268-5.253,3.382-9.335,7.884-10.065,26.348-4.268,38.627,32.618,30.968,53.07-3.023,8.074-13.323,16.422-20.428,8.114l2.759-.464c-.875-2.378-3.139-3-5.533-2.759-.652-2.855,1.862-1.42,3.644-2.325,3.017-1.533,4.378-6.617.494-6.932-2.56-.208-4.7,3.085-6.445.974-.973-1.173-.405-21.41-3.691-22.112-2.8.93-7.832,4.716-7.444,7.856.127,1.02,1.989,1.58,1.472,3.2l-8.1-.155c-2.354-3.877,1.278-3.717,4.419-3.529a26.515,26.515,0,0,1-.927-15.648c-1.411-1.553-16.247,10.1-17.49,12.434,2.35.962,5.344-.354,6.911,2.3l-.947,1.844c-1.971.278-5.837-2.061-7.267-1.706-2.188.542-1.254,5.648-5.13,1.7l-2.249,2.761c-13.375-2.181-18.354-18.757-11.065-29.41,7.488-10.945,23.145-12.319,33.094-3.741,1.695,1.463,2.231,4.885,5.069,4.594" transform="translate(169.659 28.951)"/>
    <path id="Path_247485" data-name="Path 247485" d="M97.319,34.3A23.049,23.049,0,0,1,82.117,61c-.562-2.881,4.981-5.121,6.815-7,4.73-4.848,7.552-12.133,5.618-18.783-5.263.171-9.238,4.572-12.157,8.56L78.91,53.636c-3.056-10.5,4.813-18.065,13.876-21.728-8.715-21.557-41.339-10.579-36.5,12.579,2.36,11.293,10.562,13.283,20.3,14.7,1.26.184,2.776.365,1.385,1.807-25.221,5.771-35.3-32.018-11.682-41.6,10.94-4.439,19.98-1.6,27.345,7.077,1.089,1.282,1.831,4.089,2.759,4.675.431.271,7.663.074,10.148.845,16.615,5.158,21.384,28.621,7.27,39.53-8.285,6.4-21.7,6.462-29.435-.794-1.383-1.295-5.491-7.97-2.256-7.856.842.031,5.316,8.571,13.113,9.9,30.474,5.176,31.154-40.786,2.081-38.46" transform="translate(44.572 14.582)"/>
    <path id="Path_247486" data-name="Path 247486" d="M259.467,1.915c1.464,1.114.007,1.676-1.358,1.842-3.607.438-9.144.8-12.87.96C197.229,6.845,146.1,3.028,97.878,2.788,81.609,2.707,63.845,4.726,48.06,3.794c-1.628-.1-3.841-.2-5.034-1.424C43.113-.339,91.668,0,96.03.031c2.177.017,4.2.984,6.372,1,52.442.315,104.653.578,157.065.888" transform="translate(36.229 0)"/>
    <path id="Path_247487" data-name="Path 247487" d="M183.7,180.59l-5.517,9.2,7.637.974a50.86,50.86,0,0,1,16.013-16.458c1.5-1.009,4.417-3.66,5.813-2.476l-1.836,2.3,6.445-1.825c-3.341,4.458-8.694,6.992-12.9,10.573-2.352,2-8.832,9.824-10.768,10.409-3.345,1.015-14.016-1.194-19.186-.763-7.007.588-18.8,5.983-22.158-2.627L125.7,175.981l-15.665,55.255A177.617,177.617,0,0,1,114,206.2c1.6-7.3,9.987-29.231,4.294-34.339-1.223-1.1-3.583-.75-3.655-2.317,19.38,2.1,31.279,26.376,53,20.3,6.4-1.79,10.129-7.158,16.066-9.252" transform="translate(92.65 142.759)"/>
    <path id="Path_247488" data-name="Path 247488" d="M53.174,194.12c-.49-.341-.774-1.722-1.765-2.317-4.878-2.923-10.529-4.863-15.084-8.433L30.8,202.709c11.422-3.3,24.882,1.724,36.312-.057,4.493-.7,24.326-15.723,29.364-19.452,4.052-3,12.334-11.179,15.755-12.795a6.573,6.573,0,0,1,4.215-.842,37.246,37.246,0,0,1-5.513,5.99c-5.48,5.007-37.574,29.03-42.9,29.861C56.915,207.148,41.9,203.3,30.4,203.579l-2.361,5.574c.379-10.636,4.246-20.271,2.763-31.309,8.565,3.817,22.883,15.438,32.458,13.625,11.658-2.2,11.177-27.323,14.044-27.422,1.929,1.262,1.236,2.126,1.14,3.859-.256,4.607-2.262,11.069-3.922,15.445-.632,1.667-3.846,6.528-3.835,6.922.018.65,1.731,1.7,1.562,2.743-.494,3-16.225,3.085-19.072,1.1" transform="translate(23.607 138.131)"/>
    <path id="Path_247489" data-name="Path 247489" d="M149.563,99.544c1.251.908,9.059-6.346,10.115-.473-3.649,4.019-7.768,8.2-9.643,13.392-1.14,3.163-3.393,14-3.3,17.066.064,2.059,1.571,3,1.872,4.616.752,4.045-4,12.87-6.014,16.969-.648,1.315.21,2.315-2.249,1.844l1.439-10.116-8.8-3.227c2.282-2.9,5.406-.055,8.28-.468.425-2.945-.306-6.836-2.829-8.676-1.44-1.052-4.244-.63-4.528-2.363,2.785-1.649,7.98,1.881,9.665.041,1.884-2.054,2.769-14.088,4.614-18.461,1.743-4.132,4.264-5.845,6.9-9.212l-6.467,2.365L140.8,86.656,142.178,97.7l-3.671-.925-2.448,4.649c-5.567-1.057-17.8-13.17-4.937-9.251l-1.829-6.442c4.848-.9,6.51,4.531,10.116,6.442l-2.717-8.689c.875-1.271,1.417-1.735,3.032-1.3,3.726,1,8.976,13.439,9.838,17.359" transform="translate(105.625 69.069)"/>
    <path id="Path_247490" data-name="Path 247490" d="M177.238,160.235c5.143-.379,7.58,7.422,7.324,11.474-.392,6.224-8.293,7.379-11.92,11.561.193-7.068,11.358-6.7,8.272-14.742l-1.829.932-.017-3.684-1.822,1.831c-.433-7.736-4.279-4.588-4.625.927l-3.669-1.837c-.33,7.263,1.122,13.554,3.671,20.257-2.17-1.068-10.89-15.245-12.785-7.637,2.059,5.13,6.121,13.52,12.789,10.406,1.181,1.107-3.8,6.349-7.178,4.4-.385-.223-3.758-5.762-5.222-7.193-5.747-5.622-8.772-5.091-16.14-2.741-.455-2.074,1.089-2.028,2.266-2.789,3.139-2.03,7.913-3.949,8.775-8.254-.849-.724-19.29.8-22.1-2.312,11.109-1.074,22.723-.768,33.147,3.224.348-2.31-.753-6.37.473-8.276.427-.663,1.888-1.011,2.667-1.94,3.677-4.373,2.824-2.258,6.156-4.894,2.013-1.591,4.019-6.322,6.83-7.906,2.168,2.187-5.9,8.4-5.069,9.2" transform="translate(112.017 127.179)"/>
    <path id="Path_247491" data-name="Path 247491" d="M67.288,143.508v3.319c14.482,8.368.713,18.717-2.282,28.957-.947,3.235-2.973,7.073.219,9.451l-1.86.984c-5.334-1.262-9.551-9.3-15.186-4.233-1.811,1.628-1.818,4.541-4.11,5.548-.5-3.124,1.649-10.308,4.623-11.533,1.376-.566,2.774.993,4.1-.389,5.014-5.211,3.085-11.409-1.825-15.692L45.9,162.659c-.562-.507,7.256-9.089,7.731-11.013.577-2.345-1.4-7.064.571-10.159,3.2-.7,3.266,1.87,5.029,3.559l16.132-10.008c1.105,1.216-6.429,8.081-8.077,8.47m-5.734,11.787c-1.969.378-2.137-.923-2.811-2.245-1.015-1.991-.86-5.769-2.7-6.955l1.824,12.889-3.22-2.758c-2.765,4.292,3.71,7.364,4.176,10.634.494,3.469-3.255,8.221-2.651,10.814l5.377,4.334c-.742-11.529,11.476-18.811,9.21-29.467-1.547-.223-.711,1.9-2.256,2.435a10.117,10.117,0,0,1-3.769-.5l-3.64-7.458Z" transform="translate(37.046 113.705)"/>
    <path id="Path_247492" data-name="Path 247492" d="M160.033,138.505,161.409,4.032c1.046-.028,2.24,13.911,2.341,16.09,1.418,30.686.013,62.439-1,93.022-.221,6.657,1.111,17.142.031,23.058-.287,1.579-.984,2.586-2.752,2.3" transform="translate(134.751 3.395)"/>
    <path id="Path_247493" data-name="Path 247493" d="M40.536,141.114,40.987,2.032c.549,0,1.35,5.8,1.418,6.88,2.647,41.661-.359,87.26.1,129.115Z" transform="translate(34.132 1.711)"/>
    <path id="Path_247494" data-name="Path 247494" d="M70.234,191.85c.238-2.179,1.2-7.055,3.43-7.685,3.165-.892,23.049,3.876,27.9,4.907,10.757,2.288,22.112,4.833,32.224,8.521,1.706,3.218-.02,5.933-.048,8.956-.085,9.208.853,20.413-1.078,29.308a6.347,6.347,0,0,1-2.105,3.421c-2.988-11.209,2.894-28.411.059-38.76-.735-2.68-10.787-4.53-13.937-5.379-5.393-1.451-40.18-9.739-42.63-8.223l-1.982,37.629c-.591.066-1.833-1.225-1.833-1.382,0-9.612-1-22.136,0-31.314" transform="translate(58.765 154.978)"/>
    <path id="Path_247495" data-name="Path 247495" d="M38.7,252.526c-1.608.214-.866-2.091-.912-3.209-.479-11.581.919-22.953-.127-34.42-6.594-2.161-13.237-4.467-19.936-6.313-2.958-.816-17.619-2.8-17.68-5.329-.07-2.94,9.149.549,10.116-.453,2.046-19.918,11.177-39.574,23.486-55.262,1.387.72-.265,2.22-.619,3.063-4.355,10.374-11.22,19.36-15.269,30.784-1.295,3.653-7.013,20.52-3.938,22.813,1.44,1.076,12.822,3.329,15.869,4.39,1.606.56,10.03,3.7,10.437,4.3,1.42,13.237-.591,26.461-1.428,39.637" transform="translate(0.034 124.232)"/>
    <path id="Path_247496" data-name="Path 247496" d="M70.044,244.024l-1.866-3.19L67.3,209.022c-11.19.1-22.473-.059-33.628-.912-1.063-.081-4.13-.287-4.133-1.836,12.839-2.47,25.912,1.446,38.916-.232l43.514-31.992c1.19.018,1.28,1.032.459,2.28a39.3,39.3,0,0,1-5.1,5.038c-11.091,9.687-25.221,17.558-36.84,26.75Z" transform="translate(24.868 146.553)"/>
    <path id="Path_247497" data-name="Path 247497" d="M189.474,81.259c-.346,1.673-1.809,1.709-3.189,1.864-21.34,2.4-49.956-.74-71.833-.993-23.777-.273-47.883,1.321-71.426-1.343Z" transform="translate(36.229 68.024)"/>
    <path id="Path_247498" data-name="Path 247498" d="M235.76,167.07c1.21.943-10.92,10.494-12.069,11.408-14.607,11.621-30.651,21.64-45.914,32.372-20.588,1.133-41.188-2.286-61.743-3.273-.077-1.356,3.3-1.623,4.25-1.722,11.244-1.192,25.3,1.925,36.739,2.643,6.185.387,12.714.473,18.916.507,10.955-7.387,21.832-14.959,32.484-22.771,6.733-4.937,16.726-14.644,23.331-18.113a6.04,6.04,0,0,1,4.006-1.05" transform="translate(97.702 140.625)"/>
    <path id="Path_247499" data-name="Path 247499" d="M195.121,81.4c-37.586-.532-75.27.729-112.861.048-11.446-.208-23.432-.5-34.969-.96-1.245-.05-3.833.764-3.22-1.372,33.256-.461,66.681-.987,99.972-.508,13.975.2,34.764-.549,47.887.927,1.382.155,2.842.192,3.19,1.866" transform="translate(37.031 66.026)"/>
    <path id="Path_247500" data-name="Path 247500" d="M246.171,189.112c-.378-1.794.4-2.479,1.324-3.732,13.4-18.146,26.481-23.2,19.168-49.466-5.132-18.439-17.91-36.851-30.633-50.867,2.575-.175,5.2,1.947,6.943,3.64,11.323,10.986,28.257,43.766,28.971,59.464.67,14.729-14.423,32.878-25.774,40.961" transform="translate(198.743 71.602)"/>
    <path id="Path_247501" data-name="Path 247501" d="M173.935,81.906c.584.5,2.255-.048,2.531.181s-.613,1.665-.462,2.264c.319,1.278,1.781,1.639,1.389,3.236L142.4,86.661l2.522-1.6,7.6-1.144L140.562,83.9c-.694-3.29,4.795-1.9,6.239-2.958.691-.5.606-2.758,2.085-3.905,2.866-2.227,18.932-1.938,22.318-.295,2.778,1.347,1.871,4.417,2.732,5.161m-13.121.155c1.092-6.5-10.564-4.843-11.96-1.363-.761,1.9,1.253,1.293,2.28,1.369,3.194.23,6.486-.162,9.68-.006" transform="translate(118.305 63.523)"/>
    <path id="Path_247502" data-name="Path 247502" d="M177.023,121.159c2.59.871,9.015-9.685,10.122-8.28.1,6.456-7.127,8.3-10.122,12.885l10.6-8.273.455,2.754,4.128-2.77-1.838,8.293c4.99-3.54,7.132-11.393,14.276-10.12l-5.543,4.121c-3.467,2.92-7.63,11.028-12.413,11.542-2.754.3-.737-2.809-1.389-3.7l-6.434,2.767-.011-2.774c-3.082,1.866-5.883.7-8.355-1.509-.606-3.769,10.1-12.377,12.959-15.062.392,4.7-4.356,6.672-6.438,10.122" transform="translate(143.546 93.495)"/>
    <path id="Path_247503" data-name="Path 247503" d="M162.365,197.315c-3.837,3.684-24.153-25.223-26.728-28.061-6.176-6.808-13.743-14.132-23-16.154,1.19-3.673,8.258.792,9.993-1.964,4.616-7.329-12.649-9.324-14.6-14.592,3.544,1.157,17.694,6.427,19.43,8.7,1.822,2.38-2.8,7.418-2.419,10.674,11.861,8.145,18.886,21.275,28.142,31.707,2.345,2.643,5,4.336,7.256,6.559.974.956,2.338,1.326,1.925,3.131" transform="translate(90.964 114.972)"/>
    <path id="Path_247504" data-name="Path 247504" d="M135.7,76.9c-8.871-1.352-19.194-2.034-27.85-3.918-6.263-1.363-4.533-3.973-1.472-8.361,1.995-2.861,17.066-18.45,19.535-18.035a4.724,4.724,0,0,1,2.207,2.444c1.378,2.5,8.615,26.862,7.58,27.87M132.01,73.21l-6.456-23.018c-1.393-1.076-17.969,17.024-20.246,18.884Z" transform="translate(87.244 39.216)"/>
    <path id="Path_247505" data-name="Path 247505" d="M217.128,55.539l.936,5.521,3.664-1.842c-.378,2.98,1.759,3.533,3.7,5.078L222.8,68.72c1.731,5.769,9.186,4.811,9.07-1.2-4.7.457-8.884-5.2-3.7-7.873,2.767-1.428,2.931,3.5,5.252,4.106,2.142.554,3.461-2.811,4.447-.847,1.026,2.041-2.518,2.984-3.034,4.3-.667,1.7.013,3.767-1.391,5.567-4.541,5.815-15.963-.387-11.706-8.024-3.887.274-4.472,5.41-2.759,8.274-3.286,1.2-3.529-1.479-4.366-1.774-4-1.409-9.061-.578-8.61-7.886.4-6.513,6.644-5.791,11.13-7.827m-3.69,4.6c-9.785,1.564-1.365,14.589,3.688,4.139-2.594-.82-3.973-.928-3.688-4.139" transform="translate(173.432 46.765)"/>
    <path id="Path_247506" data-name="Path 247506" d="M248.664,72.448l2.645-.12-1.848,19.345c-3.351-2.8-.488-6.593-6.832-5.493a68.169,68.169,0,0,0-6.771,2.931c-1.638,1.643-.383,7.7-3.881,7.164l.912-7.359c-14.639,2.124-27.593-10.1-25.775-24.867,1.332-.216,1.282,1.621,1.553,2.57.72,2.527.836,4.611,1.949,7.269,7.466,17.84,31.6,15.666,38.049-1.439" transform="translate(174.249 53.915)"/>
    <path id="Path_247507" data-name="Path 247507" d="M243.046,79.317c2.35,1.875-.059,17.586-1.975,19.936-3.3,4.043-11.562-6.74-13.578-5.292-2.255,3.938-2.019,9.722-3.627,13.426-.6,1.389-1,2.568-2.833,2.223l2.28-20.273c3.872-2.608,8.912-2.956,12.754-5.664,2.12-1.5,4.39-6.421,6.978-4.356M239.438,98.56c2.242-5.462,2-10.761,1.844-16.576-3.774,3.205-7.536,6.992-12.887,7.377-.2,1.2-.241,1.173.58,1.91,2.465,2.21,7.751,4.8,10.463,7.289" transform="translate(186.115 66.367)"/>
    <path id="Path_247508" data-name="Path 247508" d="M54.061,122.038c6.1,13.5-.569,32.635-17.492,31.307.357,2.3-.519,5.594-.015,7.648.252,1.024,2.207,1.083,2.844,1.929,1.862,2.468.694,7.064-.516,9.765-2.47-1.995-1.47-6.383-3.631-8.343-2.665-2.419-7.241-.654-9.711-3.165,2.24-3.061,5.15-1.2,8.271-1.38l-.917-8.285c11.625,2.317,21.246-7.676,21.172-18.894-.026-3.848-4.883-10.54-.006-10.582" transform="translate(21.506 102.758)"/>
    <path id="Path_247509" data-name="Path 247509" d="M84.536,207.087c2.264-9.824,7.853-20.277,12.4-29.5,4.48-9.09,10.794-22.835,15.967-31,.733-1.159,1.5-2.658,2.931-3.047.311,2.835-.962,5.2-1.967,7.694-5.935,14.727-18.836,39.231-27.017,53.111-.593,1.009-.932,2.529-2.312,2.745" transform="translate(71.181 120.861)"/>
    <path id="Path_247510" data-name="Path 247510" d="M226.573,84.262c-7.77-3.437-12.7.949-14.718,8.289,13.784-11.872,15.412.409,15.639,12.89L224.337,97.1l-3.876-4.447c-2.951-.49-8.4,9.267-10.94,5.449-2.345-5.893,3.17-16.589,9.3-17.488,2.711-.4,7.7-.028,7.751,3.649" transform="translate(175.957 67.772)"/>
    <path id="Path_247511" data-name="Path 247511" d="M23.071,217.323l-2.678-9.739c2.323-19.144-5.907-15.016-18.022-19.739-1.428-.556-2.664-.764-2.31-2.746,4.548-.965,21.721,3.693,23.849,6.991,2.21,3.424-.619,20.2-.838,25.234" transform="translate(0 155.748)"/>
    <path id="Path_247512" data-name="Path 247512" d="M202.45,173.542a73.462,73.462,0,0,1-9.311,7.718c-11.971,8.724-25.2,19.107-37.358,27.113-2.034,1.339-4.069,3.207-6.749,2.912,9.448-9.09,21.084-17.228,31.946-24.687,6.733-4.623,13.959-10.057,21.472-13.056" transform="translate(125.487 146.126)"/>
    <path id="Path_247513" data-name="Path 247513" d="M180.1,225.707c-1.606.215-.866-2.087-.912-3.209-.444-10.776-.464-23.351-.039-34.125.077-1.962.834-3.688.951-5.5.269-4.244-1.216-9.925,1.391-13.327,3.126,0,.521,14.106.47,16.11-.348,13.369-.273,26.748-1.86,40.049" transform="translate(150.59 142.762)"/>
    <path id="Path_247514" data-name="Path 247514" d="M165.585,19.539l-.009,2.737c-15.176,2.511-30.741-.066-46.045.013.321-1.77,1.923-1.518,3.181-1.873,6.51-1.838,13.53.319,20.246.074Z" transform="translate(100.648 16.452)"/>
    <path id="Path_247515" data-name="Path 247515" d="M93.392,172.04c.343,1.65-.858,2.245-1.825,3.231-7.02,7.154-27.862,21.4-36.944,26.606-1.164.667-2.037,1.785-3.592,1.463Z" transform="translate(42.969 144.861)"/>
    <path id="Path_247516" data-name="Path 247516" d="M141.892,122.6c3.15,9.562-2.835,26.184-13.058,28.846-3.222.84-10.126,1.871-11.8-1.2,12.01,1.733,21.6-6.337,22.813-18.227.438-4.312-2.991-10.582,2.048-9.416" transform="translate(98.542 103.112)"/>
    <path id="Path_247517" data-name="Path 247517" d="M57.22,176.846c-1.733.4-2.181-.982-3.22-1.837-7.886-6.493-14.333-18.306-24.377-21.671-2.367-.794-6.272.746-5.55-2.271a26.3,26.3,0,0,1,7.394.426c5.7,1.494,20.712,16.587,24.418,21.633.927,1.262,1.735,1.86,1.335,3.721" transform="translate(20.196 127.152)"/>
    <path id="Path_247518" data-name="Path 247518" d="M168.04,197.13a286.462,286.462,0,0,1-29.006-.917c-6.287-.5-13.106-1.092-19.367-1.831-1.376-.162-2.8-.74-1.356-1.842l46.539,2.724Z" transform="translate(99.11 162.123)"/>
    <path id="Path_247519" data-name="Path 247519" d="M162.534,165.412c.676-2.126,5.112-1.96,6.917-1.894,7.014.26,16.053.991,23.04,1.875,1.59.2,2.977-.361,4.1,1.411-1.466,1.943-3.894,1.5-6,1.424-8.9-.3-18.98-2.419-28.054-2.816" transform="translate(136.857 137.658)"/>
    <path id="Path_247520" data-name="Path 247520" d="M138.491,118.24c-1.661.079-1.934.451-1.848-1.38.149-3.089,2.343-6.48,2.6-9.477.591-6.957-8.952-11.047-12.71-15.841,4.723.74,14.325,8.3,15.451,12.662,1.267,4.915-2.789,9.326-3.491,14.036" transform="translate(106.542 77.08)"/>
    <path id="Path_247521" data-name="Path 247521" d="M209.313,123.933h-2.756c-.49-8.565,2.461-17.418,5.5-25.35.542-1.413,1.26-4.6,2.772-5.043-.925,10.19-6.3,19.921-5.521,30.393" transform="translate(173.881 78.763)"/>
    <path id="Path_247522" data-name="Path 247522" d="M87.5,164.925c.4,2.4-.367,1.645-1.988,2.1-7.5,2.1-19.452-1.995-27.479-2.113C58.681,162.7,61.29,163,63.1,163c7.672,0,16.545,2.36,24.394,1.923" transform="translate(48.863 137.24)"/>
    <path id="Path_247523" data-name="Path 247523" d="M62.307,188.037a2.669,2.669,0,0,1,1.376,2.757c-11.085.16-22.018-1.569-33.151-.925-.068-.591,1.225-1.833,1.382-1.833Z" transform="translate(25.707 158.331)"/>
    <path id="Path_247524" data-name="Path 247524" d="M78.294,193.484H75.531V170.92c0-.157,1.242-1.448,1.833-1.382-.908,1.969.93,4.986.93,5.987Z" transform="translate(63.599 142.752)"/>
    <path id="Path_247525" data-name="Path 247525" d="M214.785,116.728l-20.244-8.74c-.1-4.948,14.447,3.59,15.757,4.487,1.661,1.14,3.644,2.323,4.487,4.253" transform="translate(163.807 89.637)"/>
    <path id="Path_247526" data-name="Path 247526" d="M131.533,32.339l3.69-2.288L131.535,28.2l2.765-.459-2.765-3.677c7.532-1.092,8.949,12.187,0,8.271" transform="translate(110.753 20.212)"/>
    <path id="Path_247527" data-name="Path 247527" d="M141.971,22.326h-5.517l2.767-5.974-3.688.448.89-2.323c6.709-2.185,3.095,4.165,5.548,7.849" transform="translate(114.122 11.814)"/>
    <path id="Path_247528" data-name="Path 247528" d="M189.142,36.091c3.981-.306,7.543-.2,10.107,3.218-1.719,4.121-12.028-1.6-10.107-3.218" transform="translate(159.061 30.296)"/>
    <path id="Path_247529" data-name="Path 247529" d="M45.232,122.065l.009,2.758c-6.025,1.122-9.013-2.6-9.206-8.285,3.214,2.31,4.262,8.035,9.2,5.528" transform="translate(30.342 98.127)"/>
    <path id="Path_247530" data-name="Path 247530" d="M135.648,119.3l-.545,2.833c-3.993,3.034-11.9-4.126-10.492-5.6,3.982,2.144,6.184,4.986,11.037,2.765" transform="translate(104.785 98.127)"/>
    <path id="Path_247531" data-name="Path 247531" d="M38.932,123.537c-.545-1.24-8.378,1.067-7.355-1.365l4.948-4.108c2.168,1.188,2.711,3.115,2.408,5.473" transform="translate(26.511 99.412)"/>
    <path id="Path_247532" data-name="Path 247532" d="M197.333,41.121c.752,4.531-4.986,4.605-8.28,4.6-.706-2.966,7.41-5.474,8.28-4.6" transform="translate(159.15 34.475)"/>
    <path id="Path_247533" data-name="Path 247533" d="M45.368,97.769c.9,1.089-7.366,4.874-8.278,5.515-.991-4.8,4.476-7.094,8.278-5.515" transform="translate(31.131 81.907)"/>
    <path id="Path_247534" data-name="Path 247534" d="M131.708,14.079c-.678,2.115,1.794,8.93-1.835,8.291l-.087-3.647-1.967-.066c-3.194-1.737,3.284-5.257,3.889-4.577" transform="translate(106.885 11.783)"/>
    <path id="Path_247535" data-name="Path 247535" d="M222.443,68.682c2.52,2.566-8.639,9.938-7.37,2.763,2.643,1.875,5.64-4.524,7.37-2.763" transform="translate(181.011 57.57)"/>
    <path id="Path_247536" data-name="Path 247536" d="M194.031,31.151c3.982-1.838,7.3,7.55,4.145,7.34-1.544-.1-3.568-5.806-4.145-7.34" transform="translate(163.378 26.029)"/>
    <path id="Path_247537" data-name="Path 247537" d="M237.433,135.037c-.4,2.056,1.772,4.154,1.649,5.836-.624,8.591-14.108-2.9-1.649-5.836" transform="translate(195.491 113.704)" fill="#fff"/>
    <path id="Path_247538" data-name="Path 247538" d="M57,150.241l-.461-8.28,3.64,7.458a10.117,10.117,0,0,0,3.769.5c1.545-.536.709-2.658,2.256-2.435,2.266,10.656-9.952,17.938-9.21,29.467l-5.377-4.334c-.6-2.594,3.144-7.346,2.651-10.814-.466-3.27-6.941-6.342-4.176-10.634l3.22,2.758L51.487,141.04c1.84,1.186,1.685,4.964,2.7,6.955.674,1.323.842,2.623,2.811,2.245" transform="translate(41.601 118.759)" fill="#fff"/>
    <path id="Path_247539" data-name="Path 247539" d="M157.073,81.058c-3.194-.157-6.486.236-9.68.006-1.028-.076-3.041.529-2.28-1.369,1.4-3.48,13.053-5.137,11.96,1.363" transform="translate(122.047 64.526)" fill="#fff"/>
    <path id="Path_247540" data-name="Path 247540" d="M131.235,71.577l-26.7-4.133c2.277-1.86,18.853-19.96,20.246-18.884Z" transform="translate(88.019 40.849)" fill="#fff"/>
    <path id="Path_247541" data-name="Path 247541" d="M212.089,58.036c-.286,3.211,1.094,3.319,3.688,4.139-5.053,10.45-13.473-2.575-3.688-4.139" transform="translate(174.781 48.867)" fill="#fff"/>
    <path id="Path_247542" data-name="Path 247542" d="M236.128,97.113c-2.711-2.487-8-5.078-10.463-7.289-.822-.737-.777-.707-.58-1.91,5.351-.385,9.112-4.172,12.887-7.377.158,5.815.4,11.115-1.844,16.576" transform="translate(189.425 67.814)" fill="#fff"/>
  </g>
</svg>
