<svg xmlns="http://www.w3.org/2000/svg" xmlns:xlink="http://www.w3.org/1999/xlink" width="321.587" height="322.348" viewBox="0 0 321.587 322.348">
  <defs>
    <clipPath id="clip-path">
      <rect id="Rectangle_10835" data-name="Rectangle 10835" width="321.587" height="322.348" fill="none"/>
    </clipPath>
  </defs>
  <g id="Group_42747" data-name="Group 42747" transform="translate(-52 -78.706)">
    <g id="Group_42746" data-name="Group 42746" transform="translate(52 78.706)" clip-path="url(#clip-path)">
      <path id="Path_247443" data-name="Path 247443" d="M228.656,86.5c-.487-3.638,0-9.064,0-12.967,0-2.629-3.263.556-3.619,3.586-1.8,15.371,7.589,30.8,24.657,26.1,10.828-2.98,15.882-14.614,16.431-25,1.954,1.49,8.174,12.034,10.424,11.528,1.919-2.039,2.076-4.818,3.663-7.159,4.635-6.841,15-8.782,16.708,1.2,1.589,9.308-5.294,17.259-13.257,20.975-1.416.661-6.537,1.794-6.736,2.638-.841,3.59,7.446.523,8.639-.013,8.23-3.693,15.388-13.015,14.41-22.335-.576-5.484-4.1-5.292,0-11.332,6.361-9.374,11.456-20.713,11.384-32.607-.112-18.5-16.412-28.893-33.479-22.1-3.181,1.266-5.93,4.35-7.808,5.162-.883.383-1.359-.174-1.06-1.06l2.151-3.249c-3.654-.8-7.027,10.9-3.256,10.074,10.5-14.167,36.529-14.46,39.269,5.765-1.3-.7-1.638-2.863-2.579-4.255-6.6-9.754-15.059-12.578-26-7.4-4.59,2.173-8.556,6.654-12.738,9.444C244.59,14.937,210.348-1.047,181.683,6.391c-10.348,2.686-19.624,9.769-23.135,20.089l-1.925,9.23c1.637-43.4,57.369-35.617,84.3-21.263,7.466,3.98,13.9,9.913,21.592,13.339.841-.81-5.305-6.456-6.139-7.181-21.6-18.778-79.008-32.873-97.479-4.588-15.261,23.368,3.324,45.445,27.976,47.08-.056,1.275-2.1.768-3.184,1.487-5.392,3.582-2.82,32.284,7.494,33.834.627.9-6.5,7.357-2.477,13.629,4.063,6.337,16.634,1.873,20.5-3.223.311-1.478-.715-1.228-1.758-1.04-3.354.6-12.706,8.471-16.287,2.539-4.4-7.285,11.766-17.911,16.27-22,4.435-4.028,7.168-10.985,13.838-8.123,5.621-2.725-1.594-3.713-4.909-3.737-1.073-.748.156-3.258-2.094-2.563-2.717,10.221-12.689,14.284-19.487,21.274-2.327,1.058-5.471-2.225-6.772-4.033-4.335-6.028-5.26-16.942-2.229-23.747,6.342-3.017,12.794-.121,19.36-.811l1.055-1.05-.592-1.717c13.185-3.779,27.188-7.1,39.889-13.072,4.129-1.942,7.7-4.812,11.986-6.377l1.444,12.957c-3.967-.389-8.586-2.359-12.57-2.181-1.849.082-10.581,1.934-11.6,2.889-.549.516-1.009.828-.935,1.687.418,4.892,9.828,1.8,13.219,1.887,2.614.069,7.9,2.276,9.731,1.151,1.461-.9.6-3.867,2.869-3.268l1.444,5.759c-8.511-1.307-19.732-4.8-27.359.366.99,1.517,1.666.962,3.018.89,6.719-.356,16.2-.784,22.582,1.591,6.276,2.338,4.6,6.172,3.586,11.593-1.811,9.671-6.965,20.118-18.05,20.864-8.374.563-15.107-5.926-16.193-14.046M37.583,140.283c2.181,2.948-11.065,2.546-11.506,4.667l6.012.262c2.072-.644,4.926-.337,6.478-2.053,2.9-3.206-2.575-6.089-2.458-10.426.146-5.392,7.57-12.238,3.991-17.673l-6.658,17.82c-.144,2.556,1.369,6.92,4.141,7.4m34.591.7c2.127.147,4.42-1.311,6.087-1.487,3.452-.365,7.115,2.089,9.741-.313-3.606-3.189-8.751-1.006-12.982-2.132-2.648-4.949-3.408-9.5-1.919-14.944,2.707-9.891,17.8-16.287,10.223-27.943-1.582-.288-1.085.634-1,1.713.137,1.715.813,3,.671,5.106-.444,6.574-6.044,9.1-9.267,13.829A21.58,21.58,0,0,0,70.337,133.1c.679,2.922,2.879,4.912,1.837,7.89m48.261-.719h10.086c.406-1.677-.329-1.189-.911-1.65-2.47-1.959-5.063-1.922-7.776-3.112-2.39-8.635,10.313-10.761,8.326-19.019.076,6.894-8.556,8.551-10.1,14.392-.9,3.408.082,6.067.379,9.388M207.76,76.053c1.216-4.164-8.924-5.19-10.079-3.59l1.2,2.027ZM240.9,78.214c.326-3.687-5.073-5.972-8.084-5.625-1.861.215-4.563,1.468-3.07,3.475,5.433-2.3,6.572,1.885,11.155,2.15M39.949,108.429c4.549-1,5.721-7.19,6.221-11.08.471-.987-4.3-3.625-4.6-3.665-.794-.1-12.489,4.108-13.2,5.969.73,4.711,6.755,9.838,11.584,8.776m84.225-8.374c-.543,1.354,2.913,6.145,4.2,6.694,4.961,2.117,8.74-3.938,7.6-8.316-.8-1.12-6.974-.8-8.567-.509a14.545,14.545,0,0,0-3.233,2.131m76.144-23.164c-4.1,1.445.28,8.6,3.895,6.056,1.885-3.48.739-7.687-3.895-6.056M236.4,78.4c-1.435-1.449-4.55-.827-5.514,1.023.663,9.96,9.759,3.259,5.514-1.023M124.762,97.038c3.517-.292,8.443,0,11.508-1.8l-8.194-.278c-1.2.591-3.861-.125-3.314,2.075M41.187,91.282c-2.043.558-12.817,2.681-12.949,4.68,1.117,1.614,1.274.677,2.488.352a90.471,90.471,0,0,0,8.715-2.821c1.088-.486,2.02-.748,1.745-2.21m94.017,0c-3.181-.444-7.155.321-10.446,0,.841-8.9-12.791-24.35-5.04-32.057,5.128-5.1,17.043-4.053,20.779,2.269,4.645,7.857-4.348,17.1-2.765,25.465l4.887-9.875c6.394-14.607-2.618-27.022-18.594-22.194-18.846,5.694-.581,26.643-.676,38.517L137,92.712c.264-.725-1.5-1.392-1.8-1.432M26.787,92.717,40.162,88.4c-3.409-10.721,3.873-24.857-.481-34.876C35.268,43.377,15.62,44.894,9.5,52.739c-9.53,12.208,5.109,24.348,11.888,33.493.846-8.182-9.42-13.114-11.394-21.018-3.895-15.6,23.109-23,27.939-9.934,3.465,9.377-2.89,21.665-.419,31.6-.733,1.047-11.014,1.346-10.722,5.84M73.614,79.036c-1.418,1.418,7,9.751,10.28,9.25,4.433-.679,8.246-11.325,5.223-14.312-2.193-2.167-10.838,1.3-14.084,1.078l-.6,2.444,7.1,6.573c-1.327,1.246-5.52-6.253-7.92-5.033m-42.5-.006,1.441-.367c-.765-3.042-3.069-7.7-2.861-10.763.176-2.6,4-6.618,1.794-10.506-2.889-1.893-3.952,1.69-4.017,4.023-.066,2.406,1.983,4.474-1.148,6.014-3.98-.924-4.4-4.978-6.386-7.834-3.281,4.521,3.589,10.155,8.2,9.437Zm95.794-16.565c-2.683.96-.16,8.218,1.056,9.4.942.913,3.109,1.241,3.647,2.115.872,1.421-.475,4,1.062,4.331.187-1.895-.367-4.154.158-5.968.575-1.983,7.716-8.521.585-9.149l-1.817,7.2L129.1,71.1ZM72.173,73.985l15.82-2.908c-.016-4.419-.38-9.583.112-13.93,1.013-8.94,6.329-18.928,4.783-28.012-3.14-18.467-41.834-15.628-38.668,8.413C54.9,42.68,62.4,55.428,65.545,60.082c.624.925.817,1.967,2.3,1.657C67.366,50.3,55.34,44.079,57.1,31.907c1.883-12.982,26.786-16.983,32.508-5.258,4.749,9.737-6.206,27.738-4.472,38.7-4.579.419-11.764.12-13.692,5.033.331.262,5.83-1.092,7.056-1.229.79-.088,2.458-.834,2.3.507-.841.193-10.676,2.5-8.635,4.327M6.616,107.124c2.617-.045-6.945-42.389-6.491-46.1-1.009-.16,4.345,44.239,6.491,46.1M266.833,129.37c-1.759-.333-1.811.182-2.776,1.179-2.774,2.864-5.292,9.821-8.753,13.58-16.921,18.383-41.491,12.253-52.706-8.515-2.936-5.436-3.956-11.744-7.793-16.332,2.292,29.907,34.486,52.183,60.125,29.514,5.077-4.488,10.851-12.714,11.9-19.425m-41.783-7.924c-1.441-1.5-5.425,5.138-7.384,5.936-1.6.651-6.2-.022-5.572,1.614,2.589,6.693,15.686-4.713,12.956-7.55M77.935,41.567c.448.461-.2,11.277,2.872,12.251.148-3.742-2.568-10.4-1.058-13.678.575-1.248,2.56-1.895,3.073-4.125.653-2.841.137-6.783-3.491-5.658l-1.5,8.227a4.739,4.739,0,0,1-7.093-2.431c-.631-1.922,1.86.056,2.148-1.438.153-3.422-5.845-7.022-5.631-1.637.223,5.625,5.059,9.893,10.678,8.488M33.991,28.607c-1.962,2.065,5.716,4.709,7.2,5.036l-.122-2.756Zm69.391-10.2c.529-.137,4.871-5.054,5.18-5.641a1.453,1.453,0,0,0-.748-2.173c-2.161-.437-4.974,4.991-6.827,6.135a1.7,1.7,0,0,0,2.395,1.679M301.421,313.079c37.438-12.43,13.672-60.845.84-84.061C277.017,183.35,241.524,137.989,191.9,189.5,170,212.225,142.1,256.824,137.972,288.3c-1.34,10.207-1.127,17.419,6.377,25.148l5.779,4.655c-3.279.477-11.7-4.263-12.241,0,16.556,4.054,32.077,6.293,48.816,1.637,15.938-4.435,29.7-14.484,44.329-21.161,11.051-5.043,23.164-16.77,34.827-22.151,7.129-3.288,14.692-5.121,22.586-4.433.17-1.019-1.275-1.043-2-1.223-3.536-.88-7.439-1.382-10.959-.206-.957-9.764-4.907-20.057-14.758-23.778l-.746,1.447,2.918,2.132-.362,1.847c-7.661,1.594-15.519,3.629-22.613,6.925-7.489,3.48-13.85,8.754-22.072,11.067-3.379.95-6.825.934-10.086,2.154,5.266,3.222,11.307-.581,16.564-1.792-1.887,5.9-1.971,12.322,3.954,15.84,2.163-1.406.131-2.563-.17-4.139-.759-3.977-1.429-11.148,1.487-14.365,2.046-2.259,14.917-8.267,18.318-9.414,4.763-1.605,14.512-3.941,19.281-3.057,3.435.635,5.992,13,3.579,15.832-.628.738-10.741,4.456-13.071,5.659-26.942,13.911-75.036,57-106.366,38.176-16.255-9.769-10.836-29.016-6.047-43.969,11.731-36.617,65.413-128.124,113.135-94.1,22.906,16.333,55.078,71.463,59.345,99.143,1.57,10.2,2.268,20-5.936,27.5-16.3,14.905-52.741,13.428-73.114,9.764L220.735,309.1c3.361,2.959,7.363,4.392,11.529,5.762,26.785,8.8,58.072,4.374,85-1.8.291-1.918-.346-1.431-1.82-1.462-3.912-.084-7.782,1.826-11.521,2.184-.768.075-2.7.514-2.5-.7M83.7,37.252,69.265,2.331l2.178.341L86.466,38.442l-.569-.875ZM202.716,186.281c-4.151.788-2.068,8.119-.305,10.754,4.88,7.3,17.948,8.034,25.878,7.247,9.145-.909,22.515-9.531,27.318-17.347.882-1.438,4.213-8,.412-6.076-1.622.823-5.076,7.3-7.168,9.406-4.569,4.588-14.836,10.442-21.271,11.146-11.512,1.261-25.291-.808-24.864-15.13m45.387-2.16c-.873-.839-10.7,6.18-12.706,7.1-7.181,3.284-16.092,5.2-23.563,2.157-1.694-.692-6.317-4.789-5.479-1.009,2.334,10.538,19.843,7.8,27.13,4.864,2-.807,17.392-10.443,14.618-13.11m2.161,16.569c-1.949-2.119-8.981,11.273-9.491,12.473-2.69,6.321-4.5,13.786-4.2,20.665.539.533,5.028-1.5,1.738,2.872-2.913-1.886-3.35.6-1.8,2.591,5.013,6.423,14.235-8.384,2.982-8.378a47.891,47.891,0,0,1,4.155-18.473c.892-1.955,7.435-10.857,6.613-11.75M204.3,231.529c-.82-1.256-1-9.792-.882-11.78.216-3.8,1.792-8.047,2-11.708.076-1.356.615-2.032-.89-3.017-2.925,7.582-4.939,18.859-3.1,26.857.4,1.733,2.474,2.792,2.016,4.814-5.874.3-1.1,5.491,3.1,4.2,1.556-.477,2.736-3.011,2.722-4.564-.036-3.758-4.432-3.981-4.966-4.8m-21.75,17.428c-2.147-.373-1.138.568-1.514,1.687a61.4,61.4,0,0,1-1.945,6.013c-1.187,2.615-3.618,4.567-3.733,7.424a18.234,18.234,0,0,0,7.193-15.124m4.327,15.853c-2.016-1.923-18.058.811-21.132,2.274-4.343,2.065-16.736,16.324-7.8,17.5,8.507,1.12,11.594-7.757,18.84-8.972.98.913-12.294,18.54.9,16.372.588-.1,1.217-1.026,1.768-1.115,1.883-.3,3.691,3.8,8.849-1.223,1.207-1.174,8.724-12.731,9.077-13.99.271-.968.148-2.009-.792-2.2-3.376-.7-7.966,15.791-13.675,16.577-1.147.158-1.217.042-1.075-1.071.447-3.485,3-6.363,3.822-9.166.255-.87.634-2.812-.588-2.727-.808.058-5.985,12.134-8.661,12.947-3.54-.847-1.092-5.207-.133-7.344,1.509-3.356,4.769-5.939,4.114-9.939-2.872.154-5.828-.4-8.669.339-4.861,1.266-7.468,8.731-13.294,9.051-1.117.061-1.268.1-1.1-1.1.47-3.33,6.3-10.087,9.326-11.575,5.734-2.821,13.5-1.419,19.164-3.177,1.022-.317,1.268.428,1.053-1.452m17.285,9.361c-1.916-.4-1.239.487-1.788,1.419-2.217,3.771-3.755,12.022-9.009,9.385,3.276,8.754,11.269-6.557,10.8-10.8" transform="translate(0 0)" fill="#fff"/>
      <path id="Path_247444" data-name="Path 247444" d="M181.737,86.5c1.088,8.12,7.821,14.61,16.195,14.046,11.084-.746,16.239-11.194,18.05-20.866,1.014-5.42,2.69-9.254-3.588-11.591-6.38-2.376-15.863-1.947-22.58-1.591-1.354.072-2.03.625-3.02-.89,7.628-5.17,18.849-1.673,27.361-.367l-1.445-5.759c-2.274-.6-1.408,2.369-2.867,3.268-1.828,1.125-7.118-1.081-9.731-1.151-3.393-.089-12.8,3.006-13.221-1.886-.073-.859.386-1.173.935-1.689,1.017-.954,9.75-2.807,11.6-2.889,3.984-.176,8.6,1.792,12.57,2.181l-1.445-12.956c-4.285,1.563-7.855,4.435-11.986,6.376-12.7,5.972-26.7,9.295-39.889,13.074l.594,1.716-1.056,1.052c-6.566.69-13.018-2.207-19.36.81-3.03,6.806-2.106,17.72,2.23,23.747,1.3,1.81,4.443,5.092,6.77,4.034,6.8-6.989,16.77-11.054,19.488-21.274,2.249-.694,1.02,1.814,2.092,2.563,3.315.024,10.529,1.013,4.909,3.737-6.67-2.863-9.4,4.093-13.838,8.123-4.5,4.09-20.664,14.715-16.27,22,3.58,5.932,12.934-1.935,16.287-2.537,1.043-.187,2.069-.439,1.758,1.04-3.863,5.095-16.434,9.558-20.5,3.223-4.023-6.273,3.1-12.727,2.475-13.63-10.313-1.55-12.885-30.253-7.494-33.834,1.083-.719,3.129-.212,3.184-1.485-24.652-1.637-43.236-23.711-27.976-47.08,18.471-28.286,75.874-14.192,97.481,4.586.834.726,6.979,6.371,6.138,7.181C207.9,24.359,201.466,18.428,194,14.447,167.074.095,111.34-7.686,109.7,35.71l1.926-9.228c3.51-10.321,12.786-17.4,23.135-20.089,28.663-7.439,62.906,8.544,84.171,27.109,4.184-2.789,8.148-7.27,12.738-9.444,10.941-5.18,19.4-2.356,26,7.4.941,1.39,1.284,3.55,2.579,4.255-2.739-20.226-28.772-19.932-39.268-5.765-3.771.826-.4-10.875,3.255-10.074l-2.151,3.249c-.3.886.177,1.444,1.06,1.06,1.877-.814,4.628-3.9,7.809-5.162,17.065-6.795,33.366,3.6,33.477,22.1.072,11.894-5.021,23.232-11.384,32.607-4.1,6.04-.573,5.848,0,11.332.98,9.319-6.18,18.643-14.408,22.335-1.193.536-9.482,3.6-8.639.012.2-.844,5.318-1.977,6.734-2.637C244.707,101.052,251.589,93.1,250,83.793c-1.7-9.986-12.071-8.045-16.708-1.206-1.586,2.341-1.743,5.122-3.663,7.161-2.251.506-8.471-10.04-10.424-11.529-.549,10.387-5.6,22.021-16.43,25-17.068,4.7-26.459-10.727-24.657-26.1.354-3.03,3.618-6.216,3.618-3.586,0,3.9-.487,9.328,0,12.967" transform="translate(46.919 0)"/>
      <path id="Path_247445" data-name="Path 247445" d="M259.4,262.1c-.192,1.219,1.735.779,2.5.706,3.737-.36,7.609-2.268,11.521-2.186,1.473.032,2.109-.455,1.82,1.464-26.932,6.178-58.217,10.6-85,1.8-4.167-1.37-8.166-2.8-11.528-5.762l17.99,4.343c20.374,3.663,56.811,5.139,73.114-9.764,8.205-7.5,7.508-17.307,5.936-27.5-4.266-27.681-36.439-82.812-59.345-99.143-47.722-34.028-101.4,57.48-113.134,94.1-4.789,14.951-10.208,34.2,6.046,43.968,31.33,18.828,79.426-24.263,106.368-38.176,2.33-1.2,12.443-4.922,13.071-5.659,2.413-2.831-.144-15.2-3.579-15.832-4.77-.882-14.518,1.452-19.281,3.057-3.4,1.147-16.272,7.155-18.32,9.414-2.916,3.217-2.246,10.388-1.487,14.365.3,1.578,2.334,2.733.171,4.139-5.925-3.518-5.842-9.937-3.955-15.84-5.255,1.212-11.3,5.014-16.562,1.792,3.261-1.219,6.707-1.2,10.086-2.154,8.221-2.312,14.582-7.586,22.072-11.067,7.093-3.3,14.953-5.329,22.612-6.923l.363-1.847-2.919-2.134.746-1.447c9.851,3.722,13.8,14.013,14.76,23.778,3.52-1.176,7.422-.674,10.959.206.723.18,2.17.2,2,1.225-7.894-.687-15.457,1.144-22.586,4.432-11.663,5.381-23.778,17.11-34.829,22.152-14.63,6.675-28.391,16.726-44.329,21.16-16.738,4.657-32.26,2.418-48.815-1.637.543-4.265,8.962.475,12.24,0l-5.779-4.655c-7.5-7.729-7.716-14.941-6.376-25.148,4.132-31.479,32.031-76.078,53.924-98.8,49.629-51.512,85.121-6.149,110.364,39.518,12.833,23.214,36.6,71.631-.839,84.06" transform="translate(42.018 50.983)"/>
      <path id="Path_247446" data-name="Path 247446" d="M55.64,68.748c-2.042-1.824,7.793-4.134,8.636-4.328.154-1.341-1.514-.594-2.305-.506-1.225.135-6.724,1.49-7.054,1.229,1.928-4.915,9.113-4.613,13.692-5.033-1.733-10.962,9.221-28.962,4.471-38.7-5.72-11.725-30.623-7.724-32.508,5.258C38.807,38.841,50.834,45.06,51.311,56.5c-1.48.308-1.673-.732-2.3-1.657-3.148-4.654-10.648-17.4-11.323-22.533C34.522,8.27,73.217,5.432,76.358,23.9c1.545,9.086-3.772,19.073-4.785,28.012-.491,4.348-.127,9.512-.112,13.931Z" transform="translate(16.533 5.239)"/>
      <path id="Path_247447" data-name="Path 247447" d="M139.519,184c.215,1.882-.032,1.137-1.053,1.454-5.667,1.758-13.43.356-19.164,3.176-3.027,1.49-8.857,8.247-9.326,11.577-.169,1.2-.017,1.161,1.1,1.1,5.827-.318,8.432-7.783,13.294-9.051,2.841-.741,5.8-.184,8.669-.339.656,4-2.6,6.584-4.113,9.939-.96,2.137-3.408,6.5.133,7.345,2.676-.813,7.852-12.891,8.659-12.947,1.223-.085.844,1.856.589,2.726-.824,2.805-3.376,5.681-3.822,9.166-.143,1.112-.072,1.229,1.075,1.072,5.708-.785,10.3-17.28,13.675-16.578.941.2,1.063,1.238.792,2.2-.353,1.259-7.87,12.817-9.077,13.992-5.158,5.02-6.968.918-8.849,1.223-.55.089-1.181,1.017-1.768,1.114-13.2,2.17.078-15.458-.9-16.37-7.246,1.215-10.333,10.09-18.841,8.97-8.937-1.176,3.456-15.435,7.8-17.5,3.075-1.462,19.117-4.2,21.132-2.274" transform="translate(47.354 80.815)"/>
      <path id="Path_247448" data-name="Path 247448" d="M207.234,92.877c-1.053,6.711-6.827,14.937-11.9,19.425-25.639,22.67-57.833.393-60.125-29.514,3.837,4.588,4.857,10.9,7.793,16.332,11.215,20.768,35.785,26.9,52.706,8.515,3.461-3.759,5.979-10.715,8.753-13.58.965-1,1.017-1.511,2.776-1.179" transform="translate(59.599 36.494)"/>
      <path id="Path_247449" data-name="Path 247449" d="M24.84,78.527c-.291-4.492,9.989-4.792,10.722-5.84-2.471-9.931,3.884-22.22.419-31.6-4.83-13.064-31.833-5.665-27.939,9.934,1.974,7.9,12.24,12.836,11.392,21.02C12.658,62.9-1.981,50.757,7.547,38.55c6.125-7.845,25.773-9.364,30.186.787,4.354,10.019-2.929,24.157.481,34.876Z" transform="translate(1.948 14.191)"/>
      <path id="Path_247450" data-name="Path 247450" d="M141.436,131.055c-.426,14.322,13.352,16.392,24.863,15.131,6.436-.7,16.7-6.56,21.272-11.148,2.092-2.1,5.544-8.583,7.167-9.4,3.8-1.928.471,4.638-.411,6.074-4.8,7.816-18.173,16.44-27.318,17.347-7.93.788-21,.05-25.878-7.247-1.762-2.635-3.846-9.966.305-10.754" transform="translate(61.28 55.226)"/>
      <path id="Path_247451" data-name="Path 247451" d="M99.869,74.811c.294.04,2.06.707,1.8,1.432l-13.65.693c.1-11.874-18.17-32.822.676-38.517,15.976-4.827,24.988,7.587,18.594,22.2L102.4,70.489c-1.583-8.362,7.41-17.608,2.765-25.465-3.736-6.322-15.651-7.367-20.779-2.268-7.752,7.705,5.881,23.158,5.04,32.055,3.289.321,7.265-.444,10.446,0" transform="translate(35.335 16.469)"/>
      <path id="Path_247452" data-name="Path 247452" d="M185,127.811c2.774,2.667-12.614,12.3-14.618,13.11-7.288,2.932-24.8,5.674-27.13-4.864-.837-3.781,3.785.317,5.479,1.009,7.471,3.047,16.382,1.127,23.563-2.157,2.007-.918,11.833-7.936,12.706-7.1" transform="translate(63.102 56.31)"/>
      <path id="Path_247453" data-name="Path 247453" d="M51.141,56.624c2.4-1.22,6.593,6.279,7.92,5.033l-7.1-6.573.6-2.444c3.246.218,11.892-3.246,14.084-1.079,3.023,2.988-.79,13.634-5.223,14.313-3.281.5-11.7-7.834-10.28-9.25" transform="translate(22.473 22.413)"/>
      <path id="Path_247454" data-name="Path 247454" d="M31.271,79.767c-4.828,1.062-10.852-4.063-11.584-8.775.716-1.862,12.41-6.072,13.2-5.969.3.039,5.073,2.677,4.6,3.665-.5,3.89-1.674,10.078-6.223,11.078m-.2-3.467c1.831.359,1.271-.354,1.811-1.395a16.578,16.578,0,0,0,1.781-7.244c-2.955,1.494-2.552,5.814-3.592,8.639" transform="translate(8.678 28.662)"/>
      <path id="Path_247455" data-name="Path 247455" d="M50.872,112.193c1.04-2.978-1.158-4.969-1.837-7.89a21.578,21.578,0,0,1,3.392-18.281c3.225-4.727,8.825-7.254,9.267-13.829.143-2.111-.533-3.392-.67-5.106-.086-1.079-.584-2,1-1.713C69.6,77.03,54.507,83.425,51.8,93.317c-1.49,5.442-.729,9.995,1.919,14.944,4.23,1.127,9.374-1.058,12.982,2.132-2.627,2.4-6.291-.052-9.741.311-1.667.176-3.961,1.634-6.087,1.488" transform="translate(21.302 28.794)"/>
      <path id="Path_247456" data-name="Path 247456" d="M178.174,139.359c.821.893-5.721,9.795-6.613,11.75a47.892,47.892,0,0,0-4.155,18.473c11.253,0,2.03,14.8-2.982,8.378-1.552-1.988-1.115-4.477,1.8-2.591,3.291-4.373-1.2-2.338-1.738-2.872-.3-6.88,1.51-14.345,4.2-20.666.511-1.2,7.543-14.593,9.492-12.473" transform="translate(72.09 61.331)"/>
      <path id="Path_247457" data-name="Path 247457" d="M142.894,168.8c.535.82,4.93,1.043,4.966,4.8.014,1.555-1.166,4.088-2.722,4.566-4.2,1.29-8.976-3.9-3.1-4.2.458-2.023-1.617-3.082-2.016-4.815-1.84-8,.174-19.275,3.1-26.857,1.506.986.967,1.661.89,3.019-.206,3.66-1.782,7.911-2,11.707-.114,1.988.062,10.524.882,11.78" transform="translate(61.403 62.726)"/>
      <path id="Path_247458" data-name="Path 247458" d="M57.361,32.34c-5.619,1.406-10.455-2.863-10.678-8.488-.215-5.386,5.783-1.785,5.629,1.637-.287,1.494-2.778-.483-2.148,1.438a4.739,4.739,0,0,0,7.093,2.431l1.5-8.227c3.627-1.125,4.142,2.818,3.49,5.658-.511,2.23-2.5,2.877-3.072,4.125-1.51,3.279,1.206,9.936,1.058,13.678-3.072-.974-2.425-11.79-2.872-12.251" transform="translate(20.576 9.228)"/>
      <path id="Path_247459" data-name="Path 247459" d="M29.605,105.081c-2.772-.481-4.285-4.847-4.141-7.4l6.658-17.82c3.579,5.435-3.846,12.281-3.991,17.673-.117,4.337,5.358,7.221,2.458,10.426-1.552,1.716-4.406,1.411-6.478,2.055l-6.012-.264c.442-2.121,13.688-1.719,11.506-4.667" transform="translate(7.978 35.202)"/>
      <path id="Path_247460" data-name="Path 247460" d="M86.2,70.181a14.546,14.546,0,0,1,3.233-2.131c1.594-.3,7.772-.611,8.567.509,1.138,4.379-2.641,10.433-7.6,8.316-1.285-.549-4.742-5.34-4.2-6.694" transform="translate(37.973 29.874)"/>
      <path id="Path_247461" data-name="Path 247461" d="M25.279,61.633l-2.98-10c-4.609.718-11.479-4.916-8.2-9.437,1.988,2.856,2.406,6.91,6.387,7.834,3.129-1.54,1.081-3.608,1.147-6.014C21.7,41.687,22.763,38.1,25.652,40c2.206,3.887-1.618,7.909-1.794,10.5-.207,3.063,2.1,7.721,2.861,10.763Z" transform="translate(5.838 17.396)"/>
      <path id="Path_247462" data-name="Path 247462" d="M83.819,104.629c-.3-3.32-1.282-5.981-.379-9.388,1.549-5.841,10.181-7.5,10.1-14.392,1.987,8.257-10.717,10.384-8.326,19.019,2.713,1.19,5.306,1.154,7.776,3.112.582.461,1.317-.027.911,1.65Z" transform="translate(36.617 35.638)"/>
      <path id="Path_247463" data-name="Path 247463" d="M88.447,43.354l2.186,8.638,2.506-.715,1.817-7.2c7.131.628-.01,7.167-.585,9.149-.526,1.814.029,4.073-.158,5.968-1.537-.336-.19-2.91-1.062-4.331-.537-.875-2.7-1.2-3.647-2.115-1.216-1.179-3.739-8.437-1.056-9.4" transform="translate(38.464 19.111)"/>
      <path id="Path_247464" data-name="Path 247464" d="M160.179,84.357c2.73,2.837-10.367,14.242-12.956,7.55-.633-1.635,3.972-.962,5.572-1.614,1.958-.8,5.943-7.435,7.384-5.936" transform="translate(64.871 37.089)"/>
      <path id="Path_247465" data-name="Path 247465" d="M165.762,54.657c4.243,4.282-4.851,10.983-5.515,1.023.965-1.849,4.08-2.471,5.515-1.023" transform="translate(70.638 23.74)"/>
      <path id="Path_247466" data-name="Path 247466" d="M145,190.32c.471,4.248-7.521,19.559-10.8,10.8,5.255,2.637,6.792-5.615,9.009-9.385.549-.932-.128-1.815,1.788-1.419" transform="translate(59.158 83.852)"/>
      <path id="Path_247467" data-name="Path 247467" d="M139.539,53.479c4.632-1.631,5.776,2.576,3.893,6.056-3.615,2.54-8-4.612-3.893-6.056" transform="translate(60.781 23.414)"/>
      <path id="Path_247468" data-name="Path 247468" d="M170.742,56.017c-4.583-.265-5.723-4.454-11.155-2.15-1.493-2.007,1.209-3.261,3.069-3.475,3.013-.347,8.411,1.939,8.086,5.625" transform="translate(70.157 22.198)"/>
      <path id="Path_247469" data-name="Path 247469" d="M128.9,172.815A18.234,18.234,0,0,1,121.7,187.94c.115-2.857,2.546-4.809,3.733-7.424a61.4,61.4,0,0,0,1.945-6.013c.376-1.12-.634-2.06,1.514-1.687" transform="translate(53.649 76.142)"/>
      <path id="Path_247470" data-name="Path 247470" d="M72.487,15.175a1.705,1.705,0,0,1-2.4-1.68c1.854-1.144,4.667-6.572,6.827-6.135a1.456,1.456,0,0,1,.749,2.174c-.31.585-4.651,5.5-5.18,5.641" transform="translate(30.897 3.233)"/>
      <path id="Path_247471" data-name="Path 247471" d="M147.28,54.1,138.4,52.541l-1.2-2.029c1.153-1.6,11.294-.573,10.078,3.59" transform="translate(60.48 21.95)"/>
      <path id="Path_247472" data-name="Path 247472" d="M69.6,146.056l2.2.316.569.875-15.02-35.77-2.179-.341Z" transform="translate(24.319 48.989)"/>
      <path id="Path_247473" data-name="Path 247473" d="M32.548,63.355c.275,1.464-.657,1.725-1.745,2.21a90.475,90.475,0,0,1-8.715,2.821c-1.215.326-1.372,1.262-2.488-.352.131-2,10.905-4.122,12.949-4.68" transform="translate(8.639 27.927)"/>
      <path id="Path_247474" data-name="Path 247474" d="M23.69,19.856l7.073,2.278.124,2.758c-1.481-.327-9.159-2.972-7.2-5.036" transform="translate(10.302 8.753)"/>
      <path id="Path_247475" data-name="Path 247475" d="M86.614,67.986c-.548-2.2,2.115-1.484,3.314-2.075l8.194.278c-3.063,1.794-7.989,1.5-11.508,1.8" transform="translate(38.148 29.054)"/>
      <path id="Path_247476" data-name="Path 247476" d="M56.275,158.067c-2.145-1.86-7.5-46.257-6.491-46.1-.454,3.71,9.107,46.054,6.491,46.1" transform="translate(21.89 49.356)"/>
      <path id="Path_247477" data-name="Path 247477" d="M27.591,75.493c1.04-2.825.637-7.145,3.592-8.639A16.578,16.578,0,0,1,29.4,74.1c-.54,1.04.02,1.753-1.811,1.395" transform="translate(12.162 29.47)" fill="#fff"/>
    </g>
  </g>
</svg>
