<svg xmlns="http://www.w3.org/2000/svg" width="88.642" height="70.432" viewBox="0 0 88.642 70.432">
  <g id="Group_17036" data-name="Group 17036" transform="translate(0)">
    <g id="Group_17037" data-name="Group 17037" transform="translate(0 0)">
      <path id="Path_233369" data-name="Path 233369" d="M107.491,94.372c-.487.566-.883,1.178-1.342,1.767l-.056.07a2.532,2.532,0,0,0,.9.679,4.444,4.444,0,0,1-4.4,1.25A22.233,22.233,0,0,1,97.7,95.659c-.239-.137-.482-.269-.726-.4a25.646,25.646,0,0,0-2.8-1.275,14.271,14.271,0,0,0-6.564-.559.375.375,0,0,0-.241.148l-1.435,1.906a.385.385,0,0,0,.1.554l2.237,1.475a.386.386,0,0,0,.4.016,6.951,6.951,0,0,1,5.5-.983,8.946,8.946,0,0,1,1.264.461c.633.281,1.257.617,1.839.918a13.528,13.528,0,0,0,5.613,1.53,6.194,6.194,0,0,0,2.411-.473,5.21,5.21,0,0,0,2.569-2.121,1.634,1.634,0,0,0,.818-.839,5.6,5.6,0,0,1-1.185-1.648" transform="translate(-65.948 -71.648)" fill="#f05d48"/>
      <path id="Path_233370" data-name="Path 233370" d="M58.012,208.521c-4.034,1.034-5.319,2.432-6.327,4.612a7.691,7.691,0,0,0,.828,7.927c1.655,2.212,3.914,2.956,6.826,2.444l.77-.132a26.715,26.715,0,0,1-2.1-14.85" transform="translate(-39.137 -160.175)" fill="#f05d48"/>
      <path id="Path_233371" data-name="Path 233371" d="M203.932,185.553c-.206-.552-.406-1.113-.6-1.679-.5-1.482-.93-3-1.271-4.493a35,35,0,0,1-.7-4.055,20.989,20.989,0,0,1-.109-3.617l.014-.1a.764.764,0,0,0-.241,0c-3.7.517-7.438,1.036-11.194,1.558l-1.2.167c1.073.716,1.968,1.667,1.859,2.156a3.931,3.931,0,0,1-1.3,1.484c-.146.116-.3.227-.457.327a2.992,2.992,0,0,1-1.484.573,6.428,6.428,0,0,1-1.734-.364h0a22.411,22.411,0,0,1-2.949-1.208,3.186,3.186,0,0,1,.554,1.57c.014.148.021.3.021.464a4.624,4.624,0,0,1-2.312,4.1c-.243.146-.494.3-.751.447a84.5,84.5,0,0,1-13.137,6.473c-.383-.255-.962-.638-1.642-1.094,0,0-2.27,1.28-4.227,2.175.023.132.049.269.074.408.1.549.2,1.122.267,1.482h0c3.16-.5,6.534-1.032,9.944-1.57,3.067-.485,6.165-.971,9.17-1.442,11.451-1.8,21.53-3.373,23.255-3.642a.763.763,0,0,0,.176-.049Z" transform="translate(-123.726 -131.817)" fill="#ffc50f"/>
      <path id="Path_233372" data-name="Path 233372" d="M107.809,209.169c-.1-.141-.2-.288-.311-.441a45.118,45.118,0,0,0,4.556-2.124q-.17-.139-.327-.271s4.987-2.421,7.936-3.9c.445-.223.844-.424,1.173-.594-6.093-1.3-12.872-1.667-16.772-1.078q-2.612.39-5.184.786l0,.016a20.789,20.789,0,0,0,.009,4.312v0a32.722,32.722,0,0,0,.807,4.672A34.731,34.731,0,0,0,101.111,215c.195.489.4.96.6,1.4,3.074-.5,7.071-1.131,11.509-1.834h0v0c-.6-.471-1.115-.881-1.581-1.266a19.088,19.088,0,0,1-3.835-4.134" transform="translate(-75.874 -154.004)" fill="#ffc50f"/>
      <path id="Path_233373" data-name="Path 233373" d="M126.808,45.059a.29.29,0,0,0-.156-.207L116.11,39.627a1.108,1.108,0,0,0-.343-.116l-.017,0a1.049,1.049,0,0,0-.314,0c-3.626.507-7.293,1.016-10.975,1.528-.416-.786-1.723-1.3-4.836-1.932-.341-.069-.681-.145-1.021-.224-.254-.057-.506-.119-.758-.181l-.03-.008c-.182-.046-.364-.092-.547-.141-.92-.242-1.875-.526-2.839-.844-1.345-.442-2.755-.974-4.19-1.58a27.752,27.752,0,0,1-3.231-1.563,4.356,4.356,0,0,0,.178-2.261c-.026-.271-.05-.526-.058-.779-.006-.174,0-.354.013-.54,7.125-.91,13.6-1.765,20.674-2.989q1.4-.243,2.852-.506l.012,0q.731-.132,1.479-.273a2.444,2.444,0,0,0,1.769-.018,1.949,1.949,0,0,0,.478-.232l.1.075a2.457,2.457,0,0,0,1.392.6,1.264,1.264,0,0,0,.369-.055c.03-.01.057-.021.085-.032a2.373,2.373,0,0,0,1.164.329,1.924,1.924,0,0,0,.436-.049,1.863,1.863,0,0,0,1.163-.822,3.717,3.717,0,0,0,.354-1.831c0-.039,0-.077,0-.116a.284.284,0,0,0-.01-.053,4.917,4.917,0,0,0-.075-.632l0-.009c.217-.026.444-.056.688-.091a2.223,2.223,0,0,0,1.4-.578,1.18,1.18,0,0,0,.322-1.079,1.287,1.287,0,0,0-.889-.857c-.952-.34-9.558-.552-10.757-.518l-3,.086q-11.923.346-23.847.688a3.8,3.8,0,0,1,.878-2c1.459-.227,2.95-.678,3.159-2.209A67.082,67.082,0,0,0,87.814,5.96a2.384,2.384,0,0,0,.646-.04,1.607,1.607,0,0,0,1.33-1.676,1.818,1.818,0,0,0-.394-.816,4.961,4.961,0,0,0-2.6-1.61A10.456,10.456,0,0,0,84.871,1.5a.752.752,0,0,0,.146-.443c.005-.508-.465-.869-1.228-.943a23.557,23.557,0,0,0-9.246.928,5.467,5.467,0,0,0-1.77.838,1.692,1.692,0,0,1,.045-.374.29.29,0,0,0-.564-.134,2.262,2.262,0,0,0-.061.459l-.114-.036a.29.29,0,1,0-.176.552l.329.105a4.184,4.184,0,0,0-.615,1.9,12.945,12.945,0,0,0,.135,3.886,2.923,2.923,0,0,0-.94,1.233,4.745,4.745,0,0,0-.122,2.748,7.343,7.343,0,0,0,2.6,4.377c-.022.477-.037.939-.052,1.39a27.67,27.67,0,0,1-.374,4.341,7.7,7.7,0,0,0-3.314.723c-.126.066-.25.143-.374.225a25.966,25.966,0,0,0-2.679-1.21,14.647,14.647,0,0,0-6.716-.574.66.66,0,0,0-.425.26L57.923,23.66a.675.675,0,0,0,.167.971L60.327,26.1a.673.673,0,0,0,.7.03,6.711,6.711,0,0,1,5.288-.958,7.824,7.824,0,0,1,.93.323,9.638,9.638,0,0,0-.673,1.575c-.265.81-.451,1.65-.632,2.462-.169.762-.343,1.549-.582,2.3a15.838,15.838,0,0,1-.639,1.591,7.677,7.677,0,0,0-.959,3.779,2.031,2.031,0,0,0,.418,1.161,1.249,1.249,0,0,0,.611.382,9.357,9.357,0,0,0-1.467,5.591,3.222,3.222,0,0,0,1.088,2.281c.054.041.11.078.167.114q-1.728.261-3.44.524l-.108.017-.143.022c-1.472.226-2.711.469-3.788.741a.284.284,0,0,0-.215.055c-4.035,1.051-5.375,2.482-6.423,4.745a7.963,7.963,0,0,0,.859,8.222,6.358,6.358,0,0,0,5.375,2.716,9.993,9.993,0,0,0,1.731-.16l.77-.132c1.032-.173,2.632-.434,4.752-.776a.3.3,0,0,0,.083.013.289.289,0,0,0,.129-.03.268.268,0,0,0,.027-.021c3.3-.532,7.527-1.2,11.261-1.795l.305.24a.29.29,0,0,0,.464-.279s-.005-.029-.015-.08l6.97-1.1,2.113-.333c-.563,1.079-1.864,3.568-2.325,4.439a.29.29,0,0,0,.2.419l.979.206-.522.922q-.949,1.677-1.9,3.353a.29.29,0,0,0,.174.422,37.352,37.352,0,0,0,8.828,1.351h.01a.29.29,0,0,0,.215-.484q-.88-.974-1.76-1.944c.37-.757.913-1.874,1.132-2.326l1.067.225a.308.308,0,0,0,.06.006.29.29,0,0,0,.26-.162c1.095-2.226,3.187-7.216,3.509-7.988,11.374-1.787,21.353-3.346,23.068-3.613a1.052,1.052,0,0,0,.239-.066,1.146,1.146,0,0,0,.377-.252l7.848-8.521a.29.29,0,0,0,.072-.249M64.183,62.079q-.185-.408-.369-.853c1.136-.183,4.91-.79,10.045-1.621.308.253.636.516.967.778-3.566.565-7.512,1.191-10.643,1.7m-4.868.794A26.467,26.467,0,0,1,57.3,48.581c1.015-.254,2.18-.482,3.556-.7a21.576,21.576,0,0,0,.043,4s0,.007,0,.011a32.876,32.876,0,0,0,.814,4.714,35.264,35.264,0,0,0,1.424,4.492c.149.373.3.726.454,1.069-1.851.3-3.286.533-4.277.7M94.4,38.308c.725.237,1.444.454,2.147.648-.156.108-.332.237-.5.374a2.112,2.112,0,0,0-.368-.1,2.007,2.007,0,0,0-1.366.248,1.537,1.537,0,0,0-.748,1.069,1.5,1.5,0,0,0,.226,1.061,7,7,0,0,0-.389.583c-.66-.231-1.341-.458-2.034-.677A12.6,12.6,0,0,1,94.4,38.308M63.595,60.675a34.737,34.737,0,0,1-1.24-3.9c.9-.154,3.7-.633,7.623-1.3a18.911,18.911,0,0,0,3.293,3.633c-5.091.824-8.753,1.413-9.676,1.562m10.3-8.607a.289.289,0,0,0-.064.479,45.553,45.553,0,0,1-4.146,1.908.29.29,0,0,0-.131.435l.046.066c-3.836.649-6.553,1.114-7.387,1.256a32.316,32.316,0,0,1-.709-4.1c5.15-.954,12.653-2.169,18.644-3.112-2.822,1.4-6.214,3.044-6.255,3.064m23.911-6.34a3.691,3.691,0,0,0-.156-.616c.346.155.728.315,1.122.468l-.966.148M95.245,41.9l-.026-.005a1.421,1.421,0,0,1-.831-.461.931.931,0,0,1,.232-1.461,1.383,1.383,0,0,1,.716-.192,1.6,1.6,0,0,1,.255.021,1.5,1.5,0,0,1,.4.123,1.3,1.3,0,0,1,.572.5h0a.927.927,0,0,1,.132.636.967.967,0,0,1-.476.668,1.43,1.43,0,0,1-.973.171m-28.84,5.141c3.815-.576,10.226-.2,15.857.91l-.39.2c-6.206.97-14.73,2.337-20.42,3.39a20.393,20.393,0,0,1,0-3.744q2.458-.376,4.955-.751h0m13.323,9.747c.423.284.8.537,1.116.744l.379.252a.286.286,0,0,0,.065.031l-5.14.833c1.517-.723,3.094-1.589,3.58-1.859m14.892-5.441c10.033-1.658,17.515-2.851,21.673-3.455.3,1.279.673,2.6,1.111,3.937-6.454,1.124-18.478,3.117-35.756,5.927a85.437,85.437,0,0,0,12.973-6.409m1.274-.8a4.886,4.886,0,0,0,1.979-4.028c0-.074-.007-.143-.01-.215.426-.065,1.45-.222,2.073-.314a6.412,6.412,0,0,0,1.758.358,3.315,3.315,0,0,0,1.64-.619c.141-.09.28-.191.415-.295,5.854-.847,10.112-1.426,11.81-1.609a35.251,35.251,0,0,0,.6,3.5c-3.978.578-10.956,1.688-20.269,3.224m9.326-6.81c.136-.612-.654-1.438-1.4-2.03l.523-.073c3.708-.515,7.4-1.028,11.053-1.538a21.257,21.257,0,0,0,.093,3.153c-1.633.175-5.476.7-10.952,1.485a2.543,2.543,0,0,0,.677-1m-1.408-2.614-.668.093a7.737,7.737,0,0,0-.9-.51.29.29,0,1,0-.247.524,7.3,7.3,0,0,1,.923.528c1.16.774,1.793,1.6,1.738,1.851a1.211,1.211,0,0,1-.225.374,16.4,16.4,0,0,0-2.789-1.938.29.29,0,1,0-.284.505,15.864,15.864,0,0,1,2.683,1.864,6.534,6.534,0,0,1-.586.515c-.077.061-.154.118-.233.175a13.916,13.916,0,0,0-2.247-1.68.29.29,0,0,0-.3.5,14.273,14.273,0,0,1,2.044,1.5,2.28,2.28,0,0,1-1.023.344,6.128,6.128,0,0,1-1.647-.35h0A22.176,22.176,0,0,1,97.2,44.257,4.519,4.519,0,0,0,95.082,42.8l0,0c.069-.1.143-.2.222-.307.068.006.136.011.2.011a1.96,1.96,0,0,0,1.017-.276,1.536,1.536,0,0,0,.748-1.069,1.464,1.464,0,0,0-.088-.789c.527-.374,1.17-.759,1.409-.9.306.07.613.139.921.2,2.537.518,3.832.949,4.305,1.454M82.7,22.621c.015.516.033,1.505-.313,1.861a.405.405,0,0,1-.31.124,1.524,1.524,0,0,1-.988-.451A5.262,5.262,0,0,1,80.027,22.7l2.629-.076ZM78.09,24.38c-.543.683-1.021.988-1.507.976a2.59,2.59,0,0,1-1.178-.446,6.778,6.778,0,0,1-1.793-2.024l5.736-.167c-.244.3-.474.606-.692.906-.167.23-.335.461-.509.685Zm1.035-.415c.181-.249.355-.488.538-.721a5.742,5.742,0,0,0,.88,1.18,1.319,1.319,0,0,1-.579.523.8.8,0,0,1-.646.022,1.889,1.889,0,0,1-.616-.431c.145-.19.285-.381.424-.572m1.157,1.47a1.923,1.923,0,0,0,.706-.626,1.905,1.905,0,0,0,1.092.378.987.987,0,0,0,.726-.3,3.383,3.383,0,0,0,.477-2.282q11.832-.34,23.663-.683a14.635,14.635,0,0,1,.559,5.54c-6.929,1.194-13.3,2.037-20.295,2.93a11.935,11.935,0,0,1,.468-1.829.29.29,0,0,0-.551-.181,11.353,11.353,0,0,0-.544,2.273s0,.008,0,.012a6.313,6.313,0,0,0-.035.878c.008.271.035.548.06.815a4.071,4.071,0,0,1-.1,1.9l-.084-.052a28.427,28.427,0,0,1-2.549-1.947c-.984-.812-2.039-1.7-3.095-2.581-.927-.776-1.85-1.549-2.728-2.276a5.389,5.389,0,0,0,2.228-1.972m29.659-3.6a12.608,12.608,0,0,1,.422,5.121q-1.147.208-2.262.4a15.518,15.518,0,0,0-.553-5.454Zm8.861,2.6.013.066a4.587,4.587,0,0,1,.071.682,1.044,1.044,0,0,1-.52.832,1.384,1.384,0,0,1-1.168-.055,1.809,1.809,0,0,0-.03-.192,3.036,3.036,0,0,0-.608-1.185c.753-.021,1.5-.074,2.241-.148m-.984,2.839a1.553,1.553,0,0,1-.952-.105,1.572,1.572,0,0,0,.289-.6,2.213,2.213,0,0,0,.735.133,1.536,1.536,0,0,0,.764-.183c.027-.015.051-.034.076-.05a1.287,1.287,0,0,1-.112.244,1.3,1.3,0,0,1-.8.562m3.409-4.506a.614.614,0,0,1-.187.547,1.765,1.765,0,0,1-1.054.4c-.342.049-.651.089-.943.12l-.021,0c-.849.094-1.717.149-2.587.171.072-.129.141-.249.179-.313a.29.29,0,0,0-.5-.294c-.013.022-.315.534-.427.789v0a.037.037,0,0,0,0,0,.29.29,0,0,0-.021.095c0,.01,0,.019,0,.029a.289.289,0,0,0,.014.076.2.2,0,0,0,.007.023.281.281,0,0,0,.048.079,3.448,3.448,0,0,1,.87,1.4,1.186,1.186,0,0,1,.026.267.964.964,0,0,1-.414.827.535.535,0,0,1-.12.052c-.4.121-.851-.164-1.244-.458-.089-.067-.176-.133-.263-.2l-.036-.027c-.486-.374-.966-.771-1.427-1.179a.29.29,0,1,0-.384.434c.38.336.774.662,1.172.977a1.969,1.969,0,0,1-1.555.083.288.288,0,0,0-.207-.038c-.4.076-.791.147-1.183.219a13.515,13.515,0,0,0-.426-5.019c2.167,0,9.457.236,10.166.489a.741.741,0,0,1,.521.451M71.261,12.108a4.2,4.2,0,0,1,.092-2.418,2.292,2.292,0,0,1,.885-1.077,1.588,1.588,0,0,1,.811-.259,2.183,2.183,0,0,1,1.625.827,7.127,7.127,0,0,1,1,1.783l.464,1.051a.29.29,0,0,0,.552-.079,18.128,18.128,0,0,0,.061-4.35,1.32,1.32,0,0,0,1.042.032c.673-.311.733-1.188.759-1.567.022-.331.044-.67.085-1a17.7,17.7,0,0,0,4.424,1.878.934.934,0,0,0,.685-.047.493.493,0,0,0,.233-.319.54.54,0,0,0-.021-.305,6.5,6.5,0,0,0,1.837.434,1.416,1.416,0,0,0,1.292-.383.9.9,0,0,0,.147-.25,66.488,66.488,0,0,1-.475,11.675c-.132.966-.905,1.45-2.757,1.728-.453.066-.97.122-1.678.183a.29.29,0,0,0,.025.579h.025c.374-.032.7-.064.983-.1a5.21,5.21,0,0,0-.646,1.911l-.077,0q-1.471.043-2.941.085l-6.238.182a28.768,28.768,0,0,0,.36-4.3c.011-.335.023-.679.037-1.027a5.208,5.208,0,0,0,1.008.463.29.29,0,1,0,.182-.55,4.671,4.671,0,0,1-1.289-.667,6.71,6.71,0,0,1-2.5-4.119m1.684,10.8a7.921,7.921,0,0,0,2.162,2.5,3.085,3.085,0,0,0,1.456.528h.06a2.374,2.374,0,0,0,1.712-.946,2.909,2.909,0,0,0,.4.321,4.188,4.188,0,0,1-3.844.9A15.533,15.533,0,0,1,71.151,24.4c-.36-.216-.721-.432-1.083-.638-.1-.054-.194-.109-.294-.164l.05-.029a7.289,7.289,0,0,1,3.121-.658m-12.2,2.716a.1.1,0,0,1-.1,0L58.41,24.147a.1.1,0,0,1-.042-.064.093.093,0,0,1,.018-.074L59.824,22.1a.085.085,0,0,1,.055-.034,13.994,13.994,0,0,1,6.412.544,25.426,25.426,0,0,1,2.67,1.209.283.283,0,0,0,.181.094c.227.12.438.235.638.35.36.2.716.418,1.073.632a15.956,15.956,0,0,0,3.888,1.874,4.773,4.773,0,0,0,4.565-1.2,1.367,1.367,0,0,0,.154.025A5.19,5.19,0,0,1,77.4,27.065a5.819,5.819,0,0,1-2.3.451,13.166,13.166,0,0,1-5.484-1.5l-.313-.163c-.5-.26-1.012-.528-1.541-.763a9.171,9.171,0,0,0-1.305-.476,7.228,7.228,0,0,0-5.715,1.007M64.333,37.15a7.253,7.253,0,0,1,.911-3.491,16.568,16.568,0,0,0,.662-1.65c.246-.774.424-1.575.6-2.349.177-.8.36-1.624.616-2.406a9,9,0,0,1,.654-1.521c.43.2.855.42,1.268.636l.316.164A13.767,13.767,0,0,0,75.1,28.1h.084a6.451,6.451,0,0,0,2.275-.431c.943.779,1.947,1.62,2.952,2.462,1.057.885,2.114,1.771,3.1,2.583a28.791,28.791,0,0,0,2.6,1.986c.121.079.243.155.361.224a26.8,26.8,0,0,0,3.542,1.74c1.269.536,2.516,1.01,3.72,1.421A13.5,13.5,0,0,0,90.8,41.337a110.064,110.064,0,0,0-12.352-2.911,51.769,51.769,0,0,1-4.976-4.711c-1.126-1.166-2.29-2.371-3.545-3.506a.29.29,0,1,0-.389.43c1.24,1.121,2.4,2.32,3.516,3.478,1.229,1.272,2.492,2.577,3.874,3.791-.519-.038-1.032-.042-1.518-.037h-.047c-1.3.015-2.621.1-3.9.18-.581.037-1.162.074-1.743.105-.785.042-1.819.09-2.855.09-.138,0-.3.008-.477.018a7.119,7.119,0,0,1-1.048,0,.278.278,0,0,0-.109-.013.968.968,0,0,1-.619-.259,1.491,1.491,0,0,1-.286-.843m-6.01,25.893c-2.853.5-4.993-.261-6.543-2.332a7.392,7.392,0,0,1-.8-7.632c.943-2.038,2.154-3.353,5.7-4.337a27.309,27.309,0,0,0,2.04,14.232l-.4.069M83.077,59.08c-2.392.377-4.739.747-6.984,1.1-.047-.265-.105-.585-.165-.912l5.533-.9c17.509-2.847,29.658-4.861,36.128-5.988.138.4.282.81.431,1.213-2.119.33-11.955,1.867-23.091,3.617-3,.47-6.1.958-9.17,1.442Zm35.468-5.734c-.169-.459-.333-.922-.488-1.381-.509-1.52-.934-3.022-1.263-4.466a34.771,34.771,0,0,1-.694-4.021,21.353,21.353,0,0,1-.124-3.27L122.82,43.6a8.768,8.768,0,0,0,.834,4.2Z" transform="translate(-38.171 0)" fill="#1f2426"/>
      <path id="Path_233374" data-name="Path 233374" d="M153.814,48.421c0,.184,0,.356,0,.509a.29.29,0,0,0,.29.287h0a.29.29,0,0,0,.286-.293c0-.148,0-.316,0-.5a6.636,6.636,0,0,0-.248-2.39.29.29,0,0,0-.533.227,6.433,6.433,0,0,1,.2,2.156" transform="translate(-117.979 -35.228)" fill="#1f2426"/>
      <path id="Path_233375" data-name="Path 233375" d="M18.591,226.172q-3.645.2-7.287.4a.29.29,0,0,0,.016.579h.016q3.645-.2,7.287-.4a.29.29,0,0,0,.274-.305.293.293,0,0,0-.305-.274" transform="translate(-8.473 -173.733)" fill="#1f2426"/>
      <path id="Path_233376" data-name="Path 233376" d="M19.86,173.315a.289.289,0,0,0,.275-.3.283.283,0,0,0-.3-.275l-.878.043q-9.34.455-18.678.908a.29.29,0,0,0,.014.579H.3q9.341-.452,18.679-.908Z" transform="translate(0 -132.686)" fill="#1f2426"/>
      <path id="Path_233377" data-name="Path 233377" d="M40.649,149.231h.013q6.423-.271,12.847-.54a.29.29,0,0,0-.024-.579q-6.424.268-12.847.54a.29.29,0,0,0,.012.579" transform="translate(-31.002 -113.771)" fill="#1f2426"/>
      <path id="Path_233378" data-name="Path 233378" d="M191.18,47.422V47.07a.29.29,0,1,0-.58,0v.353a.29.29,0,0,0,.58,0" transform="translate(-146.409 -35.934)" fill="#1f2426"/>
      <path id="Path_233379" data-name="Path 233379" d="M206.58,46.78a.29.29,0,0,0-.29.29v.353a.29.29,0,0,0,.58,0V47.07a.29.29,0,0,0-.29-.29" transform="translate(-158.461 -35.934)" fill="#1f2426"/>
      <path id="Path_233380" data-name="Path 233380" d="M195.98,47.29H196l.909-.049a.29.29,0,0,0,.274-.3c-.026-.785-.082-1.626-.182-2.727a.29.29,0,1,0-.577.052c.087.958.14,1.715.169,2.41l-.624.034a.29.29,0,0,0,.015.579" transform="translate(-150.319 -33.761)" fill="#1f2426"/>
      <path id="Path_233381" data-name="Path 233381" d="M190.7,59.988a5.075,5.075,0,0,0-.753.445.29.29,0,0,0,.336.472c.019-.013.038-.024.057-.037a1.546,1.546,0,0,0,.771.529,2.649,2.649,0,0,0,.8.107c.1,0,.2,0,.3-.008a.29.29,0,0,0-.028-.579,2.553,2.553,0,0,1-.9-.072,1,1,0,0,1-.441-.279c.035-.018.069-.039.1-.055a.29.29,0,1,0-.25-.523" transform="translate(-145.818 -46.058)" fill="#1f2426"/>
      <path id="Path_233382" data-name="Path 233382" d="M188.84,37.053a.284.284,0,0,0,.115-.024.96.96,0,0,1,.621-.042.29.29,0,0,0,.151-.56,1.532,1.532,0,0,0-1,.07.29.29,0,0,0,.115.556" transform="translate(-144.834 -27.941)" fill="#1f2426"/>
      <path id="Path_233383" data-name="Path 233383" d="M205.4,40.926l.568.074.038,0a.29.29,0,0,0,.037-.577l-.568-.074a.29.29,0,0,0-.075.575" transform="translate(-157.586 -30.994)" fill="#1f2426"/>
    </g>
  </g>
</svg>
