<svg xmlns="http://www.w3.org/2000/svg" width="441.115" height="276.057" viewBox="0 0 441.115 276.057">
  <g id="Group_42758" data-name="Group 42758" transform="translate(-667 -7975.943)">
    <g id="Rectangle_10839" data-name="Rectangle 10839" transform="translate(815 8132)" fill="#1d1d1b" stroke="#ffe45d" stroke-width="3">
      <rect width="120" height="120" rx="4" stroke="none"/>
      <rect x="1.5" y="1.5" width="117" height="117" rx="2.5" fill="none"/>
    </g>
    <g id="Group_42757" data-name="Group 42757">
      <rect id="Rectangle_10837" data-name="Rectangle 10837" width="120" height="120" rx="4" transform="matrix(0.995, 0.105, -0.105, 0.995, 679.543, 8119)" fill="#a1d0c9"/>
      <rect id="Rectangle_10838" data-name="Rectangle 10838" width="120" height="120" rx="4" transform="translate(836.27 8004.759) rotate(-7)" fill="#f083bd"/>
      <rect id="Rectangle_10841" data-name="Rectangle 10841" width="120" height="120" rx="4" transform="matrix(0.999, -0.035, 0.035, 0.999, 984, 7980.131)" fill="#f9e9d5"/>
      <rect id="Rectangle_10840" data-name="Rectangle 10840" width="120" height="120" rx="4" transform="translate(970 8119)" fill="#beff6b"/>
      <g id="noun-location-8094767" transform="matrix(0.995, 0.105, -0.105, 0.995, 704.66, 8150)">
        <path id="Path_247543" data-name="Path 247543" d="M74.512,73.777a2.242,2.242,0,0,1-1.864.873l-46.011,0A4.08,4.08,0,0,1,23,71.881L10.634,31.4a2.442,2.442,0,0,1,.293-2.189,2.242,2.242,0,0,1,1.864-.873H35.908a.494.494,0,0,1,0,.988l-23.124-.006a1.281,1.281,0,0,0-1.07.475,1.442,1.442,0,0,0-.14,1.313L23.942,71.588a3.086,3.086,0,0,0,2.7,2.077H72.648a1.281,1.281,0,0,0,1.07-.475,1.451,1.451,0,0,0,.14-1.313L61.491,31.4a3.086,3.086,0,0,0-2.7-2.077H51.27a.494.494,0,1,1,0-.988H58.8a4.08,4.08,0,0,1,3.635,2.772L74.8,71.585a2.444,2.444,0,0,1-.293,2.189ZM38.31,30.49c-1.794-3.619-3.3-7.34-3.3-9.622a10.6,10.6,0,0,1,2.581-7.044,8.025,8.025,0,0,1,12.323,0,10.606,10.606,0,0,1,2.581,7.044c0,2.281-1.51,6-3.3,9.622a.534.534,0,0,0-.08.159c-2.036,4.084-4.413,8.009-5.359,9.538-.949-1.529-3.323-5.454-5.359-9.538a.5.5,0,0,0-.08-.159Zm.535-11.064a4.862,4.862,0,1,0,1.424-3.438A4.85,4.85,0,0,0,38.845,19.426ZM32,41.316a2.793,2.793,0,0,0-1.657-.618H17.051l4.712,15.42H37.14L33.072,42.8a3.058,3.058,0,0,0-1.08-1.485ZM56.47,61.225a4.456,4.456,0,0,1-1.316.194H44.162l3.02,9.882H69.857a1.391,1.391,0,0,0,.417-.057.973.973,0,0,0,.516-.36,1.088,1.088,0,0,0,.188-.64,1.705,1.705,0,0,0-.076-.491L63.756,46.362h-5.5a1.639,1.639,0,0,0-.487.067,1.16,1.16,0,0,0-.612.427,1.289,1.289,0,0,0-.223.752,1.978,1.978,0,0,0,.089.57l2.2,7.194a5.576,5.576,0,0,1,.252,1.615,4.593,4.593,0,0,1-.816,2.66,4.141,4.141,0,0,1-2.186,1.577ZM26.784,70.76a2.444,2.444,0,0,0,1.443.542H41.78l-3.02-9.883H23.382l2.456,8.044a2.677,2.677,0,0,0,.943,1.3ZM58.771,31.832a2.444,2.444,0,0,0-1.443-.542H49.9c-2.577,5.158-5.614,9.94-5.719,10.1a.516.516,0,0,1-.159.162.5.5,0,0,1-.691-.156c-.016-.025-3.106-4.874-5.722-10.109H15.7a1.391,1.391,0,0,0-.417.057.973.973,0,0,0-.516.36,1.088,1.088,0,0,0-.188.64,1.705,1.705,0,0,0,.076.491l.812,2.657H31.309a6.233,6.233,0,0,1,3.919,1.494A8.305,8.305,0,0,1,37.865,40.8l4.68,15.314h9.427a1.639,1.639,0,0,0,.487-.067,1.16,1.16,0,0,0,.612-.427,1.265,1.265,0,0,0,.22-.752,1.929,1.929,0,0,0-.089-.57l-2.287-7.487a5.921,5.921,0,0,1-.274-1.739,4.41,4.41,0,0,1,.707-2.469A3.428,3.428,0,0,1,53.2,41.2a3.372,3.372,0,0,1,.981-.147h7.955l-2.425-7.93a2.677,2.677,0,0,0-.943-1.3Z" transform="translate(-10.505 -10.941)"/>
      </g>
      <g id="noun-ecommerce-8012882" transform="matrix(0.999, -0.035, 0.035, 0.999, 994.864, 7990.258)">
        <path id="Path_247544" data-name="Path 247544" d="M18.5,59.671A11.423,11.423,0,0,0,29.9,71.079H44.646a1.488,1.488,0,1,0,0-2.976H29.9a8.454,8.454,0,0,1-8.433-8.433V41.317H78.02V53.757a1.488,1.488,0,0,0,2.976,0V29.909A11.423,11.423,0,0,0,69.587,18.5H29.9A11.423,11.423,0,0,0,18.5,29.909ZM50.738,27.429a2.48,2.48,0,1,1-2.48,2.48,2.488,2.488,0,0,1,2.48-2.48Zm-9.921,0a2.48,2.48,0,1,1-2.48,2.48,2.488,2.488,0,0,1,2.48-2.48Zm-9.921,0a2.48,2.48,0,1,1-2.48,2.48,2.488,2.488,0,0,1,2.48-2.48Z" transform="translate(0 0)"/>
        <path id="Path_247545" data-name="Path 247545" d="M64.977,48.5h-.221a8.617,8.617,0,0,0-8.626,8.584v.345h-1.6a6.076,6.076,0,0,0-4.584,2.1,5.991,5.991,0,0,0-1.387,4.782l1.767,11.8h0A6.092,6.092,0,0,0,56.3,81.238h17.14a6.072,6.072,0,0,0,5.972-5.119l1.767-11.8a6.005,6.005,0,0,0-1.387-4.782,6.076,6.076,0,0,0-4.584-2.1H73.6v-.345A8.617,8.617,0,0,0,64.977,48.5Zm-5.871,8.584a5.635,5.635,0,0,1,5.65-5.607h.217a5.635,5.635,0,0,1,5.65,5.607v.345H59.106Zm-1.488,9.39v0a2.421,2.421,0,1,1,2.43-2.422,2.421,2.421,0,0,1-2.43,2.422Zm16.927-2.426a2.429,2.429,0,1,1-2.43-2.422,2.43,2.43,0,0,1,2.43,2.422Z" transform="translate(-0.238 -0.238)"/>
      </g>
      <g id="noun-retail-7838127" transform="translate(846.542 8002.021) rotate(-7)">
        <path id="Path_247546" data-name="Path 247546" d="M54.334,77.766a6.984,6.984,0,1,1-7,6.97,6.98,6.98,0,0,1,7-6.97ZM44,31.5l4.657,1.263-1.216,4.462a1.54,1.54,0,0,0,1.876,1.9l1.955-.527,1.41,1.429a1.536,1.536,0,0,0,2.587-.66l1.216-4.434,4.462,1.216a.916.916,0,0,1,.631,1.129L57.786,51.2a.951.951,0,0,1-1.158.66L39.713,47.2a.934.934,0,0,1-.66-1.129l3.831-13.91A.9.9,0,0,1,44,31.5ZM28.44,47.337l8.128,2.237L34.45,57.265a1.746,1.746,0,0,0,2.118,2.15l3.586-.963L42.739,61.1a1.729,1.729,0,0,0,2.915-.747l2.118-7.72,8.077,2.237a1.513,1.513,0,0,1,1.05,1.847L51.689,75.641a9.5,9.5,0,0,0-5.317,3.965L21.456,72.744a1.513,1.513,0,0,1-1.05-1.847l6.172-22.514a1.536,1.536,0,0,1,1.861-1.046Zm10.526,2.868,6.418,1.76-1.789,6.475L41.415,56.2a1.275,1.275,0,0,0-1.216-.332l-3.034.8Zm15.1-15.786L51,33.564l-.747,2.752c1.876-.494,1.681-.584,3.063.826ZM11.077,76.081a1.809,1.809,0,1,1,.447-3.589l33.808,9.343a8.822,8.822,0,0,0-.436,3.557Zm44.667-.718,8.546-31.6c.855-3.138,2.673-4.794,6.006-4.881l1.984-.029-.137,3.607-1.76.058c-1.652.029-2.15.584-2.587,2.208l-8.64,31.857a9.614,9.614,0,0,0-3.413-1.216ZM74.838,37.229l11.1.465a3.752,3.752,0,1,1-.332,7.5l-11.082-.465ZM54.334,81.07a3.665,3.665,0,1,1,0,7.33,3.665,3.665,0,1,1,0-7.33Z" transform="translate(0)" fill-rule="evenodd"/>
      </g>
      <g id="noun-financial-insurance-5228551" transform="translate(986.956 8137.463)">
        <path id="Path_247547" data-name="Path 247547" d="M72.108,42.95a10.784,10.784,0,0,0-.359-2.546A29.407,29.407,0,0,0,42.835,14.078l-.055-3.762a.824.824,0,0,0-.8-.78.791.791,0,0,0-.78.8l.055,3.759a29.418,29.418,0,0,0-28.2,29.835.791.791,0,0,0,.792.78h.012a.782.782,0,0,0,.251-.055.833.833,0,0,0,.086.017H14.2a.792.792,0,0,0,.78-.8,8.766,8.766,0,0,1,17.53-.26.791.791,0,0,0,.792.78h.012a.791.791,0,0,0,.78-.8,8.772,8.772,0,0,1,8.2-8.867V69.534a2.474,2.474,0,1,1-4.947,0,.792.792,0,0,0-1.583,0,4.056,4.056,0,1,0,8.113,0V34.728a9.751,9.751,0,0,1,5.157,1.72,6.263,6.263,0,0,1,2.457,4.066,9.9,9.9,0,0,0-.052,1.123.758.758,0,0,0,.4.653.818.818,0,0,0,.574.238.791.791,0,0,0,.78-.8,9.791,9.791,0,0,0-.106-1.247c.484-3.978,3.832-6.716,8.524-6.786h.108c3.883,0,7.385,3.04,8.457,6.957.082.807.135,1.62.146,2.44a.782.782,0,0,0,.8.78.771.771,0,0,0,.461-.173A.787.787,0,0,0,72.108,42.95Z" transform="translate(0)"/>
        <path id="Path_247548" data-name="Path 247548" d="M23.94,65.667a8.773,8.773,0,1,0,8.773,8.773A8.783,8.783,0,0,0,23.94,65.667Zm.8,12.641H24.68V79.75a.792.792,0,0,1-1.583,0V78.308h-2.03a.792.792,0,1,1,0-1.583h3.676a.759.759,0,1,0,0-1.518l-2.255-.017a2.343,2.343,0,0,1,.006-4.686h.6V69.426a.792.792,0,0,1,1.583,0V70.5h1.489a.792.792,0,1,1,0,1.583H22.494a.76.76,0,1,0,0,1.52l2.255.017a2.342,2.342,0,0,1-.006,4.685Z" transform="translate(-0.443 -11.699)"/>
        <path id="Path_247549" data-name="Path 247549" d="M69.5,49.067a8.773,8.773,0,1,0,8.773,8.773A8.784,8.784,0,0,0,69.5,49.067Zm2.216,6.948a.792.792,0,1,1,0,1.583H68.188c0,.064.012.127.019.19h3.505a.792.792,0,1,1,0,1.583H68.771a3.542,3.542,0,0,0,2.941,1.57.792.792,0,1,1,0,1.583,5.135,5.135,0,0,1-4.731-3.154H65.6a.792.792,0,0,1,0-1.583h1c0-.063-.007-.127-.01-.19H65.6a.792.792,0,0,1,0-1.583h1.176a5.133,5.133,0,0,1,4.933-3.745.792.792,0,0,1,0,1.583,3.549,3.549,0,0,0-3.263,2.162h3.263Z" transform="translate(-9.937 -8.239)"/>
      </g>
      <g id="Group_42755" data-name="Group 42755" transform="translate(842.312 8155.11)">
        <path id="Path_247556" data-name="Path 247556" d="M59.9,20.677a14.433,14.433,0,0,0-4.068.582,17.887,17.887,0,0,0-35.765,0,14.373,14.373,0,1,0-4.073,28.158H59.9a14.371,14.371,0,1,0,0-28.741M29.149,34.394c.147.092.256.146.329.2a1.135,1.135,0,0,1,.347.476,1.869,1.869,0,0,1,.11.493c0,.146.019.329.019.548a3.791,3.791,0,0,1-.037.53,1.051,1.051,0,0,1-.2.567,1.007,1.007,0,0,1-.712.329.069.069,0,0,1-.055-.018,1.04,1.04,0,0,1-.439-.146l-8.421-4.257a1.018,1.018,0,0,1-.512-.657,2.377,2.377,0,0,1-.091-.785,2.868,2.868,0,0,1,.018-.4,2.35,2.35,0,0,1,.091-.421c.055-.109.11-.219.165-.31a1.441,1.441,0,0,1,.457-.348l8.312-4.2a.919.919,0,0,1,1.205.219,1.828,1.828,0,0,1,.22,1.041c0,.22-.019.4-.019.549a2.441,2.441,0,0,1-.091.457,1.036,1.036,0,0,1-.311.475,1.432,1.432,0,0,1-.329.2L23.559,31.69ZM41.5,22.921,35.028,40.66a1.143,1.143,0,0,1-.237.438.958.958,0,0,1-.439.311,1.4,1.4,0,0,1-.421.11,3.4,3.4,0,0,1-.475.036,2.7,2.7,0,0,1-.585-.054,1.8,1.8,0,0,1-.53-.22.987.987,0,0,1-.384-.6.947.947,0,0,1,.091-.657l6.449-17.7a1.024,1.024,0,0,1,.237-.438,1.083,1.083,0,0,1,.4-.293,1.209,1.209,0,0,1,.475-.128,3.955,3.955,0,0,1,1.042.018,1.9,1.9,0,0,1,.512.2,1.041,1.041,0,0,1,.4.622,1.073,1.073,0,0,1-.073.62m12.656,9.207c-.019.146-.055.256-.073.348a1.007,1.007,0,0,1-.238.438,2.192,2.192,0,0,1-.329.238l-8.4,4.238a.91.91,0,0,1-.457.128h-.037a1,1,0,0,1-.712-.384,1.221,1.221,0,0,1-.183-.494,3.882,3.882,0,0,1-.018-.493v-.53a1.8,1.8,0,0,1,.092-.475,1.017,1.017,0,0,1,.31-.476,1.237,1.237,0,0,1,.366-.219l5.608-2.759-5.59-2.7a2.611,2.611,0,0,1-.329-.183,1.254,1.254,0,0,1-.365-.493A3.168,3.168,0,0,1,43.7,27.8v-.531a4.386,4.386,0,0,1,.018-.53,1.409,1.409,0,0,1,.183-.53.988.988,0,0,1,.785-.347,1.243,1.243,0,0,1,.457.165l8.4,4.237a1.048,1.048,0,0,1,.531.659,3.128,3.128,0,0,1,.091.785,3.014,3.014,0,0,1-.018.42" transform="translate(-4.936 10.111)" fill="#ffe45c"/>
      </g>
    </g>
  </g>
</svg>
