<svg xmlns="http://www.w3.org/2000/svg" width="39.368" height="28.386" viewBox="0 0 39.368 28.386">
  <g id="noun-people-1151037" transform="translate(-12.006 -22.605)">
    <g id="Group_16963" data-name="Group 16963" transform="translate(12.006 22.605)">
      <path id="Path_233263" data-name="Path 233263" d="M23.188,46.858a1.422,1.422,0,0,0-1.27-1.259V45.59H18.58V38.675a2.7,2.7,0,0,0-5.4,0v8.8a1.886,1.886,0,0,0,1.887,1.886H20.6l.758,6.855a1.423,1.423,0,0,0,2.829-.312Z" transform="translate(-12.572 -29.1)"/>
      <circle id="Ellipse_1010" data-name="Ellipse 1010" cx="3.214" cy="3.214" r="3.214"/>
      <path id="Path_233264" data-name="Path 233264" d="M73.87,36.083a2.648,2.648,0,0,0-2.7,2.592V45.59H67.833V45.6a1.422,1.422,0,0,0-1.27,1.259l-1,9.049a1.423,1.423,0,0,0,2.829.312l.758-6.855h5.535a1.886,1.886,0,0,0,1.887-1.886v-8.8A2.648,2.648,0,0,0,73.87,36.083Z" transform="translate(-37.811 -29.1)"/>
      <circle id="Ellipse_1011" data-name="Ellipse 1011" cx="3.214" cy="3.214" r="3.214" transform="translate(32.94)"/>
      <path id="Path_233265" data-name="Path 233265" d="M50.881,42.656H43.288c0-.04.011-.078.011-.119l-.838-4.589a1.78,1.78,0,0,0-1.678-1.866H35.751a1.779,1.779,0,0,0-1.677,1.866l-.839,4.589c0,.04.008.078.011.119H25.654v1.816H50.881Z" transform="translate(-18.583 -29.1)"/>
      <circle id="Ellipse_1012" data-name="Ellipse 1012" cx="3.214" cy="3.214" r="3.214" transform="translate(16.47)"/>
      <path id="Path_233266" data-name="Path 233266" d="M43.822,55.245c-.733,0-1.746.594-1.746,1.328l.42,8.819a1.328,1.328,0,1,0,2.655,0l.42-8.819C45.57,55.839,44.556,55.245,43.822,55.245Z" transform="translate(-26.497 -38.335)"/>
      <path id="Path_233267" data-name="Path 233267" d="M52.926,55.245c-.733,0-1.746.594-1.746,1.328l.419,8.819a1.328,1.328,0,1,0,2.656,0l.42-8.819C54.674,55.839,53.66,55.245,52.926,55.245Z" transform="translate(-30.885 -38.335)"/>
    </g>
  </g>
</svg>
