<svg xmlns="http://www.w3.org/2000/svg" width="31.352" height="21.223" viewBox="0 0 31.352 21.223">
  <g id="noun-coaching-4485555" transform="translate(58 -20.262)">
    <g id="Group_16962" data-name="Group 16962" transform="translate(-58 20.262)">
      <path id="Path_233259" data-name="Path 233259" d="M10.281,14.684A4.081,4.081,0,1,0,6.2,10.6,4.085,4.085,0,0,0,10.281,14.684Z" transform="translate(-1.497 -6.523)"/>
      <path id="Path_233260" data-name="Path 233260" d="M22.59,14.684a4.081,4.081,0,1,0-4.08-4.08A4.085,4.085,0,0,0,22.59,14.684Z" transform="translate(-0.024 -6.523)"/>
      <path id="Path_233261" data-name="Path 233261" d="M26.161,15.4a8.264,8.264,0,0,0-2.253-.34H17v2.922a2.923,2.923,0,0,1,0,5.834v2.9h6.494a3.362,3.362,0,0,0,3.359-3.359V18.183a5.4,5.4,0,0,1,2.463,4.522v2.9a1.12,1.12,0,1,0,2.239,0v-2.9A7.657,7.657,0,0,0,26.161,15.4Z" transform="translate(-0.205 -5.501)"/>
      <path id="Path_233262" data-name="Path 233262" d="M19.288,20.894a.731.731,0,0,0-1.053-.6,1.144,1.144,0,0,1-1.68-.963V15.06H9.648A8.207,8.207,0,0,0,7.4,15.4a7.654,7.654,0,0,0-5.4,7.3V25.6a1.12,1.12,0,1,0,2.239,0V22.705A5.4,5.4,0,0,1,6.7,18.183v5.174a3.362,3.362,0,0,0,3.359,3.359h6.494V22.472a1.142,1.142,0,0,1,1.691-.963A.735.735,0,0,0,19.288,20.894Z" transform="translate(-2 -5.501)"/>
    </g>
  </g>
</svg>
