<svg xmlns="http://www.w3.org/2000/svg" xmlns:xlink="http://www.w3.org/1999/xlink" width="98.143" height="110.102" viewBox="0 0 98.143 110.102">
  <defs>
    <clipPath id="clip-path">
      <rect id="Rectangle_10773" data-name="Rectangle 10773" width="101.457" height="88.02" transform="translate(0 0.001)" fill="none"/>
    </clipPath>
  </defs>
  <g id="Group_42629" data-name="Group 42629" transform="matrix(-0.105, -0.995, 0.995, -0.105, 10.605, 110.102)">
    <g id="Group_42628" data-name="Group 42628" clip-path="url(#clip-path)">
      <path id="Path_246832" data-name="Path 246832" d="M85.021,41.729c1.737.339,3.475.671,5.209,1.02,1.146.23,2.311.408,3.424.749a2.1,2.1,0,0,1,1.609,2.426,2,2,0,0,1-2.174,1.891,18.959,18.959,0,0,1-2.853-.25c-3.776-.6-7.54-1.27-11.319-1.848-3.225-.494-4.259-2.166-2.819-5.141,1.805-3.727,3.793-7.367,5.742-11.023.6-1.125,1.548-1.907,2.866-1.251,1.248.621,1.4,1.738.876,3s-.973,2.549-1.659,4.362a18.3,18.3,0,0,0,2.186-.995c3.382-2.211,6.74-4.459,10.111-6.687a9.928,9.928,0,0,1,1.9-1.144c1.167-.432,2.4-.463,3.069.817s-.013,2.129-1.13,2.884c-4.405,2.976-8.762,6.024-13.134,9.05-.684.474-1.349.974-2.023,1.461.039.226.077.451.115.677" fill="#ad1123"/>
      <path id="Path_246833" data-name="Path 246833" d="M60.3,18.012c.842-.758,1.674-1.527,2.528-2.271.963-.838,1.9-1.721,2.933-2.462a2.042,2.042,0,0,1,2.888.315,2.092,2.092,0,0,1,.044,2.912,12.472,12.472,0,0,1-1.3,1.4c-3.158,3.173-6.334,6.328-9.48,9.514-2.523,2.554-4.642,2.254-5.643-1.135-1.113-3.771-1.844-7.66-2.644-11.519-.246-1.187-.062-2.4,1.414-2.819,1.238-.348,2.03.294,2.623,2.092.29.877.546,1.764,1.018,3.3a20.142,20.142,0,0,0,1.1-2.367C56.781,11.5,57.729,8,58.7,4.51a19.21,19.21,0,0,1,.941-3.043A2.088,2.088,0,0,1,62.224.1c1.4.435,1.631,1.537,1.3,2.834Q62.072,8.667,60.62,14.4c-.28,1.1-.553,2.207-.83,3.31l.513.3" fill="#ad1123"/>
      <path id="Path_246834" data-name="Path 246834" d="M85.407,77.76c.807,2.238,1.437,3.929,2.022,5.636a11.946,11.946,0,0,1,.658,2.451c.119,1.023-.226,2.106-1.356,2.171a4.219,4.219,0,0,1-2.447-.936c-.441-.322-.561-1.113-.78-1.709-1.1-3-2.2-5.993-3.272-9-1.036-2.9.033-5.265,2.965-5.855,3.537-.711,7.143-1.087,10.722-1.582a2.645,2.645,0,0,1,1.568.053c.743.459,1.671,1.048,1.915,1.784a1.815,1.815,0,0,1-1.63,2.313c-1.657.306-3.363.349-5.594.555A12.741,12.741,0,0,0,91.8,74.9c2.47,1.243,4.971,2.422,7.438,3.671a4.447,4.447,0,0,1,1.78,1.284,2.466,2.466,0,0,1,.251,2.037,2.222,2.222,0,0,1-1.731,1.031,8.25,8.25,0,0,1-2.683-.857c-3.04-1.266-6.058-2.584-9.1-3.838a14.975,14.975,0,0,0-2.344-.466" fill="#ad1123"/>
    </g>
  </g>
</svg>
