<svg xmlns="http://www.w3.org/2000/svg" width="564.342" height="406.563" viewBox="0 0 564.342 406.563">
  <g id="Stripe-illustration" transform="translate(0.285 0.285)">
    <line id="Line_738" data-name="Line 738" x1="295.901" transform="translate(103.749 249.09)" fill="none" stroke="#231f20" stroke-linecap="round" stroke-linejoin="round" stroke-width="0.57"/>
    <line id="Line_739" data-name="Line 739" x1="254.065" transform="translate(126.034 210.337)" fill="none" stroke="#231f20" stroke-linecap="round" stroke-linejoin="round" stroke-width="0.57"/>
    <line id="Line_740" data-name="Line 740" x1="193.343" transform="translate(157.183 170.708)" fill="none" stroke="#231f20" stroke-linecap="round" stroke-linejoin="round" stroke-width="0.57"/>
    <line id="Line_741" data-name="Line 741" y2="38.753" transform="translate(245.691 210.337)" fill="none" stroke="#231f20" stroke-linecap="round" stroke-linejoin="round" stroke-width="0.57"/>
    <line id="Line_742" data-name="Line 742" y2="38.753" transform="translate(151.192 210.337)" fill="none" stroke="#231f20" stroke-linecap="round" stroke-linejoin="round" stroke-width="0.57"/>
    <line id="Line_743" data-name="Line 743" y2="38.192" transform="translate(339.104 210.337)" fill="none" stroke="#231f20" stroke-linecap="round" stroke-linejoin="round" stroke-width="0.57"/>
    <line id="Line_744" data-name="Line 744" y1="38.157" transform="translate(292.748 172.18)" fill="none" stroke="#231f20" stroke-linecap="round" stroke-linejoin="round" stroke-width="0.57"/>
    <line id="Line_745" data-name="Line 745" y1="38.157" transform="translate(199.79 172.18)" fill="none" stroke="#231f20" stroke-linecap="round" stroke-linejoin="round" stroke-width="0.57"/>
    <line id="Line_746" data-name="Line 746" x1="295.901" transform="translate(103.749 170.708)" fill="none" stroke="#231f20" stroke-linecap="round" stroke-linejoin="round" stroke-width="0.57"/>
    <line id="Line_747" data-name="Line 747" x1="326.21" transform="translate(90.014 131.956)" fill="none" stroke="#231f20" stroke-linecap="round" stroke-linejoin="round" stroke-width="0.57"/>
    <line id="Line_748" data-name="Line 748" x1="245.551" transform="translate(131.08 92.327)" fill="none" stroke="#231f20" stroke-linecap="round" stroke-linejoin="round" stroke-width="0.57"/>
    <line id="Line_749" data-name="Line 749" y2="38.753" transform="translate(245.691 131.956)" fill="none" stroke="#231f20" stroke-linecap="round" stroke-linejoin="round" stroke-width="0.57"/>
    <line id="Line_750" data-name="Line 750" y2="38.753" transform="translate(151.192 131.956)" fill="none" stroke="#231f20" stroke-linecap="round" stroke-linejoin="round" stroke-width="0.57"/>
    <line id="Line_751" data-name="Line 751" y2="38.192" transform="translate(339.104 131.956)" fill="none" stroke="#231f20" stroke-linecap="round" stroke-linejoin="round" stroke-width="0.57"/>
    <line id="Line_752" data-name="Line 752" y1="38.192" transform="translate(292.748 93.763)" fill="none" stroke="#231f20" stroke-linecap="round" stroke-linejoin="round" stroke-width="0.57"/>
    <line id="Line_753" data-name="Line 753" y1="38.192" transform="translate(199.79 93.763)" fill="none" stroke="#231f20" stroke-linecap="round" stroke-linejoin="round" stroke-width="0.57"/>
    <line id="Line_754" data-name="Line 754" x1="295.901" transform="translate(103.749 327.507)" fill="none" stroke="#231f20" stroke-linecap="round" stroke-linejoin="round" stroke-width="0.57"/>
    <line id="Line_755" data-name="Line 755" x1="254.065" transform="translate(126.034 288.719)" fill="none" stroke="#231f20" stroke-linecap="round" stroke-linejoin="round" stroke-width="0.57"/>
    <line id="Line_756" data-name="Line 756" x1="193.343" transform="translate(157.183 249.09)" fill="none" stroke="#231f20" stroke-linecap="round" stroke-linejoin="round" stroke-width="0.57"/>
    <line id="Line_757" data-name="Line 757" y2="38.788" transform="translate(245.691 288.719)" fill="none" stroke="#231f20" stroke-linecap="round" stroke-linejoin="round" stroke-width="0.57"/>
    <line id="Line_758" data-name="Line 758" y2="38.788" transform="translate(151.192 288.719)" fill="none" stroke="#231f20" stroke-linecap="round" stroke-linejoin="round" stroke-width="0.57"/>
    <line id="Line_759" data-name="Line 759" y2="38.192" transform="translate(339.104 288.719)" fill="none" stroke="#231f20" stroke-linecap="round" stroke-linejoin="round" stroke-width="0.57"/>
    <line id="Line_760" data-name="Line 760" y1="38.157" transform="translate(292.748 250.562)" fill="none" stroke="#231f20" stroke-linecap="round" stroke-linejoin="round" stroke-width="0.57"/>
    <line id="Line_761" data-name="Line 761" y1="38.157" transform="translate(199.79 250.562)" fill="none" stroke="#231f20" stroke-linecap="round" stroke-linejoin="round" stroke-width="0.57"/>
    <line id="Line_762" data-name="Line 762" x1="286.056" transform="translate(103.749 405.888)" fill="none" stroke="#231f20" stroke-linecap="round" stroke-linejoin="round" stroke-width="0.57"/>
    <line id="Line_763" data-name="Line 763" x1="254.065" transform="translate(126.034 367.135)" fill="none" stroke="#231f20" stroke-linecap="round" stroke-linejoin="round" stroke-width="0.57"/>
    <line id="Line_764" data-name="Line 764" x1="193.343" transform="translate(157.183 327.507)" fill="none" stroke="#231f20" stroke-linecap="round" stroke-linejoin="round" stroke-width="0.57"/>
    <line id="Line_765" data-name="Line 765" y2="38.753" transform="translate(245.691 367.135)" fill="none" stroke="#231f20" stroke-linecap="round" stroke-linejoin="round" stroke-width="0.57"/>
    <line id="Line_766" data-name="Line 766" y2="38.753" transform="translate(151.192 367.135)" fill="none" stroke="#231f20" stroke-linecap="round" stroke-linejoin="round" stroke-width="0.57"/>
    <line id="Line_767" data-name="Line 767" y2="38.157" transform="translate(339.104 367.135)" fill="none" stroke="#231f20" stroke-linecap="round" stroke-linejoin="round" stroke-width="0.57"/>
    <line id="Line_768" data-name="Line 768" y1="38.192" transform="translate(292.748 328.943)" fill="none" stroke="#231f20" stroke-linecap="round" stroke-linejoin="round" stroke-width="0.57"/>
    <line id="Line_769" data-name="Line 769" y1="38.192" transform="translate(199.79 328.943)" fill="none" stroke="#231f20" stroke-linecap="round" stroke-linejoin="round" stroke-width="0.57"/>
    <path id="Path_247241" data-name="Path 247241" d="M395.773,76.53,420.3,88.268c-14.226,39.383-64.857,341.066-64.857,341.066L84.63,429.089C85.191,428.844,395.773,76.53,395.773,76.53Z" transform="translate(-84.63 -23.446)" fill="#ffca05" fill-rule="evenodd"/>
    <path id="Path_247242" data-name="Path 247242" d="M395.773,76.53,420.3,88.268c-14.226,39.383-64.857,341.066-64.857,341.066L84.63,429.089C85.191,428.844,395.773,76.53,395.773,76.53Z" transform="translate(-84.63 -23.446)" fill="none" stroke="#231f20" stroke-linecap="round" stroke-linejoin="round" stroke-width="0.57"/>
    <path id="Path_247243" data-name="Path 247243" d="M84.383,82.515c-2.628,3.5.455,9.811,7.008,13.735s14.015,4.17,16.468.491c.42-.6,5.151-8.655,5.291-9.355.7-3.5-7.008-1.086-12.228-4.38s-8.3-10.512-11.7-8.9A75.546,75.546,0,0,0,84.383,82.515Z" transform="translate(226.62 -30.097)" fill="#0094d9" fill-rule="evenodd"/>
    <path id="Path_247244" data-name="Path 247244" d="M84.383,82.515c-2.628,3.5.455,9.811,7.008,13.735s14.015,4.17,16.468.491c.42-.6,5.151-8.655,5.291-9.355.7-3.5-7.008-1.086-12.228-4.38s-8.3-10.512-11.7-8.9A75.546,75.546,0,0,0,84.383,82.515Z" transform="translate(226.62 -30.097)" fill="none" stroke="#231f20" stroke-linecap="round" stroke-linejoin="round" stroke-width="0.57"/>
    <path id="Path_247245" data-name="Path 247245" d="M84.086,75.9c-2.593,3.854.911,9.811,7.358,13.525s14.015,3.749,16.468,0-.771-9.776-7.358-13.525S86.609,72.186,84.086,75.9Z" transform="translate(231.857 -32.032)" fill="#0094d9" fill-rule="evenodd"/>
    <path id="Path_247246" data-name="Path 247246" d="M84.086,75.9c-2.593,3.854.911,9.811,7.358,13.525s14.015,3.749,16.468,0-.771-9.776-7.358-13.525S86.609,72.186,84.086,75.9Z" transform="translate(231.857 -32.032)" fill="none" stroke="#231f20" stroke-linecap="round" stroke-linejoin="round" stroke-width="0.57"/>
    <path id="Path_247247" data-name="Path 247247" d="M87.083,114.084c-1.787,1.3-12.3-2.558-8.3-8.129L102.956,63.7a5.992,5.992,0,0,1,10.512,5.046v.21Z" transform="translate(245.714 -61.141)" fill="#0094d9" fill-rule="evenodd"/>
    <path id="Path_247248" data-name="Path 247248" d="M87.083,114.084c-1.787,1.3-12.3-2.558-8.3-8.129L102.956,63.7a5.992,5.992,0,0,1,10.512,5.046v.21Z" transform="translate(245.714 -61.141)" fill="none" stroke="#231f20" stroke-linecap="round" stroke-linejoin="round" stroke-width="0.57"/>
    <path id="Path_247249" data-name="Path 247249" d="M78.147,62.444c-1.016,1.4,0,3.749,2.628,5.291s5.291,1.647,6.307.245,0-3.749-2.593-5.291S79.163,61.042,78.147,62.444Z" transform="translate(272.275 -61.182)" fill="none" stroke="#231f20" stroke-linecap="round" stroke-linejoin="round" stroke-width="0.57"/>
    <line id="Line_770" data-name="Line 770" x1="6.517" y1="3.434" transform="translate(297.443 41.521)" fill="none" stroke="#231f20" stroke-linecap="round" stroke-linejoin="round" stroke-width="0.57"/>
    <line id="Line_771" data-name="Line 771" x1="8.164" y1="8.444" transform="translate(300.597 27.05)" fill="none" stroke="#231f20" stroke-linecap="round" stroke-linejoin="round" stroke-width="0.57"/>
    <line id="Line_772" data-name="Line 772" x1="1.787" y1="8.234" transform="translate(315.313 21.514)" fill="none" stroke="#231f20" stroke-linecap="round" stroke-linejoin="round" stroke-width="0.57"/>
    <path id="Path_247250" data-name="Path 247250" d="M126.665,186.138h29.783a8.339,8.339,0,0,0,1.191-6.2,7.813,7.813,0,0,0-7.008-6.307c-4.135-.385-8.234,2.067-10.512,2.137-5.046.21-13.525-1.226-15.873.981C120.848,179.656,120.953,186.138,126.665,186.138Z" transform="translate(47.022 219.575)" fill="#cbcbcb" fill-rule="evenodd"/>
    <path id="Path_247251" data-name="Path 247251" d="M126.665,186.138h29.783a8.339,8.339,0,0,0,1.191-6.2,7.813,7.813,0,0,0-7.008-6.307c-4.135-.385-8.234,2.067-10.512,2.137-5.046.21-13.525-1.226-15.873.981C120.848,179.656,120.953,186.138,126.665,186.138Z" transform="translate(47.022 219.575)" fill="none" stroke="#231f20" stroke-linecap="round" stroke-linejoin="round" stroke-width="0.57"/>
    <path id="Path_247252" data-name="Path 247252" d="M121.763,161.67c-2.172,1.016-3.959,11.773-2.943,12.894v.491c.876,6.517,6.272,7.218,7.814,3.5C130.032,169.168,117.873,164.543,121.763,161.67Z" transform="translate(89.661 189.733)" fill="#cbcbcb" fill-rule="evenodd"/>
    <path id="Path_247253" data-name="Path 247253" d="M121.763,161.67c-2.172,1.016-3.959,11.773-2.943,12.894v.491c.876,6.517,6.272,7.218,7.814,3.5C130.032,169.168,117.873,164.543,121.763,161.67Z" transform="translate(89.661 189.733)" fill="none" stroke="#231f20" stroke-linecap="round" stroke-linejoin="round" stroke-width="0.57"/>
    <path id="Path_247254" data-name="Path 247254" d="M154.847,188.529c-14.331,2.067-35.809,8.479-38.788,33.287-1.226,9.881.946,22.985,13.35,27.786H160.1c11.423,0,22.074-8.444,29.187-18.57,9.425-13.385,9.145-28.031,9.145-39.594,0-9.46,16.013-23.721,15.1-31.885a6.728,6.728,0,0,0-5.957-6.412c-4.7-.911-18.325,2.067-23.9,2.663-2.383.28-3.994.6-4.029.491-3.749-14.331-27.26-8.024-16.258,8.3C170.684,175.249,173.067,185.761,154.847,188.529Z" transform="translate(13.023 156.287)" fill="#cbcbcb" fill-rule="evenodd"/>
    <path id="Path_247255" data-name="Path 247255" d="M154.847,188.529c-14.331,2.067-35.809,8.479-38.788,33.287-1.226,9.881.946,22.985,13.35,27.786H160.1c11.423,0,22.074-8.444,29.187-18.57,9.425-13.385,9.145-28.031,9.145-39.594,0-9.46,16.013-23.721,15.1-31.885a6.728,6.728,0,0,0-5.957-6.412c-4.7-.911-18.325,2.067-23.9,2.663-2.383.28-3.994.6-4.029.491-3.749-14.331-27.26-8.024-16.258,8.3C170.684,175.249,173.067,185.761,154.847,188.529Z" transform="translate(13.023 156.287)" fill="none" stroke="#231f20" stroke-linecap="round" stroke-linejoin="round" stroke-width="0.57"/>
    <path id="Path_247256" data-name="Path 247256" d="M117.318,157.228l5.641-3.048,3.048,2.908a15.1,15.1,0,0,1-1.121,6.167H118.93a23.864,23.864,0,0,1-1.612-6.027Z" transform="translate(95.121 170.979)" fill="#fff" fill-rule="evenodd"/>
    <path id="Path_247257" data-name="Path 247257" d="M117.318,157.228l5.641-3.048,3.048,2.908a15.1,15.1,0,0,1-1.121,6.167H118.93a23.864,23.864,0,0,1-1.612-6.027Z" transform="translate(95.121 170.979)" fill="none" stroke="#231f20" stroke-linecap="round" stroke-linejoin="round" stroke-width="0.57"/>
    <path id="Path_247258" data-name="Path 247258" d="M128.255,151.682c.911-2.663-12.614-3.048-11.458,0C118.795,157.288,124.611,162.474,128.255,151.682Z" transform="translate(94.906 159.356)" fill="#ff98cb" fill-rule="evenodd"/>
    <path id="Path_247259" data-name="Path 247259" d="M128.255,151.682c.911-2.663-12.614-3.048-11.458,0C118.795,157.288,124.611,162.474,128.255,151.682Z" transform="translate(94.906 159.356)" fill="none" stroke="#231f20" stroke-linecap="round" stroke-linejoin="round" stroke-width="0.57"/>
    <path id="Path_247260" data-name="Path 247260" d="M125.782,151.57a2.1,2.1,0,1,0,2.1,2.1,2.1,2.1,0,0,0-2.1-2.1" transform="translate(70.96 164.444)" fill-rule="evenodd"/>
    <path id="Path_247261" data-name="Path 247261" d="M147.171,186.138a8.34,8.34,0,0,0,1.191-6.2,7.814,7.814,0,0,0-7.008-6.307c-4.135-.385-8.234,2.067-10.512,2.137" transform="translate(25.219 219.575)" fill="none" stroke="#231f20" stroke-linecap="round" stroke-linejoin="round" stroke-width="0.57"/>
    <path id="Path_247262" data-name="Path 247262" d="M152.51,224.6c-7.884-3.889-12.929-14.821-6.657-29.468,3.5-8.269,16.643-34.268,2.8-45.831" transform="translate(-23.813 158.76)" fill="none" stroke="#231f20" stroke-linecap="round" stroke-linejoin="round" stroke-width="0.57"/>
    <path id="Path_247263" data-name="Path 247263" d="M126.888,150.012a5.186,5.186,0,0,1,4.625,2.137,13.525,13.525,0,0,1,.876,7.744" transform="translate(54.998 160.501)" fill="none" stroke="#231f20" stroke-linecap="round" stroke-linejoin="round" stroke-width="0.57"/>
    <path id="Path_247264" data-name="Path 247264" d="M123.172,162.61c8.549,2.383,8.234,6.447,7.008,14.015-1.331,3.259-6.482,2.7-6.517-2.593a4.94,4.94,0,0,0-1.437-2.8" transform="translate(73.114 192.087)" fill="none" stroke="#231f20" stroke-linecap="round" stroke-linejoin="round" stroke-width="0.57"/>
    <path id="Path_247265" data-name="Path 247265" d="M117.37,157.394h.245c4.45,3.189,8.795,0,11.948-3.5a7.183,7.183,0,0,0,3.048,2.943" transform="translate(88.342 170.253)" fill="none" stroke="#231f20" stroke-linecap="round" stroke-linejoin="round" stroke-width="0.57"/>
    <path id="Path_247266" data-name="Path 247266" d="M135.355,154.808a7.533,7.533,0,0,0-1.086-3.959c-3.048-4.835-10.511-2.838-12.334,2.137a13.211,13.211,0,0,0-.561,4.17Z" transform="translate(71.583 155.704)" fill="#cbcbcb" fill-rule="evenodd"/>
    <path id="Path_247267" data-name="Path 247267" d="M135.355,154.808a7.533,7.533,0,0,0-1.086-3.959c-3.048-4.835-10.511-2.838-12.334,2.137a13.211,13.211,0,0,0-.561,4.17Z" transform="translate(71.583 155.704)" fill="none" stroke="#231f20" stroke-linecap="round" stroke-linejoin="round" stroke-width="0.57"/>
    <path id="Path_247268" data-name="Path 247268" d="M31.956,127.494l7.008,41.1c7.954,12.754,29.783,6.727,31.535-12.614.561-6.342,3.994-29.047,6.8-47.583.736-4.59,6.412-35.039-1.577-37.386-6.2-1.857-3.749,9.32-3.5,13.21.385,5.641,0-16.748-6.657-17.169-5.431-.315-4.2,7.919-3.189,12.614.385,1.822.6,3.5.6,3.259,0-1.226-1.121-4.8-1.927-9.285-2.1-11.458-10.827-7.428-9.706-2.7,1.682,7.008,3.224,16.608,2.032,17.239-2,1.051-2.207.315-4.66-5.221s-8.094-4.064-6.692,3.5c1.121,6.1,5.957,13.665,5.536,18.08l-3.679,12.509Z" transform="translate(440.295 -49.287)" fill="#f9d1e3" fill-rule="evenodd"/>
    <path id="Path_247269" data-name="Path 247269" d="M31.956,127.494l7.008,41.1c7.954,12.754,29.783,6.727,31.535-12.614.561-6.342,3.994-29.047,6.8-47.583.736-4.59,6.412-35.039-1.577-37.386-6.2-1.857-3.749,9.32-3.5,13.21.385,5.641,0-16.748-6.657-17.169-5.431-.315-4.2,7.919-3.189,12.614.385,1.822.6,3.5.6,3.259,0-1.226-1.121-4.8-1.927-9.285-2.1-11.458-10.827-7.428-9.706-2.7,1.682,7.008,3.224,16.608,2.032,17.239-2,1.051-2.207.315-4.66-5.221s-8.094-4.064-6.692,3.5c1.121,6.1,5.957,13.665,5.536,18.08l-3.679,12.509Z" transform="translate(440.295 -49.287)" fill="none" stroke="#231f20" stroke-linecap="round" stroke-linejoin="round" stroke-width="0.57"/>
    <path id="Path_247270" data-name="Path 247270" d="M50.817,81.9c-1.016-6.2,1.857-11.282,7.008-12.3a3.189,3.189,0,0,1,3.5,1.051l3.013,21.759c.561,5.256-10.512,6.272-12.334,1.962Z" transform="translate(390.495 -41.189)" fill="#f9d1e3" fill-rule="evenodd"/>
    <path id="Path_247271" data-name="Path 247271" d="M50.817,81.9c-1.016-6.2,1.857-11.282,7.008-12.3a3.189,3.189,0,0,1,3.5,1.051l3.013,21.759c.561,5.256-10.512,6.272-12.334,1.962Z" transform="translate(390.495 -41.189)" fill="none" stroke="#231f20" stroke-linecap="round" stroke-linejoin="round" stroke-width="0.57"/>
    <path id="Path_247272" data-name="Path 247272" d="M79.757,103.53C78.11,107.244,32.07,288.6,27.9,300.693h99.229l75.964-22c-.526-1.822-17.519-43.693-29.292-67.239a22.39,22.39,0,0,1-1.016-14.015c5.431-36.02,4.835-67.73-18.816-93.9Z" transform="translate(331.351 44.158)" fill="#231f20" fill-rule="evenodd"/>
    <path id="Path_247273" data-name="Path 247273" d="M85.389,142.317l-17.064,9.425-17.519-7.463c.21-1.437,0-30.8-.6-35.669H84.618Z" transform="translate(370.885 56.878)" fill="none" stroke="#fff" stroke-linecap="round" stroke-linejoin="round" stroke-width="0.57"/>
    <path id="Path_247274" data-name="Path 247274" d="M67.905,148.559l-4.38,3.5L46.006,144.6c-.21-1.437-8.234-30.8-10.266-35.669H58.866" transform="translate(439.069 57.679)" fill="none" stroke="#fff" stroke-linecap="round" stroke-linejoin="round" stroke-width="0.57"/>
    <path id="Path_247275" data-name="Path 247275" d="M54.042,71.542a15.312,15.312,0,0,1,9-8.339c9.215-1.647,17.975,1.121,20.112,12.334A21.759,21.759,0,0,1,72.192,96.244c-11.177,5.326-21.023-2.383-21.023-13.35,0-.876-.876-2.172-.806-3.083s1.261-1.331,1.3-1.612a17.309,17.309,0,0,1,2.383-6.657Z" transform="translate(372.518 -57.912)" fill="#f9d1e3" fill-rule="evenodd"/>
    <path id="Path_247276" data-name="Path 247276" d="M54.042,71.542a15.312,15.312,0,0,1,9-8.339c9.215-1.647,17.975,1.121,20.112,12.334A21.759,21.759,0,0,1,72.192,96.244c-11.177,5.326-21.023-2.383-21.023-13.35,0-.876-.876-2.172-.806-3.083s1.261-1.331,1.3-1.612a17.309,17.309,0,0,1,2.383-6.657Z" transform="translate(372.518 -57.912)" fill="none" stroke="#231f20" stroke-linecap="round" stroke-linejoin="round" stroke-width="0.57"/>
    <path id="Path_247277" data-name="Path 247277" d="M90.469,97.084c-3.5-22.109-6.482-35.6-25.088-35.7-14.576,0-20.813,11.948-19.832,11.878h1.892l3.784,23.861Z" transform="translate(382.483 -61.38)" fill="#231f20" fill-rule="evenodd"/>
    <path id="Path_247278" data-name="Path 247278" d="M90.469,97.084c-3.5-22.109-6.482-35.6-25.088-35.7-14.576,0-20.813,11.948-19.832,11.878h1.892l3.784,23.861Z" transform="translate(382.483 -61.38)" fill="none" stroke="#231f20" stroke-linecap="round" stroke-linejoin="round" stroke-width="0.57"/>
    <path id="Path_247279" data-name="Path 247279" d="M52.153,179.44c23.966,0,47.583.666,71.549,0,.385,0-11.423-66.363-11.317-66.574s16.573,0,16.573,0S120.128,85.782,114,78.844s-16.013-6.762-20.252.315c1.086,9.18-11.107,6.377-11.528,3.083C81.27,74.64,71.7,72.082,65.432,76.5c-5.5,3.889-10.792,14.261-14.541,20.182-4.625,7.358-9.425,14.681-10.161,16.223H65.678Z" transform="translate(360.533 -30.421)" fill="#fff" fill-rule="evenodd"/>
    <path id="Path_247280" data-name="Path 247280" d="M52.153,179.44c23.966,0,47.583.666,71.549,0,.385,0-11.423-66.363-11.317-66.574s16.573,0,16.573,0S120.128,85.782,114,78.844s-16.013-6.762-20.252.315c1.086,9.18-11.107,6.377-11.528,3.083C81.27,74.64,71.7,72.082,65.432,76.5c-5.5,3.889-10.792,14.261-14.541,20.182-4.625,7.358-9.425,14.681-10.161,16.223H65.678Z" transform="translate(360.533 -30.421)" fill="none" stroke="#231f20" stroke-linecap="round" stroke-linejoin="round" stroke-width="0.57"/>
    <path id="Path_247281" data-name="Path 247281" d="M132.5,129.109l-7.533,37.281c-20.077,20.743-44.359,14.015-51.612-17.519-2.908-12.649-2.908-42.572-4.17-43.378-7.849-4.975-14.506-19.236-7.358-24.527,2.172-1.612,1.437,1.121,1.507-.806.35-8.444,7.253-6.482,7.393-7.533,1.121-7.638,7.954-5.886,8.83-2.558s0,13.735,7.393,15.487c1.331.315-1.717-9.811,3.5-11.142,6.762-1.682,5.851,18.255,7.008,24.037,2.067,12.4,4.66,33.917,5.186,38.893l5.326-8.409Z" transform="translate(293.746 -46.733)" fill="#f9d1e3" fill-rule="evenodd"/>
    <path id="Path_247282" data-name="Path 247282" d="M132.5,129.109l-7.533,37.281c-20.077,20.743-44.359,14.015-51.612-17.519-2.908-12.649-2.908-42.572-4.17-43.378-7.849-4.975-14.506-19.236-7.358-24.527,2.172-1.612,1.437,1.121,1.507-.806.35-8.444,7.253-6.482,7.393-7.533,1.121-7.638,7.954-5.886,8.83-2.558s0,13.735,7.393,15.487c1.331.315-1.717-9.811,3.5-11.142,6.762-1.682,5.851,18.255,7.008,24.037,2.067,12.4,4.66,33.917,5.186,38.893l5.326-8.409Z" transform="translate(293.746 -46.733)" fill="none" stroke="#231f20" stroke-linecap="round" stroke-linejoin="round" stroke-width="0.57"/>
    <line id="Line_773" data-name="Line 773" y1="7.884" x2="1.857" transform="translate(426.07 75.088)" fill="none" stroke="#231f20" stroke-linecap="round" stroke-linejoin="round" stroke-width="0.57"/>
    <line id="Line_774" data-name="Line 774" x1="9.285" y1="53.539" transform="translate(471.585 74.492)" fill="none" stroke="#231f20" stroke-linecap="round" stroke-linejoin="round" stroke-width="0.57"/>
    <line id="Line_775" data-name="Line 775" x1="3.784" y2="6.202" transform="translate(392.363 90.61)" fill="none" stroke="#231f20" stroke-linecap="round" stroke-linejoin="round" stroke-width="0.57"/>
    <path id="Path_247283" data-name="Path 247283" d="M75.96,69a16.924,16.924,0,0,0,2.207,11.212" transform="translate(288.547 -42.301)" fill="none" stroke="#231f20" stroke-linecap="round" stroke-linejoin="round" stroke-width="0.57"/>
    <path id="Path_247284" data-name="Path 247284" d="M78.011,71.13a17.239,17.239,0,0,0,2.1,10.512" transform="translate(279.173 -36.967)" fill="none" stroke="#231f20" stroke-linecap="round" stroke-linejoin="round" stroke-width="0.57"/>
    <path id="Path_247285" data-name="Path 247285" d="M45.6,252.257l9.075-119.132a44.531,44.531,0,0,0,7.008-5.992,29.847,29.847,0,0,0,2.383-3.5" transform="translate(408.361 94.486)" fill="none" stroke="#fff" stroke-linecap="round" stroke-linejoin="round" stroke-width="0.57"/>
    <path id="Path_247286" data-name="Path 247286" d="M159.62,208.711,129.347,153,54.014,176.406c8.549,20.182-4.555,30.238-7.5,31.71s-21.794,4.835-26.384,19.026a43.169,43.169,0,0,0-.456,10.722H66.557l38.122-11.843,4.24-10.932,5.641,7.638Z" transform="translate(404.152 168.024)" fill="#fff" fill-rule="evenodd"/>
    <path id="Path_247287" data-name="Path 247287" d="M159.62,208.711,129.347,153,54.014,176.406c8.549,20.182-4.555,30.238-7.5,31.71s-21.794,4.835-26.384,19.026a43.169,43.169,0,0,0-.456,10.722H66.557l38.122-11.843,4.24-10.932,5.641,7.638Z" transform="translate(404.152 168.024)" fill="none" stroke="#231f20" stroke-linecap="round" stroke-linejoin="round" stroke-width="0.57"/>
    <path id="Path_247288" data-name="Path 247288" d="M21.1,194.166l42.922.455,91.241-28.381" transform="translate(403.008 201.176)" fill="none" stroke="#000" stroke-linecap="round" stroke-linejoin="round" stroke-width="0.57"/>
    <path id="Path_247289" data-name="Path 247289" d="M35.957,156.975a7.814,7.814,0,0,1,9.671,5.4,8.059,8.059,0,0,1-5.081,10.021,7.779,7.779,0,0,1-9.636-5.431,7.954,7.954,0,0,1,5.046-9.986Z" transform="translate(479.251 177.224)" fill="#fff" fill-rule="evenodd"/>
    <path id="Path_247290" data-name="Path 247290" d="M35.957,156.975a7.814,7.814,0,0,1,9.671,5.4,8.059,8.059,0,0,1-5.081,10.021,7.779,7.779,0,0,1-9.636-5.431,7.954,7.954,0,0,1,5.046-9.986Z" transform="translate(479.251 177.224)" fill="none" stroke="red" stroke-linecap="round" stroke-linejoin="round" stroke-width="0.57"/>
    <path id="Path_247291" data-name="Path 247291" d="M46.96,169.209c7.008-2.348,18.991,9.951,19.411,18.571" transform="translate(401.29 207.877)" fill="none" stroke="#231f20" stroke-linecap="round" stroke-linejoin="round" stroke-width="0.57"/>
    <path id="Path_247292" data-name="Path 247292" d="M44.352,202.724c11.247-7.008,17.169-26.98,10.512-44.394" transform="translate(419.139 181.37)" fill="none" stroke="#231f20" stroke-linecap="round" stroke-linejoin="round" stroke-width="0.66"/>
    <path id="Path_247293" data-name="Path 247293" d="M182.039,221.919l5.221-62.509H112.207c-.911,4.485-1.507,10.512-15.837,20.568-6.377,4.485-18.676,8.234-28.031,13.805A32.586,32.586,0,0,0,51.38,221.814h75.789l9.355-9.25.631,9.25Z" transform="translate(264.914 184.074)" fill="#fff" fill-rule="evenodd"/>
    <path id="Path_247294" data-name="Path 247294" d="M182.039,221.919l5.221-62.509H112.207c-.911,4.485-1.507,10.512-15.837,20.568-6.377,4.485-18.676,8.234-28.031,13.805A32.586,32.586,0,0,0,51.38,221.814h75.754l9.39-9.25.631,9.25Z" transform="translate(264.914 184.074)" fill="none" stroke="#231f20" stroke-linecap="round" stroke-linejoin="round" stroke-width="0.57"/>
    <line id="Line_776" data-name="Line 776" x2="128.802" transform="translate(318.221 395.131)" fill="none" stroke="#000" stroke-linecap="round" stroke-linejoin="round" stroke-width="0.57"/>
    <path id="Path_247295" data-name="Path 247295" d="M63.439,161.44a8.024,8.024,0,0,1,7.884,8.059,7.849,7.849,0,0,1-7.744,7.919,8.059,8.059,0,0,1-7.919-8.024A7.884,7.884,0,0,1,63.439,161.44Z" transform="translate(365.855 189.157)" fill="#fff" fill-rule="evenodd"/>
    <path id="Path_247296" data-name="Path 247296" d="M63.439,161.44a8.024,8.024,0,0,1,7.884,8.059,7.849,7.849,0,0,1-7.744,7.919,8.059,8.059,0,0,1-7.919-8.024A7.884,7.884,0,0,1,63.439,161.44Z" transform="translate(365.855 189.157)" fill="none" stroke="red" stroke-linecap="round" stroke-linejoin="round" stroke-width="0.57"/>
    <path id="Path_247297" data-name="Path 247297" d="M78.215,167.11c7.008,0,11,21.023,8.865,24.527" transform="translate(270.489 203.354)" fill="none" stroke="#231f20" stroke-linecap="round" stroke-linejoin="round" stroke-width="0.57"/>
    <path id="Path_247298" data-name="Path 247298" d="M67.25,196.466c14.611-3.153,35.739-17.519,40.224-37.036" transform="translate(289.093 184.124)" fill="none" stroke="#231f20" stroke-linecap="round" stroke-linejoin="round" stroke-width="0.57"/>
    <line id="Line_777" data-name="Line 777" x2="4.66" y2="12.929" transform="translate(489.49 82.166)" fill="none" stroke="#231f20" stroke-linecap="round" stroke-linejoin="round" stroke-width="0.57"/>
    <line id="Line_778" data-name="Line 778" y1="1.226" x2="7.113" transform="translate(533.183 31.325)" fill="none" stroke="#231f20" stroke-linecap="round" stroke-linejoin="round" stroke-width="0.57"/>
    <line id="Line_779" data-name="Line 779" y1="5.431" x2="10.161" transform="translate(531.571 16.889)" fill="none" stroke="#231f20" stroke-linecap="round" stroke-linejoin="round" stroke-width="0.57"/>
    <line id="Line_780" data-name="Line 780" y1="7.148" x2="4.135" transform="translate(525.545 7.288)" fill="none" stroke="#231f20" stroke-linecap="round" stroke-linejoin="round" stroke-width="0.57"/>
  </g>
</svg>
