<svg xmlns="http://www.w3.org/2000/svg" width="71.998" height="36" viewBox="0 0 71.998 36">
  <path id="Exclusion_4" data-name="Exclusion 4" d="M3547,19997a17.994,17.994,0,0,1-9-2.41,18,18,0,0,0,0-31.182,18,18,0,1,1,9,33.592Zm-18,0a17.994,17.994,0,0,1-9-2.41,17.987,17.987,0,0,0,9-15.428,17.992,17.992,0,0,0,9,15.428A17.99,17.99,0,0,1,3529,19997Zm-18,0a18,18,0,1,1,9-33.592,18,18,0,0,0,0,31.182A17.99,17.99,0,0,1,3511,19997Zm18-18.162h0a17.987,17.987,0,0,0-9-15.43,18.021,18.021,0,0,1,18,0,17.986,17.986,0,0,0-9,15.43Z" transform="translate(-3493.002 -19961.002)"/>
</svg>
