<svg xmlns="http://www.w3.org/2000/svg" xmlns:xlink="http://www.w3.org/1999/xlink" width="2560.5" height="816.5" viewBox="0 0 2560.5 816.5">
  <defs>
    <clipPath id="clip-path">
      <rect width="2560" height="816" fill="none"/>
    </clipPath>
    <clipPath id="clip-path-2">
      <rect width="2558" height="816" fill="none"/>
    </clipPath>
    <clipPath id="clip-path-3">
      <rect width="218" height="167" fill="none"/>
    </clipPath>
  </defs>
  <g id="Grid" transform="translate(0 -79)">
    <g id="Grid-2" data-name="Grid" opacity="0.299">
      <g id="Repeat_Grid_130" data-name="Repeat Grid 130" transform="translate(0 79.5)" clip-path="url(#clip-path)">
        <g transform="translate(0 -79.5)">
          <line id="Line_781" data-name="Line 781" y2="816" transform="translate(0.5 79.5)" fill="none" stroke="#d6d6d6" stroke-width="1"/>
        </g>
        <g transform="translate(51 -79.5)">
          <line id="Line_781-2" data-name="Line 781" y2="816" transform="translate(0.5 79.5)" fill="none" stroke="#d6d6d6" stroke-width="1"/>
        </g>
        <g transform="translate(102 -79.5)">
          <line id="Line_781-3" data-name="Line 781" y2="816" transform="translate(0.5 79.5)" fill="none" stroke="#d6d6d6" stroke-width="1"/>
        </g>
        <g transform="translate(153 -79.5)">
          <line id="Line_781-4" data-name="Line 781" y2="816" transform="translate(0.5 79.5)" fill="none" stroke="#d6d6d6" stroke-width="1"/>
        </g>
        <g transform="translate(204 -79.5)">
          <line id="Line_781-5" data-name="Line 781" y2="816" transform="translate(0.5 79.5)" fill="none" stroke="#d6d6d6" stroke-width="1"/>
        </g>
        <g transform="translate(255 -79.5)">
          <line id="Line_781-6" data-name="Line 781" y2="816" transform="translate(0.5 79.5)" fill="none" stroke="#d6d6d6" stroke-width="1"/>
        </g>
        <g transform="translate(306 -79.5)">
          <line id="Line_781-7" data-name="Line 781" y2="816" transform="translate(0.5 79.5)" fill="none" stroke="#d6d6d6" stroke-width="1"/>
        </g>
        <g transform="translate(357 -79.5)">
          <line id="Line_781-8" data-name="Line 781" y2="816" transform="translate(0.5 79.5)" fill="none" stroke="#d6d6d6" stroke-width="1"/>
        </g>
        <g transform="translate(408 -79.5)">
          <line id="Line_781-9" data-name="Line 781" y2="816" transform="translate(0.5 79.5)" fill="none" stroke="#d6d6d6" stroke-width="1"/>
        </g>
        <g transform="translate(459 -79.5)">
          <line id="Line_781-10" data-name="Line 781" y2="816" transform="translate(0.5 79.5)" fill="none" stroke="#d6d6d6" stroke-width="1"/>
        </g>
        <g transform="translate(510 -79.5)">
          <line id="Line_781-11" data-name="Line 781" y2="816" transform="translate(0.5 79.5)" fill="none" stroke="#d6d6d6" stroke-width="1"/>
        </g>
        <g transform="translate(561 -79.5)">
          <line id="Line_781-12" data-name="Line 781" y2="816" transform="translate(0.5 79.5)" fill="none" stroke="#d6d6d6" stroke-width="1"/>
        </g>
        <g transform="translate(612 -79.5)">
          <line id="Line_781-13" data-name="Line 781" y2="816" transform="translate(0.5 79.5)" fill="none" stroke="#d6d6d6" stroke-width="1"/>
        </g>
        <g transform="translate(663 -79.5)">
          <line id="Line_781-14" data-name="Line 781" y2="816" transform="translate(0.5 79.5)" fill="none" stroke="#d6d6d6" stroke-width="1"/>
        </g>
        <g transform="translate(714 -79.5)">
          <line id="Line_781-15" data-name="Line 781" y2="816" transform="translate(0.5 79.5)" fill="none" stroke="#d6d6d6" stroke-width="1"/>
        </g>
        <g transform="translate(765 -79.5)">
          <line id="Line_781-16" data-name="Line 781" y2="816" transform="translate(0.5 79.5)" fill="none" stroke="#d6d6d6" stroke-width="1"/>
        </g>
        <g transform="translate(816 -79.5)">
          <line id="Line_781-17" data-name="Line 781" y2="816" transform="translate(0.5 79.5)" fill="none" stroke="#d6d6d6" stroke-width="1"/>
        </g>
        <g transform="translate(867 -79.5)">
          <line id="Line_781-18" data-name="Line 781" y2="816" transform="translate(0.5 79.5)" fill="none" stroke="#d6d6d6" stroke-width="1"/>
        </g>
        <g transform="translate(918 -79.5)">
          <line id="Line_781-19" data-name="Line 781" y2="816" transform="translate(0.5 79.5)" fill="none" stroke="#d6d6d6" stroke-width="1"/>
        </g>
        <g transform="translate(969 -79.5)">
          <line id="Line_781-20" data-name="Line 781" y2="816" transform="translate(0.5 79.5)" fill="none" stroke="#d6d6d6" stroke-width="1"/>
        </g>
        <g transform="translate(1020 -79.5)">
          <line id="Line_781-21" data-name="Line 781" y2="816" transform="translate(0.5 79.5)" fill="none" stroke="#d6d6d6" stroke-width="1"/>
        </g>
        <g transform="translate(1071 -79.5)">
          <line id="Line_781-22" data-name="Line 781" y2="816" transform="translate(0.5 79.5)" fill="none" stroke="#d6d6d6" stroke-width="1"/>
        </g>
        <g transform="translate(1122 -79.5)">
          <line id="Line_781-23" data-name="Line 781" y2="816" transform="translate(0.5 79.5)" fill="none" stroke="#d6d6d6" stroke-width="1"/>
        </g>
        <g transform="translate(1173 -79.5)">
          <line id="Line_781-24" data-name="Line 781" y2="816" transform="translate(0.5 79.5)" fill="none" stroke="#d6d6d6" stroke-width="1"/>
        </g>
        <g transform="translate(1224 -79.5)">
          <line id="Line_781-25" data-name="Line 781" y2="816" transform="translate(0.5 79.5)" fill="none" stroke="#d6d6d6" stroke-width="1"/>
        </g>
        <g transform="translate(1275 -79.5)">
          <line id="Line_781-26" data-name="Line 781" y2="816" transform="translate(0.5 79.5)" fill="none" stroke="#d6d6d6" stroke-width="1"/>
        </g>
        <g transform="translate(1326 -79.5)">
          <line id="Line_781-27" data-name="Line 781" y2="816" transform="translate(0.5 79.5)" fill="none" stroke="#d6d6d6" stroke-width="1"/>
        </g>
        <g transform="translate(1377 -79.5)">
          <line id="Line_781-28" data-name="Line 781" y2="816" transform="translate(0.5 79.5)" fill="none" stroke="#d6d6d6" stroke-width="1"/>
        </g>
        <g transform="translate(1428 -79.5)">
          <line id="Line_781-29" data-name="Line 781" y2="816" transform="translate(0.5 79.5)" fill="none" stroke="#d6d6d6" stroke-width="1"/>
        </g>
        <g transform="translate(1479 -79.5)">
          <line id="Line_781-30" data-name="Line 781" y2="816" transform="translate(0.5 79.5)" fill="none" stroke="#d6d6d6" stroke-width="1"/>
        </g>
        <g transform="translate(1530 -79.5)">
          <line id="Line_781-31" data-name="Line 781" y2="816" transform="translate(0.5 79.5)" fill="none" stroke="#d6d6d6" stroke-width="1"/>
        </g>
        <g transform="translate(1581 -79.5)">
          <line id="Line_781-32" data-name="Line 781" y2="816" transform="translate(0.5 79.5)" fill="none" stroke="#d6d6d6" stroke-width="1"/>
        </g>
        <g transform="translate(1632 -79.5)">
          <line id="Line_781-33" data-name="Line 781" y2="816" transform="translate(0.5 79.5)" fill="none" stroke="#d6d6d6" stroke-width="1"/>
        </g>
        <g transform="translate(1683 -79.5)">
          <line id="Line_781-34" data-name="Line 781" y2="816" transform="translate(0.5 79.5)" fill="none" stroke="#d6d6d6" stroke-width="1"/>
        </g>
        <g transform="translate(1734 -79.5)">
          <line id="Line_781-35" data-name="Line 781" y2="816" transform="translate(0.5 79.5)" fill="none" stroke="#d6d6d6" stroke-width="1"/>
        </g>
        <g transform="translate(1785 -79.5)">
          <line id="Line_781-36" data-name="Line 781" y2="816" transform="translate(0.5 79.5)" fill="none" stroke="#d6d6d6" stroke-width="1"/>
        </g>
        <g transform="translate(1836 -79.5)">
          <line id="Line_781-37" data-name="Line 781" y2="816" transform="translate(0.5 79.5)" fill="none" stroke="#d6d6d6" stroke-width="1"/>
        </g>
        <g transform="translate(1887 -79.5)">
          <line id="Line_781-38" data-name="Line 781" y2="816" transform="translate(0.5 79.5)" fill="none" stroke="#d6d6d6" stroke-width="1"/>
        </g>
        <g transform="translate(1938 -79.5)">
          <line id="Line_781-39" data-name="Line 781" y2="816" transform="translate(0.5 79.5)" fill="none" stroke="#d6d6d6" stroke-width="1"/>
        </g>
        <g transform="translate(1989 -79.5)">
          <line id="Line_781-40" data-name="Line 781" y2="816" transform="translate(0.5 79.5)" fill="none" stroke="#d6d6d6" stroke-width="1"/>
        </g>
        <g transform="translate(2040 -79.5)">
          <line id="Line_781-41" data-name="Line 781" y2="816" transform="translate(0.5 79.5)" fill="none" stroke="#d6d6d6" stroke-width="1"/>
        </g>
        <g transform="translate(2091 -79.5)">
          <line id="Line_781-42" data-name="Line 781" y2="816" transform="translate(0.5 79.5)" fill="none" stroke="#d6d6d6" stroke-width="1"/>
        </g>
        <g transform="translate(2142 -79.5)">
          <line id="Line_781-43" data-name="Line 781" y2="816" transform="translate(0.5 79.5)" fill="none" stroke="#d6d6d6" stroke-width="1"/>
        </g>
        <g transform="translate(2193 -79.5)">
          <line id="Line_781-44" data-name="Line 781" y2="816" transform="translate(0.5 79.5)" fill="none" stroke="#d6d6d6" stroke-width="1"/>
        </g>
        <g transform="translate(2244 -79.5)">
          <line id="Line_781-45" data-name="Line 781" y2="816" transform="translate(0.5 79.5)" fill="none" stroke="#d6d6d6" stroke-width="1"/>
        </g>
        <g transform="translate(2295 -79.5)">
          <line id="Line_781-46" data-name="Line 781" y2="816" transform="translate(0.5 79.5)" fill="none" stroke="#d6d6d6" stroke-width="1"/>
        </g>
        <g transform="translate(2346 -79.5)">
          <line id="Line_781-47" data-name="Line 781" y2="816" transform="translate(0.5 79.5)" fill="none" stroke="#d6d6d6" stroke-width="1"/>
        </g>
        <g transform="translate(2397 -79.5)">
          <line id="Line_781-48" data-name="Line 781" y2="816" transform="translate(0.5 79.5)" fill="none" stroke="#d6d6d6" stroke-width="1"/>
        </g>
        <g transform="translate(2448 -79.5)">
          <line id="Line_781-49" data-name="Line 781" y2="816" transform="translate(0.5 79.5)" fill="none" stroke="#d6d6d6" stroke-width="1"/>
        </g>
        <g transform="translate(2499 -79.5)">
          <line id="Line_781-50" data-name="Line 781" y2="816" transform="translate(0.5 79.5)" fill="none" stroke="#d6d6d6" stroke-width="1"/>
        </g>
        <g transform="translate(2550 -79.5)">
          <line id="Line_781-51" data-name="Line 781" y2="816" transform="translate(0.5 79.5)" fill="none" stroke="#d6d6d6" stroke-width="1"/>
        </g>
      </g>
      <g id="Repeat_Grid_131" data-name="Repeat Grid 131" transform="translate(2.5 79)" clip-path="url(#clip-path-2)">
        <g transform="translate(-2.5 -79)">
          <line id="Line_782" data-name="Line 782" x1="2558" transform="translate(2.5 79.5)" fill="none" stroke="#d6d6d6" stroke-width="1"/>
        </g>
        <g transform="translate(-2.5 -27)">
          <line id="Line_782-2" data-name="Line 782" x1="2558" transform="translate(2.5 79.5)" fill="none" stroke="#d6d6d6" stroke-width="1"/>
        </g>
        <g transform="translate(-2.5 25)">
          <line id="Line_782-3" data-name="Line 782" x1="2558" transform="translate(2.5 79.5)" fill="none" stroke="#d6d6d6" stroke-width="1"/>
        </g>
        <g transform="translate(-2.5 77)">
          <line id="Line_782-4" data-name="Line 782" x1="2558" transform="translate(2.5 79.5)" fill="none" stroke="#d6d6d6" stroke-width="1"/>
        </g>
        <g transform="translate(-2.5 129)">
          <line id="Line_782-5" data-name="Line 782" x1="2558" transform="translate(2.5 79.5)" fill="none" stroke="#d6d6d6" stroke-width="1"/>
        </g>
        <g transform="translate(-2.5 181)">
          <line id="Line_782-6" data-name="Line 782" x1="2558" transform="translate(2.5 79.5)" fill="none" stroke="#d6d6d6" stroke-width="1"/>
        </g>
        <g transform="translate(-2.5 233)">
          <line id="Line_782-7" data-name="Line 782" x1="2558" transform="translate(2.5 79.5)" fill="none" stroke="#d6d6d6" stroke-width="1"/>
        </g>
        <g transform="translate(-2.5 285)">
          <line id="Line_782-8" data-name="Line 782" x1="2558" transform="translate(2.5 79.5)" fill="none" stroke="#d6d6d6" stroke-width="1"/>
        </g>
        <g transform="translate(-2.5 337)">
          <line id="Line_782-9" data-name="Line 782" x1="2558" transform="translate(2.5 79.5)" fill="none" stroke="#d6d6d6" stroke-width="1"/>
        </g>
        <g transform="translate(-2.5 389)">
          <line id="Line_782-10" data-name="Line 782" x1="2558" transform="translate(2.5 79.5)" fill="none" stroke="#d6d6d6" stroke-width="1"/>
        </g>
        <g transform="translate(-2.5 441)">
          <line id="Line_782-11" data-name="Line 782" x1="2558" transform="translate(2.5 79.5)" fill="none" stroke="#d6d6d6" stroke-width="1"/>
        </g>
        <g transform="translate(-2.5 493)">
          <line id="Line_782-12" data-name="Line 782" x1="2558" transform="translate(2.5 79.5)" fill="none" stroke="#d6d6d6" stroke-width="1"/>
        </g>
        <g transform="translate(-2.5 545)">
          <line id="Line_782-13" data-name="Line 782" x1="2558" transform="translate(2.5 79.5)" fill="none" stroke="#d6d6d6" stroke-width="1"/>
        </g>
        <g transform="translate(-2.5 597)">
          <line id="Line_782-14" data-name="Line 782" x1="2558" transform="translate(2.5 79.5)" fill="none" stroke="#d6d6d6" stroke-width="1"/>
        </g>
        <g transform="translate(-2.5 649)">
          <line id="Line_782-15" data-name="Line 782" x1="2558" transform="translate(2.5 79.5)" fill="none" stroke="#d6d6d6" stroke-width="1"/>
        </g>
        <g transform="translate(-2.5 701)">
          <line id="Line_782-16" data-name="Line 782" x1="2558" transform="translate(2.5 79.5)" fill="none" stroke="#d6d6d6" stroke-width="1"/>
        </g>
      </g>
    </g>
    <g id="Right-Circle" transform="translate(2037 180)" opacity="0.08" clip-path="url(#clip-path-3)">
      <g transform="translate(-2037 -180)">
        <circle id="Ellipse_1025" data-name="Ellipse 1025" cx="3.5" cy="3.5" r="3.5" transform="translate(2037 180)"/>
      </g>
      <g transform="translate(-1986 -180)">
        <circle id="Ellipse_1025-2" data-name="Ellipse 1025" cx="3.5" cy="3.5" r="3.5" transform="translate(2037 180)"/>
      </g>
      <g transform="translate(-1935 -180)">
        <circle id="Ellipse_1025-3" data-name="Ellipse 1025" cx="3.5" cy="3.5" r="3.5" transform="translate(2037 180)"/>
      </g>
      <g transform="translate(-1884 -180)">
        <circle id="Ellipse_1025-4" data-name="Ellipse 1025" cx="3.5" cy="3.5" r="3.5" transform="translate(2037 180)"/>
      </g>
      <g transform="translate(-1833 -180)">
        <circle id="Ellipse_1025-5" data-name="Ellipse 1025" cx="3.5" cy="3.5" r="3.5" transform="translate(2037 180)"/>
      </g>
      <g transform="translate(-2037 -128)">
        <circle id="Ellipse_1025-6" data-name="Ellipse 1025" cx="3.5" cy="3.5" r="3.5" transform="translate(2037 180)"/>
      </g>
      <g transform="translate(-1986 -128)">
        <circle id="Ellipse_1025-7" data-name="Ellipse 1025" cx="3.5" cy="3.5" r="3.5" transform="translate(2037 180)"/>
      </g>
      <g transform="translate(-1935 -128)">
        <circle id="Ellipse_1025-8" data-name="Ellipse 1025" cx="3.5" cy="3.5" r="3.5" transform="translate(2037 180)"/>
      </g>
      <g transform="translate(-1884 -128)">
        <circle id="Ellipse_1025-9" data-name="Ellipse 1025" cx="3.5" cy="3.5" r="3.5" transform="translate(2037 180)"/>
      </g>
      <g transform="translate(-1833 -128)">
        <circle id="Ellipse_1025-10" data-name="Ellipse 1025" cx="3.5" cy="3.5" r="3.5" transform="translate(2037 180)"/>
      </g>
      <g transform="translate(-2037 -76)">
        <circle id="Ellipse_1025-11" data-name="Ellipse 1025" cx="3.5" cy="3.5" r="3.5" transform="translate(2037 180)"/>
      </g>
      <g transform="translate(-1986 -76)">
        <circle id="Ellipse_1025-12" data-name="Ellipse 1025" cx="3.5" cy="3.5" r="3.5" transform="translate(2037 180)"/>
      </g>
      <g transform="translate(-1935 -76)">
        <circle id="Ellipse_1025-13" data-name="Ellipse 1025" cx="3.5" cy="3.5" r="3.5" transform="translate(2037 180)"/>
      </g>
      <g transform="translate(-1884 -76)">
        <circle id="Ellipse_1025-14" data-name="Ellipse 1025" cx="3.5" cy="3.5" r="3.5" transform="translate(2037 180)"/>
      </g>
      <g transform="translate(-1833 -76)">
        <circle id="Ellipse_1025-15" data-name="Ellipse 1025" cx="3.5" cy="3.5" r="3.5" transform="translate(2037 180)"/>
      </g>
      <g transform="translate(-2037 -24)">
        <circle id="Ellipse_1025-16" data-name="Ellipse 1025" cx="3.5" cy="3.5" r="3.5" transform="translate(2037 180)"/>
      </g>
      <g transform="translate(-1986 -24)">
        <circle id="Ellipse_1025-17" data-name="Ellipse 1025" cx="3.5" cy="3.5" r="3.5" transform="translate(2037 180)"/>
      </g>
      <g transform="translate(-1935 -24)">
        <circle id="Ellipse_1025-18" data-name="Ellipse 1025" cx="3.5" cy="3.5" r="3.5" transform="translate(2037 180)"/>
      </g>
      <g transform="translate(-1884 -24)">
        <circle id="Ellipse_1025-19" data-name="Ellipse 1025" cx="3.5" cy="3.5" r="3.5" transform="translate(2037 180)"/>
      </g>
      <g transform="translate(-1833 -24)">
        <circle id="Ellipse_1025-20" data-name="Ellipse 1025" cx="3.5" cy="3.5" r="3.5" transform="translate(2037 180)"/>
      </g>
    </g>
    <g id="Left-Circle" transform="translate(150 648)" opacity="0.073" clip-path="url(#clip-path-3)">
      <g transform="translate(-2037 -180)">
        <circle id="Ellipse_1025-21" data-name="Ellipse 1025" cx="3.5" cy="3.5" r="3.5" transform="translate(2037 180)"/>
      </g>
      <g transform="translate(-1986 -180)">
        <circle id="Ellipse_1025-22" data-name="Ellipse 1025" cx="3.5" cy="3.5" r="3.5" transform="translate(2037 180)"/>
      </g>
      <g transform="translate(-1935 -180)">
        <circle id="Ellipse_1025-23" data-name="Ellipse 1025" cx="3.5" cy="3.5" r="3.5" transform="translate(2037 180)"/>
      </g>
      <g transform="translate(-1884 -180)">
        <circle id="Ellipse_1025-24" data-name="Ellipse 1025" cx="3.5" cy="3.5" r="3.5" transform="translate(2037 180)"/>
      </g>
      <g transform="translate(-1833 -180)">
        <circle id="Ellipse_1025-25" data-name="Ellipse 1025" cx="3.5" cy="3.5" r="3.5" transform="translate(2037 180)"/>
      </g>
      <g transform="translate(-2037 -128)">
        <circle id="Ellipse_1025-26" data-name="Ellipse 1025" cx="3.5" cy="3.5" r="3.5" transform="translate(2037 180)"/>
      </g>
      <g transform="translate(-1986 -128)">
        <circle id="Ellipse_1025-27" data-name="Ellipse 1025" cx="3.5" cy="3.5" r="3.5" transform="translate(2037 180)"/>
      </g>
      <g transform="translate(-1935 -128)">
        <circle id="Ellipse_1025-28" data-name="Ellipse 1025" cx="3.5" cy="3.5" r="3.5" transform="translate(2037 180)"/>
      </g>
      <g transform="translate(-1884 -128)">
        <circle id="Ellipse_1025-29" data-name="Ellipse 1025" cx="3.5" cy="3.5" r="3.5" transform="translate(2037 180)"/>
      </g>
      <g transform="translate(-1833 -128)">
        <circle id="Ellipse_1025-30" data-name="Ellipse 1025" cx="3.5" cy="3.5" r="3.5" transform="translate(2037 180)"/>
      </g>
      <g transform="translate(-2037 -76)">
        <circle id="Ellipse_1025-31" data-name="Ellipse 1025" cx="3.5" cy="3.5" r="3.5" transform="translate(2037 180)"/>
      </g>
      <g transform="translate(-1986 -76)">
        <circle id="Ellipse_1025-32" data-name="Ellipse 1025" cx="3.5" cy="3.5" r="3.5" transform="translate(2037 180)"/>
      </g>
      <g transform="translate(-1935 -76)">
        <circle id="Ellipse_1025-33" data-name="Ellipse 1025" cx="3.5" cy="3.5" r="3.5" transform="translate(2037 180)"/>
      </g>
      <g transform="translate(-1884 -76)">
        <circle id="Ellipse_1025-34" data-name="Ellipse 1025" cx="3.5" cy="3.5" r="3.5" transform="translate(2037 180)"/>
      </g>
      <g transform="translate(-1833 -76)">
        <circle id="Ellipse_1025-35" data-name="Ellipse 1025" cx="3.5" cy="3.5" r="3.5" transform="translate(2037 180)"/>
      </g>
      <g transform="translate(-2037 -24)">
        <circle id="Ellipse_1025-36" data-name="Ellipse 1025" cx="3.5" cy="3.5" r="3.5" transform="translate(2037 180)"/>
      </g>
      <g transform="translate(-1986 -24)">
        <circle id="Ellipse_1025-37" data-name="Ellipse 1025" cx="3.5" cy="3.5" r="3.5" transform="translate(2037 180)"/>
      </g>
      <g transform="translate(-1935 -24)">
        <circle id="Ellipse_1025-38" data-name="Ellipse 1025" cx="3.5" cy="3.5" r="3.5" transform="translate(2037 180)"/>
      </g>
      <g transform="translate(-1884 -24)">
        <circle id="Ellipse_1025-39" data-name="Ellipse 1025" cx="3.5" cy="3.5" r="3.5" transform="translate(2037 180)"/>
      </g>
      <g transform="translate(-1833 -24)">
        <circle id="Ellipse_1025-40" data-name="Ellipse 1025" cx="3.5" cy="3.5" r="3.5" transform="translate(2037 180)"/>
      </g>
    </g>
  </g>
</svg>
