<?xml version="1.0" encoding="UTF-8"?>
<svg id="Layer_1" xmlns="http://www.w3.org/2000/svg" version="1.1" viewBox="0 0 107.7 540">
  <!-- Generator: Adobe Illustrator 29.6.1, SVG Export Plug-In . SVG Version: 2.1.1 Build 9)  -->
  <defs>
    <style>
      .st0 {
        fill: none;
        stroke: #ccc;
        stroke-dasharray: 2;
        stroke-width: .8px;
      }
    </style>
  </defs>
  <path class="st0" d="M25.7,460v28.4h81.4v22.5H25.7v28.3H7.5v-79.2h18.3Z"/>
  <path class="st0" d="M55.8,413c-1.4,2.6-2.2,5.7-2.2,9.2s1.7,8.5,5.2,11.2c3.5,2.7,8.3,4,14.3,4h34v22H35.9v-22h13.2v-.3c-9.6-3.5-14.5-9.7-14.5-18.8s.3-4.1.8-5.4h20.2Z"/>
  <path class="st0" d="M107.1,343.6v20.8h-10.2v.3c8,4.8,12,11.8,12,21.2s-2,12.3-5.9,16.3c-3.9,4-9.1,5.9-15.7,5.9-13.8,0-21.8-8.2-23.9-24.5l-2.6-19.3c-7.8,0-11.7,4.2-11.7,12.7s2.5,16.5,7.6,24.2h-16.5c-1.6-3.1-3-7.2-4.2-12.5s-1.8-10.1-1.8-14.5c0-20.3,10.1-30.4,30.4-30.4h42.5ZM78.2,364.2h-4.8l1.7,12.9c.9,7.1,4.1,10.7,9.7,10.7s4.6-.9,6.2-2.6c1.6-1.7,2.4-4.1,2.4-7.1s-1.4-7.5-4.3-10.1c-2.8-2.6-6.5-3.9-10.8-3.9Z"/>
  <path class="st0" d="M24.7,315.1c0,3.7-1.1,6.7-3.3,9.1-2.2,2.4-4.9,3.5-8.1,3.5s-6-1.2-8.1-3.5c-2.1-2.4-3.1-5.4-3.1-9.1s1-6.8,3.1-9.1c2.1-2.3,4.8-3.5,8.1-3.5s6.1,1.2,8.2,3.5c2.1,2.3,3.2,5.4,3.2,9.1ZM107.1,304.2v22H35.9v-22h71.2Z"/>
  <path class="st0" d="M107.1,217v21.9h-39.6c-11,0-16.5,3.9-16.5,11.8s1.5,6.9,4.4,9.4c2.9,2.5,6.6,3.7,11.1,3.7h40.6v22H35.9v-22h11.3v-.3c-8.7-5.2-13-12.9-13-22.9,0-15.8,9.8-23.6,29.3-23.6h43.6Z"/>
  <path class="st0" d="M24.7,188.5c0,3.7-1.1,6.7-3.3,9.1-2.2,2.4-4.9,3.5-8.1,3.5s-6-1.2-8.1-3.5c-2.1-2.4-3.1-5.4-3.1-9.1s1-6.8,3.1-9.1c2.1-2.3,4.8-3.5,8.1-3.5s6.1,1.2,8.2,3.5c2.1,2.3,3.2,5.4,3.2,9.1ZM107.1,177.6v22H35.9v-22h71.2Z"/>
  <path class="st0" d="M107.1,90.4v21.9h-39.6c-11,0-16.5,3.9-16.5,11.8s1.5,6.9,4.4,9.4c2.9,2.5,6.6,3.7,11.1,3.7h40.6v22H35.9v-22h11.3v-.3c-8.7-5.2-13-12.9-13-22.9,0-15.8,9.8-23.6,29.3-23.6h43.6Z"/>
  <path class="st0" d="M99,3.2c13.2,0,23.4,3.8,30.7,11.5,7.3,7.6,10.9,18.7,10.9,33.2s-1.4,17.2-4.1,22.8h-18.5c4.3-7.3,6.4-14.7,6.4-22.2s-2-13.2-5.9-17.2c-3.9-4.1-9.2-6.1-16-6.1h-5.6v.3c8,5,12,12.4,12,22.2s-3.2,16.3-9.6,21.6c-6.4,5.3-15,8-25.7,8s-21.6-3-28.7-8.9c-7.1-5.9-10.6-13.7-10.6-23.4s3.3-15.2,10-19.5v-.3h-8.3V3.2h63ZM72.9,24.9h-5.6c-4.5,0-8.3,1.3-11.5,4-3.2,2.7-4.8,6.1-4.8,10.4s1.9,8.7,5.7,11.5c3.8,2.8,9.2,4.2,16.1,4.2s10.6-1.3,14.1-4c3.5-2.6,5.2-6.3,5.2-10.8s-1.7-8.2-5.2-11c-3.5-2.8-8.1-4.2-13.9-4.2Z"/>
</svg>