<svg xmlns="http://www.w3.org/2000/svg" width="23.108" height="21.463" viewBox="0 0 23.108 21.463">
  <g id="noun-analytics-data-1737807" transform="translate(-25.827 -27.56)">
    <path id="Path_248101" data-name="Path 248101" d="M46.915,27.71h-.883a.285.285,0,0,0-.285.285v1.3H27.915a1.94,1.94,0,0,0-1.938,1.938v15.7a1.94,1.94,0,0,0,1.938,1.938H46.847a1.934,1.934,0,0,0,1.924-1.8A.274.274,0,0,0,48.785,47V29.58a1.872,1.872,0,0,0-1.87-1.87Zm-19,20.593a1.37,1.37,0,0,1-1.368-1.368v-15.7a1.37,1.37,0,0,1,1.368-1.368H45.747V45.417a.285.285,0,0,0,.285.285h.883a1.3,1.3,0,0,1,1.3,1.267A1.368,1.368,0,0,1,46.847,48.3Zm19-20.023a1.3,1.3,0,0,1,1.3,1.3V45.66a1.864,1.864,0,0,0-1.3-.528h-.6V28.28Z" stroke="#000" stroke-width="0.3"/>
    <path id="Path_248102" data-name="Path 248102" d="M33.786,52.22H35.91a.285.285,0,1,0,0-.57H33.786a.285.285,0,1,0,0,.57Z" transform="translate(-3.952 -12.575)" stroke="#000" stroke-width="0.3"/>
    <path id="Path_248103" data-name="Path 248103" d="M46.3,51.7h-.724v-7.3a.285.285,0,0,0-.285-.285H43.172a.285.285,0,0,0-.285.285v7.3H40.33V41.122a.285.285,0,0,0-.285-.285H37.921a.285.285,0,0,0-.285.285V51.7H35.079V47.768a.285.285,0,0,0-.285-.285H32.67a.285.285,0,0,0-.285.285V51.7h-.724a.285.285,0,1,0,0,.57H46.3a.285.285,0,1,0,0-.57Zm-2.848-7.017h1.554V51.7H43.457Zm-5.251-3.272H39.76V51.7H38.206Zm-5.251,6.646h1.554V51.7H32.955Z" transform="translate(-2.836 -6.896)" stroke="#000" stroke-width="0.3"/>
  </g>
</svg>
