<svg xmlns="http://www.w3.org/2000/svg" width="15.671" height="21.46" viewBox="0 0 15.671 21.46">
  <g id="noun-application-development-1215302" transform="translate(152.771 -81.292)">
    <g id="Group_42859" data-name="Group 42859" transform="translate(-170 76.442)">
      <path id="Path_248111" data-name="Path 248111" d="M45.768,83.3H42.735a.222.222,0,0,0-.235.235.236.236,0,0,0,.235.235h3.033a.235.235,0,0,0,0-.47Z" transform="translate(-19.199 -59.891)" stroke="#000" stroke-width="0.3"/>
      <path id="Path_248112" data-name="Path 248112" d="M32.659,14.475l-1.387-1.387v-5.5A2.579,2.579,0,0,0,28.685,5H21.42a2.579,2.579,0,0,0-2.586,2.586v5.525l-1.364,1.364a.227.227,0,0,0,0,.329l1.387,1.387v7.147a2.83,2.83,0,0,0,2.821,2.821h6.795A2.83,2.83,0,0,0,31.3,23.339V16.168L32.659,14.8A.227.227,0,0,0,32.659,14.475ZM19.3,7.586A2.107,2.107,0,0,1,21.42,5.47h7.265A2.107,2.107,0,0,1,30.8,7.586v.4H19.3Zm9.169,18.1H21.656A2.358,2.358,0,0,1,19.3,23.339V21.6H30.8v1.74h.024A2.358,2.358,0,0,1,28.474,25.69Zm-.047-7.312a.233.233,0,1,0,.306.353l.024-.024,2.069-2.069v4.491H19.3V16.662l2.045,2.045a.227.227,0,0,0,.329-.024.247.247,0,0,0,0-.306L17.964,14.64,21.7,10.9a.227.227,0,0,0-.024-.329.247.247,0,0,0-.306,0L19.3,12.641V8.456H30.8v4.161l-2.045-2.045a.227.227,0,0,0-.329.024.247.247,0,0,0,0,.306l3.738,3.738Z" transform="translate(0 0)" stroke="#000" stroke-width="0.3"/>
    </g>
  </g>
</svg>
