<svg xmlns="http://www.w3.org/2000/svg" width="770.366" height="129.373" viewBox="0 0 770.366 129.373">
  <path id="build_better_software." data-name="build  better software." d="M42.77-13.26q2.34,0,2.34,1.43,0,1.56-2.86,2.73-1.17.78-10.92,2.73-6.76,1.56-8.385,2.145A5.033,5.033,0,0,0,20.54-2.6a41.9,41.9,0,0,1-5.33,5.785A60.689,60.689,0,0,1,9.1,8.45a11.021,11.021,0,0,1-4.16,1.82A2.4,2.4,0,0,1,2.6,8.84a3.623,3.623,0,0,1-.26-3.51A20.9,20.9,0,0,1,6.37.13a29.571,29.571,0,0,1,8.19-6.24,20.071,20.071,0,0,0,4.03-2.6,14.007,14.007,0,0,0,2.21-3.9,20.856,20.856,0,0,0,1.755-4.42,14.479,14.479,0,0,0,.585-3.445q0-1.235-.52-1.365-1.56,0-5,2.47a47.381,47.381,0,0,0-6.565,5.72A72.031,72.031,0,0,0-1.95,5.2q-2.6,5.85-4.94,3.9a2.393,2.393,0,0,1-.78-1.95,25.967,25.967,0,0,1,1.5-3.9Q-4.68-.26-1.755-6.435T4.29-18.85Q29.12-69.42,33.735-78.065T40.43-87.23l.13-.13a2.521,2.521,0,0,1,2.145.195,1.717,1.717,0,0,1,1.1,1.5q0,.65-2.47,4.03a59.113,59.113,0,0,0-3.12,5.135q-2.08,3.705-5.265,10.14T26.78-53.755q-2.99,6.175-7.735,15.99T10.79-21.06l2.86-1.95q8.97-6.5,12.87-2.6a4.074,4.074,0,0,1,1.3,1.755,11.262,11.262,0,0,1,.26,2.925,17.942,17.942,0,0,1-.715,4.875q-.715,2.535-1.235,3.9t-.39,1.625q.13.13,1.56-.13t3.575-.715q2.145-.455,4.42-.845t4.42-.715A23.5,23.5,0,0,1,42.77-13.26Zm40.3,2.08q5.46-3.12,5.85-.52.26,1.82-3.51,4.42A38.15,38.15,0,0,1,76.18-2.8,29.758,29.758,0,0,1,66.69-.91a8.184,8.184,0,0,1-4.355-1.235A7.575,7.575,0,0,1,59.41-5.2q-.91-1.82-1.3-1.82-.13,0-4.03,2.34Q47.84-.78,45.37-.065A3.807,3.807,0,0,1,41.34-.91q-1.82-2.21-.195-7.215t4.225-5.4a1.858,1.858,0,0,1,1.82.585,2.18,2.18,0,0,1,.325,1.755q-.2,1.04-.52,2.21t-.65,2.08q-.325.91-.065,1.17.65,0,5.33-2.99,4.68-3.12,7.085-3.445A3.667,3.667,0,0,1,62.53-10.01a35.787,35.787,0,0,0,2.08,2.99A3.959,3.959,0,0,0,66.3-5.85a3.171,3.171,0,0,0,2.34-.13A48.02,48.02,0,0,0,83.07-11.18Zm26.39,2.34q8.19-5.59,8.97-3.12a3.382,3.382,0,0,1,.13,1.04,3.258,3.258,0,0,1-1.43,2.47q-1.43,1.17-8.71,5.85Q96.98,4.55,91,6.5t-8.84-.52a5.872,5.872,0,0,1-1.885-3.445A11.381,11.381,0,0,1,81.25-2.34a24.782,24.782,0,0,1,4.355-8.9q2.8-3.445,4.615-2.4,2.08,1.56-.39,4.55A35.2,35.2,0,0,0,86.9-3.7,13.724,13.724,0,0,0,85.41,1.17q0,1.43,1.04,1.625T90.87,1.69A140.649,140.649,0,0,0,109.46-8.84ZM93.86-19.11a4.678,4.678,0,0,1-1.43-.78,2.221,2.221,0,0,1-.65-2.145,3.079,3.079,0,0,1,1.56-2.015q4.94-2.47,6.89-.78.91.91-.39,2.21a5.453,5.453,0,0,1-1.69,1.495,21.777,21.777,0,0,1-2.535,1.43A4.965,4.965,0,0,1,93.86-19.11Zm62.92-73.71q1.69,1.43-.78,4.94-2.86,4.16-11.245,21.775t-16.12,36.66Q120.9-10.4,120.9-5.07q0,3.51,2.47,4.29T130-2.08a70.333,70.333,0,0,0,7.28-4.29q4.81-3.12,7.67-5.2,3.25-2.34,4.03-.65,1.04,2.21-5.33,7.41-1.95,1.56-4.42,3.25a47.085,47.085,0,0,1-10.855,5.59A10.482,10.482,0,0,1,120.9,3.9,8.534,8.534,0,0,1,117.26.455q-.91-1.885-.78-6.305a30.333,30.333,0,0,1,.455-5.785,64.73,64.73,0,0,1,2.015-6.955q4.68-13.91,17.68-42.055T153.01-92.56Q154.96-94.51,156.78-92.82Zm31.46,78.91q1.04.39,1.17,1.04t-.845,2.015a39.6,39.6,0,0,1-2.73,3.315q-1.755,1.95-5.265,5.46Q170.3,7.8,165.685,11.765a41.465,41.465,0,0,1-7.995,5.655,8.151,8.151,0,0,1-3.705,1.1,4.57,4.57,0,0,1-2.795-1.365,5.129,5.129,0,0,1-1.43-3.25q0-4.94,10.53-27.95-1.43,1.3-5.655,5.59t-6.89,6.76a40.581,40.581,0,0,1-6.37,4.745A12.84,12.84,0,0,1,134.94,5.33q-3.25,0-4.1-2.21t1.365-5.2q2.34-3.38,8.06-6.89t9.49-3.9a8.435,8.435,0,0,0,3.38-.91,18.059,18.059,0,0,0,3.38-3.64,275.929,275.929,0,0,0,23.27-31.85q10.53-17.29,13-17.55a2.914,2.914,0,0,1,2.145.52,2.306,2.306,0,0,1,.845,1.95q0,2.6-11.7,18.98Q176.8-35.1,166.53-14.82T155.35,11.44l-.39,2.21q.26-.13,2.21-1.43a65.37,65.37,0,0,0,5.655-4.485Q166.53,4.55,173.29-1.95q8.45-8.06,11.115-10.205T188.24-13.91ZM144.95-5.33l.26-.26.52-.52a3.62,3.62,0,0,0-.78.26l-1.43.78q-5.07,2.6-6.11,4.16-.13.39.13.39Q138.97-.52,144.95-5.33Zm149.24-7.93q2.34,0,2.34,1.43,0,1.56-2.86,2.73-1.17.78-10.92,2.73-6.76,1.56-8.385,2.145a5.033,5.033,0,0,0-2.4,1.625,41.9,41.9,0,0,1-5.33,5.785,60.687,60.687,0,0,1-6.11,5.265,11.02,11.02,0,0,1-4.16,1.82,2.4,2.4,0,0,1-2.34-1.43,3.623,3.623,0,0,1-.26-3.51,20.9,20.9,0,0,1,4.03-5.2,29.571,29.571,0,0,1,8.19-6.24,20.071,20.071,0,0,0,4.03-2.6,14.007,14.007,0,0,0,2.21-3.9,20.856,20.856,0,0,0,1.755-4.42,14.48,14.48,0,0,0,.585-3.445q0-1.235-.52-1.365-1.56,0-5.005,2.47a47.381,47.381,0,0,0-6.565,5.72,72.031,72.031,0,0,0-13,18.85q-2.6,5.85-4.94,3.9a2.393,2.393,0,0,1-.78-1.95,25.968,25.968,0,0,1,1.495-3.9q1.5-3.51,4.42-9.685T255.71-18.85q24.83-50.57,29.445-59.215t6.7-9.165l.13-.13a2.521,2.521,0,0,1,2.145.195,1.717,1.717,0,0,1,1.105,1.5q0,.65-2.47,4.03a59.112,59.112,0,0,0-3.12,5.135q-2.08,3.705-5.265,10.14T278.2-53.755q-2.99,6.175-7.735,15.99t-8.255,16.7l2.86-1.95q8.97-6.5,12.87-2.6a4.074,4.074,0,0,1,1.3,1.755,11.261,11.261,0,0,1,.26,2.925,17.943,17.943,0,0,1-.715,4.875q-.715,2.535-1.235,3.9t-.39,1.625q.13.13,1.56-.13t3.575-.715q2.145-.455,4.42-.845t4.42-.715A23.5,23.5,0,0,1,294.19-13.26Zm34.32.78q1.3,1.17.26,2.34a34.472,34.472,0,0,1-5.72,4.16A105.985,105.985,0,0,1,300.365,5.46Q290.03,8.97,285.61,7.41a8.677,8.677,0,0,1-2.47-1.69q-2.47-2.21-1.365-6.24t5.655-8.06q6.5-6.37,11.96-6.24,3.77,0,3.77,3.51,0,2.08-2.925,5.135a24.585,24.585,0,0,1-6.825,5A8.694,8.694,0,0,1,290.42.065,2.279,2.279,0,0,1,288.6-.91q-.78-.52-1.04-.39T286.91.13q-.78,1.95,0,2.405t3.77.065q8.45-.78,22.1-8.32,11.05-6.11,13.13-7.02T328.51-12.48ZM294.84-8.32a10.376,10.376,0,0,0-1.1.65,10.822,10.822,0,0,0-1.04.78q-.455.39-.845.715a1.245,1.245,0,0,1-.52.325l1.3-.52a15.25,15.25,0,0,0,3.51-2.47ZM425.1-47.19q.91,1.43-.39,1.82-2.73.78-42.77.65H349.31q-.52,1.17-6.5,12.155t-10.27,19.5A114.911,114.911,0,0,0,326.56.39q-.78,2.6-1.235,4.55A14.382,14.382,0,0,0,324.87,8q0,1.1.52,1.105,1.3,0,5.655-4.03a121.806,121.806,0,0,0,9.3-9.75q7.8-8.71,9.23-8.32.52.13.78,1.04.78,2.34-6.89,11.31-15.6,18.85-21.84,13.26a3.656,3.656,0,0,1-1.04-1.235,3.946,3.946,0,0,1-.325-1.17q-.065-.585-.065-2.405,0-4.68,3.315-12.61T335.79-29.38q7.8-14.69,7.8-15.34,0-.52-11.7-.52H308.035q-12.155,0-12.935-.65-.52-.26-.52-1.69.39-1.95,4.55-2.34t24.83-.39h22.62q.13-.13,1.365-2.47t3.25-5.98q2.015-3.64,4.355-7.8t4.81-8.45q2.47-4.29,4.29-7.15a11.949,11.949,0,0,1,1.95-2.6,2.167,2.167,0,0,1,1.69-.39,3.089,3.089,0,0,1,1.69.715q.39.455.065,1.755a15.063,15.063,0,0,1-1.365,3.25q-1.04,1.95-3.12,5.59-4.29,7.41-7.28,12.805t-4.29,8.06q-1.3,2.665-.91,2.795.39.26,32.11.78,25.87.39,32.5.715T425.1-47.19Zm21.06,0q.91,1.43-.39,1.82-2.73.78-42.77.65H370.37q-.52,1.17-6.5,12.155t-10.27,19.5A114.911,114.911,0,0,0,347.62.39q-.78,2.6-1.235,4.55A14.382,14.382,0,0,0,345.93,8q0,1.1.52,1.105,1.3,0,5.655-4.03a121.806,121.806,0,0,0,9.3-9.75q7.8-8.71,9.23-8.32.52.13.78,1.04.78,2.34-6.89,11.31-15.6,18.85-21.84,13.26a3.656,3.656,0,0,1-1.04-1.235,3.946,3.946,0,0,1-.325-1.17q-.065-.585-.065-2.405,0-4.68,3.315-12.61T356.85-29.38q7.8-14.69,7.8-15.34,0-.52-11.7-.52H329.1q-12.155,0-12.935-.65-.52-.26-.52-1.69.39-1.95,4.55-2.34t24.83-.39h22.62q.13-.13,1.365-2.47t3.25-5.98q2.015-3.64,4.355-7.8t4.81-8.45q2.47-4.29,4.29-7.15a11.949,11.949,0,0,1,1.95-2.6,2.167,2.167,0,0,1,1.69-.39,3.089,3.089,0,0,1,1.69.715q.39.455.065,1.755a15.063,15.063,0,0,1-1.365,3.25q-1.04,1.95-3.12,5.59-4.29,7.41-7.28,12.805t-4.29,8.06q-1.3,2.665-.91,2.795.39.26,32.11.78,25.87.39,32.5.715T446.16-47.19Zm-40.3,34.71q1.3,1.17.26,2.34a34.471,34.471,0,0,1-5.72,4.16A105.985,105.985,0,0,1,377.715,5.46Q367.38,8.97,362.96,7.41a8.677,8.677,0,0,1-2.47-1.69q-2.47-2.21-1.365-6.24t5.655-8.06q6.5-6.37,11.96-6.24,3.77,0,3.77,3.51,0,2.08-2.925,5.135a24.585,24.585,0,0,1-6.825,5A8.694,8.694,0,0,1,367.77.065a2.279,2.279,0,0,1-1.82-.975q-.78-.52-1.04-.39T364.26.13q-.78,1.95,0,2.405t3.77.065q8.45-.78,22.1-8.32,11.05-6.11,13.13-7.02T405.86-12.48ZM372.19-8.32a10.376,10.376,0,0,0-1.1.65,10.822,10.822,0,0,0-1.04.78q-.455.39-.845.715a1.245,1.245,0,0,1-.52.325l1.3-.52a15.25,15.25,0,0,0,3.51-2.47Zm62.92-.78q10.92-5.46,12.09-4.42a1.589,1.589,0,0,1,.39,1.17q0,1.3-3.12,3.315T433.68-3.12a83.147,83.147,0,0,1-11.9,4.875,10.626,10.626,0,0,1-6.435.195,3.716,3.716,0,0,1-2.275-2.665,6.122,6.122,0,0,1,.585-4.095,8.5,8.5,0,0,0,.52-.91l.39-.78.13-.26q0-.52-2.47,0A11.987,11.987,0,0,1,408-6.955,5.461,5.461,0,0,1,405.21-8.58a3.756,3.756,0,0,1-.78-1.755,9.419,9.419,0,0,1,.78-2.535,8.3,8.3,0,0,1,3.64-4.745q2.34-1.235,3.51.845a1.133,1.133,0,0,1,.325.585.892.892,0,0,1-.13.65q-.2.325-.52.845a4.768,4.768,0,0,1-.65.845,12.459,12.459,0,0,0-.845.975,12.882,12.882,0,0,1-.91,1.04q2.47.39,8.84-1.04,4.68-1.17,6.24-.975a2.046,2.046,0,0,1,1.82,2.015q.13,1.04-2.08,2.99a27.431,27.431,0,0,0-2.34,1.755q-1.17.975-2.015,1.82A18.748,18.748,0,0,0,418.73-3.77a1.994,1.994,0,0,0-.52.91q0,.65,1.95.26a24.313,24.313,0,0,0,4.55-1.5Q426.92-5.07,435.11-9.1Zm46.67,8.06q17.94-10.66,23.14-11.7,3.51-.65,2.6,2.21-.26.52-3.445,2.34t-8.45,4.745Q490.36-.52,487.24,1.43l-5.33,3.25V8.45q0,5.59-2.925,8.19t-7.085.52q-3.25-1.69-3.77-4.29t1.82-5.2a27.567,27.567,0,0,1,6.24-5.2V-6.7a6.216,6.216,0,0,1,.195-1.82q.2-.585.455-1.3a14.229,14.229,0,0,1,.65-1.495,7.523,7.523,0,0,1,3.445-2.665,5.371,5.371,0,0,1,4.1-.065q2.34.91,1.95,2.8T483.99-9.36a2.187,2.187,0,0,0-2.21,1.1,10.533,10.533,0,0,0-.26,4.485Zm-8.06,13.65q1.43,1.04,2.34,0a3.627,3.627,0,0,0,.91-2.47V8.45q0-.65-2.34,1.43a2.787,2.787,0,0,1-.52.65,4.433,4.433,0,0,0-.975,1.17Q473.07,11.96,473.72,12.61Zm66.3-25.48a1.715,1.715,0,0,1,1.495,1.04,2.12,2.12,0,0,1,.2,1.95q-.26,1.3-2.535,2.405A88.1,88.1,0,0,1,530.92-4.29a38.447,38.447,0,0,1-9.36,1.95q-4.16.26-6.175.39A5.709,5.709,0,0,0,511.81-.39a23.191,23.191,0,0,1-4.875,3.055,11.941,11.941,0,0,1-4.745,1.5,4.2,4.2,0,0,1-3.12-1.56,4.663,4.663,0,0,1-.975-5q.975-2.925,4.875-7.735a20.279,20.279,0,0,1,5.005-3.965,6.26,6.26,0,0,1,4.225-.975q1.69.26,3.315,2.6t1.235,3.64q-.39,1.43.52,1.82a15.431,15.431,0,0,0,3.64-.325q2.86-.455,6.565-1.43a53.163,53.163,0,0,0,6.565-2.145Q539.76-12.87,540.02-12.87ZM507.26-3.12a8.092,8.092,0,0,0,1.625-1.56,2.1,2.1,0,0,0,.455-.91,5.477,5.477,0,0,0-.13-.91,6.027,6.027,0,0,1-.13-1.17q0-2.34-4.29,2.99a10.514,10.514,0,0,0-1.82,2.73Q502.97-.13,507.26-3.12Zm58.89-40.3a1.99,1.99,0,0,0-1.365.52,16.208,16.208,0,0,0-2.08,3.12q-1.495,2.6-3.445,6.565T553.41-20.93q-3.64,7.93-3.835,9.3T550.94-8.06q.39-.13,1.755-.65l2.73-1.04q1.365-.52,3.12-1.1t3.12-.975q1.365-.39,2.535-.65a3.576,3.576,0,0,1,1.56-.13,1.617,1.617,0,0,1,1.1,1.82,3.2,3.2,0,0,1-1.495,2.47,58.588,58.588,0,0,1-7.215,2.925Q552.24-3.25,551.2-3.25t-2.34,2.08q-2.73,5.46-11.115,14.56T528.19,24.18q-5.85,7.93-9.295,10.335t-5.785.195q-1.43-1.56.39-4.225t8.19-8.125a47.324,47.324,0,0,0,8.06-8.45q.65-1.17,2.145-3.64l2.99-4.94Q536.38,2.86,537.55.845A19.072,19.072,0,0,0,538.72-1.3a11.566,11.566,0,0,0-2.47-1.04,7.019,7.019,0,0,1-3.64-2.34,3.1,3.1,0,0,1-.455-1.56,4.512,4.512,0,0,1,.715-1.56,8.843,8.843,0,0,1,2.275-2.015,21.71,21.71,0,0,1,3.315-1.755,14.874,14.874,0,0,1,3.38-1.04,4.393,4.393,0,0,0,2.665-1.3,48.78,48.78,0,0,0,3.185-6.24q8.45-17.68,11.765-23.4t5.525-6.37a3.133,3.133,0,0,1,3.575,1.56,2.884,2.884,0,0,1-.065,3.77A3.723,3.723,0,0,1,566.15-43.42Zm96.33-3.77q.91,1.43-.39,1.82-2.73.78-42.77.65H586.69q-.52,1.17-6.5,12.155t-10.27,19.5A114.9,114.9,0,0,0,563.94.39q-.78,2.6-1.235,4.55A14.381,14.381,0,0,0,562.25,8q0,1.1.52,1.105,1.3,0,5.655-4.03a121.8,121.8,0,0,0,9.3-9.75q7.8-8.71,9.23-8.32.52.13.78,1.04.78,2.34-6.89,11.31Q565.24,18.2,559,12.61a3.657,3.657,0,0,1-1.04-1.235,3.946,3.946,0,0,1-.325-1.17q-.065-.585-.065-2.405,0-4.68,3.315-12.61T573.17-29.38q7.8-14.69,7.8-15.34,0-.52-11.7-.52H545.415q-12.155,0-12.935-.65-.52-.26-.52-1.69.39-1.95,4.55-2.34t24.83-.39h22.62q.13-.13,1.365-2.47t3.25-5.98q2.015-3.64,4.355-7.8t4.81-8.45q2.47-4.29,4.29-7.15a11.947,11.947,0,0,1,1.95-2.6,2.167,2.167,0,0,1,1.69-.39,3.088,3.088,0,0,1,1.69.715q.39.455.065,1.755a15.058,15.058,0,0,1-1.365,3.25q-1.04,1.95-3.12,5.59-4.29,7.41-7.28,12.805t-4.29,8.06q-1.3,2.665-.91,2.795.39.26,32.11.78,25.87.39,32.5.715T662.48-47.19ZM628.29-11.05q8.45-2.86,8.97-.65a1.617,1.617,0,0,1,0,.91q0,1.69-2.99,2.99A55.752,55.752,0,0,1,624-4.55q-7.02,1.69-9.88,1.56a8.383,8.383,0,0,0-3.38.065A9.507,9.507,0,0,0,608.53-.52a28.091,28.091,0,0,1-4.42,4.03,11.891,11.891,0,0,1-4.29,2.21,4.428,4.428,0,0,1-3.9-1.235A4.988,4.988,0,0,1,594.1.65V-1.56a10.525,10.525,0,0,0-1.495,1.5Q591.37,1.3,589.875,2.8L586.82,5.85q-1.56,1.56-2.665,2.6T582.79,9.49a3.5,3.5,0,0,0-1.105.2,3.5,3.5,0,0,1-1.1.195,3.066,3.066,0,0,1-1.3-.39q-.65-.52-1.04-.845t-.13-.455q-1.3-2.08,1.43-9.88T585.52-13q1.56-1.82,2.34-1.95t1.95,1.17q.78.91.715,1.365a4.7,4.7,0,0,1-.975,1.625,46.362,46.362,0,0,0-2.34,4.03q-1.3,2.47-2.145,4.55t-1.56,3.9l-.715,1.82q1.95-2.21,8.125-8.515t6.955-6.3a2.649,2.649,0,0,1,.91.195,4.221,4.221,0,0,1,.975.52,3.332,3.332,0,0,1,.78.78,1.406,1.406,0,0,1,.325.715,17.063,17.063,0,0,1-.585,2.99q-.585,2.34-.975,4.355A7.035,7.035,0,0,0,599.04.52q.39.39,2.08-.715a14.153,14.153,0,0,0,3.315-3.185,6.487,6.487,0,0,0,1.625-3.9,4.7,4.7,0,0,1,2.47-4.55,2.268,2.268,0,0,1,2.34,0,2.1,2.1,0,0,1,1.17,1.95,1.712,1.712,0,0,0,1.3,1.82Q616.72-7.15,628.29-11.05Zm52-1.04q.52,1.17-2.535,3.77A29.731,29.731,0,0,1,670.67-3.9a27.6,27.6,0,0,1-6.435,2.47q-3.575.91-4.745.52a6.464,6.464,0,0,1-1.1-.195,9.2,9.2,0,0,1-1.17-.325q-.325-.13-1.1-.455a8.9,8.9,0,0,1-1.625-.91q-.845-.585-2.015-1.495a1.472,1.472,0,0,0-.52-.52q-2.08-1.82-3.575-1.625T639.99-2.99q-.65.26-1.04.39a31.162,31.162,0,0,1-6.89,2.535,4.525,4.525,0,0,1-3.77-1.1q-1.56-1.56-.39-3.965t5.59-6.695q9.88-9.1,13.52-4.94,1.17,1.04.52,2.015a4.48,4.48,0,0,1-2.73,1.495,7.772,7.772,0,0,0-2.665.91,19.668,19.668,0,0,0-2.925,1.885,25.851,25.851,0,0,0-2.47,2.145q-.78,1.04-.52,1.04.39-.13,6.11-2.6,4.94-2.21,6.825-2.08t4.875,2.6q3.64,3.38,6.7,3.315t10.6-3.835a46.588,46.588,0,0,1,6.955-2.99Q679.9-13.26,680.29-12.09Zm28.6,2.99q10.92-5.46,12.09-4.42a1.589,1.589,0,0,1,.39,1.17q0,1.3-3.12,3.315T707.46-3.12a83.147,83.147,0,0,1-11.9,4.875,10.626,10.626,0,0,1-6.435.195,3.716,3.716,0,0,1-2.275-2.665,6.122,6.122,0,0,1,.585-4.095,8.5,8.5,0,0,0,.52-.91l.39-.78.13-.26q0-.52-2.47,0a11.987,11.987,0,0,1-4.225-.195,5.461,5.461,0,0,1-2.8-1.625,3.756,3.756,0,0,1-.78-1.755,9.419,9.419,0,0,1,.78-2.535,8.3,8.3,0,0,1,3.64-4.745q2.34-1.235,3.51.845a1.133,1.133,0,0,1,.325.585.892.892,0,0,1-.13.65q-.2.325-.52.845a4.772,4.772,0,0,1-.65.845,12.451,12.451,0,0,0-.845.975,12.9,12.9,0,0,1-.91,1.04q2.47.39,8.84-1.04,4.68-1.17,6.24-.975a2.046,2.046,0,0,1,1.82,2.015q.13,1.04-2.08,2.99a27.421,27.421,0,0,0-2.34,1.755q-1.17.975-2.015,1.82A18.753,18.753,0,0,0,692.51-3.77a1.994,1.994,0,0,0-.52.91q0,.65,1.95.26a24.314,24.314,0,0,0,4.55-1.5Q700.7-5.07,708.89-9.1Zm44.46-3.38q1.3,1.17.26,2.34a34.474,34.474,0,0,1-5.72,4.16A105.985,105.985,0,0,1,725.2,5.46Q714.87,8.97,710.45,7.41a8.678,8.678,0,0,1-2.47-1.69q-2.47-2.21-1.365-6.24t5.655-8.06q6.5-6.37,11.96-6.24,3.77,0,3.77,3.51,0,2.08-2.925,5.135a24.585,24.585,0,0,1-6.825,5A8.694,8.694,0,0,1,715.26.065a2.279,2.279,0,0,1-1.82-.975q-.78-.52-1.04-.39T711.75.13q-.78,1.95,0,2.405t3.77.065q8.45-.78,22.1-8.32,11.05-6.11,13.13-7.02T753.35-12.48ZM719.68-8.32a10.377,10.377,0,0,0-1.105.65,10.832,10.832,0,0,0-1.04.78q-.455.39-.845.715a1.246,1.246,0,0,1-.52.325l1.3-.52a15.25,15.25,0,0,0,3.51-2.47Zm42.9,4.29a1.538,1.538,0,0,1-.065,1.3,3.52,3.52,0,0,1-.91,1.3,1.653,1.653,0,0,1-.975.52,5.2,5.2,0,0,1-1.56-1.17,2.221,2.221,0,0,1-.78-1.885,1.673,1.673,0,0,1,1.3-1.365A2.063,2.063,0,0,1,762.58-4.03Z" transform="translate(7.67 93.605)" fill="#231f20"/>
</svg>
