<svg xmlns="http://www.w3.org/2000/svg" width="25.839" height="24.762" viewBox="0 0 25.839 24.762">
  <g id="noun-cloud-computing-8047046" transform="translate(-12.166 -13.759)">
    <path id="Path_248115" data-name="Path 248115" d="M32.581,31.235H30.789a.331.331,0,0,1-.331-.331.326.326,0,0,1,.331-.331h1.792a4.63,4.63,0,0,0,.007-9.26H31.043a.331.331,0,0,1-.331-.331V19.824A5.276,5.276,0,0,0,20.2,19.209a.328.328,0,0,1-.324.29H18.507a5.537,5.537,0,1,0,0,11.075h2.02a.331.331,0,0,1,.331.331.326.326,0,0,1-.331.331h-2.02a6.191,6.191,0,1,1,0-12.383H19.59a5.925,5.925,0,0,1,11.77.978v.827h1.214a5.285,5.285,0,0,1,3.737,9.019,5.211,5.211,0,0,1-3.73,1.558Z" stroke="#000" stroke-width="0.3" fill-rule="evenodd"/>
    <path id="Path_248116" data-name="Path 248116" d="M49.6,64.5a.331.331,0,0,1-.331-.331V57.741a.331.331,0,0,1,.331-.331.326.326,0,0,1,.331.331v6.426A.335.335,0,0,1,49.6,64.5Z" transform="translate(-24.431 -28.759)" stroke="#000" stroke-width="0.3" fill-rule="evenodd"/>
    <path id="Path_248117" data-name="Path 248117" d="M47.044,79.689a1.641,1.641,0,1,1,1.641-1.641A1.645,1.645,0,0,1,47.044,79.689Zm0-2.634a.986.986,0,1,0,.986.986A.986.986,0,0,0,47.044,77.055Z" transform="translate(-21.874 -41.318)" stroke="#000" stroke-width="0.3" fill-rule="evenodd"/>
    <path id="Path_248118" data-name="Path 248118" d="M60.5,63.094a.351.351,0,0,1-.234-.1l-1.379-1.386a.323.323,0,0,1-.1-.228V57.757a.331.331,0,0,1,.331-.331.326.326,0,0,1,.331.331v3.489l1.283,1.289a.326.326,0,0,1,0,.462.351.351,0,0,1-.234.1Z" transform="translate(-30.724 -28.77)" stroke="#000" stroke-width="0.3" fill-rule="evenodd"/>
    <path id="Path_248119" data-name="Path 248119" d="M35.989,63.277a.317.317,0,0,1-.228-.09.327.327,0,0,1-.013-.462l1.407-1.476v-3.5a.331.331,0,0,1,.331-.331.326.326,0,0,1,.331.331v3.621a.347.347,0,0,1-.09.228l-1.5,1.573a.333.333,0,0,1-.241.1Z" transform="translate(-15.432 -28.767)" stroke="#000" stroke-width="0.3" fill-rule="evenodd"/>
    <path id="Path_248120" data-name="Path 248120" d="M30.216,74.337A1.641,1.641,0,1,1,31.857,72.7,1.645,1.645,0,0,1,30.216,74.337Zm0-2.628a.986.986,0,1,0,.986.986A.986.986,0,0,0,30.216,71.71Z" transform="translate(-10.749 -37.78)" stroke="#000" stroke-width="0.3" fill-rule="evenodd"/>
    <path id="Path_248121" data-name="Path 248121" d="M63.4,74.337A1.641,1.641,0,1,1,65.041,72.7,1.645,1.645,0,0,1,63.4,74.337Zm0-2.628a.986.986,0,1,0,.986.986A.986.986,0,0,0,63.4,71.71Z" transform="translate(-32.687 -37.78)" stroke="#000" stroke-width="0.3" fill-rule="evenodd"/>
  </g>
</svg>
