<svg xmlns="http://www.w3.org/2000/svg" width="24.562" height="21.819" viewBox="0 0 24.562 21.819">
  <g id="noun-create-graphics-4304430" transform="translate(-2.33 -7.73)">
    <g id="Group_42860" data-name="Group 42860" transform="translate(2.48 7.88)">
      <path id="Path_248113" data-name="Path 248113" d="M25.46,7.88H3.757A1.277,1.277,0,0,0,2.48,9.157v15.46a1.277,1.277,0,0,0,1.277,1.277h10.6v3H6.085a.255.255,0,1,0,0,.511H23.141a.255.255,0,1,0,0-.511H14.869V25.9h10.6a1.277,1.277,0,0,0,1.277-1.277V9.162A1.277,1.277,0,0,0,25.46,7.88Zm.781,16.737a.784.784,0,0,1-.781.784H3.757a.784.784,0,0,1-.781-.784V9.162a.781.781,0,0,1,.792-.781h21.7a.781.781,0,0,1,.781.781Z" transform="translate(-2.48 -7.88)" stroke="#000" stroke-width="0.3"/>
      <path id="Path_248114" data-name="Path 248114" d="M35.8,19.727a.725.725,0,0,0-1.021,0l-.672.679a.728.728,0,0,0-.166.255.551.551,0,0,0-.419.023l-5.679,2.53c-.1.046-.623.3-.623.7v6.416a.249.249,0,0,0,.426.176l2.98-2.977a.255.255,0,0,0,.049-.283,1.154,1.154,0,0,1-.115-.511,1.167,1.167,0,1,1,.666,1.072.255.255,0,0,0-.286.049l-2.977,2.967a.255.255,0,0,0,.176.426h6.429c.4,0,.654-.511.7-.62l2.518-5.673a.682.682,0,0,0-.028-.511.7.7,0,0,0,.212-.146l.684-.679a.728.728,0,0,0,0-1.021Zm1.532,5.045-2.507,5.656a.792.792,0,0,1-.255.324H28.744l2.433-2.431a1.616,1.616,0,0,0,.552.094,1.67,1.67,0,1,0-1.67-1.67,1.7,1.7,0,0,0,.094.554L27.72,29.733V23.909c.013-.059.179-.184.324-.255l5.689-2.523a.046.046,0,0,1,.061,0l.613.613,2.911,2.911a.169.169,0,0,1,0,.117Zm.965-1.5-.669.672a.225.225,0,0,1-.317,0,.061.061,0,0,0-.02-.015l-2.52-2.518-.24-.255a.255.255,0,0,0-.059-.1.222.222,0,0,1,0-.314l.669-.669a.222.222,0,0,1,.317,0l2.829,2.89a.225.225,0,0,1,0,.309Z" transform="translate(-20.903 -16.545)" stroke="#000" stroke-width="0.3"/>
    </g>
  </g>
</svg>
