<svg xmlns="http://www.w3.org/2000/svg" width="23.877" height="23.162" viewBox="0 0 23.877 23.162">
  <g id="noun-bot-development-7188304" transform="translate(-3.736 -5.131)">
    <path id="Path_248124" data-name="Path 248124" d="M15.675,23.19h5.987a2.312,2.312,0,0,0,2.305-2.305V14.659a2.312,2.312,0,0,0-2.305-2.305H9.688a2.312,2.312,0,0,0-2.305,2.305v6.226A2.312,2.312,0,0,0,9.688,23.19a.329.329,0,0,1,.329.329.262.262,0,0,1,0,.028l.012,3.677,5.455-3.97a.329.329,0,0,1,.192-.063Zm-8.921-1.9H5.61a1.778,1.778,0,0,1-1.774-1.774V16.1A1.778,1.778,0,0,1,5.61,14.329H6.744a2.973,2.973,0,0,1,2.944-2.635h5.659V9.134a1.965,1.965,0,1,1,.655,0V11.7h5.659a2.973,2.973,0,0,1,2.944,2.635H25.74a1.778,1.778,0,0,1,1.774,1.774v3.416A1.778,1.778,0,0,1,25.74,21.3H24.6a2.973,2.973,0,0,1-2.934,2.554l-5.882,0L9.9,28.123a.327.327,0,0,1-.53-.257l-.013-4.037a2.973,2.973,0,0,1-2.608-2.535ZM5.61,20.635H6.726V14.987H5.61A1.118,1.118,0,0,0,4.5,16.1v3.416A1.122,1.122,0,0,0,5.61,20.635ZM16.6,6.271a1.308,1.308,0,1,0,.383.925A1.3,1.3,0,0,0,16.6,6.271Zm3.346,9.216a2.285,2.285,0,1,1-1.616.669A2.277,2.277,0,0,1,19.946,15.487Zm1.15,1.134a1.625,1.625,0,1,1-1.15-.477A1.622,1.622,0,0,1,21.1,16.621ZM11.4,15.487a2.285,2.285,0,1,1-1.616.669A2.277,2.277,0,0,1,11.4,15.487Zm1.151,1.134a1.625,1.625,0,1,1-1.15-.477,1.621,1.621,0,0,1,1.15.477ZM25.74,14.987H24.624v5.648H25.74a1.118,1.118,0,0,0,1.115-1.115V16.1a1.12,1.12,0,0,0-1.116-1.116Z" transform="translate(0 0)" stroke="#000" stroke-width="0.2" fill-rule="evenodd"/>
  </g>
</svg>
