<svg xmlns="http://www.w3.org/2000/svg" width="30.482" height="15.179" viewBox="0 0 30.482 15.179">
  <g id="noun-pen-tool-8083935" transform="translate(-2.3 -7.35)">
    <path id="Path_248133" data-name="Path 248133" d="M30.419,7.55a2.165,2.165,0,0,0-2.1,1.678h-8.84V8.152a.481.481,0,0,0-.481-.481H16.086a.481.481,0,0,0-.481.481V9.228H6.765a2.159,2.159,0,1,0,0,.962h6.168a10.581,10.581,0,0,0-5.845,8.27H6.048a.481.481,0,0,0-.481.481v2.906a.481.481,0,0,0,.481.481H8.955a.481.481,0,0,0,.481-.481V18.942a.481.481,0,0,0-.481-.481h-.9a9.605,9.605,0,0,1,7.548-8.175v.773a.481.481,0,0,0,.481.481h2.906a.481.481,0,0,0,.481-.481v-.773a9.6,9.6,0,0,1,7.548,8.175h-.9a.481.481,0,0,0-.481.481v2.906a.481.481,0,0,0,.481.481h2.906a.481.481,0,0,0,.481-.481V18.942a.481.481,0,0,0-.481-.481H28a10.588,10.588,0,0,0-5.845-8.27h6.168a2.159,2.159,0,1,0,2.1-2.64ZM8.475,21.367H6.531V19.423H8.475Zm20.072,0H26.6V19.423h1.942v1.944ZM4.66,10.909a1.2,1.2,0,1,1,1.2-1.2A1.2,1.2,0,0,1,4.66,10.909Zm13.852-.333H16.567V8.632h1.944Zm11.907.333a1.2,1.2,0,1,1,1.2-1.2A1.2,1.2,0,0,1,30.419,10.909Z" stroke="#000" stroke-width="0.4"/>
  </g>
</svg>
