<svg xmlns="http://www.w3.org/2000/svg" width="25.527" height="21.702" viewBox="0 0 25.527 21.702">
  <g id="noun-desktop-coding-819890" transform="translate(-15.735 -21)">
    <g id="Group_42849" data-name="Group 42849" transform="translate(16.235 21.5)">
      <g id="Group_42848" data-name="Group 42848">
        <g id="Group_42846" data-name="Group 42846">
          <path id="Path_248097" data-name="Path 248097" d="M40.762,37.668a1.093,1.093,0,0,1-1.09,1.09H17.325a1.093,1.093,0,0,1-1.09-1.09V22.59a1.093,1.093,0,0,1,1.09-1.09H39.672a1.093,1.093,0,0,1,1.09,1.09V37.668Z" transform="translate(-16.235 -21.5)" fill="none" stroke="#000" stroke-linecap="round" stroke-linejoin="round" stroke-width="1"/>
        </g>
        <line id="Line_893" data-name="Line 893" x2="24.527" transform="translate(0 15.345)" fill="none" stroke="#000" stroke-linecap="round" stroke-linejoin="round" stroke-width="1"/>
        <g id="Group_42847" data-name="Group 42847" transform="translate(7.383 17.252)">
          <line id="Line_894" data-name="Line 894" x1="2.497" y2="3.223" fill="none" stroke="#000" stroke-linecap="round" stroke-linejoin="round" stroke-width="1"/>
          <line id="Line_895" data-name="Line 895" x2="2.497" y2="3.223" transform="translate(7.264)" fill="none" stroke="#000" stroke-linecap="round" stroke-linejoin="round" stroke-width="1"/>
        </g>
        <line id="Line_896" data-name="Line 896" x2="13.62" transform="translate(5.453 20.702)" fill="none" stroke="#000" stroke-linecap="round" stroke-linejoin="round" stroke-width="1"/>
      </g>
    </g>
    <g id="Group_42851" data-name="Group 42851" transform="translate(22.218 27.277)">
      <g id="Group_42850" data-name="Group 42850">
        <path id="Path_248098" data-name="Path 248098" d="M35.334,42.655,32.709,40.03l2.625-2.624" transform="translate(-32.709 -37.406)" fill="none" stroke="#000" stroke-linecap="round" stroke-linejoin="round" stroke-width="1"/>
        <path id="Path_248099" data-name="Path 248099" d="M60.064,42.655l2.625-2.624-2.625-2.624" transform="translate(-50.129 -37.406)" fill="none" stroke="#000" stroke-linecap="round" stroke-linejoin="round" stroke-width="1"/>
        <path id="Path_248100" data-name="Path 248100" d="M54.559,44.632" transform="translate(-46.623 -42.008)" fill="none" stroke="#000" stroke-linecap="round" stroke-linejoin="round" stroke-width="1"/>
        <line id="Line_897" data-name="Line 897" x1="1.828" y2="5.202" transform="translate(5.163 0.024)" fill="none" stroke="#000" stroke-linecap="round" stroke-linejoin="round" stroke-width="1"/>
      </g>
    </g>
  </g>
</svg>
