<svg xmlns="http://www.w3.org/2000/svg" width="24.597" height="18.323" viewBox="0 0 24.597 18.323">
  <g id="noun-digitalization-7217363" transform="translate(-1 -13.5)">
    <path id="Path_248125" data-name="Path 248125" d="M22.786,13.5H3.811A2.806,2.806,0,0,0,1,16.311V26.677a2.806,2.806,0,0,0,2.811,2.811H7.927v1.531H6.7a.4.4,0,0,0,0,.8H19.623a.4.4,0,1,0,0-.8H18.394V29.488H22.76A2.8,2.8,0,0,0,25.6,26.677V16.311A2.806,2.806,0,0,0,22.786,13.5Zm-18.975.8H22.76a2.014,2.014,0,0,1,2.008,2.008v9.838H16.737V23.289H19.9a.4.4,0,0,0,.4-.4V21.331a1.326,1.326,0,0,0,.928-1.28,1.33,1.33,0,1,0-2.661,0,1.36,1.36,0,0,0,.928,1.28v1.155H16.336a.4.4,0,0,0-.4.4v3.288H13.7v-4.82a1.326,1.326,0,0,0,.928-1.28,1.33,1.33,0,0,0-2.661,0,1.36,1.36,0,0,0,.928,1.28v4.819H10.663V22.887a.4.4,0,0,0-.4-.4H7.1V21.331a1.326,1.326,0,0,0,.928-1.28,1.33,1.33,0,1,0-2.661,0,1.36,1.36,0,0,0,.928,1.28v1.556a.4.4,0,0,0,.4.4H9.86v2.886H1.8V16.311A2.014,2.014,0,0,1,3.811,14.3ZM19.9,20.578a.527.527,0,1,1,.527-.527A.531.531,0,0,1,19.9,20.578Zm-6.576.025H13.3a.548.548,0,0,1-.527-.527.527.527,0,1,1,.553.527ZM6.7,20.578a.527.527,0,0,1,0-1.055.548.548,0,0,1,.527.527A.531.531,0,0,1,6.7,20.578ZM17.615,31.019H8.731V29.488h8.86v1.531Zm5.171-2.309H3.811A2.029,2.029,0,0,1,1.8,26.979h22.94a1.98,1.98,0,0,1-1.957,1.731Z" transform="translate(0 0)"/>
  </g>
</svg>
