<svg xmlns="http://www.w3.org/2000/svg" width="1257" height="740" viewBox="0 0 1257 740">
  <g id="Group_42897" data-name="Group 42897" transform="translate(-633 -3030)">
    <rect id="Rectangle_10924" data-name="Rectangle 10924" width="243" height="72" transform="translate(635 3031)" fill="#edebe1"/>
    <rect id="Rectangle_10925" data-name="Rectangle 10925" width="143" height="143" transform="translate(1456 3031)" fill="none"/>
    <rect id="Rectangle_10929" data-name="Rectangle 10929" width="288" height="71" transform="translate(1600 3102)" fill="#edebe1"/>
    <rect id="Rectangle_10926" data-name="Rectangle 10926" width="143" height="74" transform="translate(1312 3461)" fill="#edebe1"/>
    <rect id="Rectangle_10927" data-name="Rectangle 10927" width="820" height="58" transform="translate(635 3606)" fill="#edebe1"/>
    <rect id="Rectangle_10928" data-name="Rectangle 10928" width="290" height="57" transform="translate(1600 3607)" fill="#edebe1"/>
    <line id="Line_900" data-name="Line 900" x2="576" transform="translate(1313 3461)" fill="none" stroke="#000" stroke-width="1"/>
    <line id="Line_931" data-name="Line 931" x2="142" transform="translate(1314 3534.5)" fill="none" stroke="#000" stroke-width="1" stroke-dasharray="2"/>
    <line id="Line_904" data-name="Line 904" y2="738.5" transform="translate(1455.5 3031)" fill="none" stroke="#000" stroke-width="1"/>
    <line id="Line_928" data-name="Line 928" y2="502" transform="translate(1311.5 3103.5)" fill="none" stroke="#000" stroke-width="1"/>
    <line id="Line_914" data-name="Line 914" y2="737" transform="translate(1601 3032)" fill="none" stroke="#000" stroke-width="1"/>
    <line id="Line_910" data-name="Line 910" y2="72.5" transform="translate(1022.5 3030.5)" fill="none" stroke="#000" stroke-width="1" stroke-dasharray="2"/>
    <line id="Line_913" data-name="Line 913" y2="72.5" transform="translate(878.5 3030.5)" fill="none" stroke="#000" stroke-width="1"/>
    <line id="Line_935" data-name="Line 935" y2="72" transform="translate(634 3031)" fill="none" stroke="#000" stroke-width="1"/>
    <line id="Line_911" data-name="Line 911" y2="72.5" transform="translate(1167.5 3030.5)" fill="none" stroke="#000" stroke-width="1" stroke-dasharray="2"/>
    <line id="Line_912" data-name="Line 912" y2="72.5" transform="translate(1311.5 3030.5)" fill="none" stroke="#000" stroke-width="1" stroke-dasharray="2"/>
    <line id="Line_915" data-name="Line 915" y2="72" transform="translate(1745 3031)" fill="none" stroke="#000" stroke-width="1" stroke-dasharray="2"/>
    <line id="Line_916" data-name="Line 916" y2="738" transform="translate(1888.5 3030.5)" fill="none" stroke="#000" stroke-width="1"/>
    <g id="noun_Android_3889157" transform="translate(1654.956 3055)">
      <g id="Group_42872" data-name="Group 42872" transform="translate(4.044 0)">
        <path id="Path_248127" data-name="Path 248127" d="M34,68.2h2.1v2.1a2.4,2.4,0,0,0,4.8,0V68.2h4.2v2.1a2.4,2.4,0,1,0,4.8,0V68.2H52V55H34Z" transform="translate(-28 -42.7)"/>
        <path id="Path_248128" data-name="Path 248128" d="M50.106,14.162a1.179,1.179,0,0,0-.6-.162,1.2,1.2,0,0,0-1.038.6l-1.8,3.129a9,9,0,0,0-11.85,0L33.006,14.6a1.2,1.2,0,0,0-1.038-.6,1.179,1.179,0,0,0-.6.162,1.2,1.2,0,0,0-.441,1.638l2.229,3.858A8.913,8.913,0,0,0,31.737,24.5h18a8.913,8.913,0,0,0-1.419-4.842L50.547,15.8A1.2,1.2,0,0,0,50.106,14.162ZM37.287,22.1a.9.9,0,1,1,.9-.9A.9.9,0,0,1,37.287,22.1Zm6.9,0a.9.9,0,1,1,.9-.9A.9.9,0,0,1,44.187,22.1Z" transform="translate(-25.737 -14)"/>
        <path id="Path_248129" data-name="Path 248129" d="M103.8,55a1.8,1.8,0,0,0-1.8,1.8v6a1.8,1.8,0,0,0,3.6,0v-6A1.8,1.8,0,0,0,103.8,55Z" transform="translate(-75.6 -42.7)"/>
        <path id="Path_248130" data-name="Path 248130" d="M15.8,55A1.8,1.8,0,0,0,14,56.8v6a1.8,1.8,0,0,0,3.6,0v-6A1.8,1.8,0,0,0,15.8,55Z" transform="translate(-14 -42.7)"/>
      </g>
    </g>
    <g id="noun_Apple_1426926" transform="translate(1797.667 3054.379)">
      <g id="Group_42873" data-name="Group 42873" transform="translate(4.333 0)">
        <path id="Path_248131" data-name="Path 248131" d="M34.84,960.362c-3.588,1.212-6.384,2.424-5.985,7.677C32.442,967.231,35.637,965.211,34.84,960.362Zm-11.4,7.293A8.83,8.83,0,0,0,15,976.483c0,8.061,5.374,16.121,8.444,16.121,2.3,0,4.222-1.535,5.758-1.535s3.071,1.535,5.374,1.535c3.071,0,6.525-4.606,7.293-8.828-2.687-1.919-4.606-3.071-4.606-6.525,0-2.3,1.919-4.606,4.222-6.525a7.831,7.831,0,0,0-5.758-3.071c-2.3,0-4.78,1.822-6.525,1.919C27.667,969.574,25.747,967.655,23.444,967.655Z" transform="translate(-15 -960.362)"/>
      </g>
    </g>
    <path id="Path_248771" data-name="Path 248771" d="M35.45-35.45H23.068V0H13.26V-35.45H.938v-7.962H35.45ZM62.636-12.775H42.413Q42.9-6.024,50.92-6.024a16.608,16.608,0,0,0,8.991-2.422v6.9q-4.3,2.3-11.171,2.3-7.508,0-11.655-4.163t-4.147-11.61q0-7.72,4.48-12.23a14.927,14.927,0,0,1,11.02-4.511q6.781,0,10.49,4.026T62.636-16.8Zm-8.87-5.873q0-6.66-5.389-6.66A5.145,5.145,0,0,0,44.4-23.4a8.656,8.656,0,0,0-2.043,4.753ZM91.819-1.12Q88.58.757,82.465.757,75.32.757,70.9-3.572a14.952,14.952,0,0,1-4.42-11.171q0-7.9,4.738-12.458t12.669-4.556q5.479,0,7.932,1.453v8.113a10.905,10.905,0,0,0-6.69-2.24A8.815,8.815,0,0,0,78.6-22.024,8.98,8.98,0,0,0,76.2-15.379a8.834,8.834,0,0,0,2.3,6.463,8.456,8.456,0,0,0,6.327,2.346,12.626,12.626,0,0,0,6.993-2.24ZM127.845,0h-9.536V-17.619q0-6.812-4.965-6.812a5.082,5.082,0,0,0-4.117,1.907,7.356,7.356,0,0,0-1.574,4.844V0H98.086V-45.895h9.566v19.5h.121a10.87,10.87,0,0,1,9.536-5.358q10.535,0,10.535,12.715Zm37.509,0h-9.536V-17.226q0-7.205-5.146-7.205a5.106,5.106,0,0,0-4.087,1.907,7.266,7.266,0,0,0-1.6,4.844V0h-9.566V-31h9.566v4.9h.121a10.962,10.962,0,0,1,9.96-5.661q10.293,0,10.293,12.775ZM187.7.757q-7.75,0-12.185-4.344t-4.435-11.792q0-7.689,4.6-12.034t12.442-4.344q7.72,0,12.109,4.344t4.39,11.489q0,7.72-4.526,12.2T187.7.757Zm.242-25.187A6.381,6.381,0,0,0,182.67-22.1a10.279,10.279,0,0,0-1.877,6.6q0,8.931,7.205,8.931,6.872,0,6.872-9.173Q194.87-24.431,187.938-24.431ZM220.391,0h-9.566V-45.895h9.566Zm22.826.757q-7.75,0-12.185-4.344T226.6-15.379q0-7.689,4.6-12.034t12.442-4.344q7.72,0,12.109,4.344t4.39,11.489q0,7.72-4.526,12.2T243.217.757Zm.242-25.187a6.381,6.381,0,0,0-5.268,2.331,10.279,10.279,0,0,0-1.877,6.6q0,8.931,7.205,8.931,6.872,0,6.872-9.173Q250.392-24.431,243.459-24.431ZM296.74-3.542q0,8.628-5,13.366t-14.471,4.738q-6.267,0-9.93-1.786V4.723A19.015,19.015,0,0,0,277,7.508q4.844,0,7.508-2.558A9.18,9.18,0,0,0,287.174-2V-4.45h-.121A10.683,10.683,0,0,1,277.4.757a11.616,11.616,0,0,1-9.415-4.178Q264.5-7.6,264.5-14.622q0-7.871,3.875-12.5a12.651,12.651,0,0,1,10.2-4.632,9.414,9.414,0,0,1,8.477,4.359h.121V-31h9.566Zm-9.445-11.353v-2.452a7.535,7.535,0,0,0-1.741-5.01,5.63,5.63,0,0,0-4.526-2.074,5.852,5.852,0,0,0-5,2.482,11.673,11.673,0,0,0-1.816,6.993,9.853,9.853,0,0,0,1.726,6.13,5.623,5.623,0,0,0,4.723,2.255,5.854,5.854,0,0,0,4.8-2.286A9.371,9.371,0,0,0,287.295-14.895ZM309.576-35.9a5.587,5.587,0,0,1-3.966-1.438,4.633,4.633,0,0,1-1.544-3.527,4.468,4.468,0,0,1,1.544-3.512,5.773,5.773,0,0,1,3.966-1.362,5.759,5.759,0,0,1,3.981,1.362,4.488,4.488,0,0,1,1.529,3.512,4.615,4.615,0,0,1-1.529,3.572A5.682,5.682,0,0,1,309.576-35.9ZM314.3,0h-9.566V-31H314.3Zm35.9-12.775H329.98q.484,6.751,8.507,6.751a16.608,16.608,0,0,0,8.991-2.422v6.9q-4.3,2.3-11.171,2.3-7.508,0-11.655-4.163T320.5-15.016q0-7.72,4.48-12.23A14.927,14.927,0,0,1,336-31.757q6.781,0,10.49,4.026T350.2-16.8Zm-8.87-5.873q0-6.66-5.389-6.66a5.145,5.145,0,0,0-3.981,1.907,8.656,8.656,0,0,0-2.043,4.753ZM353.866-.817v-7.75a20.368,20.368,0,0,0,4.708,2.119,15.608,15.608,0,0,0,4.435.7,9.512,9.512,0,0,0,4.011-.7,2.25,2.25,0,0,0,1.468-2.119,1.961,1.961,0,0,0-.666-1.514,6.191,6.191,0,0,0-1.71-1.06,19.41,19.41,0,0,0-2.286-.817q-1.241-.363-2.392-.817a22.915,22.915,0,0,1-3.254-1.5,9.407,9.407,0,0,1-2.361-1.862,7.318,7.318,0,0,1-1.453-2.452,9.785,9.785,0,0,1-.5-3.3A8.495,8.495,0,0,1,355-26.368a9.273,9.273,0,0,1,3.027-3.073,13.832,13.832,0,0,1,4.329-1.756,22.572,22.572,0,0,1,5.071-.56,28.136,28.136,0,0,1,4.178.318,31.182,31.182,0,0,1,4.178.923v7.387a15.1,15.1,0,0,0-3.89-1.589,16.41,16.41,0,0,0-4.072-.53,9.021,9.021,0,0,0-1.771.167,5.833,5.833,0,0,0-1.468.484,2.7,2.7,0,0,0-1,.817,1.882,1.882,0,0,0-.363,1.135,2.1,2.1,0,0,0,.545,1.453,4.733,4.733,0,0,0,1.423,1.044,14.047,14.047,0,0,0,1.953.787q1.075.348,2.134.711a27.749,27.749,0,0,1,3.451,1.453,11.035,11.035,0,0,1,2.649,1.847,7.252,7.252,0,0,1,1.7,2.482,8.823,8.823,0,0,1,.59,3.391,8.844,8.844,0,0,1-1.2,4.708,9.574,9.574,0,0,1-3.179,3.179A14.415,14.415,0,0,1,368.715.2a25.342,25.342,0,0,1-5.374.56A27.7,27.7,0,0,1,353.866-.817ZM441.023.7a10.709,10.709,0,0,1-3.042-.424,12.99,12.99,0,0,1-2.725-1.15,15.378,15.378,0,0,1-2.437-1.71,25.218,25.218,0,0,1-2.18-2.1,25.614,25.614,0,0,1-2.694,1.877,22.02,22.02,0,0,1-3.557,1.741A27.633,27.633,0,0,1,420.014.2,25,25,0,0,1,414.9.7a24.125,24.125,0,0,1-6.554-.848,15.1,15.1,0,0,1-5.192-2.528,11.763,11.763,0,0,1-3.406-4.163,12.833,12.833,0,0,1-1.226-5.752,10.885,10.885,0,0,1,.923-4.586,12.341,12.341,0,0,1,2.407-3.527,15.755,15.755,0,0,1,3.36-2.6,25.251,25.251,0,0,1,3.814-1.816,20.045,20.045,0,0,1-1.892-1.68,13.666,13.666,0,0,1-1.71-2.089,11.04,11.04,0,0,1-1.226-2.467,8.411,8.411,0,0,1-.469-2.815,8.989,8.989,0,0,1,.969-4.238,9.007,9.007,0,0,1,2.709-3.118,12.688,12.688,0,0,1,4.163-1.937,20.059,20.059,0,0,1,5.328-.666,17.663,17.663,0,0,1,5.1.7,12.727,12.727,0,0,1,3.981,1.938,8.736,8.736,0,0,1,2.573,2.982,8.153,8.153,0,0,1,.908,3.83,8.934,8.934,0,0,1-2.013,5.828,14.323,14.323,0,0,1-5.676,4.011,23.136,23.136,0,0,1,2.785,1.514,22.875,22.875,0,0,1,2.6,1.938,24.848,24.848,0,0,1,2.482,2.467,29.052,29.052,0,0,1,2.392,3.164,19.98,19.98,0,0,0,3.557-6.645,25.045,25.045,0,0,0,1.075-7.341,17.328,17.328,0,0,0-.136-2.21,10.415,10.415,0,0,0-.439-1.968h8.144a11.7,11.7,0,0,1,.484,1.877,13.259,13.259,0,0,1,.151,2.149,26.229,26.229,0,0,1-.621,5.722,28.629,28.629,0,0,1-1.741,5.328,28.185,28.185,0,0,1-2.709,4.813,34.529,34.529,0,0,1-3.5,4.238,12.2,12.2,0,0,0,3.058,2.376,6.377,6.377,0,0,0,2.967.833,14.413,14.413,0,0,0,2.967-.318,10.468,10.468,0,0,0,2.634-.893V-.605a18.375,18.375,0,0,1-3.285.984A18.853,18.853,0,0,1,441.023.7ZM415.382-6.539a15.537,15.537,0,0,0,3.36-.348,17.856,17.856,0,0,0,2.967-.923A16.872,16.872,0,0,0,424.3-9.143a22.265,22.265,0,0,0,2.195-1.574,31.177,31.177,0,0,0-3.058-4.1,26.253,26.253,0,0,0-3-2.876,21,21,0,0,0-2.952-2.013q-1.468-.817-2.952-1.483a21.87,21.87,0,0,0-2.376,1.347,10.049,10.049,0,0,0-2.013,1.726,8.013,8.013,0,0,0-1.408,2.24,7.388,7.388,0,0,0-.53,2.891,6.524,6.524,0,0,0,.515,2.634,5.76,5.76,0,0,0,1.468,2.028,6.82,6.82,0,0,0,2.271,1.317A8.654,8.654,0,0,0,415.382-6.539Zm5.6-27.488a3.6,3.6,0,0,0-.333-1.574,3.343,3.343,0,0,0-.908-1.166,4.325,4.325,0,0,0-1.3-.727,4.591,4.591,0,0,0-1.544-.257,5.324,5.324,0,0,0-1.832.3,4.849,4.849,0,0,0-1.453.817,3.512,3.512,0,0,0-.954,1.226,3.561,3.561,0,0,0-.333,1.529,5.107,5.107,0,0,0,1.06,3.118,8.259,8.259,0,0,0,2.634,2.3,13.989,13.989,0,0,0,1.892-.848,7.029,7.029,0,0,0,1.574-1.15A5.222,5.222,0,0,0,420.574-32,4.758,4.758,0,0,0,420.982-34.027ZM14.743,74.045V89H4.965V45.588H20.283q16.408,0,16.408,13.835A13.275,13.275,0,0,1,31.984,70q-4.708,4.042-12.579,4.042Zm0-20.949V66.628h3.845q7.811,0,7.811-6.842,0-6.69-7.811-6.69ZM51.677,89H42.11V43.105h9.566Zm33.846,0H76.471V84.55H76.35a10.1,10.1,0,0,1-9.233,5.207,9.658,9.658,0,0,1-7.1-2.558,9.166,9.166,0,0,1-2.588-6.827q0-9.021,10.687-10.414l8.416-1.12q0-5.086-5.51-5.086a18.807,18.807,0,0,0-10.535,3.3V59.847a23.7,23.7,0,0,1,5.464-1.816,28.724,28.724,0,0,1,6.312-.787q13.26,0,13.26,13.229ZM76.531,76.406V74.317l-5.631.727q-4.662.605-4.662,4.208a3.477,3.477,0,0,0,1.135,2.679,4.362,4.362,0,0,0,3.073,1.044,5.664,5.664,0,0,0,4.39-1.862A6.725,6.725,0,0,0,76.531,76.406Zm35.3,12.23a14.14,14.14,0,0,1-6.388,1.12q-10.111,0-10.111-10.5v-14.2H90.306V58h5.025V51.31l9.536-2.725V58h6.963v7.054h-6.963V77.587q0,4.844,3.845,4.844a6.482,6.482,0,0,0,3.118-.878Zm25.611-38.205a9.664,9.664,0,0,0-3.542-.727q-4.6,0-4.6,5V58h7.084v7.054H129.3V89h-9.536V65.054h-5.207V58h5.207V54.155a11.162,11.162,0,0,1,3.451-8.537q3.451-3.239,9.385-3.239a16.481,16.481,0,0,1,4.844.605Zm18.315,39.325q-7.75,0-12.185-4.344t-4.435-11.792q0-7.689,4.6-12.034t12.442-4.344q7.72,0,12.109,4.344t4.39,11.489q0,7.72-4.526,12.2T155.757,89.757ZM156,64.569a6.381,6.381,0,0,0-5.268,2.331,10.279,10.279,0,0,0-1.877,6.6q0,8.931,7.205,8.931,6.872,0,6.872-9.173Q162.932,64.569,156,64.569Zm43.109,2.059a8.3,8.3,0,0,0-4.026-.938,5.8,5.8,0,0,0-4.874,2.286,9.971,9.971,0,0,0-1.756,6.221V89h-9.566V58h9.566v5.752h.121q2.271-6.3,8.174-6.3a6.16,6.16,0,0,1,2.361.363ZM252.965,89h-9.536V71.32q0-6.751-4.965-6.751a4.562,4.562,0,0,0-3.845,2.028,8.335,8.335,0,0,0-1.483,5.056V89h-9.566V71.139q0-6.569-4.874-6.569a4.672,4.672,0,0,0-3.92,1.938,8.525,8.525,0,0,0-1.468,5.268V89H203.74V58h9.566v4.844h.121a11.747,11.747,0,0,1,10.021-5.6q6.569,0,8.991,5.782a11.467,11.467,0,0,1,10.414-5.782q10.111,0,10.111,12.473Zm5.54-.817v-7.75a20.368,20.368,0,0,0,4.708,2.119,15.608,15.608,0,0,0,4.435.7,9.512,9.512,0,0,0,4.011-.7,2.25,2.25,0,0,0,1.468-2.119,1.961,1.961,0,0,0-.666-1.514,6.191,6.191,0,0,0-1.71-1.06,19.41,19.41,0,0,0-2.286-.817q-1.241-.363-2.392-.817a22.916,22.916,0,0,1-3.254-1.5,9.406,9.406,0,0,1-2.361-1.862A7.318,7.318,0,0,1,259,70.412a9.785,9.785,0,0,1-.5-3.3,8.495,8.495,0,0,1,1.135-4.48,9.273,9.273,0,0,1,3.027-3.073A13.832,13.832,0,0,1,267,57.8a22.572,22.572,0,0,1,5.071-.56,28.136,28.136,0,0,1,4.178.318,31.182,31.182,0,0,1,4.178.923v7.387a15.1,15.1,0,0,0-3.89-1.589,16.41,16.41,0,0,0-4.072-.53,9.021,9.021,0,0,0-1.771.167,5.833,5.833,0,0,0-1.468.484,2.7,2.7,0,0,0-1,.817,1.882,1.882,0,0,0-.363,1.135,2.1,2.1,0,0,0,.545,1.453,4.733,4.733,0,0,0,1.423,1.044,14.047,14.047,0,0,0,1.953.787q1.075.348,2.134.711a27.748,27.748,0,0,1,3.451,1.453,11.035,11.035,0,0,1,2.649,1.847,7.252,7.252,0,0,1,1.7,2.482,9.932,9.932,0,0,1-.605,8.1,9.574,9.574,0,0,1-3.179,3.179,14.416,14.416,0,0,1-4.571,1.786,25.342,25.342,0,0,1-5.374.56A27.7,27.7,0,0,1,258.5,88.183Z" transform="translate(678 3337)"/>
    <path id="Path_248770" data-name="Path 248770" d="M11.7,17,9.988,12.864H3.74L1.98,17H.176L6.93,1.622,13.508,17ZM4.378,11.324H9.35L6.886,5.45Zm17.8-2.156V.962H23.76V17H22.176V15.724a3.757,3.757,0,0,1-3.124,1.54,4.322,4.322,0,0,1-3.146-1.276,4.771,4.771,0,0,1-1.3-3.564A4.7,4.7,0,0,1,15.9,8.915,4.331,4.331,0,0,1,19.052,7.65,3.7,3.7,0,0,1,22.176,9.168Zm-2.948-.11a2.852,2.852,0,0,0-2.123.891,3.4,3.4,0,0,0-.869,2.475,3.72,3.72,0,0,0,.8,2.475,2.707,2.707,0,0,0,2.189.957,2.731,2.731,0,0,0,2.211-.99,3.654,3.654,0,0,0,.825-2.42,3.3,3.3,0,0,0-.924-2.508A2.977,2.977,0,0,0,19.228,9.058ZM34.474,15.9a5.069,5.069,0,0,1-6.919,0,4.634,4.634,0,0,1-1.375-3.432,4.661,4.661,0,0,1,1.375-3.454,5.083,5.083,0,0,1,6.93,0,4.661,4.661,0,0,1,1.375,3.454A4.615,4.615,0,0,1,34.474,15.9ZM33.286,9.96a3.3,3.3,0,0,0-4.543.011,3.329,3.329,0,0,0-.935,2.5,3.271,3.271,0,0,0,.946,2.486,3.3,3.3,0,0,0,4.532,0,3.271,3.271,0,0,0,.946-2.486A3.3,3.3,0,0,0,33.286,9.96Zm6.578,5.764V17H38.28V.962h1.584V9.146a3.835,3.835,0,0,1,3.124-1.5,4,4,0,0,1,3.245,1.441,5.148,5.148,0,0,1,1.2,3.4,5.038,5.038,0,0,1-1.188,3.377,3.974,3.974,0,0,1-3.19,1.4A3.821,3.821,0,0,1,39.864,15.724Zm2.97.132a2.664,2.664,0,0,0,2.156-.979A3.61,3.61,0,0,0,45.8,12.49a3.436,3.436,0,0,0-.9-2.508,2.836,2.836,0,0,0-2.09-.924,2.907,2.907,0,0,0-2.112.924,3.359,3.359,0,0,0-.924,2.486,3.553,3.553,0,0,0,.847,2.409A2.784,2.784,0,0,0,42.834,15.856Zm13.794-1.914,1.32.726a5.224,5.224,0,0,1-1.122,1.474,4.393,4.393,0,0,1-3.036,1.122,4.588,4.588,0,0,1-3.179-1.2A4.568,4.568,0,0,1,49.28,12.49a5.082,5.082,0,0,1,1.2-3.465A4.06,4.06,0,0,1,53.7,7.65a3.938,3.938,0,0,1,3.454,1.672,5.545,5.545,0,0,1,.858,3.432H50.908A3.155,3.155,0,0,0,51.766,15a2.747,2.747,0,0,0,2.046.858,2.829,2.829,0,0,0,1.87-.66A3.593,3.593,0,0,0,56.628,13.942Zm-5.61-2.508h5.368a2.925,2.925,0,0,0-.935-1.727,2.648,2.648,0,0,0-3.5.022A2.843,2.843,0,0,0,51.018,11.434Zm-37.906,21.1V34.56A6.754,6.754,0,0,0,11.2,33.2a6.046,6.046,0,0,0-2.53-.572A5.57,5.57,0,0,0,4.455,34.4,6.069,6.069,0,0,0,2.772,38.74a5.515,5.515,0,0,0,1.837,4.378A6.054,6.054,0,0,0,8.69,44.724a5.873,5.873,0,0,0,2.728-.682,6.5,6.5,0,0,0,1.694-1.232v2.024a7.438,7.438,0,0,1-4.422,1.43A7.422,7.422,0,0,1,1.1,38.718a7.382,7.382,0,0,1,2.189-5.456,7.465,7.465,0,0,1,5.489-2.178A6.986,6.986,0,0,1,13.112,32.536ZM15.708,46V36.87h1.584v.99a2.351,2.351,0,0,1,2.068-1.21,3.162,3.162,0,0,1,1.408.374l-.748,1.43a1.587,1.587,0,0,0-.924-.308,1.512,1.512,0,0,0-1.276.572,4.259,4.259,0,0,0-.528,2.464V46Zm12.76-3.058,1.32.726a5.224,5.224,0,0,1-1.122,1.474,4.393,4.393,0,0,1-3.036,1.122,4.357,4.357,0,0,1-4.51-4.774,5.082,5.082,0,0,1,1.2-3.465,4.06,4.06,0,0,1,3.223-1.375A3.938,3.938,0,0,1,29,38.322a5.545,5.545,0,0,1,.858,3.432H22.748A3.155,3.155,0,0,0,23.606,44a2.747,2.747,0,0,0,2.046.858,2.829,2.829,0,0,0,1.87-.66A3.593,3.593,0,0,0,28.468,42.942Zm-5.61-2.508h5.368a2.925,2.925,0,0,0-.935-1.727,2.648,2.648,0,0,0-3.5.022A2.843,2.843,0,0,0,22.858,40.434ZM39.27,38.168v-1.3h1.584V46H39.27V44.724a3.757,3.757,0,0,1-3.124,1.54A4.322,4.322,0,0,1,33,44.988a4.771,4.771,0,0,1-1.3-3.564,4.7,4.7,0,0,1,1.287-3.509,4.331,4.331,0,0,1,3.157-1.265A3.7,3.7,0,0,1,39.27,38.168Zm-2.948-.11a2.852,2.852,0,0,0-2.123.891,3.4,3.4,0,0,0-.869,2.475,3.72,3.72,0,0,0,.8,2.475,2.973,2.973,0,0,0,4.4-.033,3.654,3.654,0,0,0,.825-2.42,3.3,3.3,0,0,0-.924-2.508A2.977,2.977,0,0,0,36.322,38.058Zm10.736.264H45.474V46H43.89V38.322h-.968V36.87h.968v-3.3h1.584v3.3h1.584Zm1.5-1.452h1.584V46H48.554Zm0-2.662a1.115,1.115,0,1,1,.792.33A1.08,1.08,0,0,1,48.554,34.208ZM51.81,36.87h1.76L56.3,43.03l2.728-6.16h1.76L56.3,46.594Zm17.424,6.072,1.32.726a5.224,5.224,0,0,1-1.122,1.474A4.393,4.393,0,0,1,66.4,46.264a4.357,4.357,0,0,1-4.51-4.774,5.082,5.082,0,0,1,1.2-3.465,4.06,4.06,0,0,1,3.223-1.375,3.938,3.938,0,0,1,3.454,1.672,5.545,5.545,0,0,1,.858,3.432H63.514A3.155,3.155,0,0,0,64.372,44a2.747,2.747,0,0,0,2.046.858,2.829,2.829,0,0,0,1.87-.66A3.593,3.593,0,0,0,69.234,42.942Zm-5.61-2.508h5.368a2.925,2.925,0,0,0-.935-1.727,2.648,2.648,0,0,0-3.5.022A2.843,2.843,0,0,0,63.624,40.434Zm26.158-7.9V34.56A6.754,6.754,0,0,0,87.868,33.2a6.046,6.046,0,0,0-2.53-.572A5.57,5.57,0,0,0,81.125,34.4a6.069,6.069,0,0,0-1.683,4.345,5.515,5.515,0,0,0,1.837,4.378,6.054,6.054,0,0,0,4.081,1.606,5.873,5.873,0,0,0,2.728-.682,6.5,6.5,0,0,0,1.694-1.232v2.024a7.438,7.438,0,0,1-4.422,1.43,7.422,7.422,0,0,1-7.59-7.546,7.382,7.382,0,0,1,2.189-5.456,7.465,7.465,0,0,1,5.489-2.178A6.986,6.986,0,0,1,89.782,32.536Zm2.6-2.574h1.584V46H92.378Zm12.3,14.938a5.069,5.069,0,0,1-6.919,0,5,5,0,0,1,0-6.886,5.083,5.083,0,0,1,6.93,0,4.984,4.984,0,0,1-.011,6.886Zm-1.188-5.94a3.3,3.3,0,0,0-4.543.011,3.329,3.329,0,0,0-.935,2.5,3.271,3.271,0,0,0,.946,2.486,3.3,3.3,0,0,0,4.532,0,3.768,3.768,0,0,0,0-4.994Zm6.578-2.09v5.324a3.294,3.294,0,0,0,.44,1.958,2.184,2.184,0,0,0,3.212,0,3.294,3.294,0,0,0,.44-1.958V36.87h1.584v5.5a3.929,3.929,0,0,1-.836,2.75,3.984,3.984,0,0,1-5.588,0,3.929,3.929,0,0,1-.836-2.75v-5.5Zm15.664,1.3V29.962h1.584V46H125.73V44.724a3.757,3.757,0,0,1-3.124,1.54,4.322,4.322,0,0,1-3.146-1.276,4.771,4.771,0,0,1-1.3-3.564,4.7,4.7,0,0,1,1.287-3.509,4.331,4.331,0,0,1,3.157-1.265A3.7,3.7,0,0,1,125.73,38.168Zm-2.948-.11a2.852,2.852,0,0,0-2.123.891,3.4,3.4,0,0,0-.869,2.475,3.72,3.72,0,0,0,.8,2.475,2.973,2.973,0,0,0,4.4-.033,3.654,3.654,0,0,0,.825-2.42,3.3,3.3,0,0,0-.924-2.508A2.977,2.977,0,0,0,122.782,38.058Z" transform="translate(1321 3690)"/>
    <path id="Path_248769" data-name="Path 248769" d="M.924,0h2.9l1.5-9.042L9.086,0h.968l3.938-9.042L15.312,0h2.9L15.752-14.674H13.684L9.614-5.346,5.72-14.674H3.652ZM30.8,0h3.08L27.742-14.674H25.5L19.184,0h3.1l1.3-3.08H29.5ZM24.486-5.412l2.09-5.28,2.09,5.28ZM35.6-14.674V0H39.38a8.421,8.421,0,0,0,5.368-1.408A7,7,0,0,0,47.7-7.326a7.264,7.264,0,0,0-2.816-5.918,8.546,8.546,0,0,0-5.456-1.43Zm2.86,2.464h.88a5.971,5.971,0,0,1,3.608.968,4.89,4.89,0,0,1,1.8,3.916,4.773,4.773,0,0,1-1.826,3.894,6.14,6.14,0,0,1-3.586.968h-.88Zm11.88-2.464V0H53.2V-5.434h1.848a5.03,5.03,0,0,0,3.718-1.3,4.717,4.717,0,0,0,1.21-3.278,4.675,4.675,0,0,0-1.5-3.542A5.26,5.26,0,0,0,54.6-14.674ZM53.2-12.21h.99a3.444,3.444,0,0,1,2.024.462,2.021,2.021,0,0,1,.814,1.672,2.19,2.19,0,0,1-.792,1.716,2.927,2.927,0,0,1-1.87.462H53.2Z" transform="translate(1714 3145)"/>
    <path id="Path_248768" data-name="Path 248768" d="M-43.934-14.674V0h3.784a8.421,8.421,0,0,0,5.368-1.408,7,7,0,0,0,2.948-5.918,7.264,7.264,0,0,0-2.816-5.918,8.546,8.546,0,0,0-5.456-1.43Zm2.86,2.464h.88a5.971,5.971,0,0,1,3.608.968,4.89,4.89,0,0,1,1.8,3.916,4.773,4.773,0,0,1-1.826,3.894,6.14,6.14,0,0,1-3.586.968h-.88Zm18.788,3.916a3.45,3.45,0,0,0-3.058-1.54,4.764,4.764,0,0,0-4.73,5.06A4.834,4.834,0,0,0-25.212.308a3.417,3.417,0,0,0,2.926-1.54V0H-19.6V-9.526h-2.684Zm-2.376.836a2.59,2.59,0,0,1,2.64,2.684,2.609,2.609,0,0,1-2.64,2.706A2.609,2.609,0,0,1-27.3-4.774,2.59,2.59,0,0,1-24.662-7.458Zm12.144.22V-9.526h-1.848v-3.256H-17.05v3.256h-1.056v2.288h1.056V0h2.684V-7.238Zm8.712-1.056a3.45,3.45,0,0,0-3.058-1.54,4.764,4.764,0,0,0-4.73,5.06A4.834,4.834,0,0,0-6.732.308a3.417,3.417,0,0,0,2.926-1.54V0h2.684V-9.526H-3.806Zm-2.376.836a2.59,2.59,0,0,1,2.64,2.684,2.609,2.609,0,0,1-2.64,2.706,2.609,2.609,0,0,1-2.64-2.706A2.59,2.59,0,0,1-6.182-7.458Zm10.3-8.58H1.43V0H4.114V-1.232A3.6,3.6,0,0,0,7.15.308,4.75,4.75,0,0,0,11.9-4.774c0-2.882-1.87-5.06-4.686-5.06a3.7,3.7,0,0,0-3.1,1.54ZM6.49-7.458A2.59,2.59,0,0,1,9.13-4.774,2.609,2.609,0,0,1,6.49-2.068,2.609,2.609,0,0,1,3.85-4.774,2.59,2.59,0,0,1,6.49-7.458Zm14.784-.836a3.45,3.45,0,0,0-3.058-1.54,4.764,4.764,0,0,0-4.73,5.06A4.834,4.834,0,0,0,18.348.308a3.417,3.417,0,0,0,2.926-1.54V0h2.684V-9.526H21.274ZM18.9-7.458a2.59,2.59,0,0,1,2.64,2.684A2.609,2.609,0,0,1,18.9-2.068a2.609,2.609,0,0,1-2.64-2.706A2.59,2.59,0,0,1,18.9-7.458ZM33.022-8.822a4.751,4.751,0,0,0-3.036-1.012,3.931,3.931,0,0,0-2.486.682A2.83,2.83,0,0,0,26.51-7a2.556,2.556,0,0,0,.726,1.826,5.14,5.14,0,0,0,2.046,1.144l.616.22a1.062,1.062,0,0,1,.836.968c0,.66-.572,1.034-1.32,1.034A2.953,2.953,0,0,1,27.3-2.9L25.894-1.276A4.814,4.814,0,0,0,29.59.308,4,4,0,0,0,32.45-.7a3.166,3.166,0,0,0,1.056-2.42,2.762,2.762,0,0,0-.484-1.584A4.88,4.88,0,0,0,30.6-6.072l-.638-.2c-.748-.242-.858-.616-.858-.858,0-.462.4-.77,1.034-.77A2.228,2.228,0,0,1,31.7-7.26Zm9.262,5.764A2.456,2.456,0,0,1,40.062-1.8a2.268,2.268,0,0,1-1.914-.9,2.811,2.811,0,0,1-.462-1.606h7.128v-.22a5.7,5.7,0,0,0-1.144-3.74,4.553,4.553,0,0,0-3.718-1.562,4.881,4.881,0,0,0-3.586,1.342,5.074,5.074,0,0,0-1.452,3.74,4.8,4.8,0,0,0,1.5,3.718A4.986,4.986,0,0,0,40.062.308a4.706,4.706,0,0,0,4.686-2.97Zm-4.51-2.97a2.242,2.242,0,0,1,2.244-1.914,2.243,2.243,0,0,1,2.266,1.914ZM-62.788,14.326V29h2.86V23.566h1.848a5.03,5.03,0,0,0,3.718-1.3,4.717,4.717,0,0,0,1.21-3.278,4.675,4.675,0,0,0-1.5-3.542,5.26,5.26,0,0,0-3.872-1.122Zm2.86,2.464h.99a3.444,3.444,0,0,1,2.024.462,2.021,2.021,0,0,1,.814,1.672,2.19,2.19,0,0,1-.792,1.716,2.927,2.927,0,0,1-1.87.462h-1.166ZM-51.436,29h2.684V24.424a3.273,3.273,0,0,1,.528-2.112,2.193,2.193,0,0,1,1.782-.77,2.018,2.018,0,0,1,1.254.352l.352-2.508a3.3,3.3,0,0,0-1.144-.22,2.919,2.919,0,0,0-1.584.418,3.213,3.213,0,0,0-1.188,1.32v-1.43h-2.684Zm12.672-9.834a5.482,5.482,0,0,0-3.85,1.342,5.018,5.018,0,0,0-1.606,3.74,5,5,0,0,0,1.606,3.718,5.482,5.482,0,0,0,3.85,1.342,5.482,5.482,0,0,0,3.85-1.342,5,5,0,0,0,1.606-3.718,5.018,5.018,0,0,0-1.606-3.74A5.482,5.482,0,0,0-38.764,19.166Zm0,7.766a2.653,2.653,0,0,1-2.684-2.684,2.658,2.658,0,0,1,2.684-2.706,2.658,2.658,0,0,1,2.684,2.706A2.653,2.653,0,0,1-38.764,26.932Zm14.784-6.226a3.351,3.351,0,0,0-2.992-1.54,4.662,4.662,0,0,0-3.278,1.276,5.3,5.3,0,0,0-1.474,3.784,5.234,5.234,0,0,0,1.518,3.784,4.511,4.511,0,0,0,3.3,1.3,3.339,3.339,0,0,0,2.926-1.584v1.342a2.684,2.684,0,0,1-.682,2.112,2.264,2.264,0,0,1-1.628.594,2.369,2.369,0,0,1-1.628-.506,2.288,2.288,0,0,1-.66-1.144h-2.9a5.278,5.278,0,0,0,1.54,2.838,5.18,5.18,0,0,0,3.564,1.1,5.062,5.062,0,0,0,3.762-1.342A5.459,5.459,0,0,0-21.3,28.56V19.474H-23.98Zm-2.332.836a2.444,2.444,0,0,1,1.87.77,2.713,2.713,0,0,1,.77,1.914,2.807,2.807,0,0,1-.858,2.046,2.7,2.7,0,0,1-1.782.66,2.606,2.606,0,0,1-1.936-.836,2.646,2.646,0,0,1-.7-1.87,2.611,2.611,0,0,1,.858-2.024A2.582,2.582,0,0,1-26.312,21.542ZM-18.744,29h2.684V24.424a3.273,3.273,0,0,1,.528-2.112,2.193,2.193,0,0,1,1.782-.77,2.018,2.018,0,0,1,1.254.352l.352-2.508a3.3,3.3,0,0,0-1.144-.22,2.919,2.919,0,0,0-1.584.418A3.213,3.213,0,0,0-16.06,20.9v-1.43h-2.684Zm15-8.294A3.45,3.45,0,0,0-6.8,19.166a4.764,4.764,0,0,0-4.73,5.06,4.834,4.834,0,0,0,4.862,5.082,3.417,3.417,0,0,0,2.926-1.54V29h2.684V19.474H-3.74Zm-2.376.836a2.59,2.59,0,0,1,2.64,2.684,2.609,2.609,0,0,1-2.64,2.706,2.609,2.609,0,0,1-2.64-2.706A2.59,2.59,0,0,1-6.116,21.542ZM1.5,29H4.18V24.138a3.623,3.623,0,0,1,.374-1.848,1.575,1.575,0,0,1,1.474-.836,1.349,1.349,0,0,1,1.1.484,2.9,2.9,0,0,1,.44,1.87V29h2.684V24.138a3.623,3.623,0,0,1,.374-1.848,1.575,1.575,0,0,1,1.474-.836,1.349,1.349,0,0,1,1.1.484,2.9,2.9,0,0,1,.44,1.87V29h2.684V23.016a4,4,0,0,0-.66-2.684,3.023,3.023,0,0,0-2.574-1.166A3.507,3.507,0,0,0,10.032,20.9a3.15,3.15,0,0,0-3.014-1.738A3.5,3.5,0,0,0,4.18,20.552V19.474H1.5Zm17.38,0H21.56V24.138a3.623,3.623,0,0,1,.374-1.848,1.575,1.575,0,0,1,1.474-.836,1.349,1.349,0,0,1,1.1.484,2.9,2.9,0,0,1,.44,1.87V29h2.684V24.138a3.623,3.623,0,0,1,.374-1.848,1.575,1.575,0,0,1,1.474-.836,1.349,1.349,0,0,1,1.1.484,2.9,2.9,0,0,1,.44,1.87V29H33.7V23.016a4,4,0,0,0-.66-2.684,3.023,3.023,0,0,0-2.574-1.166A3.507,3.507,0,0,0,27.412,20.9,3.15,3.15,0,0,0,24.4,19.166a3.5,3.5,0,0,0-2.838,1.386V19.474H18.876Zm17.38-9.526V29H38.94V19.474Zm-.264-4.026A1.606,1.606,0,1,0,37.6,13.842,1.615,1.615,0,0,0,35.992,15.448ZM41.492,29h2.684V24.138a3.278,3.278,0,0,1,.418-1.848,1.83,1.83,0,0,1,1.65-.836,1.718,1.718,0,0,1,1.254.484A2.73,2.73,0,0,1,48,23.808V29h2.684V23.016a4.013,4.013,0,0,0-.748-2.684,3.642,3.642,0,0,0-2.816-1.166,3.5,3.5,0,0,0-2.948,1.54V19.474H41.492ZM60.5,20.706a3.351,3.351,0,0,0-2.992-1.54,4.662,4.662,0,0,0-3.278,1.276,5.3,5.3,0,0,0-1.474,3.784,5.234,5.234,0,0,0,1.518,3.784,4.511,4.511,0,0,0,3.3,1.3A3.339,3.339,0,0,0,60.5,27.724v1.342a2.684,2.684,0,0,1-.682,2.112,2.264,2.264,0,0,1-1.628.594,2.369,2.369,0,0,1-1.628-.506,2.288,2.288,0,0,1-.66-1.144H53a5.278,5.278,0,0,0,1.54,2.838,5.18,5.18,0,0,0,3.564,1.1,5.062,5.062,0,0,0,3.762-1.342,5.459,5.459,0,0,0,1.32-4.158V19.474H60.5Zm-2.332.836a2.444,2.444,0,0,1,1.87.77,2.713,2.713,0,0,1,.77,1.914,2.807,2.807,0,0,1-.858,2.046,2.7,2.7,0,0,1-1.782.66,2.606,2.606,0,0,1-1.936-.836,2.646,2.646,0,0,1-.7-1.87,2.611,2.611,0,0,1,.858-2.024A2.582,2.582,0,0,1,58.168,21.542Z" transform="translate(1385 3491)"/>
    <path id="Path_248767" data-name="Path 248767" d="M3.058,0H1.386L3.828-15.488,9.46-3.1,15.2-15.51,17.49,0H15.818L14.432-10.208,9.438.616,4.51-10.208Zm24.42-7.832v-1.3h1.584V0H27.478V-1.276A3.757,3.757,0,0,1,24.354.264a4.322,4.322,0,0,1-3.146-1.276,4.771,4.771,0,0,1-1.3-3.564A4.7,4.7,0,0,1,21.2-8.085,4.331,4.331,0,0,1,24.354-9.35,3.7,3.7,0,0,1,27.478-7.832Zm-2.948-.11a2.852,2.852,0,0,0-2.123.891,3.4,3.4,0,0,0-.869,2.475,3.72,3.72,0,0,0,.8,2.475,2.707,2.707,0,0,0,2.189.957,2.731,2.731,0,0,0,2.211-.99,3.654,3.654,0,0,0,.825-2.42,3.3,3.3,0,0,0-.924-2.508A2.977,2.977,0,0,0,24.53-7.942Zm9.108,6.666V5.06H32.054V-9.13h1.584v1.276a3.835,3.835,0,0,1,3.124-1.5,4,4,0,0,1,3.245,1.441,5.148,5.148,0,0,1,1.2,3.4,5.038,5.038,0,0,1-1.188,3.377,3.974,3.974,0,0,1-3.19,1.4A3.821,3.821,0,0,1,33.638-1.276Zm2.97.132a2.664,2.664,0,0,0,2.156-.979,3.61,3.61,0,0,0,.814-2.387,3.436,3.436,0,0,0-.9-2.508,2.836,2.836,0,0,0-2.09-.924,2.907,2.907,0,0,0-2.112.924,3.359,3.359,0,0,0-.924,2.486A3.553,3.553,0,0,0,34.4-2.123,2.784,2.784,0,0,0,36.608-1.144Zm8.6-.132V0H43.626V-16.038H45.21v8.184a3.835,3.835,0,0,1,3.124-1.5,4,4,0,0,1,3.245,1.441,5.148,5.148,0,0,1,1.2,3.4A5.038,5.038,0,0,1,51.59-1.133,3.974,3.974,0,0,1,48.4.264,3.821,3.821,0,0,1,45.21-1.276Zm2.97.132a2.664,2.664,0,0,0,2.156-.979A3.61,3.61,0,0,0,51.15-4.51a3.436,3.436,0,0,0-.9-2.508,2.836,2.836,0,0,0-2.09-.924,2.907,2.907,0,0,0-2.112.924,3.359,3.359,0,0,0-.924,2.486,3.553,3.553,0,0,0,.847,2.409A2.784,2.784,0,0,0,48.18-1.144ZM62.92-1.1A4.681,4.681,0,0,1,59.466.264,4.718,4.718,0,0,1,56-1.1a4.634,4.634,0,0,1-1.375-3.432A4.661,4.661,0,0,1,56-7.986,4.718,4.718,0,0,1,59.466-9.35a4.718,4.718,0,0,1,3.465,1.364,4.661,4.661,0,0,1,1.375,3.454A4.615,4.615,0,0,1,62.92-1.1ZM61.732-7.04a3.12,3.12,0,0,0-2.266-.9,3.137,3.137,0,0,0-2.277.913,3.329,3.329,0,0,0-.935,2.5A3.271,3.271,0,0,0,57.2-2.046a3.168,3.168,0,0,0,2.266.9,3.168,3.168,0,0,0,2.266-.9,3.271,3.271,0,0,0,.946-2.486A3.3,3.3,0,0,0,61.732-7.04ZM65.406,0,69.3-4.884,65.978-9.13h1.936l2.354,3.1,2.4-3.1H74.6L71.258-4.862,75.042,0H73.106L70.224-3.718,67.342,0Z" transform="translate(913 3073)"/>
    <path id="Path_248766" data-name="Path 248766" d="M9.46-5.83V-7.37h6.116v.352a7.617,7.617,0,0,1-1.408,4.642A6.407,6.407,0,0,1,8.712.264,7.355,7.355,0,0,1,3.278-1.925,7.358,7.358,0,0,1,1.1-7.326a7.338,7.338,0,0,1,2.189-5.4,7.418,7.418,0,0,1,5.467-2.189,7.157,7.157,0,0,1,4.488,1.452,8.649,8.649,0,0,1,1.694,1.738l-1.21,1.1a7.734,7.734,0,0,0-1.386-1.518,5.485,5.485,0,0,0-3.564-1.232,5.763,5.763,0,0,0-4.312,1.738A5.962,5.962,0,0,0,2.772-7.3,5.931,5.931,0,0,0,3.7-3.993,5.654,5.654,0,0,0,5.951-1.925a6.273,6.273,0,0,0,2.783.649,5.335,5.335,0,0,0,2.651-.671A4.7,4.7,0,0,0,13.222-3.74a4.431,4.431,0,0,0,.594-2.09ZM25.894-1.1A4.681,4.681,0,0,1,22.44.264,4.718,4.718,0,0,1,18.975-1.1,4.634,4.634,0,0,1,17.6-4.532a4.661,4.661,0,0,1,1.375-3.454A4.718,4.718,0,0,1,22.44-9.35a4.718,4.718,0,0,1,3.465,1.364A4.661,4.661,0,0,1,27.28-4.532,4.615,4.615,0,0,1,25.894-1.1ZM24.706-7.04a3.12,3.12,0,0,0-2.266-.9,3.137,3.137,0,0,0-2.277.913,3.329,3.329,0,0,0-.935,2.5,3.271,3.271,0,0,0,.946,2.486,3.168,3.168,0,0,0,2.266.9,3.168,3.168,0,0,0,2.266-.9,3.271,3.271,0,0,0,.946-2.486A3.3,3.3,0,0,0,24.706-7.04ZM37.422-1.1A4.681,4.681,0,0,1,33.968.264,4.718,4.718,0,0,1,30.5-1.1a4.634,4.634,0,0,1-1.375-3.432A4.661,4.661,0,0,1,30.5-7.986,4.718,4.718,0,0,1,33.968-9.35a4.718,4.718,0,0,1,3.465,1.364,4.661,4.661,0,0,1,1.375,3.454A4.615,4.615,0,0,1,37.422-1.1ZM36.234-7.04a3.12,3.12,0,0,0-2.266-.9,3.137,3.137,0,0,0-2.277.913,3.329,3.329,0,0,0-.935,2.5A3.271,3.271,0,0,0,31.7-2.046a3.168,3.168,0,0,0,2.266.9,3.168,3.168,0,0,0,2.266-.9,3.271,3.271,0,0,0,.946-2.486A3.3,3.3,0,0,0,36.234-7.04Zm11.99-.792v-1.3h1.584V-.22a6.01,6.01,0,0,1-.88,3.586A4.262,4.262,0,0,1,45.276,5.06,4.4,4.4,0,0,1,42.02,3.828,4,4,0,0,1,40.832.88h1.562a2.752,2.752,0,0,0,.7,1.892,2.808,2.808,0,0,0,2.2.88,2.621,2.621,0,0,0,2.42-1.276A4.44,4.44,0,0,0,48.224.044v-1.32A3.757,3.757,0,0,1,45.1.264,4.233,4.233,0,0,1,41.976-.968a4.875,4.875,0,0,1-1.32-3.608,4.787,4.787,0,0,1,1.32-3.542A4.327,4.327,0,0,1,45.1-9.35,3.738,3.738,0,0,1,48.224-7.832Zm-2.948-.11a2.819,2.819,0,0,0-2.068.858,3.435,3.435,0,0,0-.924,2.508,3.454,3.454,0,0,0,1.034,2.684,2.792,2.792,0,0,0,1.958.748,2.708,2.708,0,0,0,2-.77,3.485,3.485,0,0,0,1.034-2.64,3.389,3.389,0,0,0-.968-2.574A2.8,2.8,0,0,0,45.276-7.942Zm7.524-8.1h1.584V0H52.8ZM64.152-3.058l1.32.726A5.224,5.224,0,0,1,64.35-.858,4.393,4.393,0,0,1,61.314.264a4.588,4.588,0,0,1-3.179-1.2A4.568,4.568,0,0,1,56.8-4.51,5.082,5.082,0,0,1,58-7.975,4.06,4.06,0,0,1,61.226-9.35,3.938,3.938,0,0,1,64.68-7.678a5.545,5.545,0,0,1,.858,3.432H58.432A3.155,3.155,0,0,0,59.29-2a2.747,2.747,0,0,0,2.046.858,2.829,2.829,0,0,0,1.87-.66A3.593,3.593,0,0,0,64.152-3.058Zm-5.61-2.508H63.91a2.925,2.925,0,0,0-.935-1.727,2.559,2.559,0,0,0-1.749-.649,2.563,2.563,0,0,0-1.749.671A2.843,2.843,0,0,0,58.542-5.566ZM74.646,0H72.974l2.442-15.488L81.048-3.1,86.79-15.51,89.078,0H87.406L86.02-10.208,81.026.616,76.1-10.208Zm24.42-7.832v-1.3h1.584V0H99.066V-1.276A3.757,3.757,0,0,1,95.942.264,4.322,4.322,0,0,1,92.8-1.012a4.771,4.771,0,0,1-1.3-3.564,4.7,4.7,0,0,1,1.287-3.509A4.331,4.331,0,0,1,95.942-9.35,3.7,3.7,0,0,1,99.066-7.832Zm-2.948-.11a2.852,2.852,0,0,0-2.123.891,3.4,3.4,0,0,0-.869,2.475,3.72,3.72,0,0,0,.8,2.475,2.707,2.707,0,0,0,2.189.957,2.731,2.731,0,0,0,2.211-.99,3.654,3.654,0,0,0,.825-2.42,3.3,3.3,0,0,0-.924-2.508A2.977,2.977,0,0,0,96.118-7.942Zm9.108,6.666V5.06h-1.584V-9.13h1.584v1.276a3.835,3.835,0,0,1,3.124-1.5A4,4,0,0,1,111.6-7.909a5.148,5.148,0,0,1,1.2,3.4,5.038,5.038,0,0,1-1.188,3.377,3.974,3.974,0,0,1-3.19,1.4A3.821,3.821,0,0,1,105.226-1.276Zm2.97.132a2.664,2.664,0,0,0,2.156-.979,3.61,3.61,0,0,0,.814-2.387,3.436,3.436,0,0,0-.9-2.508,2.836,2.836,0,0,0-2.09-.924,2.907,2.907,0,0,0-2.112.924,3.359,3.359,0,0,0-.924,2.486,3.553,3.553,0,0,0,.847,2.409A2.784,2.784,0,0,0,108.2-1.144ZM120.274-7.7l-1.3.682a1.3,1.3,0,0,0-1.276-.924,1.184,1.184,0,0,0-.781.264.942.942,0,0,0-.319.77.824.824,0,0,0,.3.693,6,6,0,0,0,1.177.605A6.017,6.017,0,0,1,120.362-4.2a2.257,2.257,0,0,1,.484,1.474,2.8,2.8,0,0,1-.891,2.189,3.241,3.241,0,0,1-2.255.8,3.267,3.267,0,0,1-.572-.055,5.99,5.99,0,0,1-.847-.242,2.534,2.534,0,0,1-1.023-.715,3.614,3.614,0,0,1-.748-1.32l1.364-.572a1.927,1.927,0,0,0,1.848,1.5,1.4,1.4,0,0,0,1.111-.44,1.492,1.492,0,0,0,.385-1.012,1.36,1.36,0,0,0-.1-.539,1.016,1.016,0,0,0-.33-.407,3.173,3.173,0,0,0-.44-.286q-.209-.11-.6-.286a6.42,6.42,0,0,1-2.222-1.342A2.1,2.1,0,0,1,115.1-6.8a2.422,2.422,0,0,1,.737-1.87,2.722,2.722,0,0,1,1.925-.682A2.6,2.6,0,0,1,120.274-7.7Z" transform="translate(1035 3073)"/>
    <path id="Path_248765" data-name="Path 248765" d="M13.112-13.464v2.024A6.754,6.754,0,0,0,11.2-12.8a6.046,6.046,0,0,0-2.53-.572A5.57,5.57,0,0,0,4.455-11.6,6.069,6.069,0,0,0,2.772-7.26,5.515,5.515,0,0,0,4.609-2.882,6.054,6.054,0,0,0,8.69-1.276a5.873,5.873,0,0,0,2.728-.682A6.5,6.5,0,0,0,13.112-3.19v2.024A7.438,7.438,0,0,1,8.69.264,7.338,7.338,0,0,1,3.267-1.914,7.314,7.314,0,0,1,1.1-7.282a7.382,7.382,0,0,1,2.189-5.456,7.465,7.465,0,0,1,5.489-2.178A6.986,6.986,0,0,1,13.112-13.464ZM22.7-7.832v-1.3h1.584V0H22.7V-1.276A3.757,3.757,0,0,1,19.58.264a4.322,4.322,0,0,1-3.146-1.276,4.771,4.771,0,0,1-1.3-3.564,4.7,4.7,0,0,1,1.287-3.509A4.331,4.331,0,0,1,19.58-9.35,3.7,3.7,0,0,1,22.7-7.832Zm-2.948-.11a2.852,2.852,0,0,0-2.123.891,3.4,3.4,0,0,0-.869,2.475,3.72,3.72,0,0,0,.8,2.475,2.707,2.707,0,0,0,2.189.957,2.731,2.731,0,0,0,2.211-.99,3.654,3.654,0,0,0,.825-2.42,3.3,3.3,0,0,0-.924-2.508A2.977,2.977,0,0,0,19.756-7.942ZM27.28,0V-9.13h1.584v.99a2.351,2.351,0,0,1,2.068-1.21,3.162,3.162,0,0,1,1.408.374l-.748,1.43a1.587,1.587,0,0,0-.924-.308,1.512,1.512,0,0,0-1.276.572,4.259,4.259,0,0,0-.528,2.464V0ZM37.444-7.678H35.86V0H34.276V-7.678h-.968V-9.13h.968v-3.3H35.86v3.3h1.584ZM46.662-1.1A4.681,4.681,0,0,1,43.208.264,4.718,4.718,0,0,1,39.743-1.1a4.634,4.634,0,0,1-1.375-3.432,4.661,4.661,0,0,1,1.375-3.454A4.718,4.718,0,0,1,43.208-9.35a4.718,4.718,0,0,1,3.465,1.364,4.661,4.661,0,0,1,1.375,3.454A4.615,4.615,0,0,1,46.662-1.1ZM45.474-7.04a3.12,3.12,0,0,0-2.266-.9,3.137,3.137,0,0,0-2.277.913A3.329,3.329,0,0,0,40-4.532a3.271,3.271,0,0,0,.946,2.486,3.168,3.168,0,0,0,2.266.9,3.168,3.168,0,0,0,2.266-.9,3.271,3.271,0,0,0,.946-2.486A3.3,3.3,0,0,0,45.474-7.04Z" transform="translate(1215 3073)"/>
    <path id="Path_248764" data-name="Path 248764" d="M14.146-1.914A7.394,7.394,0,0,1,8.734.264,7.431,7.431,0,0,1,3.311-1.914,7.291,7.291,0,0,1,1.1-7.326a7.263,7.263,0,0,1,2.222-5.423,7.461,7.461,0,0,1,5.412-2.167,7.461,7.461,0,0,1,5.412,2.167,7.263,7.263,0,0,1,2.222,5.423A7.273,7.273,0,0,1,14.146-1.914Zm-1.188-9.7a5.714,5.714,0,0,0-4.224-1.76,5.714,5.714,0,0,0-4.224,1.76,5.876,5.876,0,0,0-1.738,4.29A5.876,5.876,0,0,0,4.51-3.036a5.714,5.714,0,0,0,4.224,1.76,5.714,5.714,0,0,0,4.224-1.76A5.876,5.876,0,0,0,14.7-7.326,5.876,5.876,0,0,0,12.958-11.616ZM24.024-7.7l-1.3.682a1.3,1.3,0,0,0-1.276-.924,1.184,1.184,0,0,0-.781.264.942.942,0,0,0-.319.77.824.824,0,0,0,.3.693,6,6,0,0,0,1.177.605A6.017,6.017,0,0,1,24.112-4.2,2.257,2.257,0,0,1,24.6-2.728,2.8,2.8,0,0,1,23.7-.539a3.241,3.241,0,0,1-2.255.8,3.267,3.267,0,0,1-.572-.055,5.991,5.991,0,0,1-.847-.242,2.534,2.534,0,0,1-1.023-.715,3.614,3.614,0,0,1-.748-1.32l1.364-.572a1.927,1.927,0,0,0,1.848,1.5,1.4,1.4,0,0,0,1.111-.44A1.492,1.492,0,0,0,22.968-2.6a1.36,1.36,0,0,0-.1-.539,1.016,1.016,0,0,0-.33-.407,3.174,3.174,0,0,0-.44-.286q-.209-.11-.605-.286a6.42,6.42,0,0,1-2.222-1.342A2.1,2.1,0,0,1,18.854-6.8a2.422,2.422,0,0,1,.737-1.87,2.722,2.722,0,0,1,1.925-.682A2.6,2.6,0,0,1,24.024-7.7ZM26.708,0V-9.13h1.584v.968A2.6,2.6,0,0,1,30.558-9.35a2.692,2.692,0,0,1,2.486,1.474,3.069,3.069,0,0,1,2.75-1.474q2.97,0,2.97,3.564V0H37.18V-5.544A6.75,6.75,0,0,0,37.1-6.655a1.715,1.715,0,0,0-.462-.869,1.406,1.406,0,0,0-1.089-.418q-2.024,0-2.024,2.86V0H31.944V-5.412q0-2.53-1.65-2.53-2,0-2,2.97V0Z" transform="translate(1359 3073)"/>
    <path id="Path_248763" data-name="Path 248763" d="M-40.4-14.674V0h7.392V-2.464h-4.532v-12.21Zm13.948,4.84a5.482,5.482,0,0,0-3.85,1.342,5.018,5.018,0,0,0-1.606,3.74,5,5,0,0,0,1.606,3.718A5.482,5.482,0,0,0-26.455.308a5.482,5.482,0,0,0,3.85-1.342A5,5,0,0,0-21-4.752a5.018,5.018,0,0,0-1.606-3.74A5.482,5.482,0,0,0-26.455-9.834Zm0,7.766a2.653,2.653,0,0,1-2.684-2.684,2.658,2.658,0,0,1,2.684-2.706,2.658,2.658,0,0,1,2.684,2.706A2.653,2.653,0,0,1-26.455-2.068Zm14.7-7.194a5.683,5.683,0,0,0-2.574-.572A5.074,5.074,0,0,0-17.765-8.6a5.089,5.089,0,0,0-1.65,3.872A4.891,4.891,0,0,0-17.9-1.078,5.377,5.377,0,0,0-14.223.308a5.44,5.44,0,0,0,2.464-.594V-2.9a3.108,3.108,0,0,1-2.112.836,2.653,2.653,0,0,1-2.772-2.706,2.56,2.56,0,0,1,2.684-2.684,3.1,3.1,0,0,1,2.2.836Zm9.328.968a3.45,3.45,0,0,0-3.058-1.54,4.764,4.764,0,0,0-4.73,5.06A4.834,4.834,0,0,0-5.357.308a3.417,3.417,0,0,0,2.926-1.54V0H.253V-9.526H-2.431Zm-2.376.836a2.59,2.59,0,0,1,2.64,2.684,2.609,2.609,0,0,1-2.64,2.706,2.609,2.609,0,0,1-2.64-2.706A2.59,2.59,0,0,1-4.807-7.458Zm12.144.22V-9.526H5.489v-3.256H2.8v3.256H1.749v2.288H2.8V0H5.489V-7.238ZM8.745-9.526V0h2.684V-9.526Zm-.264-4.026a1.615,1.615,0,0,0,1.606,1.606,1.615,1.615,0,0,0,1.606-1.606,1.615,1.615,0,0,0-1.606-1.606A1.615,1.615,0,0,0,8.481-13.552ZM18.953-9.834A5.482,5.482,0,0,0,15.1-8.492,5.018,5.018,0,0,0,13.5-4.752,5,5,0,0,0,15.1-1.034,5.482,5.482,0,0,0,18.953.308,5.482,5.482,0,0,0,22.8-1.034a5,5,0,0,0,1.606-3.718A5.018,5.018,0,0,0,22.8-8.492,5.482,5.482,0,0,0,18.953-9.834Zm0,7.766a2.653,2.653,0,0,1-2.684-2.684,2.658,2.658,0,0,1,2.684-2.706,2.658,2.658,0,0,1,2.684,2.706A2.653,2.653,0,0,1,18.953-2.068ZM26.477,0h2.684V-4.862a3.278,3.278,0,0,1,.418-1.848,1.83,1.83,0,0,1,1.65-.836,1.718,1.718,0,0,1,1.254.484,2.73,2.73,0,0,1,.506,1.87V0h2.684V-5.984a4.013,4.013,0,0,0-.748-2.684,3.642,3.642,0,0,0-2.816-1.166,3.5,3.5,0,0,0-2.948,1.54V-9.526H26.477ZM-108.13,12.326V27h2.86V12.326ZM-102.322,27h2.684V22.138a3.278,3.278,0,0,1,.418-1.848,1.83,1.83,0,0,1,1.65-.836,1.718,1.718,0,0,1,1.254.484,2.73,2.73,0,0,1,.506,1.87V27h2.684V21.016a4.013,4.013,0,0,0-.748-2.684,3.642,3.642,0,0,0-2.816-1.166,3.5,3.5,0,0,0-2.948,1.54V17.474h-2.684Zm16.28-7.238V17.474H-87.89V14.218h-2.684v3.256H-91.63v2.288h1.056V27h2.684V19.762Zm8.294,4.18A2.456,2.456,0,0,1-79.97,25.2a2.268,2.268,0,0,1-1.914-.9,2.811,2.811,0,0,1-.462-1.606h7.128v-.22a5.7,5.7,0,0,0-1.144-3.74,4.553,4.553,0,0,0-3.718-1.562,4.881,4.881,0,0,0-3.586,1.342,5.074,5.074,0,0,0-1.452,3.74,4.8,4.8,0,0,0,1.5,3.718,4.986,4.986,0,0,0,3.652,1.342,4.706,4.706,0,0,0,4.686-2.97Zm-4.51-2.97a2.242,2.242,0,0,1,2.244-1.914,2.244,2.244,0,0,1,2.266,1.914Zm9.108-10.01V27h2.684V10.962Zm5.236,0V27h2.684V10.962Zm5.236,6.512V27h2.684V17.474Zm-.264-4.026a1.615,1.615,0,0,0,1.606,1.606,1.615,1.615,0,0,0,1.606-1.606,1.615,1.615,0,0,0-1.606-1.606A1.615,1.615,0,0,0-62.942,13.448Zm12.76,5.258a3.351,3.351,0,0,0-2.992-1.54,4.662,4.662,0,0,0-3.278,1.276,5.3,5.3,0,0,0-1.474,3.784,5.234,5.234,0,0,0,1.518,3.784,4.511,4.511,0,0,0,3.3,1.3,3.339,3.339,0,0,0,2.926-1.584v1.342a2.684,2.684,0,0,1-.682,2.112,2.264,2.264,0,0,1-1.628.594,2.369,2.369,0,0,1-1.628-.506,2.288,2.288,0,0,1-.66-1.144h-2.9a5.278,5.278,0,0,0,1.54,2.838,5.18,5.18,0,0,0,3.564,1.1,5.062,5.062,0,0,0,3.762-1.342A5.459,5.459,0,0,0-47.5,26.56V17.474h-2.684Zm-2.332.836a2.444,2.444,0,0,1,1.87.77,2.713,2.713,0,0,1,.77,1.914,2.807,2.807,0,0,1-.858,2.046,2.7,2.7,0,0,1-1.782.66A2.606,2.606,0,0,1-54.45,24.1a2.646,2.646,0,0,1-.7-1.87A2.611,2.611,0,0,1-54.3,20.2,2.582,2.582,0,0,1-52.514,19.542Zm14.454,4.4A2.456,2.456,0,0,1-40.282,25.2a2.268,2.268,0,0,1-1.914-.9,2.811,2.811,0,0,1-.462-1.606h7.128v-.22a5.7,5.7,0,0,0-1.144-3.74,4.553,4.553,0,0,0-3.718-1.562,4.881,4.881,0,0,0-3.586,1.342,5.074,5.074,0,0,0-1.452,3.74,4.8,4.8,0,0,0,1.5,3.718,4.986,4.986,0,0,0,3.652,1.342,4.706,4.706,0,0,0,4.686-2.97Zm-4.51-2.97a2.242,2.242,0,0,1,2.244-1.914,2.243,2.243,0,0,1,2.266,1.914ZM-33.462,27h2.684V22.138a3.278,3.278,0,0,1,.418-1.848,1.83,1.83,0,0,1,1.65-.836,1.718,1.718,0,0,1,1.254.484,2.73,2.73,0,0,1,.506,1.87V27h2.684V21.016a4.013,4.013,0,0,0-.748-2.684,3.642,3.642,0,0,0-2.816-1.166,3.5,3.5,0,0,0-2.948,1.54V17.474h-2.684Zm18.92-9.262a5.684,5.684,0,0,0-2.574-.572A5.074,5.074,0,0,0-20.548,18.4,5.089,5.089,0,0,0-22.2,22.27a4.891,4.891,0,0,0,1.518,3.652,5.377,5.377,0,0,0,3.674,1.386,5.44,5.44,0,0,0,2.464-.594V24.1a3.108,3.108,0,0,1-2.112.836,2.653,2.653,0,0,1-2.772-2.706,2.56,2.56,0,0,1,2.684-2.684,3.1,3.1,0,0,1,2.2.836Zm8.91,6.2A2.456,2.456,0,0,1-7.854,25.2a2.268,2.268,0,0,1-1.914-.9,2.811,2.811,0,0,1-.462-1.606H-3.1v-.22a5.7,5.7,0,0,0-1.144-3.74,4.553,4.553,0,0,0-3.718-1.562,4.881,4.881,0,0,0-3.586,1.342A5.074,5.074,0,0,0-13,22.248a4.8,4.8,0,0,0,1.5,3.718,4.986,4.986,0,0,0,3.652,1.342,4.706,4.706,0,0,0,4.686-2.97Zm-4.51-2.97A2.242,2.242,0,0,1-7.9,19.058a2.243,2.243,0,0,1,2.266,1.914Zm25.674-1.1A16.966,16.966,0,0,1,13.706,21.9l-2.42-2.772.616-.374a3.793,3.793,0,0,0,2.068-3.256c0-1.8-1.386-3.5-3.938-3.5C7.3,12,5.984,13.822,5.984,15.648a4.627,4.627,0,0,0,1.474,3.08l-1.144.682A4.412,4.412,0,0,0,3.96,23.128a4.251,4.251,0,0,0,4.6,4.2,7.257,7.257,0,0,0,4.73-1.98L14.718,27H18.26l-2.97-3.366.33-.33A16.442,16.442,0,0,0,17.2,21.522Zm-3.85,3.674a4.137,4.137,0,0,1-2.706,1.276A2.01,2.01,0,0,1,6.82,22.886c0-1.122.968-1.936,2.09-2.53Zm-2.4-6.732a2.238,2.238,0,0,1-.616-1.386,1.365,1.365,0,0,1,1.5-1.364,1.364,1.364,0,0,1,1.43,1.452,1.982,1.982,0,0,1-1.012,1.628l-.66.462ZM24.486,27h2.9l1.5-9.042L32.648,27h.968l3.938-9.042L38.874,27h2.9L39.314,12.326H37.246l-4.07,9.328-3.894-9.328H27.214Zm26.8-8.294a3.45,3.45,0,0,0-3.058-1.54,4.764,4.764,0,0,0-4.73,5.06,4.834,4.834,0,0,0,4.862,5.082,3.417,3.417,0,0,0,2.926-1.54V27h2.684V17.474H51.282Zm-2.376.836a2.7,2.7,0,1,1-2.64,2.684A2.59,2.59,0,0,1,48.906,19.542Zm10.3,6.226a3.611,3.611,0,0,0,3.058,1.54,4.67,4.67,0,0,0,3.234-1.232,5.094,5.094,0,0,0,1.5-3.85,5.141,5.141,0,0,0-1.43-3.784A4.553,4.553,0,0,0,62.3,17.166a3.624,3.624,0,0,0-3.1,1.54V17.474H56.518V32.038H59.2Zm2.376-6.226a2.8,2.8,0,0,1,1.826.682,2.868,2.868,0,0,1,.814,2,2.793,2.793,0,0,1-.836,2.024,2.546,2.546,0,0,1-1.8.682,2.608,2.608,0,0,1-1.76-.638,2.706,2.706,0,0,1-.88-2.068,2.528,2.528,0,0,1,.9-2.046A2.428,2.428,0,0,1,61.578,19.542Zm10.164,6.226a3.611,3.611,0,0,0,3.058,1.54,4.67,4.67,0,0,0,3.234-1.232,5.094,5.094,0,0,0,1.5-3.85,5.141,5.141,0,0,0-1.43-3.784,4.553,4.553,0,0,0-3.256-1.276,3.624,3.624,0,0,0-3.1,1.54V17.474H69.058V32.038h2.684Zm2.376-6.226a2.8,2.8,0,0,1,1.826.682,2.868,2.868,0,0,1,.814,2,2.793,2.793,0,0,1-.836,2.024,2.546,2.546,0,0,1-1.8.682,2.608,2.608,0,0,1-1.76-.638,2.706,2.706,0,0,1-.88-2.068,2.528,2.528,0,0,1,.9-2.046A2.428,2.428,0,0,1,74.118,19.542Zm7.48-2.068V27h2.684V17.474Zm-.264-4.026a1.606,1.606,0,1,0,1.606-1.606A1.615,1.615,0,0,0,81.334,13.448ZM86.834,27h2.684V22.138a3.278,3.278,0,0,1,.418-1.848,1.83,1.83,0,0,1,1.65-.836,1.718,1.718,0,0,1,1.254.484,2.73,2.73,0,0,1,.506,1.87V27H96.03V21.016a4.013,4.013,0,0,0-.748-2.684,3.642,3.642,0,0,0-2.816-1.166,3.5,3.5,0,0,0-2.948,1.54V17.474H86.834Zm19.008-8.294a3.351,3.351,0,0,0-2.992-1.54,4.662,4.662,0,0,0-3.278,1.276A5.3,5.3,0,0,0,98.1,22.226a5.234,5.234,0,0,0,1.518,3.784,4.511,4.511,0,0,0,3.3,1.3,3.339,3.339,0,0,0,2.926-1.584v1.342a2.684,2.684,0,0,1-.682,2.112,2.264,2.264,0,0,1-1.628.594,2.369,2.369,0,0,1-1.628-.506,2.288,2.288,0,0,1-.66-1.144h-2.9a5.278,5.278,0,0,0,1.54,2.838,5.18,5.18,0,0,0,3.564,1.1,5.062,5.062,0,0,0,3.762-1.342,5.459,5.459,0,0,0,1.32-4.158V17.474h-2.684Zm-2.332.836a2.444,2.444,0,0,1,1.87.77,2.713,2.713,0,0,1,.77,1.914,2.807,2.807,0,0,1-.858,2.046,2.7,2.7,0,0,1-1.782.66,2.606,2.606,0,0,1-1.936-.836,2.646,2.646,0,0,1-.7-1.87,2.611,2.611,0,0,1,.858-2.024A2.582,2.582,0,0,1,103.51,19.542Z" transform="translate(756 3060)"/>
    <line id="Line_917" data-name="Line 917" x2="576" transform="translate(1311.5 3173.5)" fill="none" stroke="#000" stroke-width="1"/>
    <line id="Line_919" data-name="Line 919" x2="1254.5" transform="translate(634.5 3605.927)" fill="none" stroke="#000" stroke-width="1"/>
    <line id="Line_939" data-name="Line 939" x2="1254.5" transform="translate(634 3769)" fill="none" stroke="#000" stroke-width="1"/>
    <line id="Line_936" data-name="Line 936" x2="1254.5" transform="translate(633 3030.5)" fill="none" stroke="#000" stroke-width="1"/>
    <line id="Line_937" data-name="Line 937" x2="822.5" transform="translate(633 3102.5)" fill="none" stroke="#000" stroke-width="1"/>
    <line id="Line_921" data-name="Line 921" y2="163" transform="translate(634.5 3605.5)" fill="none" stroke="#000" stroke-width="1"/>
    <line id="Line_922" data-name="Line 922" y2="105.5" transform="translate(737.5 3664.5)" fill="none" stroke="#000" stroke-width="1" stroke-dasharray="2"/>
    <line id="Line_923" data-name="Line 923" y2="105.5" transform="translate(839.5 3664.5)" fill="none" stroke="#000" stroke-width="1" stroke-dasharray="2"/>
    <line id="Line_926" data-name="Line 926" y2="105.5" transform="translate(1044.5 3664.5)" fill="none" stroke="#000" stroke-width="1" stroke-dasharray="2"/>
    <line id="Line_941" data-name="Line 941" y2="104.5" transform="translate(1312.5 3664.5)" fill="none" stroke="#000" stroke-width="1" stroke-dasharray="2"/>
    <line id="Line_933" data-name="Line 933" y2="106" transform="translate(1745.5 3663.5)" fill="none" stroke="#000" stroke-width="1" stroke-dasharray="2"/>
    <line id="Line_924" data-name="Line 924" y2="163" transform="translate(942.5 3605.5)" fill="none" stroke="#000" stroke-width="1"/>
    <line id="Line_920" data-name="Line 920" x2="1255.5" transform="translate(634 3663.5)" fill="none" stroke="#000" stroke-width="1"/>
    <line id="Line_918" data-name="Line 918" x2="577" transform="translate(1312 3317)" fill="none" stroke="#000" stroke-width="1"/>
    <rect id="Rectangle_10920" data-name="Rectangle 10920" width="144" height="144" transform="translate(1456 3317)" fill="#333"/>
    <g id="g4367" transform="translate(1472 3332)">
      <path id="path5016" d="M-908.817-148.33c0,31.777-25.1,57.537-56.061,57.537s-56.061-25.76-56.061-57.537,25.1-57.537,56.061-57.537S-908.817-180.107-908.817-148.33Z" transform="translate(1020.939 205.867)" fill="#333"/>
      <path id="path4846" d="M-55.121-76.25c-27.091,0-49.057,22.545-49.057,50.349s21.966,50.34,49.057,50.34S-6.073,1.9-6.073-25.9-28.031-76.25-55.121-76.25Zm3.252,5.552c12.771.018,12.06,13.839,11.98,21.287-.052,4.88,2.573,8.173,5.261,11.653A43.276,43.276,0,0,1-27.283-25.69a19.2,19.2,0,0,1,.593,12.811,4.2,4.2,0,0,1,1.276.8s.006,0,.008,0a6.444,6.444,0,0,1,1.671,3.634A7.993,7.993,0,0,0-22.6-5.248v.009c1.739,1.982,2.494,3.461,2.421,4.783a3.881,3.881,0,0,1-2.2,2.958c-2.35,1.455-5.9,2.557-8.036,5.214l-.412-.346.412.355a11.46,11.46,0,0,1-7.616,4.521,6.315,6.315,0,0,1-6.365-3.718s0-.013,0-.017a4.8,4.8,0,0,1-.4-1.082c-3.392.193-6.335-.863-8.695-.668-3.479.2-5.653,1.063-7.633,1.073a5.747,5.747,0,0,1-4.084,3.27,13.018,13.018,0,0,1-8.835-1.673V9.422c-2.923-1.59-6.632-1.441-9.37-2.028A4.23,4.23,0,0,1-86.583,5.4c-.588-1.175-.481-2.8.354-5.138A8.625,8.625,0,0,0-86.36-3.1a6.349,6.349,0,0,1,.255-3.93V-7.04A4.851,4.851,0,0,1-83.182-9.38,6.89,6.89,0,0,0-80.5-10.724c.721-.783,1.372-1.947,2.248-2.907.117-.128.233-.253.362-.372a19.182,19.182,0,0,1,.972-8.645c1.99-6.134,6.2-12.026,9.181-15.667a19.044,19.044,0,0,0,3.549-10.479c.212-5.182-3.575-20.657,10.7-21.836.565-.046,1.1-.068,1.622-.068Zm1.7,11.476a3.133,3.133,0,0,0-1.993.735,4.7,4.7,0,0,0-1.457,1.952,6.286,6.286,0,0,0-.511,2.653v.076a7.443,7.443,0,0,0,.058.786,8.413,8.413,0,0,1,1.828.7,4.389,4.389,0,0,1-.058-.828.323.323,0,0,1,.008-.059,4.114,4.114,0,0,1,.288-1.454A2.576,2.576,0,0,1-51.3-55.7a1.291,1.291,0,0,1,.873-.355.362.362,0,0,1,.049,0,1.269,1.269,0,0,1,.9.423,2.6,2.6,0,0,1,.634,1.09,4.115,4.115,0,0,1,.206,1.4c0,.025-.008.038-.008.059a4.1,4.1,0,0,1-.3,1.445,2.852,2.852,0,0,1-.428.752c.459.163,1.011.369,1.729.685.1.044.208.088.3.135a5.186,5.186,0,0,0,.725-1.242,6.387,6.387,0,0,0,.519-2.653.3.3,0,0,1-.008-.076,6.287,6.287,0,0,0-.56-2.569,4.628,4.628,0,0,0-1.49-1.927,3.156,3.156,0,0,0-1.976-.693h-.041Zm-10,.811a2.061,2.061,0,0,0-1.408.7,3.989,3.989,0,0,0-.963,1.732,6.527,6.527,0,0,0-.272,2.315v.009a6.5,6.5,0,0,0,.519,2.265,4.2,4.2,0,0,0,.939,1.42l.445-.338c.2-.147.305-.234.543-.423-.038-.027-.077-.059-.115-.093a2.164,2.164,0,0,1-.552-.837,3.831,3.831,0,0,1-.28-1.141v-.051a3.8,3.8,0,0,1,.074-1.217,2.248,2.248,0,0,1,.4-.93.906.906,0,0,1,.642-.38.642.642,0,0,1,.066,0,.887.887,0,0,1,.618.262,2.186,2.186,0,0,1,.56.837,3.969,3.969,0,0,1,.28,1.141.218.218,0,0,0,0,.051,3.791,3.791,0,0,1-.016.887,6.025,6.025,0,0,1,1.375-.693c.091-.032.185-.065.28-.093A7,7,0,0,0-57.032-54a6.415,6.415,0,0,0-.51-2.265A4.054,4.054,0,0,0-58.7-57.878a2.054,2.054,0,0,0-1.35-.532c-.041,0-.082,0-.123,0Zm4.627,5.822a4.726,4.726,0,0,0-1.573.279,7.765,7.765,0,0,0-2.832,2.037,6.815,6.815,0,0,1-.6.473c-.349.263-.876.654-1.63,1.234a1.714,1.714,0,0,0-.659,1.977,4.743,4.743,0,0,0,2.33,2.476v.009a16.714,16.714,0,0,1,2.067,1.724,4.154,4.154,0,0,0,2.6,1.039,5.735,5.735,0,0,0,3.409-.9,15.432,15.432,0,0,1,2.627-1.513v-.009a5.546,5.546,0,0,0,3.59-2.924,1.971,1.971,0,0,0-.041-1.606,3.011,3.011,0,0,0-1.622-1.335,24.827,24.827,0,0,1-3.573-1.513,7.4,7.4,0,0,0-4.084-1.445l-.008-.009Zm7.822,4.758.033.617a3.833,3.833,0,0,0-1.317.549c-.564.323-1.229.75-1.96,1.183a10.2,10.2,0,0,1-5.023,1.741,6.833,6.833,0,0,1-4.314-1.707c-.52-.423-.95-.844-1.268-1.149-.159-.153-.29-.279-.387-.355a.5.5,0,0,0-.123-.068c-.006,0,.009,0,.025-.161l.016-.473a.65.65,0,0,1,.453.2c.131.1.274.241.436.4.324.312.735.715,1.227,1.115a6.237,6.237,0,0,0,3.936,1.58,9.762,9.762,0,0,0,4.718-1.665c.717-.424,1.38-.855,1.968-1.192a3.887,3.887,0,0,1,1.581-.617Zm1.63,2.248a6.724,6.724,0,0,1-3.524,2.425,17.182,17.182,0,0,0-2.5,1.462,6.418,6.418,0,0,1-3.755.989,4.851,4.851,0,0,1-2.948-1.183,18.258,18.258,0,0,0-1.993-1.673c-.25-.146-.808-.537-.972-.659-.317,6.13-4.3,13.827-6.208,18.262A28.623,28.623,0,0,0-70.189-16c-3.441-4.708-.924-10.747.42-13.36,1.5-2.859,1.731-3.638,1.367-3.363a34.251,34.251,0,0,0-4.29,9.583,11.153,11.153,0,0,0,.041,5.7,8.754,8.754,0,0,0,3.886,4.842A21.51,21.51,0,0,1-62.73-7.318C-61.564-5.7-61.2-4.284-61.56-3.279a1.978,1.978,0,0,1-1.07,1.132,3.681,3.681,0,0,1-1.556.3c.312.4.625.807.93,1.217.478.642.937,1.295,1.342,1.952C-55.942,5.51-48.909,3.9-43.841.194a25.767,25.767,0,0,0,1.079-4.7,36.448,36.448,0,0,1,.692-6.473,6.008,6.008,0,0,1,2.684-4.107,4.493,4.493,0,0,1,.692-.321c.016-.153.039-.308.066-.456.417-2.833,2.884-2.969,5.978-1.572,2.983,1.385,4.1,2.593,3.6,4.234a.494.494,0,0,1,.058,0c.2,0,.4-.008.6,0,.62-2.07-.669-3.588-4.158-5.332-.234-.114-.464-.216-.692-.313a12.536,12.536,0,0,0-.066-5.78,20.031,20.031,0,0,0-5.566-9.558c-.368-.016-.33.318.412,1.056,1.837,1.735,5.854,7.965,3.68,13.749a6.133,6.133,0,0,0-1.729-.228,36.754,36.754,0,0,0-3.722-10.47A85,85,0,0,1-46.1-45.583Zm9.946,28.191a1.662,1.662,0,0,0-1.754,1.7c-.253,1.743.508,4.049,2.067,4.462,1.528.428,3.761-1.195,4.282-2.214.618-1.351-.091-2.274-2.355-3.346a5.564,5.564,0,0,0-2.24-.6Zm-2.569,3.186c-.052.026-.1.055-.156.085a4.877,4.877,0,0,0-2.157,3.414,36.189,36.189,0,0,0-.659,6.27v.009a39.959,39.959,0,0,1-1.564,6.575c-.6,2.3-.9,4.482-.189,5.865l.008.009v.009a5.135,5.135,0,0,0,5.319,3.127,10.488,10.488,0,0,0,6.883-4.141c2.407-2.992,6.173-4.134,8.3-5.451C-21.872.9-21.293.3-21.247-.515s-.5-2.1-2.157-3.989v-.009A8.176,8.176,0,0,1-24.788-8.2a5.726,5.726,0,0,0-1.317-3.042h-.008a3.646,3.646,0,0,0-2.857-.862c-.229.006-.467.015-.708.025-1.21,1.428-4.072,3.183-6.06,2.645-1.817-.47-2.853-2.644-2.981-4.775Zm-36.517.161a2.92,2.92,0,0,0-2.231,1.166c-.753.825-1.4,1.988-2.256,2.915v.009h-.008A7.409,7.409,0,0,1-82.82-8.349a3.653,3.653,0,0,0-2.33,1.825l-.008.009A5.612,5.612,0,0,0-85.29-3.27,8.725,8.725,0,0,1-85.208.608V.634C-86,2.855-86,4.155-85.628,4.9a3.208,3.208,0,0,0,2.437,1.411c2.494.535,6.382.362,9.65,2.138a12.111,12.111,0,0,0,8.094,1.589,4.576,4.576,0,0,0,3.8-4.5V5.518C-61.5,4-62.644,2.016-64.113.042s-3.2-3.9-4.018-5.662v-.009a35.4,35.4,0,0,0-3.1-5.772,5.532,5.532,0,0,0-3.442-2.594,3.634,3.634,0,0,0-.535-.051h-.033Z" transform="translate(111.187 83.442)" fill="#fff"/>
    </g>
    <path id="Path_248762" data-name="Path 248762" d="M1.672-14.674V0h2.86V-5.434H6.38a5.03,5.03,0,0,0,3.718-1.3,4.717,4.717,0,0,0,1.21-3.278,4.675,4.675,0,0,0-1.5-3.542A5.26,5.26,0,0,0,5.94-14.674Zm2.86,2.464h.99a3.444,3.444,0,0,1,2.024.462,2.021,2.021,0,0,1,.814,1.672A2.19,2.19,0,0,1,7.568-8.36,2.927,2.927,0,0,1,5.7-7.9H4.532ZM13.024,0h2.684V-4.576a3.273,3.273,0,0,1,.528-2.112,2.193,2.193,0,0,1,1.782-.77,2.018,2.018,0,0,1,1.254.352l.352-2.508a3.3,3.3,0,0,0-1.144-.22,2.919,2.919,0,0,0-1.584.418A3.213,3.213,0,0,0,15.708-8.1v-1.43H13.024ZM25.7-9.834a5.482,5.482,0,0,0-3.85,1.342,5.018,5.018,0,0,0-1.606,3.74,5,5,0,0,0,1.606,3.718A5.482,5.482,0,0,0,25.7.308a5.482,5.482,0,0,0,3.85-1.342,5,5,0,0,0,1.606-3.718,5.018,5.018,0,0,0-1.606-3.74A5.482,5.482,0,0,0,25.7-9.834Zm0,7.766a2.653,2.653,0,0,1-2.684-2.684A2.658,2.658,0,0,1,25.7-7.458,2.658,2.658,0,0,1,28.38-4.752,2.653,2.653,0,0,1,25.7-2.068ZM40.48-8.294a3.351,3.351,0,0,0-2.992-1.54A4.662,4.662,0,0,0,34.21-8.558a5.3,5.3,0,0,0-1.474,3.784A5.234,5.234,0,0,0,34.254-.99a4.511,4.511,0,0,0,3.3,1.3A3.339,3.339,0,0,0,40.48-1.276V.066A2.684,2.684,0,0,1,39.8,2.178a2.264,2.264,0,0,1-1.628.594,2.369,2.369,0,0,1-1.628-.506,2.288,2.288,0,0,1-.66-1.144h-2.9a5.278,5.278,0,0,0,1.54,2.838,5.18,5.18,0,0,0,3.564,1.1,5.062,5.062,0,0,0,3.762-1.342A5.459,5.459,0,0,0,43.164-.44V-9.526H40.48Zm-2.332.836a2.444,2.444,0,0,1,1.87.77,2.713,2.713,0,0,1,.77,1.914,2.807,2.807,0,0,1-.858,2.046,2.7,2.7,0,0,1-1.782.66A2.606,2.606,0,0,1,36.212-2.9a2.646,2.646,0,0,1-.7-1.87A2.611,2.611,0,0,1,36.366-6.8,2.582,2.582,0,0,1,38.148-7.458ZM45.716,0H48.4V-4.576a3.273,3.273,0,0,1,.528-2.112,2.193,2.193,0,0,1,1.782-.77,2.018,2.018,0,0,1,1.254.352l.352-2.508a3.3,3.3,0,0,0-1.144-.22,2.919,2.919,0,0,0-1.584.418A3.213,3.213,0,0,0,48.4-8.1v-1.43H45.716Zm15-8.294a3.45,3.45,0,0,0-3.058-1.54,4.764,4.764,0,0,0-4.73,5.06A4.834,4.834,0,0,0,57.794.308a3.417,3.417,0,0,0,2.926-1.54V0H63.4V-9.526H60.72Zm-2.376.836a2.59,2.59,0,0,1,2.64,2.684,2.609,2.609,0,0,1-2.64,2.706A2.609,2.609,0,0,1,55.7-4.774,2.59,2.59,0,0,1,58.344-7.458ZM65.956,0H68.64V-4.862a3.623,3.623,0,0,1,.374-1.848,1.575,1.575,0,0,1,1.474-.836,1.349,1.349,0,0,1,1.1.484,2.9,2.9,0,0,1,.44,1.87V0h2.684V-4.862a3.623,3.623,0,0,1,.374-1.848,1.575,1.575,0,0,1,1.474-.836,1.349,1.349,0,0,1,1.1.484,2.9,2.9,0,0,1,.44,1.87V0h2.684V-5.984a4,4,0,0,0-.66-2.684A3.023,3.023,0,0,0,77.55-9.834,3.507,3.507,0,0,0,74.492-8.1a3.15,3.15,0,0,0-3.014-1.738A3.5,3.5,0,0,0,68.64-8.448V-9.526H65.956Zm17.38,0H86.02V-4.862a3.623,3.623,0,0,1,.374-1.848,1.575,1.575,0,0,1,1.474-.836,1.349,1.349,0,0,1,1.1.484,2.9,2.9,0,0,1,.44,1.87V0h2.684V-4.862a3.623,3.623,0,0,1,.374-1.848,1.575,1.575,0,0,1,1.474-.836,1.349,1.349,0,0,1,1.1.484,2.9,2.9,0,0,1,.44,1.87V0h2.684V-5.984a4,4,0,0,0-.66-2.684A3.023,3.023,0,0,0,94.93-9.834,3.507,3.507,0,0,0,91.872-8.1a3.15,3.15,0,0,0-3.014-1.738A3.5,3.5,0,0,0,86.02-8.448V-9.526H83.336Zm17.38-9.526V0H103.4V-9.526Zm-.264-4.026a1.615,1.615,0,0,0,1.606,1.606,1.615,1.615,0,0,0,1.606-1.606,1.615,1.615,0,0,0-1.606-1.606A1.615,1.615,0,0,0,100.452-13.552ZM105.952,0h2.684V-4.862a3.278,3.278,0,0,1,.418-1.848,1.83,1.83,0,0,1,1.65-.836,1.718,1.718,0,0,1,1.254.484,2.73,2.73,0,0,1,.506,1.87V0h2.684V-5.984a4.013,4.013,0,0,0-.748-2.684,3.642,3.642,0,0,0-2.816-1.166,3.5,3.5,0,0,0-2.948,1.54V-9.526h-2.684ZM124.96-8.294a3.351,3.351,0,0,0-2.992-1.54,4.662,4.662,0,0,0-3.278,1.276,5.3,5.3,0,0,0-1.474,3.784A5.234,5.234,0,0,0,118.734-.99a4.511,4.511,0,0,0,3.3,1.3,3.339,3.339,0,0,0,2.926-1.584V.066a2.684,2.684,0,0,1-.682,2.112,2.264,2.264,0,0,1-1.628.594,2.369,2.369,0,0,1-1.628-.506,2.288,2.288,0,0,1-.66-1.144h-2.9A5.278,5.278,0,0,0,119,3.96a5.18,5.18,0,0,0,3.564,1.1,5.062,5.062,0,0,0,3.762-1.342,5.459,5.459,0,0,0,1.32-4.158V-9.526H124.96Zm-2.332.836a2.444,2.444,0,0,1,1.87.77,2.713,2.713,0,0,1,.77,1.914,2.807,2.807,0,0,1-.858,2.046,2.7,2.7,0,0,1-1.782.66,2.606,2.606,0,0,1-1.936-.836,2.646,2.646,0,0,1-.7-1.87,2.611,2.611,0,0,1,.858-2.024A2.582,2.582,0,0,1,122.628-7.458Zm13.09-7.216V0h7.392V-2.464h-4.532v-12.21ZM152-8.294a3.45,3.45,0,0,0-3.058-1.54,4.764,4.764,0,0,0-4.73,5.06A4.834,4.834,0,0,0,149.072.308,3.417,3.417,0,0,0,152-1.232V0h2.684V-9.526H152Zm-2.376.836a2.59,2.59,0,0,1,2.64,2.684,2.609,2.609,0,0,1-2.64,2.706,2.609,2.609,0,0,1-2.64-2.706A2.59,2.59,0,0,1,149.622-7.458ZM157.234,0h2.684V-4.862a3.278,3.278,0,0,1,.418-1.848,1.83,1.83,0,0,1,1.65-.836,1.718,1.718,0,0,1,1.254.484,2.73,2.73,0,0,1,.506,1.87V0h2.684V-5.984a4.013,4.013,0,0,0-.748-2.684,3.642,3.642,0,0,0-2.816-1.166,3.5,3.5,0,0,0-2.948,1.54V-9.526h-2.684Zm19.008-8.294a3.351,3.351,0,0,0-2.992-1.54,4.662,4.662,0,0,0-3.278,1.276A5.3,5.3,0,0,0,168.5-4.774,5.234,5.234,0,0,0,170.016-.99a4.511,4.511,0,0,0,3.3,1.3,3.338,3.338,0,0,0,2.926-1.584V.066a2.684,2.684,0,0,1-.682,2.112,2.264,2.264,0,0,1-1.628.594,2.369,2.369,0,0,1-1.628-.506,2.288,2.288,0,0,1-.66-1.144h-2.9a5.278,5.278,0,0,0,1.54,2.838,5.18,5.18,0,0,0,3.564,1.1,5.062,5.062,0,0,0,3.762-1.342,5.459,5.459,0,0,0,1.32-4.158V-9.526h-2.684Zm-2.332.836a2.444,2.444,0,0,1,1.87.77,2.713,2.713,0,0,1,.77,1.914,2.807,2.807,0,0,1-.858,2.046,2.7,2.7,0,0,1-1.782.66,2.606,2.606,0,0,1-1.936-.836,2.646,2.646,0,0,1-.7-1.87,2.611,2.611,0,0,1,.858-2.024A2.582,2.582,0,0,1,173.91-7.458Zm7.568-2.068V-3.7A3.6,3.6,0,0,0,182.644-.77,5.474,5.474,0,0,0,186.1.308,5.474,5.474,0,0,0,189.552-.77,3.6,3.6,0,0,0,190.718-3.7v-5.83h-2.684v5.39a2.142,2.142,0,0,1-.572,1.672,2.185,2.185,0,0,1-1.364.484,2.185,2.185,0,0,1-1.364-.484,2.142,2.142,0,0,1-.572-1.672v-5.39Zm19.1,1.232a3.45,3.45,0,0,0-3.058-1.54,4.764,4.764,0,0,0-4.73,5.06A4.834,4.834,0,0,0,197.648.308a3.417,3.417,0,0,0,2.926-1.54V0h2.684V-9.526h-2.684Zm-2.376.836a2.59,2.59,0,0,1,2.64,2.684,2.609,2.609,0,0,1-2.64,2.706,2.609,2.609,0,0,1-2.64-2.706A2.59,2.59,0,0,1,198.2-7.458Zm14.872-.836a3.351,3.351,0,0,0-2.992-1.54A4.662,4.662,0,0,0,206.8-8.558a5.3,5.3,0,0,0-1.474,3.784A5.234,5.234,0,0,0,206.844-.99a4.511,4.511,0,0,0,3.3,1.3,3.338,3.338,0,0,0,2.926-1.584V.066a2.684,2.684,0,0,1-.682,2.112,2.264,2.264,0,0,1-1.628.594,2.369,2.369,0,0,1-1.628-.506,2.288,2.288,0,0,1-.66-1.144h-2.9a5.278,5.278,0,0,0,1.54,2.838,5.18,5.18,0,0,0,3.564,1.1,5.062,5.062,0,0,0,3.762-1.342,5.459,5.459,0,0,0,1.32-4.158V-9.526H213.07Zm-2.332.836a2.444,2.444,0,0,1,1.87.77,2.713,2.713,0,0,1,.77,1.914,2.807,2.807,0,0,1-.858,2.046,2.7,2.7,0,0,1-1.782.66A2.606,2.606,0,0,1,208.8-2.9a2.646,2.646,0,0,1-.7-1.87,2.611,2.611,0,0,1,.858-2.024A2.582,2.582,0,0,1,210.738-7.458Zm14.454,4.4A2.456,2.456,0,0,1,222.97-1.8a2.268,2.268,0,0,1-1.914-.9,2.811,2.811,0,0,1-.462-1.606h7.128v-.22a5.7,5.7,0,0,0-1.144-3.74,4.553,4.553,0,0,0-3.718-1.562,4.881,4.881,0,0,0-3.586,1.342,5.074,5.074,0,0,0-1.452,3.74,4.8,4.8,0,0,0,1.5,3.718A4.986,4.986,0,0,0,222.97.308a4.706,4.706,0,0,0,4.686-2.97Zm-4.51-2.97a2.242,2.242,0,0,1,2.244-1.914,2.244,2.244,0,0,1,2.266,1.914ZM236.3-8.822a4.751,4.751,0,0,0-3.036-1.012,3.931,3.931,0,0,0-2.486.682A2.83,2.83,0,0,0,229.79-7a2.556,2.556,0,0,0,.726,1.826,5.14,5.14,0,0,0,2.046,1.144l.616.22a1.062,1.062,0,0,1,.836.968c0,.66-.572,1.034-1.32,1.034a2.953,2.953,0,0,1-2.112-1.1l-1.408,1.628a4.814,4.814,0,0,0,3.7,1.584A4,4,0,0,0,235.73-.7a3.166,3.166,0,0,0,1.056-2.42,2.762,2.762,0,0,0-.484-1.584,4.88,4.88,0,0,0-2.42-1.364l-.638-.2c-.748-.242-.858-.616-.858-.858,0-.462.4-.77,1.034-.77a2.228,2.228,0,0,1,1.562.638Z" transform="translate(670 3643)"/>
    <path id="Path_248761" data-name="Path 248761" d="M1.672-14.674V0H5.456a8.421,8.421,0,0,0,5.368-1.408,7,7,0,0,0,2.948-5.918,7.264,7.264,0,0,0-2.816-5.918A8.546,8.546,0,0,0,5.5-14.674Zm2.86,2.464h.88a5.971,5.971,0,0,1,3.608.968,4.89,4.89,0,0,1,1.8,3.916A4.773,4.773,0,0,1,9-3.432a6.14,6.14,0,0,1-3.586.968h-.88ZM23.32-8.294a3.45,3.45,0,0,0-3.058-1.54,4.764,4.764,0,0,0-4.73,5.06A4.834,4.834,0,0,0,20.394.308a3.417,3.417,0,0,0,2.926-1.54V0H26V-9.526H23.32Zm-2.376.836a2.59,2.59,0,0,1,2.64,2.684,2.609,2.609,0,0,1-2.64,2.706A2.609,2.609,0,0,1,18.3-4.774,2.59,2.59,0,0,1,20.944-7.458Zm12.144.22V-9.526H31.24v-3.256H28.556v3.256H27.5v2.288h1.056V0H31.24V-7.238ZM41.8-8.294a3.45,3.45,0,0,0-3.058-1.54,4.764,4.764,0,0,0-4.73,5.06A4.834,4.834,0,0,0,38.874.308,3.417,3.417,0,0,0,41.8-1.232V0h2.684V-9.526H41.8Zm-2.376.836a2.59,2.59,0,0,1,2.64,2.684,2.609,2.609,0,0,1-2.64,2.706,2.609,2.609,0,0,1-2.64-2.706A2.59,2.59,0,0,1,39.424-7.458ZM50.93-14.674,57.09,0h1.716l6.2-14.674H61.886L57.97-4.818l-3.916-9.856Zm15.4,5.148V0h2.684V-9.526Zm-.264-4.026a1.615,1.615,0,0,0,1.606,1.606,1.615,1.615,0,0,0,1.606-1.606,1.615,1.615,0,0,0-1.606-1.606A1.615,1.615,0,0,0,66.066-13.552Zm12.012,4.73a4.751,4.751,0,0,0-3.036-1.012,3.931,3.931,0,0,0-2.486.682A2.83,2.83,0,0,0,71.566-7a2.556,2.556,0,0,0,.726,1.826,5.14,5.14,0,0,0,2.046,1.144l.616.22a1.062,1.062,0,0,1,.836.968c0,.66-.572,1.034-1.32,1.034a2.953,2.953,0,0,1-2.112-1.1L70.95-1.276a4.814,4.814,0,0,0,3.7,1.584A4,4,0,0,0,77.506-.7a3.166,3.166,0,0,0,1.056-2.42,2.762,2.762,0,0,0-.484-1.584,4.88,4.88,0,0,0-2.42-1.364l-.638-.2c-.748-.242-.858-.616-.858-.858,0-.462.4-.77,1.034-.77a2.228,2.228,0,0,1,1.562.638Zm2.376-.7V-3.7A3.6,3.6,0,0,0,81.62-.77,5.474,5.474,0,0,0,85.074.308,5.474,5.474,0,0,0,88.528-.77,3.6,3.6,0,0,0,89.694-3.7v-5.83H87.01v5.39a2.142,2.142,0,0,1-.572,1.672,2.185,2.185,0,0,1-1.364.484,2.185,2.185,0,0,1-1.364-.484,2.142,2.142,0,0,1-.572-1.672v-5.39Zm19.1,1.232a3.45,3.45,0,0,0-3.058-1.54,4.764,4.764,0,0,0-4.73,5.06A4.834,4.834,0,0,0,96.624.308a3.417,3.417,0,0,0,2.926-1.54V0h2.684V-9.526H99.55Zm-2.376.836a2.59,2.59,0,0,1,2.64,2.684,2.609,2.609,0,0,1-2.64,2.706,2.609,2.609,0,0,1-2.64-2.706A2.59,2.59,0,0,1,97.174-7.458Zm7.612-8.58V0h2.684V-16.038Zm5.236,6.512V0h2.684V-9.526Zm-.264-4.026a1.615,1.615,0,0,0,1.606,1.606,1.615,1.615,0,0,0,1.606-1.606,1.615,1.615,0,0,0-1.606-1.606A1.615,1.615,0,0,0,109.758-13.552Zm14.608,4.026h-9.284v2.288h4.576L114.246,0h9.746V-2.288h-5.038Zm8.624,1.232a3.45,3.45,0,0,0-3.058-1.54,4.764,4.764,0,0,0-4.73,5.06A4.834,4.834,0,0,0,130.064.308a3.417,3.417,0,0,0,2.926-1.54V0h2.684V-9.526H132.99Zm-2.376.836a2.59,2.59,0,0,1,2.64,2.684,2.609,2.609,0,0,1-2.64,2.706,2.609,2.609,0,0,1-2.64-2.706A2.59,2.59,0,0,1,130.614-7.458Zm12.144.22V-9.526H140.91v-3.256h-2.684v3.256H137.17v2.288h1.056V0h2.684V-7.238Zm1.408-2.288V0h2.684V-9.526Zm-.264-4.026a1.615,1.615,0,0,0,1.606,1.606,1.615,1.615,0,0,0,1.606-1.606,1.615,1.615,0,0,0-1.606-1.606A1.615,1.615,0,0,0,143.9-13.552Zm10.472,3.718a5.482,5.482,0,0,0-3.85,1.342,5.018,5.018,0,0,0-1.606,3.74,5,5,0,0,0,1.606,3.718,5.482,5.482,0,0,0,3.85,1.342,5.482,5.482,0,0,0,3.85-1.342,5,5,0,0,0,1.606-3.718,5.018,5.018,0,0,0-1.606-3.74A5.482,5.482,0,0,0,154.374-9.834Zm0,7.766a2.653,2.653,0,0,1-2.684-2.684,2.658,2.658,0,0,1,2.684-2.706,2.658,2.658,0,0,1,2.684,2.706A2.653,2.653,0,0,1,154.374-2.068ZM161.9,0h2.684V-4.862A3.278,3.278,0,0,1,165-6.71a1.83,1.83,0,0,1,1.65-.836,1.718,1.718,0,0,1,1.254.484,2.73,2.73,0,0,1,.506,1.87V0h2.684V-5.984a4.013,4.013,0,0,0-.748-2.684,3.642,3.642,0,0,0-2.816-1.166,3.5,3.5,0,0,0-2.948,1.54V-9.526H161.9Zm28.314-7.128A16.965,16.965,0,0,1,188.386-5.1l-2.42-2.772.616-.374a3.793,3.793,0,0,0,2.068-3.256c0-1.8-1.386-3.5-3.938-3.5-2.728,0-4.048,1.826-4.048,3.652a4.627,4.627,0,0,0,1.474,3.08l-1.144.682a4.412,4.412,0,0,0-2.354,3.718,4.251,4.251,0,0,0,4.6,4.2,7.257,7.257,0,0,0,4.73-1.98L189.4,0h3.542l-2.97-3.366.33-.33a16.442,16.442,0,0,0,1.584-1.782Zm-3.85,3.674a4.137,4.137,0,0,1-2.706,1.276A2.01,2.01,0,0,1,181.5-4.114c0-1.122.968-1.936,2.09-2.53Zm-2.4-6.732a2.238,2.238,0,0,1-.616-1.386,1.365,1.365,0,0,1,1.5-1.364,1.364,1.364,0,0,1,1.43,1.452,1.982,1.982,0,0,1-1.012,1.628l-.66.462Zm23.386,4.8h3.784a3.914,3.914,0,0,1-1.386,2.244,4.892,4.892,0,0,1-2.882.88A4.515,4.515,0,0,1,203.61-3.52a4.987,4.987,0,0,1-1.452-3.718,5.469,5.469,0,0,1,1.474-3.872,4.96,4.96,0,0,1,3.388-1.3,4.811,4.811,0,0,1,2.068.462,4,4,0,0,1,1.716,1.738l2.486-1.342a6.908,6.908,0,0,0-2.75-2.684,7.106,7.106,0,0,0-3.388-.77,7.829,7.829,0,0,0-5.786,2.244A7.5,7.5,0,0,0,199.21-7.3a7.87,7.87,0,0,0,2.178,5.654A7.082,7.082,0,0,0,206.712.33a7.019,7.019,0,0,0,5.214-1.936c2.024-2,2.156-5.082,2.156-6.072v-.176H207.35ZM216.326,0h2.684V-4.576a3.273,3.273,0,0,1,.528-2.112,2.193,2.193,0,0,1,1.782-.77,2.018,2.018,0,0,1,1.254.352l.352-2.508a3.3,3.3,0,0,0-1.144-.22,2.919,2.919,0,0,0-1.584.418A3.213,3.213,0,0,0,219.01-8.1v-1.43h-2.684Zm15-8.294a3.45,3.45,0,0,0-3.058-1.54,4.764,4.764,0,0,0-4.73,5.06A4.834,4.834,0,0,0,228.4.308a3.417,3.417,0,0,0,2.926-1.54V0h2.684V-9.526H231.33Zm-2.376.836a2.59,2.59,0,0,1,2.64,2.684,2.609,2.609,0,0,1-2.64,2.706,2.609,2.609,0,0,1-2.64-2.706A2.59,2.59,0,0,1,228.954-7.458Zm10.3,6.226a3.611,3.611,0,0,0,3.058,1.54,4.67,4.67,0,0,0,3.234-1.232,5.094,5.094,0,0,0,1.5-3.85,5.141,5.141,0,0,0-1.43-3.784,4.553,4.553,0,0,0-3.256-1.276,3.624,3.624,0,0,0-3.1,1.54V-9.526h-2.684V5.038h2.684Zm2.376-6.226a2.8,2.8,0,0,1,1.826.682,2.868,2.868,0,0,1,.814,2,2.793,2.793,0,0,1-.836,2.024,2.546,2.546,0,0,1-1.8.682,2.608,2.608,0,0,1-1.76-.638,2.706,2.706,0,0,1-.88-2.068,2.528,2.528,0,0,1,.9-2.046A2.428,2.428,0,0,1,241.626-7.458ZM249.106,0h2.684V-4.862a3.278,3.278,0,0,1,.418-1.848,1.83,1.83,0,0,1,1.65-.836,1.718,1.718,0,0,1,1.254.484,2.73,2.73,0,0,1,.506,1.87V0H258.3V-5.984a4.013,4.013,0,0,0-.748-2.684,3.642,3.642,0,0,0-2.816-1.166,3.5,3.5,0,0,0-2.948,1.54v-7.744h-2.684Zm11.748-9.526V0h2.684V-9.526Zm-.264-4.026a1.615,1.615,0,0,0,1.606,1.606,1.615,1.615,0,0,0,1.606-1.606,1.615,1.615,0,0,0-1.606-1.606A1.615,1.615,0,0,0,260.59-13.552Zm12.672,4.29a5.683,5.683,0,0,0-2.574-.572A5.074,5.074,0,0,0,267.256-8.6a5.089,5.089,0,0,0-1.65,3.872,4.891,4.891,0,0,0,1.518,3.652A5.377,5.377,0,0,0,270.8.308a5.44,5.44,0,0,0,2.464-.594V-2.9a3.108,3.108,0,0,1-2.112.836,2.653,2.653,0,0,1-2.772-2.706,2.56,2.56,0,0,1,2.684-2.684,3.1,3.1,0,0,1,2.2.836Zm8.536.44a4.751,4.751,0,0,0-3.036-1.012,3.931,3.931,0,0,0-2.486.682A2.83,2.83,0,0,0,275.286-7a2.556,2.556,0,0,0,.726,1.826,5.14,5.14,0,0,0,2.046,1.144l.616.22a1.062,1.062,0,0,1,.836.968c0,.66-.572,1.034-1.32,1.034a2.953,2.953,0,0,1-2.112-1.1L274.67-1.276a4.814,4.814,0,0,0,3.7,1.584A4,4,0,0,0,281.226-.7a3.166,3.166,0,0,0,1.056-2.42,2.762,2.762,0,0,0-.484-1.584,4.88,4.88,0,0,0-2.42-1.364l-.638-.2c-.748-.242-.858-.616-.858-.858,0-.462.4-.77,1.034-.77a2.228,2.228,0,0,1,1.562.638Z" transform="translate(1057 3643)"/>
    <path id="Path_248760" data-name="Path 248760" d="M9.46-14.674H1.672V0h2.86V-6.468h4.62V-8.932H4.532V-12.21H9.46ZM11.066,0H13.75V-4.576a3.273,3.273,0,0,1,.528-2.112,2.193,2.193,0,0,1,1.782-.77,2.018,2.018,0,0,1,1.254.352l.352-2.508a3.3,3.3,0,0,0-1.144-.22,2.919,2.919,0,0,0-1.584.418A3.213,3.213,0,0,0,13.75-8.1v-1.43H11.066Zm15-8.294a3.45,3.45,0,0,0-3.058-1.54,4.764,4.764,0,0,0-4.73,5.06A4.834,4.834,0,0,0,23.144.308a3.417,3.417,0,0,0,2.926-1.54V0h2.684V-9.526H26.07Zm-2.376.836a2.59,2.59,0,0,1,2.64,2.684,2.609,2.609,0,0,1-2.64,2.706,2.609,2.609,0,0,1-2.64-2.706A2.59,2.59,0,0,1,23.694-7.458ZM31.306,0H33.99V-4.862a3.623,3.623,0,0,1,.374-1.848,1.575,1.575,0,0,1,1.474-.836,1.349,1.349,0,0,1,1.1.484,2.9,2.9,0,0,1,.44,1.87V0h2.684V-4.862a3.623,3.623,0,0,1,.374-1.848,1.575,1.575,0,0,1,1.474-.836,1.349,1.349,0,0,1,1.1.484,2.9,2.9,0,0,1,.44,1.87V0h2.684V-5.984a4,4,0,0,0-.66-2.684A3.023,3.023,0,0,0,42.9-9.834,3.507,3.507,0,0,0,39.842-8.1a3.15,3.15,0,0,0-3.014-1.738A3.5,3.5,0,0,0,33.99-8.448V-9.526H31.306ZM55.572-3.058A2.456,2.456,0,0,1,53.35-1.8a2.268,2.268,0,0,1-1.914-.9,2.811,2.811,0,0,1-.462-1.606H58.1v-.22a5.7,5.7,0,0,0-1.144-3.74A4.553,4.553,0,0,0,53.24-9.834a4.881,4.881,0,0,0-3.586,1.342A5.074,5.074,0,0,0,48.2-4.752a4.8,4.8,0,0,0,1.5,3.718A4.986,4.986,0,0,0,53.35.308a4.706,4.706,0,0,0,4.686-2.97Zm-4.51-2.97a2.242,2.242,0,0,1,2.244-1.914,2.243,2.243,0,0,1,2.266,1.914Zm16.324.418L69.894,0h1.32l4.84-9.526H73.062l-2.508,5.5L68-9.526H66.77l-2.552,5.5-2.508-5.5H58.718L63.558,0h1.32ZM82.1-9.834a5.482,5.482,0,0,0-3.85,1.342,5.018,5.018,0,0,0-1.606,3.74,5,5,0,0,0,1.606,3.718A5.482,5.482,0,0,0,82.1.308a5.482,5.482,0,0,0,3.85-1.342A5,5,0,0,0,87.56-4.752a5.018,5.018,0,0,0-1.606-3.74A5.482,5.482,0,0,0,82.1-9.834Zm0,7.766A2.653,2.653,0,0,1,79.42-4.752,2.658,2.658,0,0,1,82.1-7.458a2.658,2.658,0,0,1,2.684,2.706A2.653,2.653,0,0,1,82.1-2.068ZM89.628,0h2.684V-4.576a3.273,3.273,0,0,1,.528-2.112,2.193,2.193,0,0,1,1.782-.77,2.018,2.018,0,0,1,1.254.352l.352-2.508a3.3,3.3,0,0,0-1.144-.22,2.919,2.919,0,0,0-1.584.418A3.213,3.213,0,0,0,92.312-8.1v-1.43H89.628Zm7.92-16.038V0h2.684V-3.806l.286-.264L104.06,0h3.564l-4.818-5.346,4.466-4.18H103.8L100.232-6.05v-9.988Zm17.314,7.216a4.751,4.751,0,0,0-3.036-1.012,3.931,3.931,0,0,0-2.486.682A2.83,2.83,0,0,0,108.35-7a2.556,2.556,0,0,0,.726,1.826,5.14,5.14,0,0,0,2.046,1.144l.616.22a1.062,1.062,0,0,1,.836.968c0,.66-.572,1.034-1.32,1.034a2.953,2.953,0,0,1-2.112-1.1l-1.408,1.628a4.814,4.814,0,0,0,3.7,1.584A4,4,0,0,0,114.29-.7a3.166,3.166,0,0,0,1.056-2.42,2.762,2.762,0,0,0-.484-1.584,4.88,4.88,0,0,0-2.42-1.364l-.638-.2c-.748-.242-.858-.616-.858-.858,0-.462.4-.77,1.034-.77a2.228,2.228,0,0,1,1.562.638Z" transform="translate(1683 3643)"/>
    <path id="Path_248759" data-name="Path 248759" d="M13.112-13.464v2.024A6.754,6.754,0,0,0,11.2-12.8a6.046,6.046,0,0,0-2.53-.572A5.57,5.57,0,0,0,4.455-11.6,6.069,6.069,0,0,0,2.772-7.26,5.515,5.515,0,0,0,4.609-2.882,6.054,6.054,0,0,0,8.69-1.276a5.873,5.873,0,0,0,2.728-.682A6.5,6.5,0,0,0,13.112-3.19v2.024A7.438,7.438,0,0,1,8.69.264,7.338,7.338,0,0,1,3.267-1.914,7.314,7.314,0,0,1,1.1-7.282a7.382,7.382,0,0,1,2.189-5.456,7.465,7.465,0,0,1,5.489-2.178A6.986,6.986,0,0,1,13.112-13.464ZM22.88,0H21.274l.7-4.554H18.986L18.282,0H16.676l.7-4.554H14.96l.22-1.452H17.6l.44-2.926H15.62l.22-1.452h2.42l.66-4.29h1.606l-.66,4.29h2.992l.66-4.29h1.606l-.66,4.29h2.42l-.22,1.452h-2.42L23.8-6.006h2.42L26-4.554h-2.42ZM22.2-6.006l.44-2.926H19.646l-.44,2.926Z" transform="translate(673 3723)"/>
    <path id="Path_248758" data-name="Path 248758" d="M1.892-14.674H4.246a6.34,6.34,0,0,1,3.564.814A3.657,3.657,0,0,1,9.416-10.6,4.021,4.021,0,0,1,8.393-7.788,3.812,3.812,0,0,1,5.72-6.556L10.384,0H8.4L3.938-6.424H3.52V0H1.892Zm1.628,1.54v5.258H4.554a3.642,3.642,0,0,0,2.376-.7,2.418,2.418,0,0,0,.858-1.98,2.286,2.286,0,0,0-1.166-2.156,4.379,4.379,0,0,0-2.112-.418Z" transform="translate(783 3723)"/>
    <path id="Path_248757" data-name="Path 248757" d="M1.892,0V-14.674H4.884A8.091,8.091,0,0,1,10.3-12.958,6.951,6.951,0,0,1,12.8-7.326,7.076,7.076,0,0,1,10.23-1.694,6.674,6.674,0,0,1,7.964-.4a10.163,10.163,0,0,1-3.1.4ZM3.52-13.134V-1.54H4.95a6.351,6.351,0,0,0,4.2-1.32,5.549,5.549,0,0,0,1.98-4.466A5.508,5.508,0,0,0,9.438-11.55,6.306,6.306,0,0,0,4.95-13.134Zm13.9,2.09H15.8a4.5,4.5,0,0,1,.682-2.156,3.763,3.763,0,0,1,3.41-1.716,3.965,3.965,0,0,1,3.047,1.166,3.95,3.95,0,0,1,1.089,2.794A3.343,3.343,0,0,1,22.132-7.7a2.76,2.76,0,0,1,.561.3,4.966,4.966,0,0,1,.671.583A2.836,2.836,0,0,1,24-5.731a4.756,4.756,0,0,1,.242,1.573A4.2,4.2,0,0,1,22.957-.946,4.522,4.522,0,0,1,19.734.264a5.02,5.02,0,0,1-2.42-.6,3.718,3.718,0,0,1-1.672-1.925,4.723,4.723,0,0,1-.33-1.54H16.94a3.092,3.092,0,0,0,.528,1.474,2.555,2.555,0,0,0,2.266,1.1A2.73,2.73,0,0,0,21.78-2.1a2.92,2.92,0,0,0,.836-2.1,2.458,2.458,0,0,0-1.452-2.464,3.414,3.414,0,0,0-1.672-.308V-8.426a3.113,3.113,0,0,0,1.672-.308A2.252,2.252,0,0,0,22.4-10.912,2.65,2.65,0,0,0,21.78-12.7a2.363,2.363,0,0,0-1.892-.715A2.269,2.269,0,0,0,18-12.584,2.82,2.82,0,0,0,17.424-11.044Z" transform="translate(981 3723)"/>
    <path id="Path_248756" data-name="Path 248756" d="M1.738-.11a1.055,1.055,0,0,1-.33-.77,1.055,1.055,0,0,1,.33-.77,1.055,1.055,0,0,1,.77-.33,1.055,1.055,0,0,1,.77.33,1.055,1.055,0,0,1,.33.77,1.055,1.055,0,0,1-.33.77,1.055,1.055,0,0,1-.77.33A1.055,1.055,0,0,1,1.738-.11ZM6.512,0V-9.13H8.1v1.056A3.114,3.114,0,0,1,10.714-9.35,2.956,2.956,0,0,1,13.332-8.1a4.4,4.4,0,0,1,.528,2.442V0H12.276V-5.61a2.752,2.752,0,0,0-.418-1.672,1.768,1.768,0,0,0-1.5-.66,1.992,1.992,0,0,0-1.606.7A3.751,3.751,0,0,0,8.1-4.774V0ZM23.628-3.058l1.32.726A5.224,5.224,0,0,1,23.826-.858,4.393,4.393,0,0,1,20.79.264a4.588,4.588,0,0,1-3.179-1.2A4.568,4.568,0,0,1,16.28-4.51a5.082,5.082,0,0,1,1.2-3.465A4.06,4.06,0,0,1,20.7-9.35a3.938,3.938,0,0,1,3.454,1.672,5.545,5.545,0,0,1,.858,3.432H17.908A3.155,3.155,0,0,0,18.766-2a2.747,2.747,0,0,0,2.046.858,2.829,2.829,0,0,0,1.87-.66A3.593,3.593,0,0,0,23.628-3.058Zm-5.61-2.508h5.368a2.925,2.925,0,0,0-.935-1.727A2.559,2.559,0,0,0,20.7-7.942a2.563,2.563,0,0,0-1.749.671A2.843,2.843,0,0,0,18.018-5.566ZM30.646-7.678H29.062V0H27.478V-7.678H26.51V-9.13h.968v-3.3h1.584v3.3h1.584Z" transform="translate(1656 3723)"/>
    <path id="Path_248755" data-name="Path 248755" d="M1.892-14.674H4.554a5.533,5.533,0,0,1,3.7,1.034,3.915,3.915,0,0,1,1.342,3.146A4.046,4.046,0,0,1,8.437-7.579,4.633,4.633,0,0,1,4.95-6.38H3.52V0H1.892Zm1.628,1.54V-7.92H4.862a3.4,3.4,0,0,0,2.277-.7,2.436,2.436,0,0,0,.825-1.958q0-2.552-3.234-2.552ZM11.506,5.06l2.9-5.918-4.2-8.272h1.8L15.246-2.6l2.97-6.534h1.76L13.266,5.06ZM24.86-7.678H23.276V0H21.692V-7.678h-.968V-9.13h.968v-3.3h1.584v3.3H24.86ZM26.356,0V-16.038H27.94v7.964A3.114,3.114,0,0,1,30.558-9.35,2.956,2.956,0,0,1,33.176-8.1,4.4,4.4,0,0,1,33.7-5.654V0H32.12V-5.61A2.752,2.752,0,0,0,31.7-7.282a1.768,1.768,0,0,0-1.5-.66,1.992,1.992,0,0,0-1.606.7,3.751,3.751,0,0,0-.66,2.464V0ZM44.088-1.1A4.681,4.681,0,0,1,40.634.264,4.718,4.718,0,0,1,37.169-1.1a4.634,4.634,0,0,1-1.375-3.432,4.661,4.661,0,0,1,1.375-3.454A4.718,4.718,0,0,1,40.634-9.35,4.718,4.718,0,0,1,44.1-7.986a4.661,4.661,0,0,1,1.375,3.454A4.615,4.615,0,0,1,44.088-1.1ZM42.9-7.04a3.12,3.12,0,0,0-2.266-.9,3.137,3.137,0,0,0-2.277.913,3.329,3.329,0,0,0-.935,2.5,3.271,3.271,0,0,0,.946,2.486,3.168,3.168,0,0,0,2.266.9,3.168,3.168,0,0,0,2.266-.9,3.271,3.271,0,0,0,.946-2.486A3.3,3.3,0,0,0,42.9-7.04ZM47.894,0V-9.13h1.584v1.056A3.114,3.114,0,0,1,52.1-9.35,2.956,2.956,0,0,1,54.714-8.1a4.4,4.4,0,0,1,.528,2.442V0H53.658V-5.61a2.752,2.752,0,0,0-.418-1.672,1.768,1.768,0,0,0-1.5-.66,1.992,1.992,0,0,0-1.606.7,3.751,3.751,0,0,0-.66,2.464V0Z" transform="translate(864 3723)"/>
    <path id="Path_248754" data-name="Path 248754" d="M3.52-14.674v5.962h7.524v-5.962h1.628V0H11.044V-7.172H3.52V0H1.892V-14.674Zm20.108,1.54H20.064V0H18.436V-13.134H14.872v-1.54h8.756ZM26.994,0H25.322l2.442-15.488L33.4-3.1,39.138-15.51,41.426,0H39.754L38.368-10.208,33.374.616,28.446-10.208Zm17.82-14.674h1.628V-1.54H50.49V0H44.814ZM50.8,3.74,62.106-16.7l1.276.66L52.074,4.356ZM67.034-14.674h1.628v10.56q0,.792-.033,1.265a4.7,4.7,0,0,1-.242,1.111A2.808,2.808,0,0,1,67.76-.66a3.027,3.027,0,0,1-2.332.924A3.3,3.3,0,0,1,62.81-.814l.9-1.276a2.233,2.233,0,0,0,1.672.814,1.487,1.487,0,0,0,1.1-.418,3.535,3.535,0,0,0,.55-2.376ZM80.3-12.628,79-11.77a3.459,3.459,0,0,0-.858-1.1,2.632,2.632,0,0,0-1.65-.506,2.529,2.529,0,0,0-1.782.627,2.122,2.122,0,0,0-.682,1.639,1.7,1.7,0,0,0,.55,1.276,5.239,5.239,0,0,0,1.54.924l1.408.616a7.484,7.484,0,0,1,2.266,1.386A3.609,3.609,0,0,1,80.85-4.246,4.288,4.288,0,0,1,79.53-.99,4.632,4.632,0,0,1,76.208.264a4.357,4.357,0,0,1-3.19-1.188,5.139,5.139,0,0,1-1.364-2.6l1.584-.44a3.327,3.327,0,0,0,.88,1.87,2.857,2.857,0,0,0,2.112.814,2.794,2.794,0,0,0,2.178-.847,2.949,2.949,0,0,0,.77-2.057A2.211,2.211,0,0,0,78.452-5.9a7.29,7.29,0,0,0-1.76-1.012l-1.32-.616a7.209,7.209,0,0,1-1.958-1.21,3.185,3.185,0,0,1-1.012-2.4,3.519,3.519,0,0,1,1.155-2.739,4.242,4.242,0,0,1,2.959-1.045,4.145,4.145,0,0,1,2.354.66A4.179,4.179,0,0,1,80.3-12.628ZM81.95,3.74,93.258-16.7l1.276.66L83.226,4.356ZM109.318.154,108.13-1.078A7.705,7.705,0,0,1,103.708.264,7.442,7.442,0,0,1,98.3-1.914a7.273,7.273,0,0,1-2.222-5.412A7.263,7.263,0,0,1,98.3-12.749a7.461,7.461,0,0,1,5.412-2.167,7.461,7.461,0,0,1,5.412,2.167,7.263,7.263,0,0,1,2.222,5.423,7.361,7.361,0,0,1-2.068,5.258L111.43.154ZM105.534-5.9l2.574,2.64a5.793,5.793,0,0,0,1.562-4.07,5.867,5.867,0,0,0-1.749-4.279,5.707,5.707,0,0,0-4.213-1.771,5.714,5.714,0,0,0-4.224,1.76,5.875,5.875,0,0,0-1.738,4.29,5.875,5.875,0,0,0,1.738,4.29,5.714,5.714,0,0,0,4.224,1.76,5.807,5.807,0,0,0,3.256-.968L103.422-5.9Zm9.988-3.234v5.324a3.294,3.294,0,0,0,.44,1.958,1.915,1.915,0,0,0,1.606.7,1.915,1.915,0,0,0,1.606-.7,3.294,3.294,0,0,0,.44-1.958V-9.13H121.2v5.5a3.929,3.929,0,0,1-.836,2.75A3.665,3.665,0,0,1,117.568.264,3.665,3.665,0,0,1,114.774-.88a3.929,3.929,0,0,1-.836-2.75v-5.5Zm15.444,6.072,1.32.726a5.224,5.224,0,0,1-1.122,1.474A4.393,4.393,0,0,1,128.128.264a4.588,4.588,0,0,1-3.179-1.2,4.568,4.568,0,0,1-1.331-3.575,5.082,5.082,0,0,1,1.2-3.465A4.06,4.06,0,0,1,128.04-9.35a3.938,3.938,0,0,1,3.454,1.672,5.545,5.545,0,0,1,.858,3.432h-7.106A3.155,3.155,0,0,0,126.1-2a2.747,2.747,0,0,0,2.046.858,2.829,2.829,0,0,0,1.87-.66A3.593,3.593,0,0,0,130.966-3.058Zm-5.61-2.508h5.368a2.925,2.925,0,0,0-.935-1.727,2.559,2.559,0,0,0-1.749-.649,2.563,2.563,0,0,0-1.749.671A2.843,2.843,0,0,0,125.356-5.566ZM134.772,0V-9.13h1.584v.99a2.351,2.351,0,0,1,2.068-1.21,3.162,3.162,0,0,1,1.408.374l-.748,1.43a1.587,1.587,0,0,0-.924-.308,1.512,1.512,0,0,0-1.276.572,4.259,4.259,0,0,0-.528,2.464V0Zm7.172,5.06,2.9-5.918-4.2-8.272h1.8L145.684-2.6l2.97-6.534h1.76L143.7,5.06Z" transform="translate(1103 3723)"/>
    <path id="Path_248753" data-name="Path 248753" d="M8.492-7.832v-8.206h1.584V0H8.492V-1.276A3.757,3.757,0,0,1,5.368.264,4.322,4.322,0,0,1,2.222-1.012a4.771,4.771,0,0,1-1.3-3.564A4.7,4.7,0,0,1,2.211-8.085,4.331,4.331,0,0,1,5.368-9.35,3.7,3.7,0,0,1,8.492-7.832Zm-2.948-.11a2.852,2.852,0,0,0-2.123.891,3.4,3.4,0,0,0-.869,2.475,3.72,3.72,0,0,0,.8,2.475,2.707,2.707,0,0,0,2.189.957,2.731,2.731,0,0,0,2.211-.99,3.654,3.654,0,0,0,.825-2.42,3.3,3.3,0,0,0-.924-2.508A2.977,2.977,0,0,0,5.544-7.942ZM13.068-9.13h1.584V5.06H13.068Zm0-2.662a1.08,1.08,0,0,1-.33-.792,1.08,1.08,0,0,1,.33-.792,1.08,1.08,0,0,1,.792-.33,1.08,1.08,0,0,1,.792.33,1.08,1.08,0,0,1,.33.792,1.08,1.08,0,0,1-.33.792,1.08,1.08,0,0,1-.792.33A1.08,1.08,0,0,1,13.068-11.792ZM24.64-7.832v-1.3h1.584V0H24.64V-1.276A3.757,3.757,0,0,1,21.516.264,4.322,4.322,0,0,1,18.37-1.012a4.771,4.771,0,0,1-1.3-3.564,4.7,4.7,0,0,1,1.287-3.509A4.331,4.331,0,0,1,21.516-9.35,3.7,3.7,0,0,1,24.64-7.832Zm-2.948-.11a2.852,2.852,0,0,0-2.123.891A3.4,3.4,0,0,0,18.7-4.576,3.72,3.72,0,0,0,19.5-2.1a2.707,2.707,0,0,0,2.189.957,2.731,2.731,0,0,0,2.211-.99,3.654,3.654,0,0,0,.825-2.42A3.3,3.3,0,0,0,23.8-7.062,2.977,2.977,0,0,0,21.692-7.942ZM29.216,0V-9.13H30.8v1.056A3.114,3.114,0,0,1,33.418-9.35,2.956,2.956,0,0,1,36.036-8.1a4.4,4.4,0,0,1,.528,2.442V0H34.98V-5.61a2.752,2.752,0,0,0-.418-1.672,1.768,1.768,0,0,0-1.5-.66,1.992,1.992,0,0,0-1.606.7,3.751,3.751,0,0,0-.66,2.464V0ZM46.552-7.832v-1.3h1.584V-.22a6.01,6.01,0,0,1-.88,3.586A4.262,4.262,0,0,1,43.6,5.06a4.4,4.4,0,0,1-3.256-1.232A4,4,0,0,1,39.16.88h1.562a2.752,2.752,0,0,0,.7,1.892,2.808,2.808,0,0,0,2.2.88,2.621,2.621,0,0,0,2.42-1.276A4.44,4.44,0,0,0,46.552.044v-1.32A3.757,3.757,0,0,1,43.428.264,4.233,4.233,0,0,1,40.3-.968a4.875,4.875,0,0,1-1.32-3.608A4.787,4.787,0,0,1,40.3-8.118,4.327,4.327,0,0,1,43.428-9.35,3.738,3.738,0,0,1,46.552-7.832ZM43.6-7.942a2.819,2.819,0,0,0-2.068.858,3.435,3.435,0,0,0-.924,2.508,3.454,3.454,0,0,0,1.034,2.684,2.792,2.792,0,0,0,1.958.748,2.708,2.708,0,0,0,2-.77,3.485,3.485,0,0,0,1.034-2.64,3.389,3.389,0,0,0-.968-2.574A2.8,2.8,0,0,0,43.6-7.942ZM58.85-1.1A4.681,4.681,0,0,1,55.4.264,4.718,4.718,0,0,1,51.931-1.1a4.634,4.634,0,0,1-1.375-3.432,4.661,4.661,0,0,1,1.375-3.454A4.718,4.718,0,0,1,55.4-9.35a4.718,4.718,0,0,1,3.465,1.364,4.661,4.661,0,0,1,1.375,3.454A4.615,4.615,0,0,1,58.85-1.1ZM57.662-7.04a3.12,3.12,0,0,0-2.266-.9,3.137,3.137,0,0,0-2.277.913,3.329,3.329,0,0,0-.935,2.5,3.271,3.271,0,0,0,.946,2.486,3.168,3.168,0,0,0,2.266.9,3.168,3.168,0,0,0,2.266-.9,3.271,3.271,0,0,0,.946-2.486A3.3,3.3,0,0,0,57.662-7.04Z" transform="translate(1785 3723)"/>
    <path id="Path_248752" data-name="Path 248752" d="M9.746-12.628l-1.3.858a3.459,3.459,0,0,0-.858-1.1,2.632,2.632,0,0,0-1.65-.506,2.529,2.529,0,0,0-1.782.627,2.122,2.122,0,0,0-.682,1.639,1.7,1.7,0,0,0,.55,1.276,5.239,5.239,0,0,0,1.54.924l1.408.616A7.484,7.484,0,0,1,9.24-6.908,3.609,3.609,0,0,1,10.3-4.246,4.288,4.288,0,0,1,8.976-.99,4.632,4.632,0,0,1,5.654.264,4.357,4.357,0,0,1,2.464-.924,5.139,5.139,0,0,1,1.1-3.52l1.584-.44a3.327,3.327,0,0,0,.88,1.87,2.857,2.857,0,0,0,2.112.814,2.794,2.794,0,0,0,2.178-.847,2.948,2.948,0,0,0,.77-2.057A2.211,2.211,0,0,0,7.9-5.9a7.29,7.29,0,0,0-1.76-1.012l-1.32-.616A7.209,7.209,0,0,1,2.86-8.734a3.185,3.185,0,0,1-1.012-2.4A3.519,3.519,0,0,1,3-13.871a4.242,4.242,0,0,1,2.959-1.045,4.145,4.145,0,0,1,2.354.66A4.179,4.179,0,0,1,9.746-12.628ZM25.74.154,24.552-1.078A7.705,7.705,0,0,1,20.13.264a7.442,7.442,0,0,1-5.412-2.178A7.273,7.273,0,0,1,12.5-7.326a7.263,7.263,0,0,1,2.222-5.423,7.461,7.461,0,0,1,5.412-2.167,7.461,7.461,0,0,1,5.412,2.167,7.263,7.263,0,0,1,2.222,5.423A7.361,7.361,0,0,1,25.7-2.068L27.852.154ZM21.956-5.9l2.574,2.64a5.793,5.793,0,0,0,1.562-4.07A5.867,5.867,0,0,0,24.343-11.6a5.707,5.707,0,0,0-4.213-1.771,5.714,5.714,0,0,0-4.224,1.76,5.876,5.876,0,0,0-1.738,4.29,5.876,5.876,0,0,0,1.738,4.29,5.714,5.714,0,0,0,4.224,1.76,5.807,5.807,0,0,0,3.256-.968L19.844-5.9Zm8.8-8.778h1.628V-1.54h4.048V0H30.756Zm20.856,2.046-1.3.858a3.459,3.459,0,0,0-.858-1.1,2.632,2.632,0,0,0-1.65-.506,2.529,2.529,0,0,0-1.782.627,2.122,2.122,0,0,0-.682,1.639,1.7,1.7,0,0,0,.55,1.276,5.239,5.239,0,0,0,1.54.924l1.408.616a7.485,7.485,0,0,1,2.266,1.386,3.609,3.609,0,0,1,1.056,2.662A4.288,4.288,0,0,1,50.842-.99,4.632,4.632,0,0,1,47.52.264,4.357,4.357,0,0,1,44.33-.924a5.139,5.139,0,0,1-1.364-2.6l1.584-.44a3.327,3.327,0,0,0,.88,1.87,2.857,2.857,0,0,0,2.112.814,2.794,2.794,0,0,0,2.178-.847,2.949,2.949,0,0,0,.77-2.057A2.211,2.211,0,0,0,49.764-5.9,7.29,7.29,0,0,0,48-6.908l-1.32-.616a7.209,7.209,0,0,1-1.958-1.21,3.185,3.185,0,0,1-1.012-2.4,3.519,3.519,0,0,1,1.155-2.739,4.242,4.242,0,0,1,2.959-1.045,4.145,4.145,0,0,1,2.354.66A4.179,4.179,0,0,1,51.612-12.628Zm9.922,9.57,1.32.726A5.224,5.224,0,0,1,61.732-.858,4.393,4.393,0,0,1,58.7.264a4.588,4.588,0,0,1-3.179-1.2A4.568,4.568,0,0,1,54.186-4.51a5.082,5.082,0,0,1,1.2-3.465A4.06,4.06,0,0,1,58.608-9.35a3.938,3.938,0,0,1,3.454,1.672,5.545,5.545,0,0,1,.858,3.432H55.814A3.155,3.155,0,0,0,56.672-2a2.747,2.747,0,0,0,2.046.858,2.829,2.829,0,0,0,1.87-.66A3.593,3.593,0,0,0,61.534-3.058Zm-5.61-2.508h5.368a2.925,2.925,0,0,0-.935-1.727,2.559,2.559,0,0,0-1.749-.649,2.563,2.563,0,0,0-1.749.671A2.843,2.843,0,0,0,55.924-5.566ZM65.34,0V-9.13h1.584v.99a2.351,2.351,0,0,1,2.068-1.21,3.162,3.162,0,0,1,1.408.374l-.748,1.43a1.587,1.587,0,0,0-.924-.308,1.512,1.512,0,0,0-1.276.572,4.259,4.259,0,0,0-.528,2.464V0Zm5.654-9.13h1.76l2.728,6.16L78.21-9.13h1.76L75.482.594ZM88.418-3.058l1.32.726A5.224,5.224,0,0,1,88.616-.858,4.393,4.393,0,0,1,85.58.264,4.588,4.588,0,0,1,82.4-.935,4.568,4.568,0,0,1,81.07-4.51a5.082,5.082,0,0,1,1.2-3.465A4.06,4.06,0,0,1,85.492-9.35a3.938,3.938,0,0,1,3.454,1.672A5.545,5.545,0,0,1,89.8-4.246H82.7A3.155,3.155,0,0,0,83.556-2a2.747,2.747,0,0,0,2.046.858,2.829,2.829,0,0,0,1.87-.66A3.593,3.593,0,0,0,88.418-3.058Zm-5.61-2.508h5.368a2.925,2.925,0,0,0-.935-1.727,2.559,2.559,0,0,0-1.749-.649,2.563,2.563,0,0,0-1.749.671A2.843,2.843,0,0,0,82.808-5.566ZM92.224,0V-9.13h1.584v.99a2.351,2.351,0,0,1,2.068-1.21,3.162,3.162,0,0,1,1.408.374l-.748,1.43a1.587,1.587,0,0,0-.924-.308,1.512,1.512,0,0,0-1.276.572,4.259,4.259,0,0,0-.528,2.464V0Z" transform="translate(1336 3576)"/>
    <rect id="Rectangle_10921" data-name="Rectangle 10921" width="144" height="144" transform="translate(1745 3173)" fill="#146eb4"/>
    <rect id="Rectangle_10922" data-name="Rectangle 10922" width="143" height="142" transform="translate(1312 3174)" fill="#d8ebff"/>
    <g id="Amazon_Web_Services_Logo" transform="translate(1782.332 3231.9)">
      <path id="Path_247557" data-name="Path 247557" d="M30.123,16.244a7.324,7.324,0,0,0,.244,2.064,12.713,12.713,0,0,0,.709,1.67,1.043,1.043,0,0,1,.155.533.925.925,0,0,1-.421.7l-1.4.974a1.032,1.032,0,0,1-.576.209,1,1,0,0,1-.665-.325,7.15,7.15,0,0,1-.8-1.09c-.222-.394-.443-.835-.687-1.368a8.048,8.048,0,0,1-6.516,3.2,5.918,5.918,0,0,1-4.432-1.67,6.11,6.11,0,0,1-1.64-4.453,6.1,6.1,0,0,1,2.017-4.778,7.83,7.83,0,0,1,5.43-1.809,16.783,16.783,0,0,1,2.349.186c.82.116,1.662.3,2.549.51V9.1A5.3,5.3,0,0,0,25.4,5.39,4.946,4.946,0,0,0,21.79,4.324a9.658,9.658,0,0,0-2.393.3A17.093,17.093,0,0,0,17,5.414a6.18,6.18,0,0,1-.776.3,1.305,1.305,0,0,1-.355.07c-.31,0-.465-.232-.465-.719V3.929a1.524,1.524,0,0,1,.155-.812,1.671,1.671,0,0,1,.621-.487,12.4,12.4,0,0,1,2.792-1.044,12.872,12.872,0,0,1,3.457-.441c2.637,0,4.565.626,5.806,1.879,1.219,1.252,1.839,3.154,1.839,5.705v7.514Zm-9,3.525a6.9,6.9,0,0,0,2.283-.417,4.933,4.933,0,0,0,2.105-1.484,3.74,3.74,0,0,0,.753-1.484,8.694,8.694,0,0,0,.222-2.018v-.974A17.771,17.771,0,0,0,24.45,13a15.968,15.968,0,0,0-2.083-.139,4.945,4.945,0,0,0-3.3.928,3.3,3.3,0,0,0-1.086,2.667,3.327,3.327,0,0,0,.82,2.458A3,3,0,0,0,21.125,19.769Zm17.8,2.5a1.2,1.2,0,0,1-.842-.232,1.915,1.915,0,0,1-.465-.9L32.406,3.21a4.225,4.225,0,0,1-.2-.928c0-.371.177-.58.532-.58H34.91a1.189,1.189,0,0,1,.864.232,1.927,1.927,0,0,1,.443.9l3.723,15.353L43.4,2.839a1.654,1.654,0,0,1,.421-.9,1.473,1.473,0,0,1,.886-.232h1.773a1.29,1.29,0,0,1,.886.232,1.589,1.589,0,0,1,.421.9l3.5,15.538L55.121,2.839a2.019,2.019,0,0,1,.443-.9,1.4,1.4,0,0,1,.864-.232H58.49a.5.5,0,0,1,.554.58A2.415,2.415,0,0,1,59,2.654a3.421,3.421,0,0,1-.155.58L53.5,21.161a1.8,1.8,0,0,1-.465.9,1.371,1.371,0,0,1-.842.232H50.29a1.29,1.29,0,0,1-.886-.232,1.674,1.674,0,0,1-.421-.928L45.547,6.179,42.135,21.115a1.844,1.844,0,0,1-.421.928,1.328,1.328,0,0,1-.886.232ZM67.4,22.9a14.045,14.045,0,0,1-3.413-.417,9.791,9.791,0,0,1-2.549-.928,1.628,1.628,0,0,1-.687-.649,1.7,1.7,0,0,1-.133-.649V19.074c0-.487.177-.719.51-.719a1.2,1.2,0,0,1,.4.07c.133.046.332.139.554.232a11.674,11.674,0,0,0,2.438.812,12.739,12.739,0,0,0,2.637.278,5.767,5.767,0,0,0,3.236-.765,2.527,2.527,0,0,0,1.152-2.2,2.317,2.317,0,0,0-.6-1.623,5.485,5.485,0,0,0-2.238-1.206L65.493,12.9a6.741,6.741,0,0,1-3.546-2.366,5.692,5.692,0,0,1-1.108-3.363,5.354,5.354,0,0,1,.6-2.574,5.889,5.889,0,0,1,1.6-1.9,6.918,6.918,0,0,1,2.3-1.206A9.258,9.258,0,0,1,68.13,1.1a10.638,10.638,0,0,1,1.485.093c.51.07.975.162,1.441.255.443.116.864.232,1.263.371a4.728,4.728,0,0,1,.931.417,1.942,1.942,0,0,1,.665.58,1.293,1.293,0,0,1,.2.765v1.09c0,.487-.177.742-.51.742a2.231,2.231,0,0,1-.842-.278,9.754,9.754,0,0,0-4.255-.9,5.511,5.511,0,0,0-2.948.649,2.267,2.267,0,0,0-1.042,2.064,2.24,2.24,0,0,0,.665,1.647,6.519,6.519,0,0,0,2.438,1.276l3.147,1.044A6.712,6.712,0,0,1,74.2,13.137a5.412,5.412,0,0,1,1.019,3.247,5.882,5.882,0,0,1-2.194,4.731,7.03,7.03,0,0,1-2.46,1.3A10.107,10.107,0,0,1,67.4,22.9Z" transform="translate(-9.549)" fill="#252f3e"/>
      <g id="Group_42757" data-name="Group 42757" transform="translate(1.668 25.397)">
        <path id="Path_247558" data-name="Path 247558" d="M61.895,124.838c-7.289,5.636-17.88,8.627-26.986,8.627a47.613,47.613,0,0,1-32.946-13.15c-.687-.649-.066-1.531.753-1.02a64.172,64.172,0,0,0,32.968,9.161,63.26,63.26,0,0,0,25.147-5.381A1.03,1.03,0,1,1,61.895,124.838Z" transform="translate(-1.668 -117.763)" fill="#f90" fill-rule="evenodd"/>
        <path id="Path_247559" data-name="Path 247559" d="M255.545,116.65c-.974-1.252-6.447-.6-8.929-.3-.742.093-.858-.557-.186-1.044,4.36-3.061,11.526-2.18,12.361-1.16.835,1.044-.232,8.21-4.314,11.642-.626.533-1.229.255-.951-.441C254.455,123.051,256.519,117.879,255.545,116.65Z" transform="translate(-192.166 -113.192)" fill="#f90" fill-rule="evenodd"/>
      </g>
    </g>
    <g id="layer1" transform="translate(2004.93 2915.146)">
      <g id="layer1-1" transform="translate(-677.93 313.854)">
        <path id="path21" d="M.006,27.272c5.393-.953,9.848-1.741,9.9-1.752L10,25.5,4.906,19.444c-2.8-3.331-5.092-6.07-5.092-6.085S5.072-1.151,5.1-1.2c.01-.017,3.588,6.16,8.674,14.975L22.5,28.893l.066.116-16.183,0L-9.8,29,.006,27.272Zm62.058-1.465c-2.463-.158-3.9-1.561-4.276-4.186a37.452,37.452,0,0,1-.112-5.251l-.01-4.388h2.18l.009,4.245c.008,3.826.013,4.274.049,4.543a4.025,4.025,0,0,0,.947,2.354,2.717,2.717,0,0,0,1.526.8,5.806,5.806,0,0,0,1.464,0,3.236,3.236,0,0,0,1.659-.9,4.386,4.386,0,0,0,1.118-2.144l.064-.288.007-4.281L66.7,12.03h2.226V25.488h-2.2V24.421a8.09,8.09,0,0,0-.025-1.059.877.877,0,0,0-.126.192,4.478,4.478,0,0,1-1.705,1.707,4.786,4.786,0,0,1-2.8.547Zm25-.011a5.776,5.776,0,0,1-2.534-.827,6.174,6.174,0,0,1-2.784-4.8,11.6,11.6,0,0,1-.027-2.445,7.945,7.945,0,0,1,1.561-3.9,7.975,7.975,0,0,1,.943-.943,5.875,5.875,0,0,1,2.407-1.149,7.822,7.822,0,0,1,1.952-.114,5.132,5.132,0,0,1,3.46,1.777,6.792,6.792,0,0,1,1.4,4.224c.009.277.012.762.005,1.078l-.012.575-4.771.006-4.771.006V19.5a5.277,5.277,0,0,0,.43,2.015,4.43,4.43,0,0,0,.97,1.419,4.266,4.266,0,0,0,2.419,1.023,9.433,9.433,0,0,0,1.58-.061,6.7,6.7,0,0,0,2.98-1.229c.1-.074.194-.144.211-.154a4.025,4.025,0,0,1,.03.994v1.013l-.225.139a7.9,7.9,0,0,1-3.2,1.108,18.359,18.359,0,0,1-2.021.03Zm4.153-8.543a4.336,4.336,0,0,0-1.105-2.913,3.037,3.037,0,0,0-1.685-.817,4.978,4.978,0,0,0-1.308.037,3.418,3.418,0,0,0-1.785.948,4.863,4.863,0,0,0-1.181,1.89,6.069,6.069,0,0,0-.228.929l-.016.114h7.307ZM26.5,25.458c.006-.016,1.626-4.273,3.6-9.459l3.59-9.429h2.307l.1.245c.293.75,7.188,18.652,7.188,18.661s-.552.011-1.227.011H40.823l-.994-2.646L38.836,20.2h-8l-.035.09c-.019.049-.444,1.24-.944,2.646l-.909,2.556h-1.23a6.63,6.63,0,0,1-1.22-.03Zm11.609-7.281s-.669-1.817-1.486-4.029C35.09,10.01,35,9.761,34.883,9.1c-.057-.312-.085-.32-.119-.036a6.6,6.6,0,0,1-.209.91c-.04.125-.729,2.015-1.53,4.2s-1.458,3.982-1.458,3.993,1.471.02,3.269.02,3.269,0,3.269-.008Zm5.915,6.967V24.8l3.987-5.48,3.987-5.48-3.61-.012-3.61-.012-.006-.916-.006-.916H55.2V12.6l-3.987,5.51c-2.193,3.031-3.987,5.515-3.987,5.522s1.773.011,3.939.011h3.939v1.844H44.02Zm29.255.329c-.009-.009-.016-3.048-.016-6.753V11.982h2.179v1.389c0,.764.009,1.389.021,1.389a1.236,1.236,0,0,0,.118-.278,4.8,4.8,0,0,1,1.217-1.875,3.155,3.155,0,0,1,1.722-.856,3.567,3.567,0,0,1,.718-.026,3.182,3.182,0,0,1,1,.14l.09.029v2.262l-.257-.129a2.75,2.75,0,0,0-1.443-.29,2.613,2.613,0,0,0-.862.169,2.728,2.728,0,0,0-1.373,1.121,6.515,6.515,0,0,0-.911,2.62c-.018.16-.028,1.465-.033,4.038l-.006,3.8H74.365C73.774,25.488,73.284,25.481,73.275,25.472Zm-92.691-.047c0-.009,2.4-4.174,5.332-9.256l5.332-9.24,6.214-5.214C.879-1.153,3.685-3.5,3.7-3.507a1.093,1.093,0,0,1-.1.251L-3.151,11.216-9.778,25.428l-4.819.006c-2.65,0-4.819,0-4.819-.009Z" transform="translate(19.415 3.507)" fill="#0089d6"/>
      </g>
    </g>
    <line id="Line_938" data-name="Line 938" x2="289.75" transform="translate(1599.5 3102.5)" fill="none" stroke="#707070" stroke-width="1"/>
    <line id="Line_940" data-name="Line 940" y2="286" transform="translate(1745 3317)" fill="none" stroke="#000" stroke-width="1" stroke-dasharray="2"/>
  </g>
</svg>
