<svg xmlns="http://www.w3.org/2000/svg" width="408.44" height="250.343" viewBox="0 0 408.44 250.343">
  <g id="fields-of-specialization-2" transform="translate(-10.75 -308.983)">
    <rect id="Rectangle_10924" data-name="Rectangle 10924" width="80" height="34" transform="translate(11 309)" fill="#edebe1"/>
    <rect id="Rectangle_10925" data-name="Rectangle 10925" width="46" height="47" transform="translate(279 319)" fill="none"/>
    <rect id="Rectangle_10929" data-name="Rectangle 10929" width="94" height="24" transform="translate(325 342)" fill="#edebe1"/>
    <rect id="Rectangle_10926" data-name="Rectangle 10926" width="53" height="23" transform="translate(225 460)" fill="#edebe1"/>
    <rect id="Rectangle_10927" data-name="Rectangle 10927" width="314" height="19" transform="translate(12 506)" fill="#edebe1"/>
    <rect id="Rectangle_10928" data-name="Rectangle 10928" width="94" height="19" transform="translate(325 506)" fill="#edebe1"/>
    <path id="Line_900" data-name="Line 900" d="M194,.25H0v-.5H194Z" transform="translate(225 460)"/>
    <path id="Line_931" data-name="Line 931" d="M53.9.25H52v-.5h1.9ZM50,.25H48v-.5h2Zm-4,0H44v-.5h2Zm-4,0H40v-.5h2Zm-4,0H36v-.5h2Zm-4,0H32v-.5h2Zm-4,0H28v-.5h2Zm-4,0H24v-.5h2Zm-4,0H20v-.5h2Zm-4,0H16v-.5h2Zm-4,0H12v-.5h2Zm-4,0H8v-.5h2Zm-4,0H4v-.5H6Zm-4,0H0v-.5H2Z" transform="translate(224.5 482.918)"/>
    <path id="Line_904" data-name="Line 904" d="M.25,196h-.5V0h.5Z" transform="translate(278.5 309.5)"/>
    <path id="Line_928" data-name="Line 928" d="M.25,163.035h-.5V0h.5Z" transform="translate(224.474 342.941)"/>
    <path id="Line_914" data-name="Line 914" d="M.25,250h-.5V0h.5Z" transform="translate(325 309)"/>
    <path id="Line_910" data-name="Line 910" d="M.25,33.279h-.5V32h.5ZM.25,30h-.5V28h.5Zm0-4h-.5V24h.5Zm0-4h-.5V20h.5Zm0-4h-.5V16h.5Zm0-4h-.5V12h.5Zm0-4h-.5V8h.5Zm0-4h-.5V4h.5Zm0-4h-.5V0h.5Z" transform="translate(138.5 309.5)"/>
    <path id="Line_913" data-name="Line 913" d="M.25,33.279h-.5V0h.5Z" transform="translate(91 309.662)"/>
    <path id="Line_935" data-name="Line 935" d="M.25,34h-.5V0h.5Z" transform="translate(11 309)"/>
    <path id="Line_911" data-name="Line 911" d="M.25,32.5h-.5V32h.5Zm0-2.5h-.5V28h.5Zm0-4h-.5V24h.5Zm0-4h-.5V20h.5Zm0-4h-.5V16h.5Zm0-4h-.5V12h.5Zm0-4h-.5V8h.5Zm0-4h-.5V4h.5Zm0-4h-.5V0h.5Z" transform="translate(207.5 310)"/>
    <path id="Line_912" data-name="Line 912" d="M.25,33.279h-.5V32h.5ZM.25,30h-.5V28h.5Zm0-4h-.5V24h.5Zm0-4h-.5V20h.5Zm0-4h-.5V16h.5Zm0-4h-.5V12h.5Zm0-4h-.5V8h.5Zm0-4h-.5V4h.5Zm0-4h-.5V0h.5Z" transform="translate(243.5 309.662)"/>
    <path id="Line_915" data-name="Line 915" d="M.25,33h-.5V32h.5Zm0-3h-.5V28h.5Zm0-4h-.5V24h.5Zm0-4h-.5V20h.5Zm0-4h-.5V16h.5Zm0-4h-.5V12h.5Zm0-4h-.5V8h.5Zm0-4h-.5V4h.5Zm0-4h-.5V0h.5Z" transform="translate(372 310)"/>
    <path id="Line_916" data-name="Line 916" d="M.25,249.414h-.5V0h.5Z" transform="translate(418.866 309.5)"/>
    <g id="noun_Android_3889157" transform="translate(340.023 318)">
      <g id="Group_42872" data-name="Group 42872" transform="translate(0 0)">
        <path id="Path_248127" data-name="Path 248127" d="M34,62.011h1.115v1.115a1.275,1.275,0,1,0,2.549,0V62.011H39.9v1.115a1.275,1.275,0,1,0,2.549,0V62.011H43.56V55H34Z" transform="translate(-30.813 -48.467)"/>
        <path id="Path_248128" data-name="Path 248128" d="M41.038,14.086A.626.626,0,0,0,40.719,14a.637.637,0,0,0-.551.319l-.956,1.662a4.78,4.78,0,0,0-6.294,0l-.962-1.662A.637.637,0,0,0,31.4,14a.626.626,0,0,0-.319.086.637.637,0,0,0-.234.87l1.184,2.049a4.734,4.734,0,0,0-.754,2.572h9.56a4.734,4.734,0,0,0-.754-2.572l1.184-2.049A.637.637,0,0,0,41.038,14.086ZM34.23,18.3a.478.478,0,1,1,.478-.478A.478.478,0,0,1,34.23,18.3Zm3.665,0a.478.478,0,1,1,.478-.478A.478.478,0,0,1,37.894,18.3Z" transform="translate(-28.095 -14)"/>
        <path id="Path_248129" data-name="Path 248129" d="M102.956,55a.956.956,0,0,0-.956.956v3.187a.956.956,0,0,0,1.912,0V55.956A.956.956,0,0,0,102.956,55Z" transform="translate(-87.979 -48.467)"/>
        <path id="Path_248130" data-name="Path 248130" d="M14.956,55a.956.956,0,0,0-.956.956v3.187a.956.956,0,0,0,1.912,0V55.956A.956.956,0,0,0,14.956,55Z" transform="translate(-14 -48.467)"/>
      </g>
    </g>
    <g id="noun_Apple_1426926" transform="translate(388.24 317)">
      <g id="Group_42873" data-name="Group 42873" transform="translate(0 0)">
        <path id="Path_248131" data-name="Path 248131" d="M25.2,960.362c-1.845.623-3.283,1.247-3.078,3.948C23.969,963.894,25.612,962.855,25.2,960.362Zm-5.86,3.75A4.541,4.541,0,0,0,15,968.652c0,4.145,2.763,8.29,4.342,8.29,1.184,0,2.171-.789,2.961-.789s1.579.789,2.763.789c1.579,0,3.355-2.369,3.75-4.54-1.382-.987-2.369-1.579-2.369-3.355,0-1.184.987-2.369,2.171-3.355a4.027,4.027,0,0,0-2.961-1.579c-1.184,0-2.458.937-3.355.987C21.514,965.1,20.527,964.112,19.342,964.112Z" transform="translate(-15 -960.362)"/>
      </g>
    </g>
    <path id="Path_248783" data-name="Path 248783" d="M10.864-10.864H7.069V0H4.063V-10.864H.288V-13.3H10.864Zm8.331,6.949H13q.148,2.069,2.607,2.069a5.09,5.09,0,0,0,2.755-.742V-.473a7.238,7.238,0,0,1-3.423.705,4.819,4.819,0,0,1-3.572-1.276A4.819,4.819,0,0,1,10.094-4.6,5.084,5.084,0,0,1,11.467-8.35a4.574,4.574,0,0,1,3.377-1.382A4.152,4.152,0,0,1,18.058-8.5a4.752,4.752,0,0,1,1.136,3.349Zm-2.718-1.8q0-2.041-1.651-2.041a1.577,1.577,0,0,0-1.22.584,2.653,2.653,0,0,0-.626,1.457ZM28.138-.343a5.8,5.8,0,0,1-2.867.575,4.848,4.848,0,0,1-3.544-1.327,4.582,4.582,0,0,1-1.354-3.423,5.048,5.048,0,0,1,1.452-3.818,5.366,5.366,0,0,1,3.883-1.4,4.982,4.982,0,0,1,2.431.445V-6.8a3.342,3.342,0,0,0-2.05-.687,2.7,2.7,0,0,0-2,.738,2.752,2.752,0,0,0-.738,2.036,2.707,2.707,0,0,0,.705,1.981A2.591,2.591,0,0,0,26-2.013,3.869,3.869,0,0,0,28.138-2.7ZM39.178,0H36.256V-5.4q0-2.087-1.521-2.087a1.558,1.558,0,0,0-1.262.584,2.254,2.254,0,0,0-.482,1.484V0H30.059V-14.064H32.99V-8.09h.037A3.331,3.331,0,0,1,35.95-9.732q3.229,0,3.229,3.9ZM50.673,0H47.75V-5.279q0-2.208-1.577-2.208a1.565,1.565,0,0,0-1.252.584,2.227,2.227,0,0,0-.492,1.484V0H41.5V-9.5h2.932V-8h.037a3.359,3.359,0,0,1,3.052-1.735q3.154,0,3.154,3.915ZM57.52.232A5.107,5.107,0,0,1,53.785-1.1a4.827,4.827,0,0,1-1.359-3.614A4.827,4.827,0,0,1,53.836-8.4a5.328,5.328,0,0,1,3.813-1.331A5.045,5.045,0,0,1,61.36-8.4,4.732,4.732,0,0,1,62.706-4.88a5.023,5.023,0,0,1-1.387,3.739A5.163,5.163,0,0,1,57.52.232Zm.074-7.719a1.955,1.955,0,0,0-1.614.714A3.15,3.15,0,0,0,55.4-4.75q0,2.737,2.208,2.737,2.106,0,2.106-2.811Q59.718-7.487,57.594-7.487ZM67.539,0H64.607V-14.064h2.932Zm7,.232A5.107,5.107,0,0,1,70.8-1.1a4.827,4.827,0,0,1-1.359-3.614A4.827,4.827,0,0,1,70.851-8.4a5.328,5.328,0,0,1,3.813-1.331A5.045,5.045,0,0,1,78.375-8.4,4.732,4.732,0,0,1,79.72-4.88a5.023,5.023,0,0,1-1.387,3.739A5.163,5.163,0,0,1,74.534.232Zm.074-7.719a1.955,1.955,0,0,0-1.614.714,3.15,3.15,0,0,0-.575,2.022q0,2.737,2.208,2.737,2.106,0,2.106-2.811Q76.733-7.487,74.608-7.487Zm16.328,6.4a5.375,5.375,0,0,1-1.531,4.1,6.2,6.2,0,0,1-4.435,1.452,7.029,7.029,0,0,1-3.043-.547V1.447a5.827,5.827,0,0,0,2.959.854,3.188,3.188,0,0,0,2.3-.784A2.813,2.813,0,0,0,88-.612v-.751h-.037a3.274,3.274,0,0,1-2.959,1.6,3.56,3.56,0,0,1-2.885-1.28,5.192,5.192,0,0,1-1.067-3.433,5.783,5.783,0,0,1,1.188-3.832A3.877,3.877,0,0,1,85.37-9.732a2.885,2.885,0,0,1,2.6,1.336H88V-9.5h2.932ZM88.042-4.564v-.751a2.309,2.309,0,0,0-.533-1.535,1.725,1.725,0,0,0-1.387-.635,1.793,1.793,0,0,0-1.531.761,3.577,3.577,0,0,0-.557,2.143A3.019,3.019,0,0,0,84.563-2.7a1.723,1.723,0,0,0,1.447.691,1.794,1.794,0,0,0,1.47-.7A2.872,2.872,0,0,0,88.042-4.564ZM94.87-11a1.712,1.712,0,0,1-1.215-.441,1.42,1.42,0,0,1-.473-1.081,1.369,1.369,0,0,1,.473-1.076,1.769,1.769,0,0,1,1.215-.417,1.765,1.765,0,0,1,1.22.417,1.375,1.375,0,0,1,.469,1.076,1.414,1.414,0,0,1-.469,1.095A1.741,1.741,0,0,1,94.87-11ZM96.317,0H93.386V-9.5h2.932Zm11-3.915h-6.2q.148,2.069,2.607,2.069a5.09,5.09,0,0,0,2.755-.742V-.473a7.239,7.239,0,0,1-3.423.705A4.819,4.819,0,0,1,99.49-1.044,4.819,4.819,0,0,1,98.219-4.6,5.084,5.084,0,0,1,99.592-8.35a4.574,4.574,0,0,1,3.377-1.382A4.152,4.152,0,0,1,106.184-8.5a4.752,4.752,0,0,1,1.136,3.349Zm-2.718-1.8q0-2.041-1.651-2.041a1.577,1.577,0,0,0-1.22.584,2.653,2.653,0,0,0-.626,1.457ZM108.443-.25V-2.625a6.242,6.242,0,0,0,1.443.649,4.783,4.783,0,0,0,1.359.213,2.915,2.915,0,0,0,1.229-.213.689.689,0,0,0,.45-.649.6.6,0,0,0-.2-.464,1.9,1.9,0,0,0-.524-.325,5.948,5.948,0,0,0-.7-.25q-.38-.111-.733-.25a7.022,7.022,0,0,1-1-.459,2.883,2.883,0,0,1-.724-.571A2.243,2.243,0,0,1,108.6-5.7a3,3,0,0,1-.153-1.011,2.6,2.6,0,0,1,.348-1.373,2.842,2.842,0,0,1,.928-.942,4.239,4.239,0,0,1,1.327-.538,6.917,6.917,0,0,1,1.554-.172,8.622,8.622,0,0,1,1.28.1,9.555,9.555,0,0,1,1.28.283v2.264a4.626,4.626,0,0,0-1.192-.487,5.029,5.029,0,0,0-1.248-.162,2.764,2.764,0,0,0-.543.051,1.788,1.788,0,0,0-.45.148.826.826,0,0,0-.306.25.577.577,0,0,0-.111.348.643.643,0,0,0,.167.445,1.45,1.45,0,0,0,.436.32,4.3,4.3,0,0,0,.6.241q.329.107.654.218a8.5,8.5,0,0,1,1.058.445,3.382,3.382,0,0,1,.812.566,2.222,2.222,0,0,1,.52.761,2.7,2.7,0,0,1,.181,1.039,2.71,2.71,0,0,1-.366,1.443,2.934,2.934,0,0,1-.974.974,4.418,4.418,0,0,1-1.4.547,7.766,7.766,0,0,1-1.647.172A8.489,8.489,0,0,1,108.443-.25Zm26.709.464a3.282,3.282,0,0,1-.932-.13,3.981,3.981,0,0,1-.835-.353,4.713,4.713,0,0,1-.747-.524,7.727,7.727,0,0,1-.668-.645,7.849,7.849,0,0,1-.826.575,6.748,6.748,0,0,1-1.09.533,8.468,8.468,0,0,1-1.341.39,7.661,7.661,0,0,1-1.568.153,7.393,7.393,0,0,1-2.009-.26,4.629,4.629,0,0,1-1.591-.775A3.6,3.6,0,0,1,122.5-2.1a3.933,3.933,0,0,1-.376-1.763,3.336,3.336,0,0,1,.283-1.406,3.782,3.782,0,0,1,.738-1.081,4.828,4.828,0,0,1,1.03-.8,7.738,7.738,0,0,1,1.169-.557,6.142,6.142,0,0,1-.58-.515,4.188,4.188,0,0,1-.524-.64,3.383,3.383,0,0,1-.376-.756,2.578,2.578,0,0,1-.144-.863,2.755,2.755,0,0,1,.3-1.3,2.76,2.76,0,0,1,.83-.956,3.888,3.888,0,0,1,1.276-.594,6.147,6.147,0,0,1,1.633-.2,5.413,5.413,0,0,1,1.563.213,3.9,3.9,0,0,1,1.22.594,2.677,2.677,0,0,1,.789.914,2.5,2.5,0,0,1,.278,1.174,2.738,2.738,0,0,1-.617,1.786,4.389,4.389,0,0,1-1.74,1.229,7.09,7.09,0,0,1,.854.464,7.01,7.01,0,0,1,.8.594,7.614,7.614,0,0,1,.761.756,8.9,8.9,0,0,1,.733.969,6.123,6.123,0,0,0,1.09-2.036,7.675,7.675,0,0,0,.329-2.25,5.31,5.31,0,0,0-.042-.677,3.192,3.192,0,0,0-.135-.6h2.5a3.585,3.585,0,0,1,.148.575,4.063,4.063,0,0,1,.046.659,8.038,8.038,0,0,1-.19,1.753,8.773,8.773,0,0,1-.533,1.633,8.637,8.637,0,0,1-.83,1.475,10.581,10.581,0,0,1-1.072,1.3,3.737,3.737,0,0,0,.937.728,1.954,1.954,0,0,0,.909.255,4.417,4.417,0,0,0,.909-.1,3.208,3.208,0,0,0,.807-.274V-.186a5.631,5.631,0,0,1-1.007.3A5.778,5.778,0,0,1,135.152.213ZM127.294-2a4.761,4.761,0,0,0,1.03-.107,5.472,5.472,0,0,0,.909-.283,5.171,5.171,0,0,0,.793-.408,6.823,6.823,0,0,0,.673-.482,9.554,9.554,0,0,0-.937-1.257,8.046,8.046,0,0,0-.918-.881,6.437,6.437,0,0,0-.9-.617q-.45-.25-.9-.455a6.7,6.7,0,0,0-.728.413,3.079,3.079,0,0,0-.617.529,2.456,2.456,0,0,0-.431.687,2.264,2.264,0,0,0-.162.886,2,2,0,0,0,.158.807,1.765,1.765,0,0,0,.45.622,2.09,2.09,0,0,0,.7.4A2.652,2.652,0,0,0,127.294-2Zm1.716-8.424a1.1,1.1,0,0,0-.1-.482,1.025,1.025,0,0,0-.278-.357,1.325,1.325,0,0,0-.4-.223,1.407,1.407,0,0,0-.473-.079,1.632,1.632,0,0,0-.561.093,1.486,1.486,0,0,0-.445.25,1.076,1.076,0,0,0-.292.376,1.091,1.091,0,0,0-.1.469,1.565,1.565,0,0,0,.325.956,2.531,2.531,0,0,0,.807.705,4.287,4.287,0,0,0,.58-.26,2.154,2.154,0,0,0,.482-.353,1.6,1.6,0,0,0,.334-.473A1.458,1.458,0,0,0,129.011-10.428ZM4.518,22.417V27h-3V13.7H6.216q5.028,0,5.028,4.24A4.068,4.068,0,0,1,9.8,21.178a5.715,5.715,0,0,1-3.855,1.239Zm0-6.42v4.147H5.7q2.394,0,2.394-2.1Q8.09,16,5.7,16ZM15.836,27H12.9V12.936h2.932Zm10.372,0H23.435V25.636H23.4a3.1,3.1,0,0,1-2.83,1.6,2.96,2.96,0,0,1-2.176-.784,2.809,2.809,0,0,1-.793-2.092q0-2.765,3.275-3.191l2.579-.343q0-1.559-1.688-1.559a5.763,5.763,0,0,0-3.229,1.011V18.066a7.263,7.263,0,0,1,1.675-.557,8.8,8.8,0,0,1,1.934-.241q4.063,0,4.063,4.054Zm-2.755-3.859V22.5l-1.726.223q-1.429.186-1.429,1.29a1.066,1.066,0,0,0,.348.821,1.337,1.337,0,0,0,.942.32,1.736,1.736,0,0,0,1.345-.571A2.061,2.061,0,0,0,23.453,23.141Zm10.817,3.748a4.333,4.333,0,0,1-1.958.343q-3.1,0-3.1-3.219V19.662h-1.54V17.5h1.54V15.45l2.922-.835V17.5h2.134v2.162H32.137V23.5q0,1.484,1.178,1.484a1.986,1.986,0,0,0,.956-.269Zm7.849-11.708a2.961,2.961,0,0,0-1.085-.223q-1.41,0-1.41,1.531V17.5h2.171v2.162H39.624V27H36.7V19.662h-1.6V17.5h1.6V16.322a3.421,3.421,0,0,1,1.058-2.616,4.034,4.034,0,0,1,2.876-.993,5.051,5.051,0,0,1,1.484.186Zm5.613,12.051A5.107,5.107,0,0,1,44,25.9a4.827,4.827,0,0,1-1.359-3.614,4.827,4.827,0,0,1,1.41-3.688,5.328,5.328,0,0,1,3.813-1.331A5.045,5.045,0,0,1,51.573,18.6a4.732,4.732,0,0,1,1.345,3.521,5.023,5.023,0,0,1-1.387,3.739A5.163,5.163,0,0,1,47.732,27.232Zm.074-7.719a1.955,1.955,0,0,0-1.614.714,3.15,3.15,0,0,0-.575,2.022q0,2.737,2.208,2.737,2.106,0,2.106-2.811Q49.931,19.513,47.806,19.513Zm13.211.631a2.543,2.543,0,0,0-1.234-.288,1.778,1.778,0,0,0-1.494.7,3.056,3.056,0,0,0-.538,1.906V27H54.82V17.5h2.932v1.763h.037a2.536,2.536,0,0,1,2.5-1.93,1.888,1.888,0,0,1,.724.111ZM77.521,27H74.6V21.582q0-2.069-1.521-2.069a1.4,1.4,0,0,0-1.178.622,2.554,2.554,0,0,0-.455,1.549V27H68.513V21.526q0-2.013-1.494-2.013a1.432,1.432,0,0,0-1.2.594,2.613,2.613,0,0,0-.45,1.614V27H62.437V17.5h2.932v1.484h.037a3.6,3.6,0,0,1,3.071-1.716,2.736,2.736,0,0,1,2.755,1.772,3.514,3.514,0,0,1,3.191-1.772q3.1,0,3.1,3.822Zm1.7-.25V24.375a6.242,6.242,0,0,0,1.443.649,4.783,4.783,0,0,0,1.359.213,2.915,2.915,0,0,0,1.229-.213.689.689,0,0,0,.45-.649.6.6,0,0,0-.2-.464,1.9,1.9,0,0,0-.524-.325,5.948,5.948,0,0,0-.7-.25q-.38-.111-.733-.25a7.022,7.022,0,0,1-1-.459,2.883,2.883,0,0,1-.724-.571,2.243,2.243,0,0,1-.445-.751,3,3,0,0,1-.153-1.011,2.6,2.6,0,0,1,.348-1.373,2.842,2.842,0,0,1,.928-.942,4.239,4.239,0,0,1,1.327-.538,6.917,6.917,0,0,1,1.554-.172,8.622,8.622,0,0,1,1.28.1,9.556,9.556,0,0,1,1.28.283v2.264a4.626,4.626,0,0,0-1.192-.487,5.029,5.029,0,0,0-1.248-.162,2.764,2.764,0,0,0-.543.051,1.788,1.788,0,0,0-.45.148.826.826,0,0,0-.306.25.577.577,0,0,0-.111.348.643.643,0,0,0,.167.445,1.45,1.45,0,0,0,.436.32,4.3,4.3,0,0,0,.6.241q.329.107.654.218A8.5,8.5,0,0,1,85,21.73a3.382,3.382,0,0,1,.812.566,2.222,2.222,0,0,1,.52.761,3.044,3.044,0,0,1-.186,2.482,2.934,2.934,0,0,1-.974.974,4.418,4.418,0,0,1-1.4.547,7.766,7.766,0,0,1-1.647.172A8.489,8.489,0,0,1,79.219,26.75Z" transform="translate(39 416)"/>
    <path id="Path_248782" data-name="Path 248782" d="M-38.515,0l-.78-1.88h-2.84l-.8,1.88h-.82l3.07-6.99L-37.7,0Zm-3.33-2.58h2.26l-1.12-2.67Zm8.09-.98V-7.29h.72V0h-.72V-.58a1.708,1.708,0,0,1-1.42.7,1.965,1.965,0,0,1-1.43-.58,2.168,2.168,0,0,1-.59-1.62,2.135,2.135,0,0,1,.585-1.6,1.969,1.969,0,0,1,1.435-.575A1.682,1.682,0,0,1-33.755-3.56Zm-1.34-.05a1.3,1.3,0,0,0-.965.405,1.543,1.543,0,0,0-.4,1.125A1.691,1.691,0,0,0-36.09-.955,1.23,1.23,0,0,0-35.1-.52,1.241,1.241,0,0,0-34.09-.97a1.661,1.661,0,0,0,.375-1.1,1.5,1.5,0,0,0-.42-1.14A1.353,1.353,0,0,0-35.1-3.61Zm6.93,3.11a2.128,2.128,0,0,1-1.57.62A2.144,2.144,0,0,1-31.31-.5a2.106,2.106,0,0,1-.625-1.56,2.119,2.119,0,0,1,.625-1.57,2.144,2.144,0,0,1,1.575-.62,2.144,2.144,0,0,1,1.575.62,2.119,2.119,0,0,1,.625,1.57A2.1,2.1,0,0,1-28.165-.5Zm-.54-2.7a1.418,1.418,0,0,0-1.03-.41,1.426,1.426,0,0,0-1.035.415A1.513,1.513,0,0,0-31.2-2.06a1.487,1.487,0,0,0,.43,1.13,1.44,1.44,0,0,0,1.03.41,1.44,1.44,0,0,0,1.03-.41,1.487,1.487,0,0,0,.43-1.13A1.5,1.5,0,0,0-28.705-3.2Zm2.99,2.62V0h-.72V-7.29h.72v3.72a1.743,1.743,0,0,1,1.42-.68,1.818,1.818,0,0,1,1.475.655,2.34,2.34,0,0,1,.545,1.545,2.29,2.29,0,0,1-.54,1.535,1.806,1.806,0,0,1-1.45.635A1.737,1.737,0,0,1-25.715-.58Zm1.35.06a1.211,1.211,0,0,0,.98-.445,1.641,1.641,0,0,0,.37-1.085,1.562,1.562,0,0,0-.41-1.14,1.289,1.289,0,0,0-.95-.42,1.321,1.321,0,0,0-.96.42,1.527,1.527,0,0,0-.42,1.13A1.615,1.615,0,0,0-25.37-.965,1.266,1.266,0,0,0-24.365-.52Zm6.27-.87.6.33a2.375,2.375,0,0,1-.51.67,2,2,0,0,1-1.38.51A2.085,2.085,0,0,1-20.83-.425a2.076,2.076,0,0,1-.6-1.625,2.31,2.31,0,0,1,.545-1.575,1.845,1.845,0,0,1,1.465-.625,1.79,1.79,0,0,1,1.57.76,2.52,2.52,0,0,1,.39,1.56H-20.7a1.434,1.434,0,0,0,.39,1.02,1.249,1.249,0,0,0,.93.39,1.286,1.286,0,0,0,.85-.3A1.633,1.633,0,0,0-18.1-1.39Zm-2.55-1.14h2.44a1.33,1.33,0,0,0-.425-.785,1.163,1.163,0,0,0-.8-.3,1.165,1.165,0,0,0-.8.305A1.292,1.292,0,0,0-20.645-2.53Zm11.89-3.59v.92a3.07,3.07,0,0,0-.87-.62,2.748,2.748,0,0,0-1.15-.26,2.532,2.532,0,0,0-1.915.805A2.759,2.759,0,0,0-13.455-3.3a2.507,2.507,0,0,0,.835,1.99,2.752,2.752,0,0,0,1.855.73,2.67,2.67,0,0,0,1.24-.31,2.954,2.954,0,0,0,.77-.56v.92a3.381,3.381,0,0,1-2.01.65A3.335,3.335,0,0,1-13.23-.87a3.324,3.324,0,0,1-.985-2.44,3.355,3.355,0,0,1,.995-2.48,3.393,3.393,0,0,1,2.495-.99A3.176,3.176,0,0,1-8.755-6.12ZM-7.575,0V-4.15h.72v.45a1.069,1.069,0,0,1,.94-.55,1.437,1.437,0,0,1,.64.17l-.34.65a.721.721,0,0,0-.42-.14.687.687,0,0,0-.58.26,1.936,1.936,0,0,0-.24,1.12V0Zm5.8-1.39.6.33a2.375,2.375,0,0,1-.51.67,2,2,0,0,1-1.38.51A2.085,2.085,0,0,1-4.51-.425,2.076,2.076,0,0,1-5.115-2.05,2.31,2.31,0,0,1-4.57-3.625,1.845,1.845,0,0,1-3.105-4.25a1.79,1.79,0,0,1,1.57.76,2.52,2.52,0,0,1,.39,1.56h-3.23a1.434,1.434,0,0,0,.39,1.02,1.249,1.249,0,0,0,.93.39,1.286,1.286,0,0,0,.85-.3A1.633,1.633,0,0,0-1.775-1.39Zm-2.55-1.14h2.44a1.33,1.33,0,0,0-.425-.785,1.163,1.163,0,0,0-.795-.3,1.165,1.165,0,0,0-.8.305A1.292,1.292,0,0,0-4.325-2.53Zm7.46-1.03v-.59h.72V0h-.72V-.58a1.708,1.708,0,0,1-1.42.7A1.965,1.965,0,0,1,.285-.46a2.168,2.168,0,0,1-.59-1.62,2.135,2.135,0,0,1,.585-1.6A1.969,1.969,0,0,1,1.715-4.25,1.682,1.682,0,0,1,3.135-3.56Zm-1.34-.05A1.3,1.3,0,0,0,.83-3.2,1.543,1.543,0,0,0,.435-2.08,1.691,1.691,0,0,0,.8-.955a1.23,1.23,0,0,0,.995.435,1.241,1.241,0,0,0,1-.45,1.661,1.661,0,0,0,.375-1.1,1.5,1.5,0,0,0-.42-1.14A1.353,1.353,0,0,0,1.795-3.61Zm4.88.12h-.72V0h-.72V-3.49h-.44v-.66h.44v-1.5h.72v1.5h.72Zm.68-.66h.72V0h-.72Zm0-1.21a.491.491,0,0,1-.15-.36.491.491,0,0,1,.15-.36.491.491,0,0,1,.36-.15.491.491,0,0,1,.36.15.491.491,0,0,1,.15.36.491.491,0,0,1-.15.36.491.491,0,0,1-.36.15A.491.491,0,0,1,7.355-5.36Zm1.48,1.21h.8l1.24,2.8,1.24-2.8h.8L10.875.27Zm7.92,2.76.6.33a2.375,2.375,0,0,1-.51.67,2,2,0,0,1-1.38.51A2.085,2.085,0,0,1,14.02-.425a2.076,2.076,0,0,1-.6-1.625,2.31,2.31,0,0,1,.545-1.575,1.845,1.845,0,0,1,1.465-.625,1.79,1.79,0,0,1,1.57.76,2.52,2.52,0,0,1,.39,1.56h-3.23a1.434,1.434,0,0,0,.39,1.02,1.249,1.249,0,0,0,.93.39,1.286,1.286,0,0,0,.85-.3A1.633,1.633,0,0,0,16.755-1.39ZM14.2-2.53h2.44a1.33,1.33,0,0,0-.425-.785,1.163,1.163,0,0,0-.8-.3,1.165,1.165,0,0,0-.8.305A1.292,1.292,0,0,0,14.2-2.53Zm11.89-3.59v.92a3.07,3.07,0,0,0-.87-.62,2.748,2.748,0,0,0-1.15-.26,2.532,2.532,0,0,0-1.915.805A2.759,2.759,0,0,0,21.395-3.3a2.507,2.507,0,0,0,.835,1.99,2.752,2.752,0,0,0,1.855.73,2.67,2.67,0,0,0,1.24-.31,2.954,2.954,0,0,0,.77-.56v.92a3.381,3.381,0,0,1-2.01.65A3.335,3.335,0,0,1,21.62-.87a3.324,3.324,0,0,1-.985-2.44,3.355,3.355,0,0,1,1-2.48,3.393,3.393,0,0,1,2.495-.99A3.176,3.176,0,0,1,26.095-6.12Zm1.18-1.17h.72V0h-.72ZM32.865-.5a2.128,2.128,0,0,1-1.57.62A2.144,2.144,0,0,1,29.72-.5a2.106,2.106,0,0,1-.625-1.56,2.119,2.119,0,0,1,.625-1.57,2.144,2.144,0,0,1,1.575-.62,2.144,2.144,0,0,1,1.575.62,2.119,2.119,0,0,1,.625,1.57A2.1,2.1,0,0,1,32.865-.5Zm-.54-2.7a1.418,1.418,0,0,0-1.03-.41,1.426,1.426,0,0,0-1.035.415,1.513,1.513,0,0,0-.425,1.135,1.487,1.487,0,0,0,.43,1.13,1.44,1.44,0,0,0,1.03.41,1.44,1.44,0,0,0,1.03-.41,1.487,1.487,0,0,0,.43-1.13A1.5,1.5,0,0,0,32.325-3.2Zm2.99-.95v2.42a1.5,1.5,0,0,0,.2.89.87.87,0,0,0,.73.32.87.87,0,0,0,.73-.32,1.5,1.5,0,0,0,.2-.89V-4.15h.72v2.5a1.786,1.786,0,0,1-.38,1.25,1.666,1.666,0,0,1-1.27.52,1.666,1.666,0,0,1-1.27-.52,1.786,1.786,0,0,1-.38-1.25v-2.5Zm7.12.59V-7.29h.72V0h-.72V-.58a1.708,1.708,0,0,1-1.42.7,1.965,1.965,0,0,1-1.43-.58,2.168,2.168,0,0,1-.59-1.62,2.135,2.135,0,0,1,.585-1.6,1.969,1.969,0,0,1,1.435-.575A1.682,1.682,0,0,1,42.435-3.56ZM41.1-3.61a1.3,1.3,0,0,0-.965.405,1.543,1.543,0,0,0-.4,1.125A1.691,1.691,0,0,0,40.1-.955,1.23,1.23,0,0,0,41.1-.52,1.241,1.241,0,0,0,42.1-.97a1.661,1.661,0,0,0,.375-1.1,1.5,1.5,0,0,0-.42-1.14A1.353,1.353,0,0,0,41.1-3.61Z" transform="translate(275 545)"/>
    <path id="Path_248781" data-name="Path 248781" d="M.336,0H1.392l.544-3.288L3.3,0h.352L5.088-3.288,5.568,0H6.624l-.9-5.336H4.976L3.5-1.944,2.08-5.336H1.328ZM11.2,0h1.12L10.088-5.336H9.272L6.976,0H8.1l.472-1.12h2.152ZM8.9-1.968l.76-1.92.76,1.92Zm4.04-3.368V0H14.32a3.062,3.062,0,0,0,1.952-.512,2.544,2.544,0,0,0,1.072-2.152A2.641,2.641,0,0,0,16.32-4.816a3.108,3.108,0,0,0-1.984-.52Zm1.04.9h.32a2.171,2.171,0,0,1,1.312.352,1.778,1.778,0,0,1,.656,1.424,1.736,1.736,0,0,1-.664,1.416A2.233,2.233,0,0,1,14.3-.9h-.32Zm4.32-.9V0h1.04V-1.976h.672a1.829,1.829,0,0,0,1.352-.472,1.715,1.715,0,0,0,.44-1.192,1.7,1.7,0,0,0-.544-1.288,1.913,1.913,0,0,0-1.408-.408Zm1.04.9h.36a1.252,1.252,0,0,1,.736.168.735.735,0,0,1,.3.608.8.8,0,0,1-.288.624,1.064,1.064,0,0,1-.68.168h-.424Z" transform="translate(361 357)"/>
    <path id="Path_248780" data-name="Path 248780" d="M-15.976-5.336V0H-14.6a3.062,3.062,0,0,0,1.952-.512,2.544,2.544,0,0,0,1.072-2.152A2.641,2.641,0,0,0-12.6-4.816a3.108,3.108,0,0,0-1.984-.52Zm1.04.9h.32a2.171,2.171,0,0,1,1.312.352,1.778,1.778,0,0,1,.656,1.424,1.736,1.736,0,0,1-.664,1.416,2.233,2.233,0,0,1-1.3.352h-.32ZM-8.1-3.016a1.255,1.255,0,0,0-1.112-.56,1.732,1.732,0,0,0-1.72,1.84A1.758,1.758,0,0,0-9.168.112,1.242,1.242,0,0,0-8.1-.448V0h.976V-3.464H-8.1Zm-.864.3a.942.942,0,0,1,.96.976.949.949,0,0,1-.96.984.949.949,0,0,1-.96-.984A.942.942,0,0,1-8.968-2.712Zm4.416.08v-.832h-.672V-4.648H-6.2v1.184h-.384v.832H-6.2V0h.976V-2.632Zm3.168-.384A1.255,1.255,0,0,0-2.5-3.576a1.732,1.732,0,0,0-1.72,1.84A1.758,1.758,0,0,0-2.448.112a1.242,1.242,0,0,0,1.064-.56V0h.976V-3.464h-.976Zm-.864.3a.942.942,0,0,1,.96.976.949.949,0,0,1-.96.984.949.949,0,0,1-.96-.984A.942.942,0,0,1-2.248-2.712ZM1.5-5.832H.52V0H1.5V-.448a1.309,1.309,0,0,0,1.1.56A1.727,1.727,0,0,0,4.328-1.736a1.706,1.706,0,0,0-1.7-1.84,1.344,1.344,0,0,0-1.128.56Zm.864,3.12a.942.942,0,0,1,.96.976.949.949,0,0,1-.96.984.949.949,0,0,1-.96-.984A.942.942,0,0,1,2.36-2.712Zm5.376-.3a1.255,1.255,0,0,0-1.112-.56A1.732,1.732,0,0,0,4.9-1.736,1.758,1.758,0,0,0,6.672.112a1.242,1.242,0,0,0,1.064-.56V0h.976V-3.464H7.736Zm-.864.3a.942.942,0,0,1,.96.976.949.949,0,0,1-.96.984.949.949,0,0,1-.96-.984A.942.942,0,0,1,6.872-2.712Zm5.136-.5a1.728,1.728,0,0,0-1.1-.368,1.429,1.429,0,0,0-.9.248,1.029,1.029,0,0,0-.36.784A.929.929,0,0,0,9.9-1.88a1.869,1.869,0,0,0,.744.416l.224.08a.386.386,0,0,1,.3.352c0,.24-.208.376-.48.376a1.074,1.074,0,0,1-.768-.4l-.512.592A1.751,1.751,0,0,0,10.76.112,1.455,1.455,0,0,0,11.8-.256a1.151,1.151,0,0,0,.384-.88,1,1,0,0,0-.176-.576,1.775,1.775,0,0,0-.88-.5L10.9-2.28c-.272-.088-.312-.224-.312-.312,0-.168.144-.28.376-.28a.81.81,0,0,1,.568.232Zm3.368,2.1a.893.893,0,0,1-.808.456.825.825,0,0,1-.7-.328,1.022,1.022,0,0,1-.168-.584H16.3v-.08a2.071,2.071,0,0,0-.416-1.36,1.656,1.656,0,0,0-1.352-.568,1.775,1.775,0,0,0-1.3.488,1.845,1.845,0,0,0-.528,1.36A1.745,1.745,0,0,0,13.24-.376a1.813,1.813,0,0,0,1.328.488,1.711,1.711,0,0,0,1.7-1.08Zm-1.64-1.08a.815.815,0,0,1,.816-.7.816.816,0,0,1,.824.7ZM-22.832,2.664V8h1.04V6.024h.672a1.829,1.829,0,0,0,1.352-.472,1.715,1.715,0,0,0,.44-1.192,1.7,1.7,0,0,0-.544-1.288,1.913,1.913,0,0,0-1.408-.408Zm1.04.9h.36a1.252,1.252,0,0,1,.736.168.735.735,0,0,1,.3.608.8.8,0,0,1-.288.624,1.064,1.064,0,0,1-.68.168h-.424ZM-18.7,8h.976V6.336a1.19,1.19,0,0,1,.192-.768.8.8,0,0,1,.648-.28.734.734,0,0,1,.456.128L-16.3,4.5a1.2,1.2,0,0,0-.416-.08,1.061,1.061,0,0,0-.576.152,1.168,1.168,0,0,0-.432.48v-.52H-18.7ZM-14.1,4.424a1.993,1.993,0,0,0-1.4.488,1.825,1.825,0,0,0-.584,1.36A1.82,1.82,0,0,0-15.5,7.624a1.993,1.993,0,0,0,1.4.488,1.993,1.993,0,0,0,1.4-.488,1.82,1.82,0,0,0,.584-1.352,1.825,1.825,0,0,0-.584-1.36A1.993,1.993,0,0,0-14.1,4.424Zm0,2.824a.965.965,0,0,1-.976-.976.967.967,0,0,1,.976-.984.967.967,0,0,1,.976.984A.965.965,0,0,1-14.1,7.248ZM-8.72,4.984a1.219,1.219,0,0,0-1.088-.56A1.7,1.7,0,0,0-11,4.888a1.927,1.927,0,0,0-.536,1.376,1.9,1.9,0,0,0,.552,1.376,1.64,1.64,0,0,0,1.2.472A1.214,1.214,0,0,0-8.72,7.536v.488a.976.976,0,0,1-.248.768.823.823,0,0,1-.592.216.861.861,0,0,1-.592-.184.832.832,0,0,1-.24-.416h-1.056a1.919,1.919,0,0,0,.56,1.032,1.884,1.884,0,0,0,1.3.4,1.841,1.841,0,0,0,1.368-.488,1.985,1.985,0,0,0,.48-1.512v-3.3H-8.72Zm-.848.3a.889.889,0,0,1,.68.28.987.987,0,0,1,.28.7,1.021,1.021,0,0,1-.312.744.981.981,0,0,1-.648.24.948.948,0,0,1-.7-.3.962.962,0,0,1-.256-.68.949.949,0,0,1,.312-.736A.939.939,0,0,1-9.568,5.288ZM-6.816,8h.976V6.336a1.19,1.19,0,0,1,.192-.768A.8.8,0,0,1-5,5.288a.734.734,0,0,1,.456.128l.128-.912a1.2,1.2,0,0,0-.416-.08,1.061,1.061,0,0,0-.576.152,1.168,1.168,0,0,0-.432.48v-.52h-.976ZM-1.36,4.984a1.255,1.255,0,0,0-1.112-.56,1.732,1.732,0,0,0-1.72,1.84A1.758,1.758,0,0,0-2.424,8.112a1.242,1.242,0,0,0,1.064-.56V8h.976V4.536H-1.36Zm-.864.3a.942.942,0,0,1,.96.976.949.949,0,0,1-.96.984.949.949,0,0,1-.96-.984A.942.942,0,0,1-2.224,5.288ZM.544,8H1.52V6.232a1.317,1.317,0,0,1,.136-.672.573.573,0,0,1,.536-.3.491.491,0,0,1,.4.176,1.053,1.053,0,0,1,.16.68V8h.976V6.232a1.317,1.317,0,0,1,.136-.672.573.573,0,0,1,.536-.3.491.491,0,0,1,.4.176,1.053,1.053,0,0,1,.16.68V8h.976V5.824a1.456,1.456,0,0,0-.24-.976,1.1,1.1,0,0,0-.936-.424,1.275,1.275,0,0,0-1.112.632,1.146,1.146,0,0,0-1.1-.632,1.275,1.275,0,0,0-1.032.5V4.536H.544Zm6.32,0H7.84V6.232a1.317,1.317,0,0,1,.136-.672.573.573,0,0,1,.536-.3.491.491,0,0,1,.4.176,1.053,1.053,0,0,1,.16.68V8h.976V6.232a1.317,1.317,0,0,1,.136-.672.573.573,0,0,1,.536-.3.491.491,0,0,1,.4.176,1.053,1.053,0,0,1,.16.68V8h.976V5.824a1.456,1.456,0,0,0-.24-.976,1.1,1.1,0,0,0-.936-.424,1.275,1.275,0,0,0-1.112.632,1.146,1.146,0,0,0-1.1-.632,1.275,1.275,0,0,0-1.032.5V4.536H6.864Zm6.32-3.464V8h.976V4.536Zm-.1-1.464a.584.584,0,1,0,.584-.584A.587.587,0,0,0,13.088,3.072Zm2,4.928h.976V6.232a1.192,1.192,0,0,1,.152-.672.665.665,0,0,1,.6-.3.625.625,0,0,1,.456.176.993.993,0,0,1,.184.68V8h.976V5.824a1.459,1.459,0,0,0-.272-.976,1.324,1.324,0,0,0-1.024-.424,1.272,1.272,0,0,0-1.072.56V4.536h-.976ZM22,4.984a1.219,1.219,0,0,0-1.088-.56,1.7,1.7,0,0,0-1.192.464,1.927,1.927,0,0,0-.536,1.376,1.9,1.9,0,0,0,.552,1.376,1.64,1.64,0,0,0,1.2.472A1.214,1.214,0,0,0,22,7.536v.488a.976.976,0,0,1-.248.768.823.823,0,0,1-.592.216.861.861,0,0,1-.592-.184.832.832,0,0,1-.24-.416H19.272a1.919,1.919,0,0,0,.56,1.032,1.884,1.884,0,0,0,1.3.4A1.841,1.841,0,0,0,22.5,9.352a1.985,1.985,0,0,0,.48-1.512v-3.3H22Zm-.848.3a.889.889,0,0,1,.68.28.987.987,0,0,1,.28.7,1.021,1.021,0,0,1-.312.744.981.981,0,0,1-.648.24.948.948,0,0,1-.7-.3.962.962,0,0,1-.256-.68.949.949,0,0,1,.312-.736A.939.939,0,0,1,21.152,5.288Z" transform="translate(251 470)"/>
    <path id="Path_248779" data-name="Path 248779" d="M1.39,0H.63L1.74-7.04,4.3-1.41,6.91-7.05,7.95,0H7.19L6.56-4.64,4.29.28,2.05-4.64Zm11.1-3.56v-.59h.72V0h-.72V-.58a1.708,1.708,0,0,1-1.42.7A1.965,1.965,0,0,1,9.64-.46a2.168,2.168,0,0,1-.59-1.62,2.135,2.135,0,0,1,.585-1.6A1.969,1.969,0,0,1,11.07-4.25,1.682,1.682,0,0,1,12.49-3.56Zm-1.34-.05a1.3,1.3,0,0,0-.965.405,1.543,1.543,0,0,0-.4,1.125,1.691,1.691,0,0,0,.365,1.125,1.23,1.23,0,0,0,.995.435,1.241,1.241,0,0,0,1.005-.45,1.661,1.661,0,0,0,.375-1.1,1.5,1.5,0,0,0-.42-1.14A1.353,1.353,0,0,0,11.15-3.61ZM15.29-.58V2.3h-.72V-4.15h.72v.58a1.743,1.743,0,0,1,1.42-.68,1.818,1.818,0,0,1,1.475.655A2.34,2.34,0,0,1,18.73-2.05a2.29,2.29,0,0,1-.54,1.535A1.806,1.806,0,0,1,16.74.12,1.737,1.737,0,0,1,15.29-.58Zm1.35.06a1.211,1.211,0,0,0,.98-.445,1.641,1.641,0,0,0,.37-1.085,1.562,1.562,0,0,0-.41-1.14,1.289,1.289,0,0,0-.95-.42,1.321,1.321,0,0,0-.96.42,1.527,1.527,0,0,0-.42,1.13,1.615,1.615,0,0,0,.385,1.095A1.266,1.266,0,0,0,16.64-.52Zm3.91-.06V0h-.72V-7.29h.72v3.72a1.743,1.743,0,0,1,1.42-.68,1.818,1.818,0,0,1,1.475.655A2.34,2.34,0,0,1,23.99-2.05a2.29,2.29,0,0,1-.54,1.535A1.806,1.806,0,0,1,22,.12,1.737,1.737,0,0,1,20.55-.58Zm1.35.06a1.211,1.211,0,0,0,.98-.445,1.641,1.641,0,0,0,.37-1.085,1.562,1.562,0,0,0-.41-1.14,1.289,1.289,0,0,0-.95-.42,1.321,1.321,0,0,0-.96.42,1.527,1.527,0,0,0-.42,1.13A1.615,1.615,0,0,0,20.9-.965,1.266,1.266,0,0,0,21.9-.52Zm6.7.02a2.128,2.128,0,0,1-1.57.62A2.144,2.144,0,0,1,25.455-.5a2.106,2.106,0,0,1-.625-1.56,2.119,2.119,0,0,1,.625-1.57,2.144,2.144,0,0,1,1.575-.62,2.144,2.144,0,0,1,1.575.62,2.119,2.119,0,0,1,.625,1.57A2.1,2.1,0,0,1,28.6-.5Zm-.54-2.7a1.418,1.418,0,0,0-1.03-.41,1.426,1.426,0,0,0-1.035.415A1.513,1.513,0,0,0,25.57-2.06,1.487,1.487,0,0,0,26-.93a1.44,1.44,0,0,0,1.03.41,1.44,1.44,0,0,0,1.03-.41,1.487,1.487,0,0,0,.43-1.13A1.5,1.5,0,0,0,28.06-3.2ZM29.73,0,31.5-2.22,29.99-4.15h.88l1.07,1.41,1.09-1.41h.88L32.39-2.21,34.11,0h-.88L31.92-1.69,30.61,0Z" transform="translate(98 330)"/>
    <path id="Path_248778" data-name="Path 248778" d="M-23.305-2.65v-.7h2.78v.16a3.462,3.462,0,0,1-.64,2.11,2.912,2.912,0,0,1-2.48,1.2,3.343,3.343,0,0,1-2.47-1A3.344,3.344,0,0,1-27.1-3.33a3.336,3.336,0,0,1,1-2.455,3.372,3.372,0,0,1,2.485-.995,3.253,3.253,0,0,1,2.04.66,3.931,3.931,0,0,1,.77.79l-.55.5a3.515,3.515,0,0,0-.63-.69,2.493,2.493,0,0,0-1.62-.56,2.62,2.62,0,0,0-1.96.79,2.71,2.71,0,0,0-.77,1.97,2.7,2.7,0,0,0,.42,1.5,2.57,2.57,0,0,0,1.025.94,2.852,2.852,0,0,0,1.265.3,2.425,2.425,0,0,0,1.2-.305,2.136,2.136,0,0,0,.835-.815,2.014,2.014,0,0,0,.27-.95Zm7.47,2.15A2.128,2.128,0,0,1-17.4.12,2.144,2.144,0,0,1-18.98-.5,2.106,2.106,0,0,1-19.6-2.06a2.119,2.119,0,0,1,.625-1.57A2.144,2.144,0,0,1-17.4-4.25a2.144,2.144,0,0,1,1.575.62A2.119,2.119,0,0,1-15.2-2.06,2.1,2.1,0,0,1-15.835-.5Zm-.54-2.7a1.418,1.418,0,0,0-1.03-.41,1.426,1.426,0,0,0-1.035.415,1.513,1.513,0,0,0-.425,1.135,1.487,1.487,0,0,0,.43,1.13,1.44,1.44,0,0,0,1.03.41,1.44,1.44,0,0,0,1.03-.41,1.487,1.487,0,0,0,.43-1.13A1.5,1.5,0,0,0-16.375-3.2Zm5.78,2.7a2.128,2.128,0,0,1-1.57.62A2.144,2.144,0,0,1-13.74-.5a2.106,2.106,0,0,1-.625-1.56,2.119,2.119,0,0,1,.625-1.57,2.144,2.144,0,0,1,1.575-.62,2.144,2.144,0,0,1,1.575.62,2.119,2.119,0,0,1,.625,1.57A2.1,2.1,0,0,1-10.595-.5Zm-.54-2.7a1.418,1.418,0,0,0-1.03-.41,1.426,1.426,0,0,0-1.035.415,1.513,1.513,0,0,0-.425,1.135,1.487,1.487,0,0,0,.43,1.13,1.44,1.44,0,0,0,1.03.41,1.44,1.44,0,0,0,1.03-.41,1.487,1.487,0,0,0,.43-1.13A1.5,1.5,0,0,0-11.135-3.2Zm5.45-.36v-.59h.72V-.1a2.732,2.732,0,0,1-.4,1.63,1.937,1.937,0,0,1-1.66.77,2,2,0,0,1-1.48-.56A1.819,1.819,0,0,1-9.045.4h.71a1.251,1.251,0,0,0,.32.86,1.277,1.277,0,0,0,1,.4,1.192,1.192,0,0,0,1.1-.58A2.018,2.018,0,0,0-5.685.02v-.6a1.708,1.708,0,0,1-1.42.7,1.924,1.924,0,0,1-1.42-.56,2.216,2.216,0,0,1-.6-1.64,2.176,2.176,0,0,1,.6-1.61,1.967,1.967,0,0,1,1.42-.56A1.7,1.7,0,0,1-5.685-3.56Zm-1.34-.05a1.281,1.281,0,0,0-.94.39,1.561,1.561,0,0,0-.42,1.14,1.57,1.57,0,0,0,.47,1.22,1.269,1.269,0,0,0,.89.34,1.231,1.231,0,0,0,.91-.35,1.584,1.584,0,0,0,.47-1.2,1.541,1.541,0,0,0-.44-1.17A1.274,1.274,0,0,0-7.025-3.61ZM-3.6-7.29h.72V0H-3.6Zm5.16,5.9.6.33a2.375,2.375,0,0,1-.51.67A2,2,0,0,1,.265.12,2.085,2.085,0,0,1-1.18-.425,2.076,2.076,0,0,1-1.785-2.05,2.31,2.31,0,0,1-1.24-3.625,1.845,1.845,0,0,1,.225-4.25a1.79,1.79,0,0,1,1.57.76,2.52,2.52,0,0,1,.39,1.56h-3.23A1.434,1.434,0,0,0-.655-.91a1.249,1.249,0,0,0,.93.39,1.286,1.286,0,0,0,.85-.3A1.633,1.633,0,0,0,1.555-1.39ZM-.995-2.53h2.44a1.33,1.33,0,0,0-.425-.785,1.163,1.163,0,0,0-.795-.3,1.165,1.165,0,0,0-.8.305A1.292,1.292,0,0,0-.995-2.53ZM6.325,0h-.76l1.11-7.04,2.56,5.63,2.61-5.64L12.885,0h-.76L11.5-4.64,9.225.28,6.985-4.64Zm11.1-3.56v-.59h.72V0h-.72V-.58A1.708,1.708,0,0,1,16,.12a1.965,1.965,0,0,1-1.43-.58,2.168,2.168,0,0,1-.59-1.62,2.135,2.135,0,0,1,.585-1.6A1.969,1.969,0,0,1,16-4.25,1.682,1.682,0,0,1,17.425-3.56Zm-1.34-.05a1.3,1.3,0,0,0-.965.405,1.543,1.543,0,0,0-.4,1.125A1.691,1.691,0,0,0,15.09-.955a1.23,1.23,0,0,0,1,.435,1.241,1.241,0,0,0,1-.45,1.661,1.661,0,0,0,.375-1.1,1.5,1.5,0,0,0-.42-1.14A1.353,1.353,0,0,0,16.085-3.61Zm4.14,3.03V2.3h-.72V-4.15h.72v.58a1.743,1.743,0,0,1,1.42-.68,1.818,1.818,0,0,1,1.475.655,2.34,2.34,0,0,1,.545,1.545,2.29,2.29,0,0,1-.54,1.535,1.806,1.806,0,0,1-1.45.635A1.737,1.737,0,0,1,20.225-.58Zm1.35.06a1.211,1.211,0,0,0,.98-.445,1.641,1.641,0,0,0,.37-1.085,1.562,1.562,0,0,0-.41-1.14,1.289,1.289,0,0,0-.95-.42,1.321,1.321,0,0,0-.96.42,1.527,1.527,0,0,0-.42,1.13A1.615,1.615,0,0,0,20.57-.965,1.266,1.266,0,0,0,21.575-.52Zm5.49-2.98-.59.31a.593.593,0,0,0-.58-.42.538.538,0,0,0-.355.12.428.428,0,0,0-.145.35.374.374,0,0,0,.135.315,2.726,2.726,0,0,0,.535.275,2.735,2.735,0,0,1,1.04.64,1.026,1.026,0,0,1,.22.67,1.272,1.272,0,0,1-.405,1A1.473,1.473,0,0,1,25.895.12a1.485,1.485,0,0,1-.26-.025,2.723,2.723,0,0,1-.385-.11,1.152,1.152,0,0,1-.465-.325,1.643,1.643,0,0,1-.34-.6l.62-.26a.876.876,0,0,0,.84.68.635.635,0,0,0,.505-.2.678.678,0,0,0,.175-.46.618.618,0,0,0-.045-.245.462.462,0,0,0-.15-.185,1.442,1.442,0,0,0-.2-.13q-.1-.05-.275-.13a2.918,2.918,0,0,1-1.01-.61.953.953,0,0,1-.19-.61,1.1,1.1,0,0,1,.335-.85,1.237,1.237,0,0,1,.875-.31A1.18,1.18,0,0,1,27.065-3.5Z" transform="translate(173 330)"/>
    <path id="Path_248777" data-name="Path 248777" d="M5.96-6.12v.92a3.07,3.07,0,0,0-.87-.62,2.748,2.748,0,0,0-1.15-.26,2.532,2.532,0,0,0-1.915.805A2.759,2.759,0,0,0,1.26-3.3,2.507,2.507,0,0,0,2.1-1.31,2.752,2.752,0,0,0,3.95-.58,2.67,2.67,0,0,0,5.19-.89a2.954,2.954,0,0,0,.77-.56v.92A3.381,3.381,0,0,1,3.95.12,3.335,3.335,0,0,1,1.485-.87,3.324,3.324,0,0,1,.5-3.31a3.355,3.355,0,0,1,1-2.48A3.393,3.393,0,0,1,3.99-6.78,3.176,3.176,0,0,1,5.96-6.12Zm4.36,2.56v-.59h.72V0h-.72V-.58A1.708,1.708,0,0,1,8.9.12,1.965,1.965,0,0,1,7.47-.46a2.168,2.168,0,0,1-.59-1.62,2.135,2.135,0,0,1,.585-1.6A1.969,1.969,0,0,1,8.9-4.25,1.682,1.682,0,0,1,10.32-3.56ZM8.98-3.61a1.3,1.3,0,0,0-.965.405,1.543,1.543,0,0,0-.4,1.125A1.691,1.691,0,0,0,7.985-.955,1.23,1.23,0,0,0,8.98-.52,1.241,1.241,0,0,0,9.985-.97a1.661,1.661,0,0,0,.375-1.1,1.5,1.5,0,0,0-.42-1.14A1.353,1.353,0,0,0,8.98-3.61ZM12.4,0V-4.15h.72v.45a1.069,1.069,0,0,1,.94-.55,1.437,1.437,0,0,1,.64.17l-.34.65a.721.721,0,0,0-.42-.14.687.687,0,0,0-.58.26,1.936,1.936,0,0,0-.24,1.12V0Zm4.62-3.49H16.3V0h-.72V-3.49h-.44v-.66h.44v-1.5h.72v1.5h.72ZM21.21-.5a2.128,2.128,0,0,1-1.57.62A2.144,2.144,0,0,1,18.065-.5a2.106,2.106,0,0,1-.625-1.56,2.119,2.119,0,0,1,.625-1.57,2.144,2.144,0,0,1,1.575-.62,2.144,2.144,0,0,1,1.575.62,2.119,2.119,0,0,1,.625,1.57A2.1,2.1,0,0,1,21.21-.5Zm-.54-2.7a1.418,1.418,0,0,0-1.03-.41,1.426,1.426,0,0,0-1.035.415A1.513,1.513,0,0,0,18.18-2.06a1.487,1.487,0,0,0,.43,1.13,1.44,1.44,0,0,0,1.03.41,1.44,1.44,0,0,0,1.03-.41,1.487,1.487,0,0,0,.43-1.13A1.5,1.5,0,0,0,20.67-3.2Z" transform="translate(215 330)"/>
    <path id="Path_248776" data-name="Path 248776" d="M6.43-.87A3.361,3.361,0,0,1,3.97.12,3.378,3.378,0,0,1,1.5-.87a3.314,3.314,0,0,1-1-2.46A3.3,3.3,0,0,1,1.51-5.8,3.392,3.392,0,0,1,3.97-6.78,3.392,3.392,0,0,1,6.43-5.8,3.3,3.3,0,0,1,7.44-3.33,3.306,3.306,0,0,1,6.43-.87ZM5.89-5.28a2.6,2.6,0,0,0-1.92-.8,2.6,2.6,0,0,0-1.92.8,2.671,2.671,0,0,0-.79,1.95,2.671,2.671,0,0,0,.79,1.95,2.6,2.6,0,0,0,1.92.8,2.6,2.6,0,0,0,1.92-.8,2.671,2.671,0,0,0,.79-1.95A2.671,2.671,0,0,0,5.89-5.28ZM10.92-3.5l-.59.31a.593.593,0,0,0-.58-.42.538.538,0,0,0-.355.12.428.428,0,0,0-.145.35.374.374,0,0,0,.135.315,2.726,2.726,0,0,0,.535.275,2.735,2.735,0,0,1,1.04.64,1.026,1.026,0,0,1,.22.67,1.272,1.272,0,0,1-.405,1A1.473,1.473,0,0,1,9.75.12,1.485,1.485,0,0,1,9.49.095,2.723,2.723,0,0,1,9.1-.015,1.152,1.152,0,0,1,8.64-.34a1.643,1.643,0,0,1-.34-.6l.62-.26a.876.876,0,0,0,.84.68.635.635,0,0,0,.505-.2.678.678,0,0,0,.175-.46.618.618,0,0,0-.045-.245.462.462,0,0,0-.15-.185,1.442,1.442,0,0,0-.2-.13q-.1-.05-.275-.13a2.918,2.918,0,0,1-1.01-.61.953.953,0,0,1-.19-.61A1.1,1.1,0,0,1,8.9-3.94a1.237,1.237,0,0,1,.875-.31A1.18,1.18,0,0,1,10.92-3.5ZM12.14,0V-4.15h.72v.44a1.18,1.18,0,0,1,1.03-.54,1.224,1.224,0,0,1,1.13.67,1.4,1.4,0,0,1,1.25-.67q1.35,0,1.35,1.62V0H16.9V-2.52a3.068,3.068,0,0,0-.035-.505.78.78,0,0,0-.21-.395.639.639,0,0,0-.5-.19q-.92,0-.92,1.3V0h-.72V-2.46q0-1.15-.75-1.15-.91,0-.91,1.35V0Z" transform="translate(252 330)"/>
    <path id="Path_248775" data-name="Path 248775" d="M-35.168-5.336V0h2.688V-.9h-1.648v-4.44Zm5.072,1.76a1.993,1.993,0,0,0-1.4.488,1.825,1.825,0,0,0-.584,1.36A1.82,1.82,0,0,0-31.5-.376a1.993,1.993,0,0,0,1.4.488,1.993,1.993,0,0,0,1.4-.488,1.82,1.82,0,0,0,.584-1.352,1.825,1.825,0,0,0-.584-1.36A1.993,1.993,0,0,0-30.1-3.576Zm0,2.824a.965.965,0,0,1-.976-.976.967.967,0,0,1,.976-.984.967.967,0,0,1,.976.984A.965.965,0,0,1-30.1-.752Zm5.344-2.616a2.067,2.067,0,0,0-.936-.208,1.845,1.845,0,0,0-1.248.448,1.851,1.851,0,0,0-.6,1.408,1.779,1.779,0,0,0,.552,1.328,1.955,1.955,0,0,0,1.336.5,1.978,1.978,0,0,0,.9-.216v-.952a1.13,1.13,0,0,1-.768.3.965.965,0,0,1-1.008-.984.931.931,0,0,1,.976-.976,1.125,1.125,0,0,1,.8.3Zm3.392.352a1.255,1.255,0,0,0-1.112-.56,1.732,1.732,0,0,0-1.72,1.84A1.758,1.758,0,0,0-22.424.112a1.242,1.242,0,0,0,1.064-.56V0h.976V-3.464h-.976Zm-.864.3a.942.942,0,0,1,.96.976.949.949,0,0,1-.96.984.949.949,0,0,1-.96-.984A.942.942,0,0,1-22.224-2.712Zm4.416.08v-.832h-.672V-4.648h-.976v1.184h-.384v.832h.384V0h.976V-2.632Zm.512-.832V0h.976V-3.464Zm-.1-1.464a.587.587,0,0,0,.584.584.587.587,0,0,0,.584-.584.587.587,0,0,0-.584-.584A.587.587,0,0,0-17.392-4.928Zm3.808,1.352a1.993,1.993,0,0,0-1.4.488,1.825,1.825,0,0,0-.584,1.36,1.82,1.82,0,0,0,.584,1.352,1.993,1.993,0,0,0,1.4.488,1.993,1.993,0,0,0,1.4-.488A1.82,1.82,0,0,0-11.6-1.728a1.825,1.825,0,0,0-.584-1.36A1.993,1.993,0,0,0-13.584-3.576Zm0,2.824a.965.965,0,0,1-.976-.976.967.967,0,0,1,.976-.984.967.967,0,0,1,.976.984A.965.965,0,0,1-13.584-.752ZM-10.848,0h.976V-1.768A1.192,1.192,0,0,1-9.72-2.44a.665.665,0,0,1,.6-.3.625.625,0,0,1,.456.176.993.993,0,0,1,.184.68V0H-7.5V-2.176a1.459,1.459,0,0,0-.272-.976A1.324,1.324,0,0,0-8.8-3.576a1.272,1.272,0,0,0-1.072.56v-.448h-.976Zm6.28-5.336V0h1.04V-5.336ZM-2.456,0h.976V-1.768a1.192,1.192,0,0,1,.152-.672.665.665,0,0,1,.6-.3.625.625,0,0,1,.456.176.993.993,0,0,1,.184.68V0H.888V-2.176a1.459,1.459,0,0,0-.272-.976A1.324,1.324,0,0,0-.408-3.576a1.272,1.272,0,0,0-1.072.56v-.448h-.976Zm5.92-2.632v-.832H2.792V-4.648H1.816v1.184H1.432v.832h.384V0h.976V-2.632ZM6.48-1.112a.893.893,0,0,1-.808.456.825.825,0,0,1-.7-.328,1.022,1.022,0,0,1-.168-.584H7.4v-.08a2.071,2.071,0,0,0-.416-1.36,1.656,1.656,0,0,0-1.352-.568,1.775,1.775,0,0,0-1.3.488A1.845,1.845,0,0,0,3.8-1.728,1.745,1.745,0,0,0,4.344-.376,1.813,1.813,0,0,0,5.672.112a1.711,1.711,0,0,0,1.7-1.08ZM4.84-2.192a.815.815,0,0,1,.816-.7.816.816,0,0,1,.824.7Zm3.312-3.64V0h.976V-5.832Zm1.9,0V0h.976V-5.832Zm1.9,2.368V0h.976V-3.464Zm-.1-1.464a.587.587,0,0,0,.584.584.587.587,0,0,0,.584-.584.587.587,0,0,0-.584-.584A.587.587,0,0,0,11.864-4.928ZM16.5-3.016a1.219,1.219,0,0,0-1.088-.56,1.7,1.7,0,0,0-1.192.464,1.927,1.927,0,0,0-.536,1.376A1.9,1.9,0,0,0,14.24-.36a1.64,1.64,0,0,0,1.2.472A1.214,1.214,0,0,0,16.5-.464V.024a.976.976,0,0,1-.248.768.823.823,0,0,1-.592.216.861.861,0,0,1-.592-.184.832.832,0,0,1-.24-.416H13.776a1.919,1.919,0,0,0,.56,1.032,1.884,1.884,0,0,0,1.3.4A1.841,1.841,0,0,0,17,1.352,1.985,1.985,0,0,0,17.48-.16v-3.3H16.5Zm-.848.3a.889.889,0,0,1,.68.28.987.987,0,0,1,.28.7,1.021,1.021,0,0,1-.312.744.981.981,0,0,1-.648.24.948.948,0,0,1-.7-.3.962.962,0,0,1-.256-.68.949.949,0,0,1,.312-.736A.939.939,0,0,1,15.656-2.712Zm5.256,1.6a.893.893,0,0,1-.808.456.825.825,0,0,1-.7-.328,1.022,1.022,0,0,1-.168-.584h2.592v-.08a2.071,2.071,0,0,0-.416-1.36,1.656,1.656,0,0,0-1.352-.568,1.775,1.775,0,0,0-1.3.488,1.845,1.845,0,0,0-.528,1.36,1.745,1.745,0,0,0,.544,1.352A1.813,1.813,0,0,0,20.1.112a1.711,1.711,0,0,0,1.7-1.08Zm-1.64-1.08a.815.815,0,0,1,.816-.7.816.816,0,0,1,.824.7ZM22.584,0h.976V-1.768a1.192,1.192,0,0,1,.152-.672.665.665,0,0,1,.6-.3.625.625,0,0,1,.456.176.993.993,0,0,1,.184.68V0h.976V-2.176a1.459,1.459,0,0,0-.272-.976,1.324,1.324,0,0,0-1.024-.424,1.272,1.272,0,0,0-1.072.56v-.448h-.976Zm6.88-3.368a2.067,2.067,0,0,0-.936-.208,1.845,1.845,0,0,0-1.248.448,1.851,1.851,0,0,0-.6,1.408,1.779,1.779,0,0,0,.552,1.328,1.955,1.955,0,0,0,1.336.5,1.978,1.978,0,0,0,.9-.216v-.952a1.13,1.13,0,0,1-.768.3.965.965,0,0,1-1.008-.984.931.931,0,0,1,.976-.976,1.125,1.125,0,0,1,.8.3ZM32.7-1.112a.893.893,0,0,1-.808.456.825.825,0,0,1-.7-.328,1.022,1.022,0,0,1-.168-.584h2.592v-.08a2.071,2.071,0,0,0-.416-1.36,1.656,1.656,0,0,0-1.352-.568,1.775,1.775,0,0,0-1.3.488,1.845,1.845,0,0,0-.528,1.36,1.745,1.745,0,0,0,.544,1.352A1.813,1.813,0,0,0,31.9.112a1.711,1.711,0,0,0,1.7-1.08Zm-1.64-1.08a.815.815,0,0,1,.816-.7.816.816,0,0,1,.824.7Zm-45.892,9.6a6.17,6.17,0,0,1-.664.736l-.88-1.008L-16.148,7A1.379,1.379,0,0,0-15.4,5.816a1.3,1.3,0,0,0-1.432-1.272A1.34,1.34,0,0,0-18.3,5.872a1.683,1.683,0,0,0,.536,1.12l-.416.248a1.6,1.6,0,0,0-.856,1.352,1.546,1.546,0,0,0,1.672,1.528,2.639,2.639,0,0,0,1.72-.72l.52.6h1.288l-1.08-1.224.12-.12a5.979,5.979,0,0,0,.576-.648Zm-1.4,1.336a1.5,1.5,0,0,1-.984.464A.731.731,0,0,1-18,8.5c0-.408.352-.7.76-.92ZM-17.1,6.3a.814.814,0,0,1-.224-.5.5.5,0,0,1,.544-.5.5.5,0,0,1,.52.528.721.721,0,0,1-.368.592l-.24.168Zm5.528,3.7h1.056l.544-3.288L-8.6,10h.352L-6.82,6.712-6.34,10h1.056l-.9-5.336h-.752l-1.48,3.392L-9.828,4.664h-.752Zm9.744-3.016a1.255,1.255,0,0,0-1.112-.56,1.732,1.732,0,0,0-1.72,1.84,1.758,1.758,0,0,0,1.768,1.848,1.242,1.242,0,0,0,1.064-.56V10h.976V6.536h-.976Zm-.864.3a.942.942,0,0,1,.96.976.949.949,0,0,1-.96.984.949.949,0,0,1-.96-.984A.942.942,0,0,1-2.692,7.288ZM1.052,9.552a1.313,1.313,0,0,0,1.112.56A1.7,1.7,0,0,0,3.34,9.664a1.852,1.852,0,0,0,.544-1.4,1.869,1.869,0,0,0-.52-1.376A1.655,1.655,0,0,0,2.18,6.424a1.318,1.318,0,0,0-1.128.56V6.536H.076v5.3h.976Zm.864-2.264a1.02,1.02,0,0,1,.664.248,1.043,1.043,0,0,1,.3.728,1.016,1.016,0,0,1-.3.736.926.926,0,0,1-.656.248.948.948,0,0,1-.64-.232.984.984,0,0,1-.32-.752.919.919,0,0,1,.328-.744A.883.883,0,0,1,1.916,7.288Zm3.7,2.264a1.313,1.313,0,0,0,1.112.56A1.7,1.7,0,0,0,7.9,9.664a1.852,1.852,0,0,0,.544-1.4,1.869,1.869,0,0,0-.52-1.376A1.655,1.655,0,0,0,6.74,6.424a1.318,1.318,0,0,0-1.128.56V6.536H4.636v5.3h.976Zm.864-2.264a1.02,1.02,0,0,1,.664.248,1.043,1.043,0,0,1,.3.728,1.016,1.016,0,0,1-.3.736.926.926,0,0,1-.656.248.948.948,0,0,1-.64-.232.984.984,0,0,1-.32-.752.919.919,0,0,1,.328-.744A.883.883,0,0,1,6.476,7.288ZM9.2,6.536V10h.976V6.536ZM9.1,5.072a.584.584,0,1,0,.584-.584A.587.587,0,0,0,9.1,5.072ZM11.1,10h.976V8.232a1.192,1.192,0,0,1,.152-.672.665.665,0,0,1,.6-.3.625.625,0,0,1,.456.176.993.993,0,0,1,.184.68V10h.976V7.824a1.459,1.459,0,0,0-.272-.976,1.324,1.324,0,0,0-1.024-.424,1.272,1.272,0,0,0-1.072.56V6.536H11.1Zm6.912-3.016a1.219,1.219,0,0,0-1.088-.56,1.7,1.7,0,0,0-1.192.464A1.927,1.927,0,0,0,15.2,8.264a1.9,1.9,0,0,0,.552,1.376,1.64,1.64,0,0,0,1.2.472,1.214,1.214,0,0,0,1.064-.576v.488a.976.976,0,0,1-.248.768.823.823,0,0,1-.592.216.861.861,0,0,1-.592-.184.832.832,0,0,1-.24-.416H15.284a1.919,1.919,0,0,0,.56,1.032,1.884,1.884,0,0,0,1.3.4,1.841,1.841,0,0,0,1.368-.488,1.985,1.985,0,0,0,.48-1.512v-3.3h-.976Zm-.848.3a.889.889,0,0,1,.68.28.987.987,0,0,1,.28.7,1.021,1.021,0,0,1-.312.744.981.981,0,0,1-.648.24.948.948,0,0,1-.7-.3.962.962,0,0,1-.256-.68.949.949,0,0,1,.312-.736A.939.939,0,0,1,17.164,7.288Z" transform="translate(51 324)"/>
    <path id="Line_917" data-name="Line 917" d="M194.041.25H0v-.5H194.041Z" transform="translate(224.5 365.676)"/>
    <path id="Line_919" data-name="Line 919" d="M407.424.25H0v-.5H407.424Z" transform="translate(11.604 506.115)"/>
    <path id="Line_939" data-name="Line 939" d="M407.424.25H0v-.5H407.424Z" transform="translate(11.441 559.076)"/>
    <path id="Line_936" data-name="Line 936" d="M407.424.25H0v-.5H407.424Z" transform="translate(11.117 309.233)"/>
    <path id="Line_937" data-name="Line 937" d="M267.124.25H0v-.5H267.124Z" transform="translate(11.117 342.617)"/>
    <path id="Line_921" data-name="Line 921" d="M.25,52.938h-.5V0h.5Z" transform="translate(11.5 505.977)"/>
    <path id="Line_922" data-name="Line 922" d="M.25,34h-.5V32h.5Zm0-4h-.5V28h.5Zm0-4h-.5V24h.5Zm0-4h-.5V20h.5Zm0-4h-.5V16h.5Zm0-4h-.5V12h.5Zm0-4h-.5V8h.5Zm0-4h-.5V4h.5Zm0-4h-.5V0h.5Z" transform="translate(44.5 525.138)"/>
    <path id="Line_923" data-name="Line 923" d="M.25,34h-.5V32h.5Zm0-4h-.5V28h.5Zm0-4h-.5V24h.5Zm0-4h-.5V20h.5Zm0-4h-.5V16h.5Zm0-4h-.5V12h.5Zm0-4h-.5V8h.5Zm0-4h-.5V4h.5Zm0-4h-.5V0h.5Z" transform="translate(78.5 525.138)"/>
    <path id="Line_926" data-name="Line 926" d="M.25,34h-.5V32h.5Zm0-4h-.5V28h.5Zm0-4h-.5V24h.5Zm0-4h-.5V20h.5Zm0-4h-.5V16h.5Zm0-4h-.5V12h.5Zm0-4h-.5V8h.5Zm0-4h-.5V4h.5Zm0-4h-.5V0h.5Z" transform="translate(140.76 525.138)"/>
    <path id="Line_941" data-name="Line 941" d="M.25,33.938h-.5V32h.5ZM.25,30h-.5V28h.5Zm0-4h-.5V24h.5Zm0-4h-.5V20h.5Zm0-4h-.5V16h.5Zm0-4h-.5V12h.5Zm0-4h-.5V8h.5Zm0-4h-.5V4h.5Zm0-4h-.5V0h.5Z" transform="translate(224.798 525.138)"/>
    <path id="Line_933" data-name="Line 933" d="M.25,34h-.5V32h.5Zm0-4h-.5V28h.5Zm0-4h-.5V24h.5Zm0-4h-.5V20h.5Zm0-4h-.5V16h.5Zm0-4h-.5V12h.5Zm0-4h-.5V8h.5Zm0-4h-.5V4h.5Zm0-4h-.5V0h.5Z" transform="translate(372.424 524.813)"/>
    <path id="Line_924" data-name="Line 924" d="M.25,52.938h-.5V0h.5Z" transform="translate(111.5 505.977)"/>
    <path id="Line_920" data-name="Line 920" d="M407.749.25H0v-.5H407.749Z" transform="translate(11.441 524.813)"/>
    <rect id="Rectangle_10920" data-name="Rectangle 10920" width="47" height="48" transform="translate(278 412)" fill="#333"/>
    <g id="g4367" transform="translate(283.599 417.152)">
      <path id="path5016" d="M-984.525-187.181a18.451,18.451,0,0,1-18.207,18.686,18.451,18.451,0,0,1-18.207-18.686,18.451,18.451,0,0,1,18.207-18.686A18.451,18.451,0,0,1-984.525-187.181Z" transform="translate(1020.939 205.867)" fill="#333"/>
      <path id="path4846" d="M-88.246-76.25A16.147,16.147,0,0,0-104.179-59.9,16.145,16.145,0,0,0-88.246-43.549,16.143,16.143,0,0,0-72.317-59.9,16.145,16.145,0,0,0-88.246-76.25Zm1.056,1.8c4.148.006,3.917,4.494,3.891,6.913a5.945,5.945,0,0,0,1.709,3.785,14.055,14.055,0,0,1,2.385,3.919,6.235,6.235,0,0,1,.193,4.161,1.362,1.362,0,0,1,.414.261h0a2.093,2.093,0,0,1,.543,1.18,2.6,2.6,0,0,0,.369,1.037v0a2.352,2.352,0,0,1,.786,1.553,1.261,1.261,0,0,1-.714.961,8.881,8.881,0,0,0-2.61,1.693l-.134-.113.134.115a3.722,3.722,0,0,1-2.474,1.468,2.051,2.051,0,0,1-2.067-1.208s0,0,0-.005a1.559,1.559,0,0,1-.131-.351c-1.1.063-2.057-.28-2.824-.217-1.13.064-1.836.345-2.479.349a1.867,1.867,0,0,1-1.326,1.062,4.228,4.228,0,0,1-2.869-.543v0a10.619,10.619,0,0,0-3.043-.659,1.374,1.374,0,0,1-1.03-.648,2.158,2.158,0,0,1,.115-1.669,2.8,2.8,0,0,0-.043-1.092,2.062,2.062,0,0,1,.083-1.276v0a1.575,1.575,0,0,1,.949-.76,2.238,2.238,0,0,0,.872-.436c.234-.254.446-.632.73-.944.038-.042.076-.082.118-.121a6.23,6.23,0,0,1,.316-2.808,16.907,16.907,0,0,1,2.982-5.088,6.185,6.185,0,0,0,1.153-3.4c.069-1.683-1.161-6.709,3.474-7.092.183-.015.358-.022.527-.022Zm.551,3.727a1.018,1.018,0,0,0-.647.239,1.525,1.525,0,0,0-.473.634,2.041,2.041,0,0,0-.166.862v.025a2.415,2.415,0,0,0,.019.255,2.732,2.732,0,0,1,.594.228,1.425,1.425,0,0,1-.019-.269.105.105,0,0,1,0-.019,1.336,1.336,0,0,1,.094-.472.837.837,0,0,1,.23-.338.419.419,0,0,1,.283-.115h.016a.412.412,0,0,1,.291.137.846.846,0,0,1,.206.354,1.337,1.337,0,0,1,.067.456c0,.008,0,.012,0,.019a1.332,1.332,0,0,1-.1.469.926.926,0,0,1-.139.244c.149.053.328.12.562.222.034.014.068.029.1.044a1.684,1.684,0,0,0,.235-.4,2.074,2.074,0,0,0,.168-.862.1.1,0,0,1,0-.025,2.042,2.042,0,0,0-.182-.834,1.5,1.5,0,0,0-.484-.626,1.025,1.025,0,0,0-.642-.225h-.013Zm-3.249.263a.669.669,0,0,0-.457.228,1.3,1.3,0,0,0-.313.563,2.119,2.119,0,0,0-.088.752v0a2.11,2.11,0,0,0,.168.736,1.363,1.363,0,0,0,.3.461l.144-.11c.063-.048.1-.076.176-.137-.012-.009-.025-.019-.037-.03a.7.7,0,0,1-.179-.272,1.245,1.245,0,0,1-.091-.371v-.016a1.233,1.233,0,0,1,.024-.4.73.73,0,0,1,.131-.3.294.294,0,0,1,.209-.123h.021a.288.288,0,0,1,.2.085.71.71,0,0,1,.182.272,1.289,1.289,0,0,1,.091.371.071.071,0,0,0,0,.016,1.231,1.231,0,0,1-.005.288,1.957,1.957,0,0,1,.447-.225c.03-.01.06-.021.091-.03a2.271,2.271,0,0,0,0-.329,2.084,2.084,0,0,0-.166-.736,1.317,1.317,0,0,0-.377-.524.667.667,0,0,0-.439-.173h-.04Zm1.5,1.891a1.535,1.535,0,0,0-.511.091,2.522,2.522,0,0,0-.92.661,2.212,2.212,0,0,1-.2.154c-.113.085-.285.212-.529.4a.557.557,0,0,0-.214.642,1.54,1.54,0,0,0,.757.8v0a5.427,5.427,0,0,1,.671.56,1.349,1.349,0,0,0,.845.338,1.862,1.862,0,0,0,1.107-.291,5.011,5.011,0,0,1,.853-.491v0a1.8,1.8,0,0,0,1.166-.95.64.64,0,0,0-.013-.521A.978.978,0,0,0-85.9-67.6a8.063,8.063,0,0,1-1.161-.491,2.4,2.4,0,0,0-1.326-.469l0,0Zm2.54,1.545.011.2a1.245,1.245,0,0,0-.428.178c-.183.1-.4.244-.636.384a3.313,3.313,0,0,1-1.631.565,2.219,2.219,0,0,1-1.4-.554c-.169-.137-.309-.274-.412-.373-.052-.05-.094-.09-.126-.115a.164.164,0,0,0-.04-.022s0,0,.008-.052l.005-.154a.211.211,0,0,1,.147.066c.043.034.089.078.142.129.105.1.239.232.4.362a2.026,2.026,0,0,0,1.278.513A3.17,3.17,0,0,0-87-66.433c.233-.138.448-.278.639-.387a1.262,1.262,0,0,1,.513-.2Zm.529.73a2.184,2.184,0,0,1-1.145.788,5.58,5.58,0,0,0-.813.475,2.084,2.084,0,0,1-1.219.321,1.575,1.575,0,0,1-.957-.384,5.929,5.929,0,0,0-.647-.543c-.081-.047-.263-.175-.316-.214-.1,1.991-1.4,4.49-2.016,5.931a9.3,9.3,0,0,0-.711,3.236c-1.117-1.529-.3-3.49.136-4.339.487-.928.562-1.182.444-1.092A11.124,11.124,0,0,0-93.953-59a3.622,3.622,0,0,0,.013,1.853,2.843,2.843,0,0,0,1.262,1.573,6.986,6.986,0,0,1,1.96,1.713,1.51,1.51,0,0,1,.38,1.312.642.642,0,0,1-.348.368,1.2,1.2,0,0,1-.505.1c.1.131.2.262.3.4.155.209.3.421.436.634a4.956,4.956,0,0,0,5.87-.368,8.369,8.369,0,0,0,.35-1.526,11.837,11.837,0,0,1,.225-2.1,1.951,1.951,0,0,1,.872-1.334,1.459,1.459,0,0,1,.225-.1c.005-.05.013-.1.021-.148.135-.92.937-.964,1.941-.51.969.45,1.333.842,1.169,1.375h.019c.064,0,.129,0,.2,0,.2-.672-.217-1.165-1.35-1.732-.076-.037-.151-.07-.225-.1a4.071,4.071,0,0,0-.021-1.877,6.505,6.505,0,0,0-1.808-3.1c-.119-.005-.107.1.134.343.6.563,1.9,2.587,1.2,4.465a1.992,1.992,0,0,0-.562-.074,11.937,11.937,0,0,0-1.209-3.4A27.6,27.6,0,0,1-85.315-66.29Zm3.23,9.156a.54.54,0,0,0-.57.552c-.082.566.165,1.315.671,1.449a1.544,1.544,0,0,0,1.391-.719c.2-.439-.03-.738-.765-1.087A1.807,1.807,0,0,0-82.085-57.135ZM-82.92-56.1l-.051.027a1.584,1.584,0,0,0-.7,1.109,11.756,11.756,0,0,0-.214,2.036v0a12.977,12.977,0,0,1-.508,2.135,2.961,2.961,0,0,0-.061,1.9l0,0v0a1.668,1.668,0,0,0,1.727,1.015,3.406,3.406,0,0,0,2.236-1.345,8.574,8.574,0,0,1,2.7-1.77c.345-.214.533-.41.548-.675s-.161-.681-.7-1.3v0a2.656,2.656,0,0,1-.449-1.2,1.859,1.859,0,0,0-.428-.988h0a1.184,1.184,0,0,0-.928-.28l-.23.008a2.369,2.369,0,0,1-1.968.859A1.618,1.618,0,0,1-82.92-56.1Zm-11.86.052a.948.948,0,0,0-.725.379c-.245.268-.454.646-.733.947v0h0a2.406,2.406,0,0,1-1,.521,1.186,1.186,0,0,0-.757.593l0,0a1.823,1.823,0,0,0-.043,1.054,2.833,2.833,0,0,1,.027,1.26v.008a1.879,1.879,0,0,0-.136,1.386,1.042,1.042,0,0,0,.792.458,10.124,10.124,0,0,1,3.134.694,3.933,3.933,0,0,0,2.629.516,1.486,1.486,0,0,0,1.233-1.463v-.006a3.058,3.058,0,0,0-.8-1.778,12.9,12.9,0,0,1-1.3-1.839v0a11.5,11.5,0,0,0-1.005-1.874,1.8,1.8,0,0,0-1.118-.843,1.181,1.181,0,0,0-.174-.016h-.011Z" transform="translate(106.455 78.586)" fill="#fff"/>
    </g>
    <path id="Path_248794" data-name="Path 248794" d="M.608-5.336V0h1.04V-1.976H2.32a1.829,1.829,0,0,0,1.352-.472,1.715,1.715,0,0,0,.44-1.192,1.7,1.7,0,0,0-.544-1.288A1.913,1.913,0,0,0,2.16-5.336Zm1.04.9h.36a1.252,1.252,0,0,1,.736.168.735.735,0,0,1,.3.608.8.8,0,0,1-.288.624,1.064,1.064,0,0,1-.68.168H1.648ZM4.736,0h.976V-1.664A1.19,1.19,0,0,1,5.9-2.432a.8.8,0,0,1,.648-.28.734.734,0,0,1,.456.128L7.136-3.5a1.2,1.2,0,0,0-.416-.08,1.061,1.061,0,0,0-.576.152,1.168,1.168,0,0,0-.432.48v-.52H4.736ZM9.344-3.576a1.993,1.993,0,0,0-1.4.488,1.825,1.825,0,0,0-.584,1.36A1.82,1.82,0,0,0,7.944-.376a1.993,1.993,0,0,0,1.4.488,1.993,1.993,0,0,0,1.4-.488,1.82,1.82,0,0,0,.584-1.352,1.825,1.825,0,0,0-.584-1.36A1.993,1.993,0,0,0,9.344-3.576Zm0,2.824a.965.965,0,0,1-.976-.976.967.967,0,0,1,.976-.984.967.967,0,0,1,.976.984A.965.965,0,0,1,9.344-.752ZM14.72-3.016a1.219,1.219,0,0,0-1.088-.56,1.7,1.7,0,0,0-1.192.464A1.927,1.927,0,0,0,11.9-1.736,1.9,1.9,0,0,0,12.456-.36a1.64,1.64,0,0,0,1.2.472A1.214,1.214,0,0,0,14.72-.464V.024a.976.976,0,0,1-.248.768.823.823,0,0,1-.592.216.861.861,0,0,1-.592-.184.832.832,0,0,1-.24-.416H11.992a1.919,1.919,0,0,0,.56,1.032,1.884,1.884,0,0,0,1.3.4,1.841,1.841,0,0,0,1.368-.488A1.985,1.985,0,0,0,15.7-.16v-3.3H14.72Zm-.848.3a.889.889,0,0,1,.68.28.987.987,0,0,1,.28.7,1.021,1.021,0,0,1-.312.744.981.981,0,0,1-.648.24.948.948,0,0,1-.7-.3.962.962,0,0,1-.256-.68.949.949,0,0,1,.312-.736A.939.939,0,0,1,13.872-2.712ZM16.624,0H17.6V-1.664a1.19,1.19,0,0,1,.192-.768.8.8,0,0,1,.648-.28.734.734,0,0,1,.456.128l.128-.912a1.2,1.2,0,0,0-.416-.08,1.061,1.061,0,0,0-.576.152,1.168,1.168,0,0,0-.432.48v-.52h-.976ZM22.08-3.016a1.255,1.255,0,0,0-1.112-.56,1.732,1.732,0,0,0-1.72,1.84A1.758,1.758,0,0,0,21.016.112a1.242,1.242,0,0,0,1.064-.56V0h.976V-3.464H22.08Zm-.864.3a.942.942,0,0,1,.96.976.949.949,0,0,1-.96.984.949.949,0,0,1-.96-.984A.942.942,0,0,1,21.216-2.712ZM23.984,0h.976V-1.768A1.317,1.317,0,0,1,25.1-2.44a.573.573,0,0,1,.536-.3.491.491,0,0,1,.4.176,1.053,1.053,0,0,1,.16.68V0h.976V-1.768A1.317,1.317,0,0,1,27.3-2.44a.573.573,0,0,1,.536-.3.491.491,0,0,1,.4.176,1.053,1.053,0,0,1,.16.68V0h.976V-2.176a1.456,1.456,0,0,0-.24-.976,1.1,1.1,0,0,0-.936-.424,1.275,1.275,0,0,0-1.112.632,1.146,1.146,0,0,0-1.1-.632,1.275,1.275,0,0,0-1.032.5v-.392h-.976ZM30.3,0h.976V-1.768a1.317,1.317,0,0,1,.136-.672.573.573,0,0,1,.536-.3.491.491,0,0,1,.4.176,1.053,1.053,0,0,1,.16.68V0h.976V-1.768a1.317,1.317,0,0,1,.136-.672.573.573,0,0,1,.536-.3.491.491,0,0,1,.4.176,1.053,1.053,0,0,1,.16.68V0H35.7V-2.176a1.456,1.456,0,0,0-.24-.976,1.1,1.1,0,0,0-.936-.424,1.275,1.275,0,0,0-1.112.632,1.146,1.146,0,0,0-1.1-.632,1.275,1.275,0,0,0-1.032.5v-.392H30.3Zm6.32-3.464V0H37.6V-3.464Zm-.1-1.464a.587.587,0,0,0,.584.584.587.587,0,0,0,.584-.584.587.587,0,0,0-.584-.584A.587.587,0,0,0,36.528-4.928Zm2,4.928H39.5V-1.768a1.192,1.192,0,0,1,.152-.672.665.665,0,0,1,.6-.3.625.625,0,0,1,.456.176.993.993,0,0,1,.184.68V0h.976V-2.176a1.459,1.459,0,0,0-.272-.976,1.324,1.324,0,0,0-1.024-.424,1.272,1.272,0,0,0-1.072.56v-.448h-.976ZM45.44-3.016a1.219,1.219,0,0,0-1.088-.56,1.7,1.7,0,0,0-1.192.464,1.927,1.927,0,0,0-.536,1.376A1.9,1.9,0,0,0,43.176-.36a1.64,1.64,0,0,0,1.2.472A1.214,1.214,0,0,0,45.44-.464V.024a.976.976,0,0,1-.248.768.823.823,0,0,1-.592.216.861.861,0,0,1-.592-.184.832.832,0,0,1-.24-.416H42.712a1.919,1.919,0,0,0,.56,1.032,1.884,1.884,0,0,0,1.3.4,1.841,1.841,0,0,0,1.368-.488,1.985,1.985,0,0,0,.48-1.512v-3.3H45.44Zm-.848.3a.889.889,0,0,1,.68.28.987.987,0,0,1,.28.7,1.021,1.021,0,0,1-.312.744.981.981,0,0,1-.648.24.948.948,0,0,1-.7-.3.962.962,0,0,1-.256-.68.949.949,0,0,1,.312-.736A.939.939,0,0,1,44.592-2.712Zm4.76-2.624V0H52.04V-.9H50.392v-4.44Zm5.92,2.32a1.255,1.255,0,0,0-1.112-.56,1.732,1.732,0,0,0-1.72,1.84A1.758,1.758,0,0,0,54.208.112a1.242,1.242,0,0,0,1.064-.56V0h.976V-3.464h-.976Zm-.864.3a.942.942,0,0,1,.96.976.949.949,0,0,1-.96.984.949.949,0,0,1-.96-.984A.942.942,0,0,1,54.408-2.712ZM57.176,0h.976V-1.768A1.192,1.192,0,0,1,58.3-2.44a.665.665,0,0,1,.6-.3.625.625,0,0,1,.456.176.993.993,0,0,1,.184.68V0h.976V-2.176a1.459,1.459,0,0,0-.272-.976,1.324,1.324,0,0,0-1.024-.424,1.272,1.272,0,0,0-1.072.56v-.448h-.976Zm6.912-3.016A1.219,1.219,0,0,0,63-3.576a1.7,1.7,0,0,0-1.192.464,1.927,1.927,0,0,0-.536,1.376A1.9,1.9,0,0,0,61.824-.36a1.64,1.64,0,0,0,1.2.472,1.214,1.214,0,0,0,1.064-.576V.024a.976.976,0,0,1-.248.768.823.823,0,0,1-.592.216.861.861,0,0,1-.592-.184.832.832,0,0,1-.24-.416H61.36a1.919,1.919,0,0,0,.56,1.032,1.884,1.884,0,0,0,1.3.4,1.841,1.841,0,0,0,1.368-.488,1.985,1.985,0,0,0,.48-1.512v-3.3h-.976Zm-.848.3a.889.889,0,0,1,.68.28.987.987,0,0,1,.28.7,1.021,1.021,0,0,1-.312.744.981.981,0,0,1-.648.24.948.948,0,0,1-.7-.3.962.962,0,0,1-.256-.68.949.949,0,0,1,.312-.736A.939.939,0,0,1,63.24-2.712Zm2.752-.752v2.12A1.309,1.309,0,0,0,66.416-.28a1.99,1.99,0,0,0,1.256.392A1.99,1.99,0,0,0,68.928-.28a1.309,1.309,0,0,0,.424-1.064v-2.12h-.976V-1.5a.779.779,0,0,1-.208.608.8.8,0,0,1-.5.176.8.8,0,0,1-.5-.176.779.779,0,0,1-.208-.608v-1.96Zm6.944.448a1.255,1.255,0,0,0-1.112-.56,1.732,1.732,0,0,0-1.72,1.84A1.758,1.758,0,0,0,71.872.112a1.242,1.242,0,0,0,1.064-.56V0h.976V-3.464h-.976Zm-.864.3a.942.942,0,0,1,.96.976.949.949,0,0,1-.96.984.949.949,0,0,1-.96-.984A.942.942,0,0,1,72.072-2.712Zm5.408-.3a1.219,1.219,0,0,0-1.088-.56,1.7,1.7,0,0,0-1.192.464,1.927,1.927,0,0,0-.536,1.376A1.9,1.9,0,0,0,75.216-.36a1.64,1.64,0,0,0,1.2.472A1.214,1.214,0,0,0,77.48-.464V.024a.976.976,0,0,1-.248.768.823.823,0,0,1-.592.216.861.861,0,0,1-.592-.184.832.832,0,0,1-.24-.416H74.752a1.919,1.919,0,0,0,.56,1.032,1.884,1.884,0,0,0,1.3.4,1.841,1.841,0,0,0,1.368-.488,1.985,1.985,0,0,0,.48-1.512v-3.3H77.48Zm-.848.3a.889.889,0,0,1,.68.28.987.987,0,0,1,.28.7,1.021,1.021,0,0,1-.312.744.981.981,0,0,1-.648.24.948.948,0,0,1-.7-.3.962.962,0,0,1-.256-.68.949.949,0,0,1,.312-.736A.939.939,0,0,1,76.632-2.712Zm5.256,1.6a.893.893,0,0,1-.808.456.825.825,0,0,1-.7-.328,1.022,1.022,0,0,1-.168-.584h2.592v-.08a2.071,2.071,0,0,0-.416-1.36,1.656,1.656,0,0,0-1.352-.568,1.775,1.775,0,0,0-1.3.488,1.845,1.845,0,0,0-.528,1.36,1.745,1.745,0,0,0,.544,1.352A1.813,1.813,0,0,0,81.08.112a1.711,1.711,0,0,0,1.7-1.08Zm-1.64-1.08a.815.815,0,0,1,.816-.7.816.816,0,0,1,.824.7Zm5.68-1.016a1.728,1.728,0,0,0-1.1-.368,1.429,1.429,0,0,0-.9.248,1.029,1.029,0,0,0-.36.784.929.929,0,0,0,.264.664,1.869,1.869,0,0,0,.744.416l.224.08a.386.386,0,0,1,.3.352c0,.24-.208.376-.48.376a1.074,1.074,0,0,1-.768-.4l-.512.592A1.751,1.751,0,0,0,84.68.112a1.455,1.455,0,0,0,1.04-.368,1.151,1.151,0,0,0,.384-.88,1,1,0,0,0-.176-.576,1.775,1.775,0,0,0-.88-.5l-.232-.072c-.272-.088-.312-.224-.312-.312,0-.168.144-.28.376-.28a.81.81,0,0,1,.568.232Z" transform="translate(19 518)"/>
    <path id="Path_248793" data-name="Path 248793" d="M.608-5.336V0H1.984A3.062,3.062,0,0,0,3.936-.512,2.544,2.544,0,0,0,5.008-2.664,2.641,2.641,0,0,0,3.984-4.816,3.108,3.108,0,0,0,2-5.336Zm1.04.9h.32a2.171,2.171,0,0,1,1.312.352,1.778,1.778,0,0,1,.656,1.424,1.736,1.736,0,0,1-.664,1.416,2.233,2.233,0,0,1-1.3.352h-.32ZM8.48-3.016a1.255,1.255,0,0,0-1.112-.56,1.732,1.732,0,0,0-1.72,1.84A1.758,1.758,0,0,0,7.416.112,1.242,1.242,0,0,0,8.48-.448V0h.976V-3.464H8.48Zm-.864.3a.942.942,0,0,1,.96.976.949.949,0,0,1-.96.984.949.949,0,0,1-.96-.984A.942.942,0,0,1,7.616-2.712Zm4.416.08v-.832H11.36V-4.648h-.976v1.184H10v.832h.384V0h.976V-2.632ZM15.2-3.016a1.255,1.255,0,0,0-1.112-.56,1.732,1.732,0,0,0-1.72,1.84A1.758,1.758,0,0,0,14.136.112,1.242,1.242,0,0,0,15.2-.448V0h.976V-3.464H15.2Zm-.864.3a.942.942,0,0,1,.96.976.949.949,0,0,1-.96.984.949.949,0,0,1-.96-.984A.942.942,0,0,1,14.336-2.712ZM18.52-5.336,20.76,0h.624L23.64-5.336H22.5L21.08-1.752,19.656-5.336Zm5.6,1.872V0H25.1V-3.464Zm-.1-1.464a.587.587,0,0,0,.584.584.587.587,0,0,0,.584-.584.587.587,0,0,0-.584-.584A.587.587,0,0,0,24.024-4.928Zm4.368,1.72a1.728,1.728,0,0,0-1.1-.368,1.429,1.429,0,0,0-.9.248,1.029,1.029,0,0,0-.36.784.929.929,0,0,0,.264.664,1.869,1.869,0,0,0,.744.416l.224.08a.386.386,0,0,1,.3.352c0,.24-.208.376-.48.376a1.074,1.074,0,0,1-.768-.4L25.8-.464a1.751,1.751,0,0,0,1.344.576,1.455,1.455,0,0,0,1.04-.368,1.151,1.151,0,0,0,.384-.88,1,1,0,0,0-.176-.576,1.775,1.775,0,0,0-.88-.5L27.28-2.28c-.272-.088-.312-.224-.312-.312,0-.168.144-.28.376-.28a.81.81,0,0,1,.568.232Zm.864-.256v2.12A1.309,1.309,0,0,0,29.68-.28a1.99,1.99,0,0,0,1.256.392A1.99,1.99,0,0,0,32.192-.28a1.309,1.309,0,0,0,.424-1.064v-2.12H31.64V-1.5a.779.779,0,0,1-.208.608.8.8,0,0,1-.5.176.8.8,0,0,1-.5-.176.779.779,0,0,1-.208-.608v-1.96Zm6.944.448a1.255,1.255,0,0,0-1.112-.56,1.732,1.732,0,0,0-1.72,1.84A1.758,1.758,0,0,0,35.136.112,1.242,1.242,0,0,0,36.2-.448V0h.976V-3.464H36.2Zm-.864.3a.942.942,0,0,1,.96.976.949.949,0,0,1-.96.984.949.949,0,0,1-.96-.984A.942.942,0,0,1,35.336-2.712ZM38.1-5.832V0h.976V-5.832Zm1.9,2.368V0h.976V-3.464Zm-.1-1.464a.587.587,0,0,0,.584.584.587.587,0,0,0,.584-.584.587.587,0,0,0-.584-.584A.587.587,0,0,0,39.912-4.928Zm5.312,1.464H41.848v.832h1.664L41.544,0h3.544V-.832H43.256Zm3.136.448a1.255,1.255,0,0,0-1.112-.56,1.732,1.732,0,0,0-1.72,1.84A1.758,1.758,0,0,0,47.3.112a1.242,1.242,0,0,0,1.064-.56V0h.976V-3.464H48.36Zm-.864.3a.942.942,0,0,1,.96.976.949.949,0,0,1-.96.984.949.949,0,0,1-.96-.984A.942.942,0,0,1,47.5-2.712Zm4.416.08v-.832H51.24V-4.648h-.976v1.184H49.88v.832h.384V0h.976V-2.632Zm.512-.832V0H53.4V-3.464Zm-.1-1.464a.587.587,0,0,0,.584.584.587.587,0,0,0,.584-.584.587.587,0,0,0-.584-.584A.587.587,0,0,0,52.328-4.928Zm3.808,1.352a1.993,1.993,0,0,0-1.4.488,1.825,1.825,0,0,0-.584,1.36,1.82,1.82,0,0,0,.584,1.352,1.993,1.993,0,0,0,1.4.488,1.993,1.993,0,0,0,1.4-.488,1.82,1.82,0,0,0,.584-1.352,1.825,1.825,0,0,0-.584-1.36A1.993,1.993,0,0,0,56.136-3.576Zm0,2.824a.965.965,0,0,1-.976-.976.967.967,0,0,1,.976-.984.967.967,0,0,1,.976.984A.965.965,0,0,1,56.136-.752ZM58.872,0h.976V-1.768A1.192,1.192,0,0,1,60-2.44a.665.665,0,0,1,.6-.3.625.625,0,0,1,.456.176.993.993,0,0,1,.184.68V0h.976V-2.176a1.459,1.459,0,0,0-.272-.976,1.324,1.324,0,0,0-1.024-.424,1.272,1.272,0,0,0-1.072.56v-.448h-.976Zm10.3-2.592a6.169,6.169,0,0,1-.664.736l-.88-1.008L67.848-3A1.379,1.379,0,0,0,68.6-4.184a1.3,1.3,0,0,0-1.432-1.272A1.34,1.34,0,0,0,65.7-4.128a1.683,1.683,0,0,0,.536,1.12l-.416.248a1.6,1.6,0,0,0-.856,1.352A1.546,1.546,0,0,0,66.632.12a2.639,2.639,0,0,0,1.72-.72l.52.6H70.16L69.08-1.224l.12-.12a5.979,5.979,0,0,0,.576-.648Zm-1.4,1.336a1.5,1.5,0,0,1-.984.464A.731.731,0,0,1,66-1.5c0-.408.352-.7.76-.92ZM66.9-3.7a.814.814,0,0,1-.224-.5.5.5,0,0,1,.544-.5.5.5,0,0,1,.52.528.721.721,0,0,1-.368.592l-.24.168ZM75.4-1.96h1.376a1.423,1.423,0,0,1-.5.816,1.779,1.779,0,0,1-1.048.32A1.642,1.642,0,0,1,74.04-1.28a1.814,1.814,0,0,1-.528-1.352,1.989,1.989,0,0,1,.536-1.408,1.8,1.8,0,0,1,1.232-.472,1.749,1.749,0,0,1,.752.168,1.455,1.455,0,0,1,.624.632l.9-.488a2.512,2.512,0,0,0-1-.976,2.584,2.584,0,0,0-1.232-.28,2.847,2.847,0,0,0-2.1.816,2.726,2.726,0,0,0-.784,1.984A2.862,2.862,0,0,0,73.232-.6a2.575,2.575,0,0,0,1.936.72,2.552,2.552,0,0,0,1.9-.7,3.207,3.207,0,0,0,.784-2.208v-.064H75.4ZM78.664,0h.976V-1.664a1.19,1.19,0,0,1,.192-.768.8.8,0,0,1,.648-.28.734.734,0,0,1,.456.128l.128-.912a1.2,1.2,0,0,0-.416-.08,1.061,1.061,0,0,0-.576.152,1.168,1.168,0,0,0-.432.48v-.52h-.976ZM84.12-3.016a1.255,1.255,0,0,0-1.112-.56,1.732,1.732,0,0,0-1.72,1.84A1.758,1.758,0,0,0,83.056.112a1.242,1.242,0,0,0,1.064-.56V0H85.1V-3.464H84.12Zm-.864.3a.942.942,0,0,1,.96.976.949.949,0,0,1-.96.984.949.949,0,0,1-.96-.984A.942.942,0,0,1,83.256-2.712ZM87-.448a1.313,1.313,0,0,0,1.112.56,1.7,1.7,0,0,0,1.176-.448,1.852,1.852,0,0,0,.544-1.4,1.869,1.869,0,0,0-.52-1.376,1.655,1.655,0,0,0-1.184-.464A1.318,1.318,0,0,0,87-3.016v-.448h-.976v5.3H87Zm.864-2.264a1.02,1.02,0,0,1,.664.248,1.043,1.043,0,0,1,.3.728,1.016,1.016,0,0,1-.3.736.926.926,0,0,1-.656.248.948.948,0,0,1-.64-.232.984.984,0,0,1-.32-.752.919.919,0,0,1,.328-.744A.883.883,0,0,1,87.864-2.712ZM90.584,0h.976V-1.768a1.192,1.192,0,0,1,.152-.672.665.665,0,0,1,.6-.3.625.625,0,0,1,.456.176.993.993,0,0,1,.184.68V0h.976V-2.176a1.459,1.459,0,0,0-.272-.976,1.324,1.324,0,0,0-1.024-.424,1.272,1.272,0,0,0-1.072.56V-5.832h-.976Zm4.272-3.464V0h.976V-3.464Zm-.1-1.464a.587.587,0,0,0,.584.584.587.587,0,0,0,.584-.584.587.587,0,0,0-.584-.584A.587.587,0,0,0,94.76-4.928Zm4.608,1.56a2.067,2.067,0,0,0-.936-.208,1.845,1.845,0,0,0-1.248.448,1.851,1.851,0,0,0-.6,1.408,1.779,1.779,0,0,0,.552,1.328,1.955,1.955,0,0,0,1.336.5,1.978,1.978,0,0,0,.9-.216v-.952a1.13,1.13,0,0,1-.768.3.965.965,0,0,1-1.008-.984.931.931,0,0,1,.976-.976,1.125,1.125,0,0,1,.8.3Zm3.1.16a1.728,1.728,0,0,0-1.1-.368,1.429,1.429,0,0,0-.9.248,1.029,1.029,0,0,0-.36.784.929.929,0,0,0,.264.664,1.869,1.869,0,0,0,.744.416l.224.08a.386.386,0,0,1,.3.352c0,.24-.208.376-.48.376a1.074,1.074,0,0,1-.768-.4l-.512.592a1.751,1.751,0,0,0,1.344.576,1.455,1.455,0,0,0,1.04-.368,1.151,1.151,0,0,0,.384-.88,1,1,0,0,0-.176-.576,1.775,1.775,0,0,0-.88-.5l-.232-.072c-.272-.088-.312-.224-.312-.312,0-.168.144-.28.376-.28a.81.81,0,0,1,.568.232Z" transform="translate(167 518)"/>
    <path id="Path_248792" data-name="Path 248792" d="M3.44-5.336H.608V0h1.04V-2.352h1.68v-.9H1.648V-4.44H3.44ZM4.024,0H5V-1.664a1.19,1.19,0,0,1,.192-.768.8.8,0,0,1,.648-.28.734.734,0,0,1,.456.128L6.424-3.5a1.2,1.2,0,0,0-.416-.08,1.061,1.061,0,0,0-.576.152A1.168,1.168,0,0,0,5-2.944v-.52H4.024ZM9.48-3.016a1.255,1.255,0,0,0-1.112-.56,1.732,1.732,0,0,0-1.72,1.84A1.758,1.758,0,0,0,8.416.112,1.242,1.242,0,0,0,9.48-.448V0h.976V-3.464H9.48Zm-.864.3a.942.942,0,0,1,.96.976.949.949,0,0,1-.96.984.949.949,0,0,1-.96-.984A.942.942,0,0,1,8.616-2.712ZM11.384,0h.976V-1.768A1.317,1.317,0,0,1,12.5-2.44a.573.573,0,0,1,.536-.3.491.491,0,0,1,.4.176,1.053,1.053,0,0,1,.16.68V0h.976V-1.768A1.317,1.317,0,0,1,14.7-2.44a.573.573,0,0,1,.536-.3.491.491,0,0,1,.4.176,1.053,1.053,0,0,1,.16.68V0h.976V-2.176a1.456,1.456,0,0,0-.24-.976,1.1,1.1,0,0,0-.936-.424,1.275,1.275,0,0,0-1.112.632,1.146,1.146,0,0,0-1.1-.632,1.275,1.275,0,0,0-1.032.5v-.392h-.976Zm8.824-1.112a.893.893,0,0,1-.808.456.825.825,0,0,1-.7-.328,1.022,1.022,0,0,1-.168-.584h2.592v-.08a2.071,2.071,0,0,0-.416-1.36,1.656,1.656,0,0,0-1.352-.568,1.775,1.775,0,0,0-1.3.488,1.845,1.845,0,0,0-.528,1.36,1.745,1.745,0,0,0,.544,1.352A1.813,1.813,0,0,0,19.4.112a1.711,1.711,0,0,0,1.7-1.08Zm-1.64-1.08a.815.815,0,0,1,.816-.7.816.816,0,0,1,.824.7ZM24.5-2.04,25.416,0h.48l1.76-3.464H26.568l-.912,2-.928-2H24.28l-.928,2-.912-2H21.352L23.112,0h.48Zm5.352-1.536a1.993,1.993,0,0,0-1.4.488,1.825,1.825,0,0,0-.584,1.36,1.82,1.82,0,0,0,.584,1.352,1.993,1.993,0,0,0,1.4.488,1.993,1.993,0,0,0,1.4-.488,1.82,1.82,0,0,0,.584-1.352,1.825,1.825,0,0,0-.584-1.36A1.993,1.993,0,0,0,29.856-3.576Zm0,2.824a.965.965,0,0,1-.976-.976.967.967,0,0,1,.976-.984.967.967,0,0,1,.976.984A.965.965,0,0,1,29.856-.752ZM32.592,0h.976V-1.664a1.19,1.19,0,0,1,.192-.768.8.8,0,0,1,.648-.28.734.734,0,0,1,.456.128l.128-.912a1.2,1.2,0,0,0-.416-.08A1.061,1.061,0,0,0,34-3.424a1.168,1.168,0,0,0-.432.48v-.52h-.976Zm2.88-5.832V0h.976V-1.384l.1-.1L37.84,0h1.3L37.384-1.944l1.624-1.52H37.744L36.448-2.2V-5.832Zm6.3,2.624a1.728,1.728,0,0,0-1.1-.368,1.429,1.429,0,0,0-.9.248,1.029,1.029,0,0,0-.36.784.929.929,0,0,0,.264.664,1.869,1.869,0,0,0,.744.416l.224.08a.386.386,0,0,1,.3.352c0,.24-.208.376-.48.376a1.074,1.074,0,0,1-.768-.4l-.512.592A1.751,1.751,0,0,0,40.52.112a1.455,1.455,0,0,0,1.04-.368,1.151,1.151,0,0,0,.384-.88,1,1,0,0,0-.176-.576,1.775,1.775,0,0,0-.88-.5l-.232-.072c-.272-.088-.312-.224-.312-.312,0-.168.144-.28.376-.28a.81.81,0,0,1,.568.232Z" transform="translate(351 518)"/>
    <path id="Path_248791" data-name="Path 248791" d="M5.96-6.12v.92a3.07,3.07,0,0,0-.87-.62,2.748,2.748,0,0,0-1.15-.26,2.532,2.532,0,0,0-1.915.805A2.759,2.759,0,0,0,1.26-3.3,2.507,2.507,0,0,0,2.1-1.31,2.752,2.752,0,0,0,3.95-.58,2.67,2.67,0,0,0,5.19-.89a2.954,2.954,0,0,0,.77-.56v.92A3.381,3.381,0,0,1,3.95.12,3.335,3.335,0,0,1,1.485-.87,3.324,3.324,0,0,1,.5-3.31a3.355,3.355,0,0,1,1-2.48A3.393,3.393,0,0,1,3.99-6.78,3.176,3.176,0,0,1,5.96-6.12ZM10.4,0H9.67l.32-2.07H8.63L8.31,0H7.58L7.9-2.07H6.8l.1-.66H8l.2-1.33H7.1l.1-.66H8.3l.3-1.95h.73l-.3,1.95h1.36l.3-1.95h.73l-.3,1.95h1.1l-.1.66h-1.1l-.2,1.33h1.1l-.1.66h-1.1Zm-.31-2.73.2-1.33H8.93l-.2,1.33Z" transform="translate(21 545)"/>
    <path id="Path_248790" data-name="Path 248790" d="M.86-6.67H1.93a2.882,2.882,0,0,1,1.62.37,1.662,1.662,0,0,1,.73,1.48,1.828,1.828,0,0,1-.465,1.28A1.733,1.733,0,0,1,2.6-2.98L4.72,0h-.9L1.79-2.92H1.6V0H.86Zm.74.7v2.39h.47A1.656,1.656,0,0,0,3.15-3.9a1.1,1.1,0,0,0,.39-.9,1.039,1.039,0,0,0-.53-.98,1.991,1.991,0,0,0-.96-.19Z" transform="translate(59 545)"/>
    <path id="Path_248789" data-name="Path 248789" d="M.86,0V-6.67H2.22a3.678,3.678,0,0,1,2.46.78A3.16,3.16,0,0,1,5.82-3.33,3.216,3.216,0,0,1,4.65-.77a3.034,3.034,0,0,1-1.03.59A4.62,4.62,0,0,1,2.21,0ZM1.6-5.97V-.7h.65a2.887,2.887,0,0,0,1.91-.6,2.522,2.522,0,0,0,.9-2.03,2.5,2.5,0,0,0-.77-1.92,2.866,2.866,0,0,0-2.04-.72Zm6.32.95H7.18A2.045,2.045,0,0,1,7.49-6a1.711,1.711,0,0,1,1.55-.78,1.8,1.8,0,0,1,1.385.53,1.8,1.8,0,0,1,.495,1.27,1.519,1.519,0,0,1-.86,1.48,1.255,1.255,0,0,1,.255.135,2.257,2.257,0,0,1,.305.265,1.289,1.289,0,0,1,.29.495,2.162,2.162,0,0,1,.11.715,1.91,1.91,0,0,1-.585,1.46A2.055,2.055,0,0,1,8.97.12a2.282,2.282,0,0,1-1.1-.275,1.69,1.69,0,0,1-.76-.875,2.147,2.147,0,0,1-.15-.7H7.7a1.405,1.405,0,0,0,.24.67,1.161,1.161,0,0,0,1.03.5A1.241,1.241,0,0,0,9.9-.955a1.327,1.327,0,0,0,.38-.955,1.117,1.117,0,0,0-.66-1.12,1.552,1.552,0,0,0-.76-.14v-.66a1.415,1.415,0,0,0,.76-.14,1.024,1.024,0,0,0,.56-.99,1.2,1.2,0,0,0-.28-.815A1.074,1.074,0,0,0,9.04-6.1a1.031,1.031,0,0,0-.86.38A1.282,1.282,0,0,0,7.92-5.02Z" transform="translate(121 546)"/>
    <path id="Path_248788" data-name="Path 248788" d="M.79-.05A.48.48,0,0,1,.64-.4.48.48,0,0,1,.79-.75.48.48,0,0,1,1.14-.9a.48.48,0,0,1,.35.15.48.48,0,0,1,.15.35.48.48,0,0,1-.15.35A.48.48,0,0,1,1.14.1.48.48,0,0,1,.79-.05ZM2.96,0V-4.15h.72v.48a1.415,1.415,0,0,1,1.19-.58,1.343,1.343,0,0,1,1.19.57A2,2,0,0,1,6.3-2.57V0H5.58V-2.55a1.251,1.251,0,0,0-.19-.76.8.8,0,0,0-.68-.3.906.906,0,0,0-.73.32,1.705,1.705,0,0,0-.3,1.12V0Zm7.78-1.39.6.33a2.375,2.375,0,0,1-.51.67A2,2,0,0,1,9.45.12,2.085,2.085,0,0,1,8.005-.425,2.076,2.076,0,0,1,7.4-2.05a2.31,2.31,0,0,1,.545-1.575A1.845,1.845,0,0,1,9.41-4.25a1.79,1.79,0,0,1,1.57.76,2.52,2.52,0,0,1,.39,1.56H8.14A1.434,1.434,0,0,0,8.53-.91a1.249,1.249,0,0,0,.93.39,1.286,1.286,0,0,0,.85-.3A1.633,1.633,0,0,0,10.74-1.39ZM8.19-2.53h2.44a1.33,1.33,0,0,0-.425-.785,1.163,1.163,0,0,0-.8-.3,1.165,1.165,0,0,0-.8.305A1.292,1.292,0,0,0,8.19-2.53Zm5.74-.96h-.72V0h-.72V-3.49h-.44v-.66h.44v-1.5h.72v1.5h.72Z" transform="translate(340 545)"/>
    <path id="Path_248787" data-name="Path 248787" d="M.86-6.67H2.07a2.515,2.515,0,0,1,1.68.47,1.779,1.779,0,0,1,.61,1.43,1.839,1.839,0,0,1-.525,1.325A2.106,2.106,0,0,1,2.25-2.9H1.6V0H.86Zm.74.7V-3.6h.61a1.544,1.544,0,0,0,1.035-.32,1.107,1.107,0,0,0,.375-.89q0-1.16-1.47-1.16ZM5.23,2.3,6.55-.39,4.64-4.15h.82L6.93-1.18,8.28-4.15h.8L6.03,2.3ZM11.3-3.49h-.72V0H9.86V-3.49H9.42v-.66h.44v-1.5h.72v1.5h.72ZM11.98,0V-7.29h.72v3.62a1.415,1.415,0,0,1,1.19-.58,1.343,1.343,0,0,1,1.19.57,2,2,0,0,1,.24,1.11V0H14.6V-2.55a1.251,1.251,0,0,0-.19-.76.8.8,0,0,0-.68-.3.906.906,0,0,0-.73.32,1.705,1.705,0,0,0-.3,1.12V0Zm8.06-.5a2.128,2.128,0,0,1-1.57.62A2.144,2.144,0,0,1,16.9-.5a2.106,2.106,0,0,1-.625-1.56A2.119,2.119,0,0,1,16.9-3.63a2.144,2.144,0,0,1,1.575-.62,2.144,2.144,0,0,1,1.575.62,2.119,2.119,0,0,1,.625,1.57A2.1,2.1,0,0,1,20.04-.5ZM19.5-3.2a1.418,1.418,0,0,0-1.03-.41,1.426,1.426,0,0,0-1.035.415A1.513,1.513,0,0,0,17.01-2.06a1.487,1.487,0,0,0,.43,1.13,1.44,1.44,0,0,0,1.03.41A1.44,1.44,0,0,0,19.5-.93a1.487,1.487,0,0,0,.43-1.13A1.5,1.5,0,0,0,19.5-3.2ZM21.77,0V-4.15h.72v.48a1.415,1.415,0,0,1,1.19-.58,1.343,1.343,0,0,1,1.19.57,2,2,0,0,1,.24,1.11V0h-.72V-2.55a1.251,1.251,0,0,0-.19-.76.8.8,0,0,0-.68-.3.906.906,0,0,0-.73.32,1.705,1.705,0,0,0-.3,1.12V0Z" transform="translate(82 545)"/>
    <path id="Path_248786" data-name="Path 248786" d="M1.6-6.67v2.71H5.02V-6.67h.74V0H5.02V-3.26H1.6V0H.86V-6.67Zm9.14.7H9.12V0H8.38V-5.97H6.76v-.7h3.98ZM12.27,0h-.76l1.11-7.04,2.56,5.63,2.61-5.64L18.83,0h-.76l-.63-4.64L15.17.28,12.93-4.64Zm8.1-6.67h.74V-.7h1.84V0H20.37ZM23.09,1.7l5.14-9.29.58.3L23.67,1.98Zm7.38-8.37h.74v4.8q0,.36-.015.575a2.139,2.139,0,0,1-.11.505A1.276,1.276,0,0,1,30.8-.3a1.376,1.376,0,0,1-1.06.42,1.5,1.5,0,0,1-1.19-.49l.41-.58a1.015,1.015,0,0,0,.76.37.676.676,0,0,0,.5-.19,1.607,1.607,0,0,0,.25-1.08Zm6.03.93-.59.39a1.572,1.572,0,0,0-.39-.5,1.2,1.2,0,0,0-.75-.23,1.15,1.15,0,0,0-.81.285.965.965,0,0,0-.31.745.775.775,0,0,0,.25.58,2.381,2.381,0,0,0,.7.42l.64.28a3.4,3.4,0,0,1,1.03.63,1.64,1.64,0,0,1,.48,1.21,1.949,1.949,0,0,1-.6,1.48,2.105,2.105,0,0,1-1.51.57,1.98,1.98,0,0,1-1.45-.54,2.336,2.336,0,0,1-.62-1.18l.72-.2a1.512,1.512,0,0,0,.4.85,1.3,1.3,0,0,0,.96.37,1.27,1.27,0,0,0,.99-.385,1.34,1.34,0,0,0,.35-.935,1,1,0,0,0-.33-.78,3.314,3.314,0,0,0-.8-.46l-.6-.28a3.277,3.277,0,0,1-.89-.55,1.448,1.448,0,0,1-.46-1.09,1.6,1.6,0,0,1,.525-1.245A1.928,1.928,0,0,1,34.78-6.78a1.884,1.884,0,0,1,1.07.3A1.9,1.9,0,0,1,36.5-5.74Zm.75,7.44,5.14-9.29.58.3L37.83,1.98ZM49.69.07l-.54-.56a3.5,3.5,0,0,1-2.01.61,3.383,3.383,0,0,1-2.46-.99,3.306,3.306,0,0,1-1.01-2.46A3.3,3.3,0,0,1,44.68-5.8a3.392,3.392,0,0,1,2.46-.985A3.392,3.392,0,0,1,49.6-5.8,3.3,3.3,0,0,1,50.61-3.33a3.346,3.346,0,0,1-.94,2.39L50.65.07ZM47.97-2.68l1.17,1.2a2.633,2.633,0,0,0,.71-1.85,2.667,2.667,0,0,0-.795-1.945A2.594,2.594,0,0,0,47.14-6.08a2.6,2.6,0,0,0-1.92.8,2.671,2.671,0,0,0-.79,1.95,2.671,2.671,0,0,0,.79,1.95,2.6,2.6,0,0,0,1.92.8,2.64,2.64,0,0,0,1.48-.44L47.01-2.68Zm4.54-1.47v2.42a1.5,1.5,0,0,0,.2.89.87.87,0,0,0,.73.32.87.87,0,0,0,.73-.32,1.5,1.5,0,0,0,.2-.89V-4.15h.72v2.5A1.786,1.786,0,0,1,54.71-.4a1.666,1.666,0,0,1-1.27.52A1.666,1.666,0,0,1,52.17-.4a1.786,1.786,0,0,1-.38-1.25v-2.5Zm7.02,2.76.6.33a2.375,2.375,0,0,1-.51.67,2,2,0,0,1-1.38.51A2.085,2.085,0,0,1,56.8-.425,2.076,2.076,0,0,1,56.19-2.05a2.31,2.31,0,0,1,.545-1.575A1.845,1.845,0,0,1,58.2-4.25a1.79,1.79,0,0,1,1.57.76,2.52,2.52,0,0,1,.39,1.56H56.93a1.434,1.434,0,0,0,.39,1.02,1.249,1.249,0,0,0,.93.39,1.286,1.286,0,0,0,.85-.3A1.633,1.633,0,0,0,59.53-1.39ZM56.98-2.53h2.44a1.33,1.33,0,0,0-.425-.785,1.163,1.163,0,0,0-.795-.3,1.165,1.165,0,0,0-.8.305A1.292,1.292,0,0,0,56.98-2.53ZM61.26,0V-4.15h.72v.45a1.069,1.069,0,0,1,.94-.55,1.437,1.437,0,0,1,.64.17l-.34.65a.721.721,0,0,0-.42-.14.687.687,0,0,0-.58.26,1.936,1.936,0,0,0-.24,1.12V0Zm3.26,2.3L65.84-.39,63.93-4.15h.82l1.47,2.97,1.35-2.97h.8L65.32,2.3Z" transform="translate(147 545)"/>
    <path id="Path_248785" data-name="Path 248785" d="M3.86-3.56V-7.29h.72V0H3.86V-.58a1.708,1.708,0,0,1-1.42.7A1.965,1.965,0,0,1,1.01-.46,2.168,2.168,0,0,1,.42-2.08,2.135,2.135,0,0,1,1-3.675,1.969,1.969,0,0,1,2.44-4.25,1.682,1.682,0,0,1,3.86-3.56ZM2.52-3.61a1.3,1.3,0,0,0-.965.405A1.543,1.543,0,0,0,1.16-2.08,1.691,1.691,0,0,0,1.525-.955,1.23,1.23,0,0,0,2.52-.52a1.241,1.241,0,0,0,1-.45A1.661,1.661,0,0,0,3.9-2.07a1.5,1.5,0,0,0-.42-1.14A1.353,1.353,0,0,0,2.52-3.61Zm3.42-.54h.72V2.3H5.94Zm0-1.21a.491.491,0,0,1-.15-.36.491.491,0,0,1,.15-.36.491.491,0,0,1,.36-.15.491.491,0,0,1,.36.15.491.491,0,0,1,.15.36.491.491,0,0,1-.15.36.491.491,0,0,1-.36.15A.491.491,0,0,1,5.94-5.36Zm5.26,1.8v-.59h.72V0H11.2V-.58a1.708,1.708,0,0,1-1.42.7A1.965,1.965,0,0,1,8.35-.46a2.168,2.168,0,0,1-.59-1.62,2.135,2.135,0,0,1,.585-1.6A1.969,1.969,0,0,1,9.78-4.25,1.682,1.682,0,0,1,11.2-3.56ZM9.86-3.61A1.3,1.3,0,0,0,8.9-3.2,1.543,1.543,0,0,0,8.5-2.08,1.691,1.691,0,0,0,8.865-.955a1.23,1.23,0,0,0,1,.435,1.241,1.241,0,0,0,1-.45,1.661,1.661,0,0,0,.375-1.1,1.5,1.5,0,0,0-.42-1.14A1.353,1.353,0,0,0,9.86-3.61ZM13.28,0V-4.15H14v.48a1.415,1.415,0,0,1,1.19-.58,1.343,1.343,0,0,1,1.19.57,2,2,0,0,1,.24,1.11V0H15.9V-2.55a1.251,1.251,0,0,0-.19-.76.8.8,0,0,0-.68-.3.906.906,0,0,0-.73.32A1.705,1.705,0,0,0,14-2.17V0Zm7.88-3.56v-.59h.72V-.1a2.732,2.732,0,0,1-.4,1.63,1.937,1.937,0,0,1-1.66.77,2,2,0,0,1-1.48-.56A1.819,1.819,0,0,1,17.8.4h.71a1.251,1.251,0,0,0,.32.86,1.277,1.277,0,0,0,1,.4,1.192,1.192,0,0,0,1.1-.58A2.018,2.018,0,0,0,21.16.02v-.6a1.708,1.708,0,0,1-1.42.7,1.924,1.924,0,0,1-1.42-.56,2.216,2.216,0,0,1-.6-1.64,2.176,2.176,0,0,1,.6-1.61,1.967,1.967,0,0,1,1.42-.56A1.7,1.7,0,0,1,21.16-3.56Zm-1.34-.05a1.281,1.281,0,0,0-.94.39,1.561,1.561,0,0,0-.42,1.14,1.57,1.57,0,0,0,.47,1.22,1.269,1.269,0,0,0,.89.34,1.231,1.231,0,0,0,.91-.35,1.584,1.584,0,0,0,.47-1.2,1.541,1.541,0,0,0-.44-1.17A1.274,1.274,0,0,0,19.82-3.61ZM26.75-.5a2.128,2.128,0,0,1-1.57.62A2.144,2.144,0,0,1,23.6-.5a2.106,2.106,0,0,1-.625-1.56A2.119,2.119,0,0,1,23.6-3.63a2.144,2.144,0,0,1,1.575-.62,2.144,2.144,0,0,1,1.575.62,2.119,2.119,0,0,1,.625,1.57A2.1,2.1,0,0,1,26.75-.5Zm-.54-2.7a1.418,1.418,0,0,0-1.03-.41,1.426,1.426,0,0,0-1.035.415A1.513,1.513,0,0,0,23.72-2.06a1.487,1.487,0,0,0,.43,1.13,1.44,1.44,0,0,0,1.03.41,1.44,1.44,0,0,0,1.03-.41,1.487,1.487,0,0,0,.43-1.13A1.5,1.5,0,0,0,26.21-3.2Z" transform="translate(381 545)"/>
    <path id="Path_248784" data-name="Path 248784" d="M4.43-5.74l-.59.39a1.572,1.572,0,0,0-.39-.5,1.2,1.2,0,0,0-.75-.23,1.15,1.15,0,0,0-.81.285.965.965,0,0,0-.31.745.775.775,0,0,0,.25.58,2.381,2.381,0,0,0,.7.42l.64.28a3.4,3.4,0,0,1,1.03.63,1.64,1.64,0,0,1,.48,1.21,1.949,1.949,0,0,1-.6,1.48A2.105,2.105,0,0,1,2.57.12,1.98,1.98,0,0,1,1.12-.42,2.336,2.336,0,0,1,.5-1.6l.72-.2a1.512,1.512,0,0,0,.4.85,1.3,1.3,0,0,0,.96.37,1.27,1.27,0,0,0,.99-.385A1.34,1.34,0,0,0,3.92-1.9a1,1,0,0,0-.33-.78,3.314,3.314,0,0,0-.8-.46l-.6-.28a3.277,3.277,0,0,1-.89-.55A1.448,1.448,0,0,1,.84-5.06a1.6,1.6,0,0,1,.525-1.245A1.928,1.928,0,0,1,2.71-6.78a1.884,1.884,0,0,1,1.07.3A1.9,1.9,0,0,1,4.43-5.74ZM11.7.07l-.54-.56A3.5,3.5,0,0,1,9.15.12,3.383,3.383,0,0,1,6.69-.87,3.306,3.306,0,0,1,5.68-3.33,3.3,3.3,0,0,1,6.69-5.8,3.392,3.392,0,0,1,9.15-6.78a3.392,3.392,0,0,1,2.46.985A3.3,3.3,0,0,1,12.62-3.33a3.346,3.346,0,0,1-.94,2.39L12.66.07ZM9.98-2.68l1.17,1.2a2.633,2.633,0,0,0,.71-1.85,2.667,2.667,0,0,0-.795-1.945A2.594,2.594,0,0,0,9.15-6.08a2.6,2.6,0,0,0-1.92.8,2.671,2.671,0,0,0-.79,1.95,2.671,2.671,0,0,0,.79,1.95,2.6,2.6,0,0,0,1.92.8,2.64,2.64,0,0,0,1.48-.44L9.02-2.68Zm4-3.99h.74V-.7h1.84V0H13.98Zm9.48.93-.59.39a1.572,1.572,0,0,0-.39-.5,1.2,1.2,0,0,0-.75-.23,1.15,1.15,0,0,0-.81.285.965.965,0,0,0-.31.745.775.775,0,0,0,.25.58,2.381,2.381,0,0,0,.7.42l.64.28a3.4,3.4,0,0,1,1.03.63,1.64,1.64,0,0,1,.48,1.21,1.949,1.949,0,0,1-.6,1.48A2.105,2.105,0,0,1,21.6.12a1.98,1.98,0,0,1-1.45-.54,2.336,2.336,0,0,1-.62-1.18l.72-.2a1.512,1.512,0,0,0,.4.85,1.3,1.3,0,0,0,.96.37,1.27,1.27,0,0,0,.99-.385,1.34,1.34,0,0,0,.35-.935,1,1,0,0,0-.33-.78,3.314,3.314,0,0,0-.8-.46l-.6-.28a3.277,3.277,0,0,1-.89-.55,1.448,1.448,0,0,1-.46-1.09A1.6,1.6,0,0,1,20.4-6.305,1.928,1.928,0,0,1,21.74-6.78a1.884,1.884,0,0,1,1.07.3A1.9,1.9,0,0,1,23.46-5.74Zm4.51,4.35.6.33a2.375,2.375,0,0,1-.51.67,2,2,0,0,1-1.38.51,2.085,2.085,0,0,1-1.445-.545,2.076,2.076,0,0,1-.6-1.625,2.31,2.31,0,0,1,.545-1.575A1.845,1.845,0,0,1,26.64-4.25a1.79,1.79,0,0,1,1.57.76,2.52,2.52,0,0,1,.39,1.56H25.37a1.434,1.434,0,0,0,.39,1.02,1.249,1.249,0,0,0,.93.39,1.286,1.286,0,0,0,.85-.3A1.633,1.633,0,0,0,27.97-1.39ZM25.42-2.53h2.44a1.33,1.33,0,0,0-.425-.785,1.163,1.163,0,0,0-.8-.3,1.165,1.165,0,0,0-.8.305A1.292,1.292,0,0,0,25.42-2.53ZM29.7,0V-4.15h.72v.45a1.069,1.069,0,0,1,.94-.55,1.437,1.437,0,0,1,.64.17l-.34.65a.721.721,0,0,0-.42-.14.687.687,0,0,0-.58.26,1.936,1.936,0,0,0-.24,1.12V0Zm2.57-4.15h.8l1.24,2.8,1.24-2.8h.8L34.31.27Zm7.92,2.76.6.33a2.375,2.375,0,0,1-.51.67A2,2,0,0,1,38.9.12a2.085,2.085,0,0,1-1.445-.545A2.076,2.076,0,0,1,36.85-2.05,2.31,2.31,0,0,1,37.4-3.625,1.845,1.845,0,0,1,38.86-4.25a1.79,1.79,0,0,1,1.57.76,2.52,2.52,0,0,1,.39,1.56H37.59a1.434,1.434,0,0,0,.39,1.02,1.249,1.249,0,0,0,.93.39,1.286,1.286,0,0,0,.85-.3A1.633,1.633,0,0,0,40.19-1.39ZM37.64-2.53h2.44a1.33,1.33,0,0,0-.425-.785,1.163,1.163,0,0,0-.795-.3,1.165,1.165,0,0,0-.8.305A1.292,1.292,0,0,0,37.64-2.53ZM41.92,0V-4.15h.72v.45a1.069,1.069,0,0,1,.94-.55,1.437,1.437,0,0,1,.64.17l-.34.65a.721.721,0,0,0-.42-.14.687.687,0,0,0-.58.26,1.936,1.936,0,0,0-.24,1.12V0Z" transform="translate(229 497)"/>
    <rect id="Rectangle_10921" data-name="Rectangle 10921" width="47" height="46" transform="translate(372 366)" fill="#146eb4"/>
    <rect id="Rectangle_10922" data-name="Rectangle 10922" width="53" height="46" transform="translate(225 366)" fill="#d8ebff"/>
    <g id="Amazon_Web_Services_Logo" transform="translate(384.927 385)">
      <path id="Path_247557" data-name="Path 247557" d="M19.3,6.018a2.379,2.379,0,0,0,.079.67,4.129,4.129,0,0,0,.23.542.339.339,0,0,1,.05.173.3.3,0,0,1-.137.226l-.453.316a.335.335,0,0,1-.187.068.325.325,0,0,1-.216-.105,2.322,2.322,0,0,1-.259-.354c-.072-.128-.144-.271-.223-.444A2.614,2.614,0,0,1,16.072,8.15a1.922,1.922,0,0,1-1.439-.542A1.984,1.984,0,0,1,14.1,6.162a1.979,1.979,0,0,1,.655-1.552,2.543,2.543,0,0,1,1.763-.587,5.45,5.45,0,0,1,.763.06c.266.038.54.1.828.166V3.7a1.721,1.721,0,0,0-.338-1.205A1.606,1.606,0,0,0,16.6,2.147a3.137,3.137,0,0,0-.777.1,5.551,5.551,0,0,0-.777.256,2.007,2.007,0,0,1-.252.1.424.424,0,0,1-.115.023c-.1,0-.151-.075-.151-.233V2.019a.5.5,0,0,1,.05-.264.543.543,0,0,1,.2-.158,4.026,4.026,0,0,1,.907-.339,4.18,4.18,0,0,1,1.123-.143,2.555,2.555,0,0,1,1.886.61,2.564,2.564,0,0,1,.6,1.853v2.44ZM16.382,7.163a2.24,2.24,0,0,0,.741-.136,1.6,1.6,0,0,0,.684-.482,1.215,1.215,0,0,0,.245-.482,2.824,2.824,0,0,0,.072-.655V5.092a5.771,5.771,0,0,0-.662-.128,5.186,5.186,0,0,0-.677-.045,1.606,1.606,0,0,0-1.072.3,1.072,1.072,0,0,0-.353.866,1.08,1.08,0,0,0,.266.8A.973.973,0,0,0,16.382,7.163Zm5.78.813a.389.389,0,0,1-.274-.075.622.622,0,0,1-.151-.294L20.045,1.785a1.372,1.372,0,0,1-.065-.3c0-.121.058-.188.173-.188h.705a.386.386,0,0,1,.281.075.626.626,0,0,1,.144.294l1.209,4.986,1.123-4.986a.537.537,0,0,1,.137-.294A.478.478,0,0,1,24.04,1.3h.576a.419.419,0,0,1,.288.075.516.516,0,0,1,.137.294l1.137,5.046,1.245-5.046a.656.656,0,0,1,.144-.294.454.454,0,0,1,.281-.075h.669a.164.164,0,0,1,.18.188.784.784,0,0,1-.014.121,1.111,1.111,0,0,1-.05.188L26.9,7.615a.585.585,0,0,1-.151.294.445.445,0,0,1-.274.075h-.619a.419.419,0,0,1-.288-.075.544.544,0,0,1-.137-.3L24.313,2.75,23.2,7.6a.6.6,0,0,1-.137.3.431.431,0,0,1-.288.075Zm9.249.2A4.562,4.562,0,0,1,30.3,8.045a3.18,3.18,0,0,1-.828-.3.529.529,0,0,1-.223-.211.553.553,0,0,1-.043-.211V6.937c0-.158.058-.233.166-.233a.391.391,0,0,1,.13.023c.043.015.108.045.18.075a3.791,3.791,0,0,0,.792.264,4.137,4.137,0,0,0,.856.09,1.873,1.873,0,0,0,1.051-.249.821.821,0,0,0,.374-.716.753.753,0,0,0-.194-.527,1.781,1.781,0,0,0-.727-.392l-1.044-.339a2.189,2.189,0,0,1-1.152-.768,1.849,1.849,0,0,1-.36-1.092,1.739,1.739,0,0,1,.194-.836,1.913,1.913,0,0,1,.518-.618,2.247,2.247,0,0,1,.749-.392,3.007,3.007,0,0,1,.907-.128,3.455,3.455,0,0,1,.482.03c.166.023.317.053.468.083s.281.075.41.121a1.535,1.535,0,0,1,.3.136.631.631,0,0,1,.216.188.42.42,0,0,1,.065.249V2.26c0,.158-.058.241-.166.241a.724.724,0,0,1-.273-.09,3.168,3.168,0,0,0-1.382-.294,1.79,1.79,0,0,0-.957.211.736.736,0,0,0-.338.67.728.728,0,0,0,.216.535,2.117,2.117,0,0,0,.792.414l1.022.339a2.18,2.18,0,0,1,1.116.723,1.758,1.758,0,0,1,.331,1.054A1.91,1.91,0,0,1,33.238,7.6a2.283,2.283,0,0,1-.8.422A3.282,3.282,0,0,1,31.41,8.18Z" transform="translate(-13.164 -1.1)" fill="#252f3e"/>
      <g id="Group_42757" data-name="Group 42757" transform="translate(0 7.891)">
        <path id="Path_247558" data-name="Path 247558" d="M21.228,120.993a15.036,15.036,0,0,1-8.764,2.8,15.463,15.463,0,0,1-10.7-4.271c-.223-.211-.022-.5.245-.331a20.841,20.841,0,0,0,10.707,2.975,20.545,20.545,0,0,0,8.167-1.747A.335.335,0,1,1,21.228,120.993Z" transform="translate(-1.668 -118.695)" fill="#f90" fill-rule="evenodd"/>
        <path id="Path_247559" data-name="Path 247559" d="M249.091,114.315c-.316-.407-2.094-.2-2.9-.1-.241.03-.279-.181-.06-.339,1.416-.994,3.743-.708,4.015-.377s-.075,2.666-1.4,3.781c-.2.173-.4.083-.309-.143C248.737,116.394,249.407,114.714,249.091,114.315Z" transform="translate(-228.507 -113.192)" fill="#f90" fill-rule="evenodd"/>
      </g>
    </g>
    <g id="layer1" transform="translate(232 383.22)">
      <g id="layer1-1" transform="translate(0 0)">
        <path id="path21" d="M-13.108,6.489l3.215-.569.03-.006-1.654-1.967c-.91-1.082-1.654-1.971-1.654-1.976s1.708-4.712,1.717-4.729,1.165,2,2.817,4.863L-5.8,7.015l.022.038H-16.293ZM7.047,6.013a1.4,1.4,0,0,1-1.389-1.36,12.164,12.164,0,0,1-.036-1.705l0-1.425h.708l0,1.379c0,1.242,0,1.388.016,1.475a1.307,1.307,0,0,0,.308.764.882.882,0,0,0,.5.26,1.886,1.886,0,0,0,.476,0,1.051,1.051,0,0,0,.539-.293,1.424,1.424,0,0,0,.363-.7l.021-.094,0-1.39,0-1.39h.723V5.91H8.559V5.563a2.627,2.627,0,0,0-.008-.344.285.285,0,0,0-.041.062,1.454,1.454,0,0,1-.554.554,1.554,1.554,0,0,1-.91.178Zm8.12,0a1.876,1.876,0,0,1-.823-.269,2.005,2.005,0,0,1-.9-1.558,3.766,3.766,0,0,1-.009-.794,2.58,2.58,0,0,1,.507-1.267,2.59,2.59,0,0,1,.306-.306,1.908,1.908,0,0,1,.782-.373,2.54,2.54,0,0,1,.634-.037,1.667,1.667,0,0,1,1.124.577,2.206,2.206,0,0,1,.454,1.372c0,.09,0,.247,0,.35l0,.187-1.55,0-1.55,0v.069a1.714,1.714,0,0,0,.14.654,1.439,1.439,0,0,0,.315.461,1.385,1.385,0,0,0,.786.332,3.064,3.064,0,0,0,.513-.02,2.176,2.176,0,0,0,.968-.4l.068-.05a1.307,1.307,0,0,1,.01.323v.329l-.073.045A2.565,2.565,0,0,1,15.823,6a5.963,5.963,0,0,1-.656.01Zm1.349-2.775a1.408,1.408,0,0,0-.359-.946.986.986,0,0,0-.547-.265,1.617,1.617,0,0,0-.425.012,1.11,1.11,0,0,0-.58.308,1.579,1.579,0,0,0-.384.614,1.971,1.971,0,0,0-.074.3l-.005.037h2.373ZM-4.5,5.9l1.169-3.072L-2.169-.234h.749l.031.08C-1.294.089.945,5.9.945,5.906s-.179,0-.4,0h-.4L-.174,5.05-.5,4.191H-3.1l-.011.029c-.006.016-.144.4-.306.859l-.3.83h-.4a2.153,2.153,0,0,1-.4-.01Zm3.77-2.365s-.217-.59-.483-1.309A11.021,11.021,0,0,1-1.781.586c-.018-.1-.028-.1-.039-.012a2.145,2.145,0,0,1-.068.3c-.013.041-.237.654-.5,1.364s-.473,1.293-.473,1.3.478.007,1.062.007,1.062,0,1.062,0ZM1.187,5.8V5.686l1.295-1.78,1.295-1.78-1.172,0-1.172,0,0-.3,0-.3H4.819v.2L3.524,3.514C2.811,4.5,2.229,5.3,2.229,5.307s.576,0,1.279,0H4.787v.6h-3.6Zm9.5.107s-.005-.99-.005-2.193V1.523h.708v.451c0,.248,0,.451.007.451a.4.4,0,0,0,.038-.09,1.559,1.559,0,0,1,.4-.609,1.025,1.025,0,0,1,.559-.278,1.158,1.158,0,0,1,.233-.008,1.033,1.033,0,0,1,.325.045l.029.01v.735l-.084-.042a.893.893,0,0,0-.469-.094.848.848,0,0,0-.28.055.886.886,0,0,0-.446.364,2.116,2.116,0,0,0-.3.851c-.006.052-.009.476-.011,1.312l0,1.235h-.349C10.85,5.91,10.691,5.907,10.688,5.9Zm-30.1-.015s.779-1.355,1.732-3.006l1.732-3,2.018-1.693c1.11-.931,2.021-1.695,2.025-1.7a.355.355,0,0,1-.032.082l-2.191,4.7L-16.285,5.89l-1.565,0c-.861,0-1.565,0-1.565,0Z" transform="translate(19.415 3.507)" fill="#0089d6"/>
      </g>
    </g>
    <path id="Line_938" data-name="Line 938" d="M94.1.25H0v-.5H94.1Z" transform="translate(325.007 342.617)"/>
    <path id="Line_940" data-name="Line 940" d="M.25,140h-.5V0h.5Z" transform="translate(372 366)"/>
    <path id="Line_918" data-name="Line 918" d="M194,.25H0v-.5H194Z" transform="translate(225 412)"/>
  </g>
</svg>
