<svg xmlns="http://www.w3.org/2000/svg" width="173.947" height="34.628" viewBox="0 0 173.947 34.628">
  <g id="Final-Icon-Logo-01" transform="translate(-3.28 -3.51)">
    <g id="Group_13635" data-name="Group 13635" transform="translate(3.28 3.857)">
      <path id="Path_233137" data-name="Path 233137" d="M8.926,39.529a3.688,3.688,0,0,1-.407,2.237,3.053,3.053,0,0,1-2.39.916,3.1,3.1,0,0,1-2.442-.916,3.691,3.691,0,0,1-.407-2.237V11.912c0-1.679.815-2.442,2.7-2.442H18.64a3.124,3.124,0,0,1,1.983.457,2.274,2.274,0,0,1,.864,2.035,2.381,2.381,0,0,1-.864,2.086,3.111,3.111,0,0,1-1.983.407H8.926v8.7h8.188a3.125,3.125,0,0,1,1.983.457,2.274,2.274,0,0,1,.864,2.035,2.381,2.381,0,0,1-.864,2.086,3.111,3.111,0,0,1-1.983.407H8.926Z" transform="translate(-3.28 -8.757)" fill="#fff"/>
      <path id="Path_233138" data-name="Path 233138" d="M134.486,37.884a3.865,3.865,0,0,1-.407,2.289,2.893,2.893,0,0,1-2.39.864,2.951,2.951,0,0,1-2.442-.864,3.864,3.864,0,0,1-.407-2.289V10.572a3.688,3.688,0,0,1,.407-2.237,2.941,2.941,0,0,1,2.442-.864,2.9,2.9,0,0,1,2.39.864,3.691,3.691,0,0,1,.407,2.237Z" transform="translate(-106.51 -7.113)" fill="#fff"/>
      <path id="Path_233139" data-name="Path 233139" d="M379.9,34.706a12.537,12.537,0,0,0,4.78-.966c1.983-.815,2.8-1.627,3.763-1.627,1.425,0,2.237,1.679,2.237,2.746s-.814,1.882-2.035,2.645a17.578,17.578,0,0,1-8.849,2.187c-8.849,0-16.733-5.8-16.733-17.293S371,5.46,379.793,5.46a17.413,17.413,0,0,1,8.849,2.187c1.323.815,2.035,1.577,2.035,2.644s-.814,2.849-2.237,2.849c-.966,0-1.933-.815-3.916-1.627a12.163,12.163,0,0,0-4.933-1.069c-5.341,0-10.733,3.306-10.733,11.8S374.25,34.706,379.9,34.706Z" transform="translate(-299.076 -5.46)" fill="#fff"/>
      <path id="Path_233140" data-name="Path 233140" d="M559.125,35.74a3.125,3.125,0,0,1,1.983.457,2.275,2.275,0,0,1,.864,2.035,2.382,2.382,0,0,1-.864,2.086,3.111,3.111,0,0,1-1.983.407H545.646c-2.086,0-2.7-.864-2.7-2.7V10.563a3.526,3.526,0,0,1,.407-2.187A3.1,3.1,0,0,1,545.8,7.46a3.051,3.051,0,0,1,2.39.916,3.525,3.525,0,0,1,.407,2.187V35.74Z" transform="translate(-446.975 -7.104)" fill="#fff"/>
      <path id="Path_233141" data-name="Path 233141" d="M682.085,34.02c1.78-2.187,1.78-5.035,1.78-7.222V10.572a3.689,3.689,0,0,1,.407-2.237,3.737,3.737,0,0,1,4.781,0,3.69,3.69,0,0,1,.407,2.237V26.44c0,3.2,0,7.375-3,10.783-2.237,2.595-5.8,4.17-11.19,4.17-5.7,0-9.054-1.729-11.19-4.17-3-3.407-3-7.171-3-10.783V10.572a3.688,3.688,0,0,1,.407-2.237,2.941,2.941,0,0,1,2.442-.864,2.9,2.9,0,0,1,2.39.864,3.69,3.69,0,0,1,.407,2.237V26.8c0,2.187,0,5.035,1.78,7.222,1.425,1.679,3.713,2.593,6.815,2.593S680.66,35.7,682.085,34.02Z" transform="translate(-544.096 -7.113)" fill="#fff"/>
      <path id="Path_233142" data-name="Path 233142" d="M875.878,39.6a21.178,21.178,0,0,1-8.6,1.425,22.527,22.527,0,0,1-5.392-.509c-2.237-.61-2.34-1.882-2.34-3.56V11.173c0-1.933.61-2.9,2.951-3.358a31.55,31.55,0,0,1,5.187-.356c6.306,0,11.545,2.035,11.545,7.884a7.847,7.847,0,0,1-4.985,7.375s6.968,1.373,6.968,8.647A8.606,8.606,0,0,1,875.878,39.6ZM865.045,20.837h1.323c1.424,0,3.713,0,5.392-1.323a4.115,4.115,0,0,0,1.679-3.358c0-3.052-2.9-4.121-5.9-4.121-1.119,0-2.492.153-2.492.153v8.648Zm0,15.513a14.426,14.426,0,0,0,2.39.153c5.035,0,7.985-1.526,7.985-5.341a5.052,5.052,0,0,0-2.849-4.78,13.2,13.2,0,0,0-6.358-1.119h-1.17V36.35Z" transform="translate(-707.27 -7.104)" fill="#fff"/>
    </g>
    <path id="Path_233143" data-name="Path 233143" d="M205,3.51h0A12.627,12.627,0,0,0,192.37,16.137V38.011h9.07V22.183h-4.179L205,10.446l7.736,11.738h-4.179V38.011h9.07V16.137A12.626,12.626,0,0,0,205,3.51Z" transform="translate(-155.462 0)" fill="#699f38"/>
  </g>
</svg>
