<svg xmlns="http://www.w3.org/2000/svg" width="368.819" height="227.248" viewBox="0 0 368.819 227.248">
  <g id="Group_1117" data-name="Group 1117" transform="translate(-740 -539.99)">
    <g id="Group_1112" data-name="Group 1112" transform="translate(-726.478 -3963.912)">
      <line id="Line_942" data-name="Line 942" x2="361" transform="translate(1466.488 4511)" fill="none" stroke="#000" stroke-width="0.3"/>
    </g>
    <g id="Group_1113" data-name="Group 1113" transform="translate(-726.478 -3908.912)">
      <line id="Line_942-2" data-name="Line 942" x2="361" transform="translate(1466.488 4511)" fill="none" stroke="#000" stroke-width="0.3"/>
    </g>
    <g id="Group_1114" data-name="Group 1114" transform="translate(-726.478 -3853.912)">
      <line id="Line_942-3" data-name="Line 942" x2="361" transform="translate(1466.488 4511)" fill="none" stroke="#000" stroke-width="0.3"/>
    </g>
    <g id="Group_1115" data-name="Group 1115" transform="translate(-726.478 -3798.912)">
      <line id="Line_942-4" data-name="Line 942" x2="361" transform="translate(1466.488 4511)" fill="none" stroke="#000" stroke-width="0.3"/>
    </g>
    <g id="Group_1116" data-name="Group 1116" transform="translate(-726.478 -3743.912)">
      <line id="Line_942-5" data-name="Line 942" x2="361" transform="translate(1466.488 4511)" fill="none" stroke="#000" stroke-width="0.3"/>
    </g>
    <g id="Group_42889" data-name="Group 42889" transform="translate(740.01 540)">
      <path id="Path_248136" data-name="Path 248136" d="M1.957,192.858c62.457-72.2,102.763,32.519,188.071-26.718,68.419-47.53,97.961,2.753,173.374-45.56" transform="translate(0.461 28.424)" fill="none" stroke="#000" stroke-width="0.3"/>
      <path id="Path_248137" data-name="Path 248137" d="M8.049,169.277a7.973,7.973,0,1,1-7.936,8.01,7.973,7.973,0,0,1,7.936-8.01" transform="translate(0.027 39.903)" fill="#babcbe" stroke="#000" stroke-width="0.3" fill-rule="evenodd"/>
      <path id="Path_248138" data-name="Path 248138" d="M8.049,169.277a7.973,7.973,0,1,1-7.936,8.01,7.973,7.973,0,0,1,7.936-8.01Z" transform="translate(0.027 39.903)" fill="none" stroke="#000" stroke-width="0.3"/>
      <path id="Path_248139" data-name="Path 248139" d="M192.03,134.566a7.973,7.973,0,1,1-7.973,7.973,7.973,7.973,0,0,1,7.973-7.973" transform="translate(43.396 31.721)" fill="#babcbe" stroke="#000" stroke-width="0.3" fill-rule="evenodd"/>
      <path id="Path_248140" data-name="Path 248140" d="M192.03,134.566a7.973,7.973,0,1,1-7.973,7.973,7.973,7.973,0,0,1,7.973-7.973Z" transform="translate(43.396 31.721)" fill="none" stroke="#000" stroke-width="0.3"/>
      <path id="Path_248141" data-name="Path 248141" d="M116.445,166.291a7.908,7.908,0,1,1-5.623,2.314,7.931,7.931,0,0,1,5.623-2.314" transform="translate(25.577 39.199)" fill="#babcbe" stroke="#000" stroke-width="0.3" fill-rule="evenodd"/>
      <path id="Path_248142" data-name="Path 248142" d="M116.445,166.291a7.908,7.908,0,1,1-5.623,2.314,7.931,7.931,0,0,1,5.623-2.314Z" transform="translate(25.577 39.199)" fill="none" stroke="#000" stroke-width="0.3"/>
      <path id="Path_248143" data-name="Path 248143" d="M293.429,114.158a7.937,7.937,0,1,1-7.941,7.936,7.937,7.937,0,0,1,7.941-7.936" transform="translate(67.297 26.91)" fill="#babcbe" stroke="#000" stroke-width="0.3" fill-rule="evenodd"/>
      <path id="Path_248144" data-name="Path 248144" d="M293.429,114.158a7.937,7.937,0,1,1-7.941,7.936A7.937,7.937,0,0,1,293.429,114.158Z" transform="translate(67.297 26.91)" fill="none" stroke="#000" stroke-width="0.3"/>
      <path id="Path_248145" data-name="Path 248145" d="M1.957,123.66C85.619,189.726,182.33,218.16,288.539,6.527" transform="translate(0.461 1.539)" fill="none" stroke="#000" stroke-width="0.3"/>
      <path id="Path_248146" data-name="Path 248146" d="M8.049,97.691a7.91,7.91,0,1,1-5.619,2.317,7.975,7.975,0,0,1,5.619-2.317" transform="translate(0.027 23.028)" fill="#babcbe" stroke="#000" stroke-width="0.3" fill-rule="evenodd"/>
      <path id="Path_248147" data-name="Path 248147" d="M8.049,97.691a7.91,7.91,0,1,1-5.619,2.317,7.975,7.975,0,0,1,5.619-2.317Z" transform="translate(0.027 23.028)" fill="none" stroke="#000" stroke-width="0.3"/>
      <path id="Path_248148" data-name="Path 248148" d="M111.18,132.086a7.973,7.973,0,1,1-7.973,7.973,7.973,7.973,0,0,1,7.973-7.973" transform="translate(24.32 31.137)" fill="#babcbe" stroke="#000" stroke-width="0.3" fill-rule="evenodd"/>
      <path id="Path_248149" data-name="Path 248149" d="M111.18,132.086a7.973,7.973,0,1,1-7.973,7.973,7.973,7.973,0,0,1,7.973-7.973Z" transform="translate(24.32 31.137)" fill="none" stroke="#000" stroke-width="0.3"/>
      <path id="Path_248150" data-name="Path 248150" d="M235.384.113a7.912,7.912,0,1,1-5.612,2.316A7.932,7.932,0,0,1,235.384.113" transform="translate(53.617 0.027)" fill="#babcbe" stroke="#000" stroke-width="0.3" fill-rule="evenodd"/>
      <path id="Path_248151" data-name="Path 248151" d="M235.384.113a7.912,7.912,0,1,1-5.612,2.316A7.932,7.932,0,0,1,235.384.113Z" transform="translate(53.617 0.027)" fill="none" stroke="#000" stroke-width="0.3"/>
    </g>
  </g>
</svg>
