<svg xmlns="http://www.w3.org/2000/svg" width="22.782" height="28.735" viewBox="0 0 22.782 28.735">
  <g id="noun-innovation-7778372" transform="translate(-18.1 -9.698)">
    <path id="Path_248123" data-name="Path 248123" d="M36.634,19.473h-.668a6.953,6.953,0,0,0-.692-1.671l.472-.472a.955.955,0,0,0,0-1.347l-1.209-1.209a.954.954,0,0,0-1.349,0l-.472.472a6.928,6.928,0,0,0-1.671-.692v-.668a.954.954,0,0,0-.953-.953H28.384a.954.954,0,0,0-.953.953v.668a6.953,6.953,0,0,0-1.671.692l-.472-.472a.954.954,0,0,0-1.349,0l-1.209,1.209a.954.954,0,0,0,0,1.349l.472.472a6.928,6.928,0,0,0-.692,1.671H22.5l-.972-.42a.2.2,0,0,0-.028-.006c-.01,0-.017-.01-.026-.012a.389.389,0,0,0-.04,0,.371.371,0,0,0-.068,0,.247.247,0,0,0-.064.012.308.308,0,0,0-.059.022.378.378,0,0,0-.1.077.306.306,0,0,0-.039.055.261.261,0,0,0-.022.032.244.244,0,0,0-.006.028c0,.01-.01.017-.012.026a8.678,8.678,0,0,0,.315,5.1,9.858,9.858,0,0,0,1.784,2.874,7.748,7.748,0,0,1,2.083,4.535,1.4,1.4,0,0,0,.516,2.387,1.406,1.406,0,0,0,.838,2.177,2.325,2.325,0,0,0,2.447,1.928h.072a2.449,2.449,0,0,0,2.592-1.932,1.405,1.405,0,0,0,.827-2.174,1.4,1.4,0,0,0,.5-2.4,8.049,8.049,0,0,1,2.188-4.56c.35-.426.711-.866,1.044-1.361,0-.007,0-.014.008-.019s.017-.022.022-.035a.151.151,0,0,0,.007-.036.284.284,0,0,0,.014-.066.326.326,0,0,0,0-.064.247.247,0,0,0-.012-.064.313.313,0,0,0-.024-.059.308.308,0,0,0-.083-.1c-.01-.008-.015-.019-.026-.026s-.019-.007-.029-.012-.015-.014-.026-.018l-.94-.405a8.061,8.061,0,0,0,.791-1.857h.664a.954.954,0,0,0,.953-.953V20.427a.954.954,0,0,0-.953-.953ZM29.059,37.6a1.7,1.7,0,0,1-1.768-1.209H31A1.842,1.842,0,0,1,29.058,37.6Zm2.318-1.889H26.917a.733.733,0,1,1,0-1.466h4.459a.733.733,0,1,1,0,1.466Zm.734-2.145H26.182a.733.733,0,1,1,0-1.466h5.929a.733.733,0,1,1,0,1.466ZM34.7,26.782a8.769,8.769,0,0,0-2.3,4.668,1.373,1.373,0,0,0-.285-.029H26.182a1.4,1.4,0,0,0-.3.033,8.454,8.454,0,0,0-2.2-4.629,9.15,9.15,0,0,1-1.676-2.683,8.01,8.01,0,0,1-.373-4.3l.656.284h0L35.46,25.808c-.249.339-.506.664-.761.975Zm-3.408-3.516L26.3,21.113a2.8,2.8,0,0,1,.772-1.472,2.789,2.789,0,0,1,4.218,3.625Zm5.618-1.131a.274.274,0,0,1-.274.274h-.928c-.011,0-.019.006-.029.006a.281.281,0,0,0-.068.014.313.313,0,0,0-.059.024.333.333,0,0,0-.054.036.356.356,0,0,0-.047.044.352.352,0,0,0-.036.053.356.356,0,0,0-.028.062c0,.01-.01.017-.012.028a7.1,7.1,0,0,1-.823,2l-2.628-1.134a3.467,3.467,0,1,0-6.26-2.7l-2.526-1.09a6.231,6.231,0,0,1,.775-1.823c.006-.008.006-.019.011-.028a.357.357,0,0,0,.025-.064.331.331,0,0,0,.012-.062.483.483,0,0,0,0-.064.324.324,0,0,0-.012-.064.431.431,0,0,0-.025-.058.309.309,0,0,0-.037-.057c-.007-.008-.01-.018-.017-.025l-.656-.656a.275.275,0,0,1,0-.387l1.209-1.209a.275.275,0,0,1,.387,0l.656.656,0,0a.328.328,0,0,0,.1.065l.025.01a.359.359,0,0,0,.113.022.324.324,0,0,0,.113-.022.2.2,0,0,0,.03-.014c.012-.006.025-.01.037-.017a6.245,6.245,0,0,1,1.961-.812c.01,0,.018-.01.028-.012a.316.316,0,0,0,.062-.028.353.353,0,0,0,.053-.036.287.287,0,0,0,.044-.047.282.282,0,0,0,.036-.054.443.443,0,0,0,.024-.059.368.368,0,0,0,.014-.068.214.214,0,0,0,.006-.029v-.928a.274.274,0,0,1,.274-.274h1.709a.274.274,0,0,1,.274.274v.928c0,.011.006.019.006.029a.368.368,0,0,0,.014.068.313.313,0,0,0,.024.059.333.333,0,0,0,.036.054.356.356,0,0,0,.044.047.352.352,0,0,0,.053.036.316.316,0,0,0,.062.028c.01,0,.017.01.028.012a6.212,6.212,0,0,1,1.961.812.3.3,0,0,0,.037.017l.03.014a.324.324,0,0,0,.113.022.352.352,0,0,0,.113-.022l.025-.01a.357.357,0,0,0,.1-.065l0,0,.656-.656a.275.275,0,0,1,.387,0l1.209,1.209a.277.277,0,0,1,0,.387l-.656.656c-.007.007-.01.017-.017.025a.251.251,0,0,0-.037.057.306.306,0,0,0-.025.058.323.323,0,0,0-.012.064.256.256,0,0,0,0,.065.331.331,0,0,0,.012.062.276.276,0,0,0,.025.064.165.165,0,0,0,.011.028,6.245,6.245,0,0,1,.812,1.961.317.317,0,0,0,.014.032.28.28,0,0,0,.019.047.375.375,0,0,0,.041.062.248.248,0,0,0,.032.035.347.347,0,0,0,.066.044.229.229,0,0,0,.036.019.337.337,0,0,0,.123.025h.928a.274.274,0,0,1,.274.274v1.709ZM22.5,12.435A.34.34,0,1,1,23.017,12l.741.876a.34.34,0,0,1-.26.559.342.342,0,0,1-.26-.12l-.741-.876ZM20.286,17.88a.34.34,0,0,1-.317.216.331.331,0,0,1-.124-.024l-1.068-.419a.339.339,0,0,1,.248-.632l1.068.419a.339.339,0,0,1,.192.44Zm-.207,5.775a.34.34,0,0,1-.34.34H18.59a.34.34,0,0,1,0-.68h1.148A.34.34,0,0,1,20.078,23.654Zm8.873-12.318V10.189a.34.34,0,1,1,.68,0v1.148a.34.34,0,1,1-.68,0Zm6.314,2.005a.339.339,0,0,1-.04-.479l.741-.876a.34.34,0,1,1,.519.438l-.741.876a.341.341,0,0,1-.48.04Zm3.75,4.744a.34.34,0,0,1-.124-.656l1.068-.419a.339.339,0,0,1,.248.632l-1.068.419a.326.326,0,0,1-.124.024Zm1.718,5.56a.34.34,0,0,1-.34.34H39.244a.34.34,0,1,1,0-.68h1.148A.34.34,0,0,1,40.732,23.646Z" stroke="#000" stroke-width="0.3"/>
  </g>
</svg>
