<svg xmlns="http://www.w3.org/2000/svg" width="19.508" height="21.423" viewBox="0 0 19.508 21.423">
  <g id="noun-location-3009465" transform="translate(-27.87 -60.558)">
    <g id="Group_42858" data-name="Group 42858" transform="translate(28.02 60.708)">
      <g id="Group_42857" data-name="Group 42857" transform="translate(0 0)">
        <g id="Group_42852" data-name="Group 42852" transform="translate(2.717 4.801)">
          <path id="Path_248106" data-name="Path 248106" d="M145.06,165.916h-16.1a.2.2,0,0,1-.2-.2V154.392a.2.2,0,0,1,.347-.124c.2.245.4.486.6.72.371.445.724.869,1.025,1.257.307-.4.67-.833,1.051-1.291.677-.814,1.445-1.736,2.054-2.637A6.391,6.391,0,0,0,135,149.763a.2.2,0,0,1,.194-.169h9.865a.2.2,0,0,1,.2.2V165.72A.2.2,0,0,1,145.06,165.916Zm-15.9-.391h15.708V149.986h-9.5a7.149,7.149,0,0,1-1.2,2.551c-.62.918-1.394,1.848-2.078,2.668-.444.533-.864,1.037-1.194,1.48a.2.2,0,0,1-.157.079h0a.2.2,0,0,1-.157-.078c-.325-.434-.735-.926-1.169-1.447l-.251-.3v10.588Z" transform="translate(-128.765 -149.594)" stroke="#000" stroke-width="0.3"/>
        </g>
        <g id="Group_42853" data-name="Group 42853" transform="translate(11.588 13.581)">
          <path id="Path_248107" data-name="Path 248107" d="M300.432,319.7h-1.646a.2.2,0,0,1-.138-.057l-5.582-5.52a.2.2,0,0,1,0-.278l1.647-1.63a.2.2,0,0,1,.275,0l5.581,5.521a.2.2,0,0,1,.058.139V319.5A.2.2,0,0,1,300.432,319.7Zm-1.566-.391h1.37v-1.352l-5.385-5.327-1.369,1.355Z" transform="translate(-293.008 -312.155)" stroke="#000" stroke-width="0.3"/>
        </g>
        <g id="Group_42854" data-name="Group 42854" transform="translate(2.717 4.801)">
          <path id="Path_248108" data-name="Path 248108" d="M132.254,165.916H128.96a.2.2,0,0,1-.138-.335l16.1-15.93a.2.2,0,0,1,.333.139v3.259a.2.2,0,0,1-.058.139L132.391,165.86A.2.2,0,0,1,132.254,165.916Zm-2.817-.391h2.737l12.691-12.557v-2.708Z" transform="translate(-128.764 -149.594)" stroke="#000" stroke-width="0.3"/>
        </g>
        <g id="Group_42855" data-name="Group 42855">
          <path id="Path_248109" data-name="Path 248109" d="M83.145,72.679a.2.2,0,0,1-.157-.079c-.331-.443-.751-.947-1.2-1.48a32.066,32.066,0,0,1-2.216-2.874,8.894,8.894,0,0,1-.8-1.476,3.821,3.821,0,0,1-.319-1.424,4.568,4.568,0,0,1,.369-1.806,4.62,4.62,0,0,1,1-1.474,4.71,4.71,0,0,1,6.623,0,4.621,4.621,0,0,1,1,1.474,4.571,4.571,0,0,1,.368,1.806,3.818,3.818,0,0,1-.318,1.422,8.882,8.882,0,0,1-.8,1.475A32.041,32.041,0,0,1,84.5,71.114c-.446.535-.867,1.041-1.2,1.486a.2.2,0,0,1-.157.079Zm0-11.579a4.275,4.275,0,0,0-4.294,4.247A5.258,5.258,0,0,0,79.9,68.032a31.789,31.789,0,0,0,2.189,2.837c.381.457.744.893,1.051,1.29.308-.4.672-.837,1.055-1.3a31.771,31.771,0,0,0,2.185-2.834,5.254,5.254,0,0,0,1.052-2.683A4.274,4.274,0,0,0,83.145,61.1Z" transform="translate(-78.459 -60.708)" stroke="#000" stroke-width="0.3"/>
        </g>
        <g id="Group_42856" data-name="Group 42856" transform="translate(2.618 2.59)">
          <path id="Path_248110" data-name="Path 248110" d="M129,112.76a2.073,2.073,0,0,1-1.461-.6,2.037,2.037,0,0,1-.443-.65,2.032,2.032,0,0,1,0-1.594,2.039,2.039,0,0,1,.443-.651,2.075,2.075,0,0,1,2.92,0,2.034,2.034,0,0,1,.6,1.448,2.03,2.03,0,0,1-.6,1.446,2.066,2.066,0,0,1-1.459.6Zm0-3.7a1.655,1.655,0,1,0,1.672,1.656A1.668,1.668,0,0,0,129,109.059Z" transform="translate(-126.931 -108.667)" stroke="#000" stroke-width="0.3"/>
        </g>
      </g>
    </g>
  </g>
</svg>
