<svg xmlns="http://www.w3.org/2000/svg" width="146.719" height="53.389" viewBox="0 0 146.719 53.389">
  <g id="Logo_1_" data-name="Logo (1)" transform="translate(-0.178 -0.828)">
    <g id="Group_13636" data-name="Group 13636">
      <path id="Path_42" data-name="Path 42" d="M9.511,118.8q-4.771,0-7.063-2.269-2.27-2.287-2.27-7.058V99.862q0-4.809,2.291-7.058,2.291-2.269,7.042-2.228h5q4.791,0,7.063,2.269t2.27,7.058v9.573q0,4.768-2.27,7.058Q19.3,118.8,14.511,118.8Zm0-3.5h5a9.485,9.485,0,0,0,3.5-.52,3.234,3.234,0,0,0,1.792-1.812,9.138,9.138,0,0,0,.542-3.5V99.9a9.067,9.067,0,0,0-.542-3.476,3.234,3.234,0,0,0-1.792-1.812,9.153,9.153,0,0,0-3.5-.541h-5a9.177,9.177,0,0,0-3.479.5A3.234,3.234,0,0,0,4.22,96.365a9.138,9.138,0,0,0-.542,3.5v9.615a9.468,9.468,0,0,0,.521,3.5,3.313,3.313,0,0,0,1.813,1.812,9.483,9.483,0,0,0,3.5.525Z" transform="translate(0 -64.988)" fill="#fff"/>
      <path id="Path_43" data-name="Path 43" d="M110.837,118.726q-1.083,0-1.709-1.374L98.836,92.991A2,2,0,0,1,98.67,91.7a1.866,1.866,0,0,1,3.375-.083l9.729,23.027h-1.207l9.479-23.027a1.546,1.546,0,0,1,2.414-.878,1.613,1.613,0,0,1,.9.958,1.854,1.854,0,0,1-.11,1.291l-10.374,24.361A2.032,2.032,0,0,1,111,118.723Z" transform="translate(-71.285 -64.906)" fill="#fff"/>
      <path id="Path_44" data-name="Path 44" d="M209.509,118.919a1.546,1.546,0,0,1-1.75-1.749V94.228h-8.083a1.756,1.756,0,1,1,0-3.5h19.667a1.756,1.756,0,1,1,0,3.5h-8.083v22.943a1.745,1.745,0,0,1-.459,1.29A1.705,1.705,0,0,1,209.509,118.919Z" transform="translate(-143.192 -65.1)" fill="#fff"/>
      <path id="Path_45" data-name="Path 45" d="M303.752,118.81a1.546,1.546,0,0,1-1.75-1.748V92.327a1.75,1.75,0,0,1,3.5,0v22.985h11.541a1.749,1.749,0,1,1,0,3.5Z" transform="translate(-218.55 -64.988)" fill="#fff"/>
      <path id="Path_46" data-name="Path 46" d="M368.127,118.757a1.546,1.546,0,0,1-1.75-1.749v-8.495l-9.547-15.2a1.638,1.638,0,0,1,.542-2.457,1.56,1.56,0,0,1,2.414.541l8.333,13.366,8.75-13.366a1.658,1.658,0,0,1,1.062-.812,1.589,1.589,0,0,1,1.317.354,1.481,1.481,0,0,1,.542,2.374l-9.917,15.2v8.495a1.546,1.546,0,0,1-1.747,1.749Z" transform="translate(-258.013 -64.938)" fill="#fff"/>
      <path id="Path_47" data-name="Path 47" d="M479.738,118.9a1.616,1.616,0,0,1-1.317.271,1.832,1.832,0,0,1-1.062-.854L470.9,107.571h-5.829v9.494a1.75,1.75,0,1,1-3.5,0V92.331a1.546,1.546,0,0,1,1.75-1.749h9.75a7.121,7.121,0,0,1,7.875,7.87V99.7a8.373,8.373,0,0,1-1.536,5.288,6.826,6.826,0,0,1-4.458,2.436l5.458,9.1a1.6,1.6,0,0,1-.672,2.374Zm-14.666-14.823h8a3.688,3.688,0,0,0,4.375-4.372v-1.25a3.706,3.706,0,0,0-4.375-4.372h-8Z" transform="translate(-334.094 -64.992)" fill="#fff"/>
    </g>
    <path id="Path_48" data-name="Path 48" d="M159.151,22.137a1.627,1.627,0,0,1-1.506-1.008,27.365,27.365,0,0,0-50.664,0,1.627,1.627,0,0,1-3.009-1.238,30.619,30.619,0,0,1,56.682,0,1.627,1.627,0,0,1-1.5,2.246Z" transform="translate(-75.07)" fill="#4285f4"/>
  </g>
</svg>
