<svg xmlns="http://www.w3.org/2000/svg" width="23.027" height="20.329" viewBox="0 0 23.027 20.329">
  <g id="noun-code-8092156" transform="translate(-4.537 -9.916)">
    <path id="Path_248126" data-name="Path 248126" d="M24.73,10.066H7.371A2.687,2.687,0,0,0,4.687,12.75V23.065A2.688,2.688,0,0,0,7.371,25.75h4.853l-.017,3.17H10.282a.588.588,0,0,0,0,1.176H21.82a.588.588,0,0,0,0-1.176H19.9V25.75H24.73a2.688,2.688,0,0,0,2.684-2.684V12.75a2.687,2.687,0,0,0-2.684-2.684ZM18.72,28.92H13.384l.017-3.17H18.72Zm7.518-5.854a1.51,1.51,0,0,1-1.509,1.509H7.371a1.511,1.511,0,0,1-1.509-1.509V12.75a1.511,1.511,0,0,1,1.509-1.509H24.73a1.511,1.511,0,0,1,1.509,1.509Zm-5.262-5.1a.588.588,0,0,1,0,.832l-1.7,1.7h0a.587.587,0,0,1-.831-.831l1.287-1.286-1.287-1.286h0a.588.588,0,1,1,.831-.832Zm-7.318-.871-1.287,1.286,1.287,1.286h0a.587.587,0,0,1-.831.831l-1.7-1.7h0a.588.588,0,0,1,0-.832l1.7-1.7a.588.588,0,0,1,.831.832Zm3.513-.115-1.156,3.2a.588.588,0,1,1-1.106-.4l1.156-3.2h0a.588.588,0,1,1,1.106.4Z" stroke="#e0d9c8" stroke-width="0.3"/>
  </g>
</svg>
