<svg xmlns="http://www.w3.org/2000/svg" xmlns:xlink="http://www.w3.org/1999/xlink" width="33.302" height="30.011" viewBox="0 0 33.302 30.011">
  <defs>
    <linearGradient id="linear-gradient" x1="0.5" x2="0.5" y2="1" gradientUnits="objectBoundingBox">
      <stop offset="0" stop-color="#ad1123"/>
      <stop offset="1"/>
    </linearGradient>
  </defs>
  <path id="Analytics" d="M108.1-789.989l-1.742-1.742,10.834-10.86,5.786,5.786,8.555-8.555,1.768,1.768-10.323,10.3-5.786-5.786Zm-5.112-1.907a2.885,2.885,0,0,1-2.121-.868,2.885,2.885,0,0,1-.868-2.121v-22.127a2.885,2.885,0,0,1,.868-2.121,2.885,2.885,0,0,1,2.121-.868h22.127a2.885,2.885,0,0,1,2.121.868,2.885,2.885,0,0,1,.868,2.121v6.943H102.48v15.184a.485.485,0,0,0,.159.35.486.486,0,0,0,.35.159Zm-.509-20.652h23.144v-4.464a.486.486,0,0,0-.159-.35.485.485,0,0,0-.35-.159H102.989a.486.486,0,0,0-.35.159.486.486,0,0,0-.159.35Zm0,0v0Z" transform="translate(-100 820)" fill="url(#linear-gradient)"/>
</svg>
