<svg xmlns="http://www.w3.org/2000/svg" xmlns:xlink="http://www.w3.org/1999/xlink" width="33.064" height="31.33" viewBox="0 0 33.064 31.33">
  <defs>
    <linearGradient id="linear-gradient" x1="0.231" y1="-0.096" x2="1" y2="1.217" gradientUnits="objectBoundingBox">
      <stop offset="0" stop-color="#ad1123"/>
      <stop offset="1"/>
    </linearGradient>
  </defs>
  <g id="Impressions" transform="translate(-1161.285 -3129.798)">
    <path id="Path_248819" data-name="Path 248819" d="M91.243,62.7v6.118c.343-.2.688-.394,1.031-.593a2.84,2.84,0,0,0-4.47,2.494,2.921,2.921,0,0,0,.8,1.815V71.56c-.312.312-.62.623-.932.935q-1.12,1.12-2.24,2.244-1.346,1.351-2.7,2.7-1.171,1.177-2.343,2.35c-.377.38-.778.747-1.137,1.141,0,.007-.01.01-.017.017h.969a2.852,2.852,0,0,0-2.261-.86,2.978,2.978,0,0,0-1.2.367,2.845,2.845,0,0,0-.507.373,2.186,2.186,0,0,0-.178.178c-.027.031-.055.065-.082.1l-.106.137c-.055.072-.041.055.045-.058.277-.034.555-.072.829-.106l-1.771-1.367q-1.4-1.084-2.805-2.165c-.216-.164-.432-.332-.647-.5.082.312.164.623.247.939a3.218,3.218,0,0,0,.486-1.322A2.738,2.738,0,0,0,72.14,75.5a2.863,2.863,0,0,0-1.5-1.7,2.93,2.93,0,0,0-2.456.017,2.85,2.85,0,0,0-1.473,1.723,2.883,2.883,0,0,0,.7,2.829V77.4l-2.319,2.483c-.113.12-.223.24-.336.36h.969a2.869,2.869,0,0,0-3.593-.267c.339.206.682.4,1.024.6V64.895c0-.719.031-1.445,0-2.165V62.7l-.685.685H90.729c.38,0,.764.007,1.144,0h.051a.685.685,0,1,0,0-1.37H63.666c-.38,0-.764-.007-1.144,0h-.051a.7.7,0,0,0-.685.685V78.38c0,.723-.017,1.445,0,2.165v.031a.691.691,0,0,0,1.031.593,2.407,2.407,0,0,1,.3-.185c.021-.01.178-.075.092-.045s.079-.024.1-.031a1.685,1.685,0,0,1,.188-.048c.041-.01.192-.062.038-.01a1.146,1.146,0,0,1,.343-.01.783.783,0,0,1,.086.007c.051.007.038,0-.045-.007a.667.667,0,0,1,.161.031,1.436,1.436,0,0,1,.312.1c-.147-.075,0,0,.031.021s.092.051.14.079c.017.01.182.127.106.069s.079.072.092.082a.7.7,0,0,0,.969,0l2.319-2.483c.113-.12.223-.24.336-.36a.7.7,0,0,0,0-.969c-.031-.031-.062-.065-.089-.1s-.086-.106-.031-.034-.038-.055-.038-.062c-.021-.031-.038-.058-.055-.089a.624.624,0,0,1-.1-.188c.017.134.017.041,0-.01s-.034-.1-.048-.154a1,1,0,0,1-.051-.24c0,.024.01.151,0,.017,0-.038,0-.075-.007-.113a1.662,1.662,0,0,1,.007-.226c.01-.137-.027,0-.007.017-.01-.01.017-.1.021-.116.014-.069.031-.134.051-.2.01-.031.021-.058.031-.086.038-.127-.017.038-.017.038-.007-.038.082-.168.1-.2.038-.065.079-.127.12-.188.058-.086-.027.027-.024.031a.479.479,0,0,1,.058-.069,1.864,1.864,0,0,1,.14-.144c.027-.024.055-.048.082-.075.075-.069-.031.01-.034.024.007-.038.151-.1.188-.123s.106-.058.158-.086l.041-.021c.055-.024.055-.024,0,0-.014.007-.027.01-.041.017L68.931,75a1.521,1.521,0,0,1,.178-.051l.089-.021c.031-.007.062-.01.092-.017a.8.8,0,0,0-.089.014c.031-.051.373-.007.428,0,.123.007-.024,0-.041-.007a.738.738,0,0,0,.092.017,2.186,2.186,0,0,1,.247.065l.086.031c.092.027-.151-.075-.017-.007.055.027.11.051.161.082s.113.072.171.11c.113.072.007-.017-.014-.014.014,0,.075.065.086.072a1.865,1.865,0,0,1,.144.14c.021.021.038.045.058.069.089.1-.024-.034-.024-.034.027,0,.11.161.123.188.038.065.072.134.106.2s-.007.062-.017-.038a.832.832,0,0,0,.045.13c.024.072.041.147.058.223a.638.638,0,0,1,.017.092c-.014-.1-.014-.12-.01-.065,0,.024,0,.048.007.072a1.653,1.653,0,0,1,0,.26.447.447,0,0,1-.01.116c.045-.154,0,.007-.014.045-.021.092-.051.182-.079.271-.051.168.045-.075,0,.017-.027.048-.048.1-.075.147-.041.072-.092.137-.134.209a.693.693,0,0,0-.069.527.813.813,0,0,0,.315.411l1.771,1.367q1.4,1.084,2.805,2.165c.216.164.432.332.647.5a.685.685,0,0,0,.829-.106c.014-.014.1-.123.11-.14.069-.089-.017.014-.014.017a1.644,1.644,0,0,1,.154-.168c.048-.048.1-.089.151-.134.069-.062-.134.089,0,0,.027-.017.055-.038.086-.055.058-.034.116-.069.178-.1a.748.748,0,0,1,.092-.045c-.079.031-.092.038-.045.021l.048-.017a1.9,1.9,0,0,1,.2-.058l.1-.021.051-.01c.051-.007.034-.007-.051.007a1.541,1.541,0,0,1,.435,0c-.021-.031-.127-.021.007,0,.034.007.069.014.106.024a1.974,1.974,0,0,1,.2.062c.017.007.034.01.048.017.048.017.034.01-.041-.017.017,0,.079.038.1.045a1.9,1.9,0,0,1,.182.1.749.749,0,0,1,.086.058c.106.072-.055-.051,0,0s.116.1.171.161a.7.7,0,0,0,.969,0c.312-.312.62-.623.932-.935q1.12-1.12,2.24-2.244,1.346-1.351,2.7-2.7,1.171-1.177,2.343-2.35c.38-.38.771-.75,1.137-1.141l.017-.017a.7.7,0,0,0,0-.969,1.189,1.189,0,0,1-.137-.158c.1.147-.027-.048-.045-.075-.031-.051-.062-.106-.089-.161-.079-.158.017.075-.027-.055a1.6,1.6,0,0,1-.11-.418c0,.12.007.034,0-.038s0-.14,0-.209a.9.9,0,0,1,.007-.1c.007-.075.007-.062-.007.041.014-.041.017-.1.027-.137.014-.062.031-.12.048-.178.01-.031.021-.058.031-.086.027-.069.021-.058-.017.038-.01-.065.116-.229.147-.281.017-.024.072-.144.1-.147-.062.079-.069.089-.024.034.014-.017.031-.034.045-.051.031-.034.2-.243.243-.233l-.031.024a.524.524,0,0,1,.055-.038,1.405,1.405,0,0,1,.134-.082c.051-.031.106-.055.161-.082l-.038.017.086-.031a2.6,2.6,0,0,1,.312-.079c.075-.014.062-.01-.041,0a.844.844,0,0,1,.1-.007c.048,0,.1,0,.144,0a.861.861,0,0,1,.229.01c-.168-.051.058.014.092.024.055.014.106.027.161.045.034.01.069.024.1.038-.079-.034-.082-.038-.014-.007a2.522,2.522,0,0,1,.37.223.69.69,0,0,0,1.031-.593V62.7a.7.7,0,0,0-1.391-.007Z" transform="translate(1100.615 3068.037)" fill="url(#linear-gradient)"/>
    <path id="Path_248819_-_Outline" data-name="Path 248819 - Outline" d="M62.9,61.761c.254,0,.509,0,.763,0H91.925c.026,0,.053,0,.079,0a.941.941,0,0,1,.88.935V68.82a.99.99,0,0,1-.953.951.8.8,0,0,1-.476-.157,2.238,2.238,0,0,0-.312-.19c-.026-.01-.05-.02-.071-.026-.046-.014-.09-.026-.15-.041l-.011,0-.092-.027v0a.277.277,0,0,0-.043,0l-.115,0c-.045,0-.087,0-.126,0H90.5a2.346,2.346,0,0,0-.268.068l-.043.015-.027.011c-.034.017-.067.032-.094.048l-.01.006a1.159,1.159,0,0,0-.11.068l-.014.009-.022.014-.034.026-.009.007h0l-.026.018c-.022.024-.053.058-.095.106l-.02.023-.027.031-.013.015c-.01.012-.021.025-.033.038v0c-.011.02-.02.036-.03.052l-.034.052c-.01.015-.031.045-.048.073a.535.535,0,0,1-.025.073c-.009.023-.017.046-.026.071-.016.054-.031.105-.042.157l0,.006c0,.011,0,.023-.006.035s-.007.044-.013.069c0,.009,0,.018,0,.027v.012c0,.06,0,.124,0,.184,0,.027,0,.061,0,.09a1.353,1.353,0,0,0,.059.2c.01.028.02.056.028.084l.018.035c.022.044.049.093.08.144l.026.039.042.064c.014.016.03.033.047.051l.035.037a.954.954,0,0,1-.006,1.317l-.015.015c-.253.27-.521.533-.779.787q-.181.178-.361.357l-1.17,1.173-1.173,1.176-1.35,1.353-1.346,1.349-1.12,1.122-1.12,1.122-.465.466L80.4,82.1a.944.944,0,0,1-.664.27.925.925,0,0,1-.661-.272c-.026-.028-.054-.053-.084-.079s-.051-.046-.076-.07a.428.428,0,0,0-.043-.03l-.014-.009a1.642,1.642,0,0,0-.153-.087l-.039-.021-.01,0-.035-.012a1.726,1.726,0,0,0-.174-.053h-.005c-.029-.008-.057-.014-.089-.02l-.06-.013h-.074c-.052,0-.112,0-.159,0h-.008l-.141.028a1.649,1.649,0,0,0-.165.048l-.034.012-.006,0-.039.02c-.052.026-.1.056-.157.088l-.005,0c-.013.007-.025.016-.037.023l-.034.023-.018.015c-.035.029-.067.057-.1.085s-.081.082-.105.109l-.014.018-.028.036a1.4,1.4,0,0,1-.1.129,1.007,1.007,0,0,1-.691.277.758.758,0,0,1-.467-.149l-.325-.249-.322-.247-1.4-1.08-1.407-1.086-.886-.684-.884-.683a1.057,1.057,0,0,1-.4-.532.933.933,0,0,1,.092-.732c.023-.04.049-.079.074-.117s.041-.061.057-.089.02-.039.03-.058l.027-.054h0l.02-.064c.021-.065.04-.127.054-.187l0-.011.014-.05c0-.014,0-.036,0-.045v-.02a1.411,1.411,0,0,0,0-.215c0-.015,0-.029,0-.044v-.008l0-.018c-.016-.072-.032-.139-.052-.2l0-.006a.364.364,0,0,1-.04-.1l-.019-.046c-.017-.033-.034-.064-.052-.094l-.007-.014c0-.009-.023-.044-.043-.078l-.016-.017-.007-.007-.026-.031a.289.289,0,0,0-.02-.023l-.006-.007a1.626,1.626,0,0,0-.12-.118c-.013-.01-.024-.021-.036-.033l-.011-.007-.052-.034c-.039-.025-.075-.05-.111-.071s-.061-.033-.1-.049l-.032-.016-.016-.006-.042-.015a1.923,1.923,0,0,0-.215-.056h-.005l-.012,0-.049-.007h-.005c-.055-.005-.144-.014-.214-.015v0l-.059.011-.031.005-.09.021a1.282,1.282,0,0,0-.151.043l-.043.015-.015.006-.038.02c-.038.02-.073.038-.105.058l-.009.005-.036.019-.047.024L68.7,75.4c-.031.031-.061.057-.088.081a1.61,1.61,0,0,0-.116.119v.51l-.2-.2v0c-.009.024-.018.047-.027.073-.02.066-.034.121-.045.176l-.007.027v0c0,.012,0,.025,0,.04a1.462,1.462,0,0,0-.007.191c0,.02,0,.041,0,.061s0,.03,0,.045v.038c.006.028.015.061.025.093l.014.048c.012.044.026.089.042.136a.459.459,0,0,1,.015.049c.008.015.025.04.035.056l.032.049,0,.007c.013.023.026.044.044.072l.036.054.016.019c.023.026.05.055.075.081a.954.954,0,0,1,.006,1.317l-.167.179-.169.181L65.911,81.39a.877.877,0,0,1-.647.276,1.013,1.013,0,0,1-.667-.256l-.085-.071-.043-.029-.04-.027-.034-.019c-.031-.018-.06-.035-.088-.049l-.075-.04a1.579,1.579,0,0,0-.209-.059l-.058-.014-.036-.006h-.007l-.049,0h-.009l-.069,0c-.038,0-.077,0-.112,0a.294.294,0,0,0-.077.006h0l-.053.015-.009,0a1.483,1.483,0,0,0-.161.04l-.069.022-.053.023-.038.017a2.171,2.171,0,0,0-.263.164.808.808,0,0,1-.473.153.989.989,0,0,1-.954-.949v-.028c-.011-.482-.008-.973,0-1.447,0-.24,0-.481,0-.721V62.7a.948.948,0,0,1,.935-.935h.051C62.633,61.762,62.759,61.761,62.9,61.761Zm.336.5H62.9c-.141,0-.264,0-.377,0h-.056a.446.446,0,0,0-.435.435v.767Zm27.86,0H63.406v.461c.005.129.009.264.011.41H90.993V62.7A.913.913,0,0,1,91.1,62.264Zm.394.873c.141,0,.264,0,.376,0h.056a.458.458,0,0,0,.322-.145.38.38,0,0,0,.114-.278.451.451,0,0,0-.386-.444h-.019a.44.44,0,0,0-.462.428Zm.891,4.855V63.51a.928.928,0,0,1-.459.124h-.051c-.111,0-.236,0-.38,0v3.935A2.917,2.917,0,0,1,92.384,67.992ZM62.919,63.634h-.883V78.38c0,.242,0,.483,0,.725,0,.21,0,.424,0,.638a2.9,2.9,0,0,1,.878-.415V64.895c0-.241,0-.487.007-.724C62.915,63.995,62.918,63.814,62.919,63.634Zm28.074,0H63.419c0,.183,0,.365-.006.544,0,.236-.007.479-.007.717V79.232a3.2,3.2,0,0,1,1.683.288L66.7,77.8a3.075,3.075,0,0,1,1.383-4.208,3.242,3.242,0,0,1,1.355-.3,3.19,3.19,0,0,1,1.307.283,3.1,3.1,0,0,1,1.635,1.847,2.976,2.976,0,0,1,.128,1.274,3.08,3.08,0,0,1-.157.673l1.378,1.063,1.4,1.083.884.682.312.241a2.818,2.818,0,0,1,.3-.2,3.244,3.244,0,0,1,1.3-.4c.086-.008.174-.012.261-.012a3.031,3.031,0,0,1,1.437.371l.19-.186c.134-.13.272-.265.4-.4l1.17-1.174,1.173-1.176,1.348-1.351,1.348-1.351,1.122-1.124,1.119-1.12.385-.387a3.184,3.184,0,0,1-.328-1.2,3.1,3.1,0,0,1,1.466-2.823,3.034,3.034,0,0,1,1.617-.455,3.183,3.183,0,0,1,.355.02Zm0,4.343a2.682,2.682,0,0,0-.355-.024,2.535,2.535,0,0,0-1.351.378,2.594,2.594,0,0,0-1.233,2.361,2.712,2.712,0,0,0,.205.86l.17-.171.427-.427v1.967c.179-.178.359-.359.53-.541l.023-.023a.451.451,0,0,0-.006-.622l-.03-.031c-.02-.021-.042-.043-.064-.068a.424.424,0,0,1-.044-.054h0l-.027-.039,0,0-.016-.024-.034-.052c-.03-.051-.057-.1-.08-.142a.349.349,0,0,1-.076-.173l-.015-.045a1.574,1.574,0,0,1-.086-.321c0-.018,0-.037-.005-.055s0-.012,0-.018h0v-.006h0c0-.01,0-.021,0-.032,0-.074,0-.153,0-.228,0-.024,0-.05,0-.081h0c.006-.042.009-.068.01-.079a.275.275,0,0,1,.02-.076V70.2c.015-.069.034-.131.051-.191l0-.008v0a.765.765,0,0,1,.159-.34l.023-.035.006-.01.01-.018a.53.53,0,0,1,.153-.2h0a.9.9,0,0,1,.315-.28c.043-.029.087-.055.13-.079s.087-.047.129-.067l.017-.008h0L90,68.952a.336.336,0,0,1,.128-.041c.093-.028.185-.049.261-.064v0l.07-.01a.325.325,0,0,1,.051,0h.1v-.007h.215a.5.5,0,0,1,.164.036Zm.938,1.293a.489.489,0,0,0,.453-.451v-.374l-.5.288L91.415,69a2.666,2.666,0,0,1,.336.209A.3.3,0,0,0,91.931,69.271Zm-3.19,3.766-.317-.335a3.3,3.3,0,0,1-.274-.33l-.012.012h0l-.288.288-1.118,1.12L85.61,74.916l-1.348,1.351-1.348,1.351-1.173,1.177-1.17,1.173c-.135.136-.274.272-.41.4l-.109.106a3.128,3.128,0,0,1,.335.3l.309.317.277-.278,1.12-1.122,1.12-1.122,1.346-1.349,1.35-1.353,1.173-1.177,1.17-1.173c.121-.121.243-.241.364-.36Zm-16.814,4a2.573,2.573,0,0,0,.081-.407,2.47,2.47,0,0,0-.105-1.056,2.6,2.6,0,0,0-1.366-1.55,2.693,2.693,0,0,0-1.1-.239,2.744,2.744,0,0,0-1.146.256,2.586,2.586,0,0,0-1.338,1.57,2.556,2.556,0,0,0,.113,1.791l.6-.64v2.018l.2-.219.167-.179.169-.181a.448.448,0,0,0,0-.624c-.029-.029-.058-.061-.084-.09a.436.436,0,0,1-.054-.062.411.411,0,0,1-.046-.072l-.007-.012c-.022-.034-.04-.063-.057-.093l-.019-.029-.017-.026a.346.346,0,0,1-.092-.2c-.017-.051-.034-.1-.049-.158l-.011-.039a1.5,1.5,0,0,1-.037-.15.5.5,0,0,1-.009-.069h0q0-.022,0-.044s0,0,0,0h0c0-.01,0-.019,0-.029s0-.03,0-.045v-.011a1.736,1.736,0,0,1,0-.174.372.372,0,0,1,.019-.215l.01-.021c.013-.063.03-.127.052-.2l0-.007,0-.007a.412.412,0,0,1,.045-.137l0-.006a.294.294,0,0,1,.025-.045c.019-.033.039-.064.053-.086l.012-.019c.026-.045.054-.088.082-.131a.407.407,0,0,1,.128-.164c.038-.042.081-.085.129-.129l.005,0,0,0a.6.6,0,0,1,.257-.193l.018-.009c.042-.025.084-.047.124-.068l.048-.025h0l.031-.014.018-.009a.358.358,0,0,1,.117-.038c.053-.017.1-.031.155-.042l.037-.008a.5.5,0,0,1,.236-.046c.1,0,.211.011.279.018l.019,0,.019,0h0l-.011,0,.051,0h0v0a.266.266,0,0,1,.1.024c.067.015.128.032.186.05a.477.477,0,0,1,.219.09c.03.015.061.031.093.05s.083.051.122.077l.019.008a.364.364,0,0,1,.16.129c.045.04.09.085.137.135l.009.009a.418.418,0,0,1,.1.113l0,0a.289.289,0,0,1,.02.032c.029.049.055.1.065.117.03.052.056.1.082.153l.028.053a.357.357,0,0,1,.035.1l.2.477-.1-.038a1.9,1.9,0,0,1,0,.2l.515.392Zm-.263,1.526-.135-.518c-.081-.309-.161-.614-.242-.92l-.133-.5v0h0v0c0,.014-.007.028-.011.042h0l-.006.021h0l-.008.027c-.017.076-.04.147-.061.216a.4.4,0,0,1-.092.225c-.009.018-.019.038-.03.057-.025.044-.051.083-.077.12s-.041.061-.057.089a.451.451,0,0,0-.049.323.57.57,0,0,0,.231.294Zm4.278,2.2-.234-.18-.884-.683-1.4-1.082-1.28-.988c-.047.09-.1.182-.156.278l-.288.478.179.138.887.685L74.169,80.5l1.4,1.079.322.247.324.248a.272.272,0,0,0,.163.047A.516.516,0,0,0,76.709,82c.015-.018.043-.056.065-.084h0a.326.326,0,0,1,.024-.036h0a.431.431,0,0,1,.066-.074c.037-.039.078-.081.1-.1s.057-.054.085-.079a.382.382,0,0,1,.165-.125l.042-.025c.06-.035.122-.072.191-.106h0a.457.457,0,0,1,.069-.036h0a.312.312,0,0,1,.1-.031c.061-.02.12-.035.176-.049l.012,0,.067-.013a.454.454,0,0,1,.121-.023h0a.32.32,0,0,1,.043,0h.007c.08,0,.179-.006.249,0a.275.275,0,0,1,.049,0,.336.336,0,0,1,.152.037l.074.018c.067.017.131.036.192.057a.347.347,0,0,1,.1.034l0,0a.353.353,0,0,1,.059.032,2.164,2.164,0,0,1,.2.111c.023.013.043.027.062.04a.341.341,0,0,1,.141.121c.034.031.073.065.11.105a.421.421,0,0,0,.3.118.441.441,0,0,0,.311-.123l.466-.468.081-.082H78.638l.426-.427.009-.009h0c.056-.062.115-.125.179-.191a2.508,2.508,0,0,0-1.067-.244c-.071,0-.143,0-.213.01a2.711,2.711,0,0,0-1.1.335q-.065.037-.131.081l.161.124.479.371-.6.075-.382.049-.343.044-.011.014h0a.238.238,0,0,1-.2.1h-.155l-.069-.139a.244.244,0,0,1,.028-.265h0l.01-.013.02-.026.118-.152.037-.043.045-.053Zm-8.38-1.88-.332-.347a3.21,3.21,0,0,1-.259-.306l-1.425,1.526h0l-.011.012a3.2,3.2,0,0,1,.359.284l.311.285Zm-2.835,1.019a2.682,2.682,0,0,0-1.321-.173v.888l.032-.007L63.5,80.6l.021-.007h0a.242.242,0,0,1,.081-.014h.214v.009h.01l.072,0a.584.584,0,0,1,.2.028l.027.007.01,0a2.339,2.339,0,0,1,.235.064.5.5,0,0,1,.134.056l0,0,.03.016c.042.021.08.043.116.064l.041.024.06.04a.352.352,0,0,1,.071.045.373.373,0,0,1,.053.049l.04.033.015.013a.507.507,0,0,0,.337.132.379.379,0,0,0,.282-.118l.518-.555H64.176l.4-.422Zm-1.821.234v-.291a2.4,2.4,0,0,0-.29.122Zm.082.625-.181-.1c-.255-.147-.518-.3-.777-.456q0,.167.006.332v.037a.489.489,0,0,0,.454.449.307.307,0,0,0,.182-.06A2.669,2.669,0,0,1,62.988,80.768Z" transform="translate(1100.615 3068.037)" fill="url(#linear-gradient)"/>
    <path id="Path_248820" data-name="Path 248820" d="M91.844,335.882v17.424c0,.8-.031,1.61,0,2.415v.034l.685-.685H64.27c-.38,0-.764-.01-1.144,0h-.051l.685.685v-8.108c-.346.2-.688.394-1.034.589a2.841,2.841,0,0,0,4.463-2.579,2.912,2.912,0,0,0-.867-1.809v.969q1.161-1.238,2.319-2.48c.113-.12.223-.24.336-.36h-.969a2.848,2.848,0,0,0,2.288.829,2.807,2.807,0,0,0,2.076-1.216l-.939.247L73.2,343.2q1.4,1.084,2.809,2.165c.216.164.432.332.647.5-.045-.36-.092-.716-.137-1.076a1.89,1.89,0,0,0-.346.569,2.816,2.816,0,0,0-.212.7,2.927,2.927,0,0,0,.086,1.322,2.84,2.84,0,0,0,1.507,1.719,2.917,2.917,0,0,0,2.456-.017,2.84,2.84,0,0,0,.8-4.528v.969c.312-.312.62-.623.932-.935q1.12-1.125,2.24-2.247,1.346-1.351,2.7-2.7,1.171-1.177,2.343-2.35c.377-.38.778-.747,1.137-1.141,0-.007.01-.01.017-.017h-.969a2.866,2.866,0,0,0,3.672.339.706.706,0,0,0,.247-.939.7.7,0,0,0-.939-.247,2.39,2.39,0,0,1-.322.2c-.041.021-.151.106-.034.017a.569.569,0,0,1-.158.051c-.072.021-.144.034-.216.051-.144.034.12,0-.041,0-.123.007-.243,0-.363,0-.051,0-.038,0,.048.01-.034-.007-.072-.01-.106-.017-.051-.01-.1-.024-.154-.038s-.1-.031-.151-.048c-.13-.045.106.055-.051-.024a2.648,2.648,0,0,1-.288-.171c-.127-.082.079.075-.024-.021-.051-.048-.1-.092-.151-.14a.7.7,0,0,0-.969,0c-.312.312-.62.623-.932.935q-1.12,1.125-2.24,2.247-1.346,1.351-2.7,2.7-1.171,1.177-2.343,2.35c-.38.38-.771.75-1.137,1.141l-.017.017a.7.7,0,0,0,0,.969c.031.031.055.065.086.1.069.069-.065-.1-.01-.017s.089.127.127.2a.792.792,0,0,1,.1.185c-.027-.144-.017-.038,0,.007s.027.082.041.127a1.133,1.133,0,0,1,.058.264c0-.024-.01-.151-.007-.021,0,.038,0,.072.007.11,0,.065,0,.134,0,.2,0,.014-.007.171,0,.051s-.01.045-.014.072c-.014.069-.031.134-.051.2-.01.031-.021.058-.031.086-.041.127.017-.034.017-.038.007.034-.075.154-.089.182-.038.065-.079.127-.12.192-.072.113.017.007.014-.014a.665.665,0,0,1-.058.068c-.041.045-.082.089-.123.13-.021.021-.045.041-.065.062s-.11.113-.034.031-.021.014-.038.027-.062.041-.1.062a1.768,1.768,0,0,1-.178.1.3.3,0,0,1-.082.038c.034.007.127-.045.038-.017-.065.021-.13.045-.2.062-.038.01-.075.017-.113.027l-.045.01c-.075.014-.062.01.041,0-.031.048-.353.01-.408.007-.027,0-.13,0-.027,0s-.027-.007-.048-.01a1.634,1.634,0,0,1-.223-.058l-.086-.031c-.127-.041.034.017.038.017-.034.007-.154-.075-.182-.089-.058-.034-.116-.068-.171-.106a.325.325,0,0,1-.072-.051c.072.058.089.069.051.038a.594.594,0,0,1-.051-.045c-.045-.041-.089-.082-.13-.123s-.051-.055-.075-.082-.089-.086-.017-.017-.014-.021-.027-.038-.034-.051-.048-.075a2.24,2.24,0,0,1-.11-.2.261.261,0,0,1-.038-.082c.038.086.045.106.027.058-.007-.021-.017-.045-.024-.065-.024-.072-.045-.147-.062-.223-.007-.031-.01-.062-.017-.092-.031-.147.007.137,0,0,0-.082-.01-.164-.007-.25,0-.048.007-.1.01-.144,0-.082-.027.113,0-.014.024-.1.045-.2.079-.3.007-.021.048-.134.014-.048s.038-.075.045-.092.034-.065.051-.1c.041-.069.164-.192,0-.024a.677.677,0,0,0,.188-.575.726.726,0,0,0-.325-.5l-1.771-1.367q-1.4-1.084-2.809-2.165c-.216-.164-.432-.332-.647-.5a.678.678,0,0,0-.527-.069.726.726,0,0,0-.411.315c0,.007.045-.058.045-.058s-.058.072-.065.075a1.825,1.825,0,0,1-.137.144c-.024.024-.048.045-.075.069-.116.11.079-.051,0,0-.055.038-.11.075-.168.11s-.12.062-.178.1c-.082.048.113-.041.024-.007l-.1.034c-.065.021-.13.041-.2.058l-.1.021-.051.01c-.051.007-.034.007.051-.007a2.046,2.046,0,0,1-.435,0c.017.017.123.024.021,0l-.106-.021c-.069-.017-.14-.038-.206-.058a.286.286,0,0,1-.1-.038c.024.027.1.048.017,0s-.14-.072-.206-.116c-.031-.017-.058-.041-.086-.058-.082-.048.086.075.014.014s-.116-.1-.175-.158a.7.7,0,0,0-.969,0q-1.161,1.238-2.319,2.48c-.113.12-.223.24-.336.36a.7.7,0,0,0,0,.969,1.966,1.966,0,0,1,.144.151l.069.079c-.055-.069-.058-.075-.014-.014a1.2,1.2,0,0,1,.182.322c-.034-.082-.038-.089-.007-.017.014.034.024.069.034.1a2.075,2.075,0,0,1,.055.209c.007.034.014.072.021.106-.01-.092-.014-.1-.007-.017,0,.055.007.113.007.168s-.007.127-.007.192-.007.062.007-.041a.871.871,0,0,1-.017.092c-.021.106-.055.206-.086.312-.027.068-.021.058.017-.038-.014.027-.024.055-.038.082-.027.055-.055.106-.086.158s-.065.1-.1.151c-.075.113.1-.106-.017.021-.079.082-.154.161-.24.236-.058.048-.045.038.034-.024l-.072.051c-.045.031-.089.058-.134.086s-.092.051-.14.075a.878.878,0,0,1-.082.038c.092-.038.106-.045.038-.017-.11.034-.219.069-.332.092-.178.034.116,0-.027,0-.065,0-.127.007-.192.007a.86.86,0,0,1-.229-.01c.161.051-.027-.007-.065-.017a1.849,1.849,0,0,1-.185-.051c-.034-.01-.069-.024-.1-.038.079.034.082.038.014.007a2.519,2.519,0,0,1-.37-.223.689.689,0,0,0-1.031.593v8.108a.7.7,0,0,0,.685.685H91.344c.38,0,.764.007,1.144,0h.051a.7.7,0,0,0,.685-.685V338.331c0-.8.017-1.61,0-2.415v-.034a.69.69,0,0,0-1.38,0Z" transform="translate(1100.015 2804.435)" fill="url(#linear-gradient)"/>
    <path id="Path_248820_-_Outline" data-name="Path 248820 - Outline" d="M89.693,334.712a.92.92,0,0,1,.661.271c.027.027.057.055.088.082l.055.051,0,0a2.359,2.359,0,0,0,.251.149l.024.012.027.009c.038.013.07.024.1.033.049.013.1.025.139.034l.012,0,.077,0c.089,0,.178.006.269,0h.012l.061-.014c.045-.01.088-.02.129-.031l.053-.014c.016,0,.039-.009.048-.013a.108.108,0,0,0-.022.013l0,0a.626.626,0,0,1,.068-.041,2.125,2.125,0,0,0,.286-.177.806.806,0,0,1,.586-.139.928.928,0,0,1,.738.5.841.841,0,0,1,.091.247.891.891,0,0,1,.02.189v.032c.011.539.008,1.086,0,1.614,0,.268,0,.535,0,.8v17.424a.948.948,0,0,1-.935.935h-.051c-.111,0-.237,0-.381,0-.254,0-.509,0-.763,0H63.085a.948.948,0,0,1-.935-.935v-8.108a.989.989,0,0,1,.951-.951.808.808,0,0,1,.476.156,2.235,2.235,0,0,0,.313.19c.026.01.05.02.071.026l.007,0a1.6,1.6,0,0,0,.16.044l.012,0,.071.021v0h0a.259.259,0,0,0,.043,0l.115,0c.055,0,.11,0,.168-.006h.006c.093-.02.19-.05.292-.082l.017-.009c.045-.022.086-.043.122-.065s.083-.051.122-.078l.021-.015c.074-.066.142-.137.214-.212l.024-.035c.023-.033.044-.065.062-.1s.049-.086.076-.141l.009-.02.02-.067a2.088,2.088,0,0,0,.055-.205V346.1l0-.021c0-.029,0-.057,0-.086s0-.054,0-.082,0-.046,0-.069,0-.059,0-.088v-.009l-.008-.042a1.871,1.871,0,0,0-.049-.186c-.008-.026-.015-.05-.023-.072l-.018-.042v0l0-.008h0a.323.323,0,0,1-.01-.032c-.019-.031-.045-.069-.061-.093s-.041-.058-.059-.089l-.036-.042a1.715,1.715,0,0,0-.126-.132.945.945,0,0,1-.012-1.323l.168-.18.169-.181q.578-.617,1.156-1.236t1.162-1.243a.888.888,0,0,1,.657-.276.959.959,0,0,1,.668.266c.044.042.088.081.133.12l.038.027.024.017.02.012a1.314,1.314,0,0,0,.124.071l.061.033.016.009.021.006c.06.019.126.038.185.053l.048.009.06.012.025.006c.081,0,.2,0,.266-.008l.114-.023c.058-.015.116-.033.176-.052l.036-.013c.029-.016.058-.032.088-.047s.052-.026.077-.041c.041-.024.082-.052.124-.08l.016-.014c.019-.017.036-.031.053-.049l.007-.007a1.571,1.571,0,0,0,.118-.124l.027-.031a.984.984,0,0,1,.517-.376.826.826,0,0,1,.255-.037.872.872,0,0,1,.5.144l.327.251.321.246.52.4q1.147.883,2.29,1.765l.883.682.888.685a.972.972,0,0,1,.42.665.949.949,0,0,1-.109.586.314.314,0,0,1-.063.115c-.009.011-.035.042-.045.057l-.02.038-.022.042-.035.078-.011.031a2.194,2.194,0,0,0-.058.216l-.013.057,0,.032c0,.027,0,.052,0,.072v.01c0,.053,0,.108,0,.166,0,.016,0,.032,0,.048l.006.034c0,.011,0,.022.006.033.016.07.034.136.055.2l.008.022.013.036c.028.056.059.117.1.175l.006.01c.009.016.019.032.029.046l.015.016a.513.513,0,0,1,.05.062l.034.036c.038.038.081.078.123.116l.007.007.022.019h0l.014.01c.047.032.1.063.154.1l.04.024.033.02.024.008.011,0,.077.028a1.394,1.394,0,0,0,.182.048l.027,0,.052.007.02,0c.047,0,.12.011.184.013a.364.364,0,0,1,.045-.011l.023,0,.018,0,.016,0,.062-.015.046-.011h.005c.039-.01.079-.023.122-.037l.042-.014.039-.017a1.563,1.563,0,0,0,.153-.083l.069-.044.014-.013a.482.482,0,0,1,.072-.059l0,0,.025-.024c.038-.038.076-.079.116-.123h0l0,0,.012-.013v0l.035-.055c.028-.044.055-.085.079-.127l.024-.041.02-.033L79.9,347l0-.011c.009-.025.018-.048.027-.074.018-.062.032-.114.043-.165l0-.019a.774.774,0,0,1,.013-.091c0-.052,0-.107,0-.162,0-.036-.007-.074-.007-.118,0-.011,0-.02,0-.028-.009-.045-.024-.1-.038-.14l0-.006c-.012-.04-.025-.078-.038-.116q-.007-.02-.014-.045c-.008-.015-.021-.035-.031-.052s-.023-.038-.033-.055a1.607,1.607,0,0,0-.087-.136c-.017-.018-.032-.036-.045-.051s-.018-.022-.028-.032l-.007-.007a.95.95,0,0,1,.006-1.315l.015-.015c.253-.27.52-.532.779-.786q.181-.178.361-.357l1.17-1.173,1.173-1.176,1.344-1.348,1.352-1.355,1.122-1.125,1.118-1.122.469-.471.463-.465A.942.942,0,0,1,89.693,334.712Zm.4.715c-.032-.029-.064-.059-.1-.091a.424.424,0,0,0-.306-.123.439.439,0,0,0-.31.123l-.462.464-.085.086h1.947l-.431.427-.009.008h0c-.054.059-.11.119-.171.183a2.682,2.682,0,0,0,1.1.235,2.6,2.6,0,0,0,.324-.02v-.836c0-.016,0-.033,0-.049l-.012,0a.355.355,0,0,1-.166.037H91.2v-.01l-.078,0-.054,0v.007L91,335.856l-.015,0h0l-.039-.007c-.059-.012-.115-.027-.169-.041s-.076-.022-.11-.034a.353.353,0,0,1-.18-.077c-.081-.043-.154-.088-.22-.13A.345.345,0,0,1,90.1,335.427Zm2.477.019h-.022a.451.451,0,0,0-.457.435v.721a2.394,2.394,0,0,0,.637-.331.52.52,0,0,0,.233-.477.451.451,0,0,0-.04-.109l-.009-.016A.539.539,0,0,0,92.573,335.446ZM89.365,336.6a3.06,3.06,0,0,1-.336-.293L88.721,336l-.27.27-1.118,1.122-1.121,1.125-1.352,1.355-1.344,1.347L82.343,342.4l-1.17,1.173c-.121.121-.243.241-.365.36l-.125.123.311.334a3.251,3.251,0,0,1,.27.331l.012-.012h0l.29-.291,1.12-1.123,1.12-1.123,1.352-1.355,1.344-1.347,1.17-1.173,1.173-1.176c.135-.136.275-.272.41-.4Zm3.609,18.216V338.331c0-.269,0-.538,0-.807s0-.542,0-.817a2.9,2.9,0,0,1-.888.419v16.18c0,.268,0,.541-.007.805,0,.233-.006.471-.007.709Zm-1.7-17.582a3.182,3.182,0,0,1-1.47-.36l-.2.192c-.134.13-.272.265-.4.4l-1.174,1.177-1.17,1.173-1.344,1.348-1.352,1.355-1.12,1.124-1.12,1.123-.391.393a3.077,3.077,0,0,1,.2,2.277,3.11,3.11,0,0,1-1.607,1.875,3.167,3.167,0,0,1-2.662.019,3.1,3.1,0,0,1-1.643-1.87,3.167,3.167,0,0,1-.1-1.436,2.738,2.738,0,0,1,.118-.476l-.485-.373q-1.152-.887-2.3-1.773l-.884-.682-.307-.237a3.372,3.372,0,0,1-1.536.572,2.785,2.785,0,0,1-.315.018,3.033,3.033,0,0,1-1.391-.346l-.955,1.022-.608.651a3.261,3.261,0,0,1,.381,1.23,3.086,3.086,0,0,1-1.44,2.9,3.035,3.035,0,0,1-1.639.467,3.189,3.189,0,0,1-.349-.019v5.837H91.58c0-.24,0-.481.007-.715,0-.262.007-.534.007-.8V337.221A3.109,3.109,0,0,1,91.27,337.238Zm-18.718,4.047-.244-.188-.325-.249a.4.4,0,0,0-.2-.042.346.346,0,0,0-.1.012.493.493,0,0,0-.248.166l0,0a.613.613,0,0,1-.088.1,2.018,2.018,0,0,1-.142.148l-.033.031a.389.389,0,0,1-.162.127c-.031.02-.062.04-.095.059s-.054.03-.082.045a.408.408,0,0,1-.194.093l-.021.007-.006,0c-.067.021-.136.043-.211.062l-.012,0-.065.013a.277.277,0,0,1-.059.015h0a.62.62,0,0,1-.1.012h-.116c-.047,0-.1,0-.141,0l-.04,0a.387.387,0,0,1-.155-.033l-.038-.007-.011,0c-.069-.017-.142-.038-.212-.06a.349.349,0,0,1-.193-.087,1.763,1.763,0,0,1-.159-.092l-.013-.008a.366.366,0,0,1-.164-.125c-.036-.032-.073-.065-.109-.1l0,0a.455.455,0,0,0-.319-.125.393.393,0,0,0-.292.117l-.51.545h1.87l-.4.422-.167.179-.016.017a2.511,2.511,0,0,0,1.033.228,2.284,2.284,0,0,0,.258-.015,2.948,2.948,0,0,0,1.174-.4l-.161-.125-.4-.311.492-.128.913-.24Zm4.022,3.1-.253-.195-.884-.682q-1.144-.884-2.289-1.765l-.395-.3-.168.28a2.378,2.378,0,0,1-.335.433l.222.171.884.682q1.148.888,2.3,1.772l.379.292a1.741,1.741,0,0,1,.311-.458Zm-8.389-1.926a3.166,3.166,0,0,1-.354-.3l-.282-.28-.514.55-.866.927.327.316a3.107,3.107,0,0,1,.275.3l.527-.564.877-.938h0Zm-2.113,2.991v-1.994l-.194.208-.167.178-.17.182a.449.449,0,0,0-.008.618,2.164,2.164,0,0,1,.157.164.312.312,0,0,1,.041.043l.036.046,0,0,.008.013c.011.019.029.045.048.072a.932.932,0,0,1,.16.311c.01.028.018.055.025.08a2.285,2.285,0,0,1,.061.234l0,.019a.6.6,0,0,1,.02.107h-.005v.01c0,.022,0,.046,0,.069s0,.067,0,.1,0,.073,0,.109,0,.045,0,.068h.005q0,.013,0,.026h0c0,.03-.006.049-.007.058a.276.276,0,0,1-.019.073c-.017.074-.038.143-.058.21l-.018.061,0,0a.763.763,0,0,1-.056.12c-.03.059-.057.109-.086.157-.019.032-.038.061-.058.09a.373.373,0,0,1-.138.173c-.06.062-.122.125-.19.186l0,0a.8.8,0,0,1-.12.084c-.039.026-.076.048-.109.069-.051.032-.1.058-.152.082a.616.616,0,0,1-.08.038l-.034.014,0,0c-.082.025-.165.051-.251.072a.39.39,0,0,1-.183.039.264.264,0,0,1-.062-.007l-.053,0,0,.011H64.2a.366.366,0,0,1-.124-.026l-.066-.02h0v.876a2.682,2.682,0,0,0,.349.023,2.536,2.536,0,0,0,1.37-.389,2.618,2.618,0,0,0,1.212-2.427,2.8,2.8,0,0,0-.248-.9l-.188.2Zm14.489.681v-1.957c-.176.174-.352.352-.52.531l-.023.023a.451.451,0,0,0,0,.62l.026.028a.377.377,0,0,1,.125.155c.03.044.061.091.089.143l.021.035.006.009a.393.393,0,0,1,.1.214c.012.035.023.07.035.107l0,.007a1.939,1.939,0,0,1,.052.2.531.531,0,0,1,.015.134h-.006c0,.017,0,.036,0,.057l0,.032c0,.068,0,.139,0,.21,0,.012,0,.032,0,.052s0,.021,0,.031h0a.384.384,0,0,1-.021.093c-.014.066-.031.133-.054.21l0,.007,0,.007a.421.421,0,0,1-.048.142l0,.005a.3.3,0,0,1-.022.039l-.032.053-.012.02-.006.01c-.029.049-.058.1-.087.141a.4.4,0,0,1-.077.13.287.287,0,0,1-.072.062c-.03.032-.061.065-.092.1l-.04.038-.025.024-.017.016-.028.029a.286.286,0,0,1-.116.079l-.055.034c-.045.027-.094.055-.146.082a.364.364,0,0,1-.218.088c-.039.013-.079.025-.123.036l-.06.015a.491.491,0,0,1-.252.052c-.092,0-.2-.009-.258-.015l-.02,0h-.032a.41.41,0,0,1-.126-.022,1.936,1.936,0,0,1-.217-.059l-.007,0a.419.419,0,0,1-.142-.048l-.006,0a.292.292,0,0,1-.036-.02l-.056-.033-.02-.012-.011-.006c-.049-.029-.1-.058-.149-.091a.383.383,0,0,1-.074-.047h0a.368.368,0,0,1-.1-.089c-.035-.032-.07-.065-.1-.1s-.06-.063-.084-.091l0,0a.365.365,0,0,1-.094-.127l-.023-.038c-.042-.068-.078-.135-.108-.193q-.008-.012-.015-.027l0-.005a.392.392,0,0,1-.057-.161c-.019-.063-.037-.129-.052-.2l0-.01a.421.421,0,0,1-.033-.177v-.25h.006v-.08a.348.348,0,0,1,.035-.16c.019-.08.038-.162.067-.248a.374.374,0,0,1,.022-.071.424.424,0,0,1,.033-.066l.012-.028.013-.027.023-.043.028-.053,0-.007a.7.7,0,0,1,.043-.063l-.009-.009h0a.428.428,0,0,0,.117-.367.48.48,0,0,0-.232-.335l-.467-.361.031.246q.033.269.068.536t.069.54l.073.59-.473-.36-.25-.191a2.135,2.135,0,0,0-.047.225,2.671,2.671,0,0,0,.077,1.208,2.6,2.6,0,0,0,1.37,1.567,2.678,2.678,0,0,0,2.25-.015,2.6,2.6,0,0,0,1.339-1.572,2.559,2.559,0,0,0-.1-1.748l-.164.164ZM63.6,347.453a2.633,2.633,0,0,1-.313-.2.305.305,0,0,0-.182-.06.489.489,0,0,0-.451.451v.345l.47-.268Zm-.086.909v-.284l-.142.081-.147.084A2.51,2.51,0,0,0,63.51,348.361Zm0,.524a2.92,2.92,0,0,1-.86-.4v6.331h.473c.116,0,.243-.006.387,0Zm28.6,7.308c.141,0,.264,0,.377,0h.056a.446.446,0,0,0,.435-.435v-.777l-1.214,1.214Zm-28.265,0L62.65,355v.756a.446.446,0,0,0,.435.435Zm27.741-.87H64.01v.871H91.594v-.465c0-.129-.008-.263-.011-.406Z" transform="translate(1100.015 2804.435)" fill="url(#linear-gradient)"/>
    <path id="Path_248821" data-name="Path 248821" d="M40.924,574.366c0,.048,0,.1,0,.144,0,.017,0,.031,0,.048-.007.075-.007.062.007-.041.024.027-.048.233-.062.271s-.031.086-.041.13c-.027.089.024,0,.017-.038.01.068-.113.223-.147.281-.024.038-.051.075-.075.113-.086.13.1-.11,0,0-.051.055-.1.11-.154.164-.031.031-.069.058-.1.089-.113.106.127-.082,0,0-.082.055-.161.106-.25.154l-.1.051c-.14.069.147-.045,0,0a2.53,2.53,0,0,1-.264.075c-.017,0-.127.038-.137.027.027.024.151-.017.017-.007a2.794,2.794,0,0,1-.339,0c-.182,0,.134.034-.041,0-.055-.014-.11-.021-.161-.038s-.3-.1-.147-.041a1.923,1.923,0,0,1-.288-.151.854.854,0,0,1-.134-.093c.13.127-.031-.031-.055-.055-.062-.058-.116-.12-.175-.185-.113-.123.072.12-.017-.024-.027-.045-.055-.086-.082-.13a1.272,1.272,0,0,1-.072-.134.283.283,0,0,0-.024-.045c-.031-.068-.027-.062.007.021a.794.794,0,0,1-.089-.3,1.23,1.23,0,0,1-.031-.154c.01.185,0,0,0-.031,0-.092,0-.182,0-.271,0-.175-.034.14,0-.031.01-.051.021-.1.034-.154s.027-.1.045-.151c.01-.034.024-.065.034-.1-.038.086-.041.093-.007.021a2.035,2.035,0,0,1,.123-.223.518.518,0,0,1,.086-.127c-.123.1-.014.017.021-.02.069-.075.14-.144.216-.212.092-.086-.007,0-.021.014a.9.9,0,0,1,.178-.12c.048-.027.092-.055.14-.079s.158-.11.034-.017a.82.82,0,0,1,.291-.086.649.649,0,0,1,.137-.027c-.175,0,.014,0,.045,0,.058,0,.113,0,.171,0,.034,0,.281,0,.1,0a1.3,1.3,0,0,1,.319.075,1.168,1.168,0,0,1,.154.055c-.161-.079.051.031.079.048.048.027.092.055.137.082s.058.041.086.062c-.069-.055-.072-.058-.014-.007s.13.116.188.182a1.173,1.173,0,0,1,.1.12c-.1-.147.027.048.045.075.027.045.055.089.079.137s.1.171.021.027a1.179,1.179,0,0,1,.106.36c.01.041.065.188.01.034a.8.8,0,0,1,.01.223.685.685,0,1,0,1.37,0,2.844,2.844,0,0,0-5.213-1.572,2.847,2.847,0,0,0,3.244,4.282,2.879,2.879,0,0,0,1.97-2.706.685.685,0,0,0-1.37,0Z" transform="translate(1124.923 2575.979)" fill="url(#linear-gradient)"/>
    <path id="Path_248821_-_Outline" data-name="Path 248821 - Outline" d="M39.471,577.465A3.149,3.149,0,0,1,37,576.245a3.111,3.111,0,0,1-.121-3.594,3.21,3.21,0,0,1,2.595-1.381,2.922,2.922,0,0,1,.923.149,3.155,3.155,0,0,1,2.15,2.911c0,.013,0,.025,0,.038s0,.021,0,.031a3.142,3.142,0,0,1-2.139,2.914A2.9,2.9,0,0,1,39.471,577.465Zm0-5.694a2.7,2.7,0,0,0-2.184,1.166,2.6,2.6,0,0,0,.105,3,2.646,2.646,0,0,0,2.08,1.025,2.407,2.407,0,0,0,.773-.126,2.651,2.651,0,0,0,1.636-1.585,1,1,0,0,1-.26.047h-.039a.877.877,0,0,1-.555-.2,1.716,1.716,0,0,1-.093.148c-.011.017-.021.031-.027.041l0,.008-.022.034a.4.4,0,0,1-.154.194c-.029.031-.058.063-.091.1l-.035.033a.4.4,0,0,1-.193.148c-.057.037-.117.074-.183.109l-.011.006a.47.47,0,0,1-.246.1c-.053.016-.107.032-.165.045a.333.333,0,0,1-.173.043.324.324,0,0,1-.081-.01c-.058,0-.124,0-.188,0a.277.277,0,0,1-.077.01.38.38,0,0,1-.185-.041.931.931,0,0,1-.094-.024L38.892,576l-.05-.016,0,0-.018-.007-.043-.018a2.4,2.4,0,0,1-.252-.136l-.028-.017-.02-.013a.272.272,0,0,1-.1-.064h0l-.01-.01-.032-.031-.007-.006h0l-.053-.052c-.046-.044-.089-.089-.13-.134a.377.377,0,0,1-.147-.2l-.036-.057a1.547,1.547,0,0,1-.075-.137.784.784,0,0,1-.126-.352c0-.017-.006-.033-.009-.046l-.005-.022a.545.545,0,0,1-.031-.169h0c0-.016,0-.03,0-.039,0-.063,0-.121,0-.177v0a.257.257,0,0,1-.008-.033.285.285,0,0,1,0-.047.387.387,0,0,1,.042-.189c.005-.024.011-.049.018-.074.015-.057.029-.1.043-.149a.434.434,0,0,1,.034-.1l.014-.031h0a2.309,2.309,0,0,1,.122-.222.327.327,0,0,1,.142-.2l0,0c.069-.077.143-.147.2-.2l0,0c.012-.012.024-.023.037-.034a.414.414,0,0,1,.093-.067l.072-.043.064-.037c.035-.02.071-.041.111-.062l.049-.033a.263.263,0,0,1,.154-.055c.052-.014.1-.023.149-.032l.038-.007.012,0a.41.41,0,0,1,.115-.027h.006l.044,0h.012v0h.03c.065,0,.127,0,.186,0h.154a.3.3,0,0,1,.1.019c.068.015.134.035.194.055l.042.013.036.011.015,0a.416.416,0,0,1,.128.048l.008,0,0,0,.012.006.084.046c.049.028.1.057.142.085l.007,0,.007,0a.486.486,0,0,1,.074.052l.023.018,0,0,0,0,.054.05a2.051,2.051,0,0,1,.148.146l.018.02.023.025a.553.553,0,0,1,.077.094h0l0,0,.022.034.034.053c.031.051.062.1.09.158l.01.018,0,0,.011.02a.973.973,0,0,1,.574-.212h.036a.834.834,0,0,1,.237.035,2.653,2.653,0,0,0-1.637-1.575A2.422,2.422,0,0,0,39.47,571.771Zm-.191,3.815.063,0a2.171,2.171,0,0,0,.25,0l.037,0,.014,0,.041-.01a1.559,1.559,0,0,0,.175-.049l.054-.017.075-.038c.073-.04.14-.083.208-.128l.049-.043c.012-.01.024-.02.035-.031.034-.034.065-.068.1-.1l.041-.045.029-.043.031-.047c.01-.017.025-.039.043-.065s.032-.047.049-.073.007-.028.01-.039c.009-.037.02-.07.03-.1,0-.013.009-.026.013-.04l0-.012c.013-.035.026-.076.036-.11,0-.006,0-.012,0-.017l0-.032c0-.013,0-.025,0-.037h0v-.014c0-.039,0-.081,0-.126,0-.018,0-.038,0-.059a.716.716,0,0,0,0-.089c-.006-.019-.011-.036-.014-.048l0-.017a1.358,1.358,0,0,0-.057-.234c-.016-.026-.037-.062-.047-.084-.019-.038-.043-.076-.068-.117l-.028-.043-.035-.054-.033-.036-.023-.025c-.034-.038-.073-.074-.115-.112l-.057-.053-.012-.01-.026-.018c-.041-.025-.082-.05-.126-.076l-.008-.005-.061-.033-.032-.017-.041-.013-.044-.014-.038-.012a1.137,1.137,0,0,0-.2-.05h-.1c-.055,0-.1,0-.152,0l-.07,0-.029.008-.045.011-.007,0-.051.01a.8.8,0,0,0-.146.035l.006,0,0,0c-.023.016-.044.029-.062.039l-.008,0c-.028.014-.058.031-.089.05l-.066.038c-.023.013-.047.027-.066.04l-.018.017c-.087.08-.147.138-.2.2-.01.011-.021.022-.034.034s-.017.028-.024.04l-.019.034-.006.01a1.752,1.752,0,0,0-.1.187l0,0c0,.013-.01.026-.014.04l0,.007c-.014.041-.026.081-.04.136s-.02.086-.029.132,0,.067,0,.1c0,.051,0,.1,0,.147v.009c0,.008,0,.025,0,.042s.006.028.01.042.008.033.011.048.008.039.012.061.012.065.02.1a.422.422,0,0,1,.025.048v0a.505.505,0,0,1,.025.048l.006.012a1.026,1.026,0,0,0,.058.107l.039.061.041.065c.052.058.1.113.153.162l.005.005.058.057h0c.011.008.029.019.045.029l.041.026.012.007c.065.038.126.075.185.1l.075.024.092.029.017.005a.654.654,0,0,0,.068.016Zm1.9-1.22a.439.439,0,0,0,.424.435.454.454,0,0,0,.446-.414v-.041a.435.435,0,0,0-.87.02Z" transform="translate(1124.923 2575.979)" fill="url(#linear-gradient)"/>
    <path id="Path_248822" data-name="Path 248822" d="M825.934,231.006c0,.055-.007.11-.007.161,0,.175.034-.14,0,.031a3.053,3.053,0,0,1-.075.3c-.007.017-.01.034-.017.048q-.041.108.01-.021a.56.56,0,0,1-.045.092.982.982,0,0,1-.185.3c.12-.092.014-.017-.021.021s-.068.075-.1.11l-.113.1c-.089.086.007,0,.021-.014a1.2,1.2,0,0,1-.274.175c-.048.024-.1.051-.147.072.164-.062-.062.017-.093.024a.838.838,0,0,1-.271.062l.072-.01-.113.01c-.058,0-.113,0-.171,0a.525.525,0,0,1-.164-.01l.075.01c-.034-.007-.072-.01-.106-.017a3.1,3.1,0,0,1-.3-.086c-.164-.051.123.068-.027-.01l-.137-.072a1.049,1.049,0,0,1-.13-.082c-.034-.024-.171-.086-.027-.014a.827.827,0,0,1-.188-.175c-.024-.024-.048-.051-.072-.079l-.068-.079c.055.069.058.075.014.014-.055-.089-.106-.182-.158-.274-.082-.147.027.092,0-.007-.014-.041-.031-.082-.045-.127a1.111,1.111,0,0,1-.072-.315c0,.178,0-.007,0-.038,0-.069,0-.14,0-.209l.01-.12c0-.1-.034.171,0,.021.021-.092.038-.182.065-.271a.638.638,0,0,1,.044-.13c-.01.027-.024.051-.034.079.014-.027.024-.055.038-.082a2.64,2.64,0,0,1,.134-.236c.01-.017.058-.106.079-.11-.017.024-.034.045-.051.068l.058-.068a1.97,1.97,0,0,1,.188-.188.679.679,0,0,1,.069-.058l-.069.051.072-.051a1.961,1.961,0,0,1,.274-.158l.041-.021-.038.017c0-.014.116-.041.13-.045.072-.024.147-.041.223-.058l.044-.01c.075-.014.062-.01-.041,0a.482.482,0,0,1,.144-.01,1.15,1.15,0,0,1,.154,0h.1a1.057,1.057,0,0,1,.322.079c.024.007.2.069.041.01a1.288,1.288,0,0,1,.2.1c.048.027.092.055.137.086s.164.075.027.017a.962.962,0,0,1,.254.247c.034.038.14.113.021.021a.674.674,0,0,1,.113.171l.062.113c.01.024.024.045.034.068q.046.1-.01-.021a1.009,1.009,0,0,1,.1.349l.01.051c.014.079.01.069,0-.024a.578.578,0,0,1,.01.206.691.691,0,0,0,.685.685.7.7,0,0,0,.685-.685,2.847,2.847,0,1,0-2.381,2.8,2.884,2.884,0,0,0,2.381-2.8.692.692,0,0,0-.685-.685A.7.7,0,0,0,825.934,231.006Z" transform="translate(366.794 2907.577)" fill="url(#linear-gradient)"/>
    <path id="Path_248822_-_Outline" data-name="Path 248822 - Outline" d="M824.491,234.086A3.093,3.093,0,0,1,821.7,232.4a3.095,3.095,0,0,1,2.779-4.492,2.952,2.952,0,0,1,.907.14,3.131,3.131,0,0,1,2.17,2.951.917.917,0,0,1-.008.126,3.124,3.124,0,0,1-2.587,2.923A3.273,3.273,0,0,1,824.491,234.086Zm-.013-5.674a2.6,2.6,0,0,0-1.947.86,2.636,2.636,0,0,0-.382,2.913,2.59,2.59,0,0,0,2.342,1.4,2.771,2.771,0,0,0,.4-.029,2.575,2.575,0,0,0,1.992-1.659,1.011,1.011,0,0,1-.249.043h-.039a.879.879,0,0,1-.567-.213l-.009.014-.019.04a1.857,1.857,0,0,1-.091.176.365.365,0,0,1-.129.157l0,0,0,0c-.034.038-.07.076-.107.113l-.008.008-.086.079,0,0-.035.032h0a.444.444,0,0,1-.082.062,1.922,1.922,0,0,1-.181.1l-.041.022-.037.019-.046.023a.591.591,0,0,1-.089.04l0,0-.012,0c-.055.018-.082.027-.1.032l-.043.014a.884.884,0,0,1-.271.058l-.042,0h-.005c-.066,0-.127,0-.186,0h-.073a.519.519,0,0,1-.163-.022l-.008,0a2.151,2.151,0,0,1-.237-.063h0a.414.414,0,0,1-.243-.1l-.057-.03a1.32,1.32,0,0,1-.15-.094h0a.419.419,0,0,1-.167-.128c-.024-.024-.046-.048-.065-.07l-.025-.027c-.028-.028-.053-.057-.077-.084h0a.312.312,0,0,1-.041-.043l-.037-.046,0,0-.006-.01c-.043-.07-.084-.142-.124-.213a.418.418,0,0,1-.1-.233l-.006-.018-.008-.024a1.545,1.545,0,0,1-.069-.27.548.548,0,0,1-.006-.074s0-.012,0-.021h0c0-.012,0-.024,0-.032v-.018h0v-.253a.436.436,0,0,1,.04-.2c.013-.059.027-.12.046-.183,0-.016.012-.043.02-.07h0c0-.013.01-.025.016-.037h0a.371.371,0,0,1,.046-.094c.04-.079.084-.155.13-.228l0,0a.511.511,0,0,1,.144-.18,2.425,2.425,0,0,1,.174-.17h0l.024-.022,0,0,.027-.02.007-.006a.327.327,0,0,1,.068-.046,2.219,2.219,0,0,1,.253-.146.385.385,0,0,1,.1-.048h0a.274.274,0,0,1,.1-.029c.062-.02.123-.035.183-.049a.392.392,0,0,1,.169-.035l.03,0h.177l.2,0v0a1.455,1.455,0,0,1,.336.088l.043.014v0h0l.012,0h0a.583.583,0,0,1,.065.027c.05.023.095.048.135.071l.016.009c.059.034.107.064.153.1l.016.008.02.009.009,0h0a.323.323,0,0,1,.117.1,1.759,1.759,0,0,1,.138.153l.029.034h0a.33.33,0,0,1,.139.188l.005.009.019.035,0,.008.072.135.006.011a.99.99,0,0,1,.576-.22h.04a.835.835,0,0,1,.242.036,2.625,2.625,0,0,0-1.654-1.575A2.453,2.453,0,0,0,824.477,228.412Zm-.5,3.73.073.023a1.89,1.89,0,0,0,.2.055l.041.007.047.007h.06c.055,0,.1,0,.153,0l.109-.01v0c.027-.007.063-.019.085-.026l.067-.021.01,0,.07-.023.03-.01.042-.022.041-.021.034-.018a1.439,1.439,0,0,0,.141-.081l.021-.02.114-.1c.027-.028.056-.059.086-.092l0,0a.555.555,0,0,1,.046-.045l.005,0h0a.981.981,0,0,0,.087-.161l.028-.059.012-.023.017-.039.009-.027c.023-.077.044-.162.066-.267,0-.024,0-.053,0-.082s0-.045,0-.067,0-.039,0-.062,0-.024,0-.036l0-.019,0-.015-.01-.051c0-.018-.008-.042-.013-.069s-.019-.1-.031-.145l-.011-.021h0l-.006-.013-.022-.046h0c-.007-.013-.014-.027-.021-.041l-.055-.1-.027-.048c-.01-.018-.026-.048-.035-.061a.525.525,0,0,1-.039-.038l0,0-.039-.047a.862.862,0,0,0-.129-.136h0a.576.576,0,0,1-.062-.035c-.039-.027-.077-.05-.123-.077l-.014-.008c-.035-.02-.069-.038-.1-.053l-.02-.007-.048-.016-.014,0a.948.948,0,0,0-.238-.064H824.5a.906.906,0,0,0-.121,0h-.057l-.011,0-.02,0-.021,0c-.071.016-.138.031-.2.052l-.018.005-.051.013-.038.019a1.71,1.71,0,0,0-.236.136l-.024.017-.017.015-.008.007h0a1.746,1.746,0,0,0-.165.164l-.065.082a2.394,2.394,0,0,0-.121.214l-.013.029,0,0c-.006.021-.012.041-.014.048l0,.014c-.018.06-.032.124-.047.191l-.007.03-.008.092c0,.059,0,.121,0,.18v.013c0,.012,0,.046,0,.074a1.23,1.23,0,0,0,.048.175l.009.028c.007.024.015.044.023.065l.014.039c.047.084.091.163.137.239l.036.042c.022.025.042.048.061.067l.005.006.034.037a.942.942,0,0,0,.075.078.563.563,0,0,1,.068.04l.006,0a.8.8,0,0,0,.1.062l.064.034Zm2.208-1.136a.444.444,0,0,0,.408.436h.015a.462.462,0,0,0,.441-.36q0-.041,0-.081a.447.447,0,0,0-.134-.308.389.389,0,0,0-.289-.125A.454.454,0,0,0,826.184,231.006Z" transform="translate(366.794 2907.577)" fill="url(#linear-gradient)"/>
  </g>
</svg>
