<svg xmlns="http://www.w3.org/2000/svg" xmlns:xlink="http://www.w3.org/1999/xlink" width="315" height="117" viewBox="0 0 315 117">
  <defs>
    <clipPath id="clip-path">
      <rect width="310.954" height="113.954" fill="none"/>
    </clipPath>
    <clipPath id="clip-path-2">
      <rect id="Rectangle_8796" data-name="Rectangle 8796" width="231.954" height="231.954" fill="none"/>
    </clipPath>
  </defs>
  <g id="Leafberry-BG" transform="translate(-1280 -11286)">
    <g id="Rectangle_8789" data-name="Rectangle 8789" transform="translate(1280 11286)" fill="#e6e6e6" stroke="#fff" stroke-width="1">
      <rect width="315" height="117" rx="2" stroke="none"/>
      <rect x="0.5" y="0.5" width="314" height="116" rx="1.5" fill="none"/>
    </g>
    <g id="Repeat_Grid_18" data-name="Repeat Grid 18" transform="translate(1280 11286)" clip-path="url(#clip-path)">
      <g id="Group_16994" data-name="Group 16994">
        <g id="Group_16993" data-name="Group 16993" clip-path="url(#clip-path-2)">
          <g id="Group_16992" data-name="Group 16992">
            <g id="Group_16991" data-name="Group 16991" clip-path="url(#clip-path-2)">
              <g id="Group_16990" data-name="Group 16990" opacity="0.1">
                <g id="Group_16989" data-name="Group 16989">
                  <g id="Group_16988" data-name="Group 16988" clip-path="url(#clip-path-2)">
                    <path id="Path_221288" data-name="Path 221288" d="M21.431,0c.255,27.538.206,59.327.074,86.983.052,48.285.381,96.694-.074,144.971h-.053c-.454-48.275-.126-96.688-.073-144.971-.08-27.638-.283-59.554.126-86.983" transform="translate(-9.963)" fill="#100f0c"/>
                    <path id="Path_221289" data-name="Path 221289" d="M48.647,0c.255,27.538.207,59.327.073,86.983.053,48.285.381,96.694-.073,144.971h-.053c-.455-48.275-.126-96.688-.073-144.971-.08-27.638-.283-59.554.126-86.983" transform="translate(-22.79)" fill="#100f0c"/>
                    <path id="Path_221290" data-name="Path 221290" d="M74.9,0c.255,27.538.206,59.327.074,86.983.052,48.285.381,96.694-.074,144.971h-.053c-.454-48.275-.126-96.688-.074-144.971C74.689,59.345,74.486,27.429,74.9,0" transform="translate(-35.16)" fill="#100f0c"/>
                    <path id="Path_221291" data-name="Path 221291" d="M102.111,0c.255,27.538.207,59.327.074,86.983.053,48.285.381,96.694-.074,144.971h-.053c-.455-48.275-.126-96.688-.074-144.971-.08-27.638-.283-59.554.126-86.983" transform="translate(-47.986)" fill="#100f0c"/>
                    <path id="Path_221292" data-name="Path 221292" d="M126.659,0c.255,27.538.206,59.327.074,86.983.052,48.285.381,96.694-.074,144.971h-.053c-.454-48.275-.126-96.688-.074-144.971-.08-27.638-.283-59.554.126-86.983" transform="translate(-59.555)" fill="#100f0c"/>
                    <path id="Path_221293" data-name="Path 221293" d="M153.875,0c.255,27.538.207,59.327.073,86.983.053,48.285.381,96.694-.073,144.971h-.053c-.455-48.275-.126-96.688-.074-144.971-.08-27.638-.283-59.554.126-86.983" transform="translate(-72.381)" fill="#100f0c"/>
                    <path id="Path_221294" data-name="Path 221294" d="M180.123,0c.255,27.538.206,59.327.074,86.983.052,48.285.381,96.694-.074,144.971h-.053c-.454-48.275-.126-96.688-.073-144.971-.08-27.638-.283-59.554.126-86.983" transform="translate(-84.752)" fill="#100f0c"/>
                    <path id="Path_221295" data-name="Path 221295" d="M207.339,0c.255,27.538.207,59.327.073,86.983.053,48.285.381,96.694-.073,144.971h-.053c-.455-48.275-.126-96.688-.073-144.971-.08-27.638-.283-59.554.126-86.983" transform="translate(-97.578)" fill="#100f0c"/>
                    <path id="Path_221296" data-name="Path 221296" d="M234.554,0c.255,27.538.207,59.327.074,86.983.052,48.285.381,96.694-.074,144.971H234.5c-.455-48.275-.126-96.688-.074-144.971-.08-27.638-.282-59.553.126-86.983" transform="translate(-110.404)" fill="#100f0c"/>
                    <path id="Path_221297" data-name="Path 221297" d="M261.77,0c.255,27.538.206,59.327.074,86.983.052,48.285.381,96.694-.074,144.971h-.053c-.454-48.275-.126-96.688-.073-144.971-.08-27.638-.283-59.554.126-86.983" transform="translate(-123.23)" fill="#100f0c"/>
                    <path id="Path_221298" data-name="Path 221298" d="M288.018,0c.255,27.538.207,59.327.074,86.983.052,48.285.381,96.694-.074,144.971h-.053c-.455-48.275-.126-96.688-.073-144.971-.08-27.638-.282-59.553.126-86.983" transform="translate(-135.601)" fill="#100f0c"/>
                    <path id="Path_221299" data-name="Path 221299" d="M315.234,0c.255,27.538.206,59.327.074,86.983.052,48.285.381,96.694-.074,144.971h-.053c-.454-48.275-.126-96.688-.073-144.971-.08-27.638-.283-59.554.126-86.983" transform="translate(-148.427)" fill="#100f0c"/>
                    <path id="Path_221300" data-name="Path 221300" d="M339.781,0c.255,27.538.207,59.327.074,86.983.052,48.285.381,96.694-.074,144.971h-.053c-.455-48.275-.126-96.688-.073-144.971-.08-27.638-.282-59.553.126-86.983" transform="translate(-159.995)" fill="#100f0c"/>
                    <path id="Path_221301" data-name="Path 221301" d="M367,0c.255,27.538.206,59.327.074,86.983.052,48.285.381,96.694-.074,144.971h-.053c-.454-48.275-.126-96.688-.073-144.971-.08-27.638-.283-59.554.126-86.983" transform="translate(-172.822)" fill="#100f0c"/>
                    <path id="Path_221302" data-name="Path 221302" d="M393.245,0c.255,27.538.207,59.327.074,86.983.052,48.285.381,96.694-.074,144.971h-.053c-.455-48.275-.126-96.688-.074-144.971-.08-27.638-.282-59.553.126-86.983" transform="translate(-185.192)" fill="#100f0c"/>
                    <path id="Path_221303" data-name="Path 221303" d="M420.461,0c.255,27.538.206,59.327.074,86.983.052,48.285.381,96.694-.074,144.971h-.053c-.454-48.275-.126-96.688-.074-144.971-.08-27.638-.283-59.554.126-86.983" transform="translate(-198.018)" fill="#100f0c"/>
                    <path id="Path_221304" data-name="Path 221304" d="M0,418.607c27.538-.255,59.327-.207,86.983-.074,48.285-.053,96.694-.381,144.971.074v.053c-48.275.455-96.688.126-144.971.073-27.638.08-59.554.283-86.983-.126" transform="translate(0 -197.169)" fill="#100f0c"/>
                    <path id="Path_221305" data-name="Path 221305" d="M0,391.392c27.538-.255,59.327-.207,86.983-.073,48.285-.053,96.694-.381,144.971.073v.053c-48.275.455-96.688.126-144.971.073-27.638.08-59.554.283-86.983-.126" transform="translate(0 -184.344)" fill="#100f0c"/>
                    <path id="Path_221306" data-name="Path 221306" d="M0,365.143c27.538-.255,59.327-.207,86.983-.073,48.285-.053,96.694-.381,144.971.073v.053c-48.275.455-96.688.126-144.971.073-27.638.08-59.554.283-86.983-.126" transform="translate(0 -171.973)" fill="#100f0c"/>
                    <path id="Path_221307" data-name="Path 221307" d="M0,337.928c27.538-.255,59.327-.207,86.983-.073,48.285-.053,96.694-.381,144.971.073v.053c-48.275.455-96.688.126-144.971.074-27.638.08-59.554.283-86.983-.126" transform="translate(0 -159.147)" fill="#100f0c"/>
                    <path id="Path_221308" data-name="Path 221308" d="M0,313.38c27.538-.255,59.327-.207,86.983-.074,48.285-.053,96.694-.381,144.971.074v.053c-48.275.455-96.688.126-144.971.073-27.638.08-59.554.283-86.983-.126" transform="translate(0 -147.578)" fill="#100f0c"/>
                    <path id="Path_221309" data-name="Path 221309" d="M0,286.164c27.538-.255,59.327-.207,86.983-.074,48.285-.053,96.694-.381,144.971.074v.053c-48.275.455-96.688.126-144.971.073-27.638.08-59.554.283-86.983-.126" transform="translate(0 -134.752)" fill="#100f0c"/>
                    <path id="Path_221310" data-name="Path 221310" d="M0,259.916c27.538-.255,59.327-.207,86.983-.074,48.285-.053,96.694-.381,144.971.074v.053c-48.275.455-96.688.126-144.971.073-27.638.08-59.554.283-86.983-.126" transform="translate(0 -122.381)" fill="#100f0c"/>
                    <path id="Path_221311" data-name="Path 221311" d="M0,232.7c27.538-.255,59.327-.207,86.983-.074,48.285-.053,96.694-.381,144.971.074v.053c-48.275.455-96.688.126-144.971.073-27.638.08-59.554.283-86.983-.126" transform="translate(0 -109.555)" fill="#100f0c"/>
                    <path id="Path_221312" data-name="Path 221312" d="M0,205.485c27.538-.255,59.327-.206,86.983-.073,48.285-.053,96.694-.381,144.971.073v.053c-48.275.455-96.688.126-144.971.074-27.638.08-59.554.283-86.983-.126" transform="translate(0 -96.729)" fill="#100f0c"/>
                    <path id="Path_221313" data-name="Path 221313" d="M231.954,178.322c-27.538.255-59.327.206-86.983.073-48.285.053-96.694.381-144.971-.073v-.053c48.275-.455,96.688-.126,144.971-.074,27.638-.08,59.554-.283,86.983.126" transform="translate(0 -83.903)" fill="#100f0c"/>
                    <path id="Path_221314" data-name="Path 221314" d="M0,152.021c27.538-.255,59.327-.207,86.983-.073,48.285-.053,96.694-.381,144.971.073v.053c-48.275.455-96.688.126-144.971.074-27.638.08-59.554.283-86.983-.126" transform="translate(0 -71.533)" fill="#100f0c"/>
                    <path id="Path_221315" data-name="Path 221315" d="M0,124.805c27.538-.255,59.327-.207,86.983-.074,48.285-.053,96.694-.381,144.971.074v.053c-48.275.455-96.688.126-144.971.074-27.638.08-59.554.283-86.983-.126" transform="translate(0 -58.706)" fill="#100f0c"/>
                    <path id="Path_221316" data-name="Path 221316" d="M0,100.257c27.538-.255,59.327-.206,86.983-.073,48.285-.053,96.694-.381,144.971.073v.053c-48.275.455-96.688.126-144.971.073-27.638.08-59.554.283-86.983-.126" transform="translate(0 -47.137)" fill="#100f0c"/>
                    <path id="Path_221317" data-name="Path 221317" d="M0,73.041c27.538-.255,59.327-.207,86.983-.074,48.286-.053,96.694-.381,144.971.074v.053c-48.275.455-96.688.126-144.971.073-27.638.08-59.554.283-86.983-.126" transform="translate(0 -34.311)" fill="#100f0c"/>
                    <path id="Path_221318" data-name="Path 221318" d="M0,46.793c27.538-.255,59.327-.207,86.983-.073,48.285-.053,96.694-.381,144.971.073v.053c-48.275.455-96.688.126-144.971.073C59.345,47,27.429,47.2,0,46.793" transform="translate(0 -21.941)" fill="#100f0c"/>
                    <path id="Path_221319" data-name="Path 221319" d="M0,19.578c27.538-.255,59.327-.207,86.983-.073,48.285-.053,96.694-.381,144.971.073v.053c-48.275.455-96.688.126-144.971.073-27.638.08-59.554.283-86.983-.126" transform="translate(0 -9.115)" fill="#100f0c"/>
                  </g>
                </g>
              </g>
            </g>
          </g>
        </g>
      </g>
      <g id="Group_16994-2" data-name="Group 16994" transform="translate(223)">
        <g id="Group_16993-2" data-name="Group 16993" clip-path="url(#clip-path-2)">
          <g id="Group_16992-2" data-name="Group 16992">
            <g id="Group_16991-2" data-name="Group 16991" clip-path="url(#clip-path-2)">
              <g id="Group_16990-2" data-name="Group 16990" opacity="0.1">
                <g id="Group_16989-2" data-name="Group 16989">
                  <g id="Group_16988-2" data-name="Group 16988" clip-path="url(#clip-path-2)">
                    <path id="Path_221288-2" data-name="Path 221288" d="M21.431,0c.255,27.538.206,59.327.074,86.983.052,48.285.381,96.694-.074,144.971h-.053c-.454-48.275-.126-96.688-.073-144.971-.08-27.638-.283-59.554.126-86.983" transform="translate(-9.963)" fill="#100f0c"/>
                    <path id="Path_221289-2" data-name="Path 221289" d="M48.647,0c.255,27.538.207,59.327.073,86.983.053,48.285.381,96.694-.073,144.971h-.053c-.455-48.275-.126-96.688-.073-144.971-.08-27.638-.283-59.554.126-86.983" transform="translate(-22.79)" fill="#100f0c"/>
                    <path id="Path_221290-2" data-name="Path 221290" d="M74.9,0c.255,27.538.206,59.327.074,86.983.052,48.285.381,96.694-.074,144.971h-.053c-.454-48.275-.126-96.688-.074-144.971C74.689,59.345,74.486,27.429,74.9,0" transform="translate(-35.16)" fill="#100f0c"/>
                    <path id="Path_221291-2" data-name="Path 221291" d="M102.111,0c.255,27.538.207,59.327.074,86.983.053,48.285.381,96.694-.074,144.971h-.053c-.455-48.275-.126-96.688-.074-144.971-.08-27.638-.283-59.554.126-86.983" transform="translate(-47.986)" fill="#100f0c"/>
                    <path id="Path_221292-2" data-name="Path 221292" d="M126.659,0c.255,27.538.206,59.327.074,86.983.052,48.285.381,96.694-.074,144.971h-.053c-.454-48.275-.126-96.688-.074-144.971-.08-27.638-.283-59.554.126-86.983" transform="translate(-59.555)" fill="#100f0c"/>
                    <path id="Path_221293-2" data-name="Path 221293" d="M153.875,0c.255,27.538.207,59.327.073,86.983.053,48.285.381,96.694-.073,144.971h-.053c-.455-48.275-.126-96.688-.074-144.971-.08-27.638-.283-59.554.126-86.983" transform="translate(-72.381)" fill="#100f0c"/>
                    <path id="Path_221294-2" data-name="Path 221294" d="M180.123,0c.255,27.538.206,59.327.074,86.983.052,48.285.381,96.694-.074,144.971h-.053c-.454-48.275-.126-96.688-.073-144.971-.08-27.638-.283-59.554.126-86.983" transform="translate(-84.752)" fill="#100f0c"/>
                    <path id="Path_221295-2" data-name="Path 221295" d="M207.339,0c.255,27.538.207,59.327.073,86.983.053,48.285.381,96.694-.073,144.971h-.053c-.455-48.275-.126-96.688-.073-144.971-.08-27.638-.283-59.554.126-86.983" transform="translate(-97.578)" fill="#100f0c"/>
                    <path id="Path_221296-2" data-name="Path 221296" d="M234.554,0c.255,27.538.207,59.327.074,86.983.052,48.285.381,96.694-.074,144.971H234.5c-.455-48.275-.126-96.688-.074-144.971-.08-27.638-.282-59.553.126-86.983" transform="translate(-110.404)" fill="#100f0c"/>
                    <path id="Path_221297-2" data-name="Path 221297" d="M261.77,0c.255,27.538.206,59.327.074,86.983.052,48.285.381,96.694-.074,144.971h-.053c-.454-48.275-.126-96.688-.073-144.971-.08-27.638-.283-59.554.126-86.983" transform="translate(-123.23)" fill="#100f0c"/>
                    <path id="Path_221298-2" data-name="Path 221298" d="M288.018,0c.255,27.538.207,59.327.074,86.983.052,48.285.381,96.694-.074,144.971h-.053c-.455-48.275-.126-96.688-.073-144.971-.08-27.638-.282-59.553.126-86.983" transform="translate(-135.601)" fill="#100f0c"/>
                    <path id="Path_221299-2" data-name="Path 221299" d="M315.234,0c.255,27.538.206,59.327.074,86.983.052,48.285.381,96.694-.074,144.971h-.053c-.454-48.275-.126-96.688-.073-144.971-.08-27.638-.283-59.554.126-86.983" transform="translate(-148.427)" fill="#100f0c"/>
                    <path id="Path_221300-2" data-name="Path 221300" d="M339.781,0c.255,27.538.207,59.327.074,86.983.052,48.285.381,96.694-.074,144.971h-.053c-.455-48.275-.126-96.688-.073-144.971-.08-27.638-.282-59.553.126-86.983" transform="translate(-159.995)" fill="#100f0c"/>
                    <path id="Path_221301-2" data-name="Path 221301" d="M367,0c.255,27.538.206,59.327.074,86.983.052,48.285.381,96.694-.074,144.971h-.053c-.454-48.275-.126-96.688-.073-144.971-.08-27.638-.283-59.554.126-86.983" transform="translate(-172.822)" fill="#100f0c"/>
                    <path id="Path_221302-2" data-name="Path 221302" d="M393.245,0c.255,27.538.207,59.327.074,86.983.052,48.285.381,96.694-.074,144.971h-.053c-.455-48.275-.126-96.688-.074-144.971-.08-27.638-.282-59.553.126-86.983" transform="translate(-185.192)" fill="#100f0c"/>
                    <path id="Path_221303-2" data-name="Path 221303" d="M420.461,0c.255,27.538.206,59.327.074,86.983.052,48.285.381,96.694-.074,144.971h-.053c-.454-48.275-.126-96.688-.074-144.971-.08-27.638-.283-59.554.126-86.983" transform="translate(-198.018)" fill="#100f0c"/>
                    <path id="Path_221304-2" data-name="Path 221304" d="M0,418.607c27.538-.255,59.327-.207,86.983-.074,48.285-.053,96.694-.381,144.971.074v.053c-48.275.455-96.688.126-144.971.073-27.638.08-59.554.283-86.983-.126" transform="translate(0 -197.169)" fill="#100f0c"/>
                    <path id="Path_221305-2" data-name="Path 221305" d="M0,391.392c27.538-.255,59.327-.207,86.983-.073,48.285-.053,96.694-.381,144.971.073v.053c-48.275.455-96.688.126-144.971.073-27.638.08-59.554.283-86.983-.126" transform="translate(0 -184.344)" fill="#100f0c"/>
                    <path id="Path_221306-2" data-name="Path 221306" d="M0,365.143c27.538-.255,59.327-.207,86.983-.073,48.285-.053,96.694-.381,144.971.073v.053c-48.275.455-96.688.126-144.971.073-27.638.08-59.554.283-86.983-.126" transform="translate(0 -171.973)" fill="#100f0c"/>
                    <path id="Path_221307-2" data-name="Path 221307" d="M0,337.928c27.538-.255,59.327-.207,86.983-.073,48.285-.053,96.694-.381,144.971.073v.053c-48.275.455-96.688.126-144.971.074-27.638.08-59.554.283-86.983-.126" transform="translate(0 -159.147)" fill="#100f0c"/>
                    <path id="Path_221308-2" data-name="Path 221308" d="M0,313.38c27.538-.255,59.327-.207,86.983-.074,48.285-.053,96.694-.381,144.971.074v.053c-48.275.455-96.688.126-144.971.073-27.638.08-59.554.283-86.983-.126" transform="translate(0 -147.578)" fill="#100f0c"/>
                    <path id="Path_221309-2" data-name="Path 221309" d="M0,286.164c27.538-.255,59.327-.207,86.983-.074,48.285-.053,96.694-.381,144.971.074v.053c-48.275.455-96.688.126-144.971.073-27.638.08-59.554.283-86.983-.126" transform="translate(0 -134.752)" fill="#100f0c"/>
                    <path id="Path_221310-2" data-name="Path 221310" d="M0,259.916c27.538-.255,59.327-.207,86.983-.074,48.285-.053,96.694-.381,144.971.074v.053c-48.275.455-96.688.126-144.971.073-27.638.08-59.554.283-86.983-.126" transform="translate(0 -122.381)" fill="#100f0c"/>
                    <path id="Path_221311-2" data-name="Path 221311" d="M0,232.7c27.538-.255,59.327-.207,86.983-.074,48.285-.053,96.694-.381,144.971.074v.053c-48.275.455-96.688.126-144.971.073-27.638.08-59.554.283-86.983-.126" transform="translate(0 -109.555)" fill="#100f0c"/>
                    <path id="Path_221312-2" data-name="Path 221312" d="M0,205.485c27.538-.255,59.327-.206,86.983-.073,48.285-.053,96.694-.381,144.971.073v.053c-48.275.455-96.688.126-144.971.074-27.638.08-59.554.283-86.983-.126" transform="translate(0 -96.729)" fill="#100f0c"/>
                    <path id="Path_221313-2" data-name="Path 221313" d="M231.954,178.322c-27.538.255-59.327.206-86.983.073-48.285.053-96.694.381-144.971-.073v-.053c48.275-.455,96.688-.126,144.971-.074,27.638-.08,59.554-.283,86.983.126" transform="translate(0 -83.903)" fill="#100f0c"/>
                    <path id="Path_221314-2" data-name="Path 221314" d="M0,152.021c27.538-.255,59.327-.207,86.983-.073,48.285-.053,96.694-.381,144.971.073v.053c-48.275.455-96.688.126-144.971.074-27.638.08-59.554.283-86.983-.126" transform="translate(0 -71.533)" fill="#100f0c"/>
                    <path id="Path_221315-2" data-name="Path 221315" d="M0,124.805c27.538-.255,59.327-.207,86.983-.074,48.285-.053,96.694-.381,144.971.074v.053c-48.275.455-96.688.126-144.971.074-27.638.08-59.554.283-86.983-.126" transform="translate(0 -58.706)" fill="#100f0c"/>
                    <path id="Path_221316-2" data-name="Path 221316" d="M0,100.257c27.538-.255,59.327-.206,86.983-.073,48.285-.053,96.694-.381,144.971.073v.053c-48.275.455-96.688.126-144.971.073-27.638.08-59.554.283-86.983-.126" transform="translate(0 -47.137)" fill="#100f0c"/>
                    <path id="Path_221317-2" data-name="Path 221317" d="M0,73.041c27.538-.255,59.327-.207,86.983-.074,48.286-.053,96.694-.381,144.971.074v.053c-48.275.455-96.688.126-144.971.073-27.638.08-59.554.283-86.983-.126" transform="translate(0 -34.311)" fill="#100f0c"/>
                    <path id="Path_221318-2" data-name="Path 221318" d="M0,46.793c27.538-.255,59.327-.207,86.983-.073,48.285-.053,96.694-.381,144.971.073v.053c-48.275.455-96.688.126-144.971.073C59.345,47,27.429,47.2,0,46.793" transform="translate(0 -21.941)" fill="#100f0c"/>
                    <path id="Path_221319-2" data-name="Path 221319" d="M0,19.578c27.538-.255,59.327-.207,86.983-.073,48.285-.053,96.694-.381,144.971.073v.053c-48.275.455-96.688.126-144.971.073-27.638.08-59.554.283-86.983-.126" transform="translate(0 -9.115)" fill="#100f0c"/>
                  </g>
                </g>
              </g>
            </g>
          </g>
        </g>
      </g>
    </g>
  </g>
</svg>
