<svg xmlns="http://www.w3.org/2000/svg" xmlns:xlink="http://www.w3.org/1999/xlink" width="35.411" height="30.951" viewBox="0 0 35.411 30.951">
  <defs>
    <linearGradient id="linear-gradient" x1="0.277" x2="0.798" y2="1" gradientUnits="objectBoundingBox">
      <stop offset="0" stop-color="#fff"/>
      <stop offset="1" stop-color="#fff"/>
    </linearGradient>
  </defs>
  <path id="Media-Planning-White" d="M102.636-766.552v0Zm18.077,14.867a1.956,1.956,0,0,0,1.438-.589,1.956,1.956,0,0,0,.589-1.438,1.956,1.956,0,0,0-.589-1.438,1.956,1.956,0,0,0-1.438-.589,1.956,1.956,0,0,0-1.438.589,1.956,1.956,0,0,0-.589,1.438,1.956,1.956,0,0,0,.589,1.438A1.956,1.956,0,0,0,120.713-751.685ZM130.748-767.7a1.956,1.956,0,0,0,1.438-.589,1.956,1.956,0,0,0,.589-1.438,1.956,1.956,0,0,0-.589-1.438,1.956,1.956,0,0,0-1.438-.59,1.956,1.956,0,0,0-1.438.59,1.956,1.956,0,0,0-.589,1.438,1.956,1.956,0,0,0,.589,1.438A1.956,1.956,0,0,0,130.748-767.7Zm-24.159-1.318h9.022v-2.636h-9.022Zm0,7.028h9.022v-2.636h-9.022Zm-3.413,8.346a3.066,3.066,0,0,1-2.254-.922,3.066,3.066,0,0,1-.922-2.254v-20a3.066,3.066,0,0,1,.922-2.254,3.066,3.066,0,0,1,2.254-.922h27.031a3.066,3.066,0,0,1,2.254.922,3.066,3.066,0,0,1,.922,2.254h-2.636a.516.516,0,0,0-.169-.372.516.516,0,0,0-.372-.169H103.176a.516.516,0,0,0-.372.169.516.516,0,0,0-.169.372v20a.515.515,0,0,0,.169.372.515.515,0,0,0,.372.169h9.36v2.636Zm17.537,4.6a4.5,4.5,0,0,1-3.3-1.36,4.5,4.5,0,0,1-1.36-3.3,4.493,4.493,0,0,1,.946-2.821,4.506,4.506,0,0,1,2.4-1.635v-4.869h10.035v-2.233a4.5,4.5,0,0,1-2.4-1.635,4.493,4.493,0,0,1-.946-2.821,4.5,4.5,0,0,1,1.36-3.3,4.5,4.5,0,0,1,3.3-1.36,4.5,4.5,0,0,1,3.3,1.36,4.5,4.5,0,0,1,1.36,3.3,4.493,4.493,0,0,1-.946,2.821,4.5,4.5,0,0,1-2.4,1.635v4.869H122.031v2.234a4.5,4.5,0,0,1,2.4,1.635,4.492,4.492,0,0,1,.946,2.821,4.5,4.5,0,0,1-1.36,3.3A4.5,4.5,0,0,1,120.713-749.049Z" transform="translate(-100 780)" fill="url(#linear-gradient)"/>
</svg>
