<svg xmlns="http://www.w3.org/2000/svg" xmlns:xlink="http://www.w3.org/1999/xlink" width="30.126" height="30.131" viewBox="0 0 30.126 30.131">
  <defs>
    <linearGradient id="linear-gradient" x1="0.231" y1="-0.096" x2="1" y2="1.217" gradientUnits="objectBoundingBox">
      <stop offset="0" stop-color="#ad1123"/>
      <stop offset="1"/>
    </linearGradient>
  </defs>
  <g id="Media-Plans" transform="translate(-1532.5 -3118.5)">
    <path id="Path_248825" data-name="Path 248825" d="M28.712.13H.669A.54.54,0,0,0,.13.669V28.712a.54.54,0,0,0,.539.539H11.392a.539.539,0,1,0,0-1.078H1.208v-8.3h5.5a.539.539,0,1,0,0-1.078h-5.5V1.208H14.873v8.48a.539.539,0,0,0,1.078,0V1.208H28.182V14.485H10.835a.539.539,0,0,0,0,1.078H28.173V28.182h-7.8l-4.021-5.857a.537.537,0,1,0-.882.612l4.18,6.09a.536.536,0,0,0,.443.233h8.621a.54.54,0,0,0,.539-.539V.669A.55.55,0,0,0,28.712.13Z" transform="translate(1532.87 3118.87)" fill="url(#linear-gradient)"/>
    <path id="Path_248825_-_Outline" data-name="Path 248825 - Outline" d="M.669-.37H28.712A1.045,1.045,0,0,1,29.756.654V28.721a1.04,1.04,0,0,1-1.039,1.039H20.1a1.037,1.037,0,0,1-.855-.45L15.06,23.22a1.04,1.04,0,0,1,.267-1.445,1.018,1.018,0,0,1,.584-.182,1.042,1.042,0,0,1,.853.446l3.874,5.643h7.036V16.063H10.835a1.039,1.039,0,0,1,0-2.078H27.682V1.708H16.452v7.98a1.039,1.039,0,0,1-2.078,0V1.708H1.708V18.293h5a1.039,1.039,0,0,1,0,2.078h-5v7.3h9.684a1.039,1.039,0,1,1,0,2.078H.669A1.04,1.04,0,0,1-.37,28.712V.669A1.04,1.04,0,0,1,.669-.37ZM28.756.681A.051.051,0,0,0,28.712.63H.669A.04.04,0,0,0,.63.669V28.712a.04.04,0,0,0,.039.039H11.392a.039.039,0,1,0,0-.078H.708v-9.3h6a.039.039,0,0,0,0-.078h-6V.708H15.373v8.98a.039.039,0,0,0,.078,0V.708H28.682V14.985H10.835a.039.039,0,0,0,0,.078H28.673V28.682H20.111l-4.169-6.074a.039.039,0,0,0-.031-.015.024.024,0,0,0-.015,0,.037.037,0,0,0-.019.025.042.042,0,0,0,.008.032l4.18,6.09a.036.036,0,0,0,.031.016h8.621a.04.04,0,0,0,.039-.039Z" transform="translate(1532.87 3118.87)" fill="url(#linear-gradient)"/>
  </g>
</svg>
