<svg xmlns="http://www.w3.org/2000/svg" xmlns:xlink="http://www.w3.org/1999/xlink" width="30.866" height="31.319" viewBox="0 0 30.866 31.319">
  <defs>
    <linearGradient id="linear-gradient" x1="0.277" x2="0.798" y2="1" gradientUnits="objectBoundingBox">
      <stop offset="0" stop-color="#ad1123"/>
      <stop offset="1"/>
    </linearGradient>
  </defs>
  <path id="Monitoring" d="M141.362-792.521v-9.986H169.5v9.986h-2.723v-7.263h-22.7v7.263Zm.91-12.395a2.192,2.192,0,0,1-1.608-.661,2.183,2.183,0,0,1-.664-1.606,2.194,2.194,0,0,1,.661-1.608,2.184,2.184,0,0,1,1.606-.663,2.192,2.192,0,0,1,1.608.661,2.182,2.182,0,0,1,.664,1.606,2.193,2.193,0,0,1-.661,1.608A2.182,2.182,0,0,1,142.272-804.916Zm4.781-.1v-15.538a3.16,3.16,0,0,1,.964-2.318,3.16,3.16,0,0,1,2.318-.964h10.2a3.16,3.16,0,0,1,2.318.964,3.16,3.16,0,0,1,.964,2.318v15.538Zm21.545.1a2.192,2.192,0,0,1-1.608-.661,2.183,2.183,0,0,1-.664-1.606,2.194,2.194,0,0,1,.661-1.608,2.184,2.184,0,0,1,1.606-.663,2.193,2.193,0,0,1,1.608.661,2.183,2.183,0,0,1,.664,1.606,2.193,2.193,0,0,1-.661,1.608A2.183,2.183,0,0,1,168.6-804.916Zm-18.822-2.828H161.09v-12.814a.543.543,0,0,0-.158-.4.543.543,0,0,0-.4-.158h-10.2a.543.543,0,0,0-.4.158.543.543,0,0,0-.158.4Zm0,0h0Z" transform="translate(-140 823.84)" fill="url(#linear-gradient)"/>
</svg>
