<svg xmlns="http://www.w3.org/2000/svg" xmlns:xlink="http://www.w3.org/1999/xlink" width="34.953" height="30.55" viewBox="0 0 34.953 30.55">
  <defs>
    <linearGradient id="linear-gradient" x1="0.283" y1="0.088" x2="0.701" y2="1.093" gradientUnits="objectBoundingBox">
      <stop offset="0" stop-color="#ad1123"/>
      <stop offset="1"/>
    </linearGradient>
  </defs>
  <path id="OOH-Campaign" d="M102.6-766.726v0Zm17.843,14.675a1.931,1.931,0,0,0,1.419-.582,1.931,1.931,0,0,0,.582-1.419,1.931,1.931,0,0,0-.582-1.419,1.931,1.931,0,0,0-1.419-.582,1.931,1.931,0,0,0-1.419.582,1.931,1.931,0,0,0-.582,1.419,1.931,1.931,0,0,0,.582,1.419A1.931,1.931,0,0,0,120.445-752.051Zm9.905-15.809a1.931,1.931,0,0,0,1.419-.582,1.931,1.931,0,0,0,.582-1.419,1.931,1.931,0,0,0-.582-1.419,1.93,1.93,0,0,0-1.419-.582,1.93,1.93,0,0,0-1.419.582,1.931,1.931,0,0,0-.582,1.419,1.931,1.931,0,0,0,.582,1.419A1.931,1.931,0,0,0,130.35-767.86Zm-23.847-1.3h8.905v-2.6H106.5Zm0,6.937h8.905v-2.6H106.5Zm-3.368,8.238a3.026,3.026,0,0,1-2.225-.91,3.026,3.026,0,0,1-.911-2.225v-19.744a3.026,3.026,0,0,1,.911-2.225,3.026,3.026,0,0,1,2.225-.911h26.681a3.026,3.026,0,0,1,2.225.911,3.026,3.026,0,0,1,.911,2.225h-2.6a.509.509,0,0,0-.167-.367.509.509,0,0,0-.367-.167H103.135a.509.509,0,0,0-.367.167.509.509,0,0,0-.167.367v19.744a.509.509,0,0,0,.167.367.509.509,0,0,0,.367.167h9.239v2.6Zm17.31,4.536a4.438,4.438,0,0,1-3.26-1.342,4.438,4.438,0,0,1-1.342-3.26,4.435,4.435,0,0,1,.933-2.785,4.448,4.448,0,0,1,2.368-1.614v-4.806h9.905v-2.2a4.445,4.445,0,0,1-2.368-1.614,4.435,4.435,0,0,1-.934-2.785,4.438,4.438,0,0,1,1.342-3.26,4.438,4.438,0,0,1,3.26-1.343,4.438,4.438,0,0,1,3.26,1.343,4.438,4.438,0,0,1,1.342,3.26,4.435,4.435,0,0,1-.934,2.785,4.446,4.446,0,0,1-2.368,1.614v4.806h-9.905v2.2a4.446,4.446,0,0,1,2.368,1.614,4.434,4.434,0,0,1,.934,2.785,4.438,4.438,0,0,1-1.342,3.26A4.438,4.438,0,0,1,120.445-749.45Z" transform="translate(-100 780)" fill="url(#linear-gradient)"/>
</svg>
