<svg xmlns="http://www.w3.org/2000/svg" xmlns:xlink="http://www.w3.org/1999/xlink" width="33.318" height="31.776" viewBox="0 0 33.318 31.776">
  <defs>
    <linearGradient id="linear-gradient" x1="0.231" y1="-0.096" x2="1" y2="1.217" gradientUnits="objectBoundingBox">
      <stop offset="0" stop-color="#ad1123"/>
      <stop offset="1"/>
    </linearGradient>
  </defs>
  <g id="Pinpoint" transform="translate(-5.745 -7.832)">
    <path id="Path_248823" data-name="Path 248823" d="M38.255,63.287l-2.569-5.817a4.172,4.172,0,0,0-3.862-2.385H27.514a.769.769,0,1,0,0,1.538h4.309A2.7,2.7,0,0,1,34.286,58.1l2.569,5.817a2.033,2.033,0,0,1-.261,2.093,2.759,2.759,0,0,1-2.2,1.046H10.418a2.715,2.715,0,0,1-2.2-1.046,2.1,2.1,0,0,1-.261-2.093L10.527,58.1a2.685,2.685,0,0,1,2.463-1.477H17.3a.769.769,0,0,0,0-1.538H12.989a4.174,4.174,0,0,0-3.862,2.385L6.558,63.287a3.6,3.6,0,0,0,.431,3.647A4.274,4.274,0,0,0,10.421,68.6H34.4a4.256,4.256,0,0,0,3.432-1.662,3.629,3.629,0,0,0,.431-3.647Z" transform="translate(0 -29.488)" fill="url(#linear-gradient)"/>
    <path id="Path_248823_-_Outline" data-name="Path 248823 - Outline" d="M34.4,69.1H10.421a4.789,4.789,0,0,1-3.832-1.862A4.083,4.083,0,0,1,6.1,63.083L8.67,57.269a4.682,4.682,0,0,1,4.319-2.683H17.3a1.269,1.269,0,0,1,0,2.538H12.989a2.194,2.194,0,0,0-2,1.178L8.416,64.116a1.6,1.6,0,0,0,.2,1.595,2.229,2.229,0,0,0,1.8.846H34.394a2.259,2.259,0,0,0,1.8-.849,1.539,1.539,0,0,0,.2-1.588L33.83,58.306a2.2,2.2,0,0,0-2.006-1.182H27.514a1.269,1.269,0,0,1,0-2.538h4.309a4.68,4.68,0,0,1,4.318,2.681l2.438,5.52h0l.134.3a4.139,4.139,0,0,1-.489,4.142A4.747,4.747,0,0,1,34.4,69.1ZM12.989,55.586a3.681,3.681,0,0,0-3.405,2.089L7.015,63.489a3.1,3.1,0,0,0,.375,3.147,3.784,3.784,0,0,0,3.031,1.46H34.4a3.745,3.745,0,0,0,3.029-1.458,3.149,3.149,0,0,0,.415-3.055l-.043-.093-2.569-5.817a3.679,3.679,0,0,0-3.4-2.087H27.514a.269.269,0,0,0,0,.538h4.309a3.211,3.211,0,0,1,2.917,1.769l0,.006,2.569,5.817a2.523,2.523,0,0,1-.323,2.6,3.262,3.262,0,0,1-2.6,1.24H10.418a3.231,3.231,0,0,1-2.6-1.247A2.591,2.591,0,0,1,7.5,63.723l0-.007L10.069,57.9a3.174,3.174,0,0,1,2.92-1.775H17.3a.269.269,0,0,0,0-.538Z" transform="translate(0 -29.488)" fill="url(#linear-gradient)"/>
    <path id="Path_248824" data-name="Path 248824" d="M38.716,20.565V32.182a.769.769,0,1,0,1.538,0V20.565a6.156,6.156,0,1,0-1.541,0Zm.769-10.694a4.616,4.616,0,1,1-4.616,4.616A4.63,4.63,0,0,1,39.485,9.871Z" transform="translate(-17.08)" fill="url(#linear-gradient)"/>
    <path id="Path_248824_-_Outline" data-name="Path 248824 - Outline" d="M39.484,7.832a6.663,6.663,0,0,1,6.656,6.656,6.588,6.588,0,0,1-1.684,4.405,6.689,6.689,0,0,1-3.7,2.1V32.182a1.269,1.269,0,0,1-2.538,0V20.992a6.639,6.639,0,0,1,1.267-13.16Zm0,24.619a.263.263,0,0,0,.269-.269V20.125l.437-.056a5.691,5.691,0,0,0,3.52-1.844,5.59,5.59,0,0,0,1.428-3.738,5.656,5.656,0,1,0-6.394,5.578h.468l0,.5V32.182A.263.263,0,0,0,39.485,32.451Zm0-23.08a5.116,5.116,0,1,1-5.116,5.116A5.122,5.122,0,0,1,39.485,9.371Zm0,9.233a4.116,4.116,0,1,0-4.116-4.116A4.121,4.121,0,0,0,39.485,18.6Z" transform="translate(-17.08)" fill="url(#linear-gradient)"/>
  </g>
</svg>
