<svg xmlns="http://www.w3.org/2000/svg" xmlns:xlink="http://www.w3.org/1999/xlink" width="186.229" height="47.725" viewBox="0 0 186.229 47.725">
  <defs>
    <clipPath id="clip-path">
      <rect id="Rectangle_6802" data-name="Rectangle 6802" width="186.229" height="47.725" fill="none"/>
    </clipPath>
  </defs>
  <g id="Retinaad-logo" clip-path="url(#clip-path)">
    <path id="Path_23" data-name="Path 23" d="M91.122,70.235c1.118,0,1.9-.58,1.9-1.605,0-.917-.593-1.294-1.643-1.568-.9-.23-1.117-.341-1.117-.681,0-.264.228-.465.665-.465a2.425,2.425,0,0,1,1.346.51l.593-.858a3,3,0,0,0-1.924-.659,1.62,1.62,0,0,0-1.812,1.562c0,1.044.674,1.332,1.716,1.6.868.221,1.043.369,1.043.658,0,.316-.28.5-.747.5A2.378,2.378,0,0,1,89.6,68.6l-.674.805a3.3,3.3,0,0,0,2.2.829m-5.929.014a2.618,2.618,0,0,0,2.123-.881l-.723-.777a1.862,1.862,0,0,1-1.361.607,1.634,1.634,0,0,1,0-3.255,1.792,1.792,0,0,1,1.332.58l.681-.784A2.7,2.7,0,1,0,85.2,70.254m-5.919-.088h1.132V64.982h-1.14Zm-4.7,0h1.14V66.033H77.3V64.982H73v1.05h1.576Zm-6.1,0h1.14V68.1l1.992-3.115h-1.3l-1.258,2.08-1.236-2.08H66.482l1.992,3.137Zm-6.132,0h3.718V69.129H63.479V64.982h-1.14ZM57.04,68l.688-1.679L58.414,68ZM55,70.166h1.157l.474-1.157h2.19l.474,1.157h1.19l-2.22-5.219h-1.05Zm-6.457,0h1.125v-3.3l2.508,3.293h.969V64.982H52.018v3.181l-2.425-3.181H48.54ZM43.238,68l.688-1.679L44.612,68Zm-2.043,2.169h1.157l.474-1.157h2.19l.474,1.157h1.192l-2.22-5.219H43.41Zm-7.478-1.03V66.011H34.6a1.562,1.562,0,0,1,0,3.122Zm-1.139,1.028H34.6a2.595,2.595,0,1,0,0-5.179H32.578Zm-6.9,0H26.8v-3.3l2.509,3.293h.97V64.982H29.151v3.181l-2.425-3.181H25.672ZM20.86,69.2a1.575,1.575,0,0,1-1.569-1.628,1.553,1.553,0,0,1,1.553-1.628,1.574,1.574,0,0,1,1.569,1.628A1.553,1.553,0,0,1,20.86,69.2m-.016,1.05a2.677,2.677,0,1,0-1.939-.759,2.677,2.677,0,0,0,1.939.759m-6.968-.088h1.14V68.1l1.989-3.115h-1.3l-1.258,2.08-1.235-2.08H11.88l1.99,3.137Zm-7.472,0h3.938V69.152H7.53V68.064H9.979V67.052H7.53V66h2.775V64.988H6.4Zm-5.294-1v-1.14H2.425c.58,0,.843.216.843.562,0,.4-.3.58-.805.58Zm0-2.087v-1.1H2.236c.48,0,.748.194.748.533,0,.4-.316.562-.82.562ZM0,70.161H2.459c1.169,0,1.938-.474,1.938-1.423a1.273,1.273,0,0,0-.97-1.285,1.276,1.276,0,0,0,.334-2.012,1.88,1.88,0,0,0-1.355-.459H0Z" transform="translate(0 -22.525)" fill="#016dd5"/>
    <path id="Path_24" data-name="Path 24" d="M44.56,8.31V0h5.851V8.31h6.01v5.113h-6.01v21.46H44.56Zm-38.7,3.146a10.557,10.557,0,0,1,8.136-3.581q.527,0,1.059.049v6.122a8.419,8.419,0,0,0-2.313-.307,6.537,6.537,0,0,0-4.966,1.942,7.571,7.571,0,0,0-1.918,5.377v13.83H0V8.31H5.859Zm29.935,7.728a7.141,7.141,0,0,0-2.785-4.772,8,8,0,0,0-9.53.163A6.379,6.379,0,0,0,21.1,19.188ZM21.1,23.7a7.413,7.413,0,0,0,9.529,6.357,7.6,7.6,0,0,0,3.745-2.474h6.916a15.38,15.38,0,0,1-6.22,6.22,14.317,14.317,0,0,1-6.58,1.516,13.3,13.3,0,0,1-13.771-13.81A13.3,13.3,0,0,1,28.49,7.727,13.321,13.321,0,0,1,42.3,21.508V23.7ZM74.351,11.456a11.03,11.03,0,0,1,16.037-.246,13.619,13.619,0,0,1,3.6,9.963V34.879H88.126V21.173a7.652,7.652,0,0,0-1.918-5.5,7.327,7.327,0,0,0-9.939,0,7.574,7.574,0,0,0-1.918,5.377V34.885H68.492V8.31h5.859ZM59.524,8.31h5.86V34.884h-5.86ZM186.2,23.284,186.229.422A.422.422,0,0,0,185.808,0h-5.061a.422.422,0,0,0-.422.422c0,.307.008,5.013.016,9.616a14.327,14.327,0,1,0,0,23.06c-.007.723-.017,1.465-.017,1.786a.422.422,0,0,0,.422.422h5.061a.422.422,0,0,0,.422-.422ZM171.836,13.162a8.408,8.408,0,1,1-8.408,8.408,8.408,8.408,0,0,1,8.408-8.408" fill="#016dd5" fill-rule="evenodd"/>
    <path id="Path_25" data-name="Path 25" d="M178.759,18.416c4.05-3.856,7.108-7.327,13.471-7.327a14.328,14.328,0,0,1,14.329,14.336v13.3a.422.422,0,0,1-.422.422h-5.061a.422.422,0,0,1-.422-.422c0-.316.01-1.034.017-1.735A14.329,14.329,0,0,1,178.764,30.3l5.061-4.824a8.408,8.408,0,1,0,8.4-8.469c-3.8,0-5.87,2.169-8.324,4.512-2.494,2.459-5.02,4.859-7.577,7.247-1.735,1.624-1.351,1.208-1.344,3.637L175,38.729a.422.422,0,0,1-.422.422h-5.061a.422.422,0,0,1-.422-.422c0-.319.008-1.067.017-1.784a14.326,14.326,0,1,1,4.4-17.753l-4.684,4.461a8.408,8.408,0,1,0-8.224,10.17,6.311,6.311,0,0,0,3.293-1.157,39.774,39.774,0,0,0,5.916-5.365c3.516-3.443,7.358-7.39,8.942-8.887" transform="translate(-50.755 -3.849)" fill="#3a05a2" fill-rule="evenodd"/>
  </g>
</svg>
