<svg xmlns="http://www.w3.org/2000/svg" xmlns:xlink="http://www.w3.org/1999/xlink" width="33.739" height="30.405" viewBox="0 0 33.739 30.405">
  <defs>
    <linearGradient id="linear-gradient" x1="0.277" x2="0.798" y2="1" gradientUnits="objectBoundingBox">
      <stop offset="0" stop-color="#ad1123"/>
      <stop offset="1"/>
    </linearGradient>
  </defs>
  <path id="Road_Traffic" data-name="Road Traffic" d="M108.207-789.6l-1.765-1.765,10.977-11,5.862,5.862,8.667-8.667,1.791,1.791-10.458,10.432-5.862-5.862Zm-5.179-1.932a2.922,2.922,0,0,1-2.148-.879,2.922,2.922,0,0,1-.879-2.148v-22.417a2.923,2.923,0,0,1,.879-2.148,2.922,2.922,0,0,1,2.148-.879h22.417a2.922,2.922,0,0,1,2.148.879,2.923,2.923,0,0,1,.879,2.148v7.034h-25.96v15.383a.492.492,0,0,0,.161.354.492.492,0,0,0,.354.161Zm-.515-20.923H125.96v-4.522a.492.492,0,0,0-.161-.354.492.492,0,0,0-.354-.161H103.028a.492.492,0,0,0-.354.161.492.492,0,0,0-.161.354Zm0,0v0Z" transform="translate(-100 820)" fill="url(#linear-gradient)"/>
</svg>
