<svg xmlns="http://www.w3.org/2000/svg" xmlns:xlink="http://www.w3.org/1999/xlink" width="315" height="234" viewBox="0 0 315 234">
  <defs>
    <clipPath id="clip-path">
      <rect width="310.954" height="231.954" fill="none"/>
    </clipPath>
    <clipPath id="clip-path-2">
      <rect id="Rectangle_8796" data-name="Rectangle 8796" width="231.954" height="231.954" fill="none"/>
    </clipPath>
    <clipPath id="clip-path-8">
      <rect id="Rectangle_8792" data-name="Rectangle 8792" width="175.99" height="96.709" fill="none"/>
    </clipPath>
  </defs>
  <g id="US-Agencies" transform="translate(-1280 -11421)">
    <g id="US-BG">
      <g id="Rectangle_8788" data-name="Rectangle 8788" transform="translate(1280 11421)" fill="#e6e6e6" stroke="#fff" stroke-width="1">
        <rect width="315" height="234" rx="2" stroke="none"/>
        <rect x="0.5" y="0.5" width="314" height="233" rx="1.5" fill="none"/>
      </g>
      <g id="Repeat_Grid_16" data-name="Repeat Grid 16" transform="translate(1283.046 11423.046)" clip-path="url(#clip-path)">
        <g id="Group_16994" data-name="Group 16994">
          <g id="Group_16993" data-name="Group 16993" clip-path="url(#clip-path-2)">
            <g id="Group_16992" data-name="Group 16992">
              <g id="Group_16991" data-name="Group 16991" clip-path="url(#clip-path-2)">
                <g id="Group_16990" data-name="Group 16990" opacity="0.1">
                  <g id="Group_16989" data-name="Group 16989">
                    <g id="Group_16988" data-name="Group 16988" clip-path="url(#clip-path-2)">
                      <path id="Path_221288" data-name="Path 221288" d="M21.431,0c.255,27.538.206,59.327.074,86.983.052,48.285.381,96.694-.074,144.971h-.053c-.454-48.275-.126-96.688-.073-144.971-.08-27.638-.283-59.554.126-86.983" transform="translate(-9.963)" fill="#100f0c"/>
                      <path id="Path_221289" data-name="Path 221289" d="M48.647,0c.255,27.538.207,59.327.073,86.983.053,48.285.381,96.694-.073,144.971h-.053c-.455-48.275-.126-96.688-.073-144.971-.08-27.638-.283-59.554.126-86.983" transform="translate(-22.79)" fill="#100f0c"/>
                      <path id="Path_221290" data-name="Path 221290" d="M74.9,0c.255,27.538.206,59.327.074,86.983.052,48.285.381,96.694-.074,144.971h-.053c-.454-48.275-.126-96.688-.074-144.971C74.689,59.345,74.486,27.429,74.9,0" transform="translate(-35.16)" fill="#100f0c"/>
                      <path id="Path_221291" data-name="Path 221291" d="M102.111,0c.255,27.538.207,59.327.074,86.983.053,48.285.381,96.694-.074,144.971h-.053c-.455-48.275-.126-96.688-.074-144.971-.08-27.638-.283-59.554.126-86.983" transform="translate(-47.986)" fill="#100f0c"/>
                      <path id="Path_221292" data-name="Path 221292" d="M126.659,0c.255,27.538.206,59.327.074,86.983.052,48.285.381,96.694-.074,144.971h-.053c-.454-48.275-.126-96.688-.074-144.971-.08-27.638-.283-59.554.126-86.983" transform="translate(-59.555)" fill="#100f0c"/>
                      <path id="Path_221293" data-name="Path 221293" d="M153.875,0c.255,27.538.207,59.327.073,86.983.053,48.285.381,96.694-.073,144.971h-.053c-.455-48.275-.126-96.688-.074-144.971-.08-27.638-.283-59.554.126-86.983" transform="translate(-72.381)" fill="#100f0c"/>
                      <path id="Path_221294" data-name="Path 221294" d="M180.123,0c.255,27.538.206,59.327.074,86.983.052,48.285.381,96.694-.074,144.971h-.053c-.454-48.275-.126-96.688-.073-144.971-.08-27.638-.283-59.554.126-86.983" transform="translate(-84.752)" fill="#100f0c"/>
                      <path id="Path_221295" data-name="Path 221295" d="M207.339,0c.255,27.538.207,59.327.073,86.983.053,48.285.381,96.694-.073,144.971h-.053c-.455-48.275-.126-96.688-.073-144.971-.08-27.638-.283-59.554.126-86.983" transform="translate(-97.578)" fill="#100f0c"/>
                      <path id="Path_221296" data-name="Path 221296" d="M234.554,0c.255,27.538.207,59.327.074,86.983.052,48.285.381,96.694-.074,144.971H234.5c-.455-48.275-.126-96.688-.074-144.971-.08-27.638-.282-59.553.126-86.983" transform="translate(-110.404)" fill="#100f0c"/>
                      <path id="Path_221297" data-name="Path 221297" d="M261.77,0c.255,27.538.206,59.327.074,86.983.052,48.285.381,96.694-.074,144.971h-.053c-.454-48.275-.126-96.688-.073-144.971-.08-27.638-.283-59.554.126-86.983" transform="translate(-123.23)" fill="#100f0c"/>
                      <path id="Path_221298" data-name="Path 221298" d="M288.018,0c.255,27.538.207,59.327.074,86.983.052,48.285.381,96.694-.074,144.971h-.053c-.455-48.275-.126-96.688-.073-144.971-.08-27.638-.282-59.553.126-86.983" transform="translate(-135.601)" fill="#100f0c"/>
                      <path id="Path_221299" data-name="Path 221299" d="M315.234,0c.255,27.538.206,59.327.074,86.983.052,48.285.381,96.694-.074,144.971h-.053c-.454-48.275-.126-96.688-.073-144.971-.08-27.638-.283-59.554.126-86.983" transform="translate(-148.427)" fill="#100f0c"/>
                      <path id="Path_221300" data-name="Path 221300" d="M339.781,0c.255,27.538.207,59.327.074,86.983.052,48.285.381,96.694-.074,144.971h-.053c-.455-48.275-.126-96.688-.073-144.971-.08-27.638-.282-59.553.126-86.983" transform="translate(-159.995)" fill="#100f0c"/>
                      <path id="Path_221301" data-name="Path 221301" d="M367,0c.255,27.538.206,59.327.074,86.983.052,48.285.381,96.694-.074,144.971h-.053c-.454-48.275-.126-96.688-.073-144.971-.08-27.638-.283-59.554.126-86.983" transform="translate(-172.822)" fill="#100f0c"/>
                      <path id="Path_221302" data-name="Path 221302" d="M393.245,0c.255,27.538.207,59.327.074,86.983.052,48.285.381,96.694-.074,144.971h-.053c-.455-48.275-.126-96.688-.074-144.971-.08-27.638-.282-59.553.126-86.983" transform="translate(-185.192)" fill="#100f0c"/>
                      <path id="Path_221303" data-name="Path 221303" d="M420.461,0c.255,27.538.206,59.327.074,86.983.052,48.285.381,96.694-.074,144.971h-.053c-.454-48.275-.126-96.688-.074-144.971-.08-27.638-.283-59.554.126-86.983" transform="translate(-198.018)" fill="#100f0c"/>
                      <path id="Path_221304" data-name="Path 221304" d="M0,418.607c27.538-.255,59.327-.207,86.983-.074,48.285-.053,96.694-.381,144.971.074v.053c-48.275.455-96.688.126-144.971.073-27.638.08-59.554.283-86.983-.126" transform="translate(0 -197.169)" fill="#100f0c"/>
                      <path id="Path_221305" data-name="Path 221305" d="M0,391.392c27.538-.255,59.327-.207,86.983-.073,48.285-.053,96.694-.381,144.971.073v.053c-48.275.455-96.688.126-144.971.073-27.638.08-59.554.283-86.983-.126" transform="translate(0 -184.344)" fill="#100f0c"/>
                      <path id="Path_221306" data-name="Path 221306" d="M0,365.143c27.538-.255,59.327-.207,86.983-.073,48.285-.053,96.694-.381,144.971.073v.053c-48.275.455-96.688.126-144.971.073-27.638.08-59.554.283-86.983-.126" transform="translate(0 -171.973)" fill="#100f0c"/>
                      <path id="Path_221307" data-name="Path 221307" d="M0,337.928c27.538-.255,59.327-.207,86.983-.073,48.285-.053,96.694-.381,144.971.073v.053c-48.275.455-96.688.126-144.971.074-27.638.08-59.554.283-86.983-.126" transform="translate(0 -159.147)" fill="#100f0c"/>
                      <path id="Path_221308" data-name="Path 221308" d="M0,313.38c27.538-.255,59.327-.207,86.983-.074,48.285-.053,96.694-.381,144.971.074v.053c-48.275.455-96.688.126-144.971.073-27.638.08-59.554.283-86.983-.126" transform="translate(0 -147.578)" fill="#100f0c"/>
                      <path id="Path_221309" data-name="Path 221309" d="M0,286.164c27.538-.255,59.327-.207,86.983-.074,48.285-.053,96.694-.381,144.971.074v.053c-48.275.455-96.688.126-144.971.073-27.638.08-59.554.283-86.983-.126" transform="translate(0 -134.752)" fill="#100f0c"/>
                      <path id="Path_221310" data-name="Path 221310" d="M0,259.916c27.538-.255,59.327-.207,86.983-.074,48.285-.053,96.694-.381,144.971.074v.053c-48.275.455-96.688.126-144.971.073-27.638.08-59.554.283-86.983-.126" transform="translate(0 -122.381)" fill="#100f0c"/>
                      <path id="Path_221311" data-name="Path 221311" d="M0,232.7c27.538-.255,59.327-.207,86.983-.074,48.285-.053,96.694-.381,144.971.074v.053c-48.275.455-96.688.126-144.971.073-27.638.08-59.554.283-86.983-.126" transform="translate(0 -109.555)" fill="#100f0c"/>
                      <path id="Path_221312" data-name="Path 221312" d="M0,205.485c27.538-.255,59.327-.206,86.983-.073,48.285-.053,96.694-.381,144.971.073v.053c-48.275.455-96.688.126-144.971.074-27.638.08-59.554.283-86.983-.126" transform="translate(0 -96.729)" fill="#100f0c"/>
                      <path id="Path_221313" data-name="Path 221313" d="M231.954,178.322c-27.538.255-59.327.206-86.983.073-48.285.053-96.694.381-144.971-.073v-.053c48.275-.455,96.688-.126,144.971-.074,27.638-.08,59.554-.283,86.983.126" transform="translate(0 -83.903)" fill="#100f0c"/>
                      <path id="Path_221314" data-name="Path 221314" d="M0,152.021c27.538-.255,59.327-.207,86.983-.073,48.285-.053,96.694-.381,144.971.073v.053c-48.275.455-96.688.126-144.971.074-27.638.08-59.554.283-86.983-.126" transform="translate(0 -71.533)" fill="#100f0c"/>
                      <path id="Path_221315" data-name="Path 221315" d="M0,124.805c27.538-.255,59.327-.207,86.983-.074,48.285-.053,96.694-.381,144.971.074v.053c-48.275.455-96.688.126-144.971.074-27.638.08-59.554.283-86.983-.126" transform="translate(0 -58.706)" fill="#100f0c"/>
                      <path id="Path_221316" data-name="Path 221316" d="M0,100.257c27.538-.255,59.327-.206,86.983-.073,48.285-.053,96.694-.381,144.971.073v.053c-48.275.455-96.688.126-144.971.073-27.638.08-59.554.283-86.983-.126" transform="translate(0 -47.137)" fill="#100f0c"/>
                      <path id="Path_221317" data-name="Path 221317" d="M0,73.041c27.538-.255,59.327-.207,86.983-.074,48.286-.053,96.694-.381,144.971.074v.053c-48.275.455-96.688.126-144.971.073-27.638.08-59.554.283-86.983-.126" transform="translate(0 -34.311)" fill="#100f0c"/>
                      <path id="Path_221318" data-name="Path 221318" d="M0,46.793c27.538-.255,59.327-.207,86.983-.073,48.285-.053,96.694-.381,144.971.073v.053c-48.275.455-96.688.126-144.971.073C59.345,47,27.429,47.2,0,46.793" transform="translate(0 -21.941)" fill="#100f0c"/>
                      <path id="Path_221319" data-name="Path 221319" d="M0,19.578c27.538-.255,59.327-.207,86.983-.073,48.285-.053,96.694-.381,144.971.073v.053c-48.275.455-96.688.126-144.971.073-27.638.08-59.554.283-86.983-.126" transform="translate(0 -9.115)" fill="#100f0c"/>
                    </g>
                  </g>
                </g>
              </g>
            </g>
          </g>
        </g>
        <g id="Group_16994-2" data-name="Group 16994" transform="translate(223)">
          <g id="Group_16993-2" data-name="Group 16993" clip-path="url(#clip-path-2)">
            <g id="Group_16992-2" data-name="Group 16992">
              <g id="Group_16991-2" data-name="Group 16991" clip-path="url(#clip-path-2)">
                <g id="Group_16990-2" data-name="Group 16990" opacity="0.1">
                  <g id="Group_16989-2" data-name="Group 16989">
                    <g id="Group_16988-2" data-name="Group 16988" clip-path="url(#clip-path-2)">
                      <path id="Path_221288-2" data-name="Path 221288" d="M21.431,0c.255,27.538.206,59.327.074,86.983.052,48.285.381,96.694-.074,144.971h-.053c-.454-48.275-.126-96.688-.073-144.971-.08-27.638-.283-59.554.126-86.983" transform="translate(-9.963)" fill="#100f0c"/>
                      <path id="Path_221289-2" data-name="Path 221289" d="M48.647,0c.255,27.538.207,59.327.073,86.983.053,48.285.381,96.694-.073,144.971h-.053c-.455-48.275-.126-96.688-.073-144.971-.08-27.638-.283-59.554.126-86.983" transform="translate(-22.79)" fill="#100f0c"/>
                      <path id="Path_221290-2" data-name="Path 221290" d="M74.9,0c.255,27.538.206,59.327.074,86.983.052,48.285.381,96.694-.074,144.971h-.053c-.454-48.275-.126-96.688-.074-144.971C74.689,59.345,74.486,27.429,74.9,0" transform="translate(-35.16)" fill="#100f0c"/>
                      <path id="Path_221291-2" data-name="Path 221291" d="M102.111,0c.255,27.538.207,59.327.074,86.983.053,48.285.381,96.694-.074,144.971h-.053c-.455-48.275-.126-96.688-.074-144.971-.08-27.638-.283-59.554.126-86.983" transform="translate(-47.986)" fill="#100f0c"/>
                      <path id="Path_221292-2" data-name="Path 221292" d="M126.659,0c.255,27.538.206,59.327.074,86.983.052,48.285.381,96.694-.074,144.971h-.053c-.454-48.275-.126-96.688-.074-144.971-.08-27.638-.283-59.554.126-86.983" transform="translate(-59.555)" fill="#100f0c"/>
                      <path id="Path_221293-2" data-name="Path 221293" d="M153.875,0c.255,27.538.207,59.327.073,86.983.053,48.285.381,96.694-.073,144.971h-.053c-.455-48.275-.126-96.688-.074-144.971-.08-27.638-.283-59.554.126-86.983" transform="translate(-72.381)" fill="#100f0c"/>
                      <path id="Path_221294-2" data-name="Path 221294" d="M180.123,0c.255,27.538.206,59.327.074,86.983.052,48.285.381,96.694-.074,144.971h-.053c-.454-48.275-.126-96.688-.073-144.971-.08-27.638-.283-59.554.126-86.983" transform="translate(-84.752)" fill="#100f0c"/>
                      <path id="Path_221295-2" data-name="Path 221295" d="M207.339,0c.255,27.538.207,59.327.073,86.983.053,48.285.381,96.694-.073,144.971h-.053c-.455-48.275-.126-96.688-.073-144.971-.08-27.638-.283-59.554.126-86.983" transform="translate(-97.578)" fill="#100f0c"/>
                      <path id="Path_221296-2" data-name="Path 221296" d="M234.554,0c.255,27.538.207,59.327.074,86.983.052,48.285.381,96.694-.074,144.971H234.5c-.455-48.275-.126-96.688-.074-144.971-.08-27.638-.282-59.553.126-86.983" transform="translate(-110.404)" fill="#100f0c"/>
                      <path id="Path_221297-2" data-name="Path 221297" d="M261.77,0c.255,27.538.206,59.327.074,86.983.052,48.285.381,96.694-.074,144.971h-.053c-.454-48.275-.126-96.688-.073-144.971-.08-27.638-.283-59.554.126-86.983" transform="translate(-123.23)" fill="#100f0c"/>
                      <path id="Path_221298-2" data-name="Path 221298" d="M288.018,0c.255,27.538.207,59.327.074,86.983.052,48.285.381,96.694-.074,144.971h-.053c-.455-48.275-.126-96.688-.073-144.971-.08-27.638-.282-59.553.126-86.983" transform="translate(-135.601)" fill="#100f0c"/>
                      <path id="Path_221299-2" data-name="Path 221299" d="M315.234,0c.255,27.538.206,59.327.074,86.983.052,48.285.381,96.694-.074,144.971h-.053c-.454-48.275-.126-96.688-.073-144.971-.08-27.638-.283-59.554.126-86.983" transform="translate(-148.427)" fill="#100f0c"/>
                      <path id="Path_221300-2" data-name="Path 221300" d="M339.781,0c.255,27.538.207,59.327.074,86.983.052,48.285.381,96.694-.074,144.971h-.053c-.455-48.275-.126-96.688-.073-144.971-.08-27.638-.282-59.553.126-86.983" transform="translate(-159.995)" fill="#100f0c"/>
                      <path id="Path_221301-2" data-name="Path 221301" d="M367,0c.255,27.538.206,59.327.074,86.983.052,48.285.381,96.694-.074,144.971h-.053c-.454-48.275-.126-96.688-.073-144.971-.08-27.638-.283-59.554.126-86.983" transform="translate(-172.822)" fill="#100f0c"/>
                      <path id="Path_221302-2" data-name="Path 221302" d="M393.245,0c.255,27.538.207,59.327.074,86.983.052,48.285.381,96.694-.074,144.971h-.053c-.455-48.275-.126-96.688-.074-144.971-.08-27.638-.282-59.553.126-86.983" transform="translate(-185.192)" fill="#100f0c"/>
                      <path id="Path_221303-2" data-name="Path 221303" d="M420.461,0c.255,27.538.206,59.327.074,86.983.052,48.285.381,96.694-.074,144.971h-.053c-.454-48.275-.126-96.688-.074-144.971-.08-27.638-.283-59.554.126-86.983" transform="translate(-198.018)" fill="#100f0c"/>
                      <path id="Path_221304-2" data-name="Path 221304" d="M0,418.607c27.538-.255,59.327-.207,86.983-.074,48.285-.053,96.694-.381,144.971.074v.053c-48.275.455-96.688.126-144.971.073-27.638.08-59.554.283-86.983-.126" transform="translate(0 -197.169)" fill="#100f0c"/>
                      <path id="Path_221305-2" data-name="Path 221305" d="M0,391.392c27.538-.255,59.327-.207,86.983-.073,48.285-.053,96.694-.381,144.971.073v.053c-48.275.455-96.688.126-144.971.073-27.638.08-59.554.283-86.983-.126" transform="translate(0 -184.344)" fill="#100f0c"/>
                      <path id="Path_221306-2" data-name="Path 221306" d="M0,365.143c27.538-.255,59.327-.207,86.983-.073,48.285-.053,96.694-.381,144.971.073v.053c-48.275.455-96.688.126-144.971.073-27.638.08-59.554.283-86.983-.126" transform="translate(0 -171.973)" fill="#100f0c"/>
                      <path id="Path_221307-2" data-name="Path 221307" d="M0,337.928c27.538-.255,59.327-.207,86.983-.073,48.285-.053,96.694-.381,144.971.073v.053c-48.275.455-96.688.126-144.971.074-27.638.08-59.554.283-86.983-.126" transform="translate(0 -159.147)" fill="#100f0c"/>
                      <path id="Path_221308-2" data-name="Path 221308" d="M0,313.38c27.538-.255,59.327-.207,86.983-.074,48.285-.053,96.694-.381,144.971.074v.053c-48.275.455-96.688.126-144.971.073-27.638.08-59.554.283-86.983-.126" transform="translate(0 -147.578)" fill="#100f0c"/>
                      <path id="Path_221309-2" data-name="Path 221309" d="M0,286.164c27.538-.255,59.327-.207,86.983-.074,48.285-.053,96.694-.381,144.971.074v.053c-48.275.455-96.688.126-144.971.073-27.638.08-59.554.283-86.983-.126" transform="translate(0 -134.752)" fill="#100f0c"/>
                      <path id="Path_221310-2" data-name="Path 221310" d="M0,259.916c27.538-.255,59.327-.207,86.983-.074,48.285-.053,96.694-.381,144.971.074v.053c-48.275.455-96.688.126-144.971.073-27.638.08-59.554.283-86.983-.126" transform="translate(0 -122.381)" fill="#100f0c"/>
                      <path id="Path_221311-2" data-name="Path 221311" d="M0,232.7c27.538-.255,59.327-.207,86.983-.074,48.285-.053,96.694-.381,144.971.074v.053c-48.275.455-96.688.126-144.971.073-27.638.08-59.554.283-86.983-.126" transform="translate(0 -109.555)" fill="#100f0c"/>
                      <path id="Path_221312-2" data-name="Path 221312" d="M0,205.485c27.538-.255,59.327-.206,86.983-.073,48.285-.053,96.694-.381,144.971.073v.053c-48.275.455-96.688.126-144.971.074-27.638.08-59.554.283-86.983-.126" transform="translate(0 -96.729)" fill="#100f0c"/>
                      <path id="Path_221313-2" data-name="Path 221313" d="M231.954,178.322c-27.538.255-59.327.206-86.983.073-48.285.053-96.694.381-144.971-.073v-.053c48.275-.455,96.688-.126,144.971-.074,27.638-.08,59.554-.283,86.983.126" transform="translate(0 -83.903)" fill="#100f0c"/>
                      <path id="Path_221314-2" data-name="Path 221314" d="M0,152.021c27.538-.255,59.327-.207,86.983-.073,48.285-.053,96.694-.381,144.971.073v.053c-48.275.455-96.688.126-144.971.074-27.638.08-59.554.283-86.983-.126" transform="translate(0 -71.533)" fill="#100f0c"/>
                      <path id="Path_221315-2" data-name="Path 221315" d="M0,124.805c27.538-.255,59.327-.207,86.983-.074,48.285-.053,96.694-.381,144.971.074v.053c-48.275.455-96.688.126-144.971.074-27.638.08-59.554.283-86.983-.126" transform="translate(0 -58.706)" fill="#100f0c"/>
                      <path id="Path_221316-2" data-name="Path 221316" d="M0,100.257c27.538-.255,59.327-.206,86.983-.073,48.285-.053,96.694-.381,144.971.073v.053c-48.275.455-96.688.126-144.971.073-27.638.08-59.554.283-86.983-.126" transform="translate(0 -47.137)" fill="#100f0c"/>
                      <path id="Path_221317-2" data-name="Path 221317" d="M0,73.041c27.538-.255,59.327-.207,86.983-.074,48.286-.053,96.694-.381,144.971.074v.053c-48.275.455-96.688.126-144.971.073-27.638.08-59.554.283-86.983-.126" transform="translate(0 -34.311)" fill="#100f0c"/>
                      <path id="Path_221318-2" data-name="Path 221318" d="M0,46.793c27.538-.255,59.327-.207,86.983-.073,48.285-.053,96.694-.381,144.971.073v.053c-48.275.455-96.688.126-144.971.073C59.345,47,27.429,47.2,0,46.793" transform="translate(0 -21.941)" fill="#100f0c"/>
                      <path id="Path_221319-2" data-name="Path 221319" d="M0,19.578c27.538-.255,59.327-.207,86.983-.073,48.285-.053,96.694-.381,144.971.073v.053c-48.275.455-96.688.126-144.971.073-27.638.08-59.554.283-86.983-.126" transform="translate(0 -9.115)" fill="#100f0c"/>
                    </g>
                  </g>
                </g>
              </g>
            </g>
          </g>
        </g>
      </g>
    </g>
    <g id="US-Logo" transform="translate(1350 11490)">
      <g id="Group_16980" data-name="Group 16980" transform="translate(0 0)" clip-path="url(#clip-path-8)">
        <path id="Path_221274" data-name="Path 221274" d="M106.794,35.523a15.943,15.943,0,1,0,2.232-9.983L93.23,50.4A30.911,30.911,0,0,1,36.223,33.83V0H51.182V33.83h0A15.95,15.95,0,0,0,80.758,42.12l15.8-24.856a30.909,30.909,0,1,1,.408,33.758ZM98.061,8.412V0H83.1V31.981Z" transform="translate(-6.91 0)" fill="#003e92"/>
        <path id="Path_221275" data-name="Path 221275" d="M12.978,100.283v9.15a6.1,6.1,0,0,1-5.827,5.923H6.429a6.067,6.067,0,0,1-5.8-5.875v-9.2a.328.328,0,0,0-.168-.314.756.756,0,0,1-.458-.7.787.787,0,0,1,.819-.77c.891,0,1.348.77,1.348,1.686v9.246a4.51,4.51,0,0,0,4.262,4.382h.722a4.586,4.586,0,0,0,4.286-4.382v-9.246c0-.915.457-1.686,1.348-1.686a.787.787,0,0,1,.819.77.757.757,0,0,1-.458.7.328.328,0,0,0-.168.314" transform="translate(0 -18.791)" fill="#313133"/>
        <path id="Path_221276" data-name="Path 221276" d="M36.514,115.448a9.034,9.034,0,0,1-4.7-1.4.82.82,0,0,1-.385-.674.733.733,0,0,1,.746-.746,1.033,1.033,0,0,1,.626.217,6.649,6.649,0,0,0,3.708,1.059c2.288,0,4.31-.987,4.31-2.745,0-1.927-2.143-2.745-4.5-3.54-2.263-.77-4.96-2.071-4.96-4.839,0-2.89,2.793-4.431,5.466-4.431a6.869,6.869,0,0,1,4.358,1.493.862.862,0,0,1,.362.649.791.791,0,0,1-1.3.554A5.681,5.681,0,0,0,36.9,99.894c-2.143,0-4,1.084-4,2.937,0,1.806,2.143,2.7,4.286,3.419,2.335.795,5.177,1.854,5.177,4.888,0,3.082-3.226,4.31-5.851,4.31" transform="translate(-5.983 -18.763)" fill="#313133"/>
        <path id="Path_221277" data-name="Path 221277" d="M60.214,98.954l5.418,14.519a.387.387,0,0,0,.312.29.774.774,0,0,1,.6.77.839.839,0,0,1-.89.794,1.7,1.7,0,0,1-1.469-1.2l-1.277-3.468H55.736l-1.276,3.468a1.706,1.706,0,0,1-1.469,1.2.84.84,0,0,1-.891-.794.774.774,0,0,1,.6-.77.386.386,0,0,0,.313-.29l5.418-14.519a.961.961,0,0,1,1.782,0m-.288,3.732-.6-1.927H59.3l-.578,1.927-2.456,6.428h6.116Z" transform="translate(-9.939 -18.763)" fill="#313133"/>
        <path id="Path_221278" data-name="Path 221278" d="M71.367,115.357a.787.787,0,0,1-.819-.77.759.759,0,0,1,.457-.7.324.324,0,0,0,.168-.312V100.284a.328.328,0,0,0-.168-.314.756.756,0,0,1-.457-.7.786.786,0,0,1,.819-.77h5.779c4.55,0,7.391,4.045,7.391,8.427s-2.841,8.379-7.391,8.427Zm1.228-15.314a.63.63,0,0,1,.121.457v12.858a.632.632,0,0,1-.121.458h4.551c3.659,0,5.851-3.275,5.851-6.887,0-3.588-2.167-6.79-5.851-6.887Z" transform="translate(-13.459 -18.792)" fill="#313133"/>
        <path id="Path_221279" data-name="Path 221279" d="M87.611,100.043a.712.712,0,0,1-.578-.747.818.818,0,0,1,.915-.794,1.45,1.45,0,0,1,1.324.986L93.7,111l.53,1.806h.023L94.81,111l4.431-11.51a1.448,1.448,0,0,1,1.324-.986.818.818,0,0,1,.915.794.712.712,0,0,1-.579.747.423.423,0,0,0-.337.265L95,114.754a.764.764,0,0,1-1.493,0l-5.562-14.447a.426.426,0,0,0-.337-.265" transform="translate(-16.604 -18.792)" fill="#313133"/>
        <path id="Path_221280" data-name="Path 221280" d="M107.915,100.043a.63.63,0,0,1,.121.457v5.875h7.489a.776.776,0,0,1,.77.77.761.761,0,0,1-.77.77h-7.489v5.442a.632.632,0,0,1-.121.458H117.4a.741.741,0,0,1,.771.746.781.781,0,0,1-.771.795H106.687a.787.787,0,0,1-.819-.77.759.759,0,0,1,.457-.7.324.324,0,0,0,.168-.312V100.284a.328.328,0,0,0-.168-.314.756.756,0,0,1-.457-.7.786.786,0,0,1,.819-.77h10.257a.775.775,0,0,1,.77.77.761.761,0,0,1-.77.77Z" transform="translate(-20.197 -18.792)" fill="#313133"/>
        <path id="Path_221281" data-name="Path 221281" d="M122.651,113.6V100.284a.328.328,0,0,0-.168-.314.756.756,0,0,1-.458-.7.786.786,0,0,1,.819-.77h6.428a4.75,4.75,0,0,1,1.325,9.317l3.251,5.659a.421.421,0,0,0,.361.24h.1a.737.737,0,0,1,.7.723.939.939,0,0,1-1.012.915,1.709,1.709,0,0,1-1.4-.915l-3.659-6.453h-4.744V113.7c0,.914-.457,1.685-1.348,1.685a.787.787,0,0,1-.819-.77.756.756,0,0,1,.458-.7.328.328,0,0,0,.168-.313m1.541-7.151h5.08a3.2,3.2,0,1,0,0-6.405h-5.2a.63.63,0,0,1,.121.457Z" transform="translate(-23.279 -18.792)" fill="#313133"/>
        <path id="Path_221282" data-name="Path 221282" d="M144.659,100.043v14.519a.8.8,0,0,1-.77.795.781.781,0,0,1-.77-.795V100.043h-5.683a.77.77,0,1,1,0-1.541h12.882a.771.771,0,1,1,0,1.541Z" transform="translate(-26.072 -18.792)" fill="#313133"/>
        <path id="Path_221283" data-name="Path 221283" d="M156.244,114.585V99.271a.792.792,0,0,1,.77-.77.775.775,0,0,1,.77.77v15.314a.775.775,0,0,1-.77.77.792.792,0,0,1-.77-.77" transform="translate(-29.807 -18.791)" fill="#313133"/>
        <path id="Path_221284" data-name="Path 221284" d="M165.473,115.448a9.034,9.034,0,0,1-4.7-1.4.82.82,0,0,1-.385-.674.733.733,0,0,1,.746-.746,1.028,1.028,0,0,1,.626.217,6.654,6.654,0,0,0,3.709,1.059c2.288,0,4.31-.987,4.31-2.745,0-1.927-2.143-2.745-4.5-3.54-2.263-.77-4.961-2.071-4.961-4.839,0-2.89,2.793-4.431,5.466-4.431a6.869,6.869,0,0,1,4.358,1.493.862.862,0,0,1,.362.649.791.791,0,0,1-1.3.554,5.681,5.681,0,0,0-3.347-1.156c-2.143,0-4,1.084-4,2.937,0,1.806,2.143,2.7,4.286,3.419,2.335.795,5.177,1.854,5.177,4.888,0,3.082-3.226,4.31-5.851,4.31" transform="translate(-30.585 -18.763)" fill="#313133"/>
        <path id="Path_221285" data-name="Path 221285" d="M175.257,114.585V99.271a.792.792,0,0,1,.77-.77.775.775,0,0,1,.77.77v15.314a.775.775,0,0,1-.77.77.792.792,0,0,1-.77-.77" transform="translate(-33.434 -18.791)" fill="#313133"/>
        <path id="Path_221286" data-name="Path 221286" d="M179.631,99.271a.787.787,0,0,1,.819-.77,1.534,1.534,0,0,1,1.252.77l8.235,10.714,1.4,2h.024l-.073-2v-9.8c0-.915.458-1.686,1.349-1.686a.787.787,0,0,1,.818.77.756.756,0,0,1-.457.7.328.328,0,0,0-.168.314v13.291a.326.326,0,0,0,.168.313.757.757,0,0,1,.457.7.787.787,0,0,1-.818.77,1.327,1.327,0,0,1-1.108-.626l-8.38-10.86-1.4-1.975h-.024l.072,1.975v9.8c0,.915-.457,1.686-1.348,1.686a.787.787,0,0,1-.819-.77.757.757,0,0,1,.457-.7.326.326,0,0,0,.169-.313V100.283a.328.328,0,0,0-.169-.314.756.756,0,0,1-.457-.7" transform="translate(-34.269 -18.791)" fill="#313133"/>
        <path id="Path_221287" data-name="Path 221287" d="M207.57,106.847h5.345a.787.787,0,0,1,.818.77.757.757,0,0,1-.457.7.326.326,0,0,0-.168.313v3.2a.756.756,0,0,1-.169.506,7.934,7.934,0,0,1-6.573,3.13,8.572,8.572,0,1,1,5.322-15.313.732.732,0,0,1,.312.626.8.8,0,0,1-.77.819.9.9,0,0,1-.482-.168,6.78,6.78,0,0,0-4.382-1.566,7.031,7.031,0,0,0,0,14.062,6.318,6.318,0,0,0,5.2-2.36v-2.721a.629.629,0,0,1,.121-.458H207.57a.77.77,0,1,1,0-1.541" transform="translate(-37.743 -18.757)" fill="#313133"/>
      </g>
    </g>
  </g>
</svg>
