<svg xmlns="http://www.w3.org/2000/svg" xmlns:xlink="http://www.w3.org/1999/xlink" width="648" height="421" viewBox="0 0 648 421">
  <defs>
    <clipPath id="clip-path">
      <rect id="Rectangle_7562" data-name="Rectangle 7562" width="648" height="421" transform="translate(1280 3647)" fill="#fff" stroke="#707070" stroke-width="1"/>
    </clipPath>
  </defs>
  <g id="Mask_Group_126" data-name="Mask Group 126" transform="translate(-1280 -3647)" clip-path="url(#clip-path)">
    <g id="Bayesian_Networks:" data-name="Bayesian Networks:" transform="translate(14501.537 -13034.505)" opacity="0.491">
      <g id="Ellipse_750" data-name="Ellipse 750" transform="translate(-12879.537 16718.504)" fill="#2b2b2b" stroke="#707070" stroke-width="1">
        <ellipse cx="36.5" cy="35" rx="36.5" ry="35" stroke="none"/>
        <ellipse cx="36.5" cy="35" rx="36" ry="34.5" fill="none"/>
      </g>
      <g id="Ellipse_751" data-name="Ellipse 751" transform="translate(-12955.537 16871.504)" fill="#2b2b2b" stroke="#707070" stroke-width="1">
        <ellipse cx="36.5" cy="35" rx="36.5" ry="35" stroke="none"/>
        <ellipse cx="36.5" cy="35" rx="36" ry="34.5" fill="none"/>
      </g>
      <g id="Ellipse_752" data-name="Ellipse 752" transform="translate(-12766.537 17024.504)" fill="#2b2b2b" stroke="#707070" stroke-width="1">
        <ellipse cx="38" cy="36.5" rx="38" ry="36.5" stroke="none"/>
        <ellipse cx="38" cy="36.5" rx="37.5" ry="36" fill="none"/>
      </g>
      <g id="Ellipse_753" data-name="Ellipse 753" transform="translate(-12653.537 16718.504)" fill="#2b2b2b" stroke="#707070" stroke-width="1">
        <ellipse cx="36.5" cy="35" rx="36.5" ry="35" stroke="none"/>
        <ellipse cx="36.5" cy="35" rx="36" ry="34.5" fill="none"/>
      </g>
      <g id="Ellipse_754" data-name="Ellipse 754" transform="translate(-12766.537 16871.504)" fill="#2b2b2b" stroke="#707070" stroke-width="1">
        <ellipse cx="38" cy="35" rx="38" ry="35" stroke="none"/>
        <ellipse cx="38" cy="35" rx="37.5" ry="34.5" fill="none"/>
      </g>
      <line id="Line_473" data-name="Line 473" x2="152.385" transform="translate(-12804.675 16753.58)" fill="none" stroke="#707070" stroke-width="1"/>
      <line id="Line_474" data-name="Line 474" x1="78.309" y2="95.241" transform="translate(-12707.317 16785.334)" fill="none" stroke="#707070" stroke-width="1"/>
      <line id="Line_475" data-name="Line 475" x2="76.192" y2="95.241" transform="translate(-12827.957 16785.334)" fill="none" stroke="#707070" stroke-width="1"/>
      <line id="Line_476" data-name="Line 476" y2="84.659" transform="translate(-12729.538 16941.949)" fill="none" stroke="#707070" stroke-width="1"/>
      <line id="Line_477" data-name="Line 477" x2="133.336" y2="116.404" transform="translate(-12895.683 16931.363)" fill="none" stroke="#707070" stroke-width="1"/>
    </g>
  </g>
</svg>
