<svg xmlns="http://www.w3.org/2000/svg" width="100" height="60" viewBox="0 0 100 60">
  <g id="DX_Feed_" data-name="DX Feed " transform="translate(-656 -7845)">
    <g id="Rectangle_7543" data-name="Rectangle 7543" transform="translate(656 7845)" fill="#fff" stroke="#ddd" stroke-width="1">
      <rect width="100" height="60" rx="2" stroke="none"/>
      <rect x="0.5" y="0.5" width="99" height="59" rx="1.5" fill="none"/>
    </g>
    <g id="Group_11828" data-name="Group 11828" transform="translate(-110.079 1.109)">
      <g id="logo-dxFeed-original" transform="translate(798.079 7855.891)">
        <path id="Path_155" data-name="Path 155" d="M81.806,10.324V0H64.8V2.913h9.621L64.8,8.243v2.081h2.758l11.306-6.4v6.4Z" transform="translate(-44.945)" fill="#d22d1a"/>
        <path id="Path_156" data-name="Path 156" d="M74.85,49.184H64.8V52.1H81.806V41.8H78.864v6.128l-.03-.03L67.986,41.8H64.8v1.808Z" transform="translate(-44.945 -28.992)" fill="#d22d1a"/>
        <path id="Path_157" data-name="Path 157" d="M0,41.7v2.972H9.958L0,50.218v3.616L14.033,45.99v6.067h2.972V41.7Z" transform="translate(0 -28.923)" fill="#313133"/>
        <path id="Path_158" data-name="Path 158" d="M14.717,10.324h2.727V8.24L7.823,2.913h9.621V0H.5V10.324H3.413V3.953l.063.03Z" transform="translate(-0.347)" fill="#d22d1a"/>
      </g>
      <g id="Group_104" data-name="Group 104" transform="translate(798.096 7884.475)">
        <path id="Path_149" data-name="Path 149" d="M146.912,25.939a1.915,1.915,0,0,1-1.634-.817,3.7,3.7,0,0,1-.587-2.242,3.77,3.77,0,0,1,.606-2.263,2.117,2.117,0,0,1,3.373.043h.063a6.409,6.409,0,0,1-.126-1.173V17.6h1.613v8.213h-1.236l-.314-.775h-.063A1.881,1.881,0,0,1,146.912,25.939Zm.566-1.278a1.093,1.093,0,0,0,.9-.356,2.122,2.122,0,0,0,.314-1.215v-.168a2.477,2.477,0,0,0-.293-1.362,1.07,1.07,0,0,0-.943-.419.946.946,0,0,0-.838.461,2.567,2.567,0,0,0-.293,1.32,2.333,2.333,0,0,0,.293,1.3.959.959,0,0,0,.859.439Z" transform="translate(-144.7 -17.6)" fill="#313133"/>
        <path id="Path_150" data-name="Path 150" d="M177.37,31.591,175.464,28.7h1.823l1.152,1.886,1.152-1.886h1.823l-1.906,2.891,2.011,3.017H179.7l-1.236-2.033-1.236,2.033H175.4Z" transform="translate(-168.977 -26.374)" fill="#313133"/>
        <path id="Path_151" data-name="Path 151" d="M210.713,27.809H209.1V20.1h4.421v1.343h-2.808v1.992h2.619v1.343h-2.619Z" transform="translate(-195.616 -19.576)" fill="#313133"/>
        <path id="Path_152" data-name="Path 152" d="M236.607,34.232a3.032,3.032,0,0,1-2.221-.8,2.916,2.916,0,0,1-.8-2.221,3.378,3.378,0,0,1,.733-2.3,2.637,2.637,0,0,1,2.053-.817,2.564,2.564,0,0,1,1.949.712,2.72,2.72,0,0,1,.693,1.969v.775h-3.811a1.545,1.545,0,0,0,.4,1.068,1.445,1.445,0,0,0,1.068.377,5.107,5.107,0,0,0,1.006-.1,4.011,4.011,0,0,0,.985-.356v1.236a3.283,3.283,0,0,1-.9.314A3.082,3.082,0,0,1,236.607,34.232Zm-.23-4.965a1.026,1.026,0,0,0-.8.314,1.475,1.475,0,0,0-.335.922h2.263a1.261,1.261,0,0,0-.314-.922,1.105,1.105,0,0,0-.817-.315Z" transform="translate(-214.973 -25.893)" fill="#313133"/>
        <path id="Path_153" data-name="Path 153" d="M266.707,34.232a3.032,3.032,0,0,1-2.221-.8,2.916,2.916,0,0,1-.8-2.221,3.378,3.378,0,0,1,.733-2.3,2.637,2.637,0,0,1,2.053-.817,2.563,2.563,0,0,1,1.949.712,2.72,2.72,0,0,1,.693,1.969v.775h-3.811a1.545,1.545,0,0,0,.4,1.068,1.445,1.445,0,0,0,1.068.377,5.107,5.107,0,0,0,1.006-.1,4.012,4.012,0,0,0,.985-.356v1.236a3.284,3.284,0,0,1-.9.314,3.083,3.083,0,0,1-1.156.147Zm-.23-4.965a1.026,1.026,0,0,0-.8.314,1.475,1.475,0,0,0-.335.922h2.263a1.261,1.261,0,0,0-.314-.922,1.073,1.073,0,0,0-.817-.315Z" transform="translate(-238.766 -25.893)" fill="#313133"/>
        <path id="Path_154" data-name="Path 154" d="M296.411,25.939a1.915,1.915,0,0,1-1.634-.817,3.7,3.7,0,0,1-.587-2.242,3.768,3.768,0,0,1,.606-2.263,2.117,2.117,0,0,1,3.373.043h.063a6.41,6.41,0,0,1-.126-1.173V17.6h1.613v8.213h-1.236l-.314-.775h-.063a1.881,1.881,0,0,1-1.7.9Zm.566-1.278a1.093,1.093,0,0,0,.9-.356,2.122,2.122,0,0,0,.314-1.215v-.168a2.477,2.477,0,0,0-.293-1.362,1.07,1.07,0,0,0-.943-.419.946.946,0,0,0-.838.461,2.567,2.567,0,0,0-.293,1.32,2.333,2.333,0,0,0,.293,1.3.959.959,0,0,0,.859.439Z" transform="translate(-262.876 -17.6)" fill="#313133"/>
      </g>
    </g>
  </g>
</svg>
