<svg xmlns="http://www.w3.org/2000/svg" xmlns:xlink="http://www.w3.org/1999/xlink" width="648" height="421" viewBox="0 0 648 421">
  <defs>
    <clipPath id="clip-path">
      <rect id="Rectangle_7563" data-name="Rectangle 7563" width="648" height="421" transform="translate(1280 4217)" fill="#fff" stroke="#707070" stroke-width="1"/>
    </clipPath>
  </defs>
  <g id="Mask_Group_127" data-name="Mask Group 127" transform="translate(-1280 -4217)" clip-path="url(#clip-path)">
    <g id="PCA" transform="translate(14400.684 -12565.063)" opacity="0.537">
      <line id="Line_478" data-name="Line 478" x2="453.816" transform="translate(-12926.5 16995.094)" fill="none" stroke="#707070" stroke-width="1"/>
      <line id="Line_479" data-name="Line 479" y2="419.001" transform="translate(-12697.937 16784.063)" fill="none" stroke="#707070" stroke-width="1"/>
      <g id="Ellipse_755" data-name="Ellipse 755" transform="translate(-12681.139 16911.332)" fill="#fff" stroke="#707070" stroke-width="1">
        <circle cx="7.728" cy="7.728" r="7.728" stroke="none"/>
        <circle cx="7.728" cy="7.728" r="7.228" fill="none"/>
      </g>
      <g id="Ellipse_756" data-name="Ellipse 756" transform="translate(-12646.362 16926.787)" fill="#fff" stroke="#707070" stroke-width="1">
        <circle cx="3.864" cy="3.864" r="3.864" stroke="none"/>
        <circle cx="3.864" cy="3.864" r="3.364" fill="none"/>
      </g>
      <g id="Ellipse_757" data-name="Ellipse 757" transform="translate(-12619.313 16903.605)" fill="#fff" stroke="#707070" stroke-width="1">
        <circle cx="15.456" cy="15.456" r="15.456" stroke="none"/>
        <circle cx="15.456" cy="15.456" r="14.956" fill="none"/>
      </g>
      <g id="Ellipse_758" data-name="Ellipse 758" transform="translate(-12580.674 16957.699)" fill="#fff" stroke="#707070" stroke-width="1">
        <circle cx="3.864" cy="3.864" r="3.864" stroke="none"/>
        <circle cx="3.864" cy="3.864" r="3.364" fill="none"/>
      </g>
      <g id="Ellipse_759" data-name="Ellipse 759" transform="translate(-12642.499 16961.564)">
        <circle id="Ellipse_735" data-name="Ellipse 735" cx="1.932" cy="1.932" r="1.932" fill="#fff"/>
        <circle id="Ellipse_736" data-name="Ellipse 736" transform="translate(1.932 1.932)" fill="none" stroke="#707070" stroke-width="1"/>
      </g>
      <g id="Ellipse_760" data-name="Ellipse 760" transform="translate(-12665.683 16957.699)" fill="#fff" stroke="#707070" stroke-width="1">
        <circle cx="3.864" cy="3.864" r="3.864" stroke="none"/>
        <circle cx="3.864" cy="3.864" r="3.364" fill="none"/>
      </g>
      <g id="Ellipse_761" data-name="Ellipse 761" transform="translate(-12781.602 17031.117)" fill="#fff" stroke="#707070" stroke-width="1">
        <circle cx="5.796" cy="5.796" r="5.796" stroke="none"/>
        <circle cx="5.796" cy="5.796" r="5.296" fill="none"/>
      </g>
      <g id="Ellipse_762" data-name="Ellipse 762" transform="translate(-12742.962 17062.027)">
        <circle id="Ellipse_737" data-name="Ellipse 737" cx="1.932" cy="1.932" r="1.932" fill="#fff"/>
        <circle id="Ellipse_738" data-name="Ellipse 738" transform="translate(1.932 1.932)" fill="none" stroke="#707070" stroke-width="1"/>
      </g>
      <g id="Ellipse_763" data-name="Ellipse 763" transform="translate(-12731.369 17015.66)" fill="#fff" stroke="#707070" stroke-width="1">
        <circle cx="7.728" cy="7.728" r="7.728" stroke="none"/>
        <circle cx="7.728" cy="7.728" r="7.228" fill="none"/>
      </g>
      <g id="Ellipse_764" data-name="Ellipse 764" transform="translate(-12781.602 17062.027)" fill="#fff" stroke="#707070" stroke-width="1">
        <circle cx="5.796" cy="5.796" r="5.796" stroke="none"/>
        <circle cx="5.796" cy="5.796" r="5.296" fill="none"/>
      </g>
      <g id="Ellipse_765" data-name="Ellipse 765" transform="translate(-12762.281 17108.396)" fill="#fff" stroke="#707070" stroke-width="1">
        <circle cx="5.796" cy="5.796" r="5.796" stroke="none"/>
        <circle cx="5.796" cy="5.796" r="5.296" fill="none"/>
      </g>
      <g id="Ellipse_766" data-name="Ellipse 766" transform="translate(-12781.602 17092.939)" fill="#fff" stroke="#707070" stroke-width="1">
        <circle cx="5.796" cy="5.796" r="5.796" stroke="none"/>
        <circle cx="5.796" cy="5.796" r="5.296" fill="none"/>
      </g>
      <g id="Ellipse_767" data-name="Ellipse 767" transform="translate(-12739.098 17085.211)" fill="#fff" stroke="#707070" stroke-width="1">
        <circle cx="3.864" cy="3.864" r="3.864" stroke="none"/>
        <circle cx="3.864" cy="3.864" r="3.364" fill="none"/>
      </g>
      <g id="Ellipse_768" data-name="Ellipse 768" transform="translate(-12750.689 17038.844)" fill="#fff" stroke="#707070" stroke-width="1">
        <circle cx="5.796" cy="5.796" r="5.796" stroke="none"/>
        <circle cx="5.796" cy="5.796" r="5.296" fill="none"/>
      </g>
      <g id="Ellipse_769" data-name="Ellipse 769" transform="translate(-12619.313 16965.428)" fill="#fff" stroke="#707070" stroke-width="1">
        <circle cx="7.728" cy="7.728" r="7.728" stroke="none"/>
        <circle cx="7.728" cy="7.728" r="7.228" fill="none"/>
      </g>
      <g id="Ellipse_770" data-name="Ellipse 770" transform="translate(-12642.499 16888.148)" fill="#fff" stroke="#707070" stroke-width="1">
        <circle cx="5.796" cy="5.796" r="5.796" stroke="none"/>
        <circle cx="5.796" cy="5.796" r="5.296" fill="none"/>
      </g>
      <g id="Ellipse_771" data-name="Ellipse 771" transform="translate(-12750.689 17004.066)" fill="#fff" stroke="#707070" stroke-width="1">
        <circle cx="3.864" cy="3.864" r="3.864" stroke="none"/>
        <circle cx="3.864" cy="3.864" r="3.364" fill="none"/>
      </g>
      <g id="Ellipse_772" data-name="Ellipse 772" transform="translate(-12715.913 17050.434)">
        <circle id="Ellipse_739" data-name="Ellipse 739" cx="1.932" cy="1.932" r="1.932" fill="#fff"/>
        <circle id="Ellipse_740" data-name="Ellipse 740" transform="translate(1.932 1.932)" fill="none" stroke="#707070" stroke-width="1"/>
      </g>
      <g id="Ellipse_773" data-name="Ellipse 773" transform="translate(-12669.546 16980.885)">
        <circle id="Ellipse_741" data-name="Ellipse 741" cx="1.932" cy="1.932" r="1.932" fill="#fff"/>
        <circle id="Ellipse_742" data-name="Ellipse 742" transform="translate(1.932 1.932)" fill="none" stroke="#707070" stroke-width="1"/>
      </g>
      <g id="Ellipse_774" data-name="Ellipse 774" transform="translate(-12681.139 16957.699)">
        <circle id="Ellipse_743" data-name="Ellipse 743" cx="1.932" cy="1.932" r="1.932" fill="#fff"/>
        <circle id="Ellipse_744" data-name="Ellipse 744" transform="translate(1.932 1.932)" fill="none" stroke="#707070" stroke-width="1"/>
      </g>
      <g id="Ellipse_775" data-name="Ellipse 775" transform="translate(-12739.098 16965.428)" fill="#fff" stroke="#707070" stroke-width="1">
        <circle cx="9.66" cy="9.66" r="9.66" stroke="none"/>
        <circle cx="9.66" cy="9.66" r="9.16" fill="none"/>
      </g>
      <g id="Ellipse_776" data-name="Ellipse 776" transform="translate(-12688.866 17011.795)" fill="#fff" stroke="#707070" stroke-width="1">
        <circle cx="3.864" cy="3.864" r="3.864" stroke="none"/>
        <circle cx="3.864" cy="3.864" r="3.364" fill="none"/>
      </g>
      <g id="Ellipse_777" data-name="Ellipse 777" transform="translate(-12665.683 17015.66)" fill="#fff" stroke="#707070" stroke-width="1">
        <circle cx="3.864" cy="3.864" r="3.864" stroke="none"/>
        <circle cx="3.864" cy="3.864" r="3.364" fill="none"/>
      </g>
      <g id="Ellipse_778" data-name="Ellipse 778" transform="translate(-12677.273 17031.117)" fill="#fff" stroke="#707070" stroke-width="1">
        <circle cx="5.796" cy="5.796" r="5.796" stroke="none"/>
        <circle cx="5.796" cy="5.796" r="5.296" fill="none"/>
      </g>
    </g>
  </g>
</svg>
