<svg id="presentation" xmlns="http://www.w3.org/2000/svg" width="38.5" height="35.046" viewBox="0 0 38.5 35.046">
  <path id="Path_29845" data-name="Path 29845" d="M65.358,35H52.508a.508.508,0,1,0,0,1.016h12.85a.508.508,0,0,0,0-1.016Z" transform="translate(-31.937 -25.299)"/>
  <path id="Path_29846" data-name="Path 29846" d="M65.358,41H52.508a.508.508,0,1,0,0,1.016h12.85a.508.508,0,0,0,0-1.016Z" transform="translate(-31.937 -28.251)"/>
  <path id="Path_29847" data-name="Path 29847" d="M63.022,52.4H52.508a.508.508,0,1,0,0,1.016H63.022a.508.508,0,1,0,0-1.016Z" transform="translate(-31.937 -33.861)"/>
  <path id="Path_29848" data-name="Path 29848" d="M60.127,58H52.508a.508.508,0,1,0,0,1.016h7.619a.508.508,0,1,0,0-1.016Z" transform="translate(-31.937 -36.617)"/>
  <path id="Path_29849" data-name="Path 29849" d="M26.336,34.6a5.536,5.536,0,0,0,0,11.073V40.136h5.536A5.549,5.549,0,0,0,26.336,34.6Z" transform="translate(-16.584 -25.102)"/>
  <path id="Path_29850" data-name="Path 29850" d="M34.3,54.136A5.549,5.549,0,0,0,39.836,48.6H34.3Z" transform="translate(-23.227 -31.991)"/>
  <path id="Path_29851" data-name="Path 29851" d="M46.835,18.744H33.071V17.221a1.321,1.321,0,1,0-2.641,0v1.524H16.614A4.1,4.1,0,0,0,12.5,22.858V41.093a4.1,4.1,0,0,0,4.114,4.114H31.09l-4.114,4.927a.491.491,0,0,0,.051.711.373.373,0,0,0,.3.1.462.462,0,0,0,.406-.2l4.013-4.724,4.013,4.724a.627.627,0,0,0,.406.2.545.545,0,0,0,.3-.1.494.494,0,0,0,.051-.711L32.41,45.207H46.886A4.1,4.1,0,0,0,51,41.093V22.858A4.14,4.14,0,0,0,46.835,18.744Zm3.149,22.348a3.078,3.078,0,0,1-3.1,3.1H16.614a3.078,3.078,0,0,1-3.1-3.1V22.858a3.078,3.078,0,0,1,3.1-3.1H46.835a3.078,3.078,0,0,1,3.1,3.1V41.093Z" transform="translate(-12.5 -15.9)"/>
</svg>
