<svg xmlns="http://www.w3.org/2000/svg" xmlns:xlink="http://www.w3.org/1999/xlink" width="648" height="421" viewBox="0 0 648 421">
  <defs>
    <clipPath id="clip-path">
      <rect id="Rectangle_7560" data-name="Rectangle 7560" width="648" height="421" transform="translate(632 3078)" fill="#fff" stroke="#707070" stroke-width="1"/>
    </clipPath>
  </defs>
  <g id="Mask_Group_124" data-name="Mask Group 124" transform="translate(-632 -3078)" clip-path="url(#clip-path)">
    <g id="Smooth_Splines_Regression:" data-name="Smooth Splines Regression:" transform="translate(13174.501 -13339.563)">
      <path id="Path_100707" data-name="Path 100707" d="M-12445.59,16676.4c-51.328,0-100.043-24.426-144.828-72.619a303.221,303.221,0,0,0-28.789-27.262,264.423,264.423,0,0,0-29.409-21.145,242.8,242.8,0,0,0-29.688-15.633,234.5,234.5,0,0,0-29.628-10.721c-34.787-9.99-72.166-11.945-111.1-5.809a322.252,322.252,0,0,0-46.308,10.941,348.612,348.612,0,0,0-36.477,13.768c-20.19,8.947-32.333,16.693-32.453,16.771l-.536-.844c.121-.076,12.328-7.865,32.588-16.842a348.776,348.776,0,0,1,36.581-13.807,323.138,323.138,0,0,1,46.45-10.977,281.1,281.1,0,0,1,43.775-3.506,244.677,244.677,0,0,1,67.753,9.342,235.228,235.228,0,0,1,29.754,10.768,243.568,243.568,0,0,1,29.812,15.7,265.7,265.7,0,0,1,29.519,21.223,304.512,304.512,0,0,1,28.884,27.352c44.587,47.98,93.065,72.3,144.1,72.3.5,0,.988,0,1.486-.008a168.01,168.01,0,0,0,31.511-3.336,190.089,190.089,0,0,0,28.871-8.295,233.934,233.934,0,0,0,47.9-24.814,271.2,271.2,0,0,0,31.557-24.67c7.279-6.637,11.316-11.127,11.355-11.172l.741.668c-.041.045-4.112,4.574-11.427,11.244a272.37,272.37,0,0,1-31.676,24.762,234.732,234.732,0,0,1-48.1,24.92,191.263,191.263,0,0,1-29.021,8.338,168.838,168.838,0,0,1-31.7,3.355C-12444.591,16676.4-12445.093,16676.4-12445.59,16676.4Z" transform="translate(394.997 141.66)" fill="#707070"/>
      <path id="Path_100708" data-name="Path 100708" d="M-12445.529,16681.4l0-11,1.056,0,.076,11Zm-1.133,0-1.134-.012.146-11,1.06.012Zm3.4-.014-.151-11,1.06-.018.225,11Zm-5.66-.018-1.131-.025.295-11,1.056.023Zm7.924-.029-.3-11,1.057-.031.372,10.994Zm-10.187-.031-1.134-.043.442-10.99,1.061.039Zm12.45-.045-.446-10.992,1.058-.047.52,10.988Zm-14.713-.047-1.13-.059.593-10.984,1.055.055Zm16.971-.061-.592-10.984,1.059-.061.664,10.979Zm-19.233-.062-1.131-.074.742-10.975,1.057.068Zm21.5-.076-.737-10.975,1.055-.076.809,10.971Zm-23.753-.078-1.129-.09.893-10.963,1.054.082Zm26.006-.09-.881-10.965,1.057-.088.953,10.957Zm-28.266-.1-1.127-.105,1.042-10.949,1.052.1Zm30.521-.1-1.025-10.951,1.054-.1,1.095,10.945Zm-32.773-.115-1.128-.121,1.192-10.934,1.053.111Zm35.022-.111-1.166-10.937,1.054-.117,1.237,10.93Zm-37.278-.137-1.122-.135,1.342-10.918,1.047.127Zm39.525-.121-1.308-10.922,1.051-.129,1.376,10.912Zm-41.77-.158-1.124-.15,1.49-10.9,1.05.143Zm44.012-.127-1.446-10.9,1.05-.145,1.517,10.895Zm-46.26-.184-1.116-.164,1.638-10.877,1.043.154Zm48.5-.131-1.586-10.885,1.051-.156,1.653,10.873Zm-50.731-.207-1.12-.184,1.787-10.852,1.046.17Zm52.967-.137-1.723-10.863,1.046-.17,1.791,10.852Zm-55.2-.236-1.111-.2,1.933-10.828,1.038.184Zm57.432-.133-1.859-10.842,1.047-.184,1.927,10.828Zm-59.657-.268-1.115-.213,2.08-10.8,1.042.2Zm61.881-.133-1.992-10.816,1.04-.2,2.06,10.8Zm-64.107-.3-1.105-.227,2.225-10.77,1.034.211Zm66.325-.125-2.126-10.791,1.041-.211,2.191,10.777Zm-68.538-.336-1.109-.242,2.369-10.74,1.037.227Zm70.748-.117-2.258-10.766,1.039-.223,2.322,10.75Zm-72.961-.375-1.1-.256,2.514-10.707,1.028.24Zm75.167-.107-2.387-10.734,1.036-.236,2.45,10.721Zm-77.368-.414-1.1-.273,2.655-10.672,1.031.256Zm79.565-.092-2.515-10.707,1.034-.248,2.579,10.691Zm-81.762-.459-1.093-.287,2.8-10.635,1.021.268Zm83.955-.076-2.642-10.674,1.027-.26,2.706,10.658Zm-86.142-.5-1.095-.3,2.937-10.6,1.025.283Zm88.326-.055-2.768-10.643,1.029-.273,2.828,10.627Zm-90.507-.557-1.084-.314,3.075-10.557,1.015.295Zm92.683-.027-2.89-10.611,1.025-.285,2.951,10.594Zm-94.852-.609-1.087-.332,3.213-10.516,1.019.311Zm97.023,0-3.012-10.576,1.021-.3,3.072,10.559Zm2.16-.635-3.132-10.539,1.021-.311,3.191,10.523Zm-101.347-.031-1.074-.342,3.347-10.473,1.007.32Zm103.5-.629-3.25-10.5,1.013-.318,3.31,10.484Zm-105.652-.064-1.077-.359,3.481-10.428,1.011.336Zm107.8-.617-3.367-10.469,1.013-.33,3.425,10.447Zm-109.944-.105-1.064-.369,3.614-10.385,1,.348Zm112.08-.6-3.482-10.43,1.01-.344,3.54,10.41Zm-114.21-.146-1.067-.387,3.745-10.336,1,.363Zm116.342-.586-3.6-10.389,1-.354,3.652,10.369Zm-118.469-.191-1.055-.4,3.875-10.289.99.373Zm120.588-.561-3.708-10.352,1-.365,3.763,10.33Zm-122.7-.24-1.055-.412,4-10.24.991.389Zm124.809-.537-3.817-10.309,1-.377,3.872,10.289Zm-126.915-.295-1.042-.422,4.128-10.189.979.4Zm129.02-.5-3.926-10.268.993-.387,3.979,10.248Zm-131.1-.348-1.044-.437,4.251-10.139.982.412Zm133.2-.473-4.033-10.227.994-.4,4.086,10.205Zm-135.282-.41-1.029-.447,4.372-10.086.97.422Zm137.369-.432-4.139-10.184.984-.408,4.19,10.164Zm-139.43-.471-1.031-.463,4.492-10.031.973.436Zm141.5-.393-4.241-10.141.982-.418,4.293,10.119Zm-143.568-.539-1.021-.473,4.61-9.979.963.445Zm145.631-.344-4.343-10.1.981-.43,4.394,10.076Zm-147.669-.607-1.019-.486,4.727-9.922.961.459Zm149.729-.3-4.444-10.055.973-.436,4.494,10.031Zm-151.766-.682-1.014-.5,4.842-9.865.956.469Zm153.812-.244-4.543-10.008.972-.449,4.592,9.986Zm-155.828-.754-1.006-.508,4.953-9.811.949.48Zm157.864-.189-4.642-9.965.969-.457,4.688,9.939Zm-159.875-.834-1.006-.525,5.063-9.752.951.494Zm161.9-.133-4.736-9.918.961-.465,4.783,9.895Zm-163.9-.914-.99-.529,5.172-9.7.937.5Zm165.917-.07-4.83-9.871.959-.477,4.877,9.85Zm-167.9-1-.992-.545,5.279-9.637.938.514Zm169.9-.006-4.923-9.826.955-.484,4.97,9.8Zm2-1.023-5.015-9.777.947-.494,5.06,9.756Zm-173.881-.064-.976-.549,5.382-9.58.925.521Zm175.867-.975-5.105-9.73.947-.5,5.148,9.707Zm-177.82-.133-.977-.564,5.485-9.52.927.535Zm179.795-.924-5.192-9.686.942-.512,5.237,9.66Zm-181.749-.213-.964-.57,5.587-9.461.913.541Zm183.72-.865-5.281-9.637.934-.52,5.324,9.613Zm-185.646-.281-.961-.584,5.685-9.4.913.553Zm187.6-.812-5.367-9.588.934-.529,5.408,9.564Zm-189.525-.361-.96-.6,5.782-9.342.911.566Zm191.469-.748-5.452-9.539.932-.539,5.493,9.516Zm-193.375-.443-.945-.6,5.876-9.281.9.572Zm195.314-.686-5.534-9.492.919-.543,5.576,9.467Zm-197.207-.523-.947-.615,5.971-9.221.9.584Zm199.134-.623-5.617-9.441.918-.555,5.657,9.418Zm-201.022-.611-.931-.617,6.061-9.162.886.588Zm202.936-.547-5.7-9.395.917-.562,5.738,9.367Zm-204.8-.7-.932-.631,6.149-9.1.887.6Zm206.7-.484-5.778-9.344.909-.57,5.817,9.32Zm-208.565-.785-.923-.639,6.236-9.041.88.609Zm210.462-.41-5.857-9.293.9-.576,5.9,9.27Zm-212.3-.869-.916-.646,6.323-8.982.873.617Zm214.184-.34-5.936-9.244.9-.586,5.974,9.219Zm-216.014-.961-.916-.66,6.406-8.92.874.629Zm217.883-.262-6.011-9.193.9-.6,6.051,9.168Zm-219.706-1.059-.9-.662,6.489-8.859.858.631Zm221.574-.184-6.089-9.145.89-.6,6.125,9.119Zm-223.372-1.145-.9-.676,6.568-8.8.859.645Zm225.226-.113-6.162-9.092.882-.605,6.2,9.066Zm-227.024-1.242-.892-.682,6.648-8.74.853.65Zm228.866-.029-6.236-9.041.879-.615,6.274,9.016Zm1.829-1.283-6.311-8.99.879-.625,6.347,8.963Zm-232.47-.049-.883-.687,6.726-8.682.844.658Zm234.29-1.252-6.382-8.939.873-.631,6.418,8.912Zm-236.056-.129-.882-.7,6.8-8.623.846.67Zm237.869-1.189-6.454-8.887.862-.635,6.49,8.859Zm-239.63-.213-.866-.7,6.874-8.562.83.668Zm241.43-1.117-6.524-8.834.855-.641,6.561,8.807Zm-243.162-.285-.866-.711,6.945-8.5.83.682Zm244.951-1.061-6.6-8.779.854-.65,6.631,8.754Zm-246.685-.369-.866-.723,7.017-8.445.831.693Zm248.461-.988-6.666-8.727.852-.66,6.7,8.7Zm-250.177-.449-.85-.721,7.086-8.389.815.693Zm251.941-.924-6.735-8.672.849-.668,6.771,8.645Zm-253.641-.525-.851-.734,7.152-8.328.817.705Zm255.395-.859-6.8-8.619.846-.676,6.839,8.59Zm-257.095-.615-.839-.734,7.219-8.271.806.707Zm258.842-.789-6.874-8.562.838-.682,6.908,8.535Zm-260.514-.684-.833-.742,7.283-8.213.8.713Zm262.248-.732-6.942-8.506.831-.687,6.978,8.477Zm-263.915-.758-.834-.756,7.347-8.156.8.727Zm265.638-.674-7.011-8.449.825-.693,7.045,8.42Zm-267.3-.84-.816-.75,7.408-8.1.786.723Zm269.013-.6-7.08-8.393.819-.7,7.115,8.361Zm-270.646-.9-.816-.762,7.469-8.043.787.734Zm272.346-.555-7.149-8.332.814-.709,7.184,8.3Zm-273.979-.975-.818-.775,7.529-7.986.787.746Zm275.664-.5-7.219-8.271.811-.717,7.254,8.24Zm-277.289-1.047-.8-.77,7.586-7.934.772.742Zm278.966-.441-7.289-8.209.8-.723,7.325,8.178Zm-280.565-1.1-.8-.781,7.644-7.877.771.754Zm282.232-.4-7.359-8.145.787-.721,7.4,8.111Zm-283.834-1.164-.8-.791,7.7-7.822.772.764Zm285.488-.357-7.435-8.078.782-.729,7.471,8.043Zm-287.073-1.217-.784-.787,7.753-7.768.756.76Zm288.706-.314-7.509-8.006.78-.744,7.548,7.971Zm-290.274-1.264-.783-.8,7.8-7.715.759.771Zm291.905-.3-7.587-7.93.764-.742,7.629,7.891Zm-293.473-1.3-.782-.807,7.857-7.662.757.781Zm295.079-.262-7.671-7.85.758-.752,7.715,7.807Zm-296.629-1.342-.768-.8,7.908-7.609.742.777Zm298.229-.256-7.762-7.758.742-.754,7.813,7.705Zm-299.765-1.355-.768-.812,7.958-7.557.743.787Zm301.358-.275-7.87-7.646.723-.758,7.937,7.578Zm-302.894-1.355-.765-.82,8-7.51.088.094Zm-1.506-1.615-.743-.791,7.951-7.562.768.816Zm-1.485-1.576-.745-.781,7.9-7.617.771.809Zm-1.488-1.557-.746-.771,7.849-7.672.771.8Zm-1.494-1.543-.761-.775,7.8-7.727.786.8Zm-1.521-1.547-.76-.768,7.74-7.779.788.793Zm-1.522-1.529-.761-.756,7.686-7.836.789.785Zm-1.524-1.51-.77-.754,7.631-7.889.8.781Zm-1.547-1.51-.778-.752,7.575-7.943.806.779Zm-1.557-1.5-.779-.742,7.518-8,.808.77Zm-1.559-1.479-.779-.73,7.459-8.053.809.758Zm-1.573-1.471-.795-.734,7.4-8.107.825.762Zm-1.59-1.463-.795-.727,7.339-8.162.826.752Zm-1.593-1.445-.8-.715,7.279-8.219.827.744Zm-1.6-1.43-.812-.719,7.217-8.271.843.744Zm-1.624-1.43-.812-.707,7.155-8.328.844.734Zm-1.625-1.41-.813-.7,7.092-8.381.845.725Zm-1.628-1.389-.827-.7,7.026-8.436.86.725Zm-1.656-1.393-.829-.687,6.962-8.492.861.715Zm-1.658-1.371-.829-.678,6.895-8.547.863.705Zm-1.659-1.352-.841-.676,6.827-8.6.875.705Zm-1.686-1.35-.845-.668,6.759-8.656.879.7Zm-1.689-1.332-.846-.658,6.688-8.709.881.686Zm-1.691-1.311-.854-.654,6.619-8.764.89.682Zm-1.715-1.307-.86-.648,6.547-8.816.9.674Zm-1.722-1.291-.861-.637,6.475-8.871.9.664Zm-1.723-1.27-.869-.631,6.4-8.924.906.658Zm-1.744-1.262-.876-.627,6.327-8.977.914.652Zm-294.026-.891-6.717-8.758,1-.627Zm292.273-.357-.876-.615,6.253-9.029.915.643Zm-291.365-.2-5.626-9.436.966-.578,5.561,9.477Zm289.612-1.029-.884-.609,6.178-9.082.922.635Zm-287.795-.047-5.5-9.51.98-.568,5.449,9.541Zm1.852-1.066-5.4-9.57.97-.549,5.354,9.6Zm284.169-.105-.891-.6,6.1-9.135.931.629Zm-282.311-.941-5.309-9.621.991-.549,5.266,9.645Zm280.528-.26-.892-.592,6.023-9.186.931.617Zm-278.65-.775-5.227-9.666.991-.537,5.185,9.688Zm276.867-.4-.9-.586,5.944-9.238.938.613Zm-274.976-.617-5.146-9.709.986-.525,5.108,9.73Zm273.172-.555-.906-.578,5.865-9.289.945.6Zm-271.27-.453-5.071-9.75.986-.514,5.034,9.768Zm269.458-.7-.905-.57,5.785-9.34.945.6Zm-267.549-.293-5-9.787.99-.508,4.964,9.8Zm265.737-.84-.916-.564,5.7-9.391.957.59Zm-263.822-.139-4.928-9.824,1-.5,4.895,9.842Zm1.923-.965-4.858-9.857,1-.5,4.824,9.875Zm260.064-.021-.919-.555,5.62-9.439.961.58Zm-258.134-.932-4.791-9.891,1.015-.494,4.757,9.908Zm256.3-.174-.92-.543,5.537-9.49.962.568Zm-254.355-.766-4.725-9.924,1.009-.482,4.691,9.939Zm252.516-.316-.933-.541,5.454-9.539.975.566Zm-250.565-.613-4.658-9.955,1-.471,4.625,9.969Zm248.7-.463-.932-.529,5.369-9.588.975.555Zm-246.74-.453-4.594-9.986,1-.463,4.562,10Zm244.875-.6-.933-.52,5.284-9.635.976.543Zm-242.926-.3-4.528-10.016,1.019-.463,4.5,10.031Zm241.056-.738-.945-.516,5.2-9.682.988.539Zm-239.094-.15-4.464-10.043,1.021-.457,4.434,10.059Zm237.2-.873-.946-.5,5.111-9.729.989.527Zm-235.229,0-4.4-10.072,1.016-.447,4.368,10.088Zm1.98-.865-4.337-10.1,1.017-.437,4.306,10.113Zm231.357-.135-.946-.492,5.023-9.773.989.516Zm-229.383-.715-4.273-10.127,1.033-.437,4.241,10.141Zm227.481-.27-.957-.488,4.936-9.82,1,.512Zm-225.492-.57-4.21-10.154,1.025-.426,4.179,10.166Zm223.578-.4-.957-.479,4.845-9.863,1,.5Zm-221.579-.428-4.146-10.182,1.023-.418,4.115,10.193Zm219.664-.521-.96-.469,4.756-9.908,1,.49Zm-217.674-.289-4.083-10.207,1.039-.418,4.051,10.221Zm215.744-.646-.968-.461,4.664-9.951,1.015.482Zm-213.739-.156-4.019-10.232,1.031-.406,3.987,10.244Zm211.8-.76-.97-.449,4.574-10,1.014.473Zm-209.792-.029-3.956-10.258,1.037-.4,3.924,10.27Zm2.007-.773-3.891-10.283,1.043-.4,3.86,10.295Zm205.847-.092-.978-.443,4.481-10.037,1.023.465Zm-203.821-.676-3.828-10.3,1.036-.387,3.8,10.318Zm201.864-.207-.98-.434,4.39-10.076,1.025.453Zm-199.848-.541-3.764-10.33,1.053-.385,3.731,10.342Zm197.888-.32-.979-.422,4.3-10.119,1.026.443Zm-195.86-.418-3.7-10.354,1.045-.375,3.668,10.365Zm193.9-.424-.99-.416,4.2-10.156,1.037.436Zm-191.862-.3-3.635-10.377,1.05-.367,3.6,10.387Zm189.882-.523-.99-.406,4.109-10.2,1.037.424Zm-187.851-.187-3.569-10.4,1.054-.363,3.537,10.41Zm185.871-.617-.991-.395,4.015-10.234,1.038.414Zm-183.823-.084-3.5-10.422,1.048-.354,3.472,10.432Zm2.037-.684-3.438-10.445,1.061-.35,3.405,10.455Zm179.8-.021-1-.387,3.918-10.271,1.048.406Zm-177.744-.654-3.372-10.465,1.055-.342,3.339,10.477Zm175.744-.115-1-.377,3.823-10.307,1.047.395Zm-173.693-.545-3.307-10.486,1.067-.338,3.273,10.5Zm171.7-.2-1.008-.369,3.728-10.342,1.056.387Zm-169.639-.443-3.239-10.508,1.061-.328,3.206,10.518Zm167.622-.289-1.009-.359,3.631-10.377,1.058.375Zm-165.561-.346-3.173-10.527,1.069-.324,3.138,10.539Zm163.544-.367-1.009-.348,3.535-10.412,1.056.365Zm-161.481-.252-3.1-10.549,1.066-.314,3.071,10.559Zm159.459-.439-1.017-.342,3.438-10.443,1.065.357Zm-157.388-.168-3.036-10.568,1.069-.309,3,10.578Zm155.354-.51-1.018-.328,3.341-10.477,1.065.346Zm-153.285-.084-2.969-10.588,1.072-.3,2.934,10.6Zm151.252-.568-1.02-.32,3.242-10.508,1.069.336Zm-149.172-.012-2.9-10.607,1.071-.295,2.865,10.617Zm2.074-.564-2.83-10.627,1.077-.287,2.795,10.635Zm145.053-.062-1.025-.311,3.145-10.537,1.074.326Zm-142.964-.492-2.76-10.645,1.074-.279,2.725,10.654Zm140.914-.125-1.024-.3,3.047-10.564,1.073.314Zm-138.835-.412-2.688-10.662,1.081-.273,2.653,10.672Zm136.785-.184-1.032-.293,2.948-10.594,1.082.307Zm-134.689-.342-2.617-10.682,1.077-.264,2.583,10.689Zm132.625-.238-1.032-.281,2.85-10.621,1.081.295Zm-130.538-.27-2.546-10.7,1.085-.258,2.51,10.707Zm128.475-.289-1.032-.271,2.752-10.646,1.081.283Zm-126.372-.209-2.475-10.715,1.08-.25,2.438,10.723Zm124.3-.332-1.038-.262,2.652-10.674,1.088.277Zm-122.209-.148-2.4-10.732,1.089-.244,2.365,10.742Zm120.133-.371-1.038-.254,2.555-10.7,1.086.264Zm-118.024-.1-2.329-10.748,1.085-.234,2.291,10.756Zm115.948-.4-1.045-.244,2.456-10.719,1.095.256Zm-113.851-.047-2.254-10.764,1.092-.229,2.217,10.771Zm111.761-.436-1.044-.234,2.357-10.74,1.094.244Zm-109.647,0-2.18-10.781,1.089-.219,2.144,10.787Zm2.105-.424-2.106-10.793,1.095-.215,2.068,10.8Zm105.455-.037-1.043-.223,2.258-10.764,1.094.234Zm-103.337-.371-2.031-10.809,1.094-.205,1.992,10.816Zm101.243-.072-1.05-.215,2.159-10.783,1.1.225Zm-99.133-.32-1.954-10.822,1.1-.2,1.915,10.83Zm97.034-.1-1.05-.2,2.063-10.8,1.1.215Zm-94.913-.275-1.876-10.836,1.1-.191,1.838,10.846Zm92.814-.129-1.055-.2,1.963-10.822,1.105.205Zm-90.7-.232-1.8-10.852,1.1-.182,1.761,10.857Zm88.588-.152-1.054-.186,1.865-10.84,1.1.193Zm-86.463-.2-1.722-10.863,1.1-.174,1.683,10.869Zm84.356-.172-1.054-.176,1.768-10.855,1.1.184Zm-82.233-.16-1.644-10.875,1.1-.166,1.6,10.881Zm80.12-.186-1.059-.168,1.669-10.871,1.107.174Zm-77.992-.131-1.564-10.887,1.107-.158,1.524,10.893Zm75.876-.2-1.057-.156,1.571-10.887,1.105.164Zm-73.748-.1-1.484-10.9,1.1-.15,1.443,10.9Zm71.633-.205-1.063-.148,1.475-10.9,1.111.154Zm-69.5-.08-1.4-10.908,1.11-.143,1.362,10.914Zm67.377-.211-1.062-.137,1.377-10.912,1.109.143Zm-65.244-.057-1.322-10.92,1.105-.133,1.282,10.924Zm63.123-.213-1.063-.129,1.28-10.924,1.111.135Zm-60.99-.041-1.241-10.928,1.112-.125,1.2,10.934Zm58.861-.211-1.065-.119,1.184-10.936,1.113.125Zm-56.723-.025-1.158-10.937,1.106-.117,1.117,10.943Zm54.594-.207-1.062-.109,1.088-10.945,1.11.113Zm-52.46-.012-1.076-10.947,1.113-.109,1.034,10.951Zm50.33-.2-1.068-.1.992-10.953,1.116.1Zm-48.187,0-.992-10.955,1.108-.1.95,10.959Zm2.135-.187-.908-10.961,1.113-.092.866,10.967Zm43.917,0-1.066-.092.9-10.963,1.113.1Zm-41.772-.166-.823-10.969,1.112-.082.78,10.971Zm39.642-.01-1.071-.082.8-10.971,1.119.086Zm-37.5-.145-.737-10.975,1.113-.074.694,10.979Zm35.361-.014-1.068-.072.706-10.977,1.116.074Zm-33.217-.123-.652-10.98,1.117-.064.608,10.982Zm31.081-.016-1.068-.062.612-10.982,1.115.064Zm-28.939-.1-.564-10.986,1.113-.055.522,10.986Zm26.8-.018-1.071-.053.518-10.988,1.119.057Zm-24.654-.086-.479-10.988,1.119-.047.434,10.99Zm22.513-.016-1.068-.045.427-10.99,1.113.045Zm-20.367-.07-.39-10.992,1.114-.037.346,10.994Zm18.228-.014-1.073-.035.332-10.994,1.12.035Zm-16.085-.053-.3-11,1.119-.029.257,11Zm13.939-.014-1.07-.025.241-11,1.115.025Zm-11.79-.037-.213-11,1.114-.02.168,11Zm9.651-.01-1.075-.016.148-11,1.122.018Zm-7.511-.023-.124-11,1.118-.01.079,11Zm5.361-.006-1.071-.008.057-11,1.118.008Zm-3.213-.01-.033-11,1.117,0-.013,11Z" transform="translate(394.997 141.66)" fill="#dbdbdb" opacity="0.163"/>
    </g>
  </g>
</svg>
