<svg xmlns="http://www.w3.org/2000/svg" width="100" height="60" viewBox="0 0 100 60">
  <g id="Yahoo_Finance_" data-name="Yahoo Finance " transform="translate(-1099 -7845)">
    <g id="Rectangle_7546" data-name="Rectangle 7546" transform="translate(1099 7845)" fill="#fff" stroke="#ddd" stroke-width="1">
      <rect width="100" height="60" rx="2" stroke="none"/>
      <rect x="0.5" y="0.5" width="99" height="59" rx="1.5" fill="none"/>
    </g>
    <g id="BrandLogo.org_-_Yahoo_Finance_Logo_2019" data-name="BrandLogo.org - Yahoo Finance Logo 2019" transform="translate(1107 7869)">
      <path id="Path_221391" data-name="Path 221391" d="M12.039,4.74v.594a2.166,2.166,0,0,0-1.717-.76A3.181,3.181,0,0,0,7.283,7.928a3.152,3.152,0,0,0,3.039,3.352,2.116,2.116,0,0,0,1.717-.76v.594h2.18V4.74ZM14.978,1.9v9.231h2.246V7.713c0-.661.314-1.057.826-1.057s.776.347.776.974v3.484h2.246V7.1c0-1.552-.842-2.527-2.2-2.527a2.083,2.083,0,0,0-.941.182,1.86,1.86,0,0,0-.743.594V1.9ZM35.587,7.928a3.419,3.419,0,0,1-6.837,0,3.419,3.419,0,0,1,6.837,0Zm-7.2,0a3.419,3.419,0,0,1-6.837,0,3.419,3.419,0,0,1,6.837,0ZM0,4.724l2.725,6.44L1.75,13.493H4.145L7.761,4.724H5.384L3.914,8.473,2.444,4.724ZM10.784,9.249a1.346,1.346,0,0,1-.512-.1,1.252,1.252,0,0,1-.71-.71,1.372,1.372,0,0,1,0-1.024,1.252,1.252,0,0,1,.71-.71,1.346,1.346,0,0,1,.512-.1,1.264,1.264,0,0,1,.5.1,1.485,1.485,0,0,1,.429.281,1.291,1.291,0,0,1,.281.429,1.346,1.346,0,0,1,.1.512,1.409,1.409,0,0,1-.1.512,1.485,1.485,0,0,1-.281.429,1.291,1.291,0,0,1-.429.281A1.264,1.264,0,0,1,10.784,9.249ZM26.24,7.928a1.729,1.729,0,0,0-.083-.5,1.023,1.023,0,0,0-.281-.413,1.407,1.407,0,0,0-.413-.281,1.264,1.264,0,0,0-.5-.1,1.325,1.325,0,0,0-.5.1,1.334,1.334,0,0,0-.694.694,1.047,1.047,0,0,0-.083.5,1.73,1.73,0,0,0,.083.5,1.023,1.023,0,0,0,.281.413,1.407,1.407,0,0,0,.413.281,1.264,1.264,0,0,0,.5.1,1.325,1.325,0,0,0,.5-.1,1.334,1.334,0,0,0,.694-.694,1.2,1.2,0,0,0,.083-.5Zm7.2,0a1.73,1.73,0,0,0-.083-.5,1.023,1.023,0,0,0-.281-.413,1.407,1.407,0,0,0-.413-.281,1.264,1.264,0,0,0-.5-.1,1.325,1.325,0,0,0-.5.1,1.334,1.334,0,0,0-.694.694,1.047,1.047,0,0,0-.083.5,1.73,1.73,0,0,0,.083.5,1.023,1.023,0,0,0,.281.413,1.407,1.407,0,0,0,.413.281,1.264,1.264,0,0,0,.5.1,1.325,1.325,0,0,0,.5-.1,1.334,1.334,0,0,0,.694-.694.983.983,0,0,0,.083-.5Zm2.428,1.85a1.608,1.608,0,0,0,.1.561,1.4,1.4,0,0,0,.793.793,1.623,1.623,0,0,0,.561.116,1.391,1.391,0,0,0,.578-.116,1.518,1.518,0,0,0,.826-.826,1.391,1.391,0,0,0,.116-.578,1.608,1.608,0,0,0-.1-.561,1.4,1.4,0,0,0-.793-.793,1.3,1.3,0,0,0-.561-.1,1.391,1.391,0,0,0-.578.116,1.518,1.518,0,0,0-.826.826,1.267,1.267,0,0,0-.116.561Zm3.2-7.877L36.677,7.7h2.675l2.395-5.8Z" transform="translate(0 -1.586)" fill="#6001d2"/>
      <path id="Path_221392" data-name="Path 221392" d="M255.171,3.022a.889.889,0,0,1,.958-.974,1.767,1.767,0,0,1,.71.149V.264A2.619,2.619,0,0,0,255.716.05a2.657,2.657,0,0,0-2.857,2.923v.2H252V5.053h.859V9.578h2.328V5.053h1.569V3.171h-1.569V3.022h-.017Zm4.706,6.556V3.171h-2.328V9.578Zm.149-8.29a1.249,1.249,0,0,0-.4-.908,1.316,1.316,0,0,0-1.85,0,1.382,1.382,0,0,0-.4.908,1.249,1.249,0,0,0,.4.908,1.316,1.316,0,0,0,1.85,0,1.349,1.349,0,0,0,.4-.908Zm12.617,1.883v.677a2.26,2.26,0,0,0-1.85-.859,3.157,3.157,0,0,0-3.006,3.385,3.146,3.146,0,0,0,3.006,3.385,2.283,2.283,0,0,0,1.85-.859v.677h2.3V3.171Zm.066,3.2a1.264,1.264,0,0,1-.1.5,1.746,1.746,0,0,1-.281.429,1.291,1.291,0,0,1-.429.281,1.325,1.325,0,0,1-.5.1,1.264,1.264,0,0,1-.5-.1,1.485,1.485,0,0,1-.429-.281,1.291,1.291,0,0,1-.281-.429,1.326,1.326,0,0,1-.1-.5,1.264,1.264,0,0,1,.1-.5,1.484,1.484,0,0,1,.281-.429,1.291,1.291,0,0,1,.429-.281,1.325,1.325,0,0,1,.5-.1,1.264,1.264,0,0,1,.5.1,1.485,1.485,0,0,1,.429.281,1.292,1.292,0,0,1,.281.429,1.207,1.207,0,0,1,.1.5Zm7.167,3.2h2.345V5.5c0-1.569-.859-2.527-2.229-2.527a1.909,1.909,0,0,0-1.734.925V3.154h-2.328V9.545h2.328V6.16c0-.661.314-1.057.826-1.057s.793.363.793.974Zm-15.061,0h2.345V5.5c0-1.569-.859-2.527-2.229-2.527A1.909,1.909,0,0,0,263.2,3.9V3.154h-2.328V9.545h2.345V6.16c0-.661.314-1.057.826-1.057s.793.363.793.974Zm18.033-3.2a3.25,3.25,0,0,0,3.418,3.385A3.336,3.336,0,0,0,287.8,9.4V7.266a1.939,1.939,0,0,1-1.156.38,1.279,1.279,0,1,1,0-2.543,2.041,2.041,0,0,1,1.156.363V3.319a3.567,3.567,0,0,0-1.5-.33,3.3,3.3,0,0,0-3.451,3.385Zm9.859,1.04a1.19,1.19,0,0,1-.462.4,1.07,1.07,0,0,1-.595.116,1.1,1.1,0,0,1-1.156-.974H294.9c.016-.165.033-.33.033-.479a3.227,3.227,0,0,0-3.319-3.484,2.964,2.964,0,0,0-1.3.248,3.262,3.262,0,0,0-1.833,1.833,3.521,3.521,0,0,0-.248,1.3,3.178,3.178,0,0,0,3.418,3.369,3.348,3.348,0,0,0,3.072-1.569Zm-2.2-1.783a1,1,0,0,1,1.09-.875.988.988,0,0,1,1.073.875Z" transform="translate(-210.385 0)" fill="#232a31"/>
    </g>
  </g>
</svg>
