<svg xmlns="http://www.w3.org/2000/svg" width="238.538" height="178.355" viewBox="0 0 238.538 178.355">
  <g id="Illustration" transform="translate(10589.057 -3605)">
    <path id="Path_33866" data-name="Path 33866" d="M269.03,50.678c.355,8.865.714,19.6.884,29.415h0s10.867-7.316,18.262-10.162a5.968,5.968,0,0,1,2.134-.384l.47-.683c1.143-2.476,2.414-4.946,3.6-7.467-1.818-.256-2-2.6-2.007-4.228,0-.568.009-1.136.03-1.7h0c-3.1-.787-5.088-4.013-3.829-7.89a9.576,9.576,0,0,1,6.679-5.9,41.88,41.88,0,0,1,3.537-7.06,26.907,26.907,0,0,0-11.209-1.625,27.247,27.247,0,0,0-2.852.366,34.77,34.77,0,0,0-4.806.236,62.836,62.836,0,0,0-16.245,4.422c3.955,2.036,5.152,7.619,5.354,12.664" transform="translate(-10766.018 3582.862)" fill="#f4f6f9"/>
    <path id="Path_33867" data-name="Path 33867" d="M443.29,107.686a17.088,17.088,0,0,1-2.738-.841c-.812,1.9-1.634,3.721-2.344,5.364-2.133,4.934-7.065,16.3-7.065,16.3l-.094.241c.266.245.473.443.6.569,1.638,1.638,1.79,7.21,1.821,16.384s-.15,28.686,2.718,39.332c1.587,5.89,3.291,16.52,8.411,20.25,7.758,5.651,15.492-5.921,18.292-12.093,2.386-5.258,3.62-10.5,5.306-15.911.89-2.853,1.48-5.032,3.833-5.552,0,0,4.122-16.959,5.585-24.708,1.329-7.039,2.844-16.246,9.552-20.236,2.73-1.624,8.742-4.514,10.915-.687,1.929-1.888,5.656-2.414,7.176-.232a25.361,25.361,0,0,0-6.835-17.1,26.209,26.209,0,0,0-11.031-7.136,26.7,26.7,0,0,0-14.861-.051c-9.637,2.417-18.939,8.348-29.238,6.117" transform="translate(-10878.571 3537.391)" fill="#f4f6f9"/>
    <path id="Path_33868" data-name="Path 33868" d="M653.612,330.063c-.915-4.986-3.883-9.224-7.588-12.572-4.214-3.807-9.008-7.04-13.542-10.45l-3.5-2.636-3.518,16.134-.038.132a11.327,11.327,0,0,1,1.548,2.146c3.714,6.739,1.8,17.951-.654,24.692a27.427,27.427,0,0,1-4.421,7.255,20.334,20.334,0,0,1-.807,8.808,52.962,52.962,0,0,0,8.324-1.489c9.278-2.476,18.4-8.209,22.346-17.292a25.246,25.246,0,0,0,1.854-14.727" transform="translate(-11006.367 3400.297)" fill="#f4f6f9"/>
    <path id="Path_33869" data-name="Path 33869" d="M693.723,231.39a5.58,5.58,0,0,0-10.308.251l-.528,1.367c-.677-.257-1.626-.616-2.77-1.046a1.474,1.474,0,1,0-1.037,2.76c1.132.425,2.072.781,2.745,1.036l-.348.9a5.58,5.58,0,0,0,10.412,4.019l1.937-5.018a5.545,5.545,0,0,0-.1-4.27m-2.646,3.208-1.937,5.019a2.633,2.633,0,1,1-4.912-1.9l1.937-5.018a2.632,2.632,0,1,1,4.912,1.9" transform="translate(-11044.723 3451.63)" fill="#ffe945"/>
    <path id="Path_33870" data-name="Path 33870" d="M282.73,155.288s10.867-7.316,18.262-10.162c3.413-1.314,7.383,1.047,10.792,2.342a83.292,83.292,0,0,1,13.756,6.455,44.607,44.607,0,0,1,6.367,5.118c1.638,1.638,1.79,7.21,1.821,16.384s-.15,28.686,2.717,39.331c1.587,5.89,3.291,16.52,8.411,20.249,7.758,5.652,15.492-5.921,18.292-12.093,2.386-5.258,3.62-10.5,5.306-15.911,1.106-3.546,1.747-6.053,5.887-5.625,3.357.348,7.869,2.709,10.808,4.259,4.8,2.53,11.512,4.779,14.284,9.81,3.714,6.739,1.8,17.95-.654,24.692-1.477,4.06-8.714,15.115-11.856,8.2-1.373-3.022,2.042-7.5,5.126-5.061,6.668,5.279-1.668,22.494-4.935,26.88" transform="translate(-10778.831 3507.666)" fill="none" stroke="#333" stroke-linecap="round" stroke-linejoin="round" stroke-width="3"/>
    <path id="Path_33871" data-name="Path 33871" d="M332.415,164.663c-.151,4.068,1.451,14.321,4.9,17.112,5.352,4.336,12.789-5.639,16.023-8.57-.159,3.577-2.219,12.43,1.68,14.564,2.77,1.516,6.216-1.3,8.188-2.8" transform="translate(-10812.236 3494.269)" fill="none" stroke="#333" stroke-linecap="round" stroke-linejoin="round" stroke-width="3"/>
    <path id="Path_33872" data-name="Path 33872" d="M340.777,226.663a74.4,74.4,0,0,0-8.877,12.226c-2.91,5.126-4.82,9.187-3.591,12.081.87,2.049,3.531,1.025,4.312,3.256,1.065,3.046-4.424,8.192-5.438,10.689-1.165,2.867-2.025,5.9-1.152,8.666.733,2.322,2.113,3.547,1.979,6.215-.147,2.925-5.575,11.147-5.575,13.027" transform="translate(-10805.531 3452.575)" fill="none" stroke="#333" stroke-linecap="round" stroke-linejoin="round" stroke-width="3"/>
    <line id="Line_268" data-name="Line 268" x2="1.965" y2="0.328" transform="translate(-10469.341 3698.235)" fill="none" stroke="#333" stroke-linecap="round" stroke-linejoin="round" stroke-width="3"/>
    <path id="Path_33873" data-name="Path 33873" d="M349.435,353.663c.46.131.836.225,1.31.328" transform="translate(-10823.688 3367.172)" fill="none" stroke="#333" stroke-linecap="round" stroke-linejoin="round" stroke-width="3"/>
    <line id="Line_269" data-name="Line 269" x2="1.638" transform="translate(-10478.184 3743.761)" fill="none" stroke="#333" stroke-linecap="round" stroke-linejoin="round" stroke-width="3"/>
    <path id="Path_33874" data-name="Path 33874" d="M388.435,327.663c3.065,2.247,6.38,4.015,9.171,6.551" transform="translate(-10849.915 3384.656)" fill="none" stroke="#333" stroke-linecap="round" stroke-linejoin="round" stroke-width="3"/>
    <path id="Path_33875" data-name="Path 33875" d="M406.038,329.663c-.383,4.479-2.049,9.48-3.6,13.756" transform="translate(-10859.329 3383.311)" fill="none" stroke="#333" stroke-linecap="round" stroke-linejoin="round" stroke-width="3"/>
    <path id="Path_33876" data-name="Path 33876" d="M397.71,324.663c-.444,2.867-3.275,10.942-3.275,10.942" transform="translate(-10853.949 3386.673)" fill="none" stroke="#333" stroke-linecap="round" stroke-linejoin="round" stroke-width="3"/>
    <path id="Path_33877" data-name="Path 33877" d="M556.163,220.3s4.122-16.959,5.585-24.708c1.329-7.039,2.844-16.246,9.552-20.236,2.731-1.624,8.742-4.514,10.915-.687,2.358-2.307,7.4-2.584,7.819,1.638,3.054-1.834,6.011-.1,5.9,3.611,8.331.371,3.221,15.892-1,19.057-3.031,2.274-5.677,1.436-7.221-.382" transform="translate(-10962.707 3488.812)" fill="none" stroke="#333" stroke-linecap="round" stroke-linejoin="round" stroke-width="3"/>
    <line id="Line_270" data-name="Line 270" y1="32.406" x2="7.066" transform="translate(-10380.908 3688.429)" fill="none" stroke="#333" stroke-linecap="round" stroke-linejoin="round" stroke-width="3"/>
    <path id="Path_33878" data-name="Path 33878" d="M566.435,277.663c5.141,0,10.017.348,14.41,1.893s9.008,4.026,10.809,6.646" transform="translate(-10969.615 3418.279)" fill="none" stroke="#333" stroke-linecap="round" stroke-linejoin="round" stroke-width="3"/>
    <path id="Path_33879" data-name="Path 33879" d="M608.419,198.663c.134,1.135-.045,3,0,3.6" transform="translate(-10997.843 3471.405)" fill="none" stroke="#333" stroke-linecap="round" stroke-linejoin="round" stroke-width="3"/>
    <path id="Path_33880" data-name="Path 33880" d="M635.705,178.56a14.844,14.844,0,0,1,2.476,9.537" transform="translate(-11016.197 3484.923)" fill="none" stroke="#333" stroke-linecap="round" stroke-linejoin="round" stroke-width="3"/>
    <path id="Path_33881" data-name="Path 33881" d="M639.212,183.56c.916,4.471,1.575,11.623-.375,15.342-1.581,3.016-6.1,5.86-9.545,4.016" transform="translate(-11011.885 3481.561)" fill="none" stroke="#333" stroke-linecap="round" stroke-linejoin="round" stroke-width="3"/>
    <path id="Path_33882" data-name="Path 33882" d="M648.566,194.587c0,9.5-5.007,24.723-14.132,16.315" transform="translate(-11015.342 3474.146)" fill="none" stroke="#333" stroke-linecap="round" stroke-linejoin="round" stroke-width="3"/>
    <path id="Path_33883" data-name="Path 33883" d="M552.333,195.1c-8.779-3.043-21.287-7.556-21.412-7.6a1.474,1.474,0,1,0-1,2.773l.918.331-1.368,3.01a1.474,1.474,0,1,0,2.684,1.22l1.468-3.23.1.035c-1.41,2.786-1.345,3.161-.974,3.8a1.474,1.474,0,0,0,2.743-.607c.135-.366.569-1.275,1.032-2.191,4.371,1.563,10.143,3.614,14.848,5.245a1.474,1.474,0,0,0,.965-2.785" transform="translate(-10944.404 3478.971)" fill="#ffe945"/>
    <path id="Path_33884" data-name="Path 33884" d="M341.108,56.392c2.1-4.555,4.64-9.089,6.254-13.961-5.326,2.528-10.285-1.722-8.464-7.328,1.7-5.244,9.016-7.89,13.609-5.29,1.856-6.244,6.881-14.549,13.821-15.344,9.407-1.078,16.192,7.253,21.264,13.9a71.589,71.589,0,0,1,6.543,10.607c-3.513-.485-12.021-1.873-12.021-1.873-.708,5.377-3.953,12.122-6.134,17.166-2.133,4.934-7.065,16.3-7.065,16.3" transform="translate(-10816.344 3595.334)" fill="none" stroke="#333" stroke-linecap="round" stroke-linejoin="round" stroke-width="3"/>
    <path id="Path_33885" data-name="Path 33885" d="M420.435,91.663c.664,1.669,2.127,3.736,4.255,3.736" transform="translate(-10871.434 3543.359)" fill="none" stroke="#333" stroke-linecap="round" stroke-linejoin="round" stroke-width="3"/>
    <line id="Line_271" data-name="Line 271" x2="0.983" y2="1.965" transform="translate(-10448.051 3625.852)" fill="none" stroke="#333" stroke-linecap="round" stroke-linejoin="round" stroke-width="3"/>
    <line id="Line_272" data-name="Line 272" x2="1.31" y2="2.293" transform="translate(-10443.139 3625.524)" fill="none" stroke="#333" stroke-linecap="round" stroke-linejoin="round" stroke-width="3"/>
    <path id="Path_33886" data-name="Path 33886" d="M361.786,79.991c-.924-.229-4.42-.29-3.6-.328" transform="translate(-10829.488 3551.429)" fill="none" stroke="#333" stroke-linecap="round" stroke-linejoin="round" stroke-width="3"/>
    <path id="Path_33887" data-name="Path 33887" d="M351.312,100.6c-.021.568-.033,1.136-.03,1.7.01,1.627.189,3.972,2.007,4.228a59.285,59.285,0,0,0,2.658-6.494,6.835,6.835,0,0,1-4.635.562" transform="translate(-10824.93 3537.729)" fill="#333"/>
    <path id="Path_33888" data-name="Path 33888" d="M402.046,11.054c-4.938-1.514-7.657-6.626-12-9.163-4.241-2.476-9.905-2.809-13.664.754a8.772,8.772,0,0,0-1.154,1.361c-.157.226-.263.4-.361.529a6.938,6.938,0,0,0-4.905.643c-2.337,1.279-4.033,3.839-5.5,5.992a41.713,41.713,0,0,0-4.386,8.367,9.472,9.472,0,0,1,6.2.252,20.488,20.488,0,0,0,1.686,6.511,1.319,1.319,0,0,0,2.263,0c2.843-5.274,9.368-10.534,8.612-16.865A63.242,63.242,0,0,0,401.7,13.627a1.316,1.316,0,0,0,.348-2.573" transform="translate(-10830.845 3605)" fill="#333"/>
    <path id="Path_33889" data-name="Path 33889" d="M86.815,202.772c-6.685.692-21.282,1.241-34.714,1.241s-28.392.266-34.621.075-12.123-2.3-12.549-12.195-.647-25.628-.678-35.533c-.071-23.065-.752-46.1-.752-69.2,0-12.059-.021-23.7,2-35.546,1.056-6.189,6.92-8.264,12.643-9.267,9.785-1.715,15.612-1.061,25.566-1.57,14.333-.733,36.244,1.066,42.35,1.646s7.769,7.39,8.011,13.423c.477,11.879.959,27.113.984,39,.053,24.522-.45,49.35.845,73.784.455,8.577.1,19.293.1,23.01S93.5,202.08,86.815,202.772Z" transform="translate(-10591.057 3577.697)" fill="none" stroke="#333" stroke-linecap="round" stroke-linejoin="round" stroke-width="3"/>
    <path id="Path_33890" data-name="Path 33890" d="M44.056,45.483c-7.424,3.14-8.945,9.549-9.278,18.849S34.6,91.811,34.6,109.957s.17,38.217.17,51-.038,25.491.548,33.962,4.8,12.5,10.918,12.518" transform="translate(-10611.948 3574.414)" fill="none" stroke="#333" stroke-linecap="round" stroke-linejoin="round" stroke-width="3"/>
    <path id="Path_33891" data-name="Path 33891" d="M137,242.458c-.84-15.988-1.816-17.721-2.184-18.374a8.23,8.23,0,0,0-5.485-3.663c-.014-.716-.023-1.419-.03-2.1-.081-7.17-.144-12.834-6.591-17.353-2.633-1.845-8.038-2.785-13.684-.486-7.426,3.024-7.556,11.273-7.651,17.3-.02,1.253-.039,2.446-.121,3.465-.084.018-.172.035-.248.053-5.519,1.3-5.838,8.66-6.07,14.031-.037.863-.073,1.678-.126,2.416-.588,8.2-.63,20.718-.631,20.844a1.146,1.146,0,0,0,1.085,1.148c4.579.245,8.854.352,13.068.352,8.914,0,17.55-.478,28.18-1.137a1.147,1.147,0,0,0,1.075-1.17c0-.074-.176-7.537-.585-15.323m-32.679-24.632c.091-5.777.195-12.324,5.816-14.612,3.263-1.328,8.185-1.72,10.88.169,5.209,3.651,5.259,8.155,5.335,14.972.006.524.013,1.063.021,1.607-.654-.05-1.3-.073-1.906-.073-3.333,0-14.153.293-20.234.93.053-.936.071-1.942.087-2.993" transform="translate(-10652.032 3471.092)" fill="#9ed5f0"/>
    <path id="Path_33892" data-name="Path 33892" d="M129.054,268.569c-2.227,4.129-1.28,23.681-1.529,37.074" transform="translate(-10674.46 3424.395)" fill="none" stroke="#333" stroke-linecap="round" stroke-linejoin="round" stroke-width="3"/>
    <path id="Path_33893" data-name="Path 33893" d="M164.125,302.843a4.175,4.175,0,0,0,.029-8.308,14.155,14.155,0,0,0-4.069-.018l-.4.038a4.239,4.239,0,0,0-4.043,4.193,4.173,4.173,0,0,0,3.575,4.094c-1.142,4.186-2.924,9.576-2.947,9.644a1.146,1.146,0,0,0,1.088,1.507h.036l8.462-.261a1.147,1.147,0,0,0,1.063-1.474c-.02-.066-1.6-5.347-2.793-9.415" transform="translate(-10693.367 3407.039)" fill="#333"/>
    <path id="Path_33894" data-name="Path 33894" d="M597.449,226.581c2.7-2.846,2.742-11.013-1.539-12.708,3.006-.188,10.462.418,11.371-3.685.582-2.624-3.215-3.4-5.4-3.558-6.115-.452-14.156,1.718-17.09,7.529" transform="translate(-10981.96 3466.086)" fill="none" stroke="#333" stroke-linecap="round" stroke-linejoin="round" stroke-width="3"/>
    <rect id="Rectangle_7256" data-name="Rectangle 7256" width="238.185" height="178" transform="translate(-10588.703 3605)" fill="none"/>
  </g>
</svg>
