<svg xmlns="http://www.w3.org/2000/svg" width="50.48" height="50.578" viewBox="0 0 50.48 50.578">
  <g id="meradesh-logo5" transform="translate(-76 -53.8)">
    <path id="Path_10" data-name="Path 10" d="M78.618,104.664,76,107.4v43.661h6.605l2.675-2.4V104.77s-6.605-.164-6.655-.107Z" transform="translate(0 -46.679)" fill="#d8d8d8"/>
    <path id="Path_11" data-name="Path 11" d="M210.655,177.315,208.3,179.7v38.049h5.941l2.4-2.421V177.414S210.7,177.274,210.655,177.315Z" transform="translate(-121.444 -113.374)" fill="#d8d8d8"/>
    <path id="Path_12" data-name="Path 12" d="M329.194,175l-2.494,2.683v37.95h6.031l2.445-2.33-.074-37.556s-5.859-.788-5.908-.738Z" transform="translate(-230.129 -111.255)" fill="#d8d8d8"/>
    <path id="Path_13" data-name="Path 13" d="M133.872,109.827l.016-6.827-26.389.041.156,6.8h.025v37.286h6.573V109.843h3.217v37.163h6.581V109.843h3.282v37.286h6.573v-37.3Z" transform="translate(-28.915 -45.163)"/>
    <path id="Path_14" data-name="Path 14" d="M474,91.865V53.8l-3.217,3L470.7,91.865h.016v9.092h11.373a3.948,3.948,0,0,0,3.947-3.947V91.865Z" transform="translate(-362.313 0)" fill="#d8d8d8"/>
    <path id="Path_15" data-name="Path 15" d="M510.7,53.8h10.52a4.29,4.29,0,0,1,4.291,4.291V93.457a4.29,4.29,0,0,1-4.291,4.291H510.7Z" transform="translate(-399.031 0)"/>
    <path id="Line_2" data-name="Line 2" d="M9.535-6.687H0V-8H9.535Z" transform="translate(111.521 83.963)" fill="#d8d8d8"/>
  </g>
</svg>
