<svg id="Meradesh_Platform" data-name="Meradesh Platform" xmlns="http://www.w3.org/2000/svg" xmlns:xlink="http://www.w3.org/1999/xlink" width="43" height="38.615" viewBox="0 0 43 38.615">
  <defs>
    <clipPath id="clip-path">
      <rect id="Rectangle_6833" data-name="Rectangle 6833" width="43" height="38.615" fill="none"/>
    </clipPath>
  </defs>
  <g id="Group_1591" data-name="Group 1591" clip-path="url(#clip-path)">
    <path id="Path_33620" data-name="Path 33620" d="M16.659,1.311a18.964,18.964,0,0,0-2.335.114,4.653,4.653,0,0,0-1.41.369,1.7,1.7,0,0,0-.769.683,3.868,3.868,0,0,0-.384,1.054,37.292,37.292,0,0,0-.285,6.094V28.563q0,2.306.057,3.788a20.085,20.085,0,0,0,.171,2.192,4.552,4.552,0,0,0,.356,1.225,2.069,2.069,0,0,0,.769.854,3.973,3.973,0,0,0,1.381.513,11.3,11.3,0,0,0,2.165.171h1v1.31H0v-1.31H1A11.664,11.664,0,0,0,3.1,37.149a3.947,3.947,0,0,0,1.352-.485,2.162,2.162,0,0,0,.783-.8,4.23,4.23,0,0,0,.4-1.125,15.078,15.078,0,0,0,.213-2.207q.071-1.552.072-3.972V9.625q0-2.306-.072-3.8a14.676,14.676,0,0,0-.213-2.15A6.146,6.146,0,0,0,5.3,2.592a1.579,1.579,0,0,0-.712-.741,4.177,4.177,0,0,0-1.423-.413,18.469,18.469,0,0,0-2.45-.128H0V0H43V1.311h-.569a19.34,19.34,0,0,0-2.35.114,4.678,4.678,0,0,0-1.424.369,1.7,1.7,0,0,0-.769.683A3.867,3.867,0,0,0,37.5,3.532a37.291,37.291,0,0,0-.285,6.094V28.563q0,2.306.043,3.788a18.45,18.45,0,0,0,.157,2.192,4.741,4.741,0,0,0,.356,1.211,2.044,2.044,0,0,0,.769.869,3.973,3.973,0,0,0,1.381.513,11.48,11.48,0,0,0,2.193.171H43v1.31H25.43v-1.31h1.339a11.461,11.461,0,0,0,2.078-.156,3.946,3.946,0,0,0,1.352-.485,2.162,2.162,0,0,0,.783-.8,4.232,4.232,0,0,0,.4-1.125,43.544,43.544,0,0,0,.257-6.179V9.625a41.407,41.407,0,0,0-.257-5.951,6.145,6.145,0,0,0-.342-1.082,1.578,1.578,0,0,0-.712-.741A4.176,4.176,0,0,0,28.9,1.439a18.468,18.468,0,0,0-2.45-.128Z" fill="#1a1818"/>
  </g>
</svg>
