<svg xmlns="http://www.w3.org/2000/svg" width="122" height="19.203" viewBox="0 0 122 19.203">
  <g id="Meridian.API" transform="translate(0)">
    <path id="Path_33621" data-name="Path 33621" d="M2.625,91.84a.468.468,0,0,1-.6.255.469.469,0,0,1-.078-.644.469.469,0,0,1,.6-.255.468.468,0,0,1,.078.644" transform="translate(-1.639 -80.228)" fill="#282c37"/>
    <path id="Path_33622" data-name="Path 33622" d="M11.284,91.84a.468.468,0,0,1-.6.255.541.541,0,1,1,.6-.255" transform="translate(-9.26 -80.228)" fill="#282c37"/>
    <path id="Path_33623" data-name="Path 33623" d="M19.942,91.84a.405.405,0,1,1-.078-.644.468.468,0,0,1,.078.644" transform="translate(-16.88 -80.228)" fill="#282c37"/>
    <path id="Path_33624" data-name="Path 33624" d="M28.6,91.84a.405.405,0,1,1-.078-.644.468.468,0,0,1,.078.644" transform="translate(-24.501 -80.228)" fill="#282c37"/>
    <path id="Path_33625" data-name="Path 33625" d="M37.259,91.84a.405.405,0,1,1-.078-.644.468.468,0,0,1,.078.644" transform="translate(-32.121 -80.228)" fill="#282c37"/>
    <path id="Path_33626" data-name="Path 33626" d="M45.917,91.84a.405.405,0,1,1-.078-.644.468.468,0,0,1,.078.644" transform="translate(-39.741 -80.228)" fill="#282c37"/>
    <path id="Path_33627" data-name="Path 33627" d="M54.576,91.84A.405.405,0,1,1,54.5,91.2a.468.468,0,0,1,.078.644" transform="translate(-47.362 -80.228)" fill="#282c37"/>
    <path id="Path_33628" data-name="Path 33628" d="M63.234,91.84a.405.405,0,1,1-.078-.644.468.468,0,0,1,.078.644" transform="translate(-54.982 -80.228)" fill="#282c37"/>
    <path id="Path_33629" data-name="Path 33629" d="M71.893,91.84a.405.405,0,1,1-.078-.644.468.468,0,0,1,.078.644" transform="translate(-62.603 -80.228)" fill="#282c37"/>
    <path id="Path_33630" data-name="Path 33630" d="M80.551,91.84a.405.405,0,1,1-.078-.644.468.468,0,0,1,.078.644" transform="translate(-70.223 -80.228)" fill="#282c37"/>
    <path id="Path_33631" data-name="Path 33631" d="M89.21,91.84a.405.405,0,1,1-.078-.644.468.468,0,0,1,.078.644" transform="translate(-77.844 -80.228)" fill="#282c37"/>
    <path id="Path_33632" data-name="Path 33632" d="M97.868,91.84a.405.405,0,1,1-.078-.644.468.468,0,0,1,.078.644" transform="translate(-85.464 -80.228)" fill="#282c37"/>
    <path id="Path_33633" data-name="Path 33633" d="M106.526,91.84a.405.405,0,1,1-.078-.644.468.468,0,0,1,.078.644" transform="translate(-93.084 -80.228)" fill="#282c37"/>
    <path id="Path_33634" data-name="Path 33634" d="M115.185,91.84a.405.405,0,1,1-.078-.644.468.468,0,0,1,.078.644" transform="translate(-100.705 -80.228)" fill="#282c37"/>
    <path id="Path_33635" data-name="Path 33635" d="M123.843,91.84a.405.405,0,1,1-.078-.644.468.468,0,0,1,.078.644" transform="translate(-108.325 -80.228)" fill="#282c37"/>
    <path id="Path_33636" data-name="Path 33636" d="M132.5,91.84a.405.405,0,1,1-.078-.644.468.468,0,0,1,.078.644" transform="translate(-115.946 -80.228)" fill="#282c37"/>
    <path id="Path_33637" data-name="Path 33637" d="M141.16,91.84a.405.405,0,1,1-.078-.644.468.468,0,0,1,.078.644" transform="translate(-123.566 -80.228)" fill="#282c37"/>
    <path id="Path_33638" data-name="Path 33638" d="M149.819,91.84a.405.405,0,1,1-.078-.644.468.468,0,0,1,.078.644" transform="translate(-131.187 -80.228)" fill="#282c37"/>
    <path id="Path_33639" data-name="Path 33639" d="M158.477,91.84a.405.405,0,1,1-.078-.644.468.468,0,0,1,.078.644" transform="translate(-138.807 -80.228)" fill="#282c37"/>
    <path id="Path_33640" data-name="Path 33640" d="M167.136,91.84a.406.406,0,1,1-.078-.644.469.469,0,0,1,.078.644" transform="translate(-146.428 -80.228)" fill="#282c37"/>
    <path id="Path_33641" data-name="Path 33641" d="M175.794,91.84a.405.405,0,1,1-.078-.644.468.468,0,0,1,.078.644" transform="translate(-154.048 -80.228)" fill="#282c37"/>
    <path id="Path_33642" data-name="Path 33642" d="M184.452,91.84a.405.405,0,1,1-.078-.644.468.468,0,0,1,.078.644" transform="translate(-161.668 -80.228)" fill="#282c37"/>
    <path id="Path_33643" data-name="Path 33643" d="M193.111,91.84a.405.405,0,1,1-.078-.644.468.468,0,0,1,.078.644" transform="translate(-169.289 -80.228)" fill="#282c37"/>
    <path id="Path_33644" data-name="Path 33644" d="M201.769,91.84a.405.405,0,1,1-.078-.644.468.468,0,0,1,.078.644" transform="translate(-176.909 -80.228)" fill="#282c37"/>
    <path id="Path_33645" data-name="Path 33645" d="M210.428,91.84a.405.405,0,1,1-.078-.644.468.468,0,0,1,.078.644" transform="translate(-184.53 -80.228)" fill="#282c37"/>
    <path id="Path_33646" data-name="Path 33646" d="M219.086,91.84a.405.405,0,1,1-.078-.644.468.468,0,0,1,.078.644" transform="translate(-192.15 -80.228)" fill="#282c37"/>
    <path id="Path_33647" data-name="Path 33647" d="M227.744,91.84a.405.405,0,1,1-.078-.644.468.468,0,0,1,.078.644" transform="translate(-199.771 -80.228)" fill="#282c37"/>
    <path id="Path_33648" data-name="Path 33648" d="M236.4,91.84a.405.405,0,1,1-.078-.644.468.468,0,0,1,.078.644" transform="translate(-207.391 -80.228)" fill="#282c37"/>
    <path id="Path_33649" data-name="Path 33649" d="M245.061,91.84a.405.405,0,1,1-.078-.644.468.468,0,0,1,.078.644" transform="translate(-215.012 -80.228)" fill="#282c37"/>
    <path id="Path_33650" data-name="Path 33650" d="M253.72,91.84a.405.405,0,1,1-.078-.644.468.468,0,0,1,.078.644" transform="translate(-222.632 -80.228)" fill="#282c37"/>
    <path id="Path_33651" data-name="Path 33651" d="M262.378,91.84a.405.405,0,1,1-.078-.644.468.468,0,0,1,.078.644" transform="translate(-230.252 -80.228)" fill="#282c37"/>
    <path id="Path_33652" data-name="Path 33652" d="M271.037,91.84a.405.405,0,1,1-.078-.644.468.468,0,0,1,.078.644" transform="translate(-237.873 -80.228)" fill="#282c37"/>
    <path id="Path_33653" data-name="Path 33653" d="M279.7,91.84a.405.405,0,1,1-.078-.644.469.469,0,0,1,.078.644" transform="translate(-245.494 -80.228)" fill="#282c37"/>
    <path id="Path_33654" data-name="Path 33654" d="M281.86,91.84a.405.405,0,1,1-.078-.644.468.468,0,0,1,.078.644" transform="translate(-247.399 -80.228)" fill="#282c37"/>
    <path id="Path_33655" data-name="Path 33655" d="M630.361,106.993a.405.405,0,1,1-.078-.644.468.468,0,0,1,.078.644" transform="translate(-554.121 -93.564)" fill="#282c37"/>
    <path id="Path_33656" data-name="Path 33656" d="M639.02,106.993a.405.405,0,1,1-.078-.644.468.468,0,0,1,.078.644" transform="translate(-561.742 -93.564)" fill="#282c37"/>
    <path id="Path_33657" data-name="Path 33657" d="M647.678,106.993a.405.405,0,1,1-.078-.644.468.468,0,0,1,.078.644" transform="translate(-569.362 -93.564)" fill="#282c37"/>
    <path id="Path_33658" data-name="Path 33658" d="M656.336,106.993a.405.405,0,1,1-.078-.644.468.468,0,0,1,.078.644" transform="translate(-576.982 -93.564)" fill="#282c37"/>
    <path id="Path_33659" data-name="Path 33659" d="M665,106.993a.405.405,0,1,1-.078-.644.469.469,0,0,1,.078.644" transform="translate(-584.603 -93.564)" fill="#282c37"/>
    <path id="Path_33660" data-name="Path 33660" d="M673.653,106.993a.405.405,0,1,1-.078-.644.468.468,0,0,1,.078.644" transform="translate(-592.223 -93.564)" fill="#282c37"/>
    <path id="Path_33661" data-name="Path 33661" d="M682.312,106.993a.405.405,0,1,1-.078-.644.468.468,0,0,1,.078.644" transform="translate(-599.844 -93.564)" fill="#282c37"/>
    <path id="Path_33662" data-name="Path 33662" d="M690.97,106.993a.405.405,0,1,1-.078-.644.468.468,0,0,1,.078.644" transform="translate(-607.464 -93.564)" fill="#282c37"/>
    <path id="Path_33663" data-name="Path 33663" d="M699.629,106.993a.405.405,0,1,1-.078-.644.468.468,0,0,1,.078.644" transform="translate(-615.085 -93.564)" fill="#282c37"/>
    <path id="Path_33664" data-name="Path 33664" d="M708.287,106.993a.405.405,0,1,1-.078-.644.468.468,0,0,1,.078.644" transform="translate(-622.705 -93.564)" fill="#282c37"/>
    <path id="Path_33665" data-name="Path 33665" d="M716.945,106.993a.406.406,0,1,1-.078-.644.469.469,0,0,1,.078.644" transform="translate(-630.325 -93.564)" fill="#282c37"/>
    <path id="Path_33666" data-name="Path 33666" d="M725.6,106.993a.405.405,0,1,1-.078-.644.469.469,0,0,1,.078.644" transform="translate(-637.946 -93.564)" fill="#282c37"/>
    <path id="Path_33667" data-name="Path 33667" d="M734.262,106.993a.405.405,0,1,1-.078-.644.468.468,0,0,1,.078.644" transform="translate(-645.566 -93.564)" fill="#282c37"/>
    <path id="Path_33668" data-name="Path 33668" d="M742.921,106.993a.405.405,0,1,1-.078-.644.469.469,0,0,1,.078.644" transform="translate(-653.187 -93.564)" fill="#282c37"/>
    <path id="Path_33669" data-name="Path 33669" d="M751.579,106.993a.405.405,0,1,1-.078-.644.468.468,0,0,1,.078.644" transform="translate(-660.807 -93.564)" fill="#282c37"/>
    <path id="Path_33670" data-name="Path 33670" d="M760.238,106.993a.405.405,0,1,1-.078-.644.468.468,0,0,1,.078.644" transform="translate(-668.428 -93.564)" fill="#282c37"/>
    <path id="Path_33671" data-name="Path 33671" d="M768.9,106.993a.405.405,0,1,1-.078-.644.468.468,0,0,1,.078.644" transform="translate(-676.048 -93.564)" fill="#282c37"/>
    <path id="Path_33672" data-name="Path 33672" d="M777.554,106.993a.405.405,0,1,1-.078-.644.468.468,0,0,1,.078.644" transform="translate(-683.668 -93.564)" fill="#282c37"/>
    <path id="Path_33673" data-name="Path 33673" d="M786.213,106.993a.405.405,0,1,1-.078-.644.468.468,0,0,1,.078.644" transform="translate(-691.289 -93.564)" fill="#282c37"/>
    <path id="Path_33674" data-name="Path 33674" d="M794.871,106.993a.405.405,0,1,1-.078-.644.468.468,0,0,1,.078.644" transform="translate(-698.909 -93.564)" fill="#282c37"/>
    <path id="Path_33675" data-name="Path 33675" d="M803.53,106.993a.405.405,0,1,1-.078-.644.469.469,0,0,1,.078.644" transform="translate(-706.53 -93.564)" fill="#282c37"/>
    <path id="Path_33676" data-name="Path 33676" d="M812.188,106.993a.405.405,0,1,1-.078-.644.468.468,0,0,1,.078.644" transform="translate(-714.15 -93.564)" fill="#282c37"/>
    <path id="Path_33677" data-name="Path 33677" d="M820.846,106.993a.406.406,0,1,1-.078-.644.469.469,0,0,1,.078.644" transform="translate(-721.77 -93.564)" fill="#282c37"/>
    <path id="Path_33678" data-name="Path 33678" d="M829.505,106.993a.405.405,0,1,1-.078-.644.468.468,0,0,1,.078.644" transform="translate(-729.391 -93.564)" fill="#282c37"/>
    <path id="Path_33679" data-name="Path 33679" d="M838.163,106.993a.405.405,0,1,1-.078-.644.468.468,0,0,1,.078.644" transform="translate(-737.011 -93.564)" fill="#282c37"/>
    <path id="Path_33680" data-name="Path 33680" d="M846.822,106.993a.405.405,0,1,1-.078-.644.468.468,0,0,1,.078.644" transform="translate(-744.632 -93.564)" fill="#282c37"/>
    <path id="Path_33681" data-name="Path 33681" d="M855.48,106.993a.405.405,0,1,1-.078-.644.468.468,0,0,1,.078.644" transform="translate(-752.252 -93.564)" fill="#282c37"/>
    <path id="Path_33682" data-name="Path 33682" d="M864.139,106.993a.405.405,0,1,1-.078-.644.468.468,0,0,1,.078.644" transform="translate(-759.873 -93.564)" fill="#282c37"/>
    <path id="Path_33683" data-name="Path 33683" d="M872.8,106.993a.405.405,0,1,1-.078-.644.468.468,0,0,1,.078.644" transform="translate(-767.493 -93.564)" fill="#282c37"/>
    <path id="Path_33684" data-name="Path 33684" d="M881.455,106.993a.405.405,0,1,1-.078-.644.469.469,0,0,1,.078.644" transform="translate(-775.113 -93.564)" fill="#282c37"/>
    <path id="Path_33685" data-name="Path 33685" d="M890.114,106.993a.405.405,0,1,1-.078-.644.468.468,0,0,1,.078.644" transform="translate(-782.734 -93.564)" fill="#282c37"/>
    <path id="Path_33686" data-name="Path 33686" d="M898.772,106.993a.405.405,0,1,1-.078-.644.468.468,0,0,1,.078.644" transform="translate(-790.354 -93.564)" fill="#282c37"/>
    <path id="Path_33687" data-name="Path 33687" d="M907.431,106.993a.405.405,0,1,1-.078-.644.469.469,0,0,1,.078.644" transform="translate(-797.975 -93.564)" fill="#282c37"/>
    <path id="Path_33688" data-name="Path 33688" d="M916.089,106.993a.405.405,0,1,1-.078-.644.468.468,0,0,1,.078.644" transform="translate(-805.595 -93.564)" fill="#282c37"/>
    <path id="Path_33689" data-name="Path 33689" d="M924.748,106.993a.405.405,0,1,1-.078-.644.469.469,0,0,1,.078.644" transform="translate(-813.216 -93.564)" fill="#282c37"/>
    <path id="Path_33690" data-name="Path 33690" d="M933.406,106.993a.405.405,0,1,1-.078-.644.468.468,0,0,1,.078.644" transform="translate(-820.836 -93.564)" fill="#282c37"/>
    <path id="Path_33691" data-name="Path 33691" d="M942.064,106.993a.405.405,0,1,1-.078-.644.468.468,0,0,1,.078.644" transform="translate(-828.456 -93.564)" fill="#282c37"/>
    <path id="Path_33692" data-name="Path 33692" d="M950.723,106.993a.405.405,0,1,1-.078-.644.468.468,0,0,1,.078.644" transform="translate(-836.077 -93.564)" fill="#282c37"/>
    <path id="Path_33693" data-name="Path 33693" d="M959.381,106.993a.405.405,0,1,1-.078-.644.468.468,0,0,1,.078.644" transform="translate(-843.697 -93.564)" fill="#282c37"/>
    <path id="Path_33694" data-name="Path 33694" d="M968.04,106.993a.405.405,0,1,1-.078-.644.469.469,0,0,1,.078.644" transform="translate(-851.318 -93.564)" fill="#282c37"/>
    <path id="Path_33695" data-name="Path 33695" d="M976.7,106.993a.405.405,0,1,1-.078-.644.468.468,0,0,1,.078.644" transform="translate(-858.938 -93.564)" fill="#282c37"/>
    <path id="Path_33696" data-name="Path 33696" d="M985.357,106.993a.405.405,0,1,1-.078-.644.469.469,0,0,1,.078.644" transform="translate(-866.559 -93.564)" fill="#282c37"/>
    <path id="Path_33697" data-name="Path 33697" d="M994.015,106.993a.405.405,0,1,1-.078-.644.468.468,0,0,1,.078.644" transform="translate(-874.179 -93.564)" fill="#282c37"/>
    <path id="Path_33698" data-name="Path 33698" d="M1002.673,106.993a.405.405,0,1,1-.078-.644.468.468,0,0,1,.078.644" transform="translate(-881.799 -93.564)" fill="#282c37"/>
    <path id="Path_33699" data-name="Path 33699" d="M1011.332,106.993a.405.405,0,1,1-.078-.644.468.468,0,0,1,.078.644" transform="translate(-889.42 -93.564)" fill="#282c37"/>
    <path id="Path_33700" data-name="Path 33700" d="M950.723,96.17a.405.405,0,1,1-.078-.644.468.468,0,0,1,.078.644" transform="translate(-836.077 -84.039)" fill="#282c37"/>
    <path id="Path_33701" data-name="Path 33701" d="M942.064,96.17a.405.405,0,1,1-.078-.644.468.468,0,0,1,.078.644" transform="translate(-828.456 -84.039)" fill="#282c37"/>
    <path id="Path_33702" data-name="Path 33702" d="M959.381,96.17a.405.405,0,1,1-.078-.644.468.468,0,0,1,.078.644" transform="translate(-843.697 -84.039)" fill="#282c37"/>
    <path id="Path_33703" data-name="Path 33703" d="M968.04,96.17a.405.405,0,1,1-.078-.644.468.468,0,0,1,.078.644" transform="translate(-851.318 -84.039)" fill="#282c37"/>
    <path id="Path_33704" data-name="Path 33704" d="M976.7,96.17a.405.405,0,1,1-.078-.644.468.468,0,0,1,.078.644" transform="translate(-858.938 -84.039)" fill="#282c37"/>
    <path id="Path_33705" data-name="Path 33705" d="M985.357,96.17a.405.405,0,1,1-.078-.644.468.468,0,0,1,.078.644" transform="translate(-866.559 -84.039)" fill="#282c37"/>
    <path id="Path_33706" data-name="Path 33706" d="M994.015,96.17a.405.405,0,1,1-.078-.644.468.468,0,0,1,.078.644" transform="translate(-874.179 -84.039)" fill="#282c37"/>
    <path id="Path_33707" data-name="Path 33707" d="M1002.673,96.17a.405.405,0,1,1-.078-.644.468.468,0,0,1,.078.644" transform="translate(-881.799 -84.039)" fill="#282c37"/>
    <path id="Path_33708" data-name="Path 33708" d="M1011.332,96.17a.405.405,0,1,1-.078-.644.468.468,0,0,1,.078.644" transform="translate(-889.42 -84.039)" fill="#282c37"/>
    <path id="Path_33709" data-name="Path 33709" d="M898.176,49.063c-.186-.108-.221-.655-.078-.9a.405.405,0,1,1,.674.389c-.143.248-.41.622-.6.514" transform="translate(-790.355 -42.126)" fill="#282c37"/>
    <path id="Path_33710" data-name="Path 33710" d="M906.834,49.063c-.186-.108-.221-.655-.078-.9a.405.405,0,1,1,.674.389c-.143.248-.411.622-.6.514" transform="translate(-797.975 -42.126)" fill="#282c37"/>
    <path id="Path_33711" data-name="Path 33711" d="M915.493,49.063c-.186-.108-.221-.655-.078-.9a.405.405,0,1,1,.674.389c-.143.248-.41.622-.6.514" transform="translate(-805.596 -42.126)" fill="#282c37"/>
    <path id="Path_33712" data-name="Path 33712" d="M924.151,49.063c-.186-.108-.221-.655-.078-.9a.405.405,0,1,1,.674.389c-.143.248-.411.622-.6.514" transform="translate(-813.216 -42.126)" fill="#282c37"/>
    <path id="Path_33713" data-name="Path 33713" d="M932.809,49.063c-.186-.108-.221-.655-.078-.9a.406.406,0,1,1,.674.389c-.143.248-.41.622-.6.514" transform="translate(-820.836 -42.126)" fill="#282c37"/>
    <path id="Path_33714" data-name="Path 33714" d="M941.468,49.063c-.186-.108-.221-.655-.078-.9a.405.405,0,1,1,.674.389c-.143.248-.41.622-.6.514" transform="translate(-828.457 -42.126)" fill="#282c37"/>
    <path id="Path_33715" data-name="Path 33715" d="M950.126,49.063c-.186-.108-.221-.655-.078-.9a.405.405,0,1,1,.674.389c-.143.248-.41.622-.6.514" transform="translate(-836.077 -42.126)" fill="#282c37"/>
    <path id="Path_33716" data-name="Path 33716" d="M958.785,49.063c-.186-.108-.221-.655-.078-.9a.405.405,0,1,1,.674.389c-.143.248-.41.622-.6.514" transform="translate(-843.698 -42.126)" fill="#282c37"/>
    <path id="Path_33717" data-name="Path 33717" d="M898.176,62.05c-.186-.108-.221-.655-.078-.9a.405.405,0,1,1,.674.389c-.143.248-.41.622-.6.514" transform="translate(-790.355 -53.556)" fill="#282c37"/>
    <path id="Path_33718" data-name="Path 33718" d="M906.834,62.05c-.186-.108-.221-.655-.078-.9a.405.405,0,1,1,.674.389c-.143.248-.411.622-.6.514" transform="translate(-797.975 -53.556)" fill="#282c37"/>
    <path id="Path_33719" data-name="Path 33719" d="M915.493,62.05c-.186-.108-.221-.655-.078-.9a.405.405,0,1,1,.674.389c-.143.248-.41.622-.6.514" transform="translate(-805.596 -53.556)" fill="#282c37"/>
    <path id="Path_33720" data-name="Path 33720" d="M924.151,62.05c-.186-.108-.221-.655-.078-.9a.405.405,0,1,1,.674.389c-.143.248-.411.622-.6.514" transform="translate(-813.216 -53.556)" fill="#282c37"/>
    <path id="Path_33721" data-name="Path 33721" d="M932.809,62.05c-.186-.108-.221-.655-.078-.9a.406.406,0,1,1,.674.389c-.143.248-.41.622-.6.514" transform="translate(-820.836 -53.556)" fill="#282c37"/>
    <path id="Path_33722" data-name="Path 33722" d="M941.468,62.05c-.186-.108-.221-.655-.078-.9a.405.405,0,1,1,.674.389c-.143.248-.41.622-.6.514" transform="translate(-828.457 -53.556)" fill="#282c37"/>
    <path id="Path_33723" data-name="Path 33723" d="M950.126,62.05c-.186-.108-.221-.655-.078-.9a.405.405,0,1,1,.674.389c-.143.248-.41.622-.6.514" transform="translate(-836.077 -53.556)" fill="#282c37"/>
    <path id="Path_33724" data-name="Path 33724" d="M958.785,62.05c-.186-.108-.221-.655-.078-.9a.405.405,0,1,1,.674.389c-.143.248-.41.622-.6.514" transform="translate(-843.698 -53.556)" fill="#282c37"/>
    <path id="Path_33725" data-name="Path 33725" d="M950.723,85.347a.405.405,0,1,1-.078-.644.468.468,0,0,1,.078.644" transform="translate(-836.077 -74.513)" fill="#282c37"/>
    <path id="Path_33726" data-name="Path 33726" d="M942.064,85.347a.405.405,0,1,1-.078-.644.468.468,0,0,1,.078.644" transform="translate(-828.456 -74.513)" fill="#282c37"/>
    <path id="Path_33727" data-name="Path 33727" d="M933.406,85.347a.405.405,0,1,1-.078-.644.468.468,0,0,1,.078.644" transform="translate(-820.836 -74.513)" fill="#282c37"/>
    <path id="Path_33728" data-name="Path 33728" d="M959.381,85.347a.405.405,0,1,1-.078-.644.468.468,0,0,1,.078.644" transform="translate(-843.697 -74.513)" fill="#282c37"/>
    <path id="Path_33729" data-name="Path 33729" d="M968.04,85.347a.405.405,0,1,1-.078-.644.468.468,0,0,1,.078.644" transform="translate(-851.318 -74.513)" fill="#282c37"/>
    <path id="Path_33730" data-name="Path 33730" d="M976.7,85.347a.405.405,0,1,1-.078-.644.468.468,0,0,1,.078.644" transform="translate(-858.938 -74.513)" fill="#282c37"/>
    <path id="Path_33731" data-name="Path 33731" d="M985.357,85.347a.405.405,0,1,1-.078-.644.468.468,0,0,1,.078.644" transform="translate(-866.559 -74.513)" fill="#282c37"/>
    <path id="Path_33732" data-name="Path 33732" d="M994.015,85.347a.405.405,0,1,1-.078-.644.468.468,0,0,1,.078.644" transform="translate(-874.179 -74.513)" fill="#282c37"/>
    <path id="Path_33733" data-name="Path 33733" d="M1002.673,85.347a.405.405,0,1,1-.078-.644.468.468,0,0,1,.078.644" transform="translate(-881.799 -74.513)" fill="#282c37"/>
    <path id="Path_33734" data-name="Path 33734" d="M1011.332,85.347a.405.405,0,1,1-.078-.644.468.468,0,0,1,.078.644" transform="translate(-889.42 -74.513)" fill="#282c37"/>
    <path id="Path_33735" data-name="Path 33735" d="M289.19,12.715H210.821L199.144,0h77.33Z" transform="translate(-175.27 0)" fill="#282c37"/>
    <path id="Path_33736" data-name="Path 33736" d="M119.805,19.045H7.962L4.329,15.152H115.134Z" transform="translate(-3.81 -13.336)" fill="#dce3f2"/>
    <path id="Path_33737" data-name="Path 33737" d="M641.54,73.249H592.495l-1.557-1.816H639.2Z" transform="translate(-520.095 -62.869)" fill="#dce3f2"/>
    <line id="Line_239" data-name="Line 239" x2="65.621" transform="translate(30.118 6.747)" fill="none" stroke="#dce3f2" stroke-width="0.1"/>
    <line id="Line_240" data-name="Line 240" x2="65.557" transform="translate(30.358 7.006)" fill="none" stroke="#dce3f2" stroke-width="0.1"/>
    <line id="Line_241" data-name="Line 241" x2="65.48" transform="translate(30.61 7.266)" fill="none" stroke="#dce3f2" stroke-width="0.1"/>
    <line id="Line_242" data-name="Line 242" x2="65.411" transform="translate(30.855 7.525)" fill="none" stroke="#dce3f2" stroke-width="0.1"/>
    <line id="Line_243" data-name="Line 243" x2="65.472" transform="translate(30.97 7.785)" fill="none" stroke="#dce3f2" stroke-width="0.1"/>
    <line id="Line_244" data-name="Line 244" x2="65.407" transform="translate(31.21 8.044)" fill="none" stroke="#dce3f2" stroke-width="0.1"/>
    <line id="Line_245" data-name="Line 245" x2="65.463" transform="translate(31.33 8.304)" fill="none" stroke="#dce3f2" stroke-width="0.1"/>
    <line id="Line_246" data-name="Line 246" x2="33.716" transform="translate(0.018 10.639)" fill="none" stroke="#272c37" stroke-width="0.1"/>
    <path id="Path_33740" data-name="Path 33740" d="M0,0H96.774" transform="translate(0.018 12.456)" fill="none" stroke="#282c37" stroke-width="0.6"/>
    <path id="Path_33738" data-name="Path 33738" d="M119.629,118.358H3.374L0,114.725H115.477Z" transform="translate(0 -100.971)" fill="#dce3f2"/>
    <path id="Path_33739" data-name="Path 33739" d="M145.952,146.845h-116l-1.816-1.816H144.395Z" transform="translate(-24.766 -127.643)" fill="#282c37"/>
    <g id="Group_1597" data-name="Group 1597" transform="translate(-3 7.4)">
      <line id="Line_247" data-name="Line 247" x2="85.411" transform="translate(36.589 3.337)" fill="none" stroke="#dce3f2" stroke-width="0.1"/>
      <line id="Line_248" data-name="Line 248" y1="0.003" x2="29.745" transform="translate(3.096 0.065)" fill="none" stroke="#282c37" stroke-width="0.1"/>
      <line id="Line_249" data-name="Line 249" x2="30.035" transform="translate(3.096 0.352)" fill="none" stroke="#282c37" stroke-width="0.1"/>
      <line id="Line_250" data-name="Line 250" x2="30.275" transform="translate(3.103 0.636)" fill="none" stroke="#282c37" stroke-width="0.1"/>
      <line id="Line_251" data-name="Line 251" x2="30.527" transform="translate(3.104 0.919)" fill="none" stroke="#282c37" stroke-width="0.1"/>
      <line id="Line_252" data-name="Line 252" x2="30.798" transform="translate(3.103 1.203)" fill="none" stroke="#282c37" stroke-width="0.1"/>
      <line id="Line_253" data-name="Line 253" x2="31.037" transform="translate(3.103 1.486)" fill="none" stroke="#282c37" stroke-width="0.1"/>
      <line id="Line_254" data-name="Line 254" x2="31.335" transform="translate(3.103 1.77)" fill="none" stroke="#282c37" stroke-width="0.1"/>
    </g>
  </g>
</svg>
