<svg xmlns="http://www.w3.org/2000/svg" width="54.593" height="37.931" viewBox="0 0 54.593 37.931">
  <g id="Moshpit_Logo" transform="translate(-116.698 -160.043)">
    <g id="Path_x5F_9_00000149349727925527481390000001203289053090421951_" transform="translate(116.698 160.054)">
      <g id="Group_1486" data-name="Group 1486">
        <path id="Path_28535" data-name="Path 28535" d="M144,163.746a21.984,21.984,0,0,0-5.149-2.663,16.493,16.493,0,0,0-5.78-.986,17.248,17.248,0,0,0-6.392,1.184,17.881,17.881,0,0,0-5.228,3.157,14.572,14.572,0,0,0-3.492,4.557,12.154,12.154,0,0,0-1.263,5.327V193.26a4.344,4.344,0,0,0,1.578,3.393,5.714,5.714,0,0,0,3.847,1.361,5.816,5.816,0,0,0,3.926-1.361,4.315,4.315,0,0,0,1.578-3.393V174.873a4.344,4.344,0,0,1,1.578-3.393,5.714,5.714,0,0,1,3.847-1.361,5.817,5.817,0,0,1,3.926,1.361,4.394,4.394,0,0,1,1.46,2.367,13.871,13.871,0,0,1,5.859-10.3Z" transform="translate(-116.698 -160.096)" fill="#6d6d6d" fill-rule="evenodd"/>
      </g>
    </g>
    <g id="Path_x5F_12_00000058581548958827845370000000741960493049042088_" transform="translate(160.356 178.599)">
      <g id="Group_1487" data-name="Group 1487" transform="translate(0 0)">
        <path id="Path_28536" data-name="Path 28536" d="M338,263.787V268.7a4.344,4.344,0,0,0,1.578,3.393,6.172,6.172,0,0,0,7.733,0,4.206,4.206,0,0,0,1.618-3.393V254.1C347.369,258.7,343.246,262.327,338,263.787Z" transform="translate(-337.998 -254.1)" fill="#6c6c6c" fill-rule="evenodd"/>
      </g>
    </g>
    <g id="Combined_Shape_00000018950734941722295690000005556923718415105715_" transform="translate(160.357 178.599)" opacity="0.2">
      <g id="Group_1488" data-name="Group 1488" transform="translate(0 0)">
        <path id="Path_28537" data-name="Path 28537" d="M348.929,254.238V254.1h0c-1.559,4.577-5.682,8.207-10.929,9.667v1.993C347.371,261.676,348.772,255.264,348.929,254.238Z" transform="translate(-338 -254.1)" fill="#464b5d" fill-rule="evenodd"/>
      </g>
    </g>
    <g id="Path_x5F_15_00000170241008285779280730000005942377716598188429_" transform="translate(138.439 173.805)">
      <g id="Group_1489" data-name="Group 1489" transform="translate(0 0)">
        <path id="Path_28538" data-name="Path 28538" d="M226.92,229.8c-.02.237-.02.473-.02.691a11.248,11.248,0,0,0,.138,1.815v-1.48A4.3,4.3,0,0,0,226.92,229.8Z" transform="translate(-226.9 -229.8)" fill="#cc9f9f" fill-rule="evenodd"/>
      </g>
    </g>
    <g id="Path_x5F_16_00000119813774857745078440000001367424518952189602_" transform="translate(138.439 160.043)">
      <g id="Group_1490" data-name="Group 1490" transform="translate(0 0)">
        <path id="Path_28539" data-name="Path 28539" d="M258.248,168.774c-3.709-7.339-13.159-10.555-20.734-7.694-5.623,1.854-10.278,6.609-10.614,12.725a4.592,4.592,0,0,1,.118,1.046v18.367c0,4.537,6.195,6.135,9.272,3.393a4.315,4.315,0,0,0,1.578-3.393V174.831a4.206,4.206,0,0,1,1.618-3.393,6.121,6.121,0,0,1,7.733,0,4.315,4.315,0,0,1,1.578,3.393v13.474c5.248-1.46,9.371-5.09,10.929-9.687C259.767,175.5,259.945,171.516,258.248,168.774Z" transform="translate(-226.9 -160.043)" fill="#2e2e2e" fill-rule="evenodd"/>
      </g>
    </g>
  </g>
</svg>
