<svg id="recaptcha-icon" xmlns="http://www.w3.org/2000/svg" width="49.253" height="46.812" viewBox="0 0 49.253 46.812">
  <path id="Path_28528" data-name="Path 28528" d="M57.392,16.346c0-.236-.008-.469-.016-.7V2.357L53.7,6.032a16.394,16.394,0,0,0-25.765.453l6.02,6.084A8,8,0,0,1,36.4,9.832,7.259,7.259,0,0,1,41,8.341a1.606,1.606,0,0,1,.581.084,7.936,7.936,0,0,1,6.068,3.655l-4.261,4.261c5.4-.02,11.5-.032,14,0Zm0,0Z" transform="translate(-16.741)" fill="#1c3aa9"/>
  <path id="Path_28529" data-name="Path 28529" d="M35.85,0c-.236,0-.469.008-.7.016H21.857l3.676,3.672a16.4,16.4,0,0,0,.453,25.769l6.084-6.02A8,8,0,0,1,29.332,21a7.259,7.259,0,0,1-1.491-4.6,1.606,1.606,0,0,1,.084-.581,7.936,7.936,0,0,1,3.655-6.068l4.261,4.261c-.016-5.4-.032-11.5.008-14.009Zm0,0Z" transform="translate(-11.684)" fill="#4285f4"/>
  <path id="Path_28530" data-name="Path 28530" d="M19.51,40.9c0,.236.008.469.016.7V54.889L23.2,51.217a16.4,16.4,0,0,0,25.765-.457l-6.02-6.084a8,8,0,0,1-2.437,2.738A7.259,7.259,0,0,1,35.9,48.9a1.606,1.606,0,0,1-.581-.084,7.936,7.936,0,0,1-6.068-3.655L33.515,40.9c-5.4.02-11.5.032-14,0Zm0,0Z" transform="translate(-11.69 -24.506)" fill="#ababab"/>
  <path id="Path_28531" data-name="Path 28531" d="M10.586,97.52a2.443,2.443,0,0,0-1.074.228,2.257,2.257,0,0,0-.806.633,2.977,2.977,0,0,0-.5,1,4.715,4.715,0,0,0-.168,1.307v1.387a4.724,4.724,0,0,0,.168,1.311,2.988,2.988,0,0,0,.5,1,2.177,2.177,0,0,0,.774.633,2.3,2.3,0,0,0,1.022.22,2.846,2.846,0,0,0,1.022-.168,1.92,1.92,0,0,0,.742-.489,2.214,2.214,0,0,0,.461-.786,3.678,3.678,0,0,0,.2-1.042h-.954a4.063,4.063,0,0,1-.124.77,1.441,1.441,0,0,1-.257.521.994.994,0,0,1-.433.3,2.025,2.025,0,0,1-.649.092,1.3,1.3,0,0,1-.7-.18,1.423,1.423,0,0,1-.469-.505,2.5,2.5,0,0,1-.257-.75A5.153,5.153,0,0,1,9,102.077v-1.4a4.763,4.763,0,0,1,.092-.966,2.326,2.326,0,0,1,.293-.738,1.355,1.355,0,0,1,.5-.469,1.434,1.434,0,0,1,.713-.168,1.54,1.54,0,0,1,.593.1.954.954,0,0,1,.413.309,1.491,1.491,0,0,1,.253.525,4.1,4.1,0,0,1,.12.766h.954a3.618,3.618,0,0,0-.192-1.078,2.221,2.221,0,0,0-.461-.79,1.9,1.9,0,0,0-.717-.485,2.617,2.617,0,0,0-.97-.168Zm23.316,0a2.443,2.443,0,0,0-1.074.228,2.257,2.257,0,0,0-.806.633,2.977,2.977,0,0,0-.5,1,4.715,4.715,0,0,0-.168,1.307v1.387a4.724,4.724,0,0,0,.168,1.311,3.065,3.065,0,0,0,.5,1,2.177,2.177,0,0,0,.774.633,2.3,2.3,0,0,0,1.022.22,2.846,2.846,0,0,0,1.022-.168,1.965,1.965,0,0,0,.746-.489,2.214,2.214,0,0,0,.461-.786,3.677,3.677,0,0,0,.2-1.042h-.954a4.062,4.062,0,0,1-.124.77,1.441,1.441,0,0,1-.257.521.994.994,0,0,1-.433.3,2.025,2.025,0,0,1-.649.092,1.3,1.3,0,0,1-.7-.18,1.423,1.423,0,0,1-.469-.505,2.5,2.5,0,0,1-.257-.75,5.153,5.153,0,0,1-.076-.926v-1.4a4.763,4.763,0,0,1,.092-.966,2.326,2.326,0,0,1,.293-.738,1.325,1.325,0,0,1,.5-.469,1.434,1.434,0,0,1,.713-.168,1.54,1.54,0,0,1,.593.1.954.954,0,0,1,.413.309,1.365,1.365,0,0,1,.253.525,4.124,4.124,0,0,1,.116.766h.954a3.617,3.617,0,0,0-.192-1.078,2.282,2.282,0,0,0-.461-.79,1.9,1.9,0,0,0-.717-.485,2.617,2.617,0,0,0-.97-.168Zm-17.877.1L13.6,105.144h.97l.585-1.96H17.7l.593,1.96h.97l-2.425-7.519Zm4.261,0v7.519h.946V102.2h1.451a2.956,2.956,0,0,0,.962-.148,1.879,1.879,0,0,0,.7-.445,1.808,1.808,0,0,0,.433-.713,2.918,2.918,0,0,0,.148-.97,2.79,2.79,0,0,0-.148-.918,2.043,2.043,0,0,0-.429-.729,1.951,1.951,0,0,0-.709-.481,2.558,2.558,0,0,0-.962-.172Zm5.367,0v.818h1.972v6.7h.946V98.438h1.976V97.62H25.653Zm11.86,0v7.519h.946v-3.475h3.026v3.475h.95V97.624h-.95v3.231H38.459V97.624Zm8.5,0-2.421,7.519h.97l.585-1.96H47.69l.593,1.96h.97l-2.425-7.519Zm-24.783.814h1.451a1.267,1.267,0,0,1,.589.124,1.121,1.121,0,0,1,.4.329,1.281,1.281,0,0,1,.232.481,1.989,1.989,0,0,1,.076.557,2.118,2.118,0,0,1-.076.589,1.222,1.222,0,0,1-.232.461,1.048,1.048,0,0,1-.4.3,1.433,1.433,0,0,1-.589.108H21.232v-2.95Zm-4.8.509,1.026,3.419H15.408l1.022-3.419Zm29.99,0,1.026,3.419H45.393l1.026-3.419ZM1.94,99.452a1.045,1.045,0,0,0-.613.18,1.5,1.5,0,0,0-.425.489l-.016-.569H0v5.587H.914v-4a1.316,1.316,0,0,1,.365-.561.916.916,0,0,1,.613-.208,1.689,1.689,0,0,1,.212.012c.06,0,.128.012.2.024l0-.89a.285.285,0,0,0-.068-.02.346.346,0,0,0-.092-.024c-.032,0-.072-.012-.108-.016a.785.785,0,0,0-.092-.008Zm3.074,0a2.2,2.2,0,0,0-.77.14,1.641,1.641,0,0,0-.661.461,2.418,2.418,0,0,0-.461.826,3.848,3.848,0,0,0-.176,1.243v.629a3.669,3.669,0,0,0,.148,1.11,2.157,2.157,0,0,0,.429.782,1.74,1.74,0,0,0,.685.453,2.565,2.565,0,0,0,.9.148,2.562,2.562,0,0,0,1.158-.257,1.737,1.737,0,0,0,.381-.269,2.12,2.12,0,0,0,.273-.309l-.477-.577a2.121,2.121,0,0,1-.245.257,1.451,1.451,0,0,1-.285.2,1.332,1.332,0,0,1-.341.128,1.676,1.676,0,0,1-.417.048,1.189,1.189,0,0,1-.974-.409,2.043,2.043,0,0,1-.337-1.307v-.128H6.966v-.533a5.3,5.3,0,0,0-.108-1.13,2.28,2.28,0,0,0-.345-.826,1.49,1.49,0,0,0-.609-.505,1.991,1.991,0,0,0-.89-.176Zm0,.786a1.025,1.025,0,0,1,.5.108.778.778,0,0,1,.309.3,1.354,1.354,0,0,1,.168.469,4.215,4.215,0,0,1,.072.593v.124h-2.2a3.314,3.314,0,0,1,.112-.782,1.361,1.361,0,0,1,.245-.489.813.813,0,0,1,.357-.257,1.265,1.265,0,0,1,.437-.072Z" transform="translate(0 -58.432)" fill="#a6a6a6"/>
</svg>
